<?xml version="1.0" encoding="utf-8"?>
<!-- Generator: Adobe Illustrator 22.1.0, SVG Export Plug-In . SVG Version: 6.00 Build 0)  -->
<svg version="1.1" id="Layer_1" xmlns="http://www.w3.org/2000/svg" xmlns:xlink="http://www.w3.org/1999/xlink" x="0px" y="0px"
	 width="128px" height="37px" viewBox="0 0 128 37" enable-background="new 0 0 128 37" xml:space="preserve">
<linearGradient id="SVGID_1_" gradientUnits="userSpaceOnUse" x1="64" y1="37" x2="64" y2="-9.094947e-13">
	<stop  offset="0" style="stop-color:#0073BC"/>
	<stop  offset="0.3704" style="stop-color:#008ED3"/>
	<stop  offset="0.7431" style="stop-color:#00A2E5"/>
	<stop  offset="0.9944" style="stop-color:#00A9EB"/>
</linearGradient>
<path fill="url(#SVGID_1_)" d="M9.7,10.1c1,0,2.1,0.1,3.2,0.5c1.3,0.4,2.6,1.5,3.5,2.4c1.1,1.1,1.6,2.1,1.6,2.1s0.2,10.3,0,11.3
	c-0.2,1-0.9,1.5-1.7,1.5c-0.7,0-1.1-0.2-1.5-0.6c-0.3-0.3-0.5-0.6-0.6-1c-0.1-0.3-0.2-0.4-0.5-0.4c-0.1,0-0.3,0.1-0.5,0.2
	c-0.4,0.2-1.5,0.5-2.5,0.6c-0.3,0-0.8,0.1-1.3,0.1c-1.1,0-2.4-0.2-3.6-0.8C3,24.3,2.1,22,1.8,21c-0.3-1.1-0.7-3.8,0.3-6
	c1.2-2.8,3.1-3.8,4.5-4.4C7.4,10.3,8.4,10.1,9.7,10.1 M9.7,8.5C8.3,8.5,7,8.8,6,9.2c-1.6,0.7-3.9,1.9-5.3,5.2
	c-1.3,3.1-0.5,6.6-0.4,7c0.2,0.9,1.3,3.9,4.7,5.8c1.2,0.7,2.7,1,4.3,1c0.6,0,1.1,0,1.5-0.1c0.8-0.1,1.7-0.3,2.3-0.5
	c0.1,0.2,0.3,0.5,0.5,0.6c0.7,0.7,1.5,1.1,2.6,1.1c1.5,0,2.8-1,3.2-2.6c0.3-1.1,0.2-7.8,0.1-11.7l0-0.3l-0.1-0.3
	c-0.1-0.1-0.6-1.3-1.9-2.6c-1.5-1.5-2.8-2.4-4.1-2.8C12.1,8.7,10.9,8.5,9.7,8.5L9.7,8.5z M9.9,15.6c1.5,0,2.8,1.2,2.8,2.8
	s-1.2,2.8-2.8,2.8c-1.5,0-2.8-1.2-2.8-2.8S8.4,15.6,9.9,15.6 M9.9,14.1c-2.4,0-4.3,1.9-4.3,4.3s1.9,4.3,4.3,4.3s4.3-1.9,4.3-4.3
	S12.3,14.1,9.9,14.1L9.9,14.1z M46.6,10.1c1,0,2.1,0.1,3.2,0.5c1.3,0.4,2.6,1.5,3.5,2.4c1.1,1.1,1.6,2.1,1.6,2.1s0.2,10.3,0,11.3
	c-0.2,1-0.9,1.5-1.7,1.5c-0.7,0-1.1-0.2-1.5-0.6c-0.3-0.3-0.5-0.6-0.6-1c-0.1-0.3-0.2-0.4-0.5-0.4c-0.1,0-0.3,0.1-0.5,0.2
	c-0.4,0.2-1.5,0.5-2.5,0.6c-0.3,0-0.8,0.1-1.3,0.1c-1.1,0-2.4-0.2-3.6-0.8c-2.8-1.5-3.7-3.9-4-4.9c-0.3-1.1-0.7-3.8,0.3-6
	c1.2-2.8,3.1-3.8,4.5-4.4C44.3,10.3,45.4,10.1,46.6,10.1 M46.6,8.5c-1.4,0-2.7,0.2-3.6,0.6c-1.6,0.7-3.9,1.9-5.3,5.2
	c-1.3,3.1-0.5,6.6-0.4,7c0.2,0.9,1.3,3.9,4.7,5.8c1.2,0.7,2.7,1,4.3,1c0.6,0,1.1,0,1.5-0.1c0.8-0.1,1.7-0.3,2.3-0.5
	c0.1,0.2,0.3,0.5,0.5,0.6c0.7,0.7,1.5,1.1,2.6,1.1c1.5,0,2.8-1,3.2-2.6c0.3-1.1,0.2-7.8,0.1-11.7l0-0.3l-0.1-0.3
	c-0.1-0.1-0.6-1.3-1.9-2.6c-1.5-1.5-2.8-2.4-4.1-2.8C49.1,8.7,47.8,8.5,46.6,8.5L46.6,8.5z M46.9,15.6c1.5,0,2.8,1.2,2.8,2.8
	s-1.2,2.8-2.8,2.8c-1.5,0-2.8-1.2-2.8-2.8S45.4,15.6,46.9,15.6 M46.9,14.1c-2.4,0-4.3,1.9-4.3,4.3s1.9,4.3,4.3,4.3s4.3-1.9,4.3-4.3
	S49.3,14.1,46.9,14.1L46.9,14.1z M21.9,1.5c1,0,1.6,0.6,1.9,1.1c0.4,0.6,0.3,1.5,0.3,1.5l0,5.5c0,0,0,0.4,0.1,0.5
	c0.1,0.4,0.4,0.5,0.8,0.5c0.1,0,0.3,0,0.4-0.1c0.4-0.2,1.1-0.4,2.2-0.5c0.3,0,0.8-0.1,1.3-0.1c1.1,0,2.4,0.2,3.6,0.8
	c2.8,1.5,3.7,3.9,4,4.9c0.3,1.1,0.7,3.8-0.3,6c-1.2,2.8-3.1,3.8-4.5,4.4c-0.7,0.3-1.8,0.5-3,0.5c-1,0-2.1-0.2-3.3-0.6
	c-1.4-0.5-2.6-1.3-3.6-2.4c-1.1-1.3-2-3.6-2-3.6v-16c0,0-0.1-1,0.2-1.6C20.4,2,20.9,1.5,21.9,1.5 M21.9,0c-1.4,0-2.5,0.7-3.2,1.9
	c-0.5,0.8-0.5,2-0.4,2.4v15.9v0.3l0.1,0.3c0.1,0.3,1,2.6,2.3,4.1c1.1,1.2,2.5,2.1,4.2,2.8c1.2,0.5,2.5,0.7,3.8,0.7
	c1.3,0,2.6-0.2,3.6-0.7c1.6-0.7,3.9-1.9,5.3-5.2c1.3-3.1,0.5-6.6,0.4-7c-0.2-0.9-1.3-3.9-4.7-5.8c-1.2-0.7-2.7-1-4.3-1
	c-0.6,0-1.1,0-1.5,0.1c-0.6,0.1-1.2,0.2-1.7,0.3l0-4.7c0-0.3,0-1.5-0.5-2.4C24.4,0.6,23.2,0,21.9,0L21.9,0z M28.3,15.6
	c1.5,0,2.8,1.2,2.8,2.8c0,1.5-1.2,2.8-2.8,2.8c-1.5,0-2.8-1.2-2.8-2.8C25.5,16.8,26.7,15.6,28.3,15.6 M28.3,14.1
	c-2.4,0-4.3,1.9-4.3,4.3s1.9,4.3,4.3,4.3s4.3-1.9,4.3-4.3S30.6,14.1,28.3,14.1L28.3,14.1z M64.8,10.3c1,0,2.1,0.2,3.3,0.6
	c1.4,0.5,2.6,1.3,3.6,2.4c1.1,1.3,2,3.6,2,3.6v16c0,0,0.1,1-0.2,1.6c-0.3,0.6-0.9,1.1-1.9,1.1c-1,0-1.6-0.6-1.9-1.1
	c-0.4-0.6-0.3-1.5-0.3-1.5l0-5.5c0,0,0-0.4-0.1-0.5c-0.1-0.4-0.4-0.5-0.8-0.5c-0.1,0-0.3,0-0.4,0.1c-0.4,0.2-1.1,0.4-2.2,0.5
	c-0.3,0-0.8,0.1-1.3,0.1c-1.1,0-2.4-0.2-3.6-0.8c-2.8-1.5-3.7-3.9-4-4.9c-0.3-1.1-0.7-3.8,0.3-6c1.2-2.8,3.1-3.8,4.5-4.4
	C62.6,10.5,63.6,10.3,64.8,10.3 M64.8,8.8c-1.3,0-2.6,0.2-3.6,0.7c-1.6,0.7-3.9,1.9-5.3,5.2c-1.3,3.1-0.5,6.6-0.4,7
	c0.2,0.9,1.3,3.9,4.7,5.8c1.2,0.7,2.7,1,4.3,1c0.6,0,1.1,0,1.5-0.1c0.6-0.1,1.2-0.2,1.7-0.3l0,4.7c0,0.3,0,1.5,0.5,2.4
	c0.7,1.2,1.9,1.8,3.2,1.8c1.4,0,2.5-0.7,3.2-1.9c0.5-0.8,0.5-2,0.4-2.4V16.9v-1.5h-0.5c-0.4-0.9-1.1-2.2-1.9-3.1
	c-1.1-1.2-2.5-2.1-4.2-2.8C67.4,9,66.1,8.8,64.8,8.8L64.8,8.8z M65.2,15.9c1.5,0,2.8,1.2,2.8,2.8c0,1.5-1.2,2.8-2.8,2.8
	c-1.5,0-2.8-1.2-2.8-2.8C62.4,17.1,63.7,15.9,65.2,15.9 M65.2,14.3c-2.4,0-4.3,1.9-4.3,4.3c0,2.4,1.9,4.3,4.3,4.3
	c2.4,0,4.3-1.9,4.3-4.3C69.5,16.3,67.5,14.3,65.2,14.3L65.2,14.3z M101.4,15.9c1.5,0,2.8,1.2,2.8,2.8c0,1.5-1.2,2.8-2.8,2.8
	c-1.5,0-2.8-1.2-2.8-2.8C98.6,17.1,99.9,15.9,101.4,15.9 M101.4,14.3c-2.4,0-4.3,1.9-4.3,4.3c0,2.4,1.9,4.3,4.3,4.3
	c2.4,0,4.3-1.9,4.3-4.3C105.7,16.3,103.7,14.3,101.4,14.3L101.4,14.3z M101.5,10.3c4.5,0,8.2,3.7,8.2,8.2c0,4.5-3.7,8.2-8.2,8.2
	c-4.5,0-8.2-3.7-8.2-8.2C93.3,14,97,10.3,101.5,10.3 M101.5,8.8c-5.4,0-9.7,4.4-9.7,9.7c0,5.4,4.4,9.7,9.7,9.7
	c5.4,0,9.7-4.4,9.7-9.7C111.2,13.1,106.9,8.8,101.5,8.8L101.5,8.8z M112.3,9.2c0.5,0,0.8,0,1.2,0.4c0,0,0,0,0,0
	c0.1,0.3,0.3,0.7,0.9,1c0.3,0.1,0.5,0.2,0.8,0.2c0.4,0,0.8-0.2,1-0.2l0,0c0.6-0.2,1.2-0.3,2.1-0.3c4.5,0,8.2,3.7,8.2,8.2
	c0,4.5-3.7,8.2-8.2,8.2c-3,0-5.8-1.7-7.2-4.4c-0.2-0.3-0.2-0.7-0.2-0.9c0.1-0.3,0.3-0.9,0.3-1.5c0-0.2,0-0.4,0.1-0.5
	c0.1-0.1,0.2-0.1,0.2-0.1c0.3-0.2,0.7-0.2,1-0.2c0.5,0,1,0.2,1.2,0.4c0.2,0.2,0.9,1,1.2,1.5c0.8,1.1,2,1.7,3.4,1.7
	c0.5,0,1.1-0.1,1.6-0.3c0.9-0.3,1.8-1.1,2.2-2.1c0.8-1.8,0.4-4-1-5.1c-0.9-0.7-1.8-1-2.8-1l0,0c-0.9,0-2.1,0.3-2.7,0.9
	c-0.1,0.1-0.3,0.3-0.5,0.4c-0.2,0.1-0.5,0.3-0.8,0.4c-0.2,0.1-0.4,0.1-0.7,0.1c-0.3,0-0.5,0-0.7-0.1c-0.1,0-0.1,0-0.2,0
	c-0.4,0-0.8-0.3-1-0.4c-0.4-0.3-0.6-0.6-0.7-0.8c-0.1-0.2-0.3-0.7-0.3-1.1v-1.5c0-1.6,0.4-2.2,0.6-2.4
	C111.4,9.4,111.7,9.2,112.3,9.2 M116.2,10.6L116.2,10.6L116.2,10.6 M112.3,7.7c-1.1,0-1.8,0.5-2.2,1c-0.6,0.6-1,1.7-1,3.5
	c0,0.1,0,1.7,0,1.7s0.2,1.1,0.6,1.8c0.3,0.5,0.9,1,1.1,1.1c0.4,0.3,1.1,0.7,1.8,0.8c0.2,0,0.6,0.1,1,0.1c0.4,0,0.8,0,1.2-0.2
	c0.4-0.1,0.9-0.4,1.2-0.6c0.2-0.2,0.5-0.4,0.7-0.6c0.3-0.3,1-0.5,1.6-0.5c0,0,0,0,0,0c0.7,0,1.2,0.2,1.9,0.7
	c0.8,0.6,1.1,2.1,0.6,3.2c-0.3,0.6-0.8,1.1-1.3,1.3c-0.3,0.1-0.7,0.2-1.1,0.2c-0.8,0-1.6-0.3-2.2-1.1c-0.2-0.3-1.1-1.3-1.4-1.7
	c-0.5-0.4-1.3-0.8-2.2-0.8c-0.5,0-1.1,0.1-1.7,0.4c-0.3,0.1-1,0.7-1,0.7s0,0.6-0.1,1.2c-0.1,0.6-0.2,1.1-0.3,1.3
	c-0.2,0.6,0,1.5,0.3,2.1c1.6,3.1,4.9,5.2,8.6,5.2c5.4,0,9.7-4.4,9.7-9.7c0-5.4-4.4-9.7-9.7-9.7c-1,0-1.8,0.1-2.6,0.4
	c-0.1,0-0.3,0.2-0.5,0.2c0,0-0.1,0-0.1,0c-0.2-0.1-0.2-0.5-0.5-0.8C113.8,7.8,113,7.7,112.3,7.7L112.3,7.7z M83.5,15.9
	c1.5,0,2.8,1.2,2.8,2.8c0,1.5-1.2,2.8-2.8,2.8c-1.5,0-2.8-1.2-2.8-2.8C80.7,17.1,81.9,15.9,83.5,15.9 M83.5,14.3
	c-2.4,0-4.3,1.9-4.3,4.3c0,2.4,1.9,4.3,4.3,4.3s4.3-1.9,4.3-4.3C87.8,16.3,85.8,14.3,83.5,14.3L83.5,14.3z M83.6,10.3
	c4.5,0,8.2,3.7,8.2,8.2c0,4.5-3.7,8.2-8.2,8.2c-4.5,0-8.2-3.7-8.2-8.2C75.4,14,79.1,10.3,83.6,10.3 M83.6,8.8
	c-5.4,0-9.7,4.4-9.7,9.7c0,5.4,4.4,9.7,9.7,9.7c5.4,0,9.7-4.4,9.7-9.7C93.3,13.1,89,8.8,83.6,8.8L83.6,8.8z"/>
<g>
</g>
<g>
</g>
<g>
</g>
<g>
</g>
<g>
</g>
<g>
</g>
<g>
</g>
<g>
</g>
<g>
</g>
<g>
</g>
<g>
</g>
<g>
</g>
<g>
</g>
<g>
</g>
<g>
</g>
</svg>
