<?xml version="1.0" encoding="utf-8"?>
<svg version="1.1" id="amex" xmlns="http://www.w3.org/2000/svg" xmlns:xlink="http://www.w3.org/1999/xlink" x="2000px" y="0px"
	 viewBox="0 0 1915.4 654.9" style="enable-background:new 0 0 1915.4 654.9;" xml:space="preserve">
<style type="text/css">
	.st0{fill:#0078A9;}
</style>
<path id="XMLID_1545_" class="st0" d="M745.8,512.6l78.7-84.7v172L745.8,512.6z M495.1,449.3v38.9h112.7v43.9H495.1V575h126.1
	l58.6-63.1l-56.2-62.5H495.1z M1889.7,481.5c17.6,18,25.6,40.2,25.6,70.3c0,64.4-43.2,103.1-116,103.1h-99.8
	c-14.8,0-27.3-8.8-32.6-21.5c-19.5,13.7-45.3,21.5-77.1,21.5h-100c-5.7,0-10.5-1.6-15.2-3.9c-4.7,2.3-10,3.9-15.4,3.9h-171.2
	c-5.7,0-10.9-1.6-15.6-3.9c-4.7,2.3-10,3.9-15.6,3.9h-51.7c-19.5,0-35.3-15.8-35.3-35.3v-31.2c0-3.1,0-7.6-0.2-11.5
	c-2.3-0.2-5.7-0.4-10.2-0.4h-19.3v43c0,19.5-15.8,35.3-35.5,35.3h-51.7c-19.5,0-35.3-15.8-35.3-35.3v-54.7
	c-18.2,10.9-43.3,18-78.1,18h-28.5v36.7c0,19.5-15.8,35.3-35.3,35.3h-99.8c-10,0-19.7-4.3-26.4-11.9l-37.1-41.8l-38.9,42.4
	c-6.8,7.2-16.2,11.3-26.2,11.3H444.6c-19.5,0-35.5-15.8-35.5-35.3V405c0-19.7,16-35.5,35.5-35.5h206.2c10,0,19.7,4.1,26.4,11.7
	l37.3,41.6l38.9-42c6.6-7.2,16-11.3,26-11.3h163.8c35.9,0,61.1,8,79.3,19.7c5.9-11.5,17.4-19.7,31.2-19.7h118.5
	c27.1,0,53.5,1,78.3,14.3c2.7,1.6,4.5,3.5,6.8,5.3c5.9-11.5,17.6-19.5,31.4-19.5h171c13.3,0,24.4,7.6,30.5,18.7
	c17-11.5,39.2-18.7,67.4-18.7h102.9c15.4,0,28.1,10,33,23.6c17.6-14.1,41.6-23.6,73.6-23.6h102.3c19.5,0,35.3,15.8,35.3,35.5v45.5
	c0,12.7-6.4,23.6-16.2,29.9C1888.9,480.9,1889.3,481.1,1889.7,481.5L1889.7,481.5z M1028.8,475.5c0-59.4-45.7-70.7-86.5-70.7H778.6
	l-65.2,70.3l-63.1-70.3H444v214.8H647l65.8-71.1l62.9,71.1h99.8v-71.9h64C984.3,547.5,1028.8,535.2,1028.8,475.5L1028.8,475.5z
	 M1223.1,519.8c13.5-5.5,36.3-22.8,36.3-57.2c0-24.4-10-37.9-26.2-47.6c-16.8-9-35.7-10-61.7-10H1053v214.6h51.7v-78.3h54.7
	c18.7,0,30.3,1.8,37.5,9.4c9.8,10,8.4,29.1,8.4,42v26.9h51.7V577c-0.2-18.9-1.4-28.7-8.6-39.2
	C1243.8,531.5,1234.4,523.9,1223.1,519.8L1223.1,519.8z M1459.3,405h-171.2v214.6h171.2v-44.5L1339,575v-42.8h117.2v-43.7H1339
	v-38.9h120.3V405z M1670.2,551.6c0-21.9-5.3-35.1-15.4-45.3c-11.5-11.7-30.5-16.6-58.6-17.4l-27.5-0.8c-8.8,0-14.3-0.6-19.9-2.3
	c-6.4-2.5-11.3-8-11.3-16c0-6.8,2-12.1,7.8-15.6c5.1-3.3,11.1-3.9,20.5-3.9h94.1v-45.5h-102.7c-53.9,0-73.4,32.6-73.4,64
	c0,67.6,60.1,64.8,108,66.4c9,0,14.3,1.4,18.2,4.7c3.5,3.1,6.1,8,6.1,14.1c0,5.9-2.5,10.7-6.1,14.1c-4.3,3.9-11.1,5.3-20.9,5.3
	h-99.4v45.9h99.8C1641.3,619.6,1670.2,597.9,1670.2,551.6L1670.2,551.6z M1879.7,551.6c0-21.9-5.3-35.1-15.2-45.3
	c-11.7-11.7-30.7-16.6-58.6-17.4l-27.7-0.8c-8.6,0-14.3-0.6-19.9-2.3c-6.4-2.5-11.1-8-11.1-16c0-6.8,2-12.1,7.6-15.6
	c5.1-3.3,11.3-3.9,20.7-3.9h93.9v-45.5h-102.7c-53.9,0-73.4,32.6-73.4,64c0,67.6,60.1,64.8,108.2,66.4c9,0,14.1,1.4,18.2,4.7
	c3.7,3.1,6.1,8,6.1,14.1c0,5.9-2.5,10.7-6.1,14.1c-4.3,3.9-11.1,5.3-20.9,5.3h-99.4v45.9h99.8C1851,619.6,1879.7,597.9,1879.7,551.6
	L1879.7,551.6z M942.3,449.3h-66.8v54.5h66.2c19.7,0,32-9.8,32-28.3C973.9,456.7,961,449.3,942.3,449.3L942.3,449.3z M972.7,123.6
	c6.6-3.5,10.5-11.1,10.5-20.3c0-9.4-4.1-16-10.7-19.1c-5.9-3.3-15.4-3.7-24.4-3.7h-63.1v47.6h62.3
	C957.3,127.9,965.5,127.7,972.7,123.6L972.7,123.6z M1192.2,453.2c-6.1-3.7-15.4-3.9-24.4-3.9h-63.1v48.2h62.5
	c10,0,18.2-0.4,25.4-4.5c6.6-4.1,10.5-11.3,10.5-20.5C1202.9,463.2,1198.8,456.7,1192.2,453.2L1192.2,453.2z M1381.8,71.9
	l-35.3,85.7h70.9L1381.8,71.9z M129.4,157.6h69.9l-34.8-85.7L129.4,157.6z M416.6,285.5c-14.1,0-26.6-8.2-32.4-21.1l-6.8-15.2v1
	c0,19.5-15.8,35.3-35.3,35.3H237.6c-14.1,0-27.3-8.6-32.6-21.9l-10.7-26h-59.4l-10.9,26c-5.5,13.3-18.4,21.9-32.6,21.9H35.3
	c-11.9,0-23-5.9-29.5-15.8c-6.6-10-7.6-22.5-2.9-33.6L94.7,21.5C100.5,8.6,113,0,127.3,0h76c14.1,0,26.9,8.4,32.6,21.5L255,66.4
	V35.7c0-19.5,15.8-35.5,35.5-35.5h83.8c13.7,0,26.2,8,32,20.7l33.6,72.8l30.3-71.9C476,8.6,488.5,0,502.9,0h85.5
	c7.2,0,13.5,2.7,19.1,6.4c5.5-3.7,11.9-6.4,19.1-6.4h171.2c6.6,0,12.5,2.3,17.8,5.5c5.3-3.1,11.1-5.5,17.8-5.5h117.9
	c30.5,0,55.8,1.2,79.9,15c2.5,1.4,4.3,3.3,6.4,4.9C1043.4,8.4,1055.1,0,1069,0h52.3c17.6,0,31.6,13.3,34.4,30.1
	C1178.5,10.2,1209.8,0,1252,0h49.6c8,0,15.2,2.7,21.3,7c5.9-4.5,13.3-7,21.1-7h76.9c14.1,0,26.9,8.6,32.4,21.5l18.9,44.1V35.7
	c0-19.5,15.8-35.5,35.3-35.5h78.1c12.5,0,23.8,6.6,30.5,17.2l24.6,40.4V35.5c0-19.5,15.8-35.3,35.5-35.3h52.5
	c19.5,0,35.3,15.8,35.3,35.3v214.8c0,19.5-15.8,35.3-35.3,35.3h-72.4c-12.5,0-24-6.4-30.5-17.2l-31.4-52.1v34
	c0,19.5-15.8,35.3-35.3,35.3h-104.3c-14.6,0-27.1-8.6-32.8-21.9l-10.7-26h-59l-10.2,25.8c-5.5,13.3-18.2,22.1-32.8,22.1h-60.1
	c-22.8,0-63.7-4.1-92.9-28.5c-3.3,16.2-16.8,28.5-34,28.5H1070c-5.9,0-11.1-1.8-16.2-4.3c-4.7,2.5-10,4.3-15.8,4.3h-51.7
	c-19.5,0-35.3-15.6-35.5-35.1l-0.2-26.9l0.2-4.9c0-2.7,0-7-0.2-10.7c-2.3-0.2-5.5-0.2-10-0.2h-20.3v42.6c0,19.5-15.8,35.3-35.3,35.3
	h-51.2c-6.6,0-12.5-2.3-17.8-5.5c-5.3,3.1-11.1,5.5-17.8,5.5H627.1c-7.2,0-13.7-2.7-19.1-6.1c-5.7,3.5-11.9,6.1-19.1,6.1h-52.5
	c-19.7,0-35.5-15.8-35.5-35.3v-0.8l-6.8,15c-5.7,12.9-18.2,21.1-32.4,21.1h-45.3V285.5z M1146.9,144.5c0,38.9,9.4,63.7,27.5,81.8
	c17.8,18.2,49.4,23.8,74.2,23.8h60.3l19.3-48h106.6l19.9,48h104.3V89.2l97.2,161.1h72.6V35.5h-52.5v149.6L1586,35.5h-78.1v202.9
	l-86.7-202.9h-76.9l-72.4,168.9h-23c-13.3,0-27.7-2.5-35.7-11.1c-9.6-10.9-14.1-27.3-14.1-50.4c0-22.3,5.9-39.6,14.6-48.6
	c10-10,20.7-12.7,39.4-12.7h48.6V35.5H1252c-35.3,0-61.3,8-77.9,25C1152.4,83.4,1146.9,112.7,1146.9,144.5L1146.9,144.5z
	 M1253.5,116.8c-12.1,0-13.3,1.4-14.8,2.7c-0.4,0.8-3.9,8.4-3.9,23.2c0,14.8,2.3,21.9,3.9,25c2,0.6,5.3,1.2,10,1.2l22.3-51.9
	L1253.5,116.8z M1069.4,250.3h52.3V35.5h-52.3V250.3z M833.7,250.3h51.2v-78.1h54.9c18.4,0,30.1,1.6,37.5,9.2
	c9.4,10.2,8,28.9,8,41.8l0.4,26.9h51.7v-42c0-19.1-1.4-28.7-8.6-39.4c-4.5-6.1-14.1-13.7-25.4-18c13.3-5.3,36.1-23,36.1-57.2
	c0-24-9.8-38.1-26-47.6c-16.6-9.6-35.9-10-62.1-10H833.5v214.4H833.7z M626.7,250.3H798v-44.5H677.9v-42.6h117.2v-44.3H677.9V80.1
	H798V35.5H626.7V250.3z M416.6,250.3h44.9l74.4-168.1l0.2,168.1h52.7V35.5h-85.5l-61.7,145.7L374.3,35.5h-83.8v203.1L203.2,35.5h-76
	L35.3,250.3h55.8l19.9-48h106.6l19.7,48h104.5V82L416.6,250.3z"/>
</svg>
