<?xml version="1.0" encoding="UTF-8" standalone="no"?>
<svg width="120px" height="83px" viewBox="0 0 120 83" version="1.1" xmlns="http://www.w3.org/2000/svg" xmlns:xlink="http://www.w3.org/1999/xlink">
    <!-- Generator: Sketch 46.2 (44496) - http://www.bohemiancoding.com/sketch -->
    <title>icn-bancontact</title>
    <desc>Created with Sketch.</desc>
    <defs>
        <rect id="path-1" x="0" y="0" width="120" height="82.8" rx="8"></rect>
    </defs>
    <g id="Page-1" stroke="none" stroke-width="1" fill="none" fill-rule="evenodd">
        <g id="Payment-Icons" transform="translate(-500.000000, -1334.000000)">
            <g id="icn-bancontact" transform="translate(500.000000, 1334.000000)">
                <g id="Rectangle">
                    <use fill="#FFFFFF" fill-rule="evenodd" xlink:href="#path-1"></use>
                    <rect stroke="#005498" stroke-width="1.5" x="0.75" y="0.75" width="118.5" height="81.3" rx="8"></rect>
                </g>
                <g id="Group" transform="translate(12.450000, 11.290909)">
                    <polyline id="Fill-5" fill="#005498" points="25.165179 35.4186312 42.6060034 35.4186312 52.3703398 24.9852806 69.8729926 24.9852806 55.0113901 41.5301874 0.0485175512 41.5301874 0.0485175512 30.4792521 29.5257105 30.4792521 25.165179 35.4186312"></polyline>
                    <polyline id="Fill-6" fill="#FFD800" points="69.8729926 24.9852806 52.3703398 24.9852806 42.6060034 35.4803247 25.0428238 35.4803247 39.9044263 18.9347685 94.9284764 18.9347685 94.9284764 29.9240103 65.4512835 29.9240103 69.8729926 24.9852806"></polyline>
                    <path d="M87.8663679,14.8603977 C87.0678048,15.353946 86.0238806,15.6007201 85.0411339,15.6007201 C82.2165508,15.6007201 79.6985066,13.5018411 79.6985066,10.6002969 C79.6985066,7.69875257 81.9705388,5.59987363 84.8569503,5.59987363 C85.9015254,5.59987363 87.0678048,5.78495423 87.8663679,6.2791519 L87.8663679,9.36577678 C87.2519885,8.80988558 86.3310703,8.62480498 85.287146,8.62480498 C84.3043994,8.62480498 83.1374691,9.42747032 83.1374691,10.7236839 C83.1374691,11.8354663 84.3043994,12.5140952 85.287146,12.5140952 C86.3922479,12.5140952 87.0678048,12.4524017 87.8663679,11.8354663 L87.8663679,14.8603977" id="Fill-7" fill="#005498"></path>
                    <path d="M95.0514824,12.5140952 L95.0514824,14.8603977 C92.5334382,16.7125025 89.6470267,15.1688654 89.6470267,13.0082929 L89.6470267,8.68714792 L88.4189188,8.68714792 L88.4189188,5.84664776 L89.6470267,5.84664776 L89.6470267,3.56268822 L93.0859891,1.709934 L93.0859891,5.84664776 L95.0514824,5.84664776 L95.0514824,8.43972438 L93.2701728,8.43972438 L93.2701728,12.4524017 C93.2701728,13.1933735 94.4989315,13.1316799 95.0514824,12.5140952" id="Fill-8" fill="#005498"></path>
                    <path d="M69.013252,12.5140952 L69.013252,14.8603977 C66.4340301,16.7125025 63.6087962,15.1688654 63.6087962,13.0082929 L63.6087962,8.68714792 L62.3806883,8.68714792 L62.3806883,5.84664776 L63.6087962,5.84664776 L63.6087962,3.56268822 L67.1095871,1.709934 L67.1095871,5.84664776 L69.013252,5.84664776 L69.013252,8.43972438 L67.1707647,8.43972438 L67.1707647,12.4524017 C67.1707647,13.1933735 68.4600502,13.1316799 69.013252,12.5140952" id="Fill-12" fill="#005498"></path>
                    <path d="M40.3339712,14.8603977 C39.5354082,15.353946 38.61449,15.6007201 37.5705657,15.6007201 C34.6841542,15.6007201 32.2279384,13.5018411 32.2279384,10.6002969 C32.2279384,7.69875257 34.4999705,5.59987363 37.3252045,5.59987363 C38.3691287,5.59987363 39.5354082,5.78495423 40.3339712,6.2791519 L40.3339712,9.36577678 C39.6584142,8.80988558 38.8598512,8.62480498 37.815927,8.62480498 C36.7720027,8.62480498 35.6057232,9.42747032 35.6057232,10.7236839 C35.6057232,11.8354663 36.8338311,12.5140952 37.815927,12.5140952 C38.8598512,12.5140952 39.5354082,12.4524017 40.3339712,11.8354663 L40.3339712,14.8603977" id="Fill-14" fill="#005498"></path>
                    <path d="M31.5523814,9.18004678 L31.5523814,15.4156395 L28.113419,15.4156395 L28.113419,10.0444057 C28.113419,8.13125671 25.3493626,8.19295025 25.3493626,10.0444057 L25.3493626,15.4156395 L21.9104002,15.4156395 L21.9104002,5.84664776 L25.4111911,5.84664776 L25.4111911,6.6493131 C28.2976026,4.48874062 31.5523814,6.4642325 31.5523814,9.18004678" id="Fill-15" fill="#005498"></path>
                    <path d="M61.889315,9.18004678 L61.889315,15.4156395 L58.4503525,15.4156395 L58.4503525,10.0444057 C58.4503525,8.13125671 55.686947,8.19295025 55.686947,10.0444057 L55.686947,15.4156395 L52.2473337,15.4156395 L52.2473337,5.84664776 L55.686947,5.84664776 L55.686947,6.6493131 C58.6345362,4.48874062 61.889315,6.4642325 61.889315,9.18004678" id="Fill-16" fill="#005498"></path>
                    <path d="M74.8472526,8.13125671 C73.8033284,8.06891377 71.7154798,8.19295025 70.1795314,8.93392205 L70.7327332,6.2791519 C74.1716956,5.10567596 79.0847781,5.78495423 79.0847781,8.87157911 L79.0847781,15.4156395 L75.8911769,15.4156395 L75.7681708,15.1071718 C74.2940509,16.0332242 68.8902459,16.4657284 69.6269805,12.2056275 C70.0571762,9.67424445 72.9435877,9.05730912 74.7242466,9.05730912 C75.6458156,9.05730912 76.0141829,8.19295025 74.8472526,8.13125671 Z M75.6458156,11.2178816 C74.9696078,11.0944945 73.1277714,11.4646557 73.1277714,12.6991758 C73.1277714,14.0577323 75.6458156,13.6875711 75.6458156,12.3907081 L75.6458156,11.2178816 Z" id="Fill-17" fill="#005498"></path>
                    <path d="M16.8137849,8.13125671 C15.7698607,8.06891377 13.6201837,8.19295025 12.2078922,8.93392205 L12.6992655,6.2791519 C16.138228,5.10567596 21.0506596,5.78495423 21.0506596,8.87157911 L21.0506596,15.4156395 L17.7958808,15.4156395 L17.7347032,15.1071718 C16.3224116,16.0332242 10.7337722,16.4657284 11.5935128,12.2056275 C12.0237085,9.67424445 14.8482916,9.05730912 16.6296013,9.05730912 C17.5505195,9.05730912 17.9188868,8.19295025 16.8137849,8.13125671 Z M17.6116971,11.2178816 C16.8749625,11.0944945 15.0324753,11.4646557 15.0324753,12.6991758 C15.0324753,14.0577323 17.6116971,13.6875711 17.6116971,12.3907081 L17.6116971,11.2178816 Z" id="Fill-29" fill="#005498"></path>
                    <path d="M67.1707647,12.4524017 L67.1707647,8.43972438 L69.013252,8.43972438 L69.013252,5.84664776 L67.1095871,5.84664776 L67.1095871,1.709934 L63.6087962,3.56268822 L63.6087962,5.84664776 L62.3806883,5.84664776 L62.3806883,8.68714792 L63.6087962,8.68714792 L63.6087962,13.0082929 C63.6087962,15.1688654 66.4340301,16.7125025 69.013252,14.8603977 L69.013252,12.5140952 C68.4600502,13.1316799 67.1707647,13.1933735 67.1707647,12.4524017" id="Fill-20" fill="#005498"></path>
                    <path d="M0.109695157,1.03130513 L6.49624674,1.03130513 C9.68984795,1.03130513 12.0237085,5.29075656 9.07611941,7.94552671 C12.7604431,10.2301357 11.1021395,15.2922524 6.98762007,15.353946 L0.109695157,15.353946 L0.109695157,1.03130513 Z M4.04003094,9.61255092 L4.04003094,12.5140952 L5.63650613,12.5140952 C7.66317704,12.5140952 7.47899339,9.61255092 5.57532852,9.61255092 L4.04003094,9.61255092 Z M5.57532852,3.93284942 C5.14578363,3.80946235 4.04003094,3.87115588 4.04003094,3.93284942 L4.04003094,6.6493131 L5.63650613,6.6493131 C6.74225882,6.6493131 7.35598736,4.73551476 5.57532852,3.93284942 Z" id="Fill-21" fill="#005498"></path>
                    <path d="M40.3339712,11.8354663 C39.5354082,12.4524017 38.8598512,12.5140952 37.815927,12.5140952 C36.8338311,12.5140952 35.6057232,11.8354663 35.6057232,10.7236839 C35.6057232,9.42747032 36.7720027,8.62480498 37.815927,8.62480498 C38.8598512,8.62480498 39.6584142,8.80988558 40.3339712,9.36577678 L40.3339712,6.2791519 C39.5354082,5.78495423 38.3691287,5.59987363 37.3252045,5.59987363 C34.4999705,5.59987363 32.2279384,7.69875257 32.2279384,10.6002969 C32.2279384,13.5018411 34.6841542,15.6007201 37.5705657,15.6007201 C38.61449,15.6007201 39.5354082,15.353946 40.3339712,14.8603977 L40.3339712,11.8354663" id="Fill-22" fill="#005498"></path>
                    <path d="M25.4111911,6.6493131 L25.4111911,5.84664776 L21.9104002,5.84664776 L21.9104002,15.4156395 L25.3493626,15.4156395 L25.3493626,10.0444057 C25.3493626,8.19295025 28.113419,8.13125671 28.113419,10.0444057 L28.113419,15.4156395 L31.5523814,15.4156395 L31.5523814,9.18004678 C31.5523814,6.4642325 28.2976026,4.48874062 25.4111911,6.6493131" id="Fill-23" fill="#005498"></path>
                    <path d="M55.686947,6.6493131 L55.686947,5.84664776 L52.2473337,5.84664776 L52.2473337,15.4156395 L55.686947,15.4156395 L55.686947,10.0444057 C55.686947,8.19295025 58.4503525,8.13125671 58.4503525,10.0444057 L58.4503525,15.4156395 L61.889315,15.4156395 L61.889315,9.18004678 C61.889315,6.4642325 58.6345362,4.48874062 55.686947,6.6493131" id="Fill-24" fill="#005498"></path>
                    <path d="M87.8663679,11.8354663 C87.0678048,12.4524017 86.3922479,12.5140952 85.287146,12.5140952 C84.3043994,12.5140952 83.1374691,11.8354663 83.1374691,10.7236839 C83.1374691,9.42747032 84.3043994,8.62480498 85.287146,8.62480498 C86.3310703,8.62480498 87.2519885,8.80988558 87.8663679,9.36577678 L87.8663679,6.2791519 C87.0678048,5.78495423 85.9015254,5.59987363 84.8569503,5.59987363 C81.9705388,5.59987363 79.6985066,7.69875257 79.6985066,10.6002969 C79.6985066,13.5018411 82.2165508,15.6007201 85.0411339,15.6007201 C86.0238806,15.6007201 87.0678048,15.353946 87.8663679,14.8603977 L87.8663679,11.8354663" id="Fill-25" fill="#005498"></path>
                    <path d="M93.2701728,12.4524017 L93.2701728,8.43972438 L95.0514824,8.43972438 L95.0514824,5.84664776 L93.0859891,5.84664776 L93.0859891,1.709934 L89.6470267,3.56268822 L89.6470267,5.84664776 L88.4189188,5.84664776 L88.4189188,8.68714792 L89.6470267,8.68714792 L89.6470267,13.0082929 C89.6470267,15.1688654 92.5334382,16.7125025 95.0514824,14.8603977 L95.0514824,12.5140952 C94.4989315,13.1316799 93.2701728,13.1933735 93.2701728,12.4524017" id="Fill-26" fill="#005498"></path>
                    <path d="M46.2298003,5.5381801 C49.1773894,5.5381801 51.5724276,7.76044611 51.5724276,10.7236839 C51.5724276,13.6252282 49.1773894,15.663063 46.2909779,15.663063 C43.4045664,15.663063 40.9483506,13.5018411 40.9483506,10.6002969 C40.9483506,7.76044611 43.4045664,5.5381801 46.2298003,5.5381801 Z M48.2558204,10.7236839 C48.2558204,9.36577678 47.3349021,8.68714792 46.2909779,8.68714792 C45.2470536,8.68714792 44.387313,9.36577678 44.387313,10.6002969 C44.387313,11.7737728 45.2470536,12.6381317 46.2909779,12.6381317 C47.3349021,12.6381317 48.2558204,11.7737728 48.2558204,10.7236839 Z" id="Fill-19" fill="#005498"></path>
                    <path d="M42.7908378,54.4332276 L36.4036354,54.4332276 C36.4036354,55.7300906 37.3863821,56.2236389 39.2288693,56.2236389 C40.1497875,56.2236389 41.4390731,55.8534777 42.6060034,55.2358929 L42.6060034,58.0757437 C42.6060034,58.0757437 41.1937118,59.1868767 38.4303063,59.1868767 C35.2367051,59.1868767 32.964673,57.0263042 32.964673,54.0630664 C32.964673,51.3466027 34.8683378,48.9386067 38.061939,48.9386067 C41.4390731,48.9386067 42.7908378,51.0998286 42.7908378,54.4332276 Z M36.2806294,52.5194292 L39.413053,52.5194292 C39.413053,51.5933768 38.5533124,51.2849092 37.8777554,51.2849092 C37.2021984,51.2849092 36.464813,51.5933768 36.2806294,52.5194292 Z" id="Fill-37" fill="#005498"></path>
                    <polyline id="Fill-38" fill="#005498" points="6.74225882 54.9274253 9.56749274 50.852405 9.56749274 58.9401026 13.2518164 58.9401026 13.312994 44.9259294 9.56749274 44.9259294 6.74225882 49.1243367 3.85584729 44.9259294 0.109695157 44.9259294 0.171523589 58.9401026 3.85584729 58.9401026 3.85584729 50.852405 6.74225882 54.9274253"></polyline>
                    <path d="M46.7823512,53.3220946 C47.1507185,52.5194292 47.9486307,51.840151 48.9932058,51.840151 C49.5457567,51.840151 50.1601361,52.0869251 50.589681,52.3960422 L50.589681,49.3711108 C50.2824913,49.0003002 49.7911179,48.8769132 49.3003954,48.8769132 C48.440004,48.8769132 47.2730737,49.3711108 46.7823512,49.9880462 L46.7823512,49.0003002 L43.4663948,49.0003002 L43.4663948,58.9401026 L46.7823512,58.9401026 L46.7823512,53.3220946" id="Fill-39" fill="#005498"></path>
                    <path d="M18.5332662,58.3225178 C19.7001965,58.8167155 21.112488,59.0017961 22.0334062,59.0017961 C25.5953747,59.0017961 26.639299,57.1496913 26.639299,55.6067035 C26.639299,53.8162923 24.7968117,52.8278969 23.1391589,52.5811228 C22.8931468,52.5811228 22.2175899,52.3960422 22.2175899,52.0869251 C22.2175899,51.840151 22.4017735,51.5310339 23.2003365,51.5310339 C23.8758935,51.5310339 25.1040014,51.7784574 25.7183808,52.0869251 L25.5953747,49.4944979 C24.6744565,49.1860302 23.3845202,48.9386067 22.4017735,48.9386067 C20.3757534,48.9386067 18.5944438,50.1737762 18.5944438,52.149268 C18.5944438,53.6929052 19.7001965,54.4955705 21.4808553,54.8657317 C22.2175899,54.9274253 22.8931468,55.2358929 22.8931468,55.6067035 C22.8931468,56.1002518 22.4017735,56.2236389 21.9104002,56.2236389 C21.4808553,56.2236389 20.3757534,56.3470259 18.5332662,55.6067035 L18.5332662,58.3225178" id="Fill-40" fill="#005498"></path>
                    <path d="M31.1221857,55.9151712 L31.1221857,51.840151 L33.0265014,51.840151 L33.0265014,49.1860302 L30.9991797,49.1860302 L30.9991797,44.9259294 L27.4990396,46.7780342 L27.4990396,49.1860302 L26.2709317,49.1860302 L26.2709317,52.025881 L27.4990396,52.025881 L27.4990396,56.4710624 C27.4990396,58.6933284 30.3854511,60.175272 33.0265014,58.3225178 L33.0265014,55.9151712 C32.4732996,56.4710624 31.1221857,56.5944495 31.1221857,55.9151712" id="Fill-41" fill="#005498"></path>
                    <polygon id="Fill-42" fill="#005498" points="14.2339123 49.1860302 17.9188868 49.1860302 17.9188868 58.8167155 14.2339123 58.8167155"></polygon>
                    <path d="M16.0763995,48.8769132 C17.1821522,48.8769132 18.1030704,47.9508607 18.1030704,46.8397277 C18.1030704,45.7902883 17.1821522,44.9259294 16.0763995,44.9259294 C15.0324753,44.9259294 14.1727347,45.7902883 14.1727347,46.8397277 C14.1727347,47.9508607 15.0324753,48.8769132 16.0763995,48.8769132" id="Fill-43" fill="#005498"></path>
                    <path d="M76.6279114,58.3225178 C77.7948417,58.8167155 79.2077841,59.0017961 80.1287023,59.0017961 C83.69002,59.0017961 84.7957727,57.1496913 84.7957727,55.6067035 C84.7957727,53.8162923 82.9532854,52.8278969 81.2338042,52.5811228 C80.9884429,52.5811228 80.312886,52.3960422 80.312886,52.0869251 C80.312886,51.840151 80.4970696,51.5310339 81.3568102,51.5310339 C82.0323672,51.5310339 83.1992975,51.7784574 83.8742036,52.0869251 L83.69002,49.4944979 C82.7691018,49.1860302 81.4798163,48.9386067 80.4970696,48.9386067 C78.4703987,48.9386067 76.6897399,50.1737762 76.6897399,52.149268 C76.6897399,53.6929052 77.7948417,54.4955705 79.5755006,54.8657317 C80.312886,54.9274253 80.9884429,55.2358929 80.9884429,55.6067035 C80.9884429,56.1002518 80.4970696,56.2236389 80.0056963,56.2236389 C79.5755006,56.2236389 78.4703987,56.3470259 76.6279114,55.6067035 L76.6279114,58.3225178" id="Fill-44" fill="#005498"></path>
                    <path d="M65.8196508,54.8657317 C64.6527205,55.7300906 63.7318022,55.9151712 62.1965047,55.9151712 C59.8626441,55.9151712 57.7747955,54.0013729 57.7747955,52.025881 C57.7747955,49.8646591 58.9417258,47.8274737 62.1965047,47.8274737 C63.6699738,47.8274737 64.8980817,48.0742478 65.8196508,48.9386067 L65.8196508,45.6052077 C64.6527205,44.9259294 63.0562453,44.7408488 61.6439537,44.7408488 C57.4064283,44.7408488 54.1516494,47.7657801 54.1516494,51.9024939 C54.1516494,55.9768647 57.7136179,59.064139 61.889315,59.064139 C63.3016065,59.064139 64.6527205,58.755022 65.8196508,58.0757437 L65.8196508,54.8657317" id="Fill-45" fill="#005498"></path>
                    <path d="M71.7154798,51.3466027 C70.6709048,51.2849092 68.5218786,51.4082962 66.986581,52.149268 L67.4779544,49.4944979 C71.039272,48.3210219 76.0753605,48.9386067 76.0753605,52.0869251 L76.0753605,58.755022 L72.7594041,58.755022 L72.6363981,58.5082478 C71.1622781,59.4336508 65.6354671,59.8044614 66.4340301,55.4826671 C66.8023974,52.9519334 69.7499865,52.3343486 71.5924738,52.3343486 C72.513392,52.3343486 72.8817593,51.4082962 71.7154798,51.3466027 Z M72.513392,54.4955705 C71.837835,54.4332276 69.9341702,54.7423447 69.9341702,55.9768647 C69.9341702,57.3354213 72.513392,57.0263042 72.513392,55.6683971 L72.513392,54.4955705 Z" id="Fill-46" fill="#005498"></path>
                    <path d="M88.7261085,49.927002 L88.7261085,44.9259294 L85.287146,44.9259294 L85.287146,58.9401026 L88.7261085,58.9401026 L88.7261085,53.4454817 C88.7261085,51.5933768 91.5506916,51.5310339 91.5506916,53.4454817 L91.5506916,58.9401026 L95.0514824,58.9401026 L95.0514824,52.5811228 C95.0514824,49.741272 91.735526,47.7657801 88.7261085,49.927002" id="Fill-47" fill="#005498"></path>
                </g>
            </g>
        </g>
    </g>
</svg>