<?xml version="1.0" encoding="iso-8859-1"?>
<!-- Generator: Adobe Illustrator 19.0.0, SVG Export Plug-In . SVG Version: 6.00 Build 0)  -->
<svg version="1.1" xmlns="http://www.w3.org/2000/svg" xmlns:xlink="http://www.w3.org/1999/xlink" x="2000px" y="0px"
	 viewBox="0 0 1998.751 739.908" style="enable-background:new 0 0 1998.751 739.908;" xml:space="preserve">
<g id="bank-wire">
	<path id="XMLID_570_" style="fill:#134775;" d="M989.877,389.396c-44.439,0-78.324-5.555-102.765-17.22V105.542
		c11.11-5.555,25.552-9.443,42.217-12.776c17.22-2.777,36.107-4.444,56.66-4.444c40.55,0,71.102,7.221,92.211,21.664
		c21.109,14.443,31.663,33.329,31.663,56.104c0,17.22-6.11,31.663-17.776,42.772c-11.665,11.11-24.997,18.331-39.995,21.664
		c16.665,4.444,32.218,13.332,46.105,26.108c13.887,12.776,20.553,28.885,20.553,47.216c0,28.33-11.11,49.438-33.885,63.881
		C1062.646,382.175,1030.983,389.396,989.877,389.396z M986.544,127.206c-3.888,0-7.777,0-11.665,0
		c-4.444,0-9.443,1.111-15.554,3.333v86.1h14.998c23.33,0,39.995-3.333,49.438-10.554c9.443-7.221,13.887-18.887,13.887-34.996
		C1037.093,142.204,1020.428,127.206,986.544,127.206z M974.323,249.969h-14.998v93.877c3.888,1.111,7.777,2.222,12.776,2.777
		c4.444,1.111,9.999,1.111,16.109,1.111c18.887,0,32.774-3.333,41.661-10.554c9.443-7.221,13.887-18.887,13.887-35.551
		c0-18.331-4.999-31.107-15.554-39.44C1018.207,254.413,999.875,249.969,974.323,249.969z M1343.166,384.952l-19.442-62.214h-96.655
		l-20.553,62.214h-67.769l104.987-292.186h73.88l103.876,292.186H1343.166z M1284.84,188.31c-2.777-9.443-4.444-16.665-5.555-21.664
		c-0.556-4.999-1.666-9.443-2.222-13.887c-0.556,3.888-1.666,7.777-2.222,11.11s-3.333,11.665-7.221,23.886l-29.441,95.544h74.991
		L1284.84,188.31z M1639.796,384.952l-107.209-163.868c-3.888-6.11-7.777-12.221-10.554-18.331s-4.999-9.999-6.11-12.221
		c0.556,3.888,0.556,8.332,0.556,13.887c0,4.999,0,11.11,0,17.776v162.757h-63.325V92.766h66.658l98.321,149.981
		c4.999,7.777,8.888,13.887,11.11,18.331s4.444,7.777,4.999,9.999c-0.556-3.888-0.556-7.777-0.556-12.776c0-4.444,0-9.999,0-16.665
		V92.766h63.881v292.186L1639.796,384.952z M1915.317,384.952l-79.434-144.426l-1.111,144.426h-74.991V92.766h74.991v131.65
		l81.657-131.65h77.213l-91.1,133.872l97.21,157.758L1915.317,384.952L1915.317,384.952z M1210.405,738.797h-75.546l-47.216-153.314
		c-2.222-6.666-3.888-12.776-4.444-17.776c-1.111-4.999-1.667-9.443-2.222-13.332c-0.556,2.222-0.556,4.444-1.111,7.777
		c-0.556,3.333-2.777,11.11-6.11,23.33l-46.105,153.87h-76.102l-82.212-292.186h84.989l38.329,170.534
		c1.666,6.666,2.222,12.776,3.333,19.442c0.556,6.666,1.667,11.11,2.222,13.332c1.111-4.444,2.222-8.888,3.333-14.443
		c1.111-5.555,2.777-11.665,4.999-18.331l48.327-170.534h61.659l47.216,170.534c1.667,7.221,3.333,13.887,3.888,19.998
		c1.111,6.11,1.667,10.554,2.222,12.776c0.556-4.444,1.667-8.888,2.222-13.887c1.111-4.999,2.222-11.11,3.888-19.442l39.44-170.534
		h77.768L1210.405,738.797z M1338.167,738.797V446.611h86.1v292.186H1338.167z M1667.015,738.797l-86.656-128.873l-1.111,128.873
		h-84.989v-279.41c13.887-5.555,29.996-9.443,48.883-12.776c18.886-2.777,38.884-4.444,61.104-4.444
		c48.327,0,84.434,7.777,108.32,23.886c23.886,16.109,36.107,38.329,36.107,67.214c0,18.887-7.777,35.551-23.886,48.883
		c-16.109,13.887-36.107,22.219-60.548,24.997l97.21,130.539h-94.433V738.797z M1604.245,481.607c-8.888,0-17.22,1.111-24.997,3.888
		v107.209c4.444,1.111,10.554,1.666,18.331,1.666c21.664,0,38.328-4.999,49.438-14.998s16.665-23.886,16.665-42.217
		c0-19.442-4.444-33.329-13.332-42.217C1642.018,486.051,1626.464,481.607,1604.245,481.607z M1807.553,738.797V446.611h186.643
		v46.105h-99.988v74.435h87.767v44.994h-87.767v79.99h99.988v46.105L1807.553,738.797L1807.553,738.797z"/>
	<path id="XMLID_561_" style="fill:#134775;" d="M207.752,556.042c0,8.888-7.777,16.665-17.776,16.665h-60.548
		c-9.999,0-17.776-7.221-17.776-16.665V251.635c0-8.888,7.777-16.665,17.776-16.665h60.548c9.999,0,17.776,7.221,17.776,16.665
		V556.042z M379.953,556.042c0,8.888-7.777,16.665-17.776,16.665h-60.548c-9.999,0-17.776-7.221-17.776-16.665V251.635
		c0-8.888,7.777-16.665,17.776-16.665h60.548c9.999,0,17.776,7.221,17.776,16.665V556.042z M552.153,558.264
		c0,8.888-7.777,16.665-17.776,16.665H473.83c-9.999,0-17.776-7.221-17.776-16.665V253.857c0-8.888,7.777-16.665,17.776-16.665
		h60.548c9.999,0,17.776,7.221,17.776,16.665V558.264z M724.91,558.264c0,8.888-7.777,16.665-17.776,16.665h-60.548
		c-9.999,0-17.776-7.221-17.776-16.665V253.857c0-8.888,7.777-16.665,17.776-16.665h60.548c9.999,0,17.776,7.221,17.776,16.665
		V558.264z M792.679,201.642c0,9.999-7.777,17.776-17.776,17.776H63.325c-9.999,0-17.776-7.777-17.776-17.776v-14.998
		c0-9.999,7.777-17.776,17.776-17.776h711.578c9.999,0,17.776,7.777,17.776,17.776V201.642z M835.451,722.132
		c0,9.999-7.777,17.776-17.776,17.776h-799.9C7.777,739.908,0,732.131,0,722.132V679.36c0-9.999,7.777-17.776,17.776-17.776h799.9
		c9.999,0,17.776,7.777,17.776,17.776V722.132z M72.769,152.203L417.726,0l342.18,152.203H72.769z M792.679,621.589
		c0,9.999-7.777,17.776-17.776,17.776H63.325c-9.999,0-17.776-7.777-17.776-17.776v-14.998c0-9.999,7.777-17.776,17.776-17.776
		h711.578c9.999,0,17.776,7.777,17.776,17.776V621.589z"/>
</g>
<g id="&#x421;&#x43B;&#x43E;&#x439;_1">
</g><a href="http://www.slotsup.com/casino-deposit-methods" target="_blank"></a>
</svg>
