<?xml version="1.0" encoding="utf-8"?>
<!-- Generator: Adobe Illustrator 22.1.0, SVG Export Plug-In . SVG Version: 6.00 Build 0)  -->
<svg version="1.1" id="Layer_1" xmlns="http://www.w3.org/2000/svg" xmlns:xlink="http://www.w3.org/1999/xlink" x="0px" y="0px"
	 width="128px" height="61px" viewBox="0 0 128 61" enable-background="new 0 0 128 61" xml:space="preserve">
<g>
	<g>
		<g id="Layer_1_1_">
			<g>
				<path fill="#336699" d="M58.5,55.5H2.8c-1.5,0-2.8,1.2-2.8,2.8C0,59.8,1.2,61,2.8,61h55.7c1.5,0,2.8-1.2,2.8-2.8
					C61.3,56.7,60.1,55.5,58.5,55.5z"/>
				<path fill="#336699" d="M6.3,48.2c-1.5,0-2.8,1.2-2.8,2.8s1.2,2.8,2.8,2.8H55c1.5,0,2.8-1.2,2.8-2.8s-1.2-2.8-2.8-2.8h-0.7v-25
					H55c0.8,0,1.4-0.6,1.4-1.4s-0.6-1.4-1.4-1.4H6.3c-0.8,0-1.4,0.6-1.4,1.4s0.6,1.4,1.4,1.4H7v25L6.3,48.2L6.3,48.2z M48.8,23.3v25
					h-8.4v-25H48.8z M34.8,23.3v25h-8.4v-25H34.8z M12.5,23.3h8.4v25h-8.4V23.3z"/>
				<path fill="#336699" d="M2.8,18h55.7c0,0,0,0,0,0c1.5,0,2.8-1.2,2.8-2.8c0-1.2-0.8-2.3-1.9-2.6L31.8,0.2c-0.7-0.3-1.6-0.3-2.3,0
					L1.6,12.7c-1.2,0.5-1.9,1.8-1.6,3.1C0.3,17.1,1.5,18,2.8,18z"/>
			</g>
		</g>
	</g>
	<g>
		<path d="M65.6,17.8h6.3c1.3,0,2.2,0.1,2.8,0.2c0.6,0.1,1.2,0.3,1.7,0.7c0.5,0.3,0.9,0.8,1.2,1.3c0.3,0.5,0.5,1.2,0.5,1.8
			c0,0.7-0.2,1.4-0.6,2c-0.4,0.6-0.9,1.1-1.6,1.4c1,0.3,1.7,0.8,2.2,1.4c0.5,0.7,0.8,1.5,0.8,2.4c0,0.7-0.2,1.4-0.5,2.1
			c-0.3,0.7-0.8,1.2-1.4,1.6c-0.6,0.4-1.3,0.7-2.2,0.7c-0.5,0.1-1.8,0.1-3.9,0.1h-5.4V17.8z M68.8,20.4v3.7h2.1c1.2,0,2,0,2.3-0.1
			c0.5-0.1,1-0.3,1.3-0.6c0.3-0.3,0.5-0.7,0.5-1.2c0-0.5-0.1-0.9-0.4-1.2c-0.3-0.3-0.7-0.5-1.2-0.6c-0.3,0-1.2-0.1-2.7-0.1H68.8z
			 M68.8,26.7v4.2h3c1.2,0,1.9,0,2.2-0.1c0.5-0.1,0.9-0.3,1.2-0.6c0.3-0.3,0.4-0.8,0.4-1.3c0-0.5-0.1-0.9-0.3-1.2
			c-0.2-0.3-0.6-0.6-1-0.7c-0.4-0.2-1.4-0.2-2.8-0.2H68.8z"/>
		<path d="M95.9,33.6h-3.5L91,30h-6.3l-1.3,3.6H80l6.2-15.8h3.4L95.9,33.6z M90,27.3l-2.2-5.9l-2.1,5.9H90z"/>
		<path d="M97.6,33.6V17.8h3.1l6.5,10.6V17.8h3v15.8H107l-6.4-10.3v10.3H97.6z"/>
		<path d="M113.7,33.6V17.8h3.2v7l6.5-7h4.3l-6,6.2l6.3,9.6h-4.1l-4.4-7.4l-2.6,2.6v4.8H113.7z"/>
		<path d="M66.7,47.6v-7h-2.5v-1.4h6.7v1.4h-2.5v7H66.7z"/>
		<path d="M72,47.6v-8.4h3.6c0.9,0,1.6,0.1,2,0.2c0.4,0.1,0.7,0.4,1,0.8c0.2,0.4,0.4,0.8,0.4,1.3c0,0.6-0.2,1.1-0.6,1.6
			c-0.4,0.4-0.9,0.7-1.7,0.8c0.4,0.2,0.7,0.4,0.9,0.7c0.2,0.3,0.6,0.7,1,1.4l1,1.6h-2l-1.2-1.8c-0.4-0.6-0.7-1.1-0.9-1.2
			c-0.2-0.2-0.3-0.3-0.5-0.3c-0.2-0.1-0.5-0.1-0.9-0.1h-0.3v3.5H72z M73.7,42.8h1.3c0.8,0,1.3,0,1.5-0.1c0.2-0.1,0.4-0.2,0.5-0.4
			s0.2-0.4,0.2-0.6c0-0.3-0.1-0.5-0.2-0.7c-0.2-0.2-0.4-0.3-0.6-0.3c-0.1,0-0.6,0-1.2,0h-1.3V42.8z"/>
		<path d="M88,47.6h-1.8l-0.7-1.9h-3.4l-0.7,1.9h-1.8l3.3-8.4h1.8L88,47.6z M84.9,44.3l-1.2-3.1l-1.1,3.1H84.9z"/>
		<path d="M89,47.6v-8.4h1.7l3.4,5.6v-5.6h1.6v8.4h-1.7l-3.4-5.5v5.5H89z"/>
		<path d="M97,44.9l1.7-0.2c0.1,0.6,0.3,1,0.6,1.2c0.3,0.3,0.7,0.4,1.2,0.4c0.5,0,1-0.1,1.2-0.3c0.3-0.2,0.4-0.5,0.4-0.8
			c0-0.2-0.1-0.4-0.2-0.5c-0.1-0.1-0.3-0.3-0.6-0.4c-0.2-0.1-0.7-0.2-1.4-0.4c-0.9-0.2-1.5-0.5-1.9-0.8c-0.5-0.5-0.8-1-0.8-1.7
			c0-0.4,0.1-0.8,0.4-1.2c0.2-0.4,0.6-0.7,1.1-0.8c0.5-0.2,1-0.3,1.7-0.3c1.1,0,1.8,0.2,2.4,0.7c0.5,0.5,0.8,1.1,0.8,1.8l-1.7,0.1
			c-0.1-0.4-0.2-0.7-0.5-0.9c-0.2-0.2-0.6-0.3-1.1-0.3c-0.5,0-0.9,0.1-1.2,0.3c-0.2,0.1-0.3,0.3-0.3,0.5c0,0.2,0.1,0.4,0.3,0.5
			c0.2,0.2,0.7,0.4,1.6,0.6c0.8,0.2,1.4,0.4,1.8,0.6c0.4,0.2,0.7,0.5,0.9,0.9c0.2,0.4,0.3,0.8,0.3,1.3c0,0.5-0.1,0.9-0.4,1.3
			c-0.3,0.4-0.6,0.7-1.1,0.9c-0.5,0.2-1.1,0.3-1.8,0.3c-1.1,0-1.9-0.2-2.4-0.7C97.5,46.5,97.1,45.8,97,44.9z"/>
		<path d="M105.3,47.6v-8.4h5.8v1.4H107v2h3.5V44H107v3.6H105.3z"/>
		<path d="M112.4,47.6v-8.4h6.2v1.4h-4.5v1.9h4.2v1.4h-4.2v2.3h4.7v1.4H112.4z"/>
		<path d="M120.3,47.6v-8.4h3.6c0.9,0,1.6,0.1,2,0.2c0.4,0.1,0.7,0.4,1,0.8c0.2,0.4,0.4,0.8,0.4,1.3c0,0.6-0.2,1.1-0.6,1.6
			c-0.4,0.4-0.9,0.7-1.7,0.8c0.4,0.2,0.7,0.4,0.9,0.7c0.2,0.3,0.6,0.7,1,1.4l1,1.6h-2l-1.2-1.8c-0.4-0.6-0.7-1.1-0.9-1.2
			c-0.2-0.2-0.3-0.3-0.5-0.3c-0.2-0.1-0.5-0.1-0.9-0.1H122v3.5H120.3z M122,42.8h1.3c0.8,0,1.3,0,1.5-0.1c0.2-0.1,0.4-0.2,0.5-0.4
			s0.2-0.4,0.2-0.6c0-0.3-0.1-0.5-0.2-0.7c-0.2-0.2-0.4-0.3-0.6-0.3c-0.1,0-0.6,0-1.2,0H122V42.8z"/>
	</g>
</g>
<g>
</g>
<g>
</g>
<g>
</g>
<g>
</g>
<g>
</g>
<g>
</g>
<g>
</g>
<g>
</g>
<g>
</g>
<g>
</g>
<g>
</g>
<g>
</g>
<g>
</g>
<g>
</g>
<g>
</g>
</svg>
