<?xml version="1.0" encoding="UTF-8" standalone="no"?>
<svg width="120px" height="26px" viewBox="0 0 120 26" version="1.1" xmlns="http://www.w3.org/2000/svg" xmlns:xlink="http://www.w3.org/1999/xlink">
    <!-- Generator: Sketch 46.2 (44496) - http://www.bohemiancoding.com/sketch -->
    <title>icn-bitcoin</title>
    <desc>Created with Sketch.</desc>
    <defs></defs>
    <g id="Page-1" stroke="none" stroke-width="1" fill="none" fill-rule="evenodd">
        <g id="Payment-Icons" transform="translate(-956.000000, -1075.000000)">
            <g id="icn-bitcoin" transform="translate(956.000000, 1075.000000)">
                <g id="Bitcoin" transform="translate(25.560308, 0.000000)" fill="#4D4D4D">
                    <path d="M11.0992484,7.91885617 C12.1054521,7.91885617 12.9736709,8.09897133 13.7039051,8.45376714 C14.4372399,8.81166838 15.0434428,9.29378698 15.5287151,9.90012292 C16.0077859,10.5095643 16.3643758,11.2222614 16.5946089,12.0382141 C16.8232915,12.8572723 16.9380204,13.7368864 16.9380204,14.6793855 C16.9380204,16.1257413 16.6736788,17.4936849 16.1387939,18.7824399 C15.6046843,20.0727477 14.8791014,21.1922565 13.9566188,22.1471774 C13.0349114,23.101322 11.946537,23.8528369 10.6914956,24.4079332 C9.43800453,24.9645822 8.07598613,25.2417422 6.61319233,25.2417422 C6.42404464,25.2417422 6.0914858,25.2370841 5.62171736,25.226215 C5.15194892,25.2168987 4.6116377,25.1687645 4.00698525,25.0864705 C3.39845683,25.0018474 2.75504461,24.8760774 2.0751982,24.7076076 C1.39612699,24.5422432 0.751164385,24.3101121 0.143411157,24.0158722 L5.57443044,1.16143224 L10.4387818,0.406035468 L8.49459167,8.51587581 C8.91087163,8.32799707 9.33025236,8.18204168 9.7488579,8.07645693 C10.169789,7.97397761 10.6186272,7.91885617 11.0992484,7.91885617 L11.0992484,7.91885617 Z M7.01939474,21.3778062 C7.75195444,21.3778062 8.44187838,21.1976911 9.09071697,20.8428952 C9.74110595,20.4888758 10.3023474,20.0098626 10.7721159,19.412843 C11.2418843,18.8142706 11.6147533,18.1388388 11.8860717,17.3842184 C12.1573901,16.6303743 12.2945997,15.8439232 12.2945997,15.024865 C12.2945997,14.0194808 12.1271575,13.2345825 11.7922731,12.6678408 C11.4573887,12.1026518 10.8387827,11.819281 9.93955598,11.819281 C9.64498171,11.819281 9.26513595,11.8751788 8.79459231,11.9753291 C8.32249829,12.0832429 7.90001677,12.304505 7.5209462,12.6375628 L5.45039917,21.2512598 C5.57520563,21.2722215 5.68605858,21.2939595 5.77985723,21.3133685 C5.87210549,21.3343301 5.97365609,21.3498573 6.07520669,21.3607263 C6.18295886,21.3731481 6.30543974,21.3785826 6.45350207,21.3785826 C6.6015644,21.3785826 6.7891617,21.3778062 7.01939474,21.3778062 L7.01939474,21.3778062 Z" id="path8316"></path>
                    <path d="M21.9845428,24.8030997 L17.3380213,24.8030997 L21.2620606,8.26744111 L25.9403651,8.26744111 L21.9845428,24.8030997 L21.9845428,24.8030997 Z M24.2450127,6.25434365 C23.5961741,6.25434365 23.008576,6.06025404 22.4868694,5.67362753 C21.9605117,5.28855374 21.7000461,4.69541589 21.7000461,3.89654305 C21.7000461,3.45712417 21.7891935,3.04410147 21.9659381,2.65592225 C22.1450082,2.26774303 22.3798925,1.93235618 22.6736915,1.64898534 C22.9674906,1.36716723 23.3070262,1.14202328 23.6930735,0.972000776 C24.0814465,0.80508371 24.4946256,0.722013356 24.9349366,0.722013356 C25.583,0.722013356 26.1682726,0.91532661 26.6915295,1.30272948 C27.2132361,1.69168506 27.4760273,2.28482291 27.4760273,3.0790376 C27.4760273,3.5200092 27.387655,3.93458461 27.2085849,4.32276384 C27.0310651,4.71094306 26.7969561,5.04477719 26.503157,5.32970074 C26.2124587,5.61151886 25.8690472,5.83588645 25.483775,6.00435623 C25.0954021,6.17360238 24.6845485,6.25434365 24.2450127,6.25434365 L24.2450127,6.25434365 Z" id="path8318"></path>
                    <path d="M30.0109164,4.1496359 L34.8775934,3.39423913 L33.682242,8.26744111 L38.893881,8.26744111 L37.9527937,12.1018755 L32.7721626,12.1018755 L31.3923147,17.8865223 C31.2651826,18.3686409 31.1930895,18.8189288 31.1729344,19.2366096 C31.1504537,19.6573959 31.203167,20.0184026 31.3287487,20.3219587 C31.4535551,20.6262912 31.6783618,20.8607515 32.0039439,21.0276686 C32.3279756,21.1961383 32.7923177,21.2807614 33.4000709,21.2807614 C33.9008472,21.2807614 34.3892203,21.2334035 34.8613143,21.1379115 C35.3303076,21.0455248 35.8062776,20.9150966 36.2876739,20.7450741 L36.6341863,24.3310737 C36.006278,24.5616522 35.3264316,24.7604 34.5938719,24.927317 C33.860537,25.0957868 32.9915429,25.1773045 31.9876648,25.1773045 C30.5442509,25.1773045 29.4248687,24.9638059 28.6279677,24.5360324 C27.831842,24.1051534 27.2690501,23.5174501 26.9318401,22.7729223 C26.5992813,22.0315 26.4512189,21.175953 26.4930795,20.2124922 C26.5364904,19.2467023 26.681452,18.2312254 26.9318401,17.1621798 L30.0109164,4.1496359 L30.0109164,4.1496359 Z" id="path8320"></path>
                    <path d="M38.6892294,18.2025002 C38.6892294,16.7778824 38.9194625,15.4355587 39.3799286,14.1770816 C39.8388443,12.9186046 40.5008612,11.8185046 41.3597777,10.8736764 C42.2155935,9.93350634 43.2574562,9.18897859 44.4838154,8.6431986 C45.7047482,8.09897133 47.0714177,7.82491679 48.5783977,7.82491679 C49.5210353,7.82491679 50.3636728,7.91342166 51.1047596,8.09276046 C51.8489473,8.27287562 52.5225921,8.50655951 53.1311205,8.79924664 L51.5287915,12.4489077 C51.110186,12.2788852 50.6753014,12.129048 50.2264632,11.9924089 C49.7768498,11.8542171 49.2280115,11.7874503 48.5791729,11.7874503 C47.028782,11.7874503 45.8024228,12.3223613 44.8900178,13.3890778 C43.9814887,14.457347 43.5233482,15.8943865 43.5233482,17.6978672 C43.5233482,18.7669128 43.7535812,19.6302233 44.2155977,20.2916807 C44.6752886,20.9523618 45.5241276,21.2807614 46.7574636,21.2807614 C47.365992,21.2807614 47.952815,21.2171 48.5156069,21.0928827 C49.0822747,20.9671126 49.5822758,20.8095118 50.023362,20.6216331 L50.3698744,24.3621281 C49.7822762,24.5911538 49.1342128,24.7976652 48.4233586,24.9777803 C47.710954,25.152461 46.8628902,25.2417422 45.8791672,25.2417422 C44.58149,25.2417422 43.4822628,25.0523107 42.5838113,24.6773296 C41.6845846,24.296914 40.9411722,23.7915046 40.3558996,23.1517853 C39.7675263,22.5105132 39.3450448,21.7613273 39.0838039,20.9018985 C38.8217878,20.0455751 38.6892294,19.1434466 38.6892294,18.2025002 L38.6892294,18.2025002 Z" id="path8322"></path>
                    <path d="M59.3280329,25.2432949 C58.2187282,25.2432949 57.2559355,25.0748251 56.4388795,24.7402146 C55.6241491,24.4048278 54.949729,23.9351309 54.4156194,23.3256896 C53.8815097,22.7193536 53.4807337,22.0004457 53.2070897,21.1728476 C52.9326705,20.3460258 52.8016625,19.4291465 52.8016625,18.425315 C52.8016625,17.1652853 53.0039885,15.9060319 53.4117413,14.6498839 C53.8179437,13.3921832 54.4202706,12.2618053 55.2187219,11.2564211 C56.0101964,10.2494842 56.9861675,9.42654427 58.1365575,8.78449583 C59.284622,8.14788191 60.6063302,7.82724587 62.0900543,7.82724587 C63.1784287,7.82724587 64.1373454,7.99649201 64.9652542,8.3311025 C65.7892869,8.66648935 66.4683581,9.13929164 67.0055686,9.74562759 C67.5365775,10.355069 67.9404543,11.0708715 68.2117727,11.9000223 C68.4854167,12.7252913 68.6195255,13.6444997 68.6195255,14.6491075 C68.6195255,15.9052555 68.4203003,17.1645089 68.0249506,18.4245387 C67.6288257,19.6775812 67.0420028,20.8110645 66.2668073,21.8180015 C65.4931623,22.8233856 64.5257184,23.6455492 63.3637004,24.2852686 C62.2016824,24.9234352 60.8551679,25.2432949 59.3280329,25.2432949 L59.3280329,25.2432949 Z M61.6497433,11.789003 C60.9605945,11.789003 60.3520661,11.9893035 59.8303596,12.3852463 C59.3071026,12.7850709 58.8675668,13.2881512 58.5133025,13.8944871 C58.1551622,14.5031522 57.8892702,15.1692677 57.7102,15.8905047 C57.5326803,16.6148471 57.4450832,17.2988189 57.4450832,17.9494073 C57.4450832,18.9982676 57.6140758,19.8149967 57.9458594,20.4034764 C58.2830695,20.9880743 58.8877219,21.2823141 59.7675687,21.2823141 C60.4590431,21.2823141 61.0644707,21.0835664 61.589278,20.6837418 C62.1094342,20.2870226 62.54897,19.7839423 62.9063351,19.1760537 C63.2621498,18.5704941 63.5303674,17.9028258 63.7094376,17.1800361 C63.8854069,16.4580227 63.9745544,15.7701691 63.9745544,15.1211335 C63.9745544,14.0746023 63.806337,13.2563205 63.4714526,12.6686171 C63.1365681,12.0824665 62.5288149,11.789003 61.6497433,11.789003 L61.6497433,11.789003 Z" id="path8324"></path>
                    <path d="M73.6815517,24.8030997 L69.0319295,24.8030997 L72.9559688,8.26744111 L77.6365989,8.26744111 L73.6815517,24.8030997 L73.6815517,24.8030997 Z M75.9389209,6.25434365 C75.2908575,6.25434365 74.7032593,6.06025404 74.182328,5.67362753 C73.6582959,5.28855374 73.3955046,4.69541589 73.3955046,3.89654305 C73.3955046,3.45712417 73.4854273,3.04410147 73.6629471,2.65592225 C73.8404668,2.26774303 74.0761262,1.93235618 74.3699253,1.64898534 C74.662174,1.36716723 75.0048104,1.14202328 75.3900825,0.972000776 C75.7761298,0.80508371 76.189309,0.722013356 76.6288448,0.722013356 C77.2784586,0.722013356 77.8652816,0.91532661 78.3877633,1.30272948 C78.9110202,1.69168506 79.1745867,2.28482291 79.1745867,3.0790376 C79.1745867,3.5200092 79.080788,3.93458461 78.9048187,4.32276384 C78.7288493,4.71094306 78.4939651,5.04477719 78.2009412,5.32970074 C77.9063669,5.61151886 77.5683817,5.83588645 77.1823344,6.00435623 C76.7931863,6.17360238 76.3807823,6.25434365 75.9389209,6.25434365 L75.9389209,6.25434365 Z" id="path8326"></path>
                    <path d="M80.9823424,9.02128516 C81.3350564,8.91802949 81.7288557,8.79381214 82.1575387,8.65872577 C82.5877722,8.5236394 83.0676182,8.39786933 83.6040534,8.28452099 C84.1350623,8.16806723 84.7335132,8.07412785 85.3924293,7.99959744 C86.0513454,7.92506703 86.8009594,7.88857819 87.6358449,7.88857819 C90.0854625,7.88857819 91.7753886,8.60282796 92.7079487,10.0282221 C93.6389585,11.4536162 93.8009743,13.4038286 93.1955467,15.8749775 L91.059108,24.8030997 L86.3823539,24.8030997 L88.4536761,16.0628563 C88.5792578,15.5170763 88.679258,14.9891525 88.7521264,14.4736505 C88.8265451,13.963583 88.821894,13.5132951 88.7358473,13.1235632 C88.6544517,12.7384894 88.4591025,12.4240642 88.1575515,12.1795113 C87.8505741,11.9380638 87.3870072,11.8185046 86.7583237,11.8185046 C86.1528961,11.8185046 85.5366157,11.8837188 84.907157,12.0094888 L81.8614141,24.8030997 L77.1831096,24.8030997 L80.9823424,9.02128516 L80.9823424,9.02128516 Z" id="path8328"></path>
                </g>
                <path d="M12.3541488,25.005988 C5.53114084,25.005988 0,19.4082069 0,12.502994 C0,5.59778109 5.53114084,0 12.3541488,0 C19.1771568,0 24.7082977,5.59778109 24.7082977,12.502994 C24.7082977,19.4082069 19.1771568,25.005988 12.3541488,25.005988 Z M17.8012903,10.720649 C18.0469212,9.05634523 16.7948219,8.1620458 15.0831304,7.56480387 L15.6385033,5.30951203 L14.2828992,4.96711416 L13.7422024,7.16299451 C13.386115,7.07309552 13.019986,6.98788692 12.6554019,6.90424179 L13.1999608,4.6942903 L11.8451292,4.35189244 L11.2889839,6.60640255 C10.993918,6.53839202 10.704259,6.47116321 10.4230967,6.40002576 L10.4246415,6.39299019 L8.5546031,5.9208251 L8.19388111,7.38656936 C8.19388111,7.38656936 9.19957711,7.61952499 9.17872166,7.63437786 C9.7279151,7.77352585 9.82755779,8.14093908 9.81056446,8.43252447 L9.17794924,11.0005084 C9.21579801,11.0098892 9.26446072,11.0231786 9.31930282,11.0466305 C9.27372981,11.0341228 9.22583952,11.0223969 9.17563197,11.0098892 L8.28888926,14.6089754 C8.22168837,14.7770474 8.05098268,15.030328 7.66708797,14.9341752 C7.6809916,14.9537184 6.68147499,14.6855849 6.68147499,14.6855849 L6.0079213,16.2568628 L7.77213763,16.7016673 C8.10041781,16.7845307 8.4225186,16.8720845 8.73844,16.9541662 L8.17766021,19.2344734 L9.53171941,19.5768713 L10.0878647,17.3207977 C10.4578557,17.4216409 10.8170329,17.5162303 11.1684858,17.6045658 L10.6146578,19.8496951 L11.9702619,20.192093 L12.5318141,17.9164762 C14.8444514,18.3589355 16.5831778,18.180701 17.3146633,16.0637754 C17.9047952,14.3588217 17.2853111,13.3761867 16.0687434,12.7351679 C16.9554861,12.5287911 17.6228604,11.9393665 17.8012903,10.720649 L17.8012903,10.720649 Z M14.7030978,15.1178818 C14.2836716,16.8220538 11.4488757,15.9003938 10.5296912,15.6690016 L11.2743079,12.6483958 C12.1934924,12.8805697 15.1410622,13.3402271 14.7030978,15.1178818 L14.7030978,15.1178818 Z M15.122524,10.6964153 C14.7401742,12.2458048 12.380419,11.4586024 11.6149468,11.2662967 L12.2900454,8.52555037 C13.0555175,8.71941948 15.5203224,9.07979714 15.122524,10.6964153 L15.122524,10.6964153 Z" id="circle8306" fill="#F7931A"></path>
            </g>
        </g>
    </g>
</svg>