<?xml version="1.0" encoding="UTF-8" standalone="no"?>
<svg width="120px" height="55px" viewBox="0 0 120 55" version="1.1" xmlns="http://www.w3.org/2000/svg" xmlns:xlink="http://www.w3.org/1999/xlink">
    <!-- Generator: Sketch 46.2 (44496) - http://www.bohemiancoding.com/sketch -->
    <title>icn-boleto</title>
    <desc>Created with Sketch.</desc>
    <defs></defs>
    <g id="Page-1" stroke="none" stroke-width="1" fill="none" fill-rule="evenodd">
        <g id="Payment-Icons" transform="translate(-949.000000, -361.000000)" fill-rule="nonzero" fill="#231F20">
            <g id="icn-boleto" transform="translate(949.000000, 361.000000)">
                <rect id="Rectangle-path" x="83.817931" y="0.554482759" width="1.36551724" height="23.6441379"></rect>
                <rect id="Rectangle-path" x="81.2772414" y="0.554482759" width="1.77103448" height="23.6441379"></rect>
                <rect id="Rectangle-path" x="73.2413793" y="0.554482759" width="3.16965517" height="23.6441379"></rect>
                <rect id="Rectangle-path" x="77.1475862" y="0.554482759" width="1.77103448" height="23.6441379"></rect>
                <rect id="Rectangle-path" x="58.2868966" y="0.554482759" width="1.36551724" height="23.6441379"></rect>
                <rect id="Rectangle-path" x="68.1268966" y="0.554482759" width="1.77103448" height="23.6441379"></rect>
                <rect id="Rectangle-path" x="70.6675862" y="0.554482759" width="1.36551724" height="23.6441379"></rect>
                <rect id="Rectangle-path" x="104.449655" y="0.554482759" width="3.16965517" height="23.6441379"></rect>
                <rect id="Rectangle-path" x="110.673103" y="0.554482759" width="1.77103448" height="23.6441379"></rect>
                <rect id="Rectangle-path" x="86.4" y="0.554482759" width="3.16965517" height="23.6441379"></rect>
                <rect id="Rectangle-path" x="113.222069" y="0.554482759" width="1.36551724" height="23.6441379"></rect>
                <rect id="Rectangle-path" x="101.131034" y="0.554482759" width="1.77103448" height="23.6441379"></rect>
                <rect id="Rectangle-path" x="90.3062069" y="0.554482759" width="1.77103448" height="23.6441379"></rect>
                <rect id="Rectangle-path" x="93.6165517" y="0.554482759" width="5.71862069" height="23.6441379"></rect>
                <rect id="Rectangle-path" x="61.8951724" y="0.554482759" width="3.16965517" height="23.6441379"></rect>
                <rect id="Rectangle-path" x="15.7655172" y="0.554482759" width="1.77103448" height="23.6441379"></rect>
                <rect id="Rectangle-path" x="55.7462069" y="0.554482759" width="1.77103448" height="23.6441379"></rect>
                <rect id="Rectangle-path" x="25.3158621" y="0.554482759" width="1.77103448" height="23.6441379"></rect>
                <rect id="Rectangle-path" x="8.25103448" y="0.554482759" width="5.71862069" height="23.6441379"></rect>
                <rect id="Rectangle-path" x="0" y="0.554482759" width="3.16965517" height="53.52"></rect>
                <rect id="Rectangle-path" x="116.830345" y="0.554482759" width="3.16965517" height="53.52"></rect>
                <rect id="Rectangle-path" x="3.9062069" y="0.554482759" width="1.77103448" height="53.52"></rect>
                <rect id="Rectangle-path" x="19.0841379" y="0.554482759" width="3.16965517" height="23.6441379"></rect>
                <rect id="Rectangle-path" x="38.6813793" y="0.554482759" width="5.71862069" height="23.6441379"></rect>
                <rect id="Rectangle-path" x="27.8565517" y="0.554482759" width="1.36551724" height="23.6441379"></rect>
                <rect id="Rectangle-path" x="49.5144828" y="0.554482759" width="3.16965517" height="23.6441379"></rect>
                <rect id="Rectangle-path" x="46.2041379" y="0.554482759" width="1.77103448" height="23.6441379"></rect>
                <rect id="Rectangle-path" x="30.4303448" y="0.554482759" width="3.16965517" height="23.6441379"></rect>
                <rect id="Rectangle-path" x="34.3365517" y="0.554482759" width="1.77103448" height="23.6441379"></rect>
                <path d="M8.53241379,53.04 L8.53241379,25.9034483 L18.7117241,25.9034483 C20.4056626,25.8432897 22.0943781,26.1247423 23.6772414,26.7310345 C24.8961982,27.2529807 25.9228429,28.1408115 26.6151724,29.2717241 C27.3079465,30.3388204 27.678592,31.5829251 27.6827586,32.8551724 C27.6884665,34.0257484 27.3612647,35.173825 26.7393103,36.1655172 C26.049122,37.2467781 25.0642228,38.108206 23.9006897,38.6482759 C25.4001197,39.0373954 26.7294266,39.9100257 27.6827586,41.1310345 C28.5811388,42.3200036 29.048121,43.7793229 29.0068966,45.2689655 C29.010252,46.5005969 28.7269161,47.7161081 28.1793103,48.8193103 C27.7257518,49.8056669 27.045122,50.670634 26.1931034,51.3434483 C25.299583,51.9796755 24.290315,52.4351112 23.222069,52.6841379 C21.7840718,53.0143997 20.3110323,53.1672623 18.8358621,53.1393103 L8.53241379,53.04 Z M12.1324138,37.3158621 L18,37.3158621 C19.1509205,37.361823 20.302884,37.2560872 21.4262069,37.0013793 C22.2482739,36.793153 22.9767663,36.315262 23.4951724,35.6441379 C23.9771126,34.9481649 24.2209774,34.1149599 24.1903448,33.2689655 C24.2086957,32.4278256 23.9815009,31.5995714 23.5365517,30.8855172 C23.1122501,30.2014175 22.45321,29.6953689 21.6827586,29.462069 C20.3268181,29.1498286 18.9349774,29.0217793 17.5448276,29.0813793 L12.1324138,29.0813793 L12.1324138,37.3075862 L12.1324138,37.3158621 Z M12.1324138,49.862069 L18.8937931,49.862069 C19.7235991,49.8852025 20.5539136,49.8409191 21.3765517,49.7296552 C22.1068618,49.6183035 22.809134,49.3682946 23.4455172,48.9931034 C24.0282595,48.6173944 24.502017,48.0951195 24.8193103,47.4786207 C25.1891796,46.7721139 25.3742349,45.9834937 25.3572414,45.1862069 C25.379175,44.2428701 25.1041548,43.3164862 24.5710345,42.537931 C24.0334008,41.7683957 23.2473161,41.2073241 22.3448276,40.9489655 C21.05381,40.5989989 19.7174304,40.4455524 18.3806897,40.4937931 L12.1324138,40.4937931 L12.1324138,49.8537931 L12.1324138,49.862069 Z" id="Shape"></path>
                <path d="M32.2758621,43.2 C32.2758621,39.5696552 33.2882759,36.8772414 35.3131034,35.1227586 C37.0344977,33.659048 39.2364668,32.8837898 41.4951724,32.9462069 C43.9772854,32.862235 46.3802042,33.8264062 48.1158621,35.6027586 C49.8262069,37.3627586 50.6841379,39.8041379 50.6896552,42.9268966 C50.7883798,44.9748256 50.3998075,47.0169574 49.5558621,48.8855172 C48.8151923,50.3169589 47.662013,51.4932018 46.2455172,52.262069 C44.7945439,53.0637672 43.1611025,53.4771162 41.5034483,53.462069 C39.0085515,53.5589467 36.5888779,52.5970889 34.8413793,50.8137931 C33.1310345,49.0537931 32.2758621,46.5158621 32.2758621,43.2 Z M35.6855172,43.2 C35.6855172,45.7158621 36.2372414,47.5972414 37.3406897,48.8441379 C38.3885191,50.030909 39.8954681,50.7106565 41.4786207,50.7106565 C43.0617733,50.7106565 44.5687222,50.030909 45.6165517,48.8441379 C46.72,47.5862069 47.2717241,45.6717241 47.2717241,43.1006897 C47.2717241,40.6731034 46.72,38.8358621 45.6165517,37.5889655 C44.567305,36.4046387 43.0608813,35.726663 41.4786207,35.726663 C39.8963601,35.726663 38.3899364,36.4046387 37.3406897,37.5889655 C36.2372414,38.8358621 35.6855172,40.7117241 35.6855172,43.2165517 L35.6855172,43.2 Z" id="Shape"></path>
                <polygon id="Shape" points="54.5544828 53.04 54.5544828 25.9034483 57.8896552 25.9034483 57.8896552 53.04 54.5544828 53.04"></polygon>
                <path d="M76.4689655,46.6758621 L79.92,47.1310345 C79.4807884,48.984206 78.4206913,50.6312989 76.9158621,51.7986207 C75.2762831,52.9544008 73.3008585,53.5362637 71.2965517,53.4537931 C68.7489973,53.5789366 66.268793,52.6127405 64.4772414,50.7972414 C62.822069,49.0372414 61.9944828,46.5544828 61.9944828,43.3489655 C61.9944828,40.0386207 62.8441379,37.4786207 64.5434483,35.6689655 C66.2501,33.8419099 68.6656894,32.8454792 71.1641379,32.937931 C73.592421,32.857907 75.9357804,33.8363199 77.5862069,35.6193103 C79.2413793,37.4068966 80.0689655,39.92 80.0689655,43.1586207 C80.0689655,43.3572414 80.0689655,43.6551724 80.0689655,44.0441379 L65.3793103,44.0441379 C65.3697516,45.8657925 66.0193612,47.6294384 67.2082759,49.0096552 C68.2765949,50.1507518 69.7837645,50.7777343 71.3462069,50.7310345 C72.464693,50.7623659 73.561983,50.4218276 74.4662069,49.7627586 C75.440006,48.958902 76.1541305,47.8848356 76.5186207,46.6758621 L76.4689655,46.6758621 Z M65.5531034,41.3296552 L76.5103448,41.3296552 C76.4777187,39.989554 76.0390702,38.6909237 75.2524138,37.6055172 C74.2548823,36.3455283 72.7208678,35.6306776 71.1144828,35.6772414 C69.6747498,35.6531965 68.2876523,36.2181996 67.2744828,37.2413793 C66.1977755,38.3531906 65.582642,39.8318769 65.5531034,41.3793103 L65.5531034,41.3296552 Z" id="Shape"></path>
                <path d="M91.3655172,50.0606897 L91.8206897,53.0068966 C91.0052407,53.1895186 90.1734355,53.2893352 89.337931,53.3048276 C88.3665388,53.3590875 87.3975294,53.1624356 86.5241379,52.7337931 C85.905872,52.39804 85.4146157,51.8689948 85.1255172,51.2275862 C84.7732645,49.9459742 84.6362291,48.6147727 84.72,47.2882759 L84.72,35.942069 L82.2372414,35.942069 L82.2372414,33.3682759 L84.72,33.3682759 L84.72,28.502069 L88.0303448,26.4993103 L88.0303448,33.3682759 L91.3406897,33.3682759 L91.3406897,35.942069 L88.0303448,35.942069 L88.0303448,47.4703448 C87.9885736,48.0881269 88.0472665,48.7085947 88.2041379,49.3075862 C88.319327,49.5811893 88.5195515,49.8104319 88.7751724,49.9613793 C89.1255502,50.1393295 89.5165349,50.2220927 89.9089655,50.2013793 C90.396976,50.1912512 90.8836806,50.1470053 91.3655172,50.0689655 L91.3655172,50.0606897 Z" id="Shape"></path>
                <path d="M93.4096552,43.2 C93.4096552,39.5696552 94.422069,36.8772414 96.4468966,35.1227586 C98.1673527,33.6639621 100.365888,32.8918223 102.62069,32.9544828 C105.099069,32.8640244 107.501436,33.8189649 109.241379,35.5862069 C110.951724,37.3462069 111.809655,39.7875862 111.815172,42.9103448 C111.913897,44.9582739 111.525325,47.0004056 110.681379,48.8689655 C109.94071,50.3004072 108.78753,51.4766501 107.371034,52.2455172 C105.918395,53.0514818 104.281878,53.4677388 102.62069,53.4537931 C100.121365,53.5575644 97.6949281,52.5984152 95.942069,50.8137931 C94.2427586,49.0537931 93.3931034,46.5158621 93.3931034,43.2 L93.4096552,43.2 Z M96.8193103,43.2 C96.8193103,45.7158621 97.3710345,47.5972414 98.4744828,48.8441379 C99.5223122,50.030909 101.029261,50.7106565 102.612414,50.7106565 C104.195566,50.7106565 105.702515,50.030909 106.750345,48.8441379 C107.853793,47.5862069 108.405517,45.6717241 108.405517,43.1006897 C108.405517,40.6731034 107.853793,38.8358621 106.750345,37.5889655 C105.701098,36.4046387 104.194674,35.726663 102.612414,35.726663 C101.030153,35.726663 99.5237295,36.4046387 98.4744828,37.5889655 C97.3710345,38.8358621 96.8193103,40.7117241 96.8193103,43.2165517 L96.8193103,43.2 Z" id="Shape"></path>
            </g>
        </g>
    </g>
</svg>