<?xml version="1.0" encoding="UTF-8" standalone="no"?>
<svg width="120px" height="35px" viewBox="0 0 120 35" version="1.1" xmlns="http://www.w3.org/2000/svg" xmlns:xlink="http://www.w3.org/1999/xlink">
    <!-- Generator: Sketch 46.2 (44496) - http://www.bohemiancoding.com/sketch -->
    <title>icn-certegy</title>
    <desc>Created with Sketch.</desc>
    <defs>
        <radialGradient cx="94.9275362%" cy="82.0093727%" fx="94.9275362%" fy="82.0093727%" r="91.6666667%" gradientTransform="translate(0.949275,0.820094),scale(1.000000,0.906111),translate(-0.949275,-0.820094)" id="radialGradient-1">
            <stop stop-color="#029EDA" offset="0%"></stop>
            <stop stop-color="#0272B7" offset="100%"></stop>
        </radialGradient>
        <linearGradient x1="33.5373317%" y1="15.0881998%" x2="50.5507956%" y2="65.1272399%" id="linearGradient-2">
            <stop stop-color="#FFFFFF" offset="0%"></stop>
            <stop stop-color="#090909" offset="1%"></stop>
            <stop stop-color="#373737" offset="5%"></stop>
            <stop stop-color="#626262" offset="9%"></stop>
            <stop stop-color="#888888" offset="14%"></stop>
            <stop stop-color="#A8A8A8" offset="20%"></stop>
            <stop stop-color="#C4C4C4" offset="25%"></stop>
            <stop stop-color="#DADADA" offset="32%"></stop>
            <stop stop-color="#EBEBEB" offset="40%"></stop>
            <stop stop-color="#F6F6F6" offset="49%"></stop>
            <stop stop-color="#FDFDFD" offset="63%"></stop>
            <stop stop-color="#FFFFFF" offset="100%"></stop>
        </linearGradient>
        <linearGradient x1="33.5373317%" y1="15.0881998%" x2="50.5507956%" y2="65.1272399%" id="linearGradient-3">
            <stop stop-color="#6B6B6B" offset="0%"></stop>
            <stop stop-color="#898989" offset="4%"></stop>
            <stop stop-color="#A8A8A8" offset="10%"></stop>
            <stop stop-color="#C4C4C4" offset="17%"></stop>
            <stop stop-color="#DADADA" offset="24%"></stop>
            <stop stop-color="#EBEBEB" offset="33%"></stop>
            <stop stop-color="#F6F6F6" offset="43%"></stop>
            <stop stop-color="#FDFDFD" offset="58%"></stop>
            <stop stop-color="#FFFFFF" offset="100%"></stop>
        </linearGradient>
        <radialGradient cx="1086%" cy="75916%" fx="1086%" fy="75916%" r="795%" gradientTransform="translate(10.860000,759.160000),scale(1.000000,0.862971),translate(-10.860000,-759.160000)" id="radialGradient-4">
            <stop stop-color="#029EDA" offset="0%"></stop>
            <stop stop-color="#0272B7" offset="100%"></stop>
        </radialGradient>
        <linearGradient x1="248.949284%" y1="76602%" x2="298.592583%" y2="76355%" id="linearGradient-5">
            <stop stop-color="#FFFFFF" offset="0%"></stop>
            <stop stop-color="#090909" offset="1%"></stop>
            <stop stop-color="#373737" offset="5%"></stop>
            <stop stop-color="#626262" offset="9%"></stop>
            <stop stop-color="#888888" offset="14%"></stop>
            <stop stop-color="#A8A8A8" offset="20%"></stop>
            <stop stop-color="#C4C4C4" offset="25%"></stop>
            <stop stop-color="#DADADA" offset="32%"></stop>
            <stop stop-color="#EBEBEB" offset="40%"></stop>
            <stop stop-color="#F6F6F6" offset="49%"></stop>
            <stop stop-color="#FDFDFD" offset="63%"></stop>
            <stop stop-color="#FFFFFF" offset="100%"></stop>
        </linearGradient>
        <linearGradient x1="248.949284%" y1="76602%" x2="298.592583%" y2="76355%" id="linearGradient-6">
            <stop stop-color="#6B6B6B" offset="0%"></stop>
            <stop stop-color="#898989" offset="4%"></stop>
            <stop stop-color="#A8A8A8" offset="10%"></stop>
            <stop stop-color="#C4C4C4" offset="17%"></stop>
            <stop stop-color="#DADADA" offset="24%"></stop>
            <stop stop-color="#EBEBEB" offset="33%"></stop>
            <stop stop-color="#F6F6F6" offset="43%"></stop>
            <stop stop-color="#FDFDFD" offset="58%"></stop>
            <stop stop-color="#FFFFFF" offset="100%"></stop>
        </linearGradient>
        <radialGradient cx="95.5150666%" cy="87.1576385%" fx="95.5150666%" fy="87.1576385%" r="109.250175%" gradientTransform="translate(0.955151,0.871576),scale(1.000000,0.868533),translate(-0.955151,-0.871576)" id="radialGradient-7">
            <stop stop-color="#E4CB6B" offset="0%"></stop>
            <stop stop-color="#DF834C" offset="100%"></stop>
        </radialGradient>
        <linearGradient x1="1800.25348%" y1="76266%" x2="1885.11199%" y2="75842%" id="linearGradient-8">
            <stop stop-color="#FFFFFF" offset="0%"></stop>
            <stop stop-color="#090909" offset="1%"></stop>
            <stop stop-color="#373737" offset="5%"></stop>
            <stop stop-color="#626262" offset="9%"></stop>
            <stop stop-color="#888888" offset="14%"></stop>
            <stop stop-color="#A8A8A8" offset="20%"></stop>
            <stop stop-color="#C4C4C4" offset="25%"></stop>
            <stop stop-color="#DADADA" offset="32%"></stop>
            <stop stop-color="#EBEBEB" offset="40%"></stop>
            <stop stop-color="#F6F6F6" offset="49%"></stop>
            <stop stop-color="#FDFDFD" offset="63%"></stop>
            <stop stop-color="#FFFFFF" offset="100%"></stop>
        </linearGradient>
        <linearGradient x1="1800.25348%" y1="76266%" x2="1885.11199%" y2="75842%" id="linearGradient-9">
            <stop stop-color="#6B6B6B" offset="0%"></stop>
            <stop stop-color="#898989" offset="4%"></stop>
            <stop stop-color="#A8A8A8" offset="10%"></stop>
            <stop stop-color="#C4C4C4" offset="17%"></stop>
            <stop stop-color="#DADADA" offset="24%"></stop>
            <stop stop-color="#EBEBEB" offset="33%"></stop>
            <stop stop-color="#F6F6F6" offset="43%"></stop>
            <stop stop-color="#FDFDFD" offset="58%"></stop>
            <stop stop-color="#FFFFFF" offset="100%"></stop>
        </linearGradient>
        <radialGradient cx="88.5774352%" cy="78.5627284%" fx="88.5774352%" fy="78.5627284%" r="67.4141556%" gradientTransform="translate(0.885774,0.785627),scale(1.000000,0.869062),translate(-0.885774,-0.785627)" id="radialGradient-10">
            <stop stop-color="#E7E8E8" offset="0%"></stop>
            <stop stop-color="#B6B8B9" offset="100%"></stop>
        </radialGradient>
        <linearGradient x1="1800.2415%" y1="79042%" x2="1884.65349%" y2="78618%" id="linearGradient-11">
            <stop stop-color="#FFFFFF" offset="0%"></stop>
            <stop stop-color="#090909" offset="1%"></stop>
            <stop stop-color="#373737" offset="5%"></stop>
            <stop stop-color="#626262" offset="9%"></stop>
            <stop stop-color="#888888" offset="14%"></stop>
            <stop stop-color="#A8A8A8" offset="20%"></stop>
            <stop stop-color="#C4C4C4" offset="25%"></stop>
            <stop stop-color="#DADADA" offset="32%"></stop>
            <stop stop-color="#EBEBEB" offset="40%"></stop>
            <stop stop-color="#F6F6F6" offset="49%"></stop>
            <stop stop-color="#FDFDFD" offset="63%"></stop>
            <stop stop-color="#FFFFFF" offset="100%"></stop>
        </linearGradient>
        <linearGradient x1="1800.2415%" y1="79042%" x2="1884.65349%" y2="78618%" id="linearGradient-12">
            <stop stop-color="#6B6B6B" offset="0%"></stop>
            <stop stop-color="#898989" offset="4%"></stop>
            <stop stop-color="#A8A8A8" offset="10%"></stop>
            <stop stop-color="#C4C4C4" offset="17%"></stop>
            <stop stop-color="#DADADA" offset="24%"></stop>
            <stop stop-color="#EBEBEB" offset="33%"></stop>
            <stop stop-color="#F6F6F6" offset="43%"></stop>
            <stop stop-color="#FDFDFD" offset="58%"></stop>
            <stop stop-color="#FFFFFF" offset="100%"></stop>
        </linearGradient>
        <radialGradient cx="3256%" cy="76492%" fx="3256%" fy="76492%" r="1331%" gradientTransform="translate(32.560000,764.920000),scale(1.000000,0.890183),translate(-32.560000,-764.920000)" id="radialGradient-13">
            <stop stop-color="#029EDA" offset="0%"></stop>
            <stop stop-color="#0272B7" offset="100%"></stop>
        </radialGradient>
        <linearGradient x1="923.605491%" y1="77653%" x2="1011.11563%" y2="77218%" id="linearGradient-14">
            <stop stop-color="#FFFFFF" offset="0%"></stop>
            <stop stop-color="#090909" offset="1%"></stop>
            <stop stop-color="#373737" offset="5%"></stop>
            <stop stop-color="#626262" offset="9%"></stop>
            <stop stop-color="#888888" offset="14%"></stop>
            <stop stop-color="#A8A8A8" offset="20%"></stop>
            <stop stop-color="#C4C4C4" offset="25%"></stop>
            <stop stop-color="#DADADA" offset="32%"></stop>
            <stop stop-color="#EBEBEB" offset="40%"></stop>
            <stop stop-color="#F6F6F6" offset="49%"></stop>
            <stop stop-color="#FDFDFD" offset="63%"></stop>
            <stop stop-color="#FFFFFF" offset="100%"></stop>
        </linearGradient>
        <linearGradient x1="923.605491%" y1="77653%" x2="1011.11563%" y2="77218%" id="linearGradient-15">
            <stop stop-color="#6B6B6B" offset="0%"></stop>
            <stop stop-color="#898989" offset="4%"></stop>
            <stop stop-color="#A8A8A8" offset="10%"></stop>
            <stop stop-color="#C4C4C4" offset="17%"></stop>
            <stop stop-color="#DADADA" offset="24%"></stop>
            <stop stop-color="#EBEBEB" offset="33%"></stop>
            <stop stop-color="#F6F6F6" offset="43%"></stop>
            <stop stop-color="#FDFDFD" offset="58%"></stop>
            <stop stop-color="#FFFFFF" offset="100%"></stop>
        </linearGradient>
        <radialGradient cx="3256%" cy="76477%" fx="3256%" fy="76477%" r="1366%" gradientTransform="translate(32.560000,764.770000),scale(1.000000,0.868453),translate(-32.560000,-764.770000)" id="radialGradient-16">
            <stop stop-color="#029EDA" offset="0%"></stop>
            <stop stop-color="#0272B7" offset="100%"></stop>
        </radialGradient>
        <linearGradient x1="921.149459%" y1="77654%" x2="1006.0211%" y2="77230%" id="linearGradient-17">
            <stop stop-color="#FFFFFF" offset="0%"></stop>
            <stop stop-color="#090909" offset="1%"></stop>
            <stop stop-color="#373737" offset="5%"></stop>
            <stop stop-color="#626262" offset="9%"></stop>
            <stop stop-color="#888888" offset="14%"></stop>
            <stop stop-color="#A8A8A8" offset="20%"></stop>
            <stop stop-color="#C4C4C4" offset="25%"></stop>
            <stop stop-color="#DADADA" offset="32%"></stop>
            <stop stop-color="#EBEBEB" offset="40%"></stop>
            <stop stop-color="#F6F6F6" offset="49%"></stop>
            <stop stop-color="#FDFDFD" offset="63%"></stop>
            <stop stop-color="#FFFFFF" offset="100%"></stop>
        </linearGradient>
        <linearGradient x1="921.149459%" y1="77654%" x2="1006.0211%" y2="77230%" id="linearGradient-18">
            <stop stop-color="#6B6B6B" offset="0%"></stop>
            <stop stop-color="#898989" offset="4%"></stop>
            <stop stop-color="#A8A8A8" offset="10%"></stop>
            <stop stop-color="#C4C4C4" offset="17%"></stop>
            <stop stop-color="#DADADA" offset="24%"></stop>
            <stop stop-color="#EBEBEB" offset="33%"></stop>
            <stop stop-color="#F6F6F6" offset="43%"></stop>
            <stop stop-color="#FDFDFD" offset="58%"></stop>
            <stop stop-color="#FFFFFF" offset="100%"></stop>
        </linearGradient>
        <radialGradient cx="76.8146582%" cy="76.8574909%" fx="76.8146582%" fy="76.8574909%" r="89.3587033%" gradientTransform="translate(0.768147,0.768575),scale(1.000000,0.864190),translate(-0.768147,-0.768575)" id="radialGradient-19">
            <stop stop-color="#A8C755" offset="0%"></stop>
            <stop stop-color="#069D4A" offset="100%"></stop>
        </radialGradient>
        <linearGradient x1="1503.84828%" y1="77652%" x2="1588.38301%" y2="77228%" id="linearGradient-20">
            <stop stop-color="#FFFFFF" offset="0%"></stop>
            <stop stop-color="#090909" offset="1%"></stop>
            <stop stop-color="#373737" offset="5%"></stop>
            <stop stop-color="#626262" offset="9%"></stop>
            <stop stop-color="#888888" offset="14%"></stop>
            <stop stop-color="#A8A8A8" offset="20%"></stop>
            <stop stop-color="#C4C4C4" offset="25%"></stop>
            <stop stop-color="#DADADA" offset="32%"></stop>
            <stop stop-color="#EBEBEB" offset="40%"></stop>
            <stop stop-color="#F6F6F6" offset="49%"></stop>
            <stop stop-color="#FDFDFD" offset="63%"></stop>
            <stop stop-color="#FFFFFF" offset="100%"></stop>
        </linearGradient>
        <linearGradient x1="1503.84828%" y1="77652%" x2="1588.38301%" y2="77228%" id="linearGradient-21">
            <stop stop-color="#6B6B6B" offset="0%"></stop>
            <stop stop-color="#898989" offset="4%"></stop>
            <stop stop-color="#A8A8A8" offset="10%"></stop>
            <stop stop-color="#C4C4C4" offset="17%"></stop>
            <stop stop-color="#DADADA" offset="24%"></stop>
            <stop stop-color="#EBEBEB" offset="33%"></stop>
            <stop stop-color="#F6F6F6" offset="43%"></stop>
            <stop stop-color="#FDFDFD" offset="58%"></stop>
            <stop stop-color="#FFFFFF" offset="100%"></stop>
        </linearGradient>
        <radialGradient cx="3789%" cy="75078%" fx="3789%" fy="75078%" r="934%" gradientTransform="translate(37.890000,750.780000),scale(1.000000,0.863055),translate(-37.890000,-750.780000)" id="radialGradient-22">
            <stop stop-color="#E7E8E8" offset="0%"></stop>
            <stop stop-color="#B6B8B9" offset="100%"></stop>
        </radialGradient>
        <linearGradient x1="1204.02356%" y1="76265%" x2="1288.47338%" y2="75841%" id="linearGradient-23">
            <stop stop-color="#FFFFFF" offset="0%"></stop>
            <stop stop-color="#090909" offset="1%"></stop>
            <stop stop-color="#373737" offset="5%"></stop>
            <stop stop-color="#626262" offset="9%"></stop>
            <stop stop-color="#888888" offset="14%"></stop>
            <stop stop-color="#A8A8A8" offset="20%"></stop>
            <stop stop-color="#C4C4C4" offset="25%"></stop>
            <stop stop-color="#DADADA" offset="32%"></stop>
            <stop stop-color="#EBEBEB" offset="40%"></stop>
            <stop stop-color="#F6F6F6" offset="49%"></stop>
            <stop stop-color="#FDFDFD" offset="63%"></stop>
            <stop stop-color="#FFFFFF" offset="100%"></stop>
        </linearGradient>
        <linearGradient x1="1204.02356%" y1="76265%" x2="1288.47338%" y2="75841%" id="linearGradient-24">
            <stop stop-color="#6B6B6B" offset="0%"></stop>
            <stop stop-color="#898989" offset="4%"></stop>
            <stop stop-color="#A8A8A8" offset="10%"></stop>
            <stop stop-color="#C4C4C4" offset="17%"></stop>
            <stop stop-color="#DADADA" offset="24%"></stop>
            <stop stop-color="#EBEBEB" offset="33%"></stop>
            <stop stop-color="#F6F6F6" offset="43%"></stop>
            <stop stop-color="#FDFDFD" offset="58%"></stop>
            <stop stop-color="#FFFFFF" offset="100%"></stop>
        </linearGradient>
    </defs>
    <g id="Page-1" stroke="none" stroke-width="1" fill="none" fill-rule="evenodd">
        <g id="Payment-Icons" transform="translate(0.000000, -646.000000)" fill-rule="nonzero">
            <g id="icn-certegy" transform="translate(0.000000, 646.000000)">
                <path d="M3.31724138,24.2551724 C3.03733757,24.4151487 2.69369691,24.4151487 2.4137931,24.2551724 L0.503448276,23.137931 C0.22044405,22.9639761 0.0343958119,22.6683378 0,22.337931 L0,20.1103448 C0.0343958119,19.7799381 0.22044405,19.4842998 0.503448276,19.3103448 L2.4137931,18.1931034 C2.69369691,18.0331271 3.03733757,18.0331271 3.31724138,18.1931034 L5.23448276,19.3103448 C5.50697496,19.4903251 5.6822499,19.7849903 5.71034483,20.1103448 L5.71034483,22.3448276 C5.6822499,22.6701821 5.50697496,22.9648473 5.23448276,23.1448276 L3.31724138,24.2551724 Z" id="Shape" fill="url(#radialGradient-1)"></path>
                <g id="Group" opacity="0.33" transform="translate(0.000000, 17.931034)" fill="url(#linearGradient-2)">
                    <path d="M3.37241379,3.24137931 C1.37931034,2.65517241 0.551724138,3.02758621 0.551724138,3.02758621 C0.282758621,3.13103448 0.075862069,3.02758621 0.075862069,2.71034483 L0.075862069,2.17931034 C0.103956992,1.85395578 0.279231934,1.55929066 0.551724138,1.37931034 L2.4137931,0.262068966 C2.69369691,0.102092636 3.03733757,0.102092636 3.31724138,0.262068966 L5.23448276,1.37931034 C5.50697496,1.55929066 5.6822499,1.85395578 5.71034483,2.17931034 L5.71034483,2.71034483 C5.69597564,3.06169517 5.60413009,3.40552722 5.44137931,3.71724138 C5.44137931,3.71724138 5.33793103,3.82758621 3.37241379,3.24137931 Z" id="Shape"></path>
                </g>
                <g id="Group" opacity="0.33" transform="translate(0.000000, 17.931034)" fill="url(#linearGradient-3)">
                    <path d="M3.37241379,3.24137931 C1.37931034,2.65517241 0.551724138,3.02758621 0.551724138,3.02758621 C0.282758621,3.13103448 0.075862069,3.02758621 0.075862069,2.71034483 L0.075862069,2.17931034 C0.103956992,1.85395578 0.279231934,1.55929066 0.551724138,1.37931034 L2.4137931,0.262068966 C2.69369691,0.102092636 3.03733757,0.102092636 3.31724138,0.262068966 L5.23448276,1.37931034 C5.50697496,1.55929066 5.6822499,1.85395578 5.71034483,2.17931034 L5.71034483,2.71034483 C5.69597564,3.06169517 5.60413009,3.40552722 5.44137931,3.71724138 C5.44137931,3.71724138 5.33793103,3.82758621 3.37241379,3.24137931 Z" id="Shape"></path>
                </g>
                <path d="M2.46896552,18.462069 C2.52413793,18.5172414 2.52413793,18.5655172 2.46896552,18.5655172 L0.606896552,19.6275862 C0.551724138,19.6275862 0.503448276,19.6275862 0.503448276,19.5724138 L0.503448276,19.5724138 C0.448275862,19.5172414 0.503448276,19.4689655 0.55862069,19.4689655 L2.42068966,18.4068966 C2.45116054,18.4068966 2.47586207,18.4315981 2.47586207,18.462069 L2.46896552,18.462069 Z" id="Shape" fill="#FFFFFF"></path>
                <polygon id="Shape" fill="url(#radialGradient-4)" points="2.84137931 24.5241379 0.0206896552 22.9241379 0.0206896552 19.5793103 2.84137931 17.9310345 5.71034483 19.5793103 5.71034483 22.9241379"></polygon>
                <path d="M3.37241379,21.1724138 C2.27888734,20.8014069 1.09352645,20.8014069 0,21.1724138 L0,19.5793103 L2.84137931,17.9310345 L5.71034483,19.5793103 L5.71034483,21.1724138 C5.71034483,21.1724138 5.33793103,21.7586207 3.37241379,21.1724138 Z" id="Shape" fill="url(#linearGradient-5)" opacity="0.33"></path>
                <path d="M3.37241379,21.1724138 C2.27888734,20.8014069 1.09352645,20.8014069 0,21.1724138 L0,19.5793103 L2.84137931,17.9310345 L5.71034483,19.5793103 L5.71034483,21.1724138 C5.71034483,21.1724138 5.33793103,21.7586207 3.37241379,21.1724138 Z" id="Shape" fill="url(#linearGradient-6)" opacity="0.33"></path>
                <path d="M2.46896552,18.462069 C2.52413793,18.5172414 2.52413793,18.5655172 2.46896552,18.5655172 L0.606896552,19.6275862 C0.551724138,19.6275862 0.503448276,19.6275862 0.503448276,19.5724138 L0.503448276,19.5724138 C0.448275862,19.5172414 0.503448276,19.4689655 0.55862069,19.4689655 L2.42068966,18.4068966 C2.45116054,18.4068966 2.47586207,18.4315981 2.47586207,18.462069 L2.46896552,18.462069 Z" id="Shape" fill="#FFFFFF"></path>
                <polygon id="Shape" fill="url(#radialGradient-7)" points="32.2413793 31.1172414 27.2965517 28.2413793 27.2965517 22.6068966 32.2413793 19.7862069 37.137931 22.6068966 37.137931 28.2413793"></polygon>
                <path d="M33.0413793,25.3172414 C29.5931034,24.3103448 27.2965517,25.3172414 27.2965517,25.3172414 L27.2965517,22.6068966 L32.1862069,19.7862069 L37.0758621,22.6068966 L37.0758621,25.3172414 C37.137931,25.3172414 36.4965517,26.3310345 33.0413793,25.3172414 Z" id="Shape" fill="url(#linearGradient-8)" opacity="0.33"></path>
                <path d="M33.0413793,25.3172414 C29.5931034,24.3103448 27.2965517,25.3172414 27.2965517,25.3172414 L27.2965517,22.6068966 L32.1862069,19.7862069 L37.0758621,22.6068966 L37.0758621,25.3172414 C37.137931,25.3172414 36.4965517,26.3310345 33.0413793,25.3172414 Z" id="Shape" fill="url(#linearGradient-9)" opacity="0.33"></path>
                <path d="M31.5517241,20.6413793 C31.6068966,20.6965517 31.5517241,20.8 31.4965517,20.8551724 L28.2758621,22.7103448 C28.2206897,22.7655172 28.1172414,22.7103448 28.062069,22.6551724 L28.062069,22.6551724 C28.0068966,22.6 28.062069,22.4965517 28.1172414,22.4413793 L31.3103448,20.6344828 C31.3655172,20.5310345 31.4689655,20.5793103 31.5241379,20.6344828 L31.5517241,20.6413793 Z" id="Shape" fill="#FFFFFF"></path>
                <polygon id="Shape" fill="url(#radialGradient-10)" points="32.2413793 11.9724138 27.2965517 9.15172414 27.2965517 3.46206897 32.2413793 0.648275862 37.137931 3.46206897 37.137931 9.15172414"></polygon>
                <path d="M33.0413793,6.20689655 C29.5931034,5.2 27.2965517,6.20689655 27.2965517,6.20689655 L27.2965517,3.44827586 L32.2413793,0.627586207 L37.137931,3.44827586 L37.137931,6.20689655 C37.137931,6.20689655 36.4965517,7.1862069 33.0413793,6.20689655 Z" id="Shape" fill="url(#linearGradient-11)" opacity="0.33"></path>
                <path d="M33.0413793,6.20689655 C29.5931034,5.2 27.2965517,6.20689655 27.2965517,6.20689655 L27.2965517,3.44827586 L32.2413793,0.627586207 L37.137931,3.44827586 L37.137931,6.20689655 C37.137931,6.20689655 36.4965517,7.1862069 33.0413793,6.20689655 Z" id="Shape" fill="url(#linearGradient-12)" opacity="0.33"></path>
                <path d="M31.5517241,1.55172414 C31.6068966,1.60689655 31.5517241,1.71034483 31.4965517,1.76551724 L28.2758621,3.62758621 C28.2206897,3.68275862 28.1172414,3.62758621 28.062069,3.57241379 L28.062069,3.57241379 C28.0068966,3.51724138 28.062069,3.4137931 28.1172414,3.35862069 L31.3103448,1.49655172 C31.3430713,1.46610154 31.3890629,1.45443558 31.4323465,1.46560553 C31.4756301,1.47677549 31.5102332,1.50924009 31.5241379,1.55172414 L31.5517241,1.55172414 Z" id="Shape" fill="#FFFFFF"></path>
                <path d="M16.4551724,21.2758621 C16.1752686,21.4358384 15.8316279,21.4358384 15.5517241,21.2758621 L11.5655172,18.9862069 C11.2831117,18.8158801 11.1045355,18.5156651 11.0896552,18.1862069 L11.0896552,13.5655172 C11.1177501,13.2401627 11.293025,12.9454976 11.5655172,12.7655172 L15.5517241,10.4758621 C15.8316279,10.3158857 16.1752686,10.3158857 16.4551724,10.4758621 L20.4413793,12.7655172 C20.7138715,12.9454976 20.8891465,13.2401627 20.9172414,13.5655172 L20.9172414,18.1931034 C20.8891465,18.518458 20.7138715,18.8131231 20.4413793,18.9931034 L16.4551724,21.2758621 Z" id="Shape" fill="url(#radialGradient-13)"></path>
                <g id="Group" opacity="0.33" transform="translate(11.034483, 10.344828)" fill="url(#linearGradient-14)">
                    <path d="M5.79310345,5.4 C2.34482759,4.39310345 0.531034483,5.1862069 0.531034483,5.1862069 C0.262068966,5.28965517 0.0551724138,5.1862069 0.0551724138,4.86896552 L0.0551724138,3.22068966 C0.0832673371,2.89533509 0.258542278,2.60066997 0.531034483,2.42068966 L4.51724138,0.131034483 C4.79714518,-0.028941847 5.14078585,-0.028941847 5.42068966,0.131034483 L9.40689655,2.42068966 C9.67938876,2.60066997 9.8546637,2.89533509 9.88275862,3.22068966 L9.88275862,4.86896552 C9.86838943,5.22031586 9.77654389,5.5641479 9.6137931,5.87586207 C9.56551724,5.88275862 9.24827586,6.4137931 5.79310345,5.4 Z" id="Shape"></path>
                </g>
                <g id="Group" opacity="0.33" transform="translate(11.034483, 10.344828)" fill="url(#linearGradient-15)">
                    <path d="M5.79310345,5.4 C2.34482759,4.39310345 0.531034483,5.1862069 0.531034483,5.1862069 C0.262068966,5.28965517 0.0551724138,5.1862069 0.0551724138,4.86896552 L0.0551724138,3.22068966 C0.0832673371,2.89533509 0.258542278,2.60066997 0.531034483,2.42068966 L4.51724138,0.131034483 C4.79714518,-0.028941847 5.14078585,-0.028941847 5.42068966,0.131034483 L9.40689655,2.42068966 C9.67938876,2.60066997 9.8546637,2.89533509 9.88275862,3.22068966 L9.88275862,4.86896552 C9.86838943,5.22031586 9.77654389,5.5641479 9.6137931,5.87586207 C9.56551724,5.88275862 9.24827586,6.4137931 5.79310345,5.4 Z" id="Shape"></path>
                </g>
                <path d="M15.337931,11.0344828 C15.3931034,11.0896552 15.337931,11.1931034 15.2827586,11.2482759 L12.0896552,13.1103448 C11.9862069,13.1655172 11.9310345,13.1103448 11.8758621,13.0551724 L11.8758621,13.0551724 C11.8206897,13 11.8758621,12.8965517 11.9310345,12.8413793 L15.1241379,11.0344828 C15.1997097,11.0266805 15.2755721,11.0462579 15.337931,11.0896552 L15.337931,11.0344828 Z" id="Shape" fill="#FFFFFF"></path>
                <polygon id="Shape" fill="url(#radialGradient-16)" points="15.9724138 21.5448276 11.0827586 18.7241379 11.0827586 13.0344828 15.9724138 10.2206897 20.9172414 13.0344828 20.9172414 18.7241379"></polygon>
                <path d="M16.8275862,15.7448276 C13.3793103,14.737931 11.0827586,15.7448276 11.0827586,15.7448276 L11.0827586,13.0344828 L15.9724138,10.2137931 L20.862069,13.0344828 L20.862069,15.7448276 C20.9172414,15.7448276 20.2827586,16.7586207 16.8275862,15.7448276 Z" id="Shape" fill="url(#linearGradient-17)" opacity="0.33"></path>
                <path d="M16.8275862,15.7448276 C13.3793103,14.737931 11.0827586,15.7448276 11.0827586,15.7448276 L11.0827586,13.0344828 L15.9724138,10.2137931 L20.862069,13.0344828 L20.862069,15.7448276 C20.9172414,15.7448276 20.2827586,16.7586207 16.8275862,15.7448276 Z" id="Shape" fill="url(#linearGradient-18)" opacity="0.33"></path>
                <path d="M15.337931,11.0344828 C15.3931034,11.0896552 15.337931,11.1931034 15.2827586,11.2482759 L12.0896552,13.1103448 C11.9862069,13.1655172 11.9310345,13.1103448 11.8758621,13.0551724 L11.8758621,13.0551724 C11.8206897,13 11.8758621,12.8965517 11.9310345,12.8413793 L15.1241379,11.0344828 C15.1997097,11.0266805 15.2755721,11.0462579 15.337931,11.0896552 L15.337931,11.0344828 Z" id="Shape" fill="#FFFFFF"></path>
                <polygon id="Shape" fill="url(#radialGradient-19)" points="26.8758621 21.5448276 21.9793103 18.7241379 21.9793103 13.0344828 26.8758621 10.2206897 31.7655172 13.0344828 31.7655172 18.7241379"></polygon>
                <path d="M27.6689655,15.7448276 C24.2206897,14.737931 21.9241379,15.7448276 21.9241379,15.7448276 L21.9241379,13.0344828 L26.8137931,10.2137931 L31.7241379,13.0344828 L31.7241379,15.7448276 C31.7655172,15.7448276 31.1793103,16.7586207 27.6689655,15.7448276 Z" id="Shape" fill="url(#linearGradient-20)" opacity="0.33"></path>
                <path d="M27.6689655,15.7448276 C24.2206897,14.737931 21.9241379,15.7448276 21.9241379,15.7448276 L21.9241379,13.0344828 L26.8137931,10.2137931 L31.7241379,13.0344828 L31.7241379,15.7448276 C31.7655172,15.7448276 31.1793103,16.7586207 27.6689655,15.7448276 Z" id="Shape" fill="url(#linearGradient-21)" opacity="0.33"></path>
                <path d="M26.2068966,11.0344828 C26.262069,11.0896552 26.2068966,11.1931034 26.1517241,11.2482759 L22.9586207,13.1103448 C22.9034483,13.1655172 22.8,13.1103448 22.7448276,13.0551724 L22.7448276,13.0551724 C22.7143774,13.022446 22.7027114,12.9764543 22.7138814,12.9331707 C22.7250513,12.8898872 22.757516,12.855284 22.8,12.8413793 L25.9724138,11.0344828 C26.0758621,11.0344828 26.1310345,11.0344828 26.1862069,11.0896552 L26.2068966,11.0344828 Z" id="Shape" fill="#FFFFFF"></path>
                <polygon id="Shape" fill="url(#radialGradient-22)" points="21.3448276 31.1172414 16.4551724 28.2413793 16.4551724 22.6068966 21.3448276 19.7862069 26.2344828 22.6068966 26.2344828 28.2413793"></polygon>
                <path d="M22.1448276,25.3172414 C18.6965517,24.3103448 16.4,25.3172414 16.4,25.3172414 L16.4,22.6068966 L21.2896552,19.7862069 L26.2068966,22.6068966 L26.2068966,25.3172414 C26.2068966,25.3172414 25.6,26.3310345 22.1448276,25.3172414 Z" id="Shape" fill="url(#linearGradient-23)" opacity="0.33"></path>
                <path d="M22.1448276,25.3172414 C18.6965517,24.3103448 16.4,25.3172414 16.4,25.3172414 L16.4,22.6068966 L21.2896552,19.7862069 L26.2068966,22.6068966 L26.2068966,25.3172414 C26.2068966,25.3172414 25.6,26.3310345 22.1448276,25.3172414 Z" id="Shape" fill="url(#linearGradient-24)" opacity="0.33"></path>
                <path d="M20.6551724,20.6413793 C20.7103448,20.6965517 20.6551724,20.8 20.6,20.8551724 L17.4068966,22.7172414 C17.3034483,22.7724138 17.2482759,22.7172414 17.1931034,22.662069 L17.1931034,22.662069 C17.137931,22.6068966 17.1931034,22.5034483 17.2482759,22.4482759 L20.4413793,20.6413793 C20.5448276,20.537931 20.6551724,20.5862069 20.6551724,20.6413793 L20.6551724,20.6413793 Z" id="Shape" fill="#FFFFFF"></path>
                <path d="M68.6689655,25.8 C69.6778736,25.71115 70.5739658,26.4420921 70.6896552,27.4482759 L70.6896552,28.6206897 C70.6825748,28.8081216 70.5322595,28.9584369 70.3448276,28.9655172 L63.4482759,28.9655172 L63.4482759,29.6068966 C63.5273486,30.2345655 64.0952795,30.6827704 64.7241379,30.6137931 L70.0965517,30.6137931 C70.2223497,30.5952957 70.3473449,30.6520576 70.4162016,30.7589503 C70.4850583,30.8658429 70.4850583,31.0031226 70.4162016,31.1100153 C70.3473449,31.2169079 70.2223497,31.2736699 70.0965517,31.2551724 L64.6758621,31.2551724 C63.666954,31.3440224 62.7708618,30.6130803 62.6551724,29.6068966 L62.6551724,27.4482759 C62.7708618,26.4420921 63.666954,25.71115 64.6758621,25.8 L68.6689655,25.8 Z M63.4,28.2758621 L69.937931,28.2758621 L69.937931,27.3931034 C69.8588583,26.7654345 69.2909274,26.3172296 68.662069,26.3862069 L64.6758621,26.3862069 C64.0523768,26.3354731 63.4955678,26.7749008 63.4,27.3931034 L63.4,28.2758621 Z" id="Shape" fill="#000000"></path>
                <path d="M80.7931034,26.3793103 L74.4827586,30.5862069 C76.0275862,30.5862069 80.6,30.5310345 80.6,30.5310345 C80.7720075,30.5217345 80.9271627,30.6337911 80.9724138,30.8 C80.9724138,30.9586207 80.7586207,31.1172414 80.6,31.1172414 L73.4,31.1172414 C73.3073045,31.1441636 73.2075206,31.1301613 73.1258152,31.0787659 C73.0441098,31.0273706 72.9882825,30.9434885 72.9724138,30.8482759 C72.9682996,30.7353562 73.0302251,30.630352 73.1310345,30.5793103 C73.1310345,30.5793103 78.1793103,27.2275862 79.5103448,26.3793103 L73.3931034,26.3793103 C73.1793103,26.3793103 72.9655172,26.2206897 72.9655172,26.062069 C72.9655172,25.9034483 73.1241379,25.7448276 73.3931034,25.7448276 L80.5724138,25.7448276 C80.7118668,25.7656848 80.8282412,25.8621761 80.874564,25.995354 C80.9208868,26.128532 80.8895119,26.2764144 80.7931034,26.3793103 L80.7931034,26.3793103 Z" id="Shape" fill="#000000"></path>
                <path d="M82.862069,24.7862069 C82.8965647,24.607786 83.0527577,24.4788987 83.2344828,24.4788987 C83.4162078,24.4788987 83.5724008,24.607786 83.6068966,24.7862069 L83.6068966,25.1034483 C83.5724008,25.2818692 83.4162078,25.4107565 83.2344828,25.4107565 C83.0527577,25.4107565 82.8965647,25.2818692 82.862069,25.1034483 L82.862069,24.7862069 Z M83.662069,26.1172414 L83.662069,30.9034483 C83.6275732,31.0818692 83.4713802,31.2107565 83.2896552,31.2107565 C83.1079301,31.2107565 82.9517371,31.0818692 82.9172414,30.9034483 L82.9172414,26.1172414 C82.938787,25.9300931 83.1014618,25.7915183 83.2896552,25.8 C83.5034483,25.8 83.662069,25.9034483 83.662069,26.1172414 Z" id="Shape" fill="#000000"></path>
                <path d="M86.6413793,28.5103448 C86.5155813,28.5288423 86.3905862,28.4720803 86.3217295,28.3651877 C86.2528727,28.258295 86.2528727,28.1210153 86.3217295,28.0141227 C86.3905862,27.90723 86.5155813,27.8504681 86.6413793,27.8689655 L89.3517241,27.8689655 C89.4775221,27.8504681 89.6025173,27.90723 89.671374,28.0141227 C89.7402307,28.1210153 89.7402307,28.258295 89.671374,28.3651877 C89.6025173,28.4720803 89.4775221,28.5288423 89.3517241,28.5103448 L86.6413793,28.5103448 Z" id="Shape" fill="#000000"></path>
                <path d="M92.062069,34.0896552 C91.8937524,34.0824512 91.7531422,33.9590586 91.7241379,33.7931034 L91.7241379,27.4482759 C91.8398273,26.4420921 92.7359195,25.71115 93.7448276,25.8 L97.7310345,25.8 C98.7399425,25.71115 99.6360348,26.4420921 99.7517241,27.4482759 L99.7517241,29.5724138 C99.6360348,30.5785975 98.7399425,31.3095397 97.7310345,31.2206897 L92.5172414,31.2206897 L92.5172414,33.7931034 C92.4896552,33.9310345 92.2758621,34.0896552 92.062069,34.0896552 Z M98.9586207,27.4413793 C98.8795479,26.8137104 98.311617,26.3655055 97.6827586,26.4344828 L93.6965517,26.4344828 C93.0682286,26.3802797 92.5062403,26.8244318 92.4137931,27.4482759 L92.4137931,30.5862069 L97.6275862,30.5862069 C98.2510714,30.6369407 98.8078804,30.197513 98.9034483,29.5793103 L98.9034483,27.4482759 L98.9586207,27.4413793 Z" id="Shape" fill="#000000"></path>
                <path d="M108.117241,25.8 C109.234483,25.8 110.137931,26.4896552 110.137931,27.3931034 L110.137931,29.5724138 C110.025881,30.5500745 109.15209,31.2583044 108.172414,31.1655172 L104.137931,31.1655172 C103.02069,31.1655172 102.117241,30.4206897 102.117241,29.5724138 C102.117241,28.7241379 103.02069,27.9793103 104.137931,27.9793103 L109.4,27.9793103 L109.4,27.3931034 C109.320927,26.7654345 108.752996,26.3172296 108.124138,26.3862069 L102.606897,26.3862069 C102.481099,26.4047043 102.356103,26.3479424 102.287247,26.2410497 C102.21839,26.1341571 102.21839,25.9968774 102.287247,25.8899847 C102.356103,25.7830921 102.481099,25.7263301 102.606897,25.7448276 L108.124138,25.7448276 L108.117241,25.8 Z M104.137931,30.5862069 L108.17931,30.5862069 C108.475569,30.618866 108.772439,30.530289 109.002365,30.3406325 C109.232291,30.150976 109.375715,29.8763723 109.4,29.5793103 L109.4,28.5655172 L104.137931,28.5655172 C103.717389,28.4604853 103.275764,28.6269332 103.029164,28.9834099 C102.782564,29.3398866 102.782564,29.8118375 103.029164,30.1683142 C103.275764,30.5247909 103.717389,30.6912388 104.137931,30.5862069 L104.137931,30.5862069 Z" id="Shape" fill="#000000"></path>
                <path d="M120,32.4137931 C119.951426,32.91189 119.705115,33.3696978 119.316226,33.6846981 C118.927337,33.9996984 118.428361,34.1455728 117.931034,34.0896552 L113.041379,34.0896552 C112.915581,34.1081526 112.790586,34.0513907 112.721729,33.944498 C112.652873,33.8376053 112.652873,33.7003257 112.721729,33.593433 C112.790586,33.4865403 112.915581,33.4297784 113.041379,33.4482759 L117.931034,33.4482759 C118.573975,33.5133468 119.151853,33.0547132 119.234483,32.4137931 L119.234483,30.8482759 C118.849426,31.0826351 118.409288,31.2111077 117.958621,31.2206897 L114.131034,31.2206897 C113.122126,31.3095397 112.226034,30.5785975 112.110345,29.5724138 L112.110345,26.1241379 C112.144841,25.945717 112.301034,25.8168297 112.482759,25.8168297 C112.664484,25.8168297 112.820677,25.945717 112.855172,26.1241379 L112.855172,29.5724138 C112.934245,30.2000827 113.502176,30.6482876 114.131034,30.5793103 L117.931034,30.5793103 C118.55452,30.6300441 119.111329,30.1906165 119.206897,29.5724138 L119.206897,26.1241379 C119.241392,25.945717 119.397585,25.8168297 119.57931,25.8168297 C119.761035,25.8168297 119.917228,25.945717 119.951724,26.1241379 L119.951724,32.4137931 L120,32.4137931 Z" id="Shape" fill="#000000"></path>
                <path d="M49.262069,12.4482759 C49.526673,12.4200902 49.7641889,12.6113367 49.7931034,12.8758621 C49.7456379,13.1297726 49.5202602,13.3112455 49.262069,13.3034483 L41.8137931,13.3034483 C40.9561486,13.2247448 40.1867363,13.8305812 40.062069,14.6827586 L40.062069,17.5517241 C40.1698827,18.4135359 40.9507364,19.0283813 41.8137931,18.9310345 L49.262069,18.9310345 C49.5793103,18.9310345 49.7931034,19.0896552 49.7931034,19.3586207 C49.7931034,19.6275862 49.5793103,19.7862069 49.262069,19.7862069 L41.8137931,19.7862069 C40.2689655,19.7862069 38.9931034,18.7793103 38.9931034,17.5517241 L38.9931034,14.6827586 C38.9931034,13.462069 40.2689655,12.4482759 41.8137931,12.4482759 L49.262069,12.4482759 Z" id="Shape" fill="#000000"></path>
                <path d="M59.8413793,12.4482759 C61.3310345,12.4482759 62.6,13.4551724 62.6,14.6827586 L62.6,16.2758621 C62.6,16.5448276 62.3862069,16.7034483 62.0689655,16.7034483 L52.662069,16.7034483 L52.662069,17.5517241 C52.7795448,18.3875016 53.5235837,18.9899623 54.3655172,18.9310345 L61.7034483,18.9310345 C61.8772943,18.8924049 62.0571113,18.9637741 62.1571488,19.1111076 C62.2571863,19.2584412 62.2571863,19.4519036 62.1571488,19.5992372 C62.0571113,19.7465708 61.8772943,19.8179399 61.7034483,19.7793103 L54.3655172,19.7793103 C52.8206897,19.7793103 51.6068966,18.7724138 51.6068966,17.5448276 L51.6068966,14.6344828 C51.6068966,13.4137931 52.8275862,12.4 54.3655172,12.4 L59.8413793,12.4 L59.8413793,12.4482759 Z M52.662069,15.8965517 L61.5448276,15.8965517 L61.5448276,14.6827586 C61.4273518,13.8469812 60.6833128,13.2445205 59.8413793,13.3034483 L54.4137931,13.3034483 C53.5662857,13.2265147 52.8113679,13.8377841 52.7103448,14.6827586 C52.662069,15.3241379 52.662069,15.9103448 52.662069,15.9103448 L52.662069,15.8965517 Z" id="Shape" fill="#000000"></path>
                <path d="M71.7241379,12.4482759 C73.2137931,12.4482759 74.4344828,13.4068966 74.4344828,14.6275862 C74.4020668,14.8901789 74.1669111,15.079525 73.9034483,15.0551724 C73.7824233,15.0667591 73.66208,15.0271077 73.5716463,14.9458485 C73.4812127,14.8645893 73.4289626,14.7491568 73.4275862,14.6275862 C73.3200525,13.7931322 72.5593294,13.2018009 71.7241379,13.3034483 L66.9655172,13.3034483 C66.1448605,13.2227725 65.4111847,13.8152388 65.3172414,14.6344828 L65.3172414,19.4206897 C65.260457,19.668228 65.0401748,19.8436999 64.7862069,19.8436999 C64.532239,19.8436999 64.3119568,19.668228 64.2551724,19.4206897 L64.2551724,14.6344828 C64.2551724,13.462069 65.4758621,12.4551724 66.9655172,12.4551724 L71.7241379,12.4482759 Z" id="Shape" fill="#000000"></path>
                <path d="M80.4689655,18.937931 C80.7324283,18.9135784 80.967584,19.1029246 81,19.3655172 C81,19.6344828 80.7862069,19.7931034 80.4689655,19.7931034 L78.6206897,19.7931034 C77.0758621,19.7931034 75.862069,18.7862069 75.862069,17.5586207 L75.862069,8.96551724 C75.862069,8.69655172 76.0758621,8.53793103 76.3931034,8.53793103 C76.6577075,8.50974534 76.8952233,8.70099188 76.9241379,8.96551724 L76.9241379,12.4758621 L80.4896552,12.4758621 C80.8068966,12.4758621 81.0206897,12.6344828 81.0206897,12.9034483 C80.9882737,13.1660409 80.753118,13.3553871 80.4896552,13.3310345 L76.9241379,13.3310345 L76.9241379,17.6413793 C77.0416138,18.4771567 77.7856527,19.0796174 78.6275862,19.0206897 L80.4896552,19.0206897 L80.4689655,18.937931 Z" id="Shape" fill="#000000"></path>
                <path d="M91.1586207,12.4482759 C92.6482759,12.4482759 93.9172414,13.4551724 93.9172414,14.6827586 L93.9172414,16.2758621 C93.9172414,16.5448276 93.7034483,16.7034483 93.3862069,16.7034483 L83.9793103,16.7034483 L83.9793103,17.5517241 C84.0967862,18.3875016 84.8408251,18.9899623 85.6827586,18.9310345 L93.1034483,18.9310345 C93.2772943,18.8924049 93.4571113,18.9637741 93.5571488,19.1111076 C93.6571863,19.2584412 93.6571863,19.4519036 93.5571488,19.5992372 C93.4571113,19.7465708 93.2772943,19.8179399 93.1034483,19.7793103 L85.737931,19.7793103 C84.1931034,19.7793103 82.9793103,18.7724138 82.9793103,17.5448276 L82.9793103,14.6344828 C82.9793103,13.4137931 84.2,12.4 85.737931,12.4 L91.1586207,12.4 L91.1586207,12.4482759 Z M83.9793103,15.8965517 L92.862069,15.8965517 L92.862069,14.6827586 C92.7445931,13.8469812 92.0005542,13.2445205 91.1586207,13.3034483 L85.737931,13.3034483 C84.8904236,13.2265147 84.1355059,13.8377841 84.0344828,14.6827586 C83.9793103,15.3241379 83.9793103,15.9103448 83.9793103,15.9103448 L83.9793103,15.8965517 Z" id="Shape" fill="#000000"></path>
                <path d="M96.8482759,23.7793103 C96.5310345,23.7793103 96.3172414,23.6206897 96.3172414,23.3517241 C96.3172414,23.0827586 96.5310345,22.9241379 96.8482759,22.9241379 L103.813793,22.9241379 C104.772414,22.9241379 105.565517,22.2827586 105.517241,21.5448276 L105.517241,19.7862069 L98.2827586,19.7862069 C96.737931,19.7862069 95.5241379,18.7793103 95.5241379,17.5517241 L95.5241379,14.737931 C95.5241379,13.5172414 96.8,12.5034483 98.2827586,12.5034483 L103.758621,12.5034483 C105.303448,12.5034483 106.517241,13.5103448 106.517241,14.737931 L106.517241,21.5448276 C106.517241,22.7655172 105.296552,23.7793103 103.758621,23.7793103 L96.8482759,23.7793103 Z M105.565517,18.9517241 L105.565517,14.737931 C105.46795,13.8910527 104.71072,13.2779106 103.862069,13.3586207 L98.3862069,13.3586207 C97.5386995,13.2816871 96.7837817,13.8929565 96.6827586,14.737931 L96.6827586,17.5586207 C96.7803256,18.405499 97.5375561,19.0186411 98.3862069,18.937931 L105.565517,18.9517241 Z" id="Shape" fill="#000000"></path>
                <path d="M119.924138,21.4896552 C119.924138,22.7103448 118.703448,23.7241379 117.165517,23.7241379 L110.517241,23.7241379 C110.2,23.7241379 109.986207,23.5655172 109.986207,23.2965517 C109.986207,23.0275862 110.2,22.8689655 110.517241,22.8689655 L117.165517,22.8689655 C118.013025,22.9458991 118.767942,22.3346297 118.868966,21.4896552 L118.868966,19.3103448 C118.360999,19.6345951 117.767988,19.8002539 117.165517,19.7862069 L111.903448,19.7862069 C110.358621,19.7862069 109.144828,18.7793103 109.144828,17.5517241 L109.144828,12.8758621 C109.144828,12.6068966 109.358621,12.4482759 109.675862,12.4482759 C109.940466,12.4200902 110.177982,12.6113367 110.206897,12.8758621 L110.206897,17.5517241 C110.324372,18.3875016 111.068411,18.9899623 111.910345,18.9310345 L117.172414,18.9310345 C118.019921,19.0079681 118.774839,18.3966987 118.875862,17.5517241 L118.875862,12.8758621 C118.875862,12.6068966 119.089655,12.4482759 119.406897,12.4482759 C119.671501,12.4200902 119.909016,12.6113367 119.937931,12.8758621 L119.924138,21.4896552 Z" id="Shape" fill="#000000"></path>
            </g>
        </g>
    </g>
</svg>