<svg xmlns="http://www.w3.org/2000/svg" viewBox="0 0 512 512"><path fill="#2196f3" d="M480 176H32c-17.63 0-32 14.37-32 32v256c0 17.67 14.37 32 32 32h448c17.66 0 32-14.33 32-32V208c0-17.63-14.34-32-32-32z"/><path fill="#fafafa" d="M400 304h-96c-8.83 0-16-7.16-16-16s7.17-16 16-16h96c8.83 0 16 7.14 16 16s-7.17 16-16 16zm0 96H144c-8.83 0-16-7.16-16-16s7.17-16 16-16h256c8.83 0 16 7.17 16 16s-7.17 16-16 16z"/><path fill="#607d8b" d="M179.87 280.9L112 303.52l22.62-67.87L315.65 54.63l45.25 45.25z"/><path fill="#455a64" d="M360.9 99.88l-45.25-45.25 33.95-33.95c6.24-6.24 16.38-6.24 22.62 0l22.63 22.62c6.24 6.24 6.24 16.38 0 22.62z"/></svg>