<?xml version="1.0" encoding="UTF-8" standalone="no"?>
<svg width="120px" height="47px" viewBox="0 0 120 47" version="1.1" xmlns="http://www.w3.org/2000/svg" xmlns:xlink="http://www.w3.org/1999/xlink">
    <!-- Generator: Sketch 46.2 (44496) - http://www.bohemiancoding.com/sketch -->
    <title>icn-citadel</title>
    <desc>Created with Sketch.</desc>
    <defs></defs>
    <g id="Page-1" stroke="none" stroke-width="1" fill="none" fill-rule="evenodd">
        <g id="Payment-Icons" transform="translate(-232.000000, -377.000000)" fill-rule="nonzero">
            <g id="icn-citadel" transform="translate(232.000000, 376.908397)">
                <path d="M39.5209581,25.005988 C39.515416,24.6880082 39.3472473,24.3950692 39.0754491,24.2299401 C38.6909213,23.9414306 38.2644017,23.7136303 37.8107784,23.554491 C37.2136867,23.3395476 36.5978448,23.1807759 35.9712575,23.0802395 C35.2590178,22.959901 34.5379026,22.8998081 33.8155689,22.9005988 C32.6384632,22.8738855 31.4746383,23.1536987 30.4383234,23.7125749 C29.4103929,24.2967276 28.5360571,25.1168792 27.8874251,26.1053892 C27.1384837,27.2534463 26.5939181,28.5224787 26.2778443,29.8562874 C25.8866076,31.4769899 25.6983379,33.1400382 25.7173653,34.8071856 C25.7173653,37.3221557 26.2275449,39.1736527 27.2479042,40.3616766 C28.2682635,41.5497006 29.8634731,42.1461078 32.0335329,42.1508982 C33.0891173,42.1570348 34.1390899,41.9969928 35.1449102,41.6766467 C36.3365846,41.2685021 37.4789849,40.7286336 38.5508982,40.0670659 L39.2694611,39.6431138 L39.6,39.9377246 L39.1760479,41.2167665 C38.2754491,41.7868263 37.4419162,42.2658683 36.6754491,42.6538922 C35.9566006,43.0342478 35.2094725,43.3585638 34.4407186,43.6239521 C33.7385183,43.8619514 33.01736,44.0398371 32.2850299,44.1556886 C31.5551577,44.2684144 30.8175629,44.323674 30.0790419,44.3209581 C28.882912,44.3339309 27.6914825,44.1692618 26.5437126,43.8323353 C25.5473863,43.5387385 24.6192647,43.0502534 23.8131737,42.3952096 C22.0598802,40.9053892 21.1832335,38.6155689 21.1832335,35.5257485 C21.1275452,29.6953734 24.5660152,24.3975826 29.9137725,22.0742515 C31.6710078,21.3034234 33.5709962,20.9116732 35.4898204,20.9245509 C36.5625294,20.9184146 37.6325892,21.0316867 38.6802395,21.2622754 C39.7480311,21.5154077 40.7843457,21.8865529 41.7700599,22.3688623 C41.5497006,23.1401198 41.3676647,23.7844311 41.2239521,24.3017964 C41.0802395,24.8191617 40.9652695,25.2790419 40.8790419,25.6814371 C40.7928144,26.0886228 40.7209581,26.4622754 40.6634731,26.8023952 C40.605988,27.142515 40.5556886,27.508982 40.5125749,27.9017964 L39.3628743,27.9017964 L39.5209581,25.005988 Z" id="Shape" fill="#000000"></path>
                <path d="M43.2143713,30.8550898 C44.1191647,30.1665877 45.0806905,29.5560188 46.0886228,29.0299401 C46.7177999,28.6623797 47.4186845,28.4344697 48.1437126,28.3616766 C48.3828987,28.3668964 48.6037998,28.4908165 48.7329341,28.6922156 C48.8991648,28.9586032 48.9794408,29.2696724 48.9628743,29.5832335 C48.9518759,29.9490303 48.9182789,30.3137976 48.8622754,30.6754491 C48.8175303,31.0467151 48.7454788,31.4141778 48.6467066,31.7748503 L46.8718563,38.2419162 C46.5446557,39.2362409 46.3230745,40.262258 46.2107784,41.302994 C46.1960262,41.4020754 46.2291012,41.5022859 46.2999346,41.5731193 C46.370768,41.6439527 46.4709785,41.6770277 46.5700599,41.6622754 C46.8216547,41.639547 47.0660646,41.566224 47.2886228,41.4467066 C47.7435774,41.2173001 48.1828597,40.9580516 48.6035928,40.6706587 L49.4946108,40.1101796 L49.8898204,41.0299401 C49.7125749,41.1592814 49.5712575,41.257485 49.4658683,41.3245509 C49.2934561,41.4341317 49.12788,41.5541145 48.9700599,41.6838323 C47.9423936,42.4557661 46.8537926,43.1430507 45.7149701,43.7389222 C45.0346496,44.1051235 44.2807685,44.3138528 43.508982,44.3497006 C43.2105973,44.3526609 42.9293198,44.2106828 42.754491,43.9688623 C42.5426107,43.6669491 42.4388074,43.3023718 42.4598802,42.9341317 C42.4615886,42.6431759 42.4831959,42.3526776 42.5245509,42.0646707 C42.5676647,41.748503 42.6107784,41.4682635 42.6538922,41.2239521 L44.594012,33.3197605 C44.7041916,32.902994 44.7760479,32.6011976 44.8095808,32.4143713 C44.8386939,32.2675234 44.8555186,32.1185047 44.8598802,31.9688623 C44.8812954,31.8783325 44.857571,31.7830364 44.7962106,31.713114 C44.7348501,31.6431916 44.6434426,31.6072909 44.5508982,31.6167665 C44.4187074,31.6348764 44.2901896,31.6736743 44.1700599,31.7317365 L43.5449102,32.011976 C43.3149701,32.1221557 43.0754491,32.2419162 42.8263473,32.3712575 C42.6288194,32.4812896 42.4369595,32.601202 42.251497,32.7305389 L41.5329341,33.2550898 L41.108982,32.4 L43.2143713,30.8550898 Z" id="Shape" fill="#000000"></path>
                <path d="M51.4706587,30.5964072 L51.7005988,29.7053892 L55.4802395,28.6562874 C55.5904192,28.0191617 55.6838323,27.4922156 55.760479,27.0754491 C55.8371257,26.6586826 55.8922156,26.3017964 55.9257485,26.0047904 C55.9592814,25.7077844 55.9808383,25.4682635 55.9904192,25.2862275 C56,25.1041916 56,24.8958084 55.9904192,24.6610778 L55.9904192,24.1365269 C56.3224683,24.1004832 56.651472,24.040446 56.9748503,23.9568862 C57.257485,23.8802395 57.554491,23.7868263 57.8658683,23.6766467 L60.0215569,22.8862275 L60.3520958,23.2814371 C60.0886228,24.239521 59.8802395,24.9892216 59.7269461,25.5305389 C59.5736527,26.0718563 59.4419162,26.5916168 59.3317365,27.0898204 L58.9221557,28.9149701 L63.3413174,28.742515 L63.5353293,28.9077844 L63.0754491,30.7473054 C62.548503,30.6802395 62.0694611,30.6371257 61.6383234,30.6179641 C61.2071856,30.5988024 60.6706587,30.5988024 60.0287425,30.6179641 L58.5053892,30.6179641 L56.8311377,38.3856287 C56.73197,38.8076188 56.6552158,39.2345638 56.6011976,39.6646707 C56.5583861,40.0247665 56.5367919,40.3870688 56.5365269,40.7497006 C56.5123012,41.000802 56.5703016,41.2529778 56.7017964,41.4682635 C56.8723533,41.6202329 57.1003178,41.6909805 57.3269461,41.6622754 C57.6141936,41.6654387 57.8994473,41.6142393 58.1676647,41.5113772 C58.4989722,41.3658018 58.812414,41.1825589 59.1017964,40.9652695 L60.9413174,39.6502994 L61.3652695,40.5053892 L58.8359281,42.3952096 C58.0856477,42.9724684 57.2763443,43.4686484 56.4215569,43.8754491 C55.8094796,44.1639967 55.1435891,44.3206768 54.4670659,44.3353293 C53.2838323,44.3353293 52.6922156,43.6766467 52.6922156,42.3592814 L52.6922156,42 C52.6824787,41.8804374 52.6824787,41.7602811 52.6922156,41.6407186 C52.6922156,41.5113772 52.7497006,41.3317365 52.7928144,41.1161677 C52.8359281,40.9005988 52.9005988,40.5988024 52.9868263,40.2251497 L55.0275449,30.5892216 L51.4706587,30.5964072 Z" id="Shape" fill="#000000"></path>
                <path d="M77.9065868,28.3257485 L78.4311377,28.7209581 C78.2778443,29.1377246 78.1508982,29.4994012 78.0502994,29.805988 L77.7700599,30.6610778 C77.6838323,30.9245509 77.611976,31.1760479 77.554491,31.4155689 C77.497006,31.6598802 77.439521,31.9113772 77.3748503,32.1700599 L75.8946108,39.2047904 L75.7796407,39.8443114 C75.7500769,40.0162274 75.711703,40.1865116 75.6646707,40.354491 C75.6215569,40.5317365 75.588024,40.6850299 75.5640719,40.8143713 C75.5827246,41.0245023 75.6336202,41.2305086 75.7149701,41.4251497 C75.7804666,41.530582 75.9005329,41.5892191 76.0239521,41.5760479 C76.29218,41.54502 76.5500185,41.4541627 76.7784431,41.3101796 C77.147177,41.0997056 77.4980508,40.859381 77.8275449,40.5916168 L78.4886228,40.0670659 L78.8838323,41.051497 C76.4263473,43.2215569 74.5101796,44.3065868 73.1353293,44.3065868 C72.8258108,44.317455 72.5325279,44.168098 72.3592814,43.9113772 C72.1590032,43.5993459 72.0610407,43.2326143 72.0790419,42.8622754 C72.0772095,42.241822 72.154479,41.623666 72.308982,41.0227545 L73.5233533,36.057485 C72.3229475,38.30323 70.8190002,40.372971 69.0538922,42.2083832 C67.6167665,43.611976 66.2682635,44.3137725 65.0083832,44.3137725 C64.4864576,44.3115689 64.0027287,44.0398111 63.7293413,43.5952096 C63.3808321,43.0707769 63.2072728,42.4494846 63.2335329,41.8203593 C63.2398357,41.076295 63.3047068,40.3338816 63.4275449,39.6 C63.5568862,38.7760479 63.7317365,37.9473054 63.9520958,37.1137725 C64.1506511,36.3233098 64.3905011,35.5437974 64.6706587,34.7784431 C64.918096,34.1766541 65.2212093,33.5992955 65.5760479,33.0538922 C65.7743165,32.7771771 65.9954513,32.5175841 66.2371257,32.2778443 C66.5437126,31.9616766 66.8934132,31.6335329 67.2862275,31.2934132 C67.6790419,30.9532934 68.1125749,30.6035928 68.5868263,30.2443114 C69.0658683,29.8802395 69.5329341,29.5449102 69.988024,29.2383234 C70.422709,28.9188059 70.9087247,28.6757981 71.4251497,28.5197605 C71.9730196,28.3871701 72.5358734,28.3267781 73.0994012,28.3401198 C73.6103867,28.3350347 74.1199199,28.3954059 74.6155689,28.5197605 C75.243747,28.7017272 75.8584219,28.9274281 76.4550898,29.1952096 L77.9065868,28.3257485 Z M74.2275449,30.8263473 C73.7636561,30.6027796 73.2831837,30.4153954 72.7904192,30.2658683 C72.3830942,30.1542431 71.9624584,30.0986418 71.5401198,30.1005988 C70.8716758,30.085048 70.2293757,30.3603195 69.7796407,30.8550898 C69.1870105,31.5904679 68.7560819,32.4425312 68.5149701,33.3556886 C68.3185629,33.9928144 68.1269461,34.6658683 67.9401198,35.3748503 C67.7532934,36.0838323 67.588024,36.7640719 67.4443114,37.4155689 C67.3005988,38.0622754 67.1856287,38.6538922 67.0994012,39.1904192 C67.0241564,39.6080688 66.9809169,40.030855 66.9700599,40.4550898 C66.9629784,40.7486914 67.0193518,41.0403626 67.1353293,41.3101796 C67.2431138,41.554491 67.3796407,41.6694611 67.5305389,41.6694611 C68.0840469,41.5821875 68.5911081,41.3083745 68.9676647,40.8934132 C69.666359,40.2381623 70.2993105,39.5161645 70.857485,38.7377246 C71.7373312,37.5602265 72.4776086,36.2846345 73.0634731,34.9365269 C73.6150983,33.6181686 74.0059365,32.238172 74.2275449,30.8263473 L74.2275449,30.8263473 Z" id="Shape" fill="#000000"></path>
                <path d="M92.5724551,24.9700599 C92.6538922,24.6107784 92.6946108,24.3592814 92.6946108,24.2155689 C92.6946108,24.0718563 92.6946108,23.9065868 92.6946108,23.7197605 C92.7331945,23.3386363 92.6281347,22.9568336 92.4,22.6491018 C92.1377475,22.4185994 91.7918682,22.3067737 91.4443114,22.3401198 L89.9640719,22.3401198 L90.194012,21.4203593 L92.3497006,21.0610778 C92.9868263,20.9508982 93.5568862,20.8407186 94.0598802,20.7305389 C94.5628743,20.6203593 95.0299401,20.5005988 95.4610778,20.3712575 C95.8819348,20.2429806 96.294662,20.0894077 96.697006,19.9113772 L97.0275449,20.205988 L96.9269461,20.7017964 C96.9035765,20.8148167 96.8699029,20.9254586 96.8263473,21.0323353 C96.8168068,21.143494 96.8000044,21.2539094 96.7760479,21.3628743 C96.742515,21.5401198 96.6706587,21.8682635 96.560479,22.3473054 L93.039521,39.8083832 C92.9964072,40.0742515 92.960479,40.3113772 92.9245509,40.5269461 C92.8933812,40.7218569 92.8765695,40.9187939 92.8742515,41.1161677 C92.8742515,41.4658683 93.0155689,41.6407186 93.2982036,41.6407186 C93.4682582,41.6191412 93.6307809,41.5575796 93.7724551,41.4610778 C93.9784431,41.3413174 94.3664671,41.1017964 94.9365269,40.742515 L95.7916168,40.1820359 L96.0862275,41.1017964 L94.9005988,41.9568862 C94.0427028,42.5988837 93.1424533,43.1822454 92.205988,43.702994 C91.6686918,44.0482172 91.0633536,44.2736873 90.4311377,44.3640719 C90.1146123,44.3672076 89.8135928,44.2272599 89.611976,43.9832335 C89.3899209,43.7235317 89.2721382,43.3906674 89.2814371,43.0491018 C89.2868464,42.4835304 89.3641121,41.9209394 89.5113772,41.3748503 L90.8622754,35.9281437 C90.2922156,36.8862275 89.7868263,37.6982036 89.3461078,38.3640719 C88.9053892,39.0299401 88.4886228,39.6215569 88.0958084,40.1389222 C87.7363612,40.6020625 87.352588,41.0458003 86.9461078,41.4682635 C86.564546,41.8595985 86.1589697,42.2267771 85.7317365,42.5676647 C85.1360573,43.0871482 84.4855055,43.540125 83.7916168,43.9185629 C83.3240987,44.1670818 82.8047945,44.3024455 82.2754491,44.3137725 C81.6780351,44.3117314 81.1217298,44.0092742 80.7952096,43.508982 C80.3856115,42.9173592 80.1788678,42.2088841 80.205988,41.4898204 C80.2093188,40.648414 80.269335,39.8081879 80.3856287,38.9748503 C80.5016738,38.1098993 80.6720709,37.2531141 80.8958084,36.4095808 C81.0992437,35.6328669 81.3512362,34.8696895 81.6502994,34.1245509 C81.883352,33.523387 82.1821743,32.9498409 82.5413174,32.4143713 C83.0752762,31.7332823 83.7073028,31.1351575 84.4167665,30.639521 C85.2714151,30.0037447 86.1859043,29.4526446 87.1473054,28.994012 C87.5837481,28.7777045 88.0412336,28.6067494 88.5125749,28.4838323 C88.9480981,28.3807732 89.3943743,28.3301149 89.8419162,28.3329341 C90.1711733,28.3312839 90.5001358,28.3528945 90.8263473,28.3976048 C91.1329341,28.4407186 91.5161677,28.5173653 91.9760479,28.6275449 L92.5724551,24.9700599 Z M91.588024,30.5964072 C91.0974643,30.4011844 90.5930831,30.2426646 90.0790419,30.1221557 C89.657605,30.0412065 89.2291173,30.0026907 88.8,30.0071856 C88.1464454,29.9577695 87.4942405,30.1189321 86.9389222,30.4670659 C86.4061754,30.9643155 86.0060454,31.58674 85.7748503,32.2778443 C85.4977764,32.922259 85.2578621,33.5820233 85.0562874,34.2538922 C84.8359281,35.0011976 84.6443114,35.7628743 84.4814371,36.5389222 C84.3185629,37.3149701 84.1820359,38.0694611 84.0718563,38.8023952 C83.9798663,39.4451815 83.9294621,40.0932353 83.9209581,40.742515 C83.9113007,40.9750053 83.9880967,41.2028335 84.1365269,41.3820359 C84.2808778,41.5468512 84.4925351,41.6368055 84.7113772,41.6263473 C85.1396821,41.5850304 85.5430647,41.4060293 85.8610778,41.1161677 C86.3917385,40.6916863 86.8737223,40.2097026 87.2982036,39.6790419 C87.7389222,39.1329341 88.1508982,38.5844311 88.5341317,38.0335329 C88.9173653,37.4826347 89.2622754,36.9461078 89.5688623,36.4239521 C89.8525934,35.9440819 90.1116138,35.4500243 90.3449102,34.9437126 C90.5329287,34.5421002 90.6821108,34.123428 90.7904192,33.6934132 L91.588024,30.5964072 Z" id="Shape" fill="#000000"></path>
                <path d="M108.819162,40.9580838 L108.34491,41.2670659 L107.870659,41.5473054 C107.037126,42.0742515 106.318563,42.5173653 105.71497,42.8766467 C105.159427,43.2032734 104.583379,43.4936977 103.990419,43.7461078 C103.509579,43.9510008 103.00866,44.1051298 102.495808,44.205988 C102.021627,44.2922002 101.540638,44.3354891 101.058683,44.3353293 C99.9895028,44.3974156 98.9388718,44.0360192 98.1341317,43.3293413 C97.3795186,42.6081333 96.9690127,41.598864 97.005988,40.5556886 C97.0106347,39.918164 97.0610639,39.2817964 97.1568862,38.651497 C97.2571995,37.958644 97.3987684,37.2723943 97.5808383,36.5964072 C97.7676647,35.9065868 97.9808383,35.2383234 98.2203593,34.5916168 C98.4315987,34.0092814 98.6837236,33.4426007 98.9748503,32.8958084 C99.3482504,32.2718727 99.8188398,31.7115316 100.368862,31.2359281 C100.98738,30.6910427 101.659007,30.2095895 102.373653,29.7988024 C103.09355,29.3721125 103.854199,29.0182664 104.644311,28.742515 C105.335951,28.4920166 106.06448,28.358453 106.8,28.3473054 C107.617703,28.3040043 108.419861,28.5825673 109.034731,29.1233533 C109.595041,29.6706171 109.893369,30.4321392 109.853892,31.2143713 C109.853892,33.1305389 108.68024,34.6538922 106.332934,35.7844311 C105.983234,35.9616766 105.638323,36.1149701 105.298204,36.2443114 C104.958084,36.3736527 104.589222,36.5077844 104.191617,36.6467066 C103.784431,36.7664671 103.31976,36.8934132 102.797605,37.0275449 C102.275449,37.1616766 101.662275,37.302994 100.958084,37.451497 C100.891018,37.9305389 100.847904,38.3185629 100.828743,38.6155689 C100.809581,38.9125749 100.809581,39.2239521 100.828743,39.5497006 C100.78048,40.2680538 101.003573,40.9783606 101.453892,41.5401198 C101.908325,42.0329469 102.55945,42.2965602 103.228743,42.2586826 C104.000082,42.2382474 104.759685,42.0648333 105.463473,41.748503 C106.536587,41.2657312 107.569761,40.6986872 108.553293,40.0526946 L108.819162,40.9580838 Z M102.409581,36.1868263 C103.623373,35.8851559 104.734664,35.2650158 105.628743,34.3904192 C106.359888,33.6752789 106.773982,32.6969831 106.778443,31.6742515 C106.799845,31.2089751 106.646006,30.7525859 106.347305,30.3952096 C106.046365,30.0773399 105.620168,29.9089657 105.183234,29.9353293 C104.310318,29.9668007 103.506811,30.4194431 103.027545,31.1497006 C102.294338,32.2090898 101.785699,33.4073265 101.532934,34.6706587 L101.073054,36.5748503 L102.409581,36.1868263 Z" id="Shape" fill="#000000"></path>
                <path d="M119.108982,40.9221557 C118.150898,41.6263473 117.338922,42.1964072 116.673054,42.6323353 C116.007186,43.0682635 115.439521,43.4131737 114.97006,43.6670659 C114.577654,43.8848455 114.16339,44.0606667 113.734132,44.1916168 C113.392979,44.2896651 113.039986,44.340438 112.68503,44.342515 C111.980838,44.342515 111.631138,43.7724551 111.635928,42.6323353 C111.635928,42.3449102 111.635928,42.1005988 111.635928,41.9137725 C111.635928,41.7269461 111.635928,41.4826347 111.700599,41.2383234 C111.765269,40.994012 111.779641,40.7065868 111.851497,40.3688623 C111.923353,40.0311377 112.016766,39.5712575 112.146108,39.0035928 L115.401198,24.2083832 C115.485773,23.8748131 115.52921,23.5321465 115.530539,23.188024 C115.530539,22.6419162 115.147305,22.3688623 114.380838,22.3688623 L112.900599,22.3688623 L113.130539,21.4491018 L115.286228,21.0898204 C115.923353,20.9796407 116.493413,20.8694611 116.996407,20.7592814 C117.499401,20.6491018 117.966467,20.5293413 118.397605,20.4 C118.818462,20.2717231 119.231189,20.1181502 119.633533,19.9401198 L119.964072,20.2347305 L119.734132,21.154491 L119.554491,21.8299401 C119.501796,22.0407186 119.451497,22.2227545 119.403593,22.3760479 L115.882635,38.2275449 C115.642705,39.2066377 115.510186,40.2089614 115.487425,41.2167665 C115.487425,41.5233533 115.619162,41.6766467 115.882635,41.6766467 C116.155297,41.6491073 116.419417,41.5659583 116.658683,41.4323353 C117.003101,41.2642937 117.328344,41.0595112 117.628743,40.8215569 L118.613174,40.0670659 L119.108982,40.9221557 Z" id="Shape" fill="#000000"></path>
                <path d="M44.4287425,21.9305389 L48.1437126,20.3568862 L49.5377246,22.5125749 L50.6299401,18.754491 L47.1808383,18.754491 C45.6790419,20.4646707 44.4502994,21.8658683 44.4287425,21.9305389 Z" id="Shape" fill="#000000"></path>
                <polygon id="Shape" fill="#000000" points="52.2538922 13.0778443 49.0203593 16.7065868 46.2251497 14.9245509 47.1808383 17.5257485 50.6083832 18.7760479 52.2538922 18.7760479 50.8598802 17.8922156"></polygon>
                <path d="M44.8383234,21.9305389 L48.5317365,20.3568862 L49.9257485,22.5125749 L51.0179641,18.7688623 L47.5688623,18.7688623 C46.0886228,20.4646707 44.8598802,21.8658683 44.8383234,21.9305389 Z" id="Shape" fill="#98012E"></path>
                <polygon id="Shape" fill="#EEA63C" points="52.6634731 13.0778443 49.4299401 16.7065868 46.6347305 14.9245509 47.5904192 17.5257485 51.0179641 18.7688623 52.6634731 18.7688623 51.2694611 17.8850299"></polygon>
                <path d="M0,23.7125749 L0,19.6167665 C0,19.6167665 10.7353293,14.3353293 23.3820359,14.3353293 C30.7329341,14.3353293 34.5700599,14.9892216 35.8419162,15.2622754 C35.8736643,15.2622755 35.8994012,15.2880124 35.8994012,15.3197605 C35.8994012,15.3515086 35.8736643,15.3772455 35.8419162,15.3772455 C30.0143713,15.3772455 27.7005988,15.0754491 21.3628743,16.160479 C13.9401198,17.4323353 4.9005988,21.039521 0,23.7125749 Z" id="Shape" fill="#000000"></path>
                <path d="M0.409580838,24.1077844 L0.409580838,20.011976 C0.409580838,20.011976 11.1449102,14.7305389 23.7916168,14.7305389 C31.142515,14.7305389 34.9796407,15.3844311 36.251497,15.657485 C36.2832451,15.657485 36.308982,15.683222 36.308982,15.7149701 C36.308982,15.7467182 36.2832451,15.7724551 36.251497,15.7724551 C30.4239521,15.7724551 28.1101796,15.4706587 21.7724551,16.5556886 C14.3712575,17.8347305 5.31017964,21.4419162 0.409580838,24.1077844 Z" id="Shape" fill="#98012E"></path>
                <path d="M1.78922156,25.257485 C5.69101796,21.7508982 19.5377246,16.5269461 29.1808383,16.2898204 C29.2209431,16.3012766 29.2485937,16.3379317 29.2485937,16.3796407 C29.2485937,16.4213497 29.2209431,16.4580049 29.1808383,16.4694611 C25.1999586,18.0245959 21.6142061,20.4445494 18.6826347,23.554491 C14.0550898,28.742515 14.3712575,35.108982 15.5353293,42.6107784 L16.7281437,46.7065868 L15.7365269,46.7065868 C14.9597329,44.1710756 14.0237419,41.6870996 12.9341317,39.2694611 C11.5577102,36.1653266 9.70550526,33.2948938 7.44431138,30.7616766 C5.6530984,28.8329597 3.76566678,26.9958916 1.78922156,25.257485 L1.78922156,25.257485 Z" id="Shape" fill="#000000"></path>
                <path d="M2.6011976,25.6670659 C6.50299401,22.160479 20.3568862,16.9724551 29.9928144,16.7065868 C30.0329192,16.718043 30.0605697,16.7546982 30.0605697,16.7964072 C30.0605697,16.8381162 30.0329192,16.8747713 29.9928144,16.8862275 C26.0119347,18.4413624 22.4261821,20.8613159 19.4946108,23.9712575 C14.8311377,29.1449102 14.9173653,35.7772455 16.0742515,43.2862275 L16.7353293,46.994012 L16.2538922,46.994012 C15.632346,44.4860243 14.7833193,42.0399615 13.7173653,39.6862275 C12.3519445,36.5844453 10.5119472,33.7141464 8.26347305,31.1784431 C6.47010997,29.2470918 4.58027387,27.4076193 2.6011976,25.6670659 Z" id="Shape" fill="#4E8ABE"></path>
                <path d="M19.005988,6.46706587 C18.2371257,9.79401198 16.0095808,12.4886228 14.0263473,12.4886228 C12.0431138,12.4886228 11.0586826,9.77964072 11.8275449,6.46706587 C12.5964072,3.15449102 14.8239521,0.445508982 16.8071856,0.445508982 C18.7904192,0.445508982 19.7748503,3.13293413 19.005988,6.46706587 Z" id="Shape" fill="#000000"></path>
                <path d="M19.4011976,6.46706587 C18.6323353,9.79401198 16.4047904,12.4886228 14.4215569,12.4886228 C12.4383234,12.4886228 11.497006,9.77964072 12.2155689,6.46706587 C12.9341317,3.15449102 15.2335329,0.438323353 17.245509,0.438323353 C19.257485,0.438323353 20.1844311,3.13293413 19.4011976,6.46706587 Z" id="Shape" fill="#FCB040"></path>
                <path d="M15.0251497,9.93772455 C14.5868728,9.96778338 14.1513088,9.84876297 13.7892216,9.6 C13.7408882,9.57531022 13.6832682,9.57714151 13.6366001,9.60485065 C13.5899321,9.63255978 13.5607415,9.68227228 13.5592814,9.73652695 C13.644299,10.3576706 14.1906443,10.8103567 14.8167665,10.7784431 C15.5512486,10.7441399 16.2175904,10.3378339 16.5844311,9.7005988 C16.6562874,9.58562874 16.5341317,9.49221557 16.4191617,9.56407186 C15.9966883,9.8120527 15.5150134,9.94116143 15.0251497,9.93772455 L15.0251497,9.93772455 Z" id="Shape" fill="#231F20"></path>
            </g>
        </g>
    </g>
</svg>