<?xml version="1.0" encoding="UTF-8" standalone="no"?>
<svg width="120px" height="79px" viewBox="0 0 120 79" version="1.1" xmlns="http://www.w3.org/2000/svg" xmlns:xlink="http://www.w3.org/1999/xlink">
    <!-- Generator: Sketch 46.2 (44496) - http://www.bohemiancoding.com/sketch -->
    <title>icn-clickandbuy</title>
    <desc>Created with Sketch.</desc>
    <defs>
        <linearGradient x1="-0.00632536074%" y1="49.7812%" x2="100.080648%" y2="49.7812%" id="linearGradient-1">
            <stop stop-color="#FF8000" offset="0%"></stop>
            <stop stop-color="#FF8101" offset="27%"></stop>
            <stop stop-color="#FF8507" offset="48%"></stop>
            <stop stop-color="#FD9D2E" offset="75%"></stop>
            <stop stop-color="#FCA73F" offset="85%"></stop>
            <stop stop-color="#FBAF4C" offset="92%"></stop>
            <stop stop-color="#FAB85A" offset="98%"></stop>
            <stop stop-color="#FABE64" offset="100%"></stop>
        </linearGradient>
        <linearGradient x1="-6411%" y1="73475%" x2="-4628%" y2="73475%" id="linearGradient-2">
            <stop stop-color="#FF8000" offset="0%"></stop>
            <stop stop-color="#FF8101" offset="27%"></stop>
            <stop stop-color="#FF8507" offset="48%"></stop>
            <stop stop-color="#FD9D2E" offset="75%"></stop>
            <stop stop-color="#FCA73F" offset="85%"></stop>
            <stop stop-color="#FBAF4C" offset="92%"></stop>
            <stop stop-color="#FAB85A" offset="98%"></stop>
            <stop stop-color="#FABE64" offset="100%"></stop>
        </linearGradient>
    </defs>
    <g id="Page-1" stroke="none" stroke-width="1" fill="none" fill-rule="evenodd">
        <g id="Payment-Icons" transform="translate(-20.000000, -357.000000)" fill-rule="nonzero">
            <g id="icn-clickandbuy" transform="translate(20.000000, 357.000000)">
                <path d="M90.2796992,18.7488722 L74.4631579,2.95037594 C73.1515761,1.6257597 71.3648482,0.88049249 69.5007519,0.88049249 C67.6366556,0.88049249 65.8499277,1.6257597 64.5383459,2.95037594 C63.2847669,4.2995355 62.5578742,6.05432511 62.4902256,7.89473684 C62.5570743,9.73532292 63.2840781,11.4903805 64.5383459,12.8390977 L68.3819549,16.6646617 L53.675188,16.6646617 C49.7925334,16.6695981 46.6434634,19.810604 46.6285714,23.6932331 C46.7061365,25.5480966 47.4492359,27.3129575 48.7218045,28.6646617 C50.0798753,29.9050337 51.8368419,30.6187014 53.675188,30.6766917 L68.4270677,30.6766917 L64.5834586,34.556391 C63.3298797,35.9055505 62.6029869,37.6603401 62.5353383,39.5007519 C62.5329233,41.3543568 63.2694323,43.1324743 64.5818224,44.4414775 C65.8942124,45.7504807 67.674227,46.4823927 69.5278195,46.475188 C71.365196,46.4093156 73.1186347,45.6893819 74.4721805,44.4451128 L90.2255639,28.6285714 C91.4791428,27.2794119 92.2060356,25.5246223 92.2736842,23.6842105 C92.2078119,21.846834 91.4878781,20.0933954 90.243609,18.7398496" id="path7283" fill="url(#linearGradient-1)"></path>
                <path d="M33.3834586,13.9488722 C35.8351942,14.0320264 38.1756203,14.9925296 39.9789474,16.6556391 C41.6420568,18.4589662 42.60256,20.7993923 42.6857143,23.2511278 C42.60256,25.7028633 41.6420568,28.0432895 39.9789474,29.8466165 C38.1756203,31.509726 35.8351942,32.4702292 33.3834586,32.5533835 C30.9317231,32.4702292 28.591297,31.509726 26.7879699,29.8466165 C25.1248604,28.0432895 24.1643573,25.7028633 24.081203,23.2511278 C24.1643573,20.7993923 25.1248604,18.4589662 26.7879699,16.6556391 C28.591297,14.9925296 30.9317231,14.0320264 33.3834586,13.9488722" id="path7285" fill="url(#linearGradient-2)"></path>
                <path d="M8.31879699,73.1639098 C7.50907955,73.3153852 6.68825719,73.3998817 5.86466165,73.4165414 C2.45413534,73.4165414 0.532330827,71.5578947 0.532330827,68.0571429 L0.532330827,64.1052632 C0.532330827,60.6045113 2.41804511,58.7458647 5.86466165,58.7458647 C6.68877618,58.7536963 7.51036992,58.8382721 8.31879699,58.9984962 C8.6887218,59.0526316 8.85112782,59.2511278 8.85112782,59.5669173 L8.85112782,61.2902256 C8.85112782,61.5969925 8.65263158,61.7684211 8.31879699,61.7413534 C7.57091807,61.6401357 6.81774367,61.5828945 6.06315789,61.5699248 C4.25864662,61.5699248 3.63609023,62.643609 3.63609023,64.1684211 L3.63609023,67.9759398 C3.63609023,69.5548872 4.28571429,70.6015038 6.09022556,70.6015038 C6.84495056,70.5915915 7.59831017,70.5343362 8.34586466,70.4300752 C8.65263158,70.4300752 8.85112782,70.5473684 8.85112782,70.8541353 L8.85112782,72.5774436 C8.85112782,72.8842105 8.70676692,73.0827068 8.31879699,73.1729323" id="path4056" fill="#FF8000"></path>
                <path d="M13.3894737,73.1368421 L11.3593985,73.1368421 C11.2174731,73.1393109 11.0806335,73.0840194 10.980262,72.9836478 C10.8798904,72.8832762 10.8245988,72.7464366 10.8270677,72.6045113 L10.8270677,53.6571429 C10.8219668,53.5144573 10.8764118,53.3760729 10.9773702,53.2751145 C11.0783285,53.1741561 11.2167129,53.1197112 11.3593985,53.124812 L13.3894737,53.124812 C13.5321592,53.1197112 13.6705436,53.1741561 13.771502,53.2751145 C13.8724604,53.3760729 13.9269054,53.5144573 13.9218045,53.6571429 L13.9218045,72.6045113 C13.9269054,72.7471968 13.8724604,72.8855812 13.771502,72.9865396 C13.6705436,73.087498 13.5321592,73.141943 13.3894737,73.1368421" id="path4058" fill="#FF8000"></path>
                <path d="M18.8932331,73.1368421 L16.8631579,73.1368421 C16.7212325,73.1393109 16.5843929,73.0840194 16.4840214,72.9836478 C16.3836498,72.8832762 16.3283582,72.7464366 16.3308271,72.6045113 L16.3308271,59.5488722 C16.3283582,59.4069468 16.3836498,59.2701072 16.4840214,59.1697356 C16.5843929,59.0693641 16.7212325,59.0140725 16.8631579,59.0165414 L18.8932331,59.0165414 C19.0351584,59.0140725 19.1719981,59.0693641 19.2723696,59.1697356 C19.3727412,59.2701072 19.4280327,59.4069468 19.4255639,59.5488722 L19.4255639,72.6045113 C19.4280327,72.7464366 19.3727412,72.8832762 19.2723696,72.9836478 C19.1719981,73.0840194 19.0351584,73.1393109 18.8932331,73.1368421 M18.8932331,56.2105263 L16.8631579,56.2105263 C16.7204723,56.2156272 16.5820879,56.1611822 16.4811296,56.0602238 C16.3801712,55.9592654 16.3257262,55.8208811 16.3308271,55.6781955 L16.3308271,53.6390977 C16.3283582,53.4971724 16.3836498,53.3603328 16.4840214,53.2599612 C16.5843929,53.1595896 16.7212325,53.1042981 16.8631579,53.1067669 L18.8932331,53.1067669 C19.0351584,53.1042981 19.1719981,53.1595896 19.2723696,53.2599612 C19.3727412,53.3603328 19.4280327,53.4971724 19.4255639,53.6390977 L19.4255639,55.6691729 C19.4280327,55.8110983 19.3727412,55.9479379 19.2723696,56.0483095 C19.1719981,56.148681 19.0351584,56.2039726 18.8932331,56.2015038" id="path4060" fill="#FF8000"></path>
                <path d="M29.6120301,73.1639098 C28.8023185,73.3154258 27.9814928,73.3999226 27.1578947,73.4165414 C23.7473684,73.4165414 21.8255639,71.5578947 21.8255639,68.0571429 L21.8255639,64.1052632 C21.8255639,60.6045113 23.7112782,58.7458647 27.1578947,58.7458647 C27.9820122,58.753644 28.8036108,58.8382203 29.6120301,58.9984962 C29.9819549,59.0526316 30.1443609,59.2511278 30.1443609,59.5669173 L30.1443609,61.2902256 C30.1443609,61.5969925 29.9458647,61.7684211 29.6120301,61.7413534 C28.8641533,61.6401151 28.1109777,61.5828737 27.356391,61.5699248 C25.5518797,61.5699248 24.9293233,62.643609 24.9293233,64.1684211 L24.9293233,67.9759398 C24.9293233,69.5548872 25.5789474,70.6015038 27.3834586,70.6015038 C28.1381836,70.5915915 28.8915433,70.5343362 29.6390977,70.4300752 C29.9458647,70.4300752 30.1443609,70.5473684 30.1443609,70.8541353 L30.1443609,72.5774436 C30.1443609,72.8842105 30,73.0827068 29.6120301,73.1729323" id="path4062" fill="#FF8000"></path>
                <path d="M42.2255639,73.1368421 L39.9428571,73.1368421 C39.6315833,73.0940419 39.364992,72.8923895 39.2390977,72.6045113 L35.4045113,65.2421053 L38.8962406,59.5488722 C39.0424542,59.2662645 39.3132356,59.0690287 39.6270677,59.0165414 L41.9097744,59.0165414 C42.0426741,59.0004343 42.1723424,59.0652768 42.2391846,59.1812677 C42.3060267,59.2972585 42.2971135,59.4419615 42.2165414,59.5488722 L38.7157895,65.1609023 L42.5774436,72.5774436 C42.6374022,72.6982858 42.6268264,72.8421857 42.5498451,72.9529636 C42.4728639,73.0637415 42.3416838,73.1238317 42.2075188,73.1097744 M34.6736842,73.1097744 L32.6616541,73.1097744 C32.5197288,73.1122433 32.3828892,73.0569517 32.2825176,72.9565801 C32.182146,72.8562086 32.1268545,72.719369 32.1293233,72.5774436 L32.1293233,53.6300752 C32.1268545,53.4881498 32.182146,53.3513102 32.2825176,53.2509386 C32.3828892,53.1505671 32.5197288,53.0952755 32.6616541,53.0977444 L34.6917293,53.0977444 C34.8336547,53.0952755 34.9704943,53.1505671 35.0708659,53.2509386 C35.1712374,53.3513102 35.226529,53.4881498 35.2240602,53.6300752 L35.2240602,72.5774436 C35.226529,72.719369 35.1712374,72.8562086 35.0708659,72.9565801 C34.9704943,73.0569517 34.8336547,73.1122433 34.6917293,73.1097744" id="path4064" fill="#FF8000"></path>
                <path d="M50.6075188,67.2360902 L48.2345865,67.2360902 C46.7097744,67.2360902 46.087218,67.8857143 46.087218,69.0947368 C46.087218,70.1684211 46.7097744,70.7909774 47.9458647,70.7909774 C48.8764073,70.744575 49.7838983,70.4852918 50.5984962,70.0330827 L50.6075188,67.2360902 Z M53.1789474,73.1278195 L51.2842105,73.1278195 C51.141525,73.1329204 51.0031406,73.0784754 50.9021822,72.9775171 C50.8012238,72.8765587 50.7467788,72.7381743 50.7518797,72.5954887 L50.7518797,72.3428571 C49.7370168,73.0109731 48.5559262,73.3827979 47.3413534,73.4165414 C44.6345865,73.4165414 42.9924812,72.0360902 42.9924812,69.1849624 C42.9924812,66.3338346 44.7969925,64.8360902 47.9007519,64.8360902 C48.8054142,64.8450526 49.7089541,64.9022768 50.6075188,65.0075188 L50.6075188,63.8796992 C50.6075188,62.4090226 49.9578947,61.6240602 48.2977444,61.6240602 C47.0255951,61.6671786 45.7601109,61.8272517 44.5172932,62.1022556 C44.1834586,62.1834586 43.9849624,61.9578947 43.9849624,61.6511278 L43.9849624,59.9368421 C43.9873272,59.632691 44.2153078,59.3776618 44.5172932,59.3413534 C45.8838364,58.9462 47.2992763,58.74573 48.7218045,58.7458647 C52.475188,58.7458647 53.7112782,60.4962406 53.7112782,63.8796992 L53.7112782,72.5954887 C53.713747,72.7374141 53.6584555,72.8742537 53.5580839,72.9746253 C53.4577123,73.0749968 53.3208727,73.1302884 53.1789474,73.1278195 L53.1789474,73.1278195 Z" id="path4066" fill="#808080"></path>
                <path d="M66.2887218,73.1368421 L64.2586466,73.1368421 C64.1167213,73.1393109 63.9798816,73.0840194 63.8795101,72.9836478 C63.7791385,72.8832762 63.723847,72.7464366 63.7263158,72.6045113 L63.7263158,63.8255639 C63.7263158,62.4992481 63.3293233,61.6511278 61.8406015,61.6511278 C60.913264,61.7158057 60.0140098,61.9970158 59.2150376,62.4721805 L59.2150376,72.6045113 C59.2175064,72.7464366 59.1622149,72.8832762 59.0618433,72.9836478 C58.9614717,73.0840194 58.8246321,73.1393109 58.6827068,73.1368421 L56.643609,73.1368421 C56.5016837,73.1393109 56.3648441,73.0840194 56.2644725,72.9836478 C56.1641009,72.8832762 56.1088094,72.7464366 56.1112782,72.6045113 L56.1112782,59.5488722 C56.1088094,59.4069468 56.1641009,59.2701072 56.2644725,59.1697356 C56.3648441,59.0693641 56.5016837,59.0140725 56.643609,59.0165414 L58.5293233,59.0165414 C58.6712487,59.0140725 58.8080883,59.0693641 58.9084598,59.1697356 C59.0088314,59.2701072 59.064123,59.4069468 59.0616541,59.5488722 L59.0616541,59.9729323 C60.0950871,59.17246 61.363508,58.7348548 62.6706767,58.7278195 C65.7473684,58.7278195 66.793985,60.5864662 66.793985,63.5278195 L66.793985,72.5503759 C66.7990858,72.6930615 66.7446409,72.8314459 66.6436825,72.9324043 C66.5427241,73.0333627 66.4043397,73.0878076 66.2616541,73.0827068" id="path4068" fill="#808080"></path>
                <path d="M76.2766917,62.0210526 C75.5258103,61.6972502 74.7210035,61.5167042 73.9037594,61.4887218 C72.3518797,61.4887218 71.756391,62.4721805 71.756391,63.8887218 L71.756391,68.2646617 C71.756391,69.6721805 72.3518797,70.6646617 73.9037594,70.6646617 C74.7323548,70.6219382 75.5418768,70.40032 76.2766917,70.0150376 L76.2766917,62.0210526 Z M78.8481203,73.1368421 L76.9533835,73.1368421 C76.8106979,73.141943 76.6723135,73.087498 76.5713551,72.9865396 C76.4703967,72.8855812 76.4159518,72.7471968 76.4210526,72.6045113 L76.4210526,72.4330827 C75.4797006,73.0467916 74.3865118,73.3872419 73.2631579,73.4165414 C70.1323308,73.4165414 68.6616541,71.4947368 68.6616541,68.481203 L68.6616541,63.6902256 C68.6616541,60.6676692 70.1323308,58.7548872 73.2631579,58.7548872 C74.316134,58.7672718 75.3514712,59.0268787 76.2857143,59.512782 L76.2857143,53.6481203 C76.2832455,53.5061949 76.338537,53.3693553 76.4389086,53.2689838 C76.5392801,53.1686122 76.6761197,53.1133206 76.8180451,53.1157895 L78.8481203,53.1157895 C78.9900457,53.1133206 79.1268853,53.1686122 79.2272568,53.2689838 C79.3276284,53.3693553 79.38292,53.5061949 79.3804511,53.6481203 L79.3804511,72.5954887 C79.38292,72.7374141 79.3276284,72.8742537 79.2272568,72.9746253 C79.1268853,73.0749968 78.9900457,73.1302884 78.8481203,73.1278195 L78.8481203,73.1368421 Z" id="path4070" fill="#808080"></path>
                <path d="M89.3954887,63.8796992 C89.3954887,62.4721805 88.8270677,61.4796992 87.275188,61.4796992 C86.4379971,61.5224973 85.6196654,61.7440006 84.875188,62.1293233 L84.875188,70.4481203 L87.0496241,70.4481203 C87.6937569,70.5390044 88.3432336,70.3225842 88.8041011,69.8634893 C89.2649686,69.4043944 89.48389,68.7557564 89.3954887,68.1112782 L89.3954887,63.8796992 Z M87.3383459,73.1368421 L82.312782,73.1368421 C82.1708566,73.1393109 82.034017,73.0840194 81.9336454,72.9836478 C81.8332738,72.8832762 81.7779823,72.7464366 81.7804511,72.6045113 L81.7804511,53.6571429 C81.7753503,53.5144573 81.8297952,53.3760729 81.9307536,53.2751145 C82.031712,53.1741561 82.1700964,53.1197112 82.312782,53.124812 L84.3428571,53.124812 C84.4855427,53.1197112 84.6239271,53.1741561 84.7248855,53.2751145 C84.8258439,53.3760729 84.8802888,53.5144573 84.875188,53.6571429 L84.875188,59.6390977 C85.7907591,59.0666014 86.8451337,58.7546562 87.924812,58.7368421 C91.0556391,58.7368421 92.4992481,60.6586466 92.4992481,63.6721805 L92.4992481,68.1834586 C92.4992481,71.2601504 90.8300752,73.118797 87.3383459,73.118797 L87.3383459,73.1368421 Z" id="path4072" fill="#FF8000"></path>
                <path d="M105.076692,73.1368421 L103.190977,73.1368421 C103.049052,73.1393109 102.912212,73.0840194 102.811841,72.9836478 C102.711469,72.8832762 102.656178,72.7464366 102.658647,72.6045113 L102.658647,72.1804511 C101.625538,72.9815239 100.356907,73.4192016 99.0496241,73.4255639 C95.9729323,73.4255639 94.9263158,71.5669173 94.9263158,68.6255639 L94.9263158,59.5488722 C94.923847,59.4069468 94.9791385,59.2701072 95.0795101,59.1697356 C95.1798816,59.0693641 95.3167213,59.0140725 95.4586466,59.0165414 L97.443609,59.0165414 C97.5855344,59.0140725 97.722374,59.0693641 97.8227456,59.1697356 C97.9231171,59.2701072 97.9784087,59.4069468 97.9759398,59.5488722 L97.9759398,68.318797 C97.9759398,69.6451128 98.3729323,70.4932331 99.8616541,70.4932331 C100.788992,70.4285552 101.688246,70.1473451 102.487218,69.6721805 L102.487218,59.5488722 C102.482117,59.4061866 102.536562,59.2678022 102.637521,59.1668438 C102.738479,59.0658855 102.876863,59.0114405 103.019549,59.0165414 L105.049624,59.0165414 C105.191549,59.0140725 105.328389,59.0693641 105.428761,59.1697356 C105.529132,59.2701072 105.584424,59.4069468 105.581955,59.5488722 L105.581955,72.6045113 C105.584424,72.7464366 105.529132,72.8832762 105.428761,72.9836478 C105.328389,73.0840194 105.191549,73.1393109 105.049624,73.1368421" id="path4074" fill="#FF8000"></path>
                <path d="M113.178947,77.9909774 C113.070677,78.2706767 112.899248,78.4962406 112.583459,78.4962406 L110.300752,78.4962406 C110.162594,78.5145347 110.024962,78.4590448 109.938127,78.3500403 C109.851293,78.2410357 109.827976,78.0944812 109.876692,77.9639098 L111.482707,73.2541353 L106.971429,59.5759398 C106.92807,59.4456188 106.953536,59.302212 107.039112,59.1947865 C107.124688,59.0873611 107.258773,59.0304814 107.395489,59.043609 L109.62406,59.043609 C109.925584,59.0418255 110.186316,59.2534336 110.246617,59.5488722 L113.124812,68.4902256 L116.165414,59.5488722 C116.242589,59.2640344 116.493347,59.0605201 116.78797,59.043609 L119.016541,59.043609 C119.160784,59.0299432 119.301712,59.0924878 119.38835,59.2086195 C119.474988,59.3247512 119.494793,59.4776576 119.440602,59.6120301 L113.178947,77.9909774 Z" id="path4076" fill="#FF8000"></path>
            </g>
        </g>
    </g>
</svg>