<?xml version="1.0" encoding="UTF-8" standalone="no"?>
<svg width="120px" height="76px" viewBox="0 0 120 76" version="1.1" xmlns="http://www.w3.org/2000/svg" xmlns:xlink="http://www.w3.org/1999/xlink">
    <!-- Generator: Sketch 46.2 (44496) - http://www.bohemiancoding.com/sketch -->
    <title>icn-creditcard</title>
    <desc>Created with Sketch.</desc>
    <defs></defs>
    <g id="Page-1" stroke="none" stroke-width="1" fill="none" fill-rule="evenodd">
        <g id="Payment-Icons" transform="translate(-259.000000, -503.000000)" fill-rule="nonzero">
            <g id="icn-creditcard" transform="translate(259.000000, 503.000000)">
                <path d="M114.81203,75.4105263 L5.17894737,75.2210526 C2.77068982,75.2160769 0.821047491,73.262398 0.821052632,70.8541353 L0.821052632,4.74586466 C0.821050156,3.58612123 1.2823731,2.4740092 2.1032814,1.65479349 C2.9241897,0.835577783 4.03725153,0.376551204 5.19699248,0.378947368 L114.830075,0.568421053 C117.238333,0.573396802 119.187975,2.52707566 119.18797,4.93533835 L119.18797,71.043609 C119.187972,72.2033525 118.726649,73.3154645 117.905741,74.1346802 C117.084833,74.9538959 115.971771,75.4129225 114.81203,75.4105263 Z" id="Shape" fill="#1D1D1F"></path>
                <path d="M13.8947368,10.6646617 C13.2719549,10.6493144 12.6853021,10.9562839 12.3428571,11.4766917 C11.9364953,12.1496967 11.7416123,12.9292287 11.7834586,13.7142857 C11.7834586,15.6932331 12.5353383,16.6827068 14.0390977,16.6827068 C14.4789566,16.681242 14.9163884,16.6174499 15.3383459,16.4932331 C15.7759758,16.3619193 16.2066121,16.2083357 16.6285714,16.0330827 L16.6285714,18.3789474 C15.707815,18.7708953 14.7148455,18.9645705 13.7142857,18.9473684 C12.3713709,19.0448689 11.0529384,18.5504567 10.1052632,17.593985 C9.20827787,16.4975789 8.76300663,15.1004597 8.86015038,13.687218 C8.84066676,12.7175932 9.04765585,11.7567931 9.46466165,10.881203 C9.85862638,10.0923524 10.4853854,9.44354657 11.2601504,9.02255639 C12.0711159,8.57463457 12.986611,8.35043168 13.912782,8.37293233 C15.0152904,8.3702151 16.104126,8.61697671 17.0977444,9.09473684 L16.2406015,11.2962406 C15.8715126,11.1221199 15.491812,10.971445 15.1037594,10.8451128 C14.7124203,10.7231867 14.3046231,10.6623215 13.8947368,10.6646617 L13.8947368,10.6646617 Z" id="Shape" fill="#FFFFFF"></path>
                <path d="M22.087218,15.0766917 L22.087218,18.8210526 L19.3082707,18.8210526 L19.3082707,8.52631579 L22.6827068,8.52631579 C25.4796992,8.52631579 26.8781955,9.53984962 26.8781955,11.5669173 C26.8827965,12.7471901 26.2039509,13.8234945 25.1368421,14.3278195 L28.1323308,18.8390977 L24.9744361,18.8390977 L22.7909774,15.0947368 L22.087218,15.0766917 Z M22.087218,12.9834586 L22.6105263,12.9834586 C23.5789474,12.9834586 24.0631579,12.5533835 24.0631579,11.6932331 C24.0631579,10.9834586 23.5879699,10.6285714 22.637594,10.6285714 L22.087218,10.6285714 L22.087218,12.9834586 Z" id="Shape" fill="#FFFFFF"></path>
                <polygon id="Shape" fill="#FFFFFF" points="35.8195489 18.8120301 29.7112782 18.8120301 29.7112782 8.52631579 35.8195489 8.52631579 35.8195489 10.7548872 32.481203 10.7548872 32.481203 12.3699248 35.5669173 12.3699248 35.5669173 14.5984962 32.481203 14.5984962 32.481203 16.5383459 35.8195489 16.5383459"></polygon>
                <path d="M46.9984962,13.4526316 C47.093737,14.9146278 46.5811825,16.3510863 45.5819549,17.4225564 C44.495552,18.4064988 43.0565962,18.9078545 41.593985,18.8120301 L38.2736842,18.8120301 L38.2736842,8.52631579 L41.837594,8.52631579 C43.2278006,8.43952583 44.5979644,8.8919384 45.6631579,9.78947368 C46.6084539,10.7653794 47.0939905,12.0973245 46.9984962,13.4526316 Z M44.1203008,13.5338346 C44.1767139,12.7928326 43.9794476,12.0546749 43.5609023,11.4406015 C43.1330159,10.9605056 42.5059788,10.7070225 41.8646617,10.7548872 L41.0526316,10.7548872 L41.0526316,16.5203008 L41.675188,16.5203008 C42.3764105,16.5783473 43.0643266,16.3045167 43.5338346,15.7804511 C43.9752725,15.1183301 44.181782,14.3272398 44.1203008,13.5338346 L44.1203008,13.5338346 Z" id="Shape" fill="#FFFFFF"></path>
                <polygon id="Shape" fill="#FFFFFF" points="49.4977444 18.8120301 49.4977444 8.52631579 52.3308271 8.52631579 52.3308271 18.8120301"></polygon>
                <polygon id="Shape" fill="#FFFFFF" points="59.7022556 18.8120301 56.9142857 18.8120301 56.9142857 10.8270677 54.406015 10.8270677 54.406015 8.52631579 62.2015038 8.52631579 62.2015038 10.8270677 59.7022556 10.8270677"></polygon>
                <path d="M73.4165414,9.44661654 C72.3890947,9.38770175 71.3914098,9.80340377 70.7097744,10.5744361 C70.0091806,11.4481805 69.6586322,12.5512821 69.7263158,13.6691729 C69.641538,14.7844504 69.9618943,15.8928834 70.6285714,16.7909774 C71.3161689,17.5508796 72.3125473,17.9560735 73.3353383,17.8917293 C74.1671205,17.8734935 74.9926283,17.7429904 75.7894737,17.5037594 L75.7894737,18.5503759 C74.9416557,18.8374274 74.0496469,18.9718397 73.1548872,18.9473684 C71.8395149,19.0217916 70.5573374,18.5174905 69.6451128,17.5669173 C68.7587648,16.4616952 68.3178482,15.0649227 68.4090226,13.6511278 C68.3875434,12.6880971 68.5914642,11.7333772 69.0045113,10.8631579 C69.3839457,10.1046805 69.9807617,9.47645318 70.718797,9.05864662 C71.5264652,8.6106495 72.4390876,8.38638735 73.362406,8.40902256 C74.3399244,8.38777163 75.3092454,8.59151428 76.1954887,9.00451128 L75.7894737,9.99699248 C75.0505787,9.63564755 74.2390591,9.44742437 73.4165414,9.44661654 L73.4165414,9.44661654 Z" id="Shape" fill="#FFFFFF"></path>
                <path d="M85.2180451,18.8120301 L83.9097744,15.5458647 L79.7864662,15.5458647 L78.5233083,18.8210526 L77.3142857,18.8210526 L81.3834586,8.49022556 L82.393985,8.49022556 L86.4360902,18.8210526 L85.2180451,18.8120301 Z M83.5669173,14.4360902 L82.3759398,11.2781955 C82.2195489,10.875188 82.0601504,10.3789474 81.8977444,9.78947368 C81.7793812,10.2938707 81.6317632,10.7909517 81.4556391,11.2781955 L80.237594,14.4360902 L83.5669173,14.4360902 Z" id="Shape" fill="#FFFFFF"></path>
                <path d="M89.7203008,14.5353383 L89.7203008,18.8120301 L88.5203008,18.8120301 L88.5203008,8.52631579 L91.3443609,8.52631579 C92.33109,8.44836023 93.315568,8.70241908 94.1413534,9.2481203 C94.7710663,9.79187686 95.1057927,10.6019147 95.043609,11.4315789 C95.1016838,12.7418443 94.2120388,13.9052262 92.9323308,14.1924812 L95.7293233,18.8120301 L94.312782,18.8120301 L91.8225564,14.5353383 L89.7203008,14.5353383 Z M89.7203008,13.5067669 L91.362406,13.5067669 C92.0219503,13.5605807 92.679525,13.3818225 93.2210526,13.0015038 C93.6339724,12.6135296 93.8495072,12.059771 93.8075188,11.4947368 C93.8593003,10.9350529 93.6334265,10.385539 93.2030075,10.0240602 C92.6219231,9.6766751 91.9470328,9.51899045 91.2721805,9.57293233 L89.7203008,9.57293233 L89.7203008,13.5067669 Z" id="Shape" fill="#FFFFFF"></path>
                <path d="M106.294737,13.5338346 C106.394613,14.9682444 105.894697,16.379771 104.914286,17.4315789 C103.819831,18.391539 102.387737,18.8753986 100.935338,18.7759398 L98.075188,18.7759398 L98.075188,8.52631579 L101.22406,8.52631579 C102.595811,8.38616635 103.958453,8.86612693 104.939567,9.83502119 C105.920682,10.8039155 106.417683,12.1604351 106.294737,13.5338346 Z M105.031579,13.5338346 C105.113875,12.4288113 104.749903,11.3368969 104.021053,10.5022556 C103.196548,9.80569309 102.127701,9.46782072 101.052632,9.56390977 L99.2481203,9.56390977 L99.2481203,17.7834586 L100.700752,17.7834586 C101.868883,17.8700558 103.023768,17.4905011 103.912782,16.7278195 C104.695772,15.8874406 105.097296,14.761216 105.022556,13.6150376 L105.031579,13.5338346 Z" id="Shape" fill="#FFFFFF"></path>
                <circle id="Oval" fill="#EA001D" cx="98.1383459" cy="64.9804511" r="6.86616541"></circle>
                <circle id="Oval" fill="#F79F1A" cx="105.004511" cy="64.9804511" r="6.86616541"></circle>
                <rect id="Rectangle-path" fill="#FFFFFF" opacity="0.7" x="8.93233083" y="48.4240602" width="22.5473684" height="6.23458647" rx="3.11729323"></rect>
                <rect id="Rectangle-path" fill="#FFFFFF" opacity="0.5" x="8.93233083" y="62.6255639" width="33.3924812" height="4.46616541" rx="2.23308271"></rect>
                <rect id="Rectangle-path" fill="#FFFFFF" opacity="0.7" x="35.7293233" y="48.4240602" width="22.5473684" height="6.23458647" rx="3.11729323"></rect>
                <rect id="Rectangle-path" fill="#FFFFFF" opacity="0.7" x="62.5263158" y="48.4240602" width="22.5473684" height="6.23458647" rx="3.11729323"></rect>
                <rect id="Rectangle-path" fill="#FFFFFF" opacity="0.7" x="89.3233083" y="48.4240602" width="22.5473684" height="6.23458647" rx="3.11729323"></rect>
                <g id="Group" opacity="0.5" transform="translate(8.120301, 27.067669)" fill="#FFFFFF">
                    <rect id="Rectangle-path" x="12.7398496" y="4.43909774" width="5.89172932" height="2.70676692"></rect>
                    <rect id="Rectangle-path" x="12.7398496" y="8.0481203" width="5.89172932" height="2.28270677"></rect>
                    <rect id="Rectangle-path" x="0.812030075" y="7.29022556" width="7.43458647" height="2.70676692"></rect>
                    <path d="M12.7398496,3.53684211 L18.6315789,3.53684211 L18.6315789,3.3112782 C18.6315789,1.92101553 17.5045484,0.793984962 16.1142857,0.793984962 L12.7398496,0.793984962 L12.7398496,3.53684211 Z" id="Shape"></path>
                    <path d="M8.24661654,10.8992481 L0.812030075,10.8992481 L0.812030075,11.124812 C0.812030075,12.5150747 1.93906064,13.6421053 3.32932331,13.6421053 L8.24661654,13.6421053 L8.24661654,10.8992481 Z" id="Shape"></path>
                    <rect id="Rectangle-path" x="0.812030075" y="4.11428571" width="7.43458647" height="2.28270677"></rect>
                    <path d="M11.837594,11.2330827 L11.837594,0.784962406 L3.32932331,0.784962406 C1.98041095,0.788748625 0.874230452,1.85513846 0.821052632,3.20300752 L9.14887218,3.20300752 L9.14887218,13.6511278 L16.1052632,13.6511278 C17.4541755,13.6473416 18.560356,12.5809518 18.6135338,11.2330827 L11.837594,11.2330827 Z" id="Shape"></path>
                </g>
            </g>
        </g>
    </g>
</svg>