<?xml version="1.0" encoding="UTF-8" standalone="no"?>
<svg width="120px" height="76px" viewBox="0 0 120 76" version="1.1" xmlns="http://www.w3.org/2000/svg" xmlns:xlink="http://www.w3.org/1999/xlink">
    <!-- Generator: Sketch 46.2 (44496) - http://www.bohemiancoding.com/sketch -->
    <title>icn-debitcard</title>
    <desc>Created with Sketch.</desc>
    <defs></defs>
    <g id="Page-1" stroke="none" stroke-width="1" fill="none" fill-rule="evenodd">
        <g id="Payment-Icons" transform="translate(-20.000000, -503.000000)" fill-rule="nonzero">
            <g id="icn-debitcard" transform="translate(20.000000, 503.000000)">
                <path d="M114.81203,75.4105263 L5.17894737,75.2210526 C2.77068982,75.2160769 0.821047491,73.262398 0.821052632,70.8541353 L0.821052632,4.74586466 C0.821050156,3.58612123 1.2823731,2.4740092 2.1032814,1.65479349 C2.9241897,0.835577783 4.03725153,0.376551204 5.19699248,0.378947368 L114.830075,0.568421053 C117.238333,0.573396802 119.187975,2.52707566 119.18797,4.93533835 L119.18797,71.043609 C119.187972,72.2033525 118.726649,73.3154645 117.905741,74.1346802 C117.084833,74.9538959 115.971771,75.4129225 114.81203,75.4105263 Z" id="Shape" fill="#1D487D"></path>
                <path d="M17.6661654,14.156391 C17.7589893,15.6196964 17.2431062,17.0563329 16.2406015,18.1263158 C15.1541986,19.1102582 13.7152428,19.6116139 12.2526316,19.5157895 L8.93233083,19.5157895 L8.93233083,9.23007519 L12.4962406,9.23007519 C13.8864472,9.14328523 15.256611,9.5956978 16.3218045,10.4932331 C17.2703891,11.4675941 17.7592773,12.7997324 17.6661654,14.156391 Z M14.7789474,14.2556391 C14.8353605,13.5146371 14.6380942,12.7764794 14.2195489,12.162406 C13.7916626,11.6823101 13.1646255,11.4288271 12.5233083,11.4766917 L11.7293233,11.4766917 L11.7293233,17.2421053 L12.3518797,17.2421053 C13.0531022,17.3001518 13.7410183,17.0263212 14.2105263,16.5022556 C14.645626,15.8378983 14.8457376,15.0469806 14.7789474,14.2556391 L14.7789474,14.2556391 Z" id="Shape" fill="#FFFFFF"></path>
                <polygon id="Shape" fill="#FFFFFF" points="26.2646617 19.5157895 20.156391 19.5157895 20.156391 9.23007519 26.2646617 9.23007519 26.2646617 11.4586466 22.9353383 11.4586466 22.9353383 13.0827068 26.0210526 13.0827068 26.0210526 15.3383459 22.9353383 15.3383459 22.9353383 17.2781955 26.2646617 17.2781955"></polygon>
                <path d="M28.7097744,9.23007519 L32.318797,9.23007519 C33.3931527,9.15920927 34.4671221,9.37400317 35.4315789,9.85263158 C36.1066816,10.258434 36.4997479,11.0063035 36.4511278,11.7924812 C36.4668333,12.3204386 36.3117852,12.8393751 36.0090226,13.2721805 C35.7302158,13.6674829 35.3160873,13.9467788 34.8451128,14.0571429 L34.8451128,14.1293233 C35.3929319,14.2415259 35.8843764,14.5414985 36.2345865,14.9774436 C36.538905,15.4294171 36.6906613,15.9668876 36.6676692,16.5112782 C36.7021524,17.3771792 36.3071479,18.2043252 35.6120301,18.7218045 C34.7708663,19.2996339 33.7617617,19.5820562 32.7428571,19.524812 L28.7097744,19.524812 L28.7097744,9.23007519 Z M31.4887218,13.1819549 L32.3278195,13.1819549 C32.6467226,13.1978075 32.9624877,13.1125509 33.2300752,12.9383459 C33.4462965,12.7586482 33.5663939,12.4884289 33.5548872,12.2075188 C33.5548872,11.606015 33.118797,11.3052632 32.2466165,11.3052632 L31.4887218,11.3052632 L31.4887218,13.1819549 Z M31.4887218,15.2120301 L31.4887218,17.3684211 L32.481203,17.3684211 C33.3473684,17.3684211 33.7804511,17.0015038 33.7804511,16.2676692 C33.8034673,15.963342 33.6710759,15.6680074 33.4285714,15.4827068 C33.1316737,15.2815826 32.7757238,15.1862389 32.4180451,15.2120301 L31.4887218,15.2120301 Z" id="Shape" fill="#FFFFFF"></path>
                <polygon id="Shape" fill="#FFFFFF" points="39.0766917 19.5157895 39.0766917 9.23007519 41.8736842 9.23007519 41.8736842 19.5157895"></polygon>
                <polygon id="Shape" fill="#FFFFFF" points="49.2721805 19.5157895 46.4932331 19.5157895 46.4932331 11.5037594 43.9849624 11.5037594 43.9849624 9.23007519 51.7804511 9.23007519 51.7804511 11.5037594 49.2721805 11.5037594"></polygon>
                <path d="M62.9954887,10.1503759 C61.968042,10.0914612 60.9703572,10.5071632 60.2887218,11.2781955 C59.5881279,12.1519399 59.2375796,13.2550415 59.3052632,14.3729323 C59.2204853,15.4882098 59.5408417,16.5966428 60.2075188,17.4947368 C60.8951163,18.254639 61.8914947,18.6598329 62.9142857,18.5954887 C63.7460678,18.5772529 64.5715757,18.4467498 65.3684211,18.2075188 L65.3684211,19.2541353 C64.5206031,19.5411868 63.6285943,19.6755991 62.7338346,19.6511278 C61.4184623,19.725551 60.1362848,19.2212499 59.2240602,18.2706767 C58.3377122,17.1654546 57.8967955,15.7686821 57.9879699,14.3548872 C57.9875514,13.3898535 58.2131221,12.4381305 58.6466165,11.5759398 C59.026051,10.8174625 59.6228669,10.1892351 60.3609023,9.77142857 C61.1685704,9.32343146 62.0811928,9.0991693 63.0045113,9.12180451 C63.9820296,9.10055359 64.9513507,9.30429623 65.837594,9.71729323 L65.3323308,10.7458647 C64.6080651,10.3741908 63.8093016,10.1706449 62.9954887,10.1503759 Z" id="Shape" fill="#FFFFFF"></path>
                <path d="M74.7969925,19.5157895 L73.5157895,16.2406015 L69.3924812,16.2406015 L68.1293233,19.5157895 L66.9203008,19.5157895 L70.9894737,9.18496241 L72,9.18496241 L76.0421053,19.5157895 L74.7969925,19.5157895 Z M73.1458647,15.1669173 L71.9458647,11.9819549 C71.7894737,11.5789474 71.6300752,11.0827068 71.4676692,10.4932331 C71.349306,10.9976301 71.201688,11.4947111 71.0255639,11.9819549 L69.8165414,15.1669173 L73.1458647,15.1669173 Z" id="Shape" fill="#FFFFFF"></path>
                <path d="M79.2992481,15.2390977 L79.2992481,19.5157895 L78.0992481,19.5157895 L78.0992481,9.23007519 L80.9233083,9.23007519 C81.9100373,9.15211963 82.8945154,9.40617848 83.7203008,9.9518797 C84.3500136,10.4956363 84.68474,11.3056741 84.6225564,12.1353383 C84.685036,13.4320417 83.8180833,14.5905025 82.556391,14.8962406 L85.3533835,19.5157895 L83.9097744,19.5157895 L81.4195489,15.2390977 L79.2992481,15.2390977 Z M79.2992481,14.2105263 L80.9413534,14.2105263 C81.6008976,14.2643401 82.2584724,14.0855819 82.8,13.7052632 C83.2129197,13.317289 83.4284545,12.7635304 83.3864662,12.1984962 C83.4382477,11.6388123 83.2123739,11.0892984 82.7819549,10.7278195 C82.2008705,10.3804345 81.5259802,10.2227499 80.8511278,10.2766917 L79.2992481,10.2766917 L79.2992481,14.2105263 Z" id="Shape" fill="#FFFFFF"></path>
                <path d="M95.8736842,14.2736842 C95.9735602,15.708094 95.4736446,17.1196206 94.4932331,18.1714286 C93.3987788,19.1313886 91.9666842,19.6152482 90.5142857,19.5157895 L87.6631579,19.5157895 L87.6631579,9.23007519 L90.8120301,9.23007519 C92.1891667,9.0911027 93.5560535,9.57695898 94.536528,10.5539381 C95.5170026,11.5309172 96.0077375,12.8960601 95.8736842,14.2736842 Z M94.6105263,14.2736842 C94.6928219,13.1686609 94.3288505,12.0767465 93.6,11.2421053 C92.7793068,10.5069748 91.6940902,10.1387181 90.5954887,10.2225564 L88.8541353,10.2225564 L88.8541353,18.4421053 L90.3067669,18.4421053 C91.4748982,18.5287025 92.6297826,18.1491477 93.518797,17.3864662 C94.2802851,16.5527545 94.6709786,15.4457897 94.6015038,14.318797 L94.6105263,14.2736842 Z" id="Shape" fill="#FFFFFF"></path>
                <circle id="Oval" fill="#EB001B" cx="98.1383459" cy="64.9804511" r="6.86616541"></circle>
                <circle id="Oval" fill="#00A1DF" cx="105.004511" cy="64.9804511" r="6.86616541"></circle>
                <rect id="Rectangle-path" fill="#FFFFFF" opacity="0.7" x="8.93233083" y="48.4240602" width="22.5473684" height="6.23458647" rx="3.11729323"></rect>
                <rect id="Rectangle-path" fill="#FFFFFF" opacity="0.5" x="8.93233083" y="62.6255639" width="33.3924812" height="4.46616541" rx="2.23308271"></rect>
                <rect id="Rectangle-path" fill="#FFFFFF" opacity="0.7" x="35.7293233" y="48.4240602" width="22.5473684" height="6.23458647" rx="3.11729323"></rect>
                <rect id="Rectangle-path" fill="#FFFFFF" opacity="0.7" x="62.5263158" y="48.4240602" width="22.5473684" height="6.23458647" rx="3.11729323"></rect>
                <rect id="Rectangle-path" fill="#FFFFFF" opacity="0.7" x="89.3233083" y="48.4240602" width="22.5473684" height="6.23458647" rx="3.11729323"></rect>
                <g id="Group" opacity="0.5" transform="translate(8.120301, 27.067669)" fill="#FFFFFF">
                    <rect id="Rectangle-path" x="12.7398496" y="4.43909774" width="5.89172932" height="2.70676692"></rect>
                    <rect id="Rectangle-path" x="12.7398496" y="8.0481203" width="5.89172932" height="2.28270677"></rect>
                    <rect id="Rectangle-path" x="0.812030075" y="7.29022556" width="7.43458647" height="2.70676692"></rect>
                    <path d="M12.7398496,3.53684211 L18.6315789,3.53684211 L18.6315789,3.3112782 C18.6315789,1.92101553 17.5045484,0.793984962 16.1142857,0.793984962 L12.7398496,0.793984962 L12.7398496,3.53684211 Z" id="Shape"></path>
                    <path d="M8.24661654,10.8992481 L0.812030075,10.8992481 L0.812030075,11.124812 C0.812030075,12.5150747 1.93906064,13.6421053 3.32932331,13.6421053 L8.24661654,13.6421053 L8.24661654,10.8992481 Z" id="Shape"></path>
                    <rect id="Rectangle-path" x="0.812030075" y="4.11428571" width="7.43458647" height="2.28270677"></rect>
                    <path d="M11.837594,11.2330827 L11.837594,0.784962406 L3.32932331,0.784962406 C1.98041095,0.788748625 0.874230452,1.85513846 0.821052632,3.20300752 L9.14887218,3.20300752 L9.14887218,13.6511278 L16.1052632,13.6511278 C17.4541755,13.6473416 18.560356,12.5809518 18.6135338,11.2330827 L11.837594,11.2330827 Z" id="Shape"></path>
                </g>
            </g>
        </g>
    </g>
</svg>