<?xml version="1.0" encoding="UTF-8" standalone="no"?>
<svg width="120px" height="74px" viewBox="0 0 120 74" version="1.1" xmlns="http://www.w3.org/2000/svg" xmlns:xlink="http://www.w3.org/1999/xlink">
    <!-- Generator: Sketch 46.2 (44496) - http://www.bohemiancoding.com/sketch -->
    <title>icn-delta</title>
    <desc>Created with Sketch.</desc>
    <defs>
        <linearGradient x1="50.0323415%" y1="-3.76923077%" x2="50.0323415%" y2="106.461538%" id="linearGradient-1">
            <stop stop-color="#FFFFFF" offset="0%"></stop>
            <stop stop-color="#CDE1EF" offset="100%"></stop>
        </linearGradient>
    </defs>
    <g id="Page-1" stroke="none" stroke-width="1" fill="none" fill-rule="evenodd">
        <g id="Payment-Icons" transform="translate(-717.000000, -14.000000)" fill-rule="nonzero">
            <g id="icn-delta" transform="translate(717.000000, 14.000000)">
                <rect id="Rectangle-path" fill="#F0F0F0" x="0.812030075" y="0" width="118.366917" height="73.9849624" rx="6.9"></rect>
                <path d="M112.953383,-2.39187197e-15 L7.04661654,-2.39187197e-15 C5.39751653,-0.00723671442 3.81331488,0.642026255 2.64360902,1.80451128 L117.230075,72.2706767 C118.479274,71.1021482 119.190921,69.4699303 119.196992,67.7593985 L119.196992,6.23458647 C119.199399,4.57877005 118.542076,2.99021075 117.370389,1.8202174 C116.198703,0.650224043 114.609195,-0.00480122199 112.953383,8.13578534e-16 L112.953383,-2.39187197e-15 Z" id="Shape" fill="#0061AD"></path>
                <polygon id="Shape" fill="#F1A628" points="60 71.3684211 2.52631579 37.3894737 60 37.3894737"></polygon>
                <polygon id="Shape" fill="#E2052B" points="31.2631579 72.1533835 3.30225564 55.6150376 31.2631579 55.6150376"></polygon>
                <path d="M54.6586466,11.9097744 L60.0721805,11.9097744 C60.949884,11.8773344 61.824951,12.0247141 62.643609,12.3428571 C63.2576676,12.6077423 63.7991577,13.0161806 64.2225564,13.5338346 C64.6483489,14.0911967 64.9554162,14.7298966 65.124812,15.4105263 C65.3207172,16.1524078 65.4177969,16.9169109 65.4135338,17.6842105 C65.4564374,18.6736492 65.3125758,19.6623153 64.9894737,20.5984962 C64.7245705,21.2564243 64.3179359,21.8478928 63.7984962,22.3308271 C63.3358474,22.7602394 62.7752,23.0699894 62.1654135,23.2330827 C61.4633796,23.4315413 60.738483,23.5376977 60.0090226,23.5488722 L54.5954887,23.5488722 L54.6586466,11.9097744 Z M57.5278195,14.4360902 L57.5278195,20.7518797 L58.8270677,20.7518797 C59.6232938,20.7881736 60.4204036,20.7029863 61.1909774,20.4992481 C61.651264,20.3349642 62.0403,20.0160822 62.2917293,19.5969925 C62.6029857,18.9743551 62.740154,18.2791616 62.6887218,17.5849624 C62.8000342,16.6480467 62.466116,15.7130758 61.7864662,15.0586466 C60.8946224,14.5502741 59.8664497,14.3326547 58.8451128,14.4360902 L57.5278195,14.4360902 Z M68.156391,11.9368421 L77.4586466,11.9368421 L77.4586466,14.4360902 L71.7834586,14.4360902 L71.7834586,16.1684211 L77.0165414,16.1684211 L77.0165414,18.5593985 L71.7834586,18.5593985 L71.7834586,20.7338346 L77.9007519,20.7338346 L77.9007519,23.6571429 L68.156391,23.6571429 L68.156391,11.9368421 Z M79.9849624,11.9368421 L83.593985,11.9368421 L83.593985,20.7518797 L89.2421053,20.7518797 L89.2421053,23.6390977 L79.9849624,23.6390977 L79.9849624,11.9368421 Z M88.1684211,11.9368421 L99.1759398,11.9368421 L99.1759398,14.7969925 L95.4857143,14.7969925 L95.4857143,23.6210526 L91.8766917,23.6210526 L91.8766917,14.7969925 L88.1864662,14.7969925 L88.1684211,11.9368421 Z M106.069173,21.4556391 L101.954887,21.4556391 L101.386466,23.6571429 L97.687218,23.6571429 L102.198496,11.9278195 L105.753383,11.9278195 L110.427068,23.6571429 L106.637594,23.6571429 L106.069173,21.4556391 Z M105.320301,18.9203008 L104.030075,14.9774436 L102.748872,18.9203008 L105.320301,18.9203008 Z" id="Shape" fill="#00345E"></path>
                <path d="M54.6586466,11.4586466 L60.0721805,11.4586466 C60.949884,11.4262066 61.824951,11.5735863 62.643609,11.8917293 C63.2755641,12.1644204 63.8303507,12.5890336 64.2586466,13.1278195 C64.6844391,13.6851817 64.9915064,14.3238816 65.1609023,15.0045113 C65.3568074,15.7463928 65.4538871,16.5108958 65.4496241,17.2781955 C65.4925277,18.2676342 65.348666,19.2563003 65.0255639,20.1924812 C64.7606607,20.8504093 64.3540261,21.4418778 63.8345865,21.924812 C63.3719376,22.3542244 62.8112902,22.6639743 62.2015038,22.8270677 C61.4994699,23.0255263 60.7745732,23.1316827 60.0451128,23.1428571 L54.6315789,23.1428571 L54.6586466,11.4586466 Z M57.5278195,13.9578947 L57.5278195,20.2736842 L58.8270677,20.2736842 C59.6232938,20.3099781 60.4204036,20.2247908 61.1909774,20.0210526 C61.651264,19.8567687 62.0403,19.5378867 62.2917293,19.118797 C62.5935252,18.5060525 62.7274002,17.8242243 62.6796992,17.1428571 C62.7910116,16.2059415 62.4570934,15.2709706 61.7774436,14.6165414 C60.8891424,14.087509 59.8571288,13.8508087 58.8270677,13.9398496 L57.5278195,13.9578947 Z M68.156391,11.4586466 L77.4586466,11.4586466 L77.4586466,13.9578947 L71.7834586,13.9578947 L71.7834586,15.6902256 L77.0165414,15.6902256 L77.0165414,18.0451128 L71.7834586,18.0451128 L71.7834586,20.2195489 L77.9007519,20.2195489 L77.9007519,23.1428571 L68.156391,23.1428571 L68.156391,11.4586466 Z M79.9849624,11.4586466 L83.593985,11.4586466 L83.593985,20.2917293 L89.2421053,20.2917293 L89.2421053,23.1789474 L79.9849624,23.1789474 L79.9849624,11.4586466 Z M88.1684211,11.4586466 L99.1759398,11.4586466 L99.1759398,14.3458647 L95.4857143,14.3458647 L95.4857143,23.1699248 L91.8766917,23.1699248 L91.8766917,14.3458647 L88.1864662,14.3458647 L88.1684211,11.4586466 Z M106.069173,20.9774436 L101.954887,20.9774436 L101.386466,23.1789474 L97.687218,23.1789474 L102.198496,11.4496241 L105.753383,11.4496241 L110.427068,23.1789474 L106.637594,23.1789474 L106.069173,20.9774436 Z M105.320301,18.4421053 L104.030075,14.4992481 L102.748872,18.4421053 L105.320301,18.4421053 Z" id="Shape" fill="url(#linearGradient-1)"></path>
            </g>
        </g>
    </g>
</svg>