<?xml version="1.0" encoding="iso-8859-1"?>
<!-- Generator: Adobe Illustrator 19.0.0, SVG Export Plug-In . SVG Version: 6.00 Build 0)  -->
<svg version="1.1" xmlns="http://www.w3.org/2000/svg" xmlns:xlink="http://www.w3.org/1999/xlink" x="2000px" y="0px"
	 viewBox="0 0 2000 1149.625" style="enable-background:new 0 0 2000 1149.625;" xml:space="preserve">
<g id="diners-club">
	<path id="XMLID_156_" style="fill:#0265A8;" d="M1099.247,814.411c222.632,1.082,425.836-181.51,425.836-403.671
		c0-242.904-203.204-410.805-425.836-410.739H907.638C682.363-0.065,496.922,167.868,496.922,410.739
		c0,222.208,185.44,404.753,410.716,403.671H1099.247z"/>
	<path id="XMLID_175_" style="fill:#FFFFFF;" d="M993.113,627.054V185.953c88.669,34.003,151.62,119.85,151.769,220.543
		C1144.728,507.18,1081.777,592.977,993.113,627.054 M672.287,406.492c0.191-100.623,63.049-186.42,151.662-220.534v441.017
		C735.341,592.879,672.478,507.134,672.287,406.492 M908.552,33.672C702.69,33.737,535.857,200.584,535.82,406.492
		c0.042,205.88,166.87,372.69,372.732,372.755c205.927-0.065,372.779-166.875,372.802-372.755
		C1281.331,200.584,1114.479,33.737,908.552,33.672"/>
	<path id="XMLID_81_" style="fill:#1D1D1B;" d="M80.457,1092.343c0,33.149,23.708,37.024,44.791,37.024
		c93.033,0,123.566-70.182,123.566-134.341c0-80.51-51.668-138.607-134.751-138.607c-17.689,0-25.82,1.254-33.606,1.706
		L80.457,1092.343z M38.254,890.384c0-38.725-20.207-36.18-39.565-36.586v-11.185c16.784,0.816,33.993,0.816,50.806,0.816
		c18.076,0,42.614-0.816,74.5-0.816c111.5,0,172.209,74.444,172.209,150.697c0,42.642-24.967,149.848-177.393,149.848
		c-21.946,0-42.204-0.863-62.438-0.863c-19.353,0-38.329,0.42-57.683,0.863v-11.194c25.806-2.592,38.329-3.45,39.565-32.734
		L38.254,890.384z M357.364,880.085c-11.218,0-21.102-10.346-21.102-21.54c0-10.779,10.355-20.701,21.102-20.701
		c11.162,0,21.088,9.068,21.088,20.701C378.456,870.191,368.964,880.085,357.364,880.085 M311.286,1131.959h8.182
		c12.029,0,20.65,0,20.65-14.244v-116.661c0-18.929-6.448-21.554-22.389-30.123v-6.891c20.235-6.061,44.367-14.211,46.064-15.502
		c3.035-1.716,5.595-2.173,7.767-2.173c2.126,0,3.012,2.592,3.012,6.061v165.29c0,14.244,9.469,14.244,21.54,14.244h7.301v11.194
		c-14.649,0-29.732-0.863-45.188-0.863c-15.516,0-31.014,0.42-46.941,0.863L311.286,1131.959z M444.326,1003.633
		c0-15.913-4.756-20.207-24.953-28.389v-8.182c18.491-6.033,36.119-11.637,56.806-20.691c1.296,0,2.555,0.891,2.555,4.294v28.002
		c24.575-17.633,45.677-32.296,74.565-32.296c36.562,0,49.482,26.706,49.482,60.294v111.057c0,14.243,9.474,14.243,21.526,14.243
		h7.768v11.194c-15.115,0-30.17-0.862-45.64-0.862c-15.53,0-31.023,0.42-46.53,0.862v-11.194h7.758c12.071,0,20.64,0,20.64-14.243
		v-111.477c0-24.566-14.999-36.609-39.569-36.609c-13.777,0-35.737,11.18-49.994,20.677v127.408
		c0,14.243,9.516,14.243,21.577,14.243h7.74v11.194c-15.064,0-30.156-0.862-45.663-0.862c-15.465,0-30.995,0.42-46.488,0.862
		v-11.194h7.763c12.057,0,20.659,0,20.659-14.243L444.326,1003.633L444.326,1003.633z M741.029,1010.533
		c10.751,0,12.006-5.604,12.006-10.756c0-21.96-13.334-39.621-37.457-39.621c-26.249,0-44.33,19.344-49.5,50.377H741.029z
		 M664.813,1024.329c-0.895,3.884-0.895,10.318,0,24.981c2.532,40.894,28.851,74.472,63.25,74.472
		c23.717,0,42.25-12.929,58.158-28.846l6.01,6.028c-19.815,26.268-44.344,48.661-79.628,48.661
		c-68.485,0-82.258-66.322-82.258-93.867c0-84.417,56.825-109.388,86.944-109.388c34.907,0,72.397,21.955,72.789,67.599
		c0,2.611,0,5.166-0.387,7.777l-3.916,2.583L664.813,1024.329L664.813,1024.329z M799.994,1131.959h11.633
		c12.02,0,20.64,0,20.64-14.244V996.76c0-13.334-15.927-15.945-22.398-19.377v-6.453c31.438-13.353,48.666-24.566,52.596-24.566
		c2.522,0,3.818,1.292,3.818,5.623v38.744h0.914c10.728-16.789,28.832-44.367,55.081-44.367c10.775,0,24.543,7.306,24.543,22.813
		c0,11.637-8.168,22.006-20.225,22.006c-13.404,0-13.404-10.369-28.45-10.369c-7.329,0-31.434,9.917-31.434,35.76v101.14
		c0,14.244,8.597,14.244,20.673,14.244h24.095v11.194c-23.694-0.443-41.705-0.863-60.256-0.863c-17.642,0-35.732,0.42-51.235,0.863
		v-11.194H799.994z M965.764,1083.303c5.599,28.403,22.813,52.531,54.26,52.531c25.368,0,34.833-15.502,34.833-30.562
		c0-50.81-93.825-34.464-93.825-103.765c0-24.123,19.395-55.137,66.737-55.137c13.759,0,32.273,3.888,49.057,12.509l3.017,43.877
		h-9.889c-4.303-27.093-19.372-42.581-46.945-42.581c-17.237,0-33.578,9.898-33.578,28.408c0,50.409,99.9,34.87,99.9,102.469
		c0,28.408-22.818,58.573-74.071,58.573c-17.218,0-37.457-6.028-52.512-14.635l-4.76-49.514L965.764,1083.303z M1478.129,920.526
		h-10.751c-8.196-50.335-43.943-70.597-92.137-70.597c-49.542,0-121.468,33.131-121.468,136.476
		c0,87.009,62.061,149.424,128.327,149.424c42.619,0,77.955-29.256,86.575-74.5l9.889,2.578l-9.889,62.867
		c-18.095,11.227-66.751,22.846-95.187,22.846c-100.725,0-164.441-65.021-164.441-161.905c0-88.277,78.775-151.601,163.159-151.601
		c34.87,0,68.467,11.227,101.602,22.864L1478.129,920.526z M1493.65,1131.959h8.15c12.089,0,20.701,0,20.701-14.244V877.926
		c0-27.997-6.462-28.855-22.822-33.588v-6.891c17.213-5.586,35.299-13.334,44.339-18.528c4.709-2.569,8.178-4.751,9.446-4.751
		c2.611,0,3.487,2.602,3.487,6.052v297.496c0,14.244,9.46,14.244,21.531,14.244h7.278v11.194c-14.598,0-29.685-0.863-45.174-0.863
		c-15.488,0-30.995,0.42-46.936,0.863L1493.65,1131.959L1493.65,1131.959z M1770.104,1119.455c0,7.777,4.709,8.182,12.029,8.182
		c5.171,0,11.614-0.406,17.237-0.406v9.054c-18.542,1.716-53.846,10.756-62.028,13.334l-2.154-1.296v-34.87
		c-25.806,21.092-45.626,36.166-76.239,36.166c-23.251,0-47.346-15.069-47.346-51.221v-110.26c0-11.194-1.716-21.955-25.792-24.095
		v-8.196c15.502-0.424,49.887-3.003,55.51-3.003c4.77,0,4.77,3.003,4.77,12.481v111.071c0,12.929,0,49.952,37.434,49.952
		c14.635,0,34.012-11.194,52.078-26.23V984.251c0-8.593-20.659-13.306-36.129-17.614v-7.763c38.707-2.592,62.853-6.028,67.157-6.028
		c3.464,0,3.464,3.003,3.464,7.763v158.847H1770.104z M1855.775,1094.483c0,16.365,15.488,43.943,44.339,43.943
		c46.073,0,65.436-45.225,65.436-83.563c0-46.488-35.275-85.228-68.854-85.228c-15.987,0-29.308,10.355-40.922,20.258V1094.483z
		 M1855.775,977.365c17.204-14.617,40.474-30.995,64.154-30.995c49.948,0,80.071,43.523,80.071,90.431
		c0,56.405-41.336,112.824-102.926,112.824c-31.825,0-48.619-10.337-59.837-15.069l-12.896,9.884l-9.008-4.718
		c3.8-25.405,6-50.391,6-76.654V877.94c0-28.007-6.49-28.865-22.841-33.597v-6.891c17.26-5.586,35.308-13.334,44.353-18.523
		c4.742-2.569,8.168-4.746,9.493-4.746c2.583,0,3.436,2.602,3.436,6.042L1855.775,977.365L1855.775,977.365z"/>
</g>
<g id="&#x421;&#x43B;&#x43E;&#x439;_1">
</g><a href="http://www.slotsup.com/casino-deposit-methods" target="_blank"></a>
</svg>
