<?xml version="1.0" encoding="UTF-8" standalone="no"?>
<svg width="120px" height="34px" viewBox="0 0 120 34" version="1.1" xmlns="http://www.w3.org/2000/svg" xmlns:xlink="http://www.w3.org/1999/xlink">
    <!-- Generator: Sketch 46.2 (44496) - http://www.bohemiancoding.com/sketch -->
    <title>icn-dineromail</title>
    <desc>Created with Sketch.</desc>
    <defs>
        <linearGradient x1="49.9853111%" y1="21.1396011%" x2="49.9853111%" y2="122.905983%" id="linearGradient-1">
            <stop stop-color="#BBCE00" offset="0%"></stop>
            <stop stop-color="#428E29" offset="100%"></stop>
        </linearGradient>
    </defs>
    <g id="Page-1" stroke="none" stroke-width="1" fill="none" fill-rule="evenodd">
        <g id="Payment-Icons" transform="translate(-466.000000, -522.000000)" fill-rule="nonzero">
            <g id="icn-dineromail" transform="translate(466.000000, 522.000000)">
                <path d="M0,18.9700599 L3.97365269,0 L9.08982036,0 C10.5269461,0 11.4371257,0.0215568862 11.8203593,0.0646706587 C12.5408779,0.128063138 13.2492856,0.290053983 13.9257485,0.546107784 C14.5397356,0.785817628 15.108361,1.12845091 15.6071856,1.55928144 C16.124568,2.01041821 16.5661211,2.54173764 16.9149701,3.13293413 C17.300753,3.7937626 17.5864906,4.50810644 17.7628743,5.25269461 C17.9675062,6.11168859 18.0664425,6.99246288 18.057485,7.8754491 C18.093649,9.75717629 17.6927172,11.6216324 16.8862275,13.3221557 C16.1993477,14.7845566 15.1924874,16.0738289 13.9401198,17.0946108 C12.9016461,17.8743426 11.7045793,18.4164569 10.4335329,18.6826347 C9.19917,18.9095312 7.94435273,19.0058703 6.68982036,18.9700599 L0,18.9700599 Z M4.54850299,15.9161677 L6.53173653,15.9161677 C7.57577959,15.9529644 8.6204499,15.863697 9.64311377,15.6502994 C10.3027619,15.4649229 10.9087265,15.1249915 11.4107784,14.6586826 C12.2413959,13.8690522 12.9016454,12.9178039 13.3508982,11.8634731 C13.9043869,10.562909 14.1738648,9.15917438 14.1413174,7.74610778 C14.2104611,6.69182477 13.9840026,5.63916622 13.4874251,4.70658683 C13.1197195,4.08670027 12.5521092,3.61031306 11.8778443,3.35568862 C11.0955224,3.16392915 10.2895528,3.08647862 9.48502994,3.1257485 L7.18562874,3.1257485 L4.54850299,15.9161677 Z" id="Shape" fill="#78AF0E"></path>
                <path d="M21.4347305,5.46826347 L24.4958084,5.46826347 L22.1245509,16.8143713 L19.0634731,16.8143713 L21.4347305,5.46826347 Z M22.3329341,1.15688623 L25.394012,1.15688623 L24.8191617,3.93053892 L21.7508982,3.93053892 L22.3329341,1.15688623 Z" id="Shape" fill="#78AF0E"></path>
                <path d="M27.4419162,5.46826347 L30.3161677,5.46826347 L30.0143713,6.94131737 C30.6197954,6.39432967 31.3056342,5.94356636 32.0479042,5.60479042 C32.6771198,5.33673214 33.3543929,5.19981051 34.0383234,5.20239521 C34.8516132,5.15658615 35.6483731,5.44466547 36.2443114,6 C36.8010468,6.57514811 37.0927177,7.35640935 37.0491018,8.15568862 C36.995895,8.91877207 36.8781082,9.67597307 36.697006,10.4191617 L35.3964072,16.8143713 L32.3353293,16.8143713 L33.6790419,10.3473054 C33.8130909,9.77915687 33.9114865,9.20318299 33.9736527,8.62275449 C33.9936006,8.27909982 33.8684793,7.94283621 33.6287425,7.69580838 C33.3654891,7.45962966 33.0189731,7.33809047 32.6658683,7.35808383 C32.1219011,7.39263411 31.6010072,7.59047364 31.1712575,7.9257485 C30.6198469,8.30564557 30.1746323,8.82011576 29.8778443,9.42035928 C29.5218523,10.2895537 29.2639691,11.1957603 29.108982,12.1221557 L28.1317365,16.8143713 L25.0706587,16.8143713 L27.4419162,5.46826347 Z" id="Shape" fill="#78AF0E"></path>
                <path d="M49.3149701,12.0934132 L41.6263473,12.0934132 C41.6263473,12.2155689 41.6263473,12.308982 41.6263473,12.3736527 C41.5959788,13.0430441 41.8280026,13.6978668 42.2730539,14.1988024 C42.6675301,14.6565976 43.2424012,14.9190958 43.8467066,14.9173653 C44.8820602,14.9060976 45.8138818,14.2867599 46.2251497,13.3365269 L48.9700599,13.7964072 C48.5091168,14.817503 47.7598505,15.6816569 46.8143713,16.2826347 C45.9146115,16.822386 44.8814097,17.0987364 43.8323353,17.0802395 C42.4490117,17.1328182 41.1051682,16.6129561 40.1173653,15.6431138 C39.1361679,14.6158104 38.6170519,13.2323663 38.6802395,11.8131737 C38.6582953,10.3285837 39.1114876,8.87585048 39.9736527,7.66706587 C41.1203955,6.04242625 43.0172249,5.11568962 45.0035928,5.20958084 C46.231067,5.1452873 47.428692,5.60189811 48.3017964,6.46706587 C49.165046,7.45814115 49.6060874,8.747736 49.5305389,10.0598802 C49.5402856,10.7439072 49.4679119,11.4266323 49.3149701,12.0934132 L49.3149701,12.0934132 Z M46.7065868,10.2251497 C46.7065868,10.0886228 46.7065868,9.98802395 46.7065868,9.91616766 C46.7574653,9.23771569 46.555234,8.56446454 46.1389222,8.02634731 C45.752107,7.60144925 45.1968464,7.36987136 44.6227545,7.39401198 C43.9822479,7.39815275 43.3696361,7.65663873 42.9197605,8.11257485 C42.36662,8.69241167 42.0096857,9.4314165 41.8994012,10.2251497 L46.7065868,10.2251497 Z" id="Shape" fill="#78AF0E"></path>
                <path d="M52.5269461,5.46826347 L55.4011976,5.46826347 L54.9413174,7.66706587 C56.0095808,6.0239521 57.1664671,5.20239521 58.411976,5.20239521 C58.9087195,5.21202233 59.3980673,5.32457231 59.8491018,5.53293413 L58.6491018,8.04790419 C58.362667,7.94873205 58.0611735,7.90010406 57.7580838,7.90419162 C57.171294,7.92428973 56.606712,8.13348751 56.148503,8.5005988 C55.5991214,8.90403111 55.161436,9.44062844 54.8766467,10.0598802 C54.4659601,11.0819752 54.162536,12.1439595 53.9712575,13.2287425 L53.2526946,16.7856287 L50.1556886,16.7856287 L52.5269461,5.46826347 Z" id="Shape" fill="#78AF0E"></path>
                <path d="M59.1808383,12.1005988 C59.0853163,10.2554041 59.7233196,8.44729752 60.9556886,7.07065868 C62.1733178,5.80720638 63.8730763,5.12468798 65.6263473,5.19520958 C67.0640689,5.11032898 68.4754679,5.60755579 69.542515,6.5748503 C70.5194103,7.56103117 71.04033,8.91021328 70.9796407,10.297006 C71.0135397,12.062556 70.3767222,13.7752869 69.1976048,15.0898204 C68.0063305,16.4351695 66.2719625,17.1716819 64.4766467,17.0946108 C63.4806601,17.1199061 62.493693,16.9003059 61.6023952,16.4550898 C60.8095754,16.0603253 60.1628402,15.423656 59.7556886,14.6371257 C59.3601398,13.8511279 59.1627917,12.9803293 59.1808383,12.1005988 L59.1808383,12.1005988 Z M67.9113772,9.94491018 C67.9434465,9.30160309 67.7155887,8.67240493 67.2790419,8.1988024 C66.8511906,7.75714835 66.2550928,7.51923215 65.6407186,7.54491018 C65.0006248,7.53699315 64.3778931,7.75304293 63.8802395,8.15568862 C63.3230776,8.62724321 62.9076713,9.24413393 62.6802395,9.93772455 C62.4140772,10.6260038 62.2705896,11.3556014 62.2562874,12.0934132 C62.2182462,12.7989905 62.4552066,13.4918421 62.9173653,14.0263473 C63.3401963,14.4995745 63.9500633,14.7624482 64.5844311,14.7449102 C65.4209717,14.7462312 66.2070987,14.345146 66.697006,13.6670659 C67.5313012,12.5990101 67.9614041,11.2705269 67.9113772,9.91616766 L67.9113772,9.94491018 Z" id="Shape" fill="#78AF0E"></path>
                <polygon id="Shape" fill="#205179" points="83.1017964 18.9700599 79.4011976 18.9700599 78.6826347 3.10419162 74.7305389 18.9700599 71.2095808 18.9700599 76.1676647 0 81.7365269 0 82.3185629 13.3005988 89.748503 0 95.3820359 0 91.4011976 18.9700599 87.8083832 18.9700599 91.5520958 3.22634731"></polygon>
                <path d="M99.6431138,8.68742515 L96.6538922,8.42874251 C96.9640568,7.45825133 97.5949964,6.62206639 98.4431138,6.05748503 C99.4590095,5.44349875 100.634685,5.14582771 101.820359,5.20239521 C102.968185,5.11204981 104.11161,5.42458592 105.053892,6.08622754 C105.718949,6.60323331 106.106489,7.39954876 106.102994,8.24191617 C106.100549,8.60787444 106.069315,8.97307312 106.009581,9.33413174 C105.947305,9.71736527 105.736527,10.7281437 105.377246,12.3664671 C105.136967,13.3083213 104.985407,14.2706053 104.924551,15.2407186 C104.935688,15.7866483 105.022751,16.3283716 105.183234,16.8502994 L102.201198,16.8502994 C102.079886,16.4334989 102.005178,16.0045291 101.978443,15.5712575 C101.548218,16.0568743 101.022239,16.4483001 100.433533,16.7209581 C99.8827885,16.981046 99.2821024,17.1183456 98.6730539,17.1233533 C97.8020002,17.1508267 96.9587057,16.8150705 96.3449102,16.1964072 C95.7247195,15.5635341 95.3921165,14.7034434 95.4251497,13.8179641 C95.3795858,12.8501054 95.744936,11.9080236 96.4311377,11.2239521 C97.1017964,10.5772455 98.2994012,10.1844311 100.023952,10.045509 C101.011281,10.0003557 101.991319,9.85347044 102.948503,9.60718563 C103.060202,9.27524408 103.125491,8.92945796 103.142515,8.57964072 C103.144278,8.26022282 102.998418,7.95789519 102.747305,7.76047904 C102.407502,7.51682621 101.993096,7.3998772 101.576048,7.42994012 C101.117991,7.40500376 100.663504,7.52301971 100.275449,7.76766467 C99.9660929,7.99330889 99.7430174,8.31778231 99.6431138,8.68742515 Z M102.560479,11.5616766 C102.323835,11.6212027 102.083902,11.66679 101.841916,11.6982036 C100.790068,11.7392408 99.7609868,12.0167734 98.8311377,12.5101796 C98.5043497,12.7520803 98.3165078,13.1384979 98.3281437,13.5449102 C98.3219495,13.8883306 98.4632121,14.2179432 98.7161677,14.4502994 C98.9935912,14.6992191 99.3568725,14.8306188 99.7293413,14.8167665 C100.186952,14.8176801 100.637176,14.7014134 101.037126,14.4790419 C101.41806,14.2829214 101.736623,13.9842693 101.956886,13.6167665 C102.216956,13.0954226 102.398558,12.5385091 102.495808,11.9640719 L102.560479,11.5616766 Z" id="Shape" fill="#205179"></path>
                <path d="M109.738922,5.46826347 L112.814371,5.46826347 L110.443114,16.8071856 L107.382036,16.8071856 L109.738922,5.46826347 Z M110.637126,1.15688623 L113.698204,1.15688623 L113.123353,3.93053892 L110.05509,3.93053892 L110.637126,1.15688623 Z" id="Shape" fill="#205179"></path>
                <polygon id="Shape" fill="#205179" points="113.317365 16.8143713 116.594012 1.15688623 119.647904 1.15688623 116.407186 16.8143713"></polygon>
                <rect id="Rectangle-path" fill="#BBCE00" x="117.923353" y="17.6838323" width="2.07664671" height="2.09820359" rx="0.41"></rect>
                <rect id="Rectangle-path" fill="#BBCE00" x="116.507784" y="16.2610778" width="1.40838323" height="1.42275449" rx="0.28"></rect>
                <path d="M90.1580838,20.457485 L88.0023952,20.457485 C86.845509,20.457485 86.3281437,20.9748503 86.3281437,22.1317365 L86.3281437,29.5688623 C86.3281437,30.0143713 86.4718563,30.1580838 86.9173653,30.1580838 L87.0610778,30.1580838 C87.5065868,30.1580838 87.6502994,30.0143713 87.6502994,29.5688623 L87.6502994,26.6946108 L90.1652695,26.6946108 C92.4,26.6946108 93.4347305,25.702994 93.4347305,23.5832335 C93.4347305,21.4634731 92.3928144,20.457485 90.1580838,20.457485 Z M92.0982036,23.5688623 C92.0982036,24.7832335 91.7892216,25.4371257 90.1580838,25.4371257 L87.6646707,25.4371257 L87.6646707,22.2754491 C87.6646707,21.8443114 87.8227545,21.6790419 88.2610778,21.6790419 L90.1796407,21.6790419 C91.3868263,21.7077844 92.0982036,22.0095808 92.0982036,23.5616766 L92.0982036,23.5688623 Z M96.2155689,22.5916168 C95.6776508,22.5862424 95.1406317,22.6368137 94.6131737,22.742515 C94.2538922,22.8215569 94.102994,22.9221557 94.102994,23.3317365 L94.102994,23.4467066 C94.0928017,23.5685274 94.1177384,23.6907172 94.1748503,23.7988024 C94.2391075,23.8927209 94.3488789,23.9448623 94.4622754,23.9353293 C94.5362652,23.9441458 94.6110402,23.9441458 94.6850299,23.9353293 C95.2100407,23.8059654 95.7470363,23.7313157 96.2874251,23.7125749 C97.5808383,23.7125749 98.1125749,24.0718563 98.1125749,24.948503 L98.1125749,25.7317365 L96.4814371,25.7317365 C94.3832335,25.7317365 93.3988024,26.4502994 93.3988024,27.9592814 C93.3988024,29.4682635 94.411976,30.251497 96.2730539,30.251497 C98.4287425,30.251497 99.4275449,29.5329341 99.4275449,27.8443114 L99.4275449,24.9700599 C99.3844311,23.3676647 98.3497006,22.5844311 96.2227545,22.5844311 L96.2155689,22.5916168 Z M98.0982036,26.8167665 L98.0982036,27.8371257 C98.0982036,28.6706587 97.7892216,29.1520958 96.2155689,29.1520958 C95.1736527,29.1520958 94.6706587,28.7784431 94.6706587,28.0023952 C94.6706587,27.2263473 95.1808383,26.8239521 96.4814371,26.8239521 L98.0982036,26.8167665 Z M106.598802,23.4035928 L104.91018,30.1365269 C104.414371,32.1125749 103.573653,32.960479 102,33.0610778 L101.88503,33.0610778 C101.547305,33.0610778 101.439521,32.8742515 101.37485,32.5724551 L101.37485,32.4431138 C101.31886,32.3148249 101.31886,32.1690074 101.37485,32.0407186 C101.453892,31.9401198 101.590419,31.9041916 101.805988,31.8898204 C102.862275,31.7820359 103.243114,31.2934132 103.566467,30.1868263 C103.37831,30.2464903 103.181805,30.2756023 102.984431,30.2730539 C101.827545,30.2730539 101.547305,29.4682635 101.252695,28.491018 L99.8802395,23.4035928 C99.8103036,23.2557581 99.8103036,23.0843617 99.8802395,22.9365269 C100.000378,22.8258533 100.164229,22.7756409 100.325749,22.8 L100.440719,22.8 C100.610452,22.7712675 100.784478,22.8146381 100.920876,22.9196648 C101.057274,23.0246914 101.143681,23.1818534 101.159281,23.3532934 L102.538922,28.3832335 C102.718563,29.0155689 102.898204,29.1017964 103.343713,29.1017964 C103.789222,29.1017964 103.918563,28.9868263 104.062275,28.3832335 L105.276647,23.3532934 C105.285511,23.1790777 105.370204,23.0174759 105.508419,22.9110505 C105.646634,22.8046251 105.824514,22.7640457 105.99521,22.8 L106.124551,22.8 C106.284831,22.7757708 106.447674,22.8230478 106.57006,22.9293413 C106.650603,23.07203 106.663761,23.2430788 106.605988,23.3964072 L106.598802,23.4035928 Z M116.500599,21.4347305 L116.500599,26.5437126 C116.52233,27.2740733 116.332698,27.9951728 115.954491,28.6203593 C115.235928,29.7053892 113.920958,30.2874251 112.016766,30.2874251 L112.016766,30.2874251 C110.112575,30.2874251 108.776048,29.7053892 108.079042,28.6203593 C107.700834,27.9951728 107.511203,27.2740733 107.532934,26.5437126 L107.532934,21.4275449 C107.532934,20.6011976 107.870659,20.4502994 108.776048,20.4502994 L109.063473,20.4502994 C109.968862,20.4502994 110.306587,20.6011976 110.306587,21.4275449 L110.306587,23.7916168 C110.306587,23.7916168 110.306587,23.7916168 110.306587,23.8347305 L110.306587,26.5293413 C110.292338,26.8084175 110.359759,27.0855943 110.500599,27.3269461 C110.74491,27.7077844 111.219162,27.8802395 112.016766,27.8802395 C112.814371,27.8802395 113.288623,27.7077844 113.532934,27.3269461 C113.673774,27.0855943 113.741195,26.8084175 113.726946,26.5293413 L113.726946,23.8419162 C113.726946,23.8419162 113.726946,23.8419162 113.726946,23.7988024 L113.726946,21.4275449 C113.726946,20.6011976 114.064671,20.4502994 114.97006,20.4502994 L115.257485,20.4502994 C116.17006,20.457485 116.500599,20.6083832 116.500599,21.4275449 L116.500599,21.4347305 Z" id="Shape" fill="url(#linearGradient-1)"></path>
                <rect id="Rectangle-path" fill="#BBCE00" style="mix-blend-mode: multiply;" x="115.120958" y="19.7820359" width="2.79520958" height="2.8239521" rx="0.55"></rect>
                <path d="M79.3365269,26.2850299 C79.6451861,26.2695633 79.943193,26.3999413 80.1413174,26.6371257 C80.5245509,27.2530368 80.5245509,28.0331908 80.1413174,28.6491018 C79.9453534,28.8898999 79.6466307,29.0232583 79.3365269,29.0083832 C79.1735902,29.0114248 79.011888,28.9795744 78.8622754,28.9149701 C78.7183836,28.8505661 78.5943367,28.7488476 78.502994,28.6203593 L78.502994,28.6203593 L78.4167665,28.9580838 L78.1293413,28.9580838 L78.1293413,25.2215569 L78.5317365,25.2215569 L78.5317365,26.1341317 C78.5317365,26.3401198 78.5317365,26.5221557 78.5317365,26.6802395 L78.5317365,26.6802395 C78.7168743,26.4220243 79.0190025,26.2736578 79.3365269,26.2850299 Z M79.2790419,26.6227545 C79.0564658,26.6059917 78.8387383,26.6936138 78.6898204,26.8598802 C78.4453292,27.3609903 78.4453292,27.9467942 78.6898204,28.4479042 C78.8403168,28.6162722 79.0612088,28.7040967 79.2862275,28.6850299 C79.5022613,28.6981548 79.7094177,28.5973024 79.8323353,28.4191617 C79.9658397,28.1858477 80.0282773,27.9186147 80.011976,27.6502994 C80.0313459,27.3817332 79.9687018,27.1136163 79.8323353,26.8814371 C79.7119772,26.6933823 79.502256,26.5817126 79.2790419,26.5868263 L79.2790419,26.6227545 Z" id="Shape" fill="#919191"></path>
                <path d="M80.708982,26.3281437 L81.1401198,26.3281437 L81.7149701,27.8299401 C81.8097074,28.0639933 81.8889209,28.3040342 81.9520958,28.548503 L81.9520958,28.548503 C81.9520958,28.4670659 81.9952096,28.3281437 82.0814371,28.1317365 C82.1676647,27.9353293 82.3856287,27.3269461 82.7353293,26.3065868 L83.1664671,26.3065868 L82.0311377,29.3101796 C81.9546567,29.5508315 81.8187303,29.7683138 81.6359281,29.942515 C81.4797458,30.0689029 81.2834649,30.1351795 81.0826347,30.1293413 C80.9616382,30.1284597 80.8411231,30.1139979 80.7233533,30.0862275 L80.7233533,29.7628743 C80.8212812,29.7732806 80.9200362,29.7732806 81.0179641,29.7628743 C81.296191,29.7616787 81.5384492,29.5725992 81.6071856,29.302994 L81.7508982,28.9293413 L80.708982,26.3281437 Z" id="Shape" fill="#919191"></path>
            </g>
        </g>
    </g>
</svg>