<?xml version="1.0" encoding="UTF-8" standalone="no"?>
<svg width="120px" height="29px" viewBox="0 0 120 29" version="1.1" xmlns="http://www.w3.org/2000/svg" xmlns:xlink="http://www.w3.org/1999/xlink">
    <!-- Generator: Sketch 46.2 (44496) - http://www.bohemiancoding.com/sketch -->
    <title>icn-easyeft</title>
    <desc>Created with Sketch.</desc>
    <defs>
        <radialGradient cx="68.403171%" cy="29.5583239%" fx="68.403171%" fy="29.5583239%" r="50%" id="radialGradient-1">
            <stop stop-color="#DA3D30" offset="0%"></stop>
            <stop stop-color="#910707" offset="100%"></stop>
        </radialGradient>
    </defs>
    <g id="Page-1" stroke="none" stroke-width="1" fill="none" fill-rule="evenodd">
        <g id="Payment-Icons" transform="translate(-224.000000, -252.000000)" fill-rule="nonzero">
            <g id="icn-easyeft" transform="translate(224.000000, 252.000000)">
                <circle id="Oval" fill="url(#radialGradient-1)" cx="14.9806452" cy="14.1290323" r="5.69677419"></circle>
                <polygon id="Shape" fill="#000000" points="43.1096774 19.916129 33.7096774 19.916129 33.7096774 6.81935484 42.5806452 6.81935484 42.5806452 8.62580645 35.8451613 8.62580645 35.8451613 12.1935484 42.2967742 12.1935484 42.2967742 13.9870968 35.8451613 13.9870968 35.8451613 18.0967742 43.1096774 18.0967742"></polygon>
                <path d="M53.5483871,19.916129 L53.1290323,18.5354839 L53.0580645,18.5354839 C52.5951784,19.0689066 52.0172058,19.490253 51.3677419,19.7677419 C50.7760907,20.0066209 50.1409037,20.1187127 49.5032258,20.0967742 C48.6698464,20.1460691 47.8509037,19.8630351 47.2258065,19.3096774 C46.6514404,18.7136009 46.3541032,17.9035327 46.4064516,17.0774194 C46.3545345,16.1618397 46.7852219,15.2857825 47.5419355,14.7677419 C48.595824,14.16901 49.7950869,13.8742192 51.0064516,13.916129 L52.9419355,13.8645161 L52.9419355,13.3354839 C52.9051657,12.7919783 52.6602141,12.283588 52.2580645,11.916129 C51.8860827,11.5737656 51.3876575,11.4029438 50.883871,11.4451613 C50.3890609,11.444105 49.8971181,11.5202908 49.4258065,11.6709677 C48.9674142,11.8177968 48.5191411,11.9945198 48.083871,12.2 L47.4,10.6967742 C47.9570691,10.4072349 48.549004,10.1904089 49.1612903,10.0516129 C49.7533333,9.91111559 50.3592795,9.83753641 50.9677419,9.83225806 C52.0643904,9.76314389 53.1537192,10.0530276 54.0709677,10.6580645 C54.7609297,11.3314128 55.1135581,12.2780663 55.0322581,13.2387097 L55.0322581,19.916129 L53.5483871,19.916129 Z M50.1677419,18.483871 C50.8414058,18.5173701 51.5014118,18.2857891 52.0064516,17.8387097 C52.5584976,17.3997721 52.9003721,16.7488058 52.9483871,16.0451613 L52.9483871,15.1870968 L51.4258065,15.2387097 C50.6745496,15.2147233 49.9299032,15.3858808 49.2645161,15.7354839 C48.8243473,16.0406715 48.5788396,16.5562378 48.6193548,17.0903226 C48.595584,17.4731478 48.7391792,17.847437 49.0129032,18.116129 C49.341139,18.3782236 49.7549229,18.5092552 50.1741935,18.483871 L50.1677419,18.483871 Z" id="Shape" fill="#000000"></path>
                <path d="M67.3096774,17.0967742 C67.3569315,17.9700648 66.9586739,18.807863 66.2516129,19.3225806 C65.3809976,19.8995612 64.3455702,20.1759772 63.3032258,20.1096774 C61.7956016,20.1425903 60.3148098,19.7075936 59.0645161,18.8645161 L60.3096774,17.1225806 C61.0684905,17.9749168 62.1493159,18.47088 63.2903226,18.4903226 C64.5806452,18.4903226 65.2258065,18.0989247 65.2258065,17.316129 C65.2388361,17.0819086 65.1627781,16.8514297 65.0129032,16.6709677 C64.8075437,16.459672 64.5675152,16.2851058 64.3032258,16.1548387 C63.8600854,15.9250274 63.4033208,15.7224997 62.9354839,15.5483871 C62.0875005,15.273561 61.3070568,14.8228823 60.6451613,14.2258065 C60.2162552,13.7587297 59.9850149,13.1436306 60,12.5096774 C59.9715333,11.7171352 60.360918,10.9677533 61.0258065,10.5354839 C61.8793502,10.0141631 62.8728391,9.76860689 63.8709677,9.83225806 C65.0103259,9.82794736 66.1371458,10.0700376 67.1741935,10.5419355 L66.4516129,12.1225806 C65.6017759,11.7383366 64.6865603,11.5193855 63.7548387,11.4774194 C62.6451613,11.4774194 62.0903226,11.7935484 62.0903226,12.4258065 C62.0943505,12.743783 62.2564159,13.0388871 62.5225806,13.2129032 C63.1205719,13.5760824 63.7566436,13.8724832 64.4193548,14.0967742 C65.0442898,14.3179696 65.6417529,14.610207 66.2,14.9677419 C66.5444879,15.200065 66.8277847,15.5121342 67.0258065,15.8774194 C67.2171186,16.2551258 67.3144963,16.6734076 67.3096774,17.0967742 L67.3096774,17.0967742 Z" id="Shape" fill="#000000"></path>
                <path d="M70.2516129,10.0129032 L72.5419355,10.0129032 L74.5548387,15.6258065 C74.8391868,16.3539768 75.0425608,17.1112202 75.1612903,17.883871 L75.2322581,17.883871 C75.3049491,17.479954 75.4040872,17.0812467 75.5290323,16.6903226 C75.6709677,16.2215054 76.4301075,13.9956989 77.8064516,10.0129032 L80.083871,10.0129032 L75.8451613,21.2322581 C75.0774194,23.2903226 74.1032258,24.2193548 72.3096774,24.2193548 C71.4940469,24.1710007 70.7432535,23.7588933 70.2645161,23.0967742 L70.9096774,21.7612903 C71.2616976,22.1060391 71.7129889,22.3316847 72.2,22.4064516 C72.9935484,22.4064516 73.4903226,22.0129032 73.8774194,20.8322581 L74.2451613,19.9032258 L70.2516129,10.0129032 Z" id="Shape" fill="#000000"></path>
                <polygon id="Shape" fill="#000000" points="93.5032258 19.916129 84.3483871 19.916129 84.3483871 6.81935484 93 6.81935484 93 8.62580645 86.4903226 8.62580645 86.4903226 12.1935484 92.6709677 12.1935484 92.6709677 13.9870968 86.4903226 13.9870968 86.4903226 18.0967742 93.5032258 18.0967742"></polygon>
                <polygon id="Shape" fill="#000000" points="100.348387 19.916129 98.2258065 19.916129 98.2258065 6.81935484 106.858065 6.81935484 106.858065 8.62580645 100.348387 8.62580645 100.348387 12.716129 106.032258 12.716129 106.032258 14.5354839 100.348387 14.5354839"></polygon>
                <polygon id="Shape" fill="#000000" points="116.129032 19.916129 113.987097 19.916129 113.987097 8.65806452 110.116129 8.65806452 110.116129 6.81935484 120 6.81935484 120 8.65806452 116.129032 8.65806452"></polygon>
                <path d="M26.1225806,16.6516129 C25.0902005,22.1357373 20.303028,26.110147 14.7225806,26.116129 L14.6064516,26.116129 L14.6064516,28.3483871 L14.7225806,28.3483871 C21.5347095,28.3420177 27.3300448,23.3812326 28.3870968,16.6516129 L26.1225806,16.6516129 Z" id="Shape" fill="#8A0405"></path>
                <path d="M11.6645161,26.7548387 L13.4322581,24.483871 C7.92352995,24.1213263 3.54286369,19.720754 3.20529797,14.2104388 C2.86773225,8.7001236 6.67849292,3.79773878 12.1017751,2.76549161 C17.5250573,1.73324445 22.8703177,4.8929066 24.5806452,10.1419355 L26.3483871,7.87096774 C23.6769632,2.07330609 17.3031266,-1.05334198 11.083234,0.382736548 C4.86334129,1.81881508 0.50538376,7.42327101 0.646052406,13.8052455 C0.786721053,20.18722 5.38738807,25.594214 11.6645161,26.7548387 L11.6645161,26.7548387 Z" id="Shape" fill="#58595B"></path>
                <path d="M13.7419355,21.3290323 C10.701892,20.7990618 8.32036232,18.4201124 7.78709677,15.3806452 L6.24516129,17.2709677 C7.42412476,20.5265665 10.3113905,22.8597356 13.7419355,23.3290323 L13.7419355,21.3290323 Z" id="Shape" fill="#58595B"></path>
                <path d="M24.2709677,14.1290323 C24.2671297,9.49356273 20.8491211,5.56918248 16.2580645,4.92903226 L14.716129,6.82580645 L14.9806452,6.82580645 C17.1888449,6.82479645 19.2789354,7.82295032 20.6661669,9.54101201 C22.0533983,11.2590737 22.5887998,13.5125455 22.1225806,15.6709677 L24.1419355,15.6709677 C24.2276886,15.161464 24.2708486,14.645702 24.2709677,14.1290323 L24.2709677,14.1290323 Z" id="Shape" fill="#58595B"></path>
                <path d="M14.9806452,21.4322581 L14.6064516,21.4322581 L14.6064516,23.4193548 L14.9806452,23.4193548 C19.177518,23.4139815 22.8511489,20.5992931 23.9483871,16.5483871 L21.8774194,16.5483871 C20.8462276,19.4737409 18.0824269,21.4308945 14.9806452,21.4322581 L14.9806452,21.4322581 Z" id="Shape" fill="#8A0405"></path>
            </g>
        </g>
    </g>
</svg>