<?xml version="1.0" encoding="UTF-8" standalone="no"?>
<svg width="120px" height="47px" viewBox="0 0 120 47" version="1.1" xmlns="http://www.w3.org/2000/svg" xmlns:xlink="http://www.w3.org/1999/xlink">
    <!-- Generator: Sketch 46.2 (44496) - http://www.bohemiancoding.com/sketch -->
    <title>icn-echeck</title>
    <desc>Created with Sketch.</desc>
    <defs></defs>
    <g id="Page-1" stroke="none" stroke-width="1" fill="none" fill-rule="evenodd">
        <g id="Payment-Icons" transform="translate(-970.000000, -234.000000)" fill-rule="nonzero">
            <g id="icn-echeck" transform="translate(970.000000, 234.000000)">
                <path d="M16.006015,23.0796992 C16.0390498,24.716566 15.1826712,26.2428536 13.7684211,27.0676692 C12.8641609,27.6258237 11.8684095,28.019848 10.8270677,28.2315789 C9.43730001,28.5103478 8.02180846,28.6404037 6.60451128,28.6195489 L5.07969925,28.6195489 C5.03759398,28.8902256 5.00451128,29.1578947 4.98045113,29.4225564 C4.95639098,29.687218 4.95639098,29.9308271 4.98045113,30.1533835 C4.92275598,30.9339625 5.17569111,31.7057389 5.68421053,32.3007519 C6.31040608,32.8377421 7.12743125,33.0981485 7.94887218,33.0225564 C8.61442398,33.0274258 9.27897241,32.970033 9.93383459,32.8511278 C10.445309,32.7548275 10.9512893,32.6313442 11.4496241,32.481203 C11.8887218,32.3488722 12.2556391,32.2255639 12.5503759,32.1112782 C12.7531252,32.0195635 12.96952,31.961655 13.1909774,31.9398496 C13.3028518,31.9274925 13.4128468,31.9756154 13.4796992,32.0661654 C13.5394187,32.1958194 13.558299,32.3405685 13.5338346,32.481203 C13.5303436,32.7106909 13.512262,32.9397245 13.4796992,33.1669173 C13.4454436,33.4249725 13.3972529,33.6809857 13.3353383,33.9338346 C13.2764869,34.1773643 13.1980357,34.4157354 13.1007519,34.6466165 C13.0281197,34.8381199 12.9176514,35.013028 12.7759398,35.1609023 C12.560587,35.350902 12.3088806,35.4951728 12.0360902,35.5849624 C11.6159274,35.745212 11.1847281,35.8748733 10.7458647,35.9729323 C10.1859864,36.0992619 9.61976865,36.1956394 9.04962406,36.2616541 C8.41500117,36.3395327 7.77622558,36.378703 7.13684211,36.3789474 C6.18956835,36.3949672 5.24481347,36.2764931 4.33082707,36.0270677 C3.59098678,35.824166 2.90636672,35.4571849 2.32781955,34.9533835 C1.78188526,34.4610314 1.36649343,33.8410436 1.11879699,33.1488722 C0.832375557,32.2944794 0.695035291,31.3971897 0.712781955,30.4962406 C0.717045596,29.6500588 0.786423369,28.8054598 0.920300752,27.9699248 C1.05838345,27.048025 1.28499495,26.141579 1.59699248,25.2631579 C1.91091136,24.3841103 2.31613419,23.5404001 2.80601504,22.7458647 C3.29494728,21.9531895 3.90366121,21.2409942 4.61052632,20.6345865 C6.15089893,19.3011916 8.13157647,18.587376 10.1684211,18.6315789 C11.0584643,18.6131195 11.945486,18.7411432 12.793985,19.0105263 C13.4556245,19.2221487 14.0688894,19.5625108 14.5984962,20.0120301 C15.0487629,20.4037284 15.4062678,20.8906747 15.6451128,21.437594 C15.8761829,21.9546084 15.9990033,22.5134412 16.006015,23.0796992 Z M12.0631579,23.3413534 C12.0753183,22.8563131 11.8780792,22.3895139 11.5218045,22.0601504 C11.0758941,21.6896185 10.502702,21.5082696 9.92481203,21.5548872 C9.3904966,21.5440298 8.86138335,21.6616105 8.38195489,21.8977444 C7.92866857,22.1201839 7.52151968,22.4263109 7.18195489,22.8 C6.81547341,23.2169988 6.51154479,23.6850489 6.27969925,24.1894737 C6.02698489,24.7374862 5.82757032,25.308537 5.68421053,25.8947368 L7.12781955,25.8947368 C7.902565,25.9094573 8.67671955,25.8429284 9.43759398,25.6962406 C9.96360785,25.5960202 10.4695903,25.4100869 10.9353383,25.1458647 C11.2798147,24.9504618 11.5662577,24.6671323 11.7654135,24.324812 C11.9455366,24.0271362 12.0479234,23.6889496 12.0631579,23.3413534 L12.0631579,23.3413534 Z" id="Shape" fill="#048241"></path>
                <path d="M31.5789474,21.0315789 C31.5775587,21.2495834 31.5564197,21.4670137 31.5157895,21.681203 C31.4777932,21.8945121 31.4173052,22.1031955 31.3353383,22.3037594 C31.2653418,22.4803497 31.1679014,22.6447803 31.0466165,22.7909774 C30.9576558,22.912024 30.817831,22.9852655 30.6676692,22.9894737 C30.4727266,22.9744508 30.2913898,22.8837824 30.162406,22.7368421 C29.9466919,22.5295907 29.7176299,22.3366963 29.4766917,22.1593985 C29.1418898,21.919154 28.7781151,21.7221094 28.393985,21.5729323 C27.8590372,21.3813735 27.2927161,21.2925989 26.724812,21.3112782 C26.0342244,21.2981937 25.3514988,21.4595652 24.7398496,21.7804511 C24.1689106,22.089362 23.6608994,22.5025036 23.2421053,22.9984962 C22.8088696,23.5123386 22.4532167,24.0868549 22.1864662,24.7037594 C21.9129343,25.326448 21.6867295,25.9688694 21.5097744,26.6255639 C21.3401784,27.2416039 21.2135582,27.8686756 21.1308271,28.5022556 C21.0595774,29.0256881 21.0204065,29.5529882 21.0135338,30.081203 C20.9537494,31.0471458 21.2312022,32.0038799 21.7984962,32.7879699 C22.3988587,33.4296957 23.2594975,33.7619887 24.1353383,33.6902256 C24.7959918,33.7059419 25.4546436,33.6114132 26.0842105,33.4105263 C26.5675972,33.2511244 27.0308475,33.036152 27.4646617,32.7699248 C27.843609,32.5293233 28.1443609,32.3157895 28.3669173,32.1293233 C28.5475162,31.968296 28.7754518,31.8701571 29.0165414,31.8496241 C29.1084773,31.8502611 29.1922235,31.9026026 29.2330827,31.9849624 C29.2929326,32.1019647 29.3209381,32.232657 29.3142857,32.3639098 C29.3240372,32.5321897 29.3240372,32.700893 29.3142857,32.8691729 C29.2879335,33.0699684 29.2487556,33.2688713 29.1969925,33.4646617 C29.1489595,33.6617808 29.0856091,33.8548487 29.0075188,34.0421053 C28.9293128,34.2226598 28.8192933,34.3876891 28.6827068,34.5293233 C28.4619995,34.7387998 28.2165806,34.9205916 27.9518797,35.0706767 C27.5679732,35.3008344 27.1631641,35.4941761 26.7428571,35.6481203 C26.2612696,35.8319777 25.7666717,35.9797539 25.2631579,36.0902256 C24.7171312,36.2042366 24.1608101,36.2616828 23.6030075,36.2616541 C22.0648878,36.3826318 20.5455426,35.8598463 19.4075188,34.8180451 C18.3998796,33.6200811 17.9011477,32.0753076 18.0180451,30.5142857 C18.0225164,29.7260472 18.0828177,28.9391154 18.1984962,28.1593985 C18.3273143,27.2850932 18.5356982,26.4243769 18.8210526,25.5879699 C19.1150439,24.7159654 19.4895929,23.8732299 19.9398496,23.0706767 C20.3865298,22.2708504 20.9524162,21.5437168 21.6180451,20.9142857 C22.2897232,20.2797973 23.0687333,19.769622 23.918797,19.4075188 C24.8707686,19.014163 25.8934346,18.8206856 26.9233083,18.8390977 C27.3740045,18.8386173 27.8238659,18.877867 28.2676692,18.956391 C28.6779015,19.0277051 29.0820853,19.1302592 29.4766917,19.2631579 C29.8372208,19.3852802 30.1823809,19.5487771 30.5052632,19.7503759 C30.7571,19.9045325 30.9955333,20.0795849 31.2180451,20.2736842 C31.349982,20.3787949 31.4576945,20.5111274 31.5338346,20.6616541 C31.5725309,20.7809118 31.5878485,20.9065167 31.5789474,21.0315789 L31.5789474,21.0315789 Z" id="Shape" fill="#023F76"></path>
                <path d="M65.8646617,22.881203 C65.8754788,23.645794 65.6823905,24.3994614 65.3052632,25.0646617 C64.8819729,25.7624097 64.2810616,26.3352992 63.5639098,26.724812 C62.6141107,27.2387581 61.5872468,27.5952657 60.5233083,27.7804511 C59.0620712,28.0468612 57.5784175,28.1707508 56.0932331,28.1503759 L54.2706767,28.1503759 C54.2012757,28.5260356 54.1560699,28.9057644 54.1353383,29.287218 C54.1353383,29.6541353 54.1353383,29.993985 54.1353383,30.3067669 C54.0767301,31.2914897 54.3998737,32.2609205 55.037594,33.0135338 C55.803124,33.6914965 56.8171894,34.0186144 57.8345865,33.9157895 C58.5061151,33.920578 59.1766452,33.8631903 59.837594,33.7443609 C60.3576485,33.6502121 60.8725953,33.5297568 61.3804511,33.3834586 C61.8195489,33.2571429 62.1774436,33.1368421 62.4541353,33.0225564 C62.6365164,32.9356956 62.8313459,32.8778556 63.0315789,32.8511278 C63.1247597,32.8472005 63.2133989,32.8915201 63.2661654,32.9684211 C63.3247162,33.0662966 63.3529718,33.179319 63.3473684,33.2932331 C63.3571791,33.4344162 63.3571791,33.5761101 63.3473684,33.7172932 C63.3217166,33.887783 63.2855575,34.0565254 63.2390977,34.2225564 C63.1947094,34.3903729 63.1342807,34.5535304 63.0586466,34.7097744 C62.9914441,34.8494088 62.9065349,34.979805 62.806015,35.0977444 C62.5894505,35.2839111 62.3379268,35.4250097 62.0661654,35.512782 C61.6540539,35.6647895 61.2320133,35.7883871 60.8030075,35.8827068 C60.2727474,36.0008349 59.7366787,36.0911836 59.1969925,36.1533835 C58.6192349,36.2243308 58.0377352,36.2604862 57.4556391,36.2616541 C56.5411136,36.2758899 55.6293607,36.157362 54.7488722,35.9097744 C54.0234059,35.7065143 53.3558446,35.3356469 52.8,34.8270677 C52.2724444,34.3280117 51.8731644,33.7089729 51.6360902,33.0225564 C51.3631992,32.1933022 51.2320386,31.3239814 51.2481203,30.4511278 C51.2008201,29.6237319 51.2219445,28.7938427 51.3112782,27.9699248 C51.4585535,27.0843218 51.6881194,26.2143878 51.9969925,25.3714286 C52.3199165,24.5114642 52.7343261,23.6886949 53.2330827,22.9172932 C53.7289049,22.1376608 54.3369442,21.4353753 55.037594,20.8330827 C55.7514705,20.2213787 56.5626712,19.7334384 57.437594,19.3894737 C58.4154512,19.011192 59.4568911,18.8243454 60.5052632,18.8390977 C61.3504651,18.817794 62.1929768,18.9429497 62.9954887,19.2090226 C63.610452,19.4185636 64.1799645,19.7431244 64.6736842,20.1654135 C65.083161,20.5217419 65.4069869,20.965846 65.6210526,21.4646617 C65.7945444,21.9162482 65.8773251,22.3976025 65.8646617,22.881203 L65.8646617,22.881203 Z M62.9142857,23.1428571 C62.9437636,22.5701501 62.69927,22.0175276 62.2556391,21.6541353 C61.6761474,21.2488503 60.9765187,21.0516822 60.2706767,21.0947368 C59.582287,21.0821573 58.8992217,21.2175396 58.2676692,21.4917293 C57.6934952,21.7508619 57.1708256,22.1115344 56.724812,22.556391 C56.2652516,23.017125 55.8761076,23.5430775 55.5699248,24.1172932 C55.2483588,24.7149503 54.988376,25.343746 54.793985,25.993985 L56.5984962,25.993985 C57.6227366,26.0103327 58.646381,25.9348427 59.6571429,25.7684211 C60.3432962,25.6612241 61.0094051,25.4513542 61.6330827,25.1458647 C62.0582509,24.9470246 62.4203851,24.6348398 62.6796992,24.243609 C62.860187,23.9085746 62.9503612,23.5323305 62.9413534,23.1518797 L62.9142857,23.1428571 Z" id="Shape" fill="#023F76"></path>
                <path d="M81.7172932,21.0315789 C81.7159046,21.2495834 81.6947656,21.4670137 81.6541353,21.681203 C81.616139,21.8945121 81.5556511,22.1031955 81.4736842,22.3037594 C81.4036877,22.4803497 81.3062473,22.6447803 81.1849624,22.7909774 C81.0960016,22.912024 80.9561769,22.9852655 80.806015,22.9894737 C80.6110725,22.9744508 80.4297357,22.8837824 80.3007519,22.7368421 C80.0850378,22.5295907 79.8559757,22.3366963 79.6150376,22.1593985 C79.2802356,21.919154 78.916461,21.7221094 78.5323308,21.5729323 C77.997383,21.3813735 77.431062,21.2925989 76.8631579,21.3112782 C76.1725703,21.2981937 75.4898447,21.4595652 74.8781955,21.7804511 C74.3072565,22.089362 73.7992453,22.5025036 73.3804511,22.9984962 C72.9472155,23.5123386 72.5915626,24.0868549 72.324812,24.7037594 C72.0512801,25.326448 71.8250754,25.9688694 71.6481203,26.6255639 C71.4785243,27.2416039 71.351904,27.8686756 71.2691729,28.5022556 C71.1979232,29.0256881 71.1587524,29.5529882 71.1518797,30.081203 C71.0920952,31.0471458 71.3695481,32.0038799 71.9368421,32.7879699 C72.5372046,33.4296957 73.3978434,33.7619887 74.2736842,33.6902256 C74.9343377,33.7059419 75.5929895,33.6114132 76.2225564,33.4105263 C76.6996855,33.2734147 77.159758,33.0827268 77.593985,32.8421053 C77.9729323,32.6015038 78.2736842,32.3879699 78.4962406,32.2015038 C78.6768395,32.0404765 78.9047752,31.9423375 79.1458647,31.9218045 C79.2378006,31.9224416 79.3215468,31.974783 79.362406,32.0571429 C79.4222559,32.1741452 79.4502614,32.3048374 79.443609,32.4360902 C79.4533606,32.6043701 79.4533606,32.7730735 79.443609,32.9413534 C79.4172568,33.1421489 79.3780789,33.3410518 79.3263158,33.5368421 C79.2782828,33.7339612 79.2149324,33.9270291 79.1368421,34.1142857 C79.0586361,34.2948403 78.9486166,34.4598696 78.8120301,34.6015038 C78.5913229,34.8109803 78.3459039,34.9927721 78.081203,35.1428571 C77.6972965,35.3730149 77.2924874,35.5663565 76.8721805,35.7203008 C76.3871699,35.8984607 75.8895497,36.0402071 75.3834586,36.1443609 C74.8374319,36.2583719 74.2811108,36.3158181 73.7233083,36.3157895 C72.1851885,36.4367671 70.6658433,35.9139817 69.5278195,34.8721805 C68.5201803,33.6742165 68.0214484,32.129443 68.1383459,30.5684211 C68.1428171,29.7801825 68.2031184,28.9932507 68.318797,28.2135338 C68.447615,27.3392286 68.655999,26.4785123 68.9413534,25.6421053 C69.2353446,24.7701007 69.6098937,23.9273653 70.0601504,23.124812 C70.5068306,22.3249857 71.072717,21.5978521 71.7383459,20.9684211 C72.4100239,20.3339326 73.1890341,19.8237573 74.0390977,19.4616541 C74.9910693,19.0682983 76.0137354,18.8748209 77.043609,18.8932331 C77.4943053,18.8927526 77.9441667,18.9320023 78.3879699,19.0105263 C78.7982022,19.0818405 79.2023861,19.1843946 79.5969925,19.3172932 C79.9575216,19.4394155 80.3026816,19.6029124 80.6255639,19.8045113 C80.8774007,19.9586679 81.1158341,20.1337202 81.3383459,20.3278195 C81.4702827,20.4329303 81.5779952,20.5652628 81.6541353,20.7157895 C81.692557,20.8168211 81.713901,20.9235414 81.7172932,21.0315789 L81.7172932,21.0315789 Z" id="Shape" fill="#023F76"></path>
                <path d="M47.7654135,21.437594 C47.6276523,20.9360137 47.3812261,20.4708843 47.043609,20.075188 C46.6928053,19.6785725 46.2540334,19.3695782 45.762406,19.1729323 C45.1552772,18.940803 44.5083978,18.8304349 43.8586466,18.8481203 C43.1769038,18.8478896 42.500955,18.9732918 41.8646617,19.2180451 C41.2287455,19.4443911 40.6227768,19.7473755 40.0601504,20.1203008 C39.547698,20.4698951 39.0782872,20.8787368 38.6616541,21.3383459 C38.2966683,21.7163602 37.9923215,22.1485326 37.7593985,22.6195489 L37.993985,21.8796992 C38.0781955,21.5969925 38.1654135,21.2962406 38.2556391,20.9774436 C38.3458647,20.6586466 38.4300752,20.3578947 38.5082707,20.075188 C38.5864662,19.756391 38.6556391,19.4556391 38.7157895,19.1729323 L39.1669173,17.1428571 L39.1669173,17.1428571 L39.1669173,17.1428571 C39.3744361,15.9518797 39.7714286,11.4766917 39.0766917,11.4045113 C38.3819549,11.3323308 36.4601504,11.7834586 36.5052632,12.3067669 C36.589248,14.2291621 36.4499715,16.1548113 36.0902256,18.0451128 L32.6526316,35.512782 C32.626509,35.5887958 32.626509,35.6713546 32.6526316,35.7473684 C32.6934234,35.8252021 32.7605908,35.8859726 32.8421053,35.918797 C32.9742877,35.9753533 33.1141774,36.0118462 33.2571429,36.0270677 C33.4915041,36.0416036 33.726541,36.0416036 33.9609023,36.0270677 C34.1952836,36.0409417 34.4302803,36.0409417 34.6646617,36.0270677 C34.8219955,36.0105167 34.9766052,35.9741379 35.124812,35.918797 C35.2237861,35.8820067 35.3132129,35.8234167 35.3864662,35.7473684 C35.4471485,35.6806983 35.4905247,35.6001425 35.512782,35.512782 L36.9112782,28.475188 C37.280839,26.6059502 38.1190698,24.8611882 39.3473684,23.4045113 C39.8567462,22.8012138 40.4673897,22.2913265 41.1518797,21.8977444 C41.7248096,21.5525441 42.3779069,21.3628349 43.0466165,21.3473684 C43.3568739,21.3416209 43.6646913,21.4031844 43.9488722,21.5278195 C44.1900789,21.6377242 44.4007189,21.8049971 44.562406,22.0150376 C44.7259907,22.232322 44.8427348,22.4811711 44.9052632,22.7458647 C44.9765724,23.0413369 45.0129119,23.3441656 45.0135338,23.6481203 C45.0096911,23.9798182 44.98861,24.3110922 44.9503759,24.6406015 C44.9082707,25.0195489 44.8601504,25.362406 44.806015,25.6691729 L42.875188,35.512782 C42.8540637,35.5895508 42.8540637,35.6705996 42.875188,35.7473684 C42.9159798,35.8252021 42.9831472,35.8859726 43.0646617,35.918797 C43.1968441,35.9753533 43.3367338,36.0118462 43.4796992,36.0270677 C43.7216359,36.0643227 43.9657853,36.085422 44.2105263,36.0902256 C44.4479046,36.1045449 44.68593,36.1045449 44.9233083,36.0902256 C45.0804132,36.0723417 45.2348624,36.0360007 45.3834586,35.9819549 C45.4858083,35.9466816 45.5784985,35.8879778 45.6541353,35.8105263 C45.7148177,35.7438562 45.7581939,35.6633004 45.7804511,35.5759398 L47.7383459,25.6511278 C47.8225564,25.2421053 47.8857143,24.8360902 47.9278195,24.4330827 C47.9755579,24.0227772 47.9996578,23.6100656 48,23.1969925 C48.006363,22.6023245 47.9273624,22.0098203 47.7654135,21.437594 L47.7654135,21.437594 Z" id="Shape" fill="#023F76"></path>
                <path d="M98.1022556,19.362406 C98.0416446,19.2864736 97.960077,19.2300038 97.8676692,19.2 C97.7217587,19.1508002 97.5701509,19.1204787 97.4165414,19.1097744 C97.2240602,19.1097744 96.9894737,19.1097744 96.712782,19.1097744 C96.4360902,19.1097744 96.1954887,19.1097744 95.9909774,19.1097744 C95.8111856,19.1238127 95.6330228,19.1540098 95.4586466,19.2 C95.3176428,19.2388803 95.1836623,19.2997805 95.0616541,19.3804511 C94.9447224,19.4560983 94.8385055,19.5471413 94.7458647,19.6511278 L87.4646617,26.3007519 L89.2691729,17.1699248 L89.2691729,17.1699248 C89.4766917,15.9789474 89.8736842,11.5037594 89.1789474,11.4315789 C88.4842105,11.3593985 86.562406,11.8105263 86.6075188,12.3338346 C86.6936368,14.2772075 86.5543629,16.2240152 86.1924812,18.1353383 L86.1924812,18.1353383 L82.7548872,35.5308271 C82.7258819,35.6094399 82.7258819,35.6958232 82.7548872,35.7744361 C82.7978951,35.8539039 82.8685017,35.9148824 82.9533835,35.9458647 C83.0870278,35.9961956 83.2264652,36.0295393 83.3684211,36.0451128 C83.596771,36.0593421 83.8257854,36.0593421 84.0541353,36.0451128 C84.2885173,36.0589658 84.5235128,36.0589658 84.7578947,36.0451128 C84.9180414,36.0278477 85.07555,35.9914996 85.2270677,35.9368421 C85.3294173,35.9015688 85.4221076,35.842865 85.4977444,35.7654135 C85.5584267,35.6987434 85.6018029,35.6181877 85.6240602,35.5308271 L87.3473684,26.7338346 L92.3729323,35.512782 C92.4120459,35.6065083 92.4636402,35.694522 92.5263158,35.7744361 C92.5969897,35.8556123 92.6869775,35.9176729 92.7879699,35.9548872 C92.9329862,36.0088306 93.0848316,36.0422366 93.2390977,36.0541353 C93.4255639,36.0541353 93.681203,36.0541353 94.006015,36.0541353 C94.2583445,36.0716077 94.5115803,36.0716077 94.7639098,36.0541353 C94.9301021,36.0328942 95.093477,35.9935632 95.2511278,35.9368421 C95.3543644,35.904114 95.4434342,35.8373117 95.5037594,35.7473684 C95.5524027,35.6655602 95.5773899,35.5718582 95.5759398,35.4766917 C95.5682812,35.3595585 95.5439769,35.2441133 95.5037594,35.1338346 C95.4398861,34.9460749 95.3583165,34.7648091 95.2601504,34.5924812 L90.5684211,26.6075188 L97.443609,20.6616541 C97.6615893,20.4731907 97.8582526,20.2613994 98.0300752,20.0300752 C98.1197998,19.8997003 98.1699316,19.7461718 98.1744361,19.5879699 C98.1757446,19.5069036 98.1503842,19.4276524 98.1022556,19.362406 L98.1022556,19.362406 Z" id="Shape" fill="#023F76"></path>
                <path d="M70.0511278,0.0541353383 C94.6195489,3.0406015 112.457143,11.7834586 112.457143,22.1774436 C112.457143,34.9984962 85.2090226,45.3924812 51.5909774,45.3924812 C42.8197229,45.4230774 34.0632208,44.671226 25.4255639,43.1458647 C36.1910659,45.6935166 47.2231457,46.9415169 58.2857143,46.8631579 C91.9578947,46.8631579 119.26015,36.2887218 119.26015,23.2330827 C119.26015,11.7293233 98.0932331,2.17443609 70.0511278,0.0541353383 Z" id="Shape" fill="#048241"></path>
            </g>
        </g>
    </g>
</svg>