<?xml version="1.0" encoding="UTF-8" standalone="no"?>
<svg width="120px" height="51px" viewBox="0 0 120 51" version="1.1" xmlns="http://www.w3.org/2000/svg" xmlns:xlink="http://www.w3.org/1999/xlink">
    <!-- Generator: Sketch 46.2 (44496) - http://www.bohemiancoding.com/sketch -->
    <title>icn-eco</title>
    <desc>Created with Sketch.</desc>
    <defs></defs>
    <g id="Page-1" stroke="none" stroke-width="1" fill="none" fill-rule="evenodd">
        <g id="Payment-Icons" transform="translate(-482.000000, -921.000000)" fill-rule="nonzero">
            <g id="icn-eco" transform="translate(482.000000, 921.000000)">
                <path d="M46.4025478,0 C20.750828,0 0,12.1551592 0,27.244586 C0,33.6366879 3.75363057,39.5044586 10.1143949,44.2196178 C6.98598726,40.3429299 5.21350318,36.0466242 5.21350318,31.435414 C5.21350318,15.8224204 25.5470064,3.14292994 50.5727389,3.14292994 C66.7352866,3.14292994 80.9166879,8.38242038 88.9459873,16.3459873 C81.7513376,6.70624204 65.3801274,0 46.4025478,0 Z" id="XMLID_590_" fill="#8CC23C"></path>
                <path d="M42.3217834,34.9452229 C44.2081529,34.9452229 45.726879,34.5477707 46.8779618,33.7528662 C48.2124841,32.8738854 48.8797452,31.5982166 48.8797452,29.9243312 C48.8797452,26.8287898 47.8670064,23.9625478 45.842293,21.3263694 C43.8168153,18.6901911 41.2165605,16.7036943 38.0415287,15.364586 C35.8326115,14.4450955 33.3699363,13.9842038 30.6550318,13.9842038 C25.1778344,13.9842038 20.6797452,15.7628025 17.1584713,19.3184713 C13.6379618,22.8749045 11.877707,27.1635669 11.877707,32.1836943 C11.877707,37.2466242 13.7182166,41.5031847 17.4007643,44.9549045 C21.0825478,48.4066242 25.684586,50.1324841 31.2076433,50.1324841 C34.1526115,50.1324841 36.9829299,49.7136306 39.6985987,48.8774522 C42.9194904,47.9151592 45.2667516,46.5141401 46.7403822,44.6728662 C47.5689172,43.668535 47.9831847,42.6642038 47.9831847,41.6606369 C47.9831847,39.0244586 46.5095541,37.7067516 43.564586,37.7067516 C42.9194904,37.7067516 41.2624204,38.2616561 38.5941401,39.3699363 C35.9243312,40.4789809 33.6466242,41.033121 31.7594904,41.033121 C29.503949,41.033121 27.5938854,40.5103185 26.0292994,39.463949 C24.463949,38.4183439 23.5666242,36.9126115 23.3373248,34.9452229 L42.3217834,34.9452229 Z M25.7533758,23.9312102 C27.0878981,22.8229299 28.7442038,22.2680255 30.7238217,22.2680255 C32.6568153,22.2680255 34.3016561,22.8328662 35.6598726,23.9625478 C37.0165605,25.0922293 37.7656051,26.5352866 37.9031847,28.2924841 L23.1989809,28.2924841 C23.5673885,26.4947771 24.4180892,25.0402548 25.7533758,23.9312102 Z" id="XMLID_587_" fill="#033564"></path>
                <path d="M55.0922293,44.8608917 C58.4973248,48.3340127 63.0076433,50.0698089 68.6231847,50.0698089 C71.9824204,50.0698089 74.7898089,49.5676433 77.0453503,48.5633121 C80.1745223,47.1416561 81.7398726,45.4050955 81.7398726,43.3543949 C81.7398726,42.1414013 81.3363057,41.1057325 80.531465,40.2481529 C79.7258599,39.3913376 78.6787261,38.9617834 77.390828,38.9617834 C76.5156688,38.9617834 75.4112102,39.2124841 74.0774522,39.7146497 C72.7421656,40.2168153 71.2922293,40.4675159 69.7284076,40.4675159 C67.0585987,40.4675159 64.9880255,39.6313376 63.5151592,37.9574522 C62.2264968,36.4509554 61.5821656,34.4430573 61.5821656,31.9329936 C61.5821656,29.5482803 62.2035669,27.5610191 63.4463694,25.9712102 C64.8267516,24.2140127 66.7826752,23.3350318 69.3141401,23.3350318 C70.8779618,23.3350318 72.362293,23.5971975 73.7671338,24.1192357 C75.1704459,24.6428025 76.3092994,24.9034395 77.1844586,24.9034395 C78.5189809,24.9034395 79.6234395,24.4853503 80.4978344,23.6484076 C81.371465,22.8122293 81.8094268,21.7872611 81.8094268,20.5735032 C81.8094268,18.230828 80.2907006,16.4736306 77.2532484,15.3019108 C74.997707,14.4657325 72.3515924,14.046879 69.3141401,14.046879 C63.5151592,14.046879 58.8664968,15.731465 55.3689172,19.0991083 C51.8705732,22.4675159 50.1225478,26.8089172 50.1225478,32.1217834 C50.1217834,37.2672611 51.7788535,41.5146497 55.0922293,44.8608917 L55.0922293,44.8608917 Z" id="XMLID_585_" fill="#033564"></path>
                <path d="M87.2621656,44.9243312 C90.8522293,48.4807643 95.4313376,50.2585987 101.000255,50.2585987 C106.615032,50.2585987 111.193376,48.5014013 114.738344,44.9870064 C118.143439,41.5566879 119.847134,37.2680255 119.847134,32.1217834 C119.847134,26.9342675 118.121274,22.6043312 114.669554,19.1304459 C111.217834,15.6580892 106.661656,13.9215287 101.001019,13.9215287 C95.4321019,13.9215287 90.8873885,15.6687898 87.366879,19.1617834 C83.8463694,22.6555414 82.0853503,26.9755414 82.0853503,32.1217834 C82.084586,37.2259873 83.8104459,41.4940127 87.2621656,44.9243312 L87.2621656,44.9243312 Z M95.3388535,26.2219108 C96.6733758,24.4234395 98.5597452,23.5230573 100.99949,23.5230573 C103.391847,23.5230573 105.256051,24.4440764 106.591338,26.284586 C107.787516,27.8751592 108.385987,29.7989809 108.385987,32.0583439 C108.385987,34.4017834 107.809682,36.3477707 106.660127,37.8947771 C105.324841,39.736051 103.438471,40.6563057 100.99949,40.6563057 C98.6056051,40.6563057 96.7421656,39.7368153 95.4076433,37.8947771 C94.2099363,36.3049682 93.6129936,34.3597452 93.6129936,32.0583439 C93.6129936,29.757707 94.1877707,27.8124841 95.3388535,26.2219108 L95.3388535,26.2219108 Z" id="XMLID_582_" fill="#033564"></path>
            </g>
        </g>
    </g>
</svg>