<?xml version="1.0" encoding="UTF-8" standalone="no"?>
<svg width="120px" height="29px" viewBox="0 0 120 29" version="1.1" xmlns="http://www.w3.org/2000/svg" xmlns:xlink="http://www.w3.org/1999/xlink">
    <!-- Generator: Sketch 46.2 (44496) - http://www.bohemiancoding.com/sketch -->
    <title>icn-ecopayz</title>
    <desc>Created with Sketch.</desc>
    <defs></defs>
    <g id="Page-1" stroke="none" stroke-width="1" fill="none" fill-rule="evenodd">
        <g id="Payment-Icons" transform="translate(-33.000000, -934.000000)" fill-rule="nonzero">
            <g id="icn-ecopayz" transform="translate(33.000000, 934.000000)">
                <path d="M20.6379603,0 C9.22912181,0 0,5.40611898 0,12.1172805 C0,14.9602266 1.66946176,17.5699717 4.49847025,19.6670822 C3.10708215,17.9428895 2.31875354,16.032068 2.31875354,13.9815297 C2.31875354,7.03750708 11.3622663,1.39818697 22.4926912,1.39818697 C29.6811331,1.39818697 35.9884419,3.72849858 39.5595467,7.27036827 C36.3596601,2.98266289 29.0784136,0 20.6379603,0 Z" id="XMLID_544_" fill="#8CC23C"></path>
                <path d="M18.8230028,15.5422096 C19.661983,15.5422096 20.3374504,15.3654391 20.8494051,15.011898 C21.4429462,14.6209632 21.7397167,14.0535977 21.7397167,13.3091218 C21.7397167,11.9323513 21.2892918,10.6575637 20.3887819,9.48509915 C19.487932,8.31263456 18.3314448,7.42912181 16.9193201,6.83354108 C15.9368839,6.42458924 14.8415864,6.2196034 13.6341076,6.2196034 C11.1980737,6.2196034 9.19750708,7.01065156 7.6313881,8.59206799 C6.06560907,10.1738244 5.2823796,12.0812465 5.2823796,14.3139943 C5.2823796,16.565779 6.10096317,18.4589235 7.7388102,19.9941076 C9.37631728,21.5292918 11.4231161,22.2968839 13.8795467,22.2968839 C15.1893484,22.2968839 16.4481586,22.1105949 17.6559773,21.7386969 C19.0884986,21.3107082 20.1324646,20.6875921 20.7878754,19.8686686 C21.1563739,19.421983 21.3406232,18.9756374 21.3406232,18.5289518 C21.3406232,17.3564873 20.6852125,16.7704249 19.3754108,16.7704249 C19.0884986,16.7704249 18.3515014,17.0172238 17.1647592,17.5101416 C15.9773371,18.0033994 14.9643059,18.2498584 14.1249858,18.2498584 C13.121813,18.2498584 12.2722946,18.0173371 11.5764306,17.5519547 C10.8802266,17.0869122 10.4811331,16.4172238 10.3791501,15.5422096 L18.8230028,15.5422096 Z M11.454051,10.6436261 C12.0475921,10.1507082 12.7842493,9.90390935 13.6647025,9.90390935 C14.5244193,9.90390935 15.2559773,10.1551275 15.8600567,10.6575637 C16.4634561,11.16 16.7966006,11.802153 16.8577904,12.5836827 L10.3179603,12.5836827 C10.481813,11.783796 10.86017,11.1368839 11.454051,10.6436261 Z" id="XMLID_205_" fill="#033564"></path>
                <path d="M24.5027762,19.9526346 C26.0172238,21.4973371 28.0232295,22.2693484 30.5207932,22.2693484 C32.0148442,22.2693484 33.2634561,22.0460057 34.2666289,21.5993201 C35.6583569,20.9670255 36.3545609,20.1946742 36.3545609,19.2826062 C36.3545609,18.7431161 36.1750708,18.2824929 35.8171105,17.9010765 C35.4588102,17.52 34.9930878,17.3289518 34.4202833,17.3289518 C34.0310482,17.3289518 33.53983,17.4407932 32.9466289,17.663796 C32.3527479,17.8871388 31.7078754,17.9986402 31.0123513,17.9986402 C29.8249292,17.9986402 28.9040227,17.6267422 28.2489518,16.8822663 C27.6754674,16.212238 27.3892351,15.3192068 27.3892351,14.2028329 C27.3892351,13.1422096 27.6656091,12.2583569 28.2183569,11.5512748 C28.8322946,10.769745 29.7022096,10.3788102 30.828102,10.3788102 C31.5236261,10.3788102 32.183796,10.4954108 32.8086119,10.7275921 C33.4327479,10.9604533 33.9392635,11.0763739 34.3284986,11.0763739 C34.9220397,11.0763739 35.4132578,10.8904249 35.802153,10.518187 C36.1907082,10.146289 36.3854958,9.69042493 36.3854958,9.1505949 C36.3854958,8.10866856 35.7100283,7.32713881 34.3590935,6.80600567 C33.3559207,6.43410765 32.1790368,6.2478187 30.828102,6.2478187 C28.2489518,6.2478187 26.1814164,6.99705382 24.6258357,8.49484419 C23.069915,9.9929745 22.2924646,11.9238527 22.2924646,14.2867989 C22.2921246,16.5749575 23.0291218,18.4640227 24.5027762,19.9526346 L24.5027762,19.9526346 Z" id="XMLID_203_" fill="#033564"></path>
                <path d="M38.8106516,19.9805099 C40.4073654,21.5622663 42.443966,22.3529745 44.9207932,22.3529745 C47.418017,22.3529745 49.4542776,21.5714448 51.0309348,20.0083853 C52.5453824,18.4827195 53.3031161,16.5752975 53.3031161,14.2864589 C53.3031161,11.9792635 52.5355241,10.0534844 51.0003399,8.50844193 C49.4651558,6.96407932 47.4387535,6.19172805 44.9211331,6.19172805 C42.4443059,6.19172805 40.4230028,6.96883853 38.8572238,8.5223796 C37.2914448,10.0762606 36.5082153,11.9976204 36.5082153,14.2864589 C36.5078754,16.5566006 37.2754674,18.4548442 38.8106516,19.9805099 L38.8106516,19.9805099 Z M42.4028329,11.6624363 C42.9963739,10.8625496 43.8353541,10.4620963 44.9204533,10.4620963 C45.9844759,10.4620963 46.8135977,10.871728 47.4074788,11.6903116 C47.9394901,12.3977337 48.2056657,13.2533711 48.2056657,14.2582436 C48.2056657,15.3005099 47.9493484,16.1660057 47.4380737,16.854051 C46.8441926,17.6729745 46.0052125,18.0822663 44.9204533,18.0822663 C43.8557507,18.0822663 43.0269688,17.6733144 42.4334278,16.854051 C41.9010765,16.1469688 41.6352408,15.281813 41.6352408,14.2582436 C41.6352408,13.2350142 41.8908782,12.3698584 42.4028329,11.6624363 L42.4028329,11.6624363 Z" id="XMLID_200_" fill="#033564"></path>
                <path d="M60.2726346,5.8007932 L62.4832861,5.8007932 C64.8166572,5.8007932 65.9833428,6.68498584 65.9833428,8.45235127 C65.9833428,10.2574504 64.8166572,11.16 62.4832861,11.16 L60.2726346,11.16 L60.2726346,5.8007932 L60.2726346,5.8007932 Z M60.2726346,18.8495184 L60.2726346,15.3749575 L63.7115014,15.3749575 C66.1264589,15.3749575 68.0301416,14.7705382 69.4225496,13.5606799 C70.8142776,12.3511615 71.5104816,10.6487252 71.5104816,8.45269122 C71.5104816,6.23830028 70.7428895,4.51716714 69.2077054,3.28895184 C67.7541076,2.11648725 65.7888952,1.53042493 63.3124079,1.53042493 L58.7068555,1.53042493 C57.3759773,1.53042493 56.4550708,1.77212465 55.9434561,2.25518414 C55.4315014,2.73824363 55.175864,3.58402266 55.175864,4.79184136 L55.175864,18.8406799 C55.175864,21.0336544 56.0250425,22.1299717 57.7244193,22.1299717 C59.4227762,22.1296317 60.2726346,21.0363739 60.2726346,18.8495184 L60.2726346,18.8495184 Z" id="XMLID_197_" fill="#8CC23C"></path>
                <path d="M77.7144476,11.7460623 C78.3049292,10.9832295 79.1095751,10.601813 80.1287252,10.601813 C81.1672521,10.601813 81.971898,10.9835694 82.5423229,11.7460623 C83.0311615,12.4160907 83.2759207,13.2441926 83.2759207,14.2303683 C83.2759207,15.2168839 83.0311615,16.0541643 82.5423229,16.7425496 C81.971898,17.5240793 81.1672521,17.9150142 80.1287252,17.9150142 C79.0895184,17.9150142 78.2743343,17.5244193 77.6838527,16.7425496 C77.1742776,16.0545042 76.92,15.2168839 76.92,14.2303683 C76.92,13.2632295 77.1848159,12.4347875 77.7144476,11.7460623 L77.7144476,11.7460623 Z M85.8547309,22.1296317 C87.492238,22.1296317 88.3111615,21.030255 88.3111615,18.8301416 L88.3111615,9.74209632 C88.3111615,7.56135977 87.492238,6.47082153 85.8547309,6.47082153 C84.8515581,6.47082153 84.0632295,6.94538244 83.4904249,7.89450425 C82.4872521,6.81552408 81.1570538,6.27569405 79.4988102,6.27569405 C77.2266289,6.27569405 75.353881,7.1129745 73.8798867,8.78787535 C72.4874788,10.3509348 71.7919547,12.1839093 71.7919547,14.2867989 C71.7919547,16.3709915 72.4568839,18.1852691 73.787762,19.7296317 C75.2410198,21.4045326 77.0831728,22.241813 79.3145609,22.241813 C81.0747875,22.241813 82.4665156,21.6744476 83.4904249,20.5390368 C83.9816431,21.5993201 84.7696317,22.1296317 85.8547309,22.1296317 L85.8547309,22.1296317 Z" id="XMLID_171_" fill="#8CC23C"></path>
                <path d="M99.8247025,8.2572238 L96.7849292,15.4585836 L93.96,8.6478187 C93.6530312,7.88498584 93.3766572,7.3733711 93.1308782,7.11263456 C92.7212465,6.68464589 92.1583003,6.47082153 91.4420397,6.47082153 C90.7458357,6.47082153 90.167932,6.68498584 89.7073088,7.11263456 C89.2466856,7.54062323 89.0165439,8.07025496 89.0165439,8.70288952 C89.0165439,9.14957507 89.1086686,9.56804533 89.2929178,9.95898017 L94.2955241,20.5900283 L92.2507649,24.6339943 C91.9774504,25.2074788 91.8411331,25.7163739 91.8411331,26.1610198 C91.8411331,26.8273088 92.0661756,27.3549008 92.5166006,27.743796 C92.9666856,28.1320113 93.5605666,28.3264589 94.2975637,28.3264589 C95.1773371,28.3264589 95.904136,27.7213598 96.4776204,26.5121813 L104.061416,10.1833428 C104.327252,9.60679887 104.46051,9.08566572 104.46051,8.62028329 C104.46051,7.1874221 103.641586,6.47116147 102.004079,6.47116147 C101.063116,6.47082153 100.336317,7.06640227 99.8247025,8.2572238 L99.8247025,8.2572238 Z" id="XMLID_169_" fill="#8CC23C"></path>
                <path d="M116.659717,17.7195467 L111.757054,17.7195467 L118.347195,10.0194901 C119.018924,9.23694051 119.354788,8.57575071 119.354788,8.03558074 C119.354788,7.43932011 119.09847,7.061983 118.587195,6.90390935 C118.075241,6.74549575 117.287252,6.66628895 116.22289,6.66628895 L108.270595,6.66628895 C106.161926,6.66628895 105.108102,7.34583569 105.108102,8.70390935 C105.108102,10.0813598 106.152068,10.7694051 108.24,10.7694051 L112.507649,10.7694051 L105.691785,18.78017 C105.200567,19.3570538 104.954788,19.9342776 104.954788,20.5108215 C104.954788,21.4415864 105.824703,21.906289 107.564533,21.906289 L116.622323,21.906289 C118.710255,21.906289 119.754221,21.2182436 119.754221,19.8407932 C119.754221,18.4269688 118.722833,17.7195467 116.659717,17.7195467 L116.659717,17.7195467 Z" id="XMLID_167_" fill="#8CC23C"></path>
            </g>
        </g>
    </g>
</svg>