<?xml version="1.0" encoding="iso-8859-1"?>
<!-- Generator: Adobe Illustrator 19.0.0, SVG Export Plug-In . SVG Version: 6.00 Build 0)  -->
<svg version="1.1" xmlns="http://www.w3.org/2000/svg" xmlns:xlink="http://www.w3.org/1999/xlink" x="2000px" y="0px"
	 viewBox="0 0 1852.717 1037.748" style="enable-background:new 0 0 1852.717 1037.748;" xml:space="preserve">
<g id="eKonto">
	<path id="XMLID_845_" style="fill:#F39A01;" d="M1544.12,331.458c-33.863-2.625-67.621-6.011-101.536-8.426
		c-14.149-1.916-28.351-1.706-42.368-4.515c-3.229-18.034-6.064-35.438-13.598-52.238c-14.018-31.737-36.147-60.087-63.053-81.954
		c-37.591-32.104-84.027-54.863-130.517-70.955c-29.689-9.844-60.717-17.325-91.85-20.318c-18.506-0.971-36.698-0.341-54.916-4.436
		c5.565-23.127,17.299-44.836,22.182-68.225c1.103-7.691,1.628-16.092-6.484-20.16c-14.805-1.549-26.828,4.909-38.352,13.388
		c-17.063,13.256-31.894,29.742-45.02,46.883c-37.381,49.167-67.306,105.054-95,160.049
		c-16.984,32.787-32.419,66.282-47.198,100.093c-3.124,6.563-5.276,12.626-13.178,14.333
		c-77.806,17.693-154.431,39.139-227.25,72.294c-11.052,5.801-24.045,11.944-32.236,21.604c-5.145,6.878-0.84,14.779,5.88,18.559
		c13.913,7.796,33.128,7.875,48.642,7.429c44.599-3.386,89.304-6.773,133.903-10.08c13.965-0.604,27.563-3.229,41.607-2.415
		c-0.315,10.211-2.152,19.662-5.04,29.4c-13.046,51.451-19.583,105.815-28.954,158.631c-1.496,8.978-3.098,17.929-5.618,26.67
		c-34.178-8.505-67.7-21.657-98.912-37.984c-17.483-8.164-32.813-18.953-48.432-30.319c-33.076-25.201-60.665-56.622-73.291-96.917
		c-8.269-23.31-6.589-45.492-6.379-69.721c-0.079-24.518,8.269-49.482,17.378-72.005c15.908-35.202,40.189-67.043,69.091-92.559
		c44.206-40.478,100.145-70.561,154.799-94.37c19.504-8.899,39.901-15.96,60.061-23.389c16.984-6.195,34.755-10.448,51.267-17.772
		c0.131-3.36,0.315-6.694,0.551-10.028c-5.985-0.525-11.944-0.919-17.955-0.577c-55.205,4.489-108.178,17.036-161.073,33.049
		c-36.173,11.235-71.585,25.043-105.842,41.239c-39.743,17.982-77.019,41.161-110.54,69.117
		c-36.961,31.684-68.225,69.695-82.348,117.024c-13.073,41.607-10.973,87.807,4.279,128.522
		c16.958,43.943,48.694,77.78,86.81,104.477c61.058,41.922,133.037,62.397,206.092,69.984c17.378,1.444,34.651,0.446,51.95,3.071
		c-0.42,17.955-5.775,34.572-3.701,52.685c2.31,1.391,4.62,2.835,6.878,4.279c8.978-12.863,12.338-26.723,18.454-41.371
		c32.472-77.124,64.471-154.641,98.124-231.319c4.778-9.503,7.928-21,14.7-29.217c3.754-1.706,8.164-2.205,12.206-2.94
		c105.947-13.992,211.683-28.298,317.735-41.712c16.958-2.1,33.286-5.513,50.506-4.436c-1.103,10.448-4.961,19.793-9.87,28.954
		c-15.776,30.398-37.118,58.171-62.66,81.009c-69.616,63.894-158.421,108.021-246.308,140.86c-11.97,4.384-24.57,7.56-36.147,12.889
		c-1.129,3.045-1.444,6.458-1.995,9.634c14.936,1.444,29.322-0.866,43.969-3.465c79.906-12.18,162.543-29.899,237.146-61.557
		c24.675-11.104,49.036-23.337,72.005-37.669c51.635-33.338,95.84-79.276,121.592-135.531c7.639-16.144,12.18-33.233,18.244-49.981
		c8.558-2.048,17.063-3.623,25.804-4.856c37.249-5.355,74.446-10.973,111.669-16.538c13.676-1.864,27.012-3.045,39.848-8.61
		C1570.344,330.933,1555.933,332.429,1544.12,331.458z M1211.423,308.542c-54.05-0.315-108.677-1.103-162.753,0.21
		c-20.974,1.68-41.948,1.286-62.87,3.911c-14.228,0.656-28.167,3.255-42.421,3.203c2.494-8.899,5.617-17.22,9.581-25.542
		c18.769-40.531,36.829-81.403,55.231-122.117c3.202-6.746,5.749-14.543,10.5-20.397c9.949-4.856,23.442-3.071,34.204-2.231
		c48.038,6.51,94.633,25.83,133.746,54.391c21.709,17.089,43.103,37.276,57.331,61.19c8.978,15.015,18.454,30.162,19.845,48.091
		C1245.994,311.797,1229.194,308.384,1211.423,308.542z"/>
	<path id="XMLID_835_" style="fill:#051E55;" d="M1511.386,697.126c-4.594,30.739-12.6,61.006-16.8,91.798
		c17.509,0.682,35.018,0.105,52.553,0.368c-4.331,22.995-8.4,46.148-13.65,68.96c-17.693,0.472-35.386-0.263-53.105,0.446
		c-4.568,22.759-8.767,45.544-13.361,68.304c-1.286,10.159-2.599,23.494,7.534,29.716c11.025,6.563,28.219,1.732,40.084-0.236
		c-4.174,22.785-8.584,45.518-13.151,68.225c-31.212,10.421-65.626,14.516-98.439,12.495c-21.552-1.785-44.206-10.369-53.577-31.396
		c-11.419-25.883-4.856-51.661,0.105-78.121c4.174-22.969,9.503-45.807,12.889-68.907c-13.65-0.63-27.248-0.263-40.898-0.472
		c4.384-22.917,8.138-46.07,13.703-68.724c13.624-0.578,27.248-0.184,40.872-0.578c4.594-18.638,7.088-37.643,11.603-56.281
		C1428.855,720.489,1470.147,708.86,1511.386,697.126z M376.213,706.052c39.953,0.052,80.038-0.131,119.964,0.157
		c-7.56,42.578-17.273,84.894-24.072,127.577c13.414-13.283,24.045-29.348,36.357-43.681c22.287-27.825,44.652-55.703,66.86-83.581
		c47.618-1.05,95.315-0.131,142.933-0.499c-46.463,50.768-93.136,101.694-139.363,152.725c4.226,10.028,9.214,19.688,14.28,29.348
		c23.757,48.065,48.274,95.945,71.637,144.22c-49.587,0.079-99.227,0.184-148.814,0c-13.256-32.787-25.935-65.81-39.034-98.675
		c-5.434-13.23-9.975-26.618-16.433-39.454c-4.2,14.123-6.274,29.243-9.188,43.838c-6.248,31.395-12.154,62.87-18.507,94.265
		c-41.423,0.262-82.899,0.131-124.322,0c1.811-12.968,4.463-25.778,7.114-38.614c18.139-94.108,36.541-187.848,54.601-281.877
		C371.094,708.073,371.961,705.999,376.213,706.052z M1219.271,783.779c19.215-1.365,41.607,0.525,58.538,10.526
		c12.128,7.009,19.242,19.399,21.63,32.918c3.465,17.325-1.417,36.646-4.725,53.787c-9.608,50.269-19.767,100.487-29.007,150.808
		c-39.087,1.208-78.305,0.473-117.418,0.368c8.689-48.143,18.533-96.103,27.773-144.167c1.208-7.271,2.258-15.829-0.525-22.838
		c-6.668-8.82-21.447-8.374-29.637-2.074c-9.03,7.219-10.71,18.375-13.099,28.98c-9.004,46.752-18.192,93.451-27.09,140.177
		c-39.113,0.105-78.252,0.394-117.339-0.052c15.619-80.983,31.107-162.018,47.303-242.843c36.724-0.341,73.475-0.079,110.225-0.131
		c-1.89,13.283-4.988,26.303-6.458,39.638c6.641-7.481,13.125-15.75,20.79-22.208
		C1177.008,793.072,1197.694,785.065,1219.271,783.779z M208.762,934.509c20.37-0.368,40.924,0.919,61.242-0.866
		c5.145-26.093,9.135-54.207,3.859-80.51c-3.728-20.869-14.831-41.922-33.285-53.288c-24.439-16.538-58.328-18.454-86.915-16.459
		c-37.774,1.706-78.988,11.891-107.915,37.512c-26.303,22.418-39.874,55.94-44.39,89.593c-2.651,25.437-2.52,50.532,10.684,73.265
		c10.684,18.848,28.377,30.897,48.379,38.247c25.41,9.188,53.288,10.894,80.09,9.923c32.367-0.551,65.679-3.964,96.733-13.466
		c3.99-20.108,7.377-40.347,11.078-60.507c-26.014,10.789-53.525,14.307-81.507,14.385c-15.33-0.262-35.701-0.971-48.038-11.288
		c-8.348-6.825-9.266-15.96-9.608-26.04C142.322,933.852,175.581,934.85,208.762,934.509z M139.54,843.814
		c9.949-6.983,26.487-9.24,35.281,0.761c8.19,10.631,5.539,26.907,4.174,39.297c-19.95,0.472-40.006,0.472-59.956-0.053
		C122.162,868.541,126.309,853.5,139.54,843.814z M1841.117,829.481c-11.629-20.37-33.968-32.524-55.913-38.693
		c-31.343-8.453-65.521-8.663-97.625-5.644c-35.49,4.069-70.325,15.068-97.179,39.481c-28.062,25.41-41.922,61.846-45.676,98.859
		c-2.205,24.098-0.315,47.855,12.941,68.697c11.156,17.981,28.56,28.744,48.012,35.911c22.89,8.111,46.358,10.001,70.482,9.555
		c39.691,0.131,80.667-8.899,113.402-32.209c32.419-23.284,52.107-58.801,59.825-97.494
		C1854.505,882.769,1855.109,852.082,1841.117,829.481z M1725.038,901.328c-3.308,16.512-6.694,34.021-14.123,49.22
		c-6.037,11.419-17.404,20.134-30.897,16.249c-8.951-2.704-11.183-11.471-11.681-19.793c-0.761-19.163,4.016-38.798,8.216-57.383
		c3.911-14.07,9.319-30.424,24.833-35.123c9.371-2.678,20.239-0.368,24.019,9.555
		C1729.238,875.498,1726.823,889.594,1725.038,901.328z M983.621,860.561c-2.468-21.604-14.28-42.421-32.603-54.443
		c-19.819-13.414-42.158-18.323-65.573-21.263c-22.234-2.126-44.521-1.89-66.755,0.367c-38.772,4.541-77.859,18.139-104.66,47.723
		c-22.103,23.94-32.472,54.05-36.882,85.865c-3.596,27.72-0.814,56.176,16.459,79.093c19.163,24.938,51.976,35.281,82.085,38.562
		c42.394,3.386,84.999,0.945,123.771-18.087c32.839-15.619,58.906-43.707,71.952-77.649
		C981.653,915.267,986.483,887.967,983.621,860.561z M855.887,906.447c-3.413,16.721-7.088,36.961-17.509,50.873
		c-6.72,9.266-20.213,13.781-30.372,7.534c-7.14-4.305-8.085-15.304-8.006-22.785c0.656-18.848,4.856-37.722,9.476-55.94
		c3.412-11.655,9.503-26.828,22.103-31.002c9.056-3.544,21.368-1.733,25.463,8.164C862.24,876.207,858.25,893.138,855.887,906.447z"
		/>
</g>
<g id="&#x421;&#x43B;&#x43E;&#x439;_1">
</g><a href="http://www.slotsup.com/casino-deposit-methods" target="_blank"></a>
</svg>
