<?xml version="1.0" encoding="utf-8"?>
<!-- Generator: Adobe Illustrator 22.1.0, SVG Export Plug-In . SVG Version: 6.00 Build 0)  -->
<svg version="1.1" id="Layer_1" xmlns="http://www.w3.org/2000/svg" xmlns:xlink="http://www.w3.org/1999/xlink" x="0px" y="0px"
	 width="128px" height="23.6px" viewBox="0 0 128 23.6" enable-background="new 0 0 128 23.6" xml:space="preserve">
<g>
	<path fill="#636467" d="M47.4,7.6c-3,0-5.3,2.4-5.3,5.7v0c0,3.3,2.4,5.7,5.6,5.7c1.8,0,3.3-0.7,4.5-2l0.1-0.1l-1.6-1.4l-0.1,0.1
		c-0.9,0.9-1.7,1.2-2.8,1.2c-1.5,0-2.7-0.9-2.9-2.5h7.8l0-0.2c0-0.2,0-0.4,0-0.6C52.6,10.6,51,7.6,47.4,7.6z M47.4,9.9
		c1.7,0,2.4,1.3,2.6,2.6h-5.2C45,10.9,46,9.9,47.4,9.9z"/>
	<path fill="#636467" d="M60.1,7.6c-1.3,0-2.4,0.5-3.2,1.6V7.9h-2.7v10.9h2.7v-6.1c0-1.5,0.9-2.5,2.3-2.5c1.4,0,2.2,0.9,2.2,2.5v6.2
		h2.7v-6.9C64.1,9.3,62.6,7.6,60.1,7.6z"/>
	<path fill="#636467" d="M69.4,4.9h-2.7v2.9h-2v2.3h2v5.5c0,2.2,1.1,3.3,3.2,3.3c0.9,0,1.6-0.2,2.3-0.6l0.1,0v-2.3L72,16.2
		c-0.5,0.2-0.9,0.4-1.5,0.4c-0.8,0-1.2-0.4-1.2-1.2v-5.1h2.9V7.9h-2.9V4.9z"/>
	<path fill="#636467" d="M80,7.7c-1.5,0-2.7,0.8-3.5,2.2v-2h-2.7v10.9h2.7v-4.2c0-2.6,1.3-4.1,3.5-4.1h0.3V7.7l-0.1,0
		C80.2,7.7,80.1,7.7,80,7.7z"/>
	<path fill="#636467" d="M86.6,7.6c-3.3,0-5.8,2.5-5.8,5.7v0c0,3.2,2.5,5.6,5.8,5.6c3.3,0,5.8-2.5,5.8-5.7v0
		C92.4,10.1,89.9,7.6,86.6,7.6z M83.5,13.3c0-1.9,1.3-3.3,3.1-3.3c1.8,0,3.2,1.4,3.2,3.3v0c0,1.9-1.3,3.3-3.1,3.3
		C84.8,16.6,83.5,15.2,83.5,13.3L83.5,13.3z"/>
	<path fill="#EB652A" d="M100.1,7.6c-1.4,0-2.6,0.6-3.5,1.8V7.9h-2.7v15.4h2.7v-6c0.9,1.1,2.1,1.7,3.5,1.7c2.5,0,5.1-1.9,5.1-5.7v0
		C105.2,9.6,102.7,7.6,100.1,7.6z M102.5,13.3L102.5,13.3c0,2-1.2,3.3-2.9,3.3c-1.7,0-3-1.4-3-3.3v0c0-1.9,1.3-3.3,3-3.3
		C101.2,10,102.5,11.4,102.5,13.3z"/>
	<path fill="#EB652A" d="M111.3,7.7c-1.9,0-3.1,0.4-4.1,0.9l-0.1,0l0.7,2.1l0.1,0c0.9-0.4,1.8-0.7,3-0.7c1.7,0,2.5,0.8,2.5,2.2v0.1
		c-0.7-0.2-1.5-0.4-2.8-0.4c-2.8,0-4.5,1.3-4.5,3.6v0c0,2.3,2,3.4,3.9,3.4c1.3,0,2.5-0.5,3.4-1.4v1.1h2.6v-6.4
		c0-1.5-0.4-2.6-1.2-3.4C114.1,8.1,112.9,7.7,111.3,7.7z M110.8,17c-1.2,0-2-0.6-2-1.5v0c0-1,0.9-1.7,2.4-1.7c1,0,1.8,0.2,2.3,0.4
		v0.6C113.5,16.1,112.4,17,110.8,17z"/>
	<path fill="#EB652A" d="M125.2,7.9l-2.7,7.7l-2.9-7.7h-2.9l4.5,10.8l-0.6,1.5c-0.4,0.8-0.7,1.1-1.4,1.1c-0.4,0-0.9-0.1-1.4-0.4
		l-0.1-0.1l-0.9,2l0.1,0.1c0.8,0.5,1.6,0.7,2.6,0.7c1.7,0,2.7-0.7,3.5-2.7l0,0l5-13H125.2z"/>
</g>
<path fill="#636467" d="M27.2,0c-3.9,0-7.2,2.3-8.8,5.6c0,0,0,0,0,0L15,12.8c-1,1.8-3,3-5.2,3c-3.3,0-6-2.7-6-6s2.7-6,6-6
	c1,0,1.9,0.2,2.7,0.6l1.4-3.4C12.6,0.3,11.2,0,9.7,0C4.4,0,0,4.4,0,9.7s4.4,9.7,9.7,9.7c3.4,0,6.4-1.7,8.1-4.4
	c0.2-0.4,0.4-0.7,0.6-1.1l3.3-7c1-2,3-3.4,5.4-3.4c3.3,0,6,2.7,6,6s-2.7,6-6,6c-1.2,0-2.2-0.3-3.1-0.9l-1.4,3.5
	c1.4,0.7,2.9,1.1,4.6,1.1c5.4,0,9.7-4.4,9.7-9.7S32.5,0,27.2,0z"/>
<polygon fill="#EB652A" points="13.9,0.7 9.2,12.2 13,12.2 17.7,0.7 "/>
<polygon fill="#EB652A" points="21.8,11.1 17,22.6 20.8,22.6 25.6,11.1 "/>
<g>
</g>
<g>
</g>
<g>
</g>
<g>
</g>
<g>
</g>
<g>
</g>
<g>
</g>
<g>
</g>
<g>
</g>
<g>
</g>
<g>
</g>
<g>
</g>
<g>
</g>
<g>
</g>
<g>
</g>
</svg>
