<?xml version="1.0" encoding="UTF-8" standalone="no"?>
<svg width="120px" height="50px" viewBox="0 0 120 50" version="1.1" xmlns="http://www.w3.org/2000/svg" xmlns:xlink="http://www.w3.org/1999/xlink">
    <!-- Generator: Sketch 46.2 (44496) - http://www.bohemiancoding.com/sketch -->
    <title>icn-epro</title>
    <desc>Created with Sketch.</desc>
    <defs></defs>
    <g id="Page-1" stroke="none" stroke-width="1" fill="none" fill-rule="evenodd">
        <g id="Payment-Icons" transform="translate(-944.000000, -127.000000)" fill-rule="nonzero">
            <g id="icn-epro" transform="translate(944.000000, 127.000000)">
                <path d="M25.0076336,0.0916030534 C11.3587786,0.0916030534 0.366412214,11.0839695 0.366412214,24.7328244 C0.366412214,38.3816794 11.3587786,49.3740458 25.0076336,49.3740458 C38.6564885,49.3740458 49.648855,38.3816794 49.648855,24.7328244 C49.648855,11.0839695 38.6564885,0.0916030534 25.0076336,0.0916030534 L25.0076336,0.0916030534 Z" id="Shape" fill="#B09446"></path>
                <path d="M106.900763,13.8320611 C99.9389313,13.8320611 94.259542,19.5114504 94.259542,26.5648855 C94.259542,33.6183206 99.9389313,39.2061069 106.992366,39.2061069 C113.954198,39.2061069 119.633588,33.5267176 119.633588,26.5648855 C119.633588,19.6030534 113.954198,13.8320611 106.900763,13.8320611 C106.900763,13.8320611 106.900763,13.8320611 106.900763,13.8320611 Z M106.900763,32.7938931 C103.419847,32.7938931 100.671756,30.0458015 100.671756,26.5648855 C100.671756,23.0839695 103.419847,20.3358779 106.900763,20.3358779 C110.381679,20.3358779 113.129771,23.0839695 113.129771,26.5648855 C113.129771,26.5648855 113.129771,26.5648855 113.129771,26.5648855 C113.129771,29.9541985 110.381679,32.7938931 106.900763,32.7938931 Z" id="Shape" fill="#000000"></path>
                <path d="M79.0534351,26.5648855 C79.0534351,19.6030534 73.3740458,13.8320611 66.4122137,13.8320611 C59.4503817,13.8320611 53.6793893,19.6030534 53.6793893,26.5648855 L53.6793893,26.5648855 L53.6793893,46.1679389 C53.6793893,47.9083969 55.1450382,49.3740458 56.8854962,49.3740458 L56.8854962,49.3740458 C58.6259542,49.3740458 60.0916031,47.9083969 60.0916031,46.1679389 L60.0916031,26.5648855 L60.0916031,26.5648855 C60.0916031,23.0839695 62.8396947,20.3358779 66.3206107,20.3358779 C69.8015267,20.3358779 72.5496183,23.0839695 72.5496183,26.5648855 C72.5496183,29.7709924 70.0763359,32.4274809 66.9618321,32.7938931 C65.221374,32.4274809 63.480916,33.6183206 63.1145038,35.3587786 C62.7480916,37.0992366 63.9389313,38.8396947 65.6793893,39.2061069 C65.9541985,39.2977099 66.1374046,39.2977099 66.4122137,39.2977099 L66.4122137,39.2977099 C73.3740458,39.2061069 79.0534351,33.5267176 79.0534351,26.5648855 Z" id="Shape" fill="#010101"></path>
                <path d="M94.259542,17.129771 C94.259542,15.2977099 92.7938931,13.8320611 90.9618321,13.8320611 L90.9618321,13.8320611 C85.0992366,13.8320611 80.4274809,18.5954198 80.4274809,24.3664122 L80.4274809,35.9083969 L80.4274809,35.9083969 C80.3358779,37.740458 81.7099237,39.2977099 83.5419847,39.389313 C85.3740458,39.480916 86.9312977,38.1068702 87.0229008,36.2748092 C87.0229008,36.1832061 87.0229008,36 87.0229008,35.9083969 L87.0229008,35.9083969 L87.0229008,24.9160305 L87.0229008,24.9160305 C87.0229008,24.8244275 87.0229008,24.6412214 87.0229008,24.4580153 C87.0229008,22.259542 88.7633588,20.4274809 90.9618321,20.3358779 L90.9618321,20.3358779 C92.7938931,20.4274809 94.259542,18.9618321 94.259542,17.129771 C94.259542,17.129771 94.259542,17.129771 94.259542,17.129771 Z" id="Shape" fill="#020202"></path>
                <path d="M38.6564885,13.0076336 L38.6564885,13.0076336 L38.6564885,13.0076336 L38.2900763,12.6412214 L38.2900763,12.6412214 L38.1984733,12.5496183 C37.1908397,11.5419847 36.0916031,10.7175573 34.8091603,10.0763359 C26.7480916,5.58778626 16.5801527,8.42748092 12.0916031,16.4885496 C7.60305344,24.5496183 10.4427481,34.7175573 18.5038168,39.2061069 C20.9770992,40.5801527 23.8167939,41.3129771 26.6564885,41.3129771 L32.610687,41.3129771 C34.7175573,41.3129771 36.5496183,39.8473282 37.0076336,37.740458 C37.0992366,37.4656489 37.0992366,37.0992366 37.0992366,36.8244275 C37.0992366,34.351145 35.0839695,32.3358779 32.610687,32.3358779 L26.6564885,32.3358779 C22.4427481,32.3358779 18.9618321,28.8549618 18.9618321,24.5496183 C18.9618321,20.2442748 22.4427481,16.8549618 26.7480916,16.8549618 C27.1145038,16.8549618 27.480916,16.8549618 27.8473282,16.9465649 L23.4503817,21.3435115 L23.4503817,21.3435115 L23.4503817,21.3435115 L23.4503817,21.3435115 C21.7099237,23.0839695 21.7099237,26.0152672 23.4503817,27.7557252 C25.1908397,29.4961832 28.1221374,29.4961832 29.8625954,27.7557252 L29.8625954,27.7557252 L29.8625954,27.7557252 L29.8625954,27.7557252 L34.259542,23.2671756 L34.259542,23.2671756 L38.3816794,19.0534351 L38.5648855,18.870229 C40.1221374,17.3129771 40.1221374,14.7480916 38.6564885,13.0076336 L38.6564885,13.0076336 Z" id="Shape" fill="#FFFFFF"></path>
            </g>
        </g>
    </g>
</svg>