<?xml version="1.0" encoding="UTF-8" standalone="no"?>
<svg width="120px" height="74px" viewBox="0 0 120 74" version="1.1" xmlns="http://www.w3.org/2000/svg" xmlns:xlink="http://www.w3.org/1999/xlink">
    <!-- Generator: Sketch 46.2 (44496) - http://www.bohemiancoding.com/sketch -->
    <title>icn-eps</title>
    <desc>Created with Sketch.</desc>
    <defs></defs>
    <g id="Page-1" stroke="none" stroke-width="1" fill="none" fill-rule="evenodd">
        <g id="Payment-Icons" transform="translate(-956.000000, -626.000000)" fill-rule="nonzero">
            <g id="icn-eps" transform="translate(956.000000, 626.656013)">
                <path d="M94.0962288,36.5853659 L84.5380494,36.5853659 C83.4750585,36.5853659 82.6100911,35.747453 82.6100911,34.698518 C82.6100911,33.6495833 83.4750585,32.72615 84.5380494,32.72615 L99.0897269,32.72615 L99.0897269,25.6251929 L84.5380494,25.6251929 C79.4591937,25.6251929 75.326918,29.7212103 75.326918,34.7329422 C75.326918,39.7446743 79.4591937,43.8406916 84.5380494,43.8406916 L93.9663979,43.8406916 C95.0295449,43.8406916 95.8945124,44.6752084 95.8945124,45.7241432 C95.8945124,46.7730781 95.0295449,47.5455388 93.9663979,47.5455388 L73.7486606,47.5455388 C72.0321457,50.7872801 70.3630689,53.5659154 66.9748244,54.9552331 L94.0962288,54.9552331 C99.0897269,54.8840691 103.174408,50.7036123 103.174408,45.736184 C103.174408,40.7689102 99.0897269,36.6565298 94.0962288,36.5853659" id="Fill-1" fill="#5F6360"></path>
                <path d="M57.4559688,25.6251929 C49.3549545,25.6251929 42.756827,32.1912628 42.756827,40.2593393 L42.756827,40.5680766 L42.756827,70.7008336 L50.0910274,70.7008336 L50.0910274,54.9552331 L57.4406761,54.9552331 C65.5418466,54.9552331 72.116723,48.3017906 72.116723,40.2337141 C72.116723,32.1656375 65.5571391,25.6251929 57.4559688,25.6251929 Z M57.4559688,47.5455388 L50.0910274,47.5455388 L50.0910274,40.2337141 C50.0910274,36.1478852 53.3794019,32.8237111 57.4559688,32.8237111 C61.5325358,32.8237111 64.8489986,36.1478852 64.8489986,40.2337141 C64.8489986,44.3195431 61.5325358,47.5455388 57.4559688,47.5455388 L57.4559688,47.5455388 Z" id="Fill-3" fill="#5F6360"></path>
                <path d="M19.5375293,54.9552331 C12.6028088,54.9552331 6.77258778,50.0668417 5.19495449,43.6806113 C5.19495449,43.6806113 4.73898569,41.5690027 4.73898569,40.1787588 C4.73898569,38.7883605 5.17061119,36.6551404 5.17061119,36.6551404 C6.7596359,30.2846558 12.5826788,25.5409077 19.5060078,25.5409077 C27.6485305,25.5409077 34.3302991,32.0889164 34.3302991,40.1438716 L34.3302991,43.686323 L12.696749,43.686323 C13.9743043,46.1562211 16.5579714,47.5455388 19.5375293,47.5455388 L38.9850195,47.5455388 L39.0117035,26.6565299 C39.0117035,23.5421426 36.4359948,20.994134 33.2877503,20.994134 L5.72395319,20.994134 C2.57586476,20.994134 0,23.4649583 0,26.5793454 L0,53.846712 C0,56.9610991 2.57586476,59.5862921 5.72395319,59.5862921 L33.2877503,59.5862921 C36.113134,59.5862921 38.4699089,57.5794999 38.9250975,54.9552331 L19.5375293,54.9552331" id="Fill-4" fill="#A41760"></path>
                <path d="M19.5060078,32.472368 C16.5379974,32.472368 13.956827,34.2698363 12.6741222,36.5853659 L26.3382054,36.5853659 C25.0555007,34.2698363 22.4743302,32.472368 19.5060078,32.472368" id="Fill-5" fill="#A41760"></path>
                <path d="M31.9895969,12.1270454 C31.9895969,5.47205928 26.3987516,0.0771843161 19.5022627,0.0771843161 C12.72,0.0771843161 7.20390117,5.29561594 7.02273082,11.7980858 C7.01976593,11.8255634 7.02210663,11.8522692 7.02210663,11.8805187 L7.02210663,15.501698 C7.02210663,15.9348565 7.3786736,16.363075 7.82746424,16.363075 L12.4216385,16.363075 C12.8704291,16.363075 13.2639792,15.9348565 13.2639792,15.501698 L13.2639792,12.1270454 C13.2639792,8.80379747 16.0618986,6.10003087 19.5058518,6.10003087 C22.9498049,6.10003087 25.7477243,8.80379747 25.7477243,12.1270454 L25.7477243,15.501698 C25.7477243,15.9348565 26.1117815,16.363075 26.5605721,16.363075 L31.1549025,16.363075 C31.6036932,16.363075 31.9895969,15.9348565 31.9895969,15.501698 L31.9895969,12.1270454" id="Fill-6" fill="#A41760"></path>
                <path d="M65.6844733,64.3717197 L65.0203381,68.0918494 C64.6882705,69.9719049 63.4428609,70.8329731 61.7547464,70.8329731 C60.3248895,70.8329731 59.2178934,69.911238 59.5410663,68.0947823 L60.2050455,64.3717197 L61.2290248,64.3717197 L60.5647335,68.0918494 C60.3618726,69.2511578 60.8877503,69.9113924 61.8839532,69.9113924 C62.9079323,69.9113924 63.7841352,69.3087373 63.996359,68.0947823 L64.6604941,64.3717197 L65.6844733,64.3717197 Z M61.6623667,63.2071627 C61.6623667,63.5172893 61.9025227,63.6631677 62.1607803,63.6631677 C62.483485,63.6631677 62.8341222,63.4351652 62.8341222,63.0061747 C62.8341222,62.7053103 62.6309492,62.5501698 62.363641,62.5501698 C62.0315735,62.5501698 61.6623667,62.7598024 61.6623667,63.2071627 Z M63.876515,63.1979006 C63.876515,63.5172893 64.1255656,63.6631677 64.393186,63.6631677 C64.6790637,63.6631677 65.0571651,63.4351652 65.0571651,63.0152824 C65.0571651,62.714418 64.8357347,62.5501698 64.586684,62.5501698 C64.2546164,62.5501698 63.876515,62.7598024 63.876515,63.1979006 L63.876515,63.1979006 Z" id="Fill-7" fill="#5F6360"></path>
                <path d="M68.1592197,64.3717197 L67.6981014,66.9421118 C68.0946164,66.4132449 68.8878023,66.1332202 69.4413004,66.1332202 C70.5852796,66.1332202 71.3784656,66.7963878 71.3784656,68.0282495 C71.3784656,69.7710713 70.1516255,70.8193886 68.5836672,70.8193886 C67.9746164,70.8193886 67.4581014,70.5955542 67.1446033,70.0299476 L66.9692068,70.7008336 L66.0744344,70.7008336 L67.2090508,64.3717197 L68.1592197,64.3717197 Z M67.4396879,68.709787 C67.4028609,69.4580118 67.8917555,69.9414942 68.6019246,69.9414942 C69.496697,69.9414942 70.3636932,69.2570238 70.4192457,68.2170423 C70.4560728,67.4595555 69.9579714,67.0121952 69.2660598,67.0121952 C68.3804941,67.0121952 67.4949285,67.7150355 67.4396879,68.709787 L67.4396879,68.709787 Z" id="Fill-8" fill="#5F6360"></path>
                <path d="M73.2438492,68.84841 C73.207022,69.4658845 73.6957607,69.9700525 74.5260858,69.9700525 C74.9873602,69.9700525 75.5959428,69.7916024 75.9280103,69.4814757 L76.4446815,70.0720901 C75.8821326,70.5825872 75.0518075,70.8369868 74.3508452,70.8369868 C73.0408323,70.8369868 72.2752665,70.0609756 72.2752665,68.8746527 C72.2752665,67.2959246 73.5297269,66.119327 75.1348244,66.119327 C76.6016644,66.119327 77.4318335,66.9959864 76.9337321,68.84841 L73.2438492,68.84841 Z M76.1588037,68.0765668 C76.2324578,67.3047237 75.7713394,66.9905835 75.0056178,66.9905835 C74.3140182,66.9905835 73.6775033,67.3047237 73.4005201,68.0765668 L76.1588037,68.0765668 L76.1588037,68.0765668 Z" id="Fill-9" fill="#5F6360"></path>
                <path d="M79.4719897,66.2241433 L79.4257998,66.8190799 C79.8686606,66.2437481 80.403589,66.1262735 80.8924838,66.1262735 C81.3353445,66.1262735 81.7318595,66.2818771 81.9440832,66.5098796 L81.3721717,67.331275 C81.1693108,67.1492745 80.9664499,67.0580426 80.6158127,67.0580426 C79.9607281,67.0580426 79.3151625,67.4467428 79.1675422,68.2770918 L78.7340442,70.7008336 L77.7838752,70.7008336 L78.5864239,66.2241433 L79.4719897,66.2241433" id="Fill-10" fill="#5F6360"></path>
                <polyline id="Fill-11" fill="#5F6360" points="86.5209363 66.2241433 87.0004681 69.7644335 88.7346164 66.2241433 89.7955787 66.2241433 87.4157087 70.7008336 86.2995059 70.7008336 85.8475943 67.7476073 85.1186996 69.2147268 84.3255136 70.7008336 83.2183616 70.7008336 82.4159688 66.2241433 83.4859818 66.2241433 83.956463 69.7644335 85.699818 66.2241433 86.5209363 66.2241433"></polyline>
                <path d="M91.0155527,68.84841 C90.9787256,69.4658845 91.4674642,69.9700525 92.2979454,69.9700525 C92.7592197,69.9700525 93.3678023,69.7916024 93.69987,69.4814757 L94.216541,70.0720901 C93.6539922,70.5825872 92.823511,70.8369868 92.1225487,70.8369868 C90.8126918,70.8369868 90.0471262,70.0609756 90.0471262,68.8746527 C90.0471262,67.2959246 91.3015864,66.119327 92.906684,66.119327 C94.3735241,66.119327 95.2036932,66.9959864 94.7055916,68.84841 L91.0155527,68.84841 Z M93.9306632,68.0765668 C94.0043173,67.3047237 93.543199,66.9905835 92.7774773,66.9905835 C92.0857218,66.9905835 91.4492068,67.3047237 91.1723797,68.0765668 L93.9306632,68.0765668 L93.9306632,68.0765668 Z" id="Fill-12" fill="#5F6360"></path>
                <path d="M97.3084525,66.2241433 L96.5062159,70.7008336 L95.5558908,70.7008336 L96.3584396,66.2241433 L97.3084525,66.2241433 Z M96.4690768,65.004631 C96.4690768,65.3238654 96.7090768,65.4887311 96.9673342,65.4887311 C97.336385,65.4887311 97.6776593,65.2510035 97.6776593,64.8041062 C97.6776593,64.5026242 97.446866,64.3292682 97.1978154,64.3292682 C96.856541,64.3292682 96.4690768,64.548626 96.4690768,65.004631 L96.4690768,65.004631 Z" id="Fill-13" fill="#5F6360"></path>
                <path d="M101.524837,67.3315838 C101.229753,67.0030873 100.851496,66.9117012 100.399584,66.9117012 C99.7721197,66.9117012 99.3294148,67.1219513 99.3294148,67.5140476 C99.3294148,67.842544 99.6891028,67.9797777 100.224343,68.0251621 C101.054356,68.0981785 102.115319,68.3720284 101.893888,69.5308737 C101.737061,70.3704847 100.888322,70.8632295 99.7076723,70.8632295 C98.9698829,70.8632295 98.2592457,70.6989812 97.7797139,70.0328805 L98.3976593,69.3666255 C98.7390897,69.8318925 99.3387776,70.0236184 99.8737061,70.0328805 C100.325618,70.0328805 100.860858,69.8686323 100.943875,69.4487497 C101.026892,69.0473912 100.666892,68.8922507 100.002757,68.8280334 C99.2278283,68.7551713 98.3794019,68.4725224 98.3794019,67.6238037 C98.3794019,66.5010806 99.6060858,66.1089843 100.528791,66.1089843 C101.229753,66.1089843 101.746424,66.2639703 102.170715,66.7113306 L101.524837,67.3315838" id="Fill-14" fill="#5F6360"></path>
                <path d="M104.524057,66.2241433 L104.090715,68.6349181 C103.952146,69.4016672 104.302783,69.9314603 105.096125,69.9314603 C105.843277,69.9314603 106.479792,69.31908 106.60853,68.5707009 L107.023615,66.2241433 L107.97394,66.2241433 L107.171704,70.7008336 L106.313758,70.7008336 L106.378205,70.0521765 C105.843277,70.554029 105.317243,70.7906761 104.68104,70.7906761 C103.564681,70.7906761 102.900702,69.9990738 103.14039,68.639858 L103.574044,66.2241433 L104.524057,66.2241433" id="Fill-15" fill="#5F6360"></path>
                <path d="M112.145384,70.7008336 L112.579038,68.3045693 C112.717139,67.5288669 112.450143,67.0149738 111.582835,67.0149738 C110.826476,67.0149738 110.189649,67.616857 110.060754,68.355974 L109.64567,70.7008336 L108.695345,70.7008336 L109.498205,66.2241433 L110.364889,66.2241433 L110.300442,66.8783576 C110.826476,66.3947205 111.370299,66.1562211 111.96078,66.1562211 C113.067776,66.1562211 113.78762,66.9178759 113.53857,68.296079 L113.104915,70.7008336 L112.145384,70.7008336" id="Fill-16" fill="#5F6360"></path>
                <path d="M115.365878,71.3183081 C115.30143,71.9357826 115.780962,72.185551 116.583823,72.185551 C117.284941,72.185551 118.041456,71.7983946 118.216697,70.8129053 L118.354955,70.0441494 C117.93987,70.6190182 117.183511,70.8459401 116.620962,70.8459401 C115.458257,70.8459401 114.646658,70.1614696 114.646658,68.9198827 C114.646658,67.1500463 115.974772,66.1275085 117.47844,66.1275085 C118.115111,66.1275085 118.687022,66.4265205 118.890039,66.9376351 L119.046866,66.2241433 L119.969259,66.2241433 L119.175761,70.8338994 C118.880832,72.540599 117.59844,73.0702377 116.426996,73.0702377 C115.024603,73.0702377 114.250143,72.3988885 114.443485,71.3183081 L115.365878,71.3183081 Z M115.633498,68.7372645 C115.633498,69.503396 116.140806,69.9691263 116.870013,69.9691263 C118.834486,69.9691263 119.360364,66.9851807 117.395267,66.9851807 C116.463667,66.9851807 115.633498,67.669188 115.633498,68.7372645 L115.633498,68.7372645 Z" id="Fill-17" fill="#5F6360"></path>
            </g>
        </g>
    </g>
</svg>