<?xml version="1.0" encoding="iso-8859-1"?>
<!-- Generator: Adobe Illustrator 19.0.0, SVG Export Plug-In . SVG Version: 6.00 Build 0)  -->
<svg version="1.1" xmlns="http://www.w3.org/2000/svg" xmlns:xlink="http://www.w3.org/1999/xlink" x="2000px" y="0px"
	 viewBox="0 0 1926.874 475.337" style="enable-background:new 0 0 1926.874 475.337;" xml:space="preserve">
<g id="euteller">
	<path id="XMLID_402_" style="fill:#F20017;" d="M251.845,1.043c98.601-9.834,195.094,50.837,233.99,141.009
		c24.54,55.534,26.428,120.331,5.488,177.27c-17.077,47.017-49.476,88.24-91.094,116.029
		c-43.769,29.545-97.327,43.461-150.008,39.247c17.341-3.644,34.155-5.883,51.276-11.195c50.793-16.112,95.22-50.091,124.634-94.43
		c32.179-47.983,45.92-107.644,37.535-164.803c-7.375-52.812-33.452-102.42-72.304-138.857
		C354.177,29.754,306.37,8.418,255.489,1.789l-1.01-0.176L251.845,1.043z"/>
	<path id="XMLID_401_" style="fill:#0F2B8D;" d="M204.213,17.198c38.501-3.205,74.763,6.058,110.059,20.545
		c-42.364,67.87-95.484,129.507-156.505,181.265c-43.198,36.437-90.655,68.221-142.545,90.874
		c-7.507-27.965-17.516-58.958-14.751-88.108c5.575-34.769,12.512-67.695,31.038-98.162C67.024,62.24,133.577,21.72,204.213,17.198z
		"/>
	<path id="XMLID_400_" style="fill:#0A6726;" d="M318.969,40.861c41.749,19.755,75.728,56.983,96.098,98.03
		c-9,11.019-21.204,20.019-32.267,28.93C283.98,245.35,171.024,302.684,46.522,324.063
		C145.913,263.7,230.729,180.377,293.024,82.215C302.067,68.694,309.487,54.075,318.969,40.861z"/>
	<path id="XMLID_399_" style="fill:#62AC1E;" d="M416.428,141.7c17.385,38.632,23.97,81.392,18.219,123.404
		c-0.132,7.244-9,8.517-14.092,11.809c-78.099,35.12-161.861,58.958-247.028,68.397c-41.881,4.083-82.884,6.848-124.853,1.888
		c87.23-19.799,170.729-56.72,245.272-106.02C337.407,212.029,380.298,179.63,416.428,141.7z"/>
	<path id="XMLID_405_" d="M1448.442,79.537c2.59,17.824,1.185,295.626,0.088,302.124c-10.141,1.273-24.628,3.644-33.803-1.536
		c-1.668-13.082-1.756-284.651,0.044-299.226C1424.56,76.289,1437.95,78.088,1448.442,79.537z M678.383,79.098
		c27.438,0.22,55.271-0.088,82.533,3.336c0.219,10.053,0.176,20.106,0.044,30.16c-29.018,0.527-58.037-0.132-87.055,0.263
		c-11.195,0.395-25.067,1.054-34.374,8.078c-9.219,7.2-9.658,19.799-10.229,30.511c-0.307,19.755,0.132,39.51-0.088,59.266
		c43.549,0.395,87.143-0.439,130.692,0.483c0.79,9.746,2.678,20.809-0.571,30.116c-42.935,3.424-86.923,0.483-130.077,1.449
		c0.176,23.75-0.263,47.5,0.044,71.207c0.527,10.536,1.054,23.092,10.141,30.16c9.351,7.024,23.136,7.814,34.418,8.078
		c29.018,0.263,58.124-0.439,87.143,0.395c0.132,10.229,0.132,20.414-0.176,30.643c-27.262,3.249-55.051,2.59-82.489,2.897
		c-22.433-0.176-48.905-3.249-66.114-19.185c-16.375-14.794-19.931-36.218-20.238-57.29c-0.044-51.276-0.044-102.639,0-153.915
		c0.263-21.248,3.732-42.364,20.063-57.466C629.478,82.259,655.686,79.186,678.383,79.098z M1514.03,78.484
		c10.799,0.088,23.355-1.58,33.628,2.107c1.712,14.707,0.571,292.202-0.395,301.86c-11.239,0.439-22.389,0.483-33.584,0
		C1509.288,310.059,1510.562,107.107,1514.03,78.484z M1100.399,109.258c0.483,16.814,0.351,33.628,0.307,50.442
		c16.287,0.527,34.462-2.151,50.178,2.59c1.273,7.77,3.073,19.097-0.966,26.121c-15.058,4.171-33.364,1.229-49.081,1.932
		c-0.176,47.061-0.044,94.167-0.132,141.272c0.571,8.341-0.571,17.429,7.156,22.828c13.258,4.873,30.906-0.79,43.505,4.39
		c3.117,6.541,1.712,15.892,2.59,23.136c-21.336,4.566-47.588,7.2-68.178-1.361c-19.272-9.044-20.589-30.379-21.38-49.037
		c-0.263-47.061,0-94.167-0.044-141.184c-15.409-1.58-30.774-3.161-46.052-5.883c-0.132-7.683-0.132-15.409-0.044-23.092
		c15.541-1.8,31.081-1.888,46.71-2.019c-0.79-15.19-1.098-30.335,0.878-45.437C1077.219,111.102,1088.721,109.785,1100.399,109.258z
		 M846.215,162.158c0.351,47.72-0.088,95.44,0.176,143.116c0.439,16.507,3.029,37.008,19.755,45.042
		c25.989,11.239,54.261-0.088,78.362-10.8c0.659-58.344-1.01-117.083,0.79-175.295c8.253-7.375,24.453-5.312,34.111-1.844
		c1.098,6.453,1.098,13.258,1.141,19.799c-0.22,60.012-0.132,120.068,0,180.08c-0.132,6.673-0.176,13.082-1.493,19.667
		c-10.887,1.756-22.74,0.79-33.716,0c-0.307-4.653-0.571-9.307-0.878-13.96c-20.15,10.8-40.871,18.746-64.139,18.219
		c-22.916-0.044-45.086-7.77-57.29-28.228c-16.682-27.657-11.634-61.505-12.424-92.323c0.834-34.286-1.624-69.187,1.185-103.298
		C823.606,157.329,834.142,160.49,846.215,162.158z M1860.756,161.807c0.088,4.61,0.132,9.219,0.22,13.829
		c20.545-12.599,41.135-20.458,65.763-17.736c0.132,9.395,0.439,19.272-0.746,28.579c-23.004,3.029-43.198,6.146-63.524,18.175
		c-0.176,53.998-0.044,108.127-0.044,162.125c-0.571,5.224,0.878,12.248-4.39,15.409c-9.351,0.922-22.433,2.766-30.818-2.063
		c-1.185-10.229-1.229-155.627-0.439-217.835C1838.279,158.822,1849.123,159.656,1860.756,161.807z M1360.773,280.953
		c3.907-31.433,1.8-72.655-20.765-97.415c-22.433-25.682-59.441-29.896-91.225-23.926c-25.067,4.829-46.359,21.423-56.544,44.91
		c-12.029,25.638-7.726,55.315-8.56,83.06c-0.395,24.76,3.161,48.466,18.789,68.485c15.673,19.799,39.554,28.316,64.139,29.765
		c29.677,1.141,60.012-1.712,88.855-9c0.044-8.868,0.044-17.736-0.088-26.56c-29.282,0.878-59.749,5.883-88.943,3.776
		c-14.004-1.185-27.043-6.014-35.647-17.648c-11.458-15.76-11.019-35.077-11.897-53.69c40.784,0.044,81.611-0.088,122.395,0.132
		C1347.998,282.709,1354.276,282.928,1360.773,280.953z M1218.491,255.579c1.58-19.009,1.976-38.062,16.068-52.769
		c16.419-16.726,47.457-17.692,67.519-7.639c22.258,12.512,22.74,38.062,24.101,60.627
		C1290.269,255.754,1254.402,256.061,1218.491,255.579z M1777.257,282.358c2.766-32.399,2.854-69.231-18.438-96.01
		c-21.336-26.736-56.237-32.179-88.416-27.701c-25.594,3.644-48.554,18.57-59.924,42.057
		c-13.302,26.208-10.887,54.085-11.107,82.489c0,25.77,3.161,52.461,19.755,73.27c15.936,19.799,39.774,28.053,64.534,29.413
		c29.062,1.141,58.607-2.107,87.011-8.385c0.703-9,1.273-17.999,1.712-27.043c-29.15,0.395-59.793,5.707-88.811,3.644
		c-14.092-1.141-27.306-5.532-36.086-17.209c-11.765-15.98-11.458-35.296-11.765-54.173
		C1682.915,282.533,1730.108,283.148,1777.257,282.358z M1635.107,255.579c1.537-20.809,1.756-40.213,18.35-55.315
		c17.165-14.048,45.657-14.794,65.017-5.18c22.257,12.775,22.477,37.974,24.233,60.627
		C1706.841,255.798,1670.974,256.017,1635.107,255.579z"/>
	<path id="XMLID_342_" style="fill:#0F2B8D;" d="M433.945,273.139c-11.809,59.485-47.369,113-98.864,145.267
		c-46.271,29.457-103.43,40.564-157.296,30.028c-51.188-9.746-95.879-38.72-129.507-78.011
		c126.697,2.107,254.096-29.326,366.526-87.45C421.17,279.68,427.535,276.431,433.945,273.139z"/>
</g>
<g id="&#x421;&#x43B;&#x43E;&#x439;_1">
</g><a href="http://www.slotsup.com/casino-deposit-methods" target="_blank"></a>
</svg>
