<svg xmlns="http://www.w3.org/2000/svg" viewBox="0 0 460.3 420.9"><path fill="#F68F20" d="M1.3 54.7V37.9h19.9c4 0 8-.1 12 0 5.2.2 10.3 1.6 15.6 1 2.7 1.5 5.7.6 8.6 1.1 5.2.9 10.4 1.7 15.7 1.9 2.4 2 5.5.6 8.2 1.8 2.5 1.1 5.8.5 8.5 1.2 4.7 1.3 9.5 2.1 14.2 3.2 3.2.8 6.2 2 9.4 2.6 5.2 1 10.2 2.7 15.3 4.2 2.2.6 4.6.9 6.7 1.8 2 .9 3.9 1.8 5.9 2.6 2.1.9 4.4 1.6 6.5 2.3 4.3 1.3 8.4 3.2 12.5 4.9 9.7 3.9 19.3 8.2 28.5 13.3 6.2 3.5 12.5 6.8 18.6 10.6 5.9 3.6 11.5 7.5 17.3 11.3 1.8 1.2 3.2 3 5.4 3.8 2 .8 3.4 2.9 5.3 4.1 4.5 2.8 8 6.8 12.5 9.6.3.2.5.5.7.7 6.3 6 13.1 11.6 18.9 18.1 5.5 6.2 11.3 11.9 16.2 18.7 4.5 6.2 9.2 12.1 13.4 18.5 5.2 7.9 9.8 16.2 14 24.7 3.5 7.2 6.9 14.5 9 22.3 2.6 3.5 2.8 7.9 4 11.8 1.2 3.9 2.1 7.8 3.1 11.7.5 1.9.2 4.1 1 5.5 1.1 1.8.4 3.5.8 5.2 1.3 5.5 1.3 11.2 2.2 16.6 1.1 6.8.4 13.4.7 20.1.2 3.2-.4 3.5-3.7 3.6H1.1v-66h242.2c1.5 0 3.5.4 4.3-.4 1.3-1.3 1.5-3.3 1.4-5.4-.2-4.8-.2-9.7 0-14.5.1-2-.7-3.7-1.1-5.6-.4-1.9.9-4-.9-5.6.2-5-2.5-9.4-3.1-14.2-.3-2-1.4-3.8-2.1-5.6-3.4-8.5-7.5-16.7-12.8-24.2-3.2-4.6-6.6-9-10.1-13.3-5.2-6.5-11.1-12.2-17.2-17.8-8.8-8-18.5-15.1-28.6-21.4-10.1-6.3-20.5-12.2-31.5-17-6.6-2.9-13.4-5.6-20.1-8.3-6.9-2.8-14-4.8-20.9-7.4-5.5-2-11.4-3-17.2-4.4-3-.7-6-1.6-9.1-2.3-1.2-.3-2.4-.5-3.7-.7-1.2-.2-2.4-.9-3.6-.9-4.5-.3-8.6-2.4-13.2-2-2.2-1.7-4.9-.2-7-1.1-2.4-1.1-4.9-.2-7.1-1-3.5-1.2-7.2-.1-10.5-1.2-3.6-1.2-7.3.2-10.7-.8-5.3-1.6-11-.1-17.2-.9z"/><path fill="#F68F20" d="M1.4 35.9V0H434v188.2c-2.5-3.4-4.9-6.2-6.7-9.4-1.2-2.1-3.3-3.4-4.5-5.6-1.6-2.9-4.3-5.3-6.6-7.8-4.8-5.2-9.5-10.5-14.5-15.5-3.9-4-8-7.7-12.3-11.3-6.3-5.2-12.5-10.5-19.2-15.1-7.4-5-14.5-10.4-22.3-14.8-6.4-3.5-12.6-7.3-18.9-11-8-4.7-16.5-8.6-24.7-12.8-9-4.5-18.3-8.2-27.6-11.9-6-2.4-12.1-4.7-18.3-6.6-6.2-1.9-12.1-4.6-18.4-6.2-7-1.7-13.7-4.1-20.8-5.5-3.8-.8-7.5-1.9-11.2-3-3.7-1.1-7.6-1.4-11.3-2.8-2.9-1.1-6.1-1.5-9.1-2.1-3.1-.6-6.2-1.6-9.2-1.8-5-.3-9.6-2.5-14.7-2.2-2.4-1.9-5.5-.5-8.3-1.8-2.1-1-5-.4-7.5-1-3.9-.9-8-.8-12-1.2-2-.2-4.1-.6-6.1-1-2-.3-4.3.9-6.1-1-.2-.2-.6 0-1 0-3.4-.1-6.7-.4-10.1-.8-7-.9-14-.8-21.1-1.2-6.5-.3-13.1-.8-19.6-1-6.8-.2-13.7 0-20.5 0-6.7 0-13.3-.1-20 0-3.5.1-7.1.8-10.6.9-3.7.2-7.4-.5-11 .2-2.7.7-5.3.9-8.4 1zm171.9 174.8H1.5V56.8c3.3.5 6.5-.3 9.9.9 3.1 1.1 6.7.7 10 1.2 3.4.5 7 .8 10.1 2.1 3.1 1.3 6.6.8 9.3 2.8 5.4.3 10.2 2.8 15.2 4.4 11.9 4 23.1 9.6 34 15.6 7 3.9 13.6 8.3 20 13.2 7.8 5.9 15.4 12 22 19.2 5.5 6 10.8 12.2 15.4 19.1l5.7 8.7c3.8 5.8 6.7 12.1 9.4 18.6 1.8 4.3 3.6 8.5 4.9 13 1.1 3.8 2.3 7.4 2.8 11.4.1 1.2.7 2.4 1 3.6.3 1.2 0 2.4.7 3.7.7 1.5.3 3.5.4 5.3.1 2.9-.5 5.8.9 8.6.3.6.1 1.6.1 2.5z"/><path fill="#8B7970" d="M61.3 339v10.6c0 2.5-.7 3.2-3.2 3.2-3.5.1-7 0-10.5 0H18.5v18.8c6.4.4 13 .1 19.5.2h20.1v13.9H18.4v21.1h42.7v13.9H.7c-.8-4-1.1-63.7-.4-81.6 20.2-.1 40.3-.1 61-.1zm166.1-.1c16.6 0 33.1-.3 49.6.1 5.8.1 11.5 2.1 15.6 6.8 1.9 2.2 3 4.6 3.7 7.5 1.7 6.7.4 13.4.9 20.1.3 3.9-.9 7.4-2.7 10.9-1.2 2.5-2.5 4.6-5 5.8-2.2 1.1-4.3 2.3-6.8 2.9-2.9.7-5.7.8-8.6.8h-28.8v26.9h-17.9v-81.8zm18 42h3.2c4 0 8-.3 11.9.1 4 .4 7.6-1.3 11.6-1.1 4.4.3 7.4-1.8 8.1-7.9.4-3.6.2-7.3.1-10.9-.1-4.3-3.7-8.1-7.9-8.1-8.9-.1-17.9 0-26.9 0-.1 9.2-.1 18.3-.1 27.9zm128.4 40c-5.7 0-10.7-.1-15.6 0-1.6 0-2.4-.6-2.9-2-1.3-3.6-2.7-7.2-4-10.8-1.1-3.2-1-3.2-4.2-3.2h-30.5c-3.3 0-4.6.6-5.3 3.6-.7 3.4-2.4 6.4-3 9.7-.4 2.1-1.4 2.7-3.3 2.7-4.8-.1-9.6 0-14.5 0-.8-1.9 0-3.4.6-5.1 1.5-3.7 2.5-7.6 4.1-11.3 2.9-6.8 4.4-14.1 7.6-20.8 1.4-2.9 2.3-6.1 3.2-9.2 1.1-3.9 2.9-7.5 4.1-11.3 1.2-3.7 2.5-7.3 3.8-10.9 1.2-3.3 2.4-6.7 3.3-10.2.8-3.3 1-3.3 4.1-3.3h21c1.5 0 1.5.7 2 1.9 2.4 5.7 4 11.7 6.5 17.3 1.2 2.8 1.8 5.9 2.9 8.8 2.3 6.4 4.8 12.7 7 19.1 3.4 10.1 7.8 19.8 10.6 30.1.4 1.4 1.4 2.7 2.5 4.9zm-42-69.1c-.5.5-1.1.8-1.2 1.3-1.8 5.3-3.3 10.6-5.4 15.8-2.4 6-3.6 12.5-6.6 18.2-.6 1.2-1 2.6-1.3 4-.2 1.1-.1 1.9 1.5 1.8 2.3-.1 4.7 0 7 0h20.6c-5-13.9-9.8-27.4-14.6-41.1zM136.3 339c0 3.1-.3 6.1.1 9 .5 3.8-1.5 6.4-3.8 9-4 4.4-8.1 8.6-12 13-5.3 6.2-10.8 12.2-16.2 18.3-5.4 6-10.3 12.4-16.5 18.3H137c.5 2.4.2 4.7.2 6.9.1 2.3 0 4.6 0 7.1H67.4c-.4-2-.1-4.3-.2-6.6s-.1-4.7 0-7c0-.7.7-1.4 1.2-2 3.5-3.9 7.2-7.6 10.5-11.6 4.6-5.5 9.3-10.8 14.1-16.2 5-5.6 9.6-11.4 14.9-16.8 2.2-2.3 4-4.9 6.3-7.7H69.3v-13.9c22.3.2 44.5.2 67 .2zm264 81.8h-16.8c-.1-1.2-.2-2.5-.2-3.7 0-8-.2-16 .1-24 .1-3.3-1.1-5.9-2.7-8.4-4.9-7.6-9.7-15.3-14.4-23-2.5-4.2-5.2-8.2-7.9-12.2-2-3-3.4-6.4-5.9-9.1-.6-.6-.2-1.6 1-1.6 5.3 0 10.7.1 16 0 2 0 3.1 1.4 3.8 2.7 2.6 5.3 6.3 10 9 15.3 2.6 5.1 6.1 9.7 8.5 15 .2.4.7.7 1.3 1.3 1.7-2.5 3.5-4.9 5-7.4 3.5-5.9 6.9-11.8 10.3-17.7 1.1-1.9 2.1-3.8 3.2-5.7 2-3.4 2.1-3.3 6-3.3h13.5c.8 0 1.5.1 3 .2-1.2 1.5-2.1 2.4-2.7 3.5-4 6.5-8.3 12.9-12.4 19.4-5.4 8.4-10.5 17-16.3 25.2-.9 1.3-1.4 3-1.4 4.9v28.6zm-177.6-81.9c-1 1.9-1.7 3.3-2.5 4.6-5.9 8.9-12 17.6-17.6 26.7-3.8 6.3-7.8 12.4-11.7 18.6-.5.9-.6 2.1-.6 3.2v28.7h-17v-28c0-4.1 0-4.1-2-7.2-4.5-6.9-8.7-14.1-13.2-21-4.4-6.8-8.4-14-13.2-20.6-1-1.4-1.6-3-2.5-4.8 1-.1 2-.2 3-.2 4.8 0 9.7.1 14.5-.1 1.6 0 2 .6 2.7 1.8 4.3 6.7 7.8 13.9 12.2 20.5 2.5 3.7 4.5 7.8 6.8 11.8 2.2-1.8 3.3-4.2 4.7-6.5 4.5-7.4 9.2-14.8 13.4-22.5 1-1.8 1.8-4.1 3.3-4.9 1.7-.9 4.2-.2 6.4-.2 4.3.1 8.5.1 13.3.1zm219.6 16c-3-1.1-2.8-4.1-2.8-6.2 0-2 0-4.8 2.8-5.8.1.6.2 1.2.2 1.7.4-.2.9-.5 1.3-.7.1-.1.3 0 .5 0h11.1c-.5 2.2.7 4.4-1.5 5.9-1.7 1.2.3 2.2.5 3.3.2 1.5 1.6.7 2.4.7.5 0 1-.6 1.6-.9-.2 3.3-.8 4-3.8 5-5 1.6-6.2 1.4-10.2-1 .4-1.6 1.1-1.1 2.1-.5.4.3 1.1.2 1.7.2.1 0 .3-.7.2-.8-.4-.4-1-.9-1.4-.8-2.2.6-2.5-1.4-3.4-2.5-.5-.6-.3-1.7-.5-2.8-.6.6-1 .9-1.3 1.3-.1.2.2.7.2 1 0 1 .1 1.9.3 2.9zm.4-9.2c-.7.2-.9.3-1.2.4.4.6.9 1.1 1.3 1.7.2-.3.5-.5.5-.7-.2-.5-.4-.9-.6-1.4z"/><path d="M458.3 352.9c-.5.3-1 .9-1.6.9-.8 0-2.2.7-2.4-.7-.1-1.1-2.2-2-.5-3.3 2.3-1.6 1.1-3.8 1.5-5.9h-11.1v-3l1-1c2.1 1.4 4.9 1.4 7 0 1.9.2 4.2-.8 5 2-1.2.1-1.2.9-.8 1.6.4.6 1.2.9 1.8 1.4v1c.1 1.3-.2 2.8.4 3.7 1.1 1.4-1.2 2.1-.3 3.3z" fill="#eeebea"/><path fill="#8B7970" d="M442.3 354.9c-.1-.9-.2-1.9-.3-2.8 0-.4-.3-.8-.2-1 .2-.4.7-.7 1.3-1.3.2 1.1 0 2.2.5 2.8.8 1.1 1.1 3.1 3.4 2.5.4-.1 1 .5 1.4.8.1.1-.1.8-.2.8-.6 0-1.2.1-1.7-.2-.9-.6-1.7-1.1-2.1.5-1.8.2-2.5-.5-2.1-2.1zm16-2c-.9-1.2 1.4-1.8.4-3.3-.6-.9-.3-2.5-.4-3.7.7.1 1.9-.5 2 .8.1 1.8.1 3.6 0 5.4-.2 1.2-1.3.6-2 .8zm-6-13c-2.1 1.4-4.9 1.4-7 0 1-.2 2.1-.3 3.1-.6 1.4-.5 2.8-1.1 3.9.6zm-8 1v3c-.2 0-.3-.1-.5 0-.4.2-.9.5-1.3.7-.1-.6-.2-1.2-.2-1.7-.4-1.7.3-2.3 2-2zm14 4c-.6-.5-1.4-.8-1.8-1.4-.4-.7-.4-1.6.8-1.6 1.9.4.6 2 1 3zm-15.6.8c.2.5.5.9.5 1.4 0 .2-.3.5-.5.7-.4-.6-.9-1.1-1.3-1.7.3 0 .6-.1 1.3-.4z"/></svg>