<?xml version="1.0" encoding="utf-8"?>
<!-- Generator: Adobe Illustrator 22.1.0, SVG Export Plug-In . SVG Version: 6.00 Build 0)  -->
<svg version="1.1" id="Layer_1" xmlns="http://www.w3.org/2000/svg" xmlns:xlink="http://www.w3.org/1999/xlink" x="0px" y="0px"
	 width="128px" height="55px" viewBox="0 0 128 55" enable-background="new 0 0 128 55" xml:space="preserve">
<g id="layer1">
	<path id="_92653320" fill="#000268" d="M0,9.9C0,4.4,4.4,0,9.9,0h108.2c5.5,0,9.9,4.4,9.9,9.9v35.3c0,5.4-4.4,9.9-9.9,9.9H9.9
		C4.4,55,0,50.6,0,45.1V9.9L0,9.9z"/>
	<path id="_92186184" fill="#FFFFFF" d="M4.1,10.2v34.6c0,3.4,2.8,6.2,6.2,6.2h56.7V4H10.3C6.9,4,4.1,6.8,4.1,10.2L4.1,10.2z
		 M81.6,27.3c0,2.2-1.1,3.7-2.9,3.7c-1.6,0-2.9-1.5-2.9-3.5c0-2.1,1.2-3.6,2.9-3.6C80.5,23.9,81.6,25.5,81.6,27.3z M71,40h4.8v-7.5
		h0.1c0.9,1.6,2.7,2.3,4.4,2.3c4.1,0,6.3-3.4,6.3-7.5c0-3.3-2.1-7-5.9-7c-2.2,0-4.2,0.9-5.2,2.8h-0.1v-2.5H71V40z M93,30
		c0-1.3,1.3-1.8,2.9-1.8c0.7,0,1.4,0.1,2,0.1c0,1.6-1.1,3.3-2.9,3.3C93.9,31.5,93,31,93,30z M102.7,34.4c-0.2-1.1-0.3-2.2-0.3-3.3
		V26c0-4.2-3.1-5.7-6.6-5.7c-2,0-3.8,0.3-5.5,1l0.1,3.2c1.3-0.7,2.9-1,4.4-1c1.7,0,3.1,0.5,3.2,2.4c-0.6-0.1-1.5-0.2-2.2-0.2
		c-2.5,0-7.1,0.5-7.1,4.7c0,3,2.4,4.4,5.2,4.4c2,0,3.3-0.8,4.4-2.5h0.1c0,0.7,0.1,1.4,0.1,2.2H102.7z M104.8,40c1,0.2,2,0.3,3,0.3
		c4.4,0,5.4-3.4,6.8-6.8l5.1-12.9h-4.8l-2.8,9H112l-3-9h-5.2l5.6,14.1c-0.3,1.2-1.2,1.9-2.4,1.9c-0.7,0-1.2-0.1-1.9-0.3L104.8,40z"
		/>
	<path id="_47303032" fill="#FF0007" d="M15.7,27.4c0-1.9,0.9-3.5,2.7-3.5c2.2,0,3.1,1.7,3.1,3.3c0,2.1-1.4,3.6-3.1,3.6
		C17,30.7,15.7,29.5,15.7,27.4z M26.1,20.6h-4.3v2.5h-0.1c-1-1.7-2.7-2.8-4.7-2.8c-4.3,0-6.2,3.1-6.2,7.2c0,4.1,2.4,7,6.2,7
		c1.9,0,3.5-0.7,4.6-2.4h0.1v0.7c0,2.7-1.5,4-4.2,4c-2,0-3.2-0.4-4.7-1.1l-0.2,3.8c1.1,0.4,3,0.9,5.3,0.9c5.6,0,8.3-1.8,8.3-7.5
		V20.6z M34.2,14.8h-4.8v3.5h4.8V14.8z M29.4,34.4h4.8V20.6h-4.8V34.4z M47.5,20.4c-0.5-0.1-1.1-0.2-1.6-0.2c-2.1,0-3.3,1.1-4.1,2.9
		h-0.1v-2.5h-4.4v13.8h4.8v-5.8c0-2.7,1.3-4.3,3.5-4.3c0.6,0,1.1,0,1.6,0.2L47.5,20.4z M55.8,31.4c-2.2,0-3.1-1.8-3.1-3.9
		c0-2.1,0.9-3.9,3.1-3.9c2.2,0,3.1,1.8,3.1,3.9C58.9,29.5,58,31.4,55.8,31.4z M55.8,34.7c4.6,0,8-2.7,8-7.2c0-4.6-3.5-7.2-8-7.2
		c-4.6,0-8,2.7-8,7.2C47.7,32.1,51.2,34.7,55.8,34.7z"/>
</g>
<g>
</g>
<g>
</g>
<g>
</g>
<g>
</g>
<g>
</g>
<g>
</g>
<g>
</g>
<g>
</g>
<g>
</g>
<g>
</g>
<g>
</g>
<g>
</g>
<g>
</g>
<g>
</g>
<g>
</g>
</svg>
