<svg width="264" height="58" viewBox="0 0 264 58" xmlns="http://www.w3.org/2000/svg"><title>gopay</title><g fill="none"><g transform="translate(166)" fill="#0099D0"><path d="M53.8 15.6L56 4.1C53.7 2.9 45.3.6 37.9.6c-10 0-18.9 2.8-25.4 8C5.4 14.5.9 23.2.9 34.1.9 41.8 4 48 8.5 51.7c4.8 3.9 11.2 5.8 18.8 5.8 6.5-.1 12.9-1.2 19-3.2L52.1 24H38.3l-4 20.8c-1.6.5-3.3.8-5.1.7-7.2 0-12.8-3.5-12.8-12.3 0-7.7 3.3-13.6 8-17 3.8-2.4 8.3-3.6 12.8-3.5 5.8.2 11.3 1.2 16.6 2.9"/><path d="M97.7 27.4L66.4 8.3 58.5 49.7z"/></g><g transform="translate(0 11)"><path d="M117.7 10.3l9 22.6c.2.4.3.8.3 1.2 0 .4-.2.8-.4 1.1-.8 1.5-2 2.9-3.4 3.9-1.1.8-2.3 1.4-3.6 1.7l1.4 5.3c2.4-.4 4.7-1.5 6.5-3.2 2.9-2.5 5.2-6.6 8.6-15.8l6.2-16.8h-6.7l-3.9 13.1c-.5 1.6-.9 3.4-1.3 4.9h-.2c-.4-1.4-.9-3.3-1.4-4.8l-4.5-13.2h-6.6M113.6 29v-8.9c0-5.4-2.3-10.3-10.2-10.3-3.1-.1-6.2.7-8.9 2.2l1.2 4.1c2-1.2 4.3-1.8 6.6-1.8 4.3 0 5 2.7 5 4.3v.4c-9.1 0-14.6 3.1-14.6 9.3 0 4 3.2 7.3 7.3 7.3h.5c2.8.1 5.4-1.1 7.2-3.3h.2l.4 2.7h5.6c-.2-2.1-.4-4-.3-6zm-6.3-1.4c-.7 2.1-2.7 3.4-4.9 3.4-1.8.2-3.4-1.2-3.5-3v-.6c0-3.7 4.2-4.7 8.6-4.6v3.4c0 .5 0 1-.2 1.4z" fill="#2A4047"/><g transform="translate(66)"><path fill="#FFF" d="M0.6 34.9L0.6 34.9 0.5 34.9z"/><path d="M20.1 3.4C17.9 1.6 14.6.6 10 .6 6.8.6 3.6.8.5 1.3v33.6h6.2V22.1c1 .2 2 .2 3 .2 4.4 0 8.3-1.2 10.8-3.6 2-2.1 3.1-4.9 2.9-7.7.1-3-1.1-5.8-3.3-7.6zm-10.4 14c-1 0-2 0-3-.2V5.6c1.2-.2 2.4-.3 3.6-.3 4.3 0 6.9 2.1 6.9 5.8 0 4-2.8 6.3-7.5 6.3z" fill="#2A4047"/></g><path d="M47.9 9.7c-7.5-.1-12.8 4.9-12.8 13 0 7.9 5.4 12.7 12.3 12.7 6.3 0 12.6-4 12.6-13.1.2-7.4-4.7-12.6-12.1-12.6zm-.2 21.2c-3.8 0-6.1-3.6-6.1-8.3 0-4.1 1.8-8.3 6.2-8.3v-.1c4.2 0 6 4.4 6 8.3-.1 4.9-2.5 8.4-6.1 8.4zM29.3 16h-12v4.9h6v8.5c-1.5.5-3.1.8-4.7.7-7.1 0-11.8-4.6-11.8-12.3 0-7.9 5.1-12.2 12.4-12.2 2.7-.1 5.3.5 7.7 1.5l1.4-5c-2.9-1.2-6-1.7-9-1.6C8 .5.3 7.4.3 18.2c0 5.2 1.7 9.7 4.8 12.5 3.2 3.1 7.6 4.5 13.3 4.5 3.7 0 7.4-.7 11-1.9L29.3 16z" fill="#2A4047"/></g></g></svg>