<?xml version="1.0" encoding="UTF-8" standalone="no"?>
<svg width="97px" height="85px" viewBox="0 0 97 85" version="1.1" xmlns="http://www.w3.org/2000/svg" xmlns:xlink="http://www.w3.org/1999/xlink">
    <!-- Generator: Sketch 46.2 (44496) - http://www.bohemiancoding.com/sketch -->
    <title>icn-ideal</title>
    <desc>Created with Sketch.</desc>
    <defs>
        <polygon id="path-1" points="0 84.9903226 0 0.00387096774 96.2371592 0.00387096774 96.2371592 84.9903226"></polygon>
    </defs>
    <g id="Page-1" stroke="none" stroke-width="1" fill="none" fill-rule="evenodd">
        <g id="Payment-Icons" transform="translate(-980.000000, -897.000000)">
            <g id="icn-ideal" transform="translate(980.000000, 897.000000)">
                <polygon id="Fill-1" fill="#0A0B09" points="11.3333333 75.0833333 26.9166667 75.0833333 26.9166667 48.1666667 11.3333333 48.1666667"></polygon>
                <g id="Group-5">
                    <mask id="mask-2" fill="white">
                        <use xlink:href="#path-1"></use>
                    </mask>
                    <g id="Clip-3"></g>
                    <path d="M27.2830331,34.8779032 C27.2830331,39.761129 23.3744474,43.7220968 18.5536408,43.7220968 C13.7329934,43.7220968 9.82424848,39.761129 9.82424848,34.8779032 C9.82424848,29.9946774 13.7329934,26.0354839 18.5536408,26.0354839 C23.3744474,26.0354839 27.2830331,29.9946774 27.2830331,34.8779032" id="Fill-2" fill="#0A0B09" mask="url(#mask-2)"></path>
                    <path d="M54.2824799,5.64903226 C65.0055741,5.64903226 73.9426006,8.59193548 80.127519,14.1596774 C87.1190898,20.4535484 90.6641565,29.9891935 90.6641565,42.5019355 C90.6641565,67.3 78.7635664,79.3548387 54.2824799,79.3548387 C52.3798567,79.3548387 10.4654623,79.3548387 5.57300275,79.3548387 C5.57300275,74.2977419 5.57300275,10.7059677 5.57300275,5.64903226 C10.4654623,5.64903226 52.3798567,5.64903226 54.2824799,5.64903226 Z M55.3294083,0.00387096774 L0,0.00387096774 L0,85 L55.3294083,85 L55.3294083,84.983871 C67.4153405,84.8170968 76.9897592,81.7758065 83.784205,75.9203226 C92.0473758,68.7990323 96.2371592,57.5553226 96.2371592,42.5019355 C96.2371592,35.306129 95.1351377,28.8516129 92.9618259,23.3179032 C90.8826182,18.0241935 87.8099829,13.5232258 83.8295851,9.93983871 C76.8190661,3.62887097 66.9782579,0.216451613 55.3294083,0.0225806452 C55.3294083,0.0224193548 55.3294083,0.00387096774 55.3294083,0.00387096774 L55.3294083,0.00387096774 Z" id="Fill-4" fill="#0A0B09" mask="url(#mask-2)"></path>
                </g>
                <path d="M53.5489171,72.25 L34,72.25 L34,11.3333333 L53.5489171,11.3333333 L52.7599523,11.3333333 C69.0631021,11.3333333 86.4166667,17.8148394 86.4166667,41.8717377 C86.4166667,67.3041908 69.0631021,72.25 52.7599523,72.25 L53.5489171,72.25" id="Fill-6" fill="#B9215E"></path>
                <path d="M32.4769516,30.7348047 L32.4769516,40.0985287 L34.5199837,40.0985287 C35.2840685,40.0985287 35.8356117,40.0535979 36.1746134,39.9635815 C36.6183328,39.8478461 36.986472,39.6517001 37.2793268,39.3752985 C37.5718858,39.0988969 37.8109027,38.6440117 37.9957858,38.010798 C38.1806688,37.3775842 38.2731104,36.5144489 38.2731104,35.4215471 C38.2731104,34.3286452 38.1806688,33.4896796 37.9957858,32.9044953 C37.8109027,32.3196208 37.5520663,31.8631863 37.2192768,31.5353467 C36.8864872,31.2073522 36.4642142,30.9856422 35.9527537,30.8697519 C35.5705633,30.7798903 34.8218608,30.7348047 33.7064981,30.7348047 L32.4769516,30.7348047 Z M29.75,28.3333333 L34.7387374,28.3333333 C35.8638619,28.3333333 36.7214236,28.4235047 37.3117183,28.6038475 C38.1046449,28.8486426 38.7839793,29.2835413 39.3495737,29.9085436 C39.915168,30.5333909 40.3454279,31.2984532 40.6406493,32.2035755 C40.9357227,33.1086978 41.0833333,34.2248397 41.0833333,35.5518463 C41.0833333,36.7180317 40.9448929,37.7229313 40.6683078,38.5668548 C40.3301936,39.5977832 39.8475748,40.4319459 39.2205992,41.0698076 C38.7471506,41.5530456 38.107751,41.9298442 37.3024002,42.2003584 C36.6998293,42.4002227 35.8946264,42.5 34.886348,42.5 L29.75,42.5 L29.75,28.3333333 L29.75,28.3333333 Z" id="Fill-7" fill="#FFFFFE"></path>
                <path d="M35.4090475,27.7246207 C36.554634,27.7246207 37.4320214,27.8139805 38.0168423,27.9905992 C38.782389,28.2239364 39.4484349,28.6448804 39.9951424,29.2414737 C40.5505972,29.8476009 40.9803093,30.6033611 41.2724074,31.4877476 C41.5687228,32.3853846 41.7189893,33.5163587 41.7189893,34.8493213 C41.7189893,36.0150375 41.5785636,37.0288582 41.3017734,37.8626668 C40.9665636,38.8721246 40.4848361,39.6970457 39.8701807,40.3144842 C39.4156325,40.7727558 38.7856692,41.1373047 37.997317,41.3989202 C37.4034364,41.5933139 36.5846248,41.6920459 35.5649372,41.6920459 C35.5649372,41.6920459 31.2036172,41.6920459 30.5310107,41.6920459 C30.5310107,40.949213 30.5310107,28.4674537 30.5310107,27.7246207 C31.2004931,27.7246207 35.4090475,27.7246207 35.4090475,27.7246207 Z M29.75,26.9166667 L29.75,42.5 L35.5649372,42.5 C36.6646003,42.5 37.5627626,42.3885023 38.2342757,42.1687388 C39.1402481,41.8681799 39.8734609,41.4394795 40.4148576,40.8936257 C41.1179234,40.1874739 41.6649433,39.2559028 42.0404533,38.1252519 C42.3453599,37.2066081 42.5,36.1043972 42.5,34.8493213 C42.5,33.4273222 42.3355191,32.2084426 42.0113997,31.2266169 C41.6829066,30.231379 41.1952435,29.3765636 40.5618438,28.6854397 C39.9192282,27.9844588 39.1369678,27.4896677 38.2366187,27.2152865 C37.5705727,27.0142675 36.645856,26.9166667 35.4090475,26.9166667 L29.75,26.9166667 L29.75,26.9166667 Z" id="Fill-8" fill="#FFFFFE"></path>
                <path d="M34.3166565,30.6159729 C35.7779507,30.6159729 36.3994335,30.6923517 36.6632872,30.7562605 C37.1461106,30.8691833 37.543975,31.0830786 37.8491861,31.3932701 C38.1590458,31.7081379 38.4065489,32.1627736 38.5849627,32.7445342 C38.7707504,33.3515812 38.865167,34.2523661 38.865167,35.4221223 C38.865167,36.5951691 38.7697886,37.5262632 38.5820773,38.1899448 C38.4043047,38.8181215 38.1816481,39.2658295 37.9205195,39.5204255 C37.654101,39.779871 37.3089753,39.9679603 36.8947603,40.0793244 C36.5597334,40.1711175 35.9895466,40.2173605 35.1983061,40.2173605 C35.1983061,40.2173605 33.922479,40.2173605 33.384833,40.2173605 C33.384833,39.4559971 33.384833,31.3773362 33.384833,30.6159729 C33.7767663,30.6159729 34.3166565,30.6159729 34.3166565,30.6159729 Z M32.5833333,29.75 L32.5833333,41.0833333 L35.1983061,41.0833333 C36.0679332,41.0833333 36.6868513,41.029643 37.0900056,40.9191449 C37.6314987,40.7736614 38.0918801,40.5190654 38.4572037,40.163497 C38.8329467,39.7973636 39.1245323,39.2346545 39.3484713,38.4429821 C39.562632,37.6869877 39.6666667,36.6987395 39.6666667,35.4221223 C39.6666667,34.1420412 39.5616702,33.1771742 39.3457462,32.4724455 C39.1251735,31.7524757 38.8063369,31.1771233 38.3983736,30.7624955 C37.9856013,30.3430182 37.4599778,30.0565544 36.8359302,29.9105514 C36.3912582,29.8026512 35.5661944,29.75 34.3166565,29.75 L32.5833333,29.75 L32.5833333,29.75 Z" id="Fill-9" fill="#FFFFFE"></path>
                <polyline id="Fill-10" fill="#FFFFFE" points="45.3333333 42.5 45.3333333 28.3333333 56.3810402 28.3333333 56.3810402 30.7348047 48.3426942 30.7348047 48.3426942 33.8722107 55.8199065 33.8722107 55.8199065 36.2736821 48.3426942 36.2736821 48.3426942 40.0985287 56.6666667 40.0985287 56.6666667 42.5 45.3333333 42.5"></polyline>
                <path d="M55.6389658,27.7246207 C55.6389658,28.1835386 55.6389658,28.9622448 55.6389658,29.4213243 C54.9530706,29.4213243 48.1405555,29.4213243 48.1405555,29.4213243 L48.1405555,33.5014923 C48.1405555,33.5014923 54.4351093,33.5014923 55.1155234,33.5014923 C55.1155234,33.9604103 55.1155234,34.7391164 55.1155234,35.1981959 C54.4351093,35.1981959 48.1405555,35.1981959 48.1405555,35.1981959 L48.1405555,39.9953424 C48.1405555,39.9953424 55.2169233,39.9953424 55.9054067,39.9953424 C55.9054067,40.4544219 55.9054067,41.2329664 55.9054067,41.6920459 C55.2243836,41.6920459 46.7756164,41.6920459 46.0945933,41.6920459 C46.0945933,40.949213 46.0945933,28.4674537 46.0945933,27.7246207 C46.7736371,27.7246207 54.9599219,27.7246207 55.6389658,27.7246207 Z M45.3333333,26.9166667 L45.3333333,42.5 L56.6666667,42.5 L56.6666667,39.1873883 C56.6666667,39.1873883 49.5901466,39.1873883 48.9018154,39.1873883 C48.9018154,38.6084084 48.9018154,36.5851298 48.9018154,36.00615 C49.5820773,36.00615 55.8767834,36.00615 55.8767834,36.00615 L55.8767834,32.6935383 C55.8767834,32.6935383 49.5820773,32.6935383 48.9018154,32.6935383 C48.9018154,32.160127 48.9018154,30.762528 48.9018154,30.2292784 C49.5875583,30.2292784 56.4002257,30.2292784 56.4002257,30.2292784 L56.4002257,26.9166667 L45.3333333,26.9166667 L45.3333333,26.9166667 Z" id="Fill-11" fill="#FFFFFE"></path>
                <path d="M67.0019255,36.8836558 L65.0558038,31.6352789 L63.1487466,36.8836558 L67.0019255,36.8836558 Z M72.25,42.5 L69.1487738,42.5 L67.9167757,39.2851271 L62.2763579,39.2851271 L61.1078202,42.5 L58.0833333,42.5 L63.5698093,28.3333333 L66.6040236,28.3333333 L72.25,42.5 L72.25,42.5 Z" id="Fill-12" fill="#FFFFFE"></path>
                <path d="M65.6529989,27.7246207 C65.8366727,28.1964659 70.6963214,40.6838808 71.0886724,41.6920459 C70.396279,41.6920459 69.141542,41.6920459 68.780642,41.6920459 C68.6156816,41.2510646 67.5260623,38.3390365 67.5260623,38.3390365 L61.2364946,38.3390365 C61.2364946,38.3390365 60.2061604,41.2416923 60.0463894,41.6920459 C59.6836023,41.6920459 58.4925535,41.6920459 57.8157284,41.6920459 C58.1945554,40.6903445 62.9167634,28.2032527 63.097921,27.7246207 C63.5039532,27.7246207 65.2505836,27.7246207 65.6529989,27.7246207 Z M62.5597947,26.9166667 L56.6666667,42.5 L60.5964671,42.5 C60.5964671,42.5 61.6268013,39.5973442 61.7865723,39.1469906 C62.2606959,39.1469906 66.5201026,39.1469906 66.9860489,39.1469906 C67.1510093,39.5881335 68.2407859,42.5 68.2407859,42.5 L72.25,42.5 L66.1851496,26.9166667 L62.5597947,26.9166667 L62.5597947,26.9166667 Z" id="Fill-13" fill="#FFFFFE"></path>
                <path d="M64.4429209,33.5164075 C64.8054112,34.7125566 65.4183372,36.7348346 65.6314656,37.4378402 C65.0508197,37.4378402 63.8557925,37.4378402 63.278454,37.4378402 C63.4864228,36.7377584 64.0871777,34.7148306 64.4429209,33.5164075 Z M62.3333333,38.25 L66.5833333,38.25 L64.436703,31.1666667 L62.3333333,38.25 L62.3333333,38.25 Z" id="Fill-14" fill="#FFFFFE"></path>
                <polyline id="Fill-15" fill="#FFFFFE" points="75.0833333 42.5 75.0833333 28.3333333 78.3293761 28.3333333 78.3293761 40.078668 86.4166667 40.078668 86.4166667 42.5 75.0833333 42.5"></polyline>
                <path d="M78.095427,27.7309535 C78.095427,28.4918232 78.095427,39.9757107 78.095427,39.9757107 C78.095427,39.9757107 84.8696156,39.9757107 85.5998498,39.9757107 C85.5998498,40.4383885 85.5998498,41.2230353 85.5998498,41.6857131 C84.8758234,41.6857131 76.6243399,41.6857131 75.9001502,41.6857131 C75.9001502,40.9375464 75.9001502,28.4791203 75.9001502,27.7309535 C76.4149081,27.7309535 77.5806691,27.7309535 78.095427,27.7309535 Z M75.0833333,26.9166667 L75.0833333,42.5 L86.4166667,42.5 L86.4166667,39.1614239 C86.4166667,39.1614239 79.6424781,39.1614239 78.9122438,39.1614239 C78.9122438,38.4003914 78.9122438,26.9166667 78.9122438,26.9166667 L75.0833333,26.9166667 L75.0833333,26.9166667 Z" id="Fill-16" fill="#FFFFFE"></path>
            </g>
        </g>
    </g>
</svg>