<svg xmlns="http://www.w3.org/2000/svg" x="2000" viewBox="0 0 1910.844 891.212" enable-background="new 0 0 1910.844 891.212"><g><path fill="#EF5232" d="M63.08 4.7c38.08-12.68 81 .92 104.3 33.7 30.32 41.26 19.3 103.9-24.02 131.56-45.05 29.26-108.15 13.67-132.83-34.5C-15.8 85.36 9.33 22.34 63.08 4.7zm-43.2 252.38c48.64 0 97.34 0 145.97 0 0 210.12.06 420.25-.07 630.37-48.63-.06-97.2-.06-145.83 0-.13-210.12-.07-420.25-.07-630.37z"/><path fill="#59595A" d="M1476.03 4.1c46.1-14.27 98.26 10.6 113.8 56.8 16.57 44.04-4.33 95.4-47.05 115.1-43.73 20.43-98 4.05-120.9-39-27.13-51.03-1.72-116.4 54.15-132.9zM238.57 15.83c37.95 4.77 74.5 10.6 109.2 27.66 47.9 22.36 86.86 61.9 107.7 110.47 20.22 46.3 25.07 94.42 25.6 144.44-.07 104.05-.13 208.08 0 312.12-.4 67.47-14.53 139.46-52.08 196.52-24.03 36.9-61.06 64.56-104.05 74.97-29.13 7.7-58.98 5.2-89.37 5.4-.13-53.3-.07-106.63-.07-159.98 22.64-1.6 46.52.6 64.3-16.2 22.63-21.3 26.4-51.34 27-80.87-.06-117.3-.12-234.4.08-351.7-.14-31.66-8.16-66.7-34.1-87.26-17.26-13.94-36.63-15.6-57.66-19.12 20.23-44.52 26.54-90.9 9.62-137.8-2.06-6.24-4.12-12.4-6.17-18.64zm1413.55 65.4c48.03.08 96.14.02 144.24.02 0 59.7-.07 119.42.07 179.07 38.08.13 76.23.07 114.3.07.15 38.68.15 77.42 0 116.1-38.07 0-76.22-.06-114.3.07-.14 91.23.06 182.4-.2 273.62.4 25.6 3.25 53.14 23.88 70.98 14.14 12.54 31.66 13.6 49.44 17.26-.46 49.62-.13 99.25-.2 148.88-14.93.13-29.92.4-44.85.27-44.26 1.7-89.05-20.25-119.5-51.5-38.5-40.27-53.08-98.26-53.02-152.73.2-200.7-.06-401.4.14-602.1zM1429.85 257.1c48.63 0 97.2 0 145.84 0 .05 210.12.12 420.25 0 630.37-48.65-.13-97.2-.13-145.85 0-.13-210.12-.06-420.25 0-630.37zm-520.7 160.9c.2-29.53-2.46-58.13-13.87-85.53-24.94-64.95-97-107.68-165.47-105.56-33.96-.28-65-.94-96.06 15.32-40.6 21.63-65.36 63.7-79.82 105.9-13.2 39.47-20.17 81.2-19.97 122.8.2 70.86.2 141.72 0 212.58 0 42.8 5.84 84.33 27.2 122.08 28.66 52.6 89.1 86.32 148.75 85.4 46.32.65 88.05 1.98 126.4-28.07 50.5-39.27 71.92-114.5 69.93-176.15-45.12-.2-90.23.2-135.35-.33-2.85 21.03.26 44.85-19.7 58.2-27.54 16.1-69.54-1.47-75.24-34.58-5.18-33.1-1.66-67.8-2.4-101.32 78.43 0 156.92 0 235.34 0 .2-63.56-.06-127.19.27-190.75zm-139.6 72.98c-30.92 0-61.83 0-92.75 0 .66-30.26-2.6-61.77 2.25-91.7 6.44-32.37 55.67-48.5 75.7-19.3 21.7 28.53 13.48 76.96 14.8 111zm587.38-73c.34-43.64-6.37-89.62-28.06-128.1-20.9-37.16-58.6-63.43-101.78-65.3-41.34-1-77.17 15.53-107.83 42.2.73-81.14.07-162.35.4-243.5-45.9-.13-91.82-.06-137.74-.06 0 288.1-.06 576.17.07 864.2 45.9-.08 91.82 0 137.74 0-.14-14.67-.33-29.34-.6-44 23.1 23.62 47.1 43.86 81.4 47.04 33.25 1.53 68.6 2.85 96.88-17.52 40-27.07 58.25-83.6 59.38-129.77.13-108.28-.2-216.83.13-325.18zm-139.46 66.36c.13 64.16-.27 128.25.27 192.4-.14 13.15.33 27.08-2.6 39.9-6.7 24-35.16 41.52-59.1 31.24-21.9-8.36-31.8-28.33-31.4-51.03-.12-90.7-.12-181.72 0-272.42-.4-22.75 9.5-42.52 31.32-51 26.15-11.43 57.46 10.54 60.45 37.67 2.46 24.22.8 48.9 1.07 73.25z"/></g></svg>