<?xml version="1.0" encoding="UTF-8" standalone="no"?>
<svg width="160px" height="20px" viewBox="0 0 160 20" version="1.1" xmlns="http://www.w3.org/2000/svg" xmlns:xlink="http://www.w3.org/1999/xlink">
    <!-- Generator: Sketch 46.2 (44496) - http://www.bohemiancoding.com/sketch -->
    <title>icn-instadebit</title>
    <desc>Created with Sketch.</desc>
    <defs></defs>
    <g id="Page-1" stroke="none" stroke-width="1" fill="none" fill-rule="evenodd">
        <g id="Payment-Icons" transform="translate(-226.000000, -154.000000)" fill-rule="nonzero">
            <g id="icn-instadebit" transform="translate(226.000000, 154.000000)">
                <polygon id="Shape" fill="#2E5C90" points="29.7281768 0.875138122 26.4220994 18.6077348 21.8430939 18.6077348 25.1403315 0.875138122"></polygon>
                <polygon id="Shape" fill="#2E5C90" points="78.240884 0.875138122 73.6 0.875138122 69.0209945 0.875138122 64.2917127 0.875138122 63.5049724 5.10939227 68.2254144 5.10939227 65.7149171 18.6077348 70.3027624 18.6077348 72.8132597 5.10939227 77.4541436 5.10939227"></polygon>
                <polygon id="Shape" fill="#2E5C90" points="42.7049724 0.875138122 40.8132597 11.0497238 37.6132597 0.875138122 33.0254144 0.875138122 29.7281768 18.6077348 34.3071823 18.6077348 36.198895 8.43314917 39.4077348 18.6077348 43.9867403 18.6077348 47.2928177 0.875138122"></polygon>
                <path d="M47.5226519,12.720442 L51.8718232,12.720442 L51.8718232,13.0563536 C51.8718232,14.384278 52.9483187,15.4607735 54.2762431,15.4607735 L54.2762431,15.4607735 C54.9339182,15.5160169 55.5761636,15.2414227 55.9906131,14.7277887 C56.4050626,14.2141546 56.5377316,13.5283849 56.3447514,12.8972376 C55.8055249,10.6696133 49.361326,11.4740331 49.361326,6.05524862 C49.361326,2.59005525 51.4033149,0.424309392 56.2121547,0.424309392 C57.6988155,0.353594056 59.1467824,0.910774454 60.2025559,1.95982324 C61.2583294,3.00887202 61.8247505,4.45324921 61.7635359,5.94033149 L57.4585635,5.94033149 L57.4585635,5.73701657 C57.4693189,4.64909141 56.6182167,3.74723543 55.5314917,3.69502762 C55.0648957,3.6329019 54.5932757,3.7652981 54.2271823,4.06118177 C53.861089,4.35706544 53.6327105,4.79042142 53.5955801,5.25966851 C53.5955801,7.39005525 61.0209945,6.84198895 61.0209945,12.7911602 L61.0209945,13.118232 C61.0209945,15.7701657 59.1646409,19.040884 53.7458564,19.040884 C50.8729282,19.0232044 47.6110497,17.8209945 47.5226519,12.720442 Z" id="Shape" fill="#2E5C90"></path>
                <rect id="Rectangle-path" fill="#2E5C90" x="138.81105" y="0.875138122" width="4.62320442" height="17.7325967"></rect>
                <path d="M84.1723757,0.883977901 L81.9712707,0.883977901 L74.0685083,18.6077348 L78.2497238,18.6077348 L79.5049724,15.7878453 L84.1723757,15.7878453 L84.1723757,18.6077348 L88.159116,18.6077348 L88.159116,0.883977901 L84.1723757,0.883977901 Z M81.2198895,11.9337017 L84.1723757,5.3038674 L84.1723757,11.9337017 L81.2198895,11.9337017 Z" id="Shape" fill="#2E5C90"></path>
                <polygon id="Shape" fill="#2E5C90" points="159.558011 0.875138122 154.855249 0.875138122 150.523757 0.875138122 145.820994 0.875138122 145.820994 5.25082873 150.523757 5.25082873 150.523757 18.6077348 154.855249 18.6077348 154.855249 5.25082873 159.558011 5.25082873"></polygon>
                <polygon id="Shape" fill="#2E5C90" points="111.955801 14.7447514 111.955801 11.0850829 119.230939 11.0850829 119.230939 7.72596685 111.955801 7.72596685 111.955801 4.73812155 119.832044 4.73812155 119.832044 0.875138122 111.955801 0.875138122 111.21326 0.875138122 107.659669 0.875138122 107.659669 18.6077348 111.21326 18.6077348 111.955801 18.6077348 120.079558 18.6077348 120.079558 14.7447514"></polygon>
                <path d="M98.5635359,0.883977901 L91.4917127,0.883977901 L91.4917127,18.6077348 L98.5635359,18.6077348 C100.281859,18.6033151 101.926434,17.9090528 103.128106,16.680787 C104.329779,15.4525212 104.987883,13.7931466 104.954696,12.0751381 L104.954696,7.40773481 C104.985485,5.69124353 104.326318,4.03416206 103.124907,2.80782541 C101.923496,1.58148875 100.280298,0.888437695 98.5635359,0.883977901 Z M100.552486,11.4033149 C100.547751,13.2364547 99.070613,14.7254103 97.2375691,14.7447514 L95.8232044,14.7447514 L95.8232044,4.73812155 L97.2375691,4.73812155 C99.0878755,4.73812155 100.587845,6.23809131 100.587845,8.08839779 L100.552486,11.4033149 Z" id="Shape" fill="#2E5C90"></path>
                <path d="M133.19779,9.16685083 L133.19779,9.16685083 C133.196157,9.08043067 133.249343,9.00242481 133.330387,8.97237569 C134.705792,8.40607968 135.60312,7.06532406 135.60221,5.57790055 L135.60221,5.05635359 C135.592465,2.74570372 133.71398,0.879082521 131.403315,0.883977901 L122.563536,0.883977901 L122.563536,18.6077348 L131.712707,18.6077348 C132.955268,18.6077348 134.146938,18.1141293 135.025561,17.2355058 C135.904185,16.3568823 136.39779,15.1652132 136.39779,13.9226519 L136.39779,13.1977901 C136.396772,11.3772569 135.152031,9.79304055 133.383425,9.36132597 C133.281401,9.35250209 133.201862,9.26917561 133.19779,9.16685083 Z M127.151381,4.4198895 L129.61768,4.4198895 C130.618505,4.4198895 131.429834,5.2312188 131.429834,6.2320442 C131.429834,7.2328696 130.618505,8.0441989 129.61768,8.0441989 L127.151381,8.0441989 L127.151381,4.4198895 Z M131.712707,13.0917127 C131.713,14.0755284 130.928274,14.8798719 129.944751,14.9038674 L127.18674,14.9038674 L127.18674,11.279558 L129.944751,11.279558 C130.928274,11.3035535 131.713,12.107897 131.712707,13.0917127 L131.712707,13.0917127 Z" id="Shape" fill="#2E5C90"></path>
                <polygon id="Shape" fill="#FE9A16" points="20.2961326 8.30055249 21.6751381 0.875138122 14.3558011 0.875138122 12.9767956 8.30055249"></polygon>
                <polygon id="Shape" fill="#FE9A16" points="12.4110497 11.3325967 11.0585635 18.6077348 18.3779006 18.6077348 19.7303867 11.3325967"></polygon>
                <polygon id="Shape" fill="#FE9A16" points="1.79447514 11.3325967 0.44198895 18.6077348 7.76132597 18.6077348 9.11381215 11.3325967"></polygon>
            </g>
        </g>
    </g>
</svg>