<?xml version="1.0" encoding="UTF-8" standalone="no"?>
<svg width="120px" height="50px" viewBox="0 0 120 50" version="1.1" xmlns="http://www.w3.org/2000/svg" xmlns:xlink="http://www.w3.org/1999/xlink">
    <!-- Generator: Sketch 46.2 (44496) - http://www.bohemiancoding.com/sketch -->
    <title>icn-interac</title>
    <desc>Created with Sketch.</desc>
    <defs></defs>
    <g id="Page-1" stroke="none" stroke-width="1" fill="none" fill-rule="evenodd">
        <g id="Payment-Icons" transform="translate(-944.000000, -22.000000)" fill-rule="nonzero">
            <g id="icn-interac" transform="translate(944.000000, 22.000000)">
                <path d="M48.1822785,44.7493671 C48.1822785,46.9263477 46.417487,48.6911392 44.2405063,48.6911392 L4.85316456,48.6911392 C2.67618391,48.6911392 0.911392405,46.9263477 0.911392405,44.7493671 L0.911392405,5.38481013 C0.911392405,3.20782948 2.67618391,1.44303797 4.85316456,1.44303797 L44.2405063,1.44303797 C46.417487,1.44303797 48.1822785,3.20782948 48.1822785,5.38481013 L48.1822785,44.7493671 Z" id="Shape" fill="#F0B51C"></path>
                <path d="M114.683544,0.607594937 L4.85316456,0.607594937 C2.21824308,0.615933358 0.0842877888,2.74988865 0.0759493671,5.38481013 L0.0759493671,5.38481013 L0.0759493671,44.8101266 L0.0759493671,44.8101266 C0.0759493671,47.4485097 2.21478146,49.5873418 4.85316456,49.5873418 L114.683544,49.5873418 C117.313025,49.5748004 119.438005,47.4396372 119.437975,44.8101266 L119.437975,5.38481013 C119.421561,2.76211767 117.306128,0.636547063 114.683544,0.607594937 Z M4.85316456,48.6911392 C2.67618391,48.6911392 0.911392405,46.9263477 0.911392405,44.7493671 L0.911392405,5.38481013 C0.911392405,3.20782948 2.67618391,1.44303797 4.85316456,1.44303797 L44.2405063,1.44303797 C46.417487,1.44303797 48.1822785,3.20782948 48.1822785,5.38481013 L48.1822785,44.8101266 C48.1822785,46.9871072 46.417487,48.7518987 44.2405063,48.7518987 L4.85316456,48.6911392 Z M118.602532,44.7493671 C118.602568,46.9174807 116.851622,48.6786068 114.683544,48.6911392 L46.9367089,48.6911392 C48.2343748,47.7975901 49.0118596,46.3249091 49.0177215,44.7493671 L49.0177215,5.38481013 C49.0224373,3.80664535 48.242507,2.32933223 46.9367089,1.44303797 L114.683544,1.44303797 C116.860525,1.44303797 118.625316,3.20782948 118.625316,5.38481013 L118.602532,44.7493671 Z" id="Shape" fill="#FFFFFF"></path>
                <path d="M49.0177215,5.38481013 L49.0177215,44.8101266 C49.0224373,46.3882914 48.242507,47.8656045 46.9367089,48.7518987 L114.683544,48.7518987 C116.851622,48.7393663 118.602568,46.9782402 118.602532,44.8101266 L118.602532,5.38481013 C118.602568,3.21669655 116.851622,1.45557042 114.683544,1.44303797 L46.9367089,1.44303797 C48.2343748,2.33658707 49.0118596,3.80926816 49.0177215,5.38481013 Z" id="Shape" fill="#555555"></path>
                <path d="M27.2962025,25.5873418 L27.2962025,17.1189873 L29.5139241,16.5949367 L29.5139241,17.7037975 C29.8685378,16.8727885 30.5627228,16.233917 31.4202532,15.9493671 C31.6173058,15.8782761 31.8300665,15.8625161 32.035443,15.9037975 L32.035443,18.0531646 C31.6377548,18.0587597 31.2452187,18.1439814 30.8810127,18.3037975 C30.0427619,18.6333159 29.5271061,19.4813523 29.6202532,20.3772152 L29.6202532,25.0632911 L27.2658228,25.6101266 L27.2962025,25.5873418 Z" id="Shape" fill="#1C1601"></path>
                <path d="M15.6531646,28.3291139 C15.6531646,28.3291139 15.2886076,27.7822785 15.2886076,25.8835443 L15.2886076,21.6683544 L14.156962,21.9417722 L14.156962,20.1949367 L15.2886076,19.921519 L15.2886076,18.0455696 L17.643038,17.4759494 L17.643038,19.3822785 L19.3063291,18.9873418 L19.3063291,20.7341772 L17.6506329,21.121519 L17.6506329,25.4050633 C17.6506329,27.3493671 18.1746835,27.7367089 18.1746835,27.7367089 L15.6607595,28.3291139 L15.6531646,28.3291139 Z" id="Shape" fill="#1C1601"></path>
                <path d="M19.5493671,23.3012658 C19.4762256,22.1154608 19.7089831,20.9307515 20.2253165,19.8607595 C20.8016365,18.8344805 21.8079466,18.1208645 22.9670886,17.9164557 C25.5493671,17.3240506 26.4759494,18.843038 26.4303797,20.9088608 C26.4303797,21.6683544 26.4303797,21.9949367 26.4303797,21.9949367 L21.8734177,23.0582278 L21.8734177,23.1265823 C21.8734177,24.5544304 22.1696203,25.2303797 23.0734177,25.0481013 C23.6999116,24.9591903 24.1585146,24.4121424 24.1367089,23.7797468 C24.1367089,23.6886076 24.1367089,23.4379747 24.1367089,23.4379747 L26.2632911,22.9367089 L26.2632911,23.3012658 C26.2632911,24.1139241 26.0126582,26.1341772 23.0506329,26.8329114 C20.3012658,27.4708861 19.5493671,25.7696203 19.5493671,23.3012658 Z M23.0810127,19.5037975 C22.321519,19.6860759 21.9265823,20.4075949 21.9265823,21.6303797 L24.2050633,21.0835443 L24.2050633,20.7189873 C24.1974684,19.7468354 23.9240506,19.2911392 23.0886076,19.4734177 L23.0810127,19.5037975 Z" id="Shape" fill="#1C1601"></path>
                <path d="M39.956962,18.3417722 C39.8658228,15.7594937 40.5493671,13.7240506 43.4202532,13.0632911 C45.2582278,12.6531646 45.956962,13.1316456 46.2987342,13.5873418 C46.6627156,14.1362393 46.8312652,14.79171 46.7772152,15.4481013 L46.7772152,15.6075949 L44.4987342,16.1544304 L44.4987342,15.835443 C44.4987342,14.8632911 44.2253165,14.4759494 43.5037975,14.6582278 C42.6455696,14.8632911 42.3037975,15.6759494 42.3037975,17.2860759 L42.3037975,18.0455696 C42.3037975,19.678481 42.5316456,20.4227848 43.5037975,20.2177215 C44.4759494,20.0126582 44.4759494,19.2911392 44.4759494,18.6303797 L44.4759494,18.1974684 L46.7544304,17.6734177 L46.7544304,18.0151899 C46.8864769,19.9910216 45.4780734,21.7366485 43.5189873,22.0253165 C40.6405063,22.6708861 40.0481013,20.9924051 39.956962,18.3417722 Z" id="Shape" fill="#1C1601"></path>
                <path d="M32.1873418,21.964557 C32.1873418,19.9974684 33.3417722,19.3822785 35.0658228,18.6835443 C36.6303797,18.0455696 36.6531646,17.7341772 36.6531646,17.164557 C36.6531646,16.5949367 36.4556962,16.2835443 35.6962025,16.4810127 C35.1655949,16.5877283 34.7803598,17.0487474 34.7696203,17.5898734 C34.7696203,17.8177215 34.7696203,18.0227848 34.7696203,18.0227848 L32.5974684,18.5468354 C32.5902432,18.1111281 32.6439267,17.6765478 32.756962,17.2556962 C33.0987342,16.078481 34.1392405,15.2886076 35.9316456,14.878481 C38.2101266,14.3316456 39.0151899,15.356962 39.0379747,16.9367089 L39.0379747,20.6734177 C39.0379747,22.4886076 39.3797468,22.7544304 39.3797468,22.7544304 L37.2531646,23.2556962 C37.131636,23.0120232 37.0324944,22.757814 36.956962,22.4962025 C36.5419606,23.3109677 35.7739245,23.8883963 34.8759494,24.0607595 C33.0987342,24.4556962 32.1873418,23.3924051 32.1873418,21.964557 Z M36.6531646,19.2683544 C36.2907852,19.5108242 35.9127425,19.7290234 35.521519,19.921519 C34.897151,20.1287317 34.4771296,20.7143089 34.4810127,21.3721519 C34.4685914,21.6219362 34.5799354,21.8618255 34.7787278,22.0135754 C34.9775203,22.1653254 35.2382777,22.209483 35.4759494,22.1316456 C36.2287017,21.9104299 36.7211524,21.1892278 36.6531646,20.4075949 L36.6531646,19.2683544 L36.6531646,19.2683544 Z" id="Shape" fill="#1C1601"></path>
                <path d="M3.37974684,34.2683544 C2.62891921,34.2683544 2.02025316,33.6596884 2.02025316,32.9088608 C2.01254198,32.6377799 2.09244466,32.3714376 2.24810127,32.1493671 L2.24810127,32.1493671 L2.24810127,32.1493671 L5.44556962,31.3898734 L5.44556962,33.8126582 L5.4,33.8126582 C4.64050633,33.9949367 3.81265823,34.1772152 3.63037975,34.2227848 C3.44810127,34.2683544 3.47088608,34.2683544 3.37974684,34.2683544 Z" id="Shape" fill="#1C1601"></path>
                <path d="M3.37974684,37.3670886 C2.62891921,37.3670886 2.02025316,36.7584226 2.02025316,36.0075949 C2.01254198,35.7365141 2.09244466,35.4701718 2.24810127,35.2481013 L2.24810127,35.2481013 L2.24810127,35.2481013 L5.44556962,34.4886076 L5.44556962,36.9113924 L5.4,36.9113924 C4.64050633,37.0936709 3.81265823,37.2987342 3.63037975,37.321519 C3.44810127,37.3443038 3.47088608,37.3670886 3.37974684,37.3670886 Z" id="Shape" fill="#1C1601"></path>
                <path d="M3.37974684,40.4734177 C2.62891921,40.4734177 2.02025316,39.8647517 2.02025316,39.1139241 C2.01254198,38.8428432 2.09244466,38.5765009 2.24810127,38.3544304 L2.24810127,38.3544304 L5.46075949,37.5949367 L5.46075949,40.0177215 L5.41518987,40.0177215 C4.6556962,40.2 3.80506329,40.4050633 3.64556962,40.4278481 C3.5586488,40.4516194 3.46962217,40.4668811 3.37974684,40.4734177 L3.37974684,40.4734177 Z" id="Shape" fill="#1C1601"></path>
                <polygon id="Shape" fill="#1C1601" points="3.03797468 31.2987342 3.03797468 17.7265823 5.50632911 17.1341772 5.50632911 30.7063291"></polygon>
                <path d="M9.17468354,30.1443038 C9.17468354,29.3053903 8.49460975,28.6253165 7.6556962,28.6253165 C6.81678266,28.6253165 6.13670886,29.3053903 6.13670886,30.1443038 L6.13670886,42.8278481 C6.13670886,45.1054984 7.98310922,46.9518987 10.2607595,46.9518987 L14.5898734,46.9518987 L14.5898734,35.7341772 C14.5814413,35.0648895 14.23582,34.4450562 13.6708861,34.0860759 L9.87341772,31.4810127 L9.87341772,37.4126582 C9.86939347,37.5997215 9.71870886,37.7504061 9.53164557,37.7544304 C9.44294504,37.754657 9.35815552,37.7179402 9.29763333,37.653095 C9.23711115,37.5882498 9.20632217,37.5011325 9.21265823,37.4126582 C9.17468354,37.3443038 9.17468354,30.9113924 9.17468354,30.1443038 Z" id="Shape" fill="#1C1601"></path>
                <path d="M11.2405063,20.6734177 C10.2921836,20.8856949 9.4876571,21.5092725 9.04556962,22.3746835 L9.04556962,21.4253165 L6.83544304,21.9417722 L6.83544304,28.0177215 C7.10280362,27.9173484 7.38535216,27.8634073 7.67088608,27.8582278 C8.2315115,27.8463769 8.77527681,28.0502889 9.18987342,28.4278481 L9.18987342,24.5012658 C9.09532637,23.700334 9.56378961,22.9394743 10.321519,22.6632911 C10.8227848,22.5493671 11.2481013,22.7316456 11.2481013,23.635443 L11.2481013,29.3696203 L13.6025316,28.8227848 L13.6025316,22.7848101 C13.5721519,21.2658228 12.9797468,20.2632911 11.2405063,20.6734177 Z" id="Shape" fill="#1C1601"></path>
                <path d="M45.3265823,11.9772152 C44.5254198,11.9772152 43.8759494,11.3277447 43.8759494,10.5265823 C43.8759494,9.72541984 44.5254198,9.07594937 45.3265823,9.07594937 C46.1277447,9.07594937 46.7772152,9.72541984 46.7772152,10.5265823 C46.7792488,10.9119339 46.6270678,11.2820907 46.3545792,11.5545792 C46.0820907,11.8270678 45.7119339,11.9792488 45.3265823,11.9772152 L45.3265823,11.9772152 Z M45.3265823,9.25822785 C44.6260895,9.25822785 44.0582278,9.82608947 44.0582278,10.5265823 C44.0582278,11.2270751 44.6260895,11.7949367 45.3265823,11.7949367 C46.0270751,11.7949367 46.5949367,11.2270751 46.5949367,10.5265823 C46.5949367,10.1901938 46.4613069,9.86758286 46.2234443,9.62972026 C45.9855817,9.39185766 45.6629708,9.25822785 45.3265823,9.25822785 L45.3265823,9.25822785 Z" id="Shape" fill="#1C1601"></path>
                <path d="M44.8101266,9.66835443 L45.4481013,9.66835443 C45.5736292,9.65031543 45.7003183,9.69248664 45.7899918,9.78216014 C45.8796653,9.87183363 45.9218365,9.99852268 45.9037975,10.1240506 C45.9037975,10.3518987 45.8126582,10.5341772 45.6075949,10.556962 L45.6075949,10.556962 C45.7898734,10.556962 45.8810127,10.6708861 45.8810127,10.921519 L45.8810127,11.2860759 C45.8746529,11.3531546 45.9111322,11.4169935 45.9721519,11.4455696 L45.6455696,11.4455696 C45.6137564,11.3986266 45.5977888,11.3427402 45.6,11.2860759 C45.6106593,11.1724012 45.6106593,11.0579785 45.6,10.9443038 C45.6,10.7392405 45.5316456,10.6708861 45.3493671,10.6708861 L45.121519,10.6708861 L45.121519,11.4303797 L44.8101266,11.4303797 L44.8101266,9.66835443 Z M45.3113924,10.4278481 C45.4936709,10.4278481 45.5848101,10.3139241 45.5848101,10.1316456 C45.5848101,9.94936709 45.4936709,9.83544304 45.3113924,9.83544304 L45.0607595,9.83544304 L45.0607595,10.4050633 L45.3113924,10.4050633 L45.3113924,10.4278481 Z" id="Shape" fill="#1C1601"></path>
                <path d="M54.6835443,25.7164557 L54.6835443,26.3544304 C54.6835443,27.3037975 54.9341772,28.2379747 55.7012658,28.2379747 C56.4683544,28.2379747 56.6734177,27.7139241 56.7873418,26.7189873 L58.6481013,26.7189873 C58.5797468,28.5949367 57.6759494,29.6202532 55.7240506,29.6202532 C52.7316456,29.6202532 52.5949367,27.3417722 52.5949367,25.2911392 C52.5949367,23.1417722 53.0278481,21.121519 55.8075949,21.121519 C58.2303797,21.121519 58.7772152,22.7544304 58.7772152,25.2227848 L58.7772152,25.7012658 L54.6835443,25.7164557 Z M56.8101266,24.4936709 C56.764557,23.2708861 56.6050633,22.5721519 55.7696203,22.5721519 C54.9341772,22.5721519 54.6835443,23.4303797 54.6835443,24.1822785 L54.6835443,24.5012658 L56.8101266,24.4936709 Z" id="Shape" fill="#FFFFFF"></path>
                <polygon id="Shape" fill="#FFFFFF" points="64.6708861 24.2202532 64.6708861 25.9898734 60.4329114 25.9898734 60.4329114 24.2202532"></polygon>
                <polygon id="Shape" fill="#FFFFFF" points="72.1518987 18.7443038 72.1518987 20.5063291 69.8202532 20.5063291 69.8202532 29.4531646 67.6708861 29.4531646 67.6708861 20.5063291 65.3164557 20.5063291 65.3164557 18.7443038"></polygon>
                <path d="M72.0987342,21.3721519 L74.0658228,21.3721519 L74.0658228,22.4582278 L74.0658228,22.4582278 C74.3817272,21.7022177 75.107823,21.1983961 75.9265823,21.1670886 C76.0405063,21.1670886 76.1772152,21.1670886 76.3139241,21.1670886 L76.3139241,23.1341772 C76.1014198,23.1227328 75.8884536,23.1227328 75.6759494,23.1341772 C75.2759316,23.1013775 74.8809822,23.2412128 74.590722,23.5184113 C74.3004618,23.7956098 74.1426025,24.1837069 74.156962,24.5848101 L74.156962,29.4303797 L72.0987342,29.4303797 L72.0987342,21.3721519 Z" id="Shape" fill="#FFFFFF"></path>
                <path d="M77.2405063,23.8632911 L77.2405063,23.6582278 C77.2405063,21.7974684 78.5088608,21.1670886 80.0734177,21.1670886 C82.5417722,21.1670886 82.9974684,22.1848101 82.9974684,23.635443 L82.9974684,27.8734177 C82.9575827,28.4073576 83.0434235,28.9432124 83.2481013,29.4379747 L81.2658228,29.4379747 C81.1383557,29.1746043 81.0537469,28.892575 81.0151899,28.6025316 L81.0151899,28.6025316 C80.6117989,29.3492192 79.7792235,29.7578826 78.9417722,29.6202532 C77.4911392,29.6202532 76.9974684,28.3974684 76.9974684,27.3417722 C76.9974684,25.8227848 77.6126582,25.2151899 79.0329114,24.8278481 L80.2101266,24.5088608 C80.8253165,24.3493671 81.0227848,24.0987342 81.0227848,23.5594937 C81.0227848,23.0202532 80.7493671,22.564557 80.0734177,22.564557 C79.8018592,22.5531532 79.5391821,22.6625428 79.3559866,22.8633251 C79.1727911,23.0641073 79.0878711,23.3356841 79.1240506,23.6050633 L79.1240506,23.8329114 L77.2405063,23.878481 L77.2405063,23.8632911 Z M81.0379747,25.3822785 C80.7682134,25.5653761 80.4707374,25.7038563 80.156962,25.7924051 C79.321519,25.9746835 78.9797468,26.3848101 78.9797468,27.1063291 C78.9797468,27.8278481 79.2075949,28.2379747 79.7392405,28.2379747 C80.0759816,28.2528352 80.4037671,28.1271615 80.6442611,27.8909877 C80.8847551,27.6548139 81.0163494,27.3293602 81.0075949,26.9924051 L81.0075949,25.4050633 L81.0379747,25.3822785 Z" id="Shape" fill="#FFFFFF"></path>
                <path d="M84.5392405,21.3721519 L86.5063291,21.3721519 L86.5063291,22.321519 L86.5063291,22.321519 C86.9123604,21.5719787 87.7132594,21.122766 88.564557,21.1670886 C89.8556962,21.1670886 90.6227848,21.8658228 90.6227848,23.4455696 L90.6227848,29.4227848 L88.564557,29.4227848 L88.564557,23.8632911 C88.564557,23.0506329 88.2911392,22.7316456 87.6835443,22.7316456 C87.0759494,22.7316456 86.5974684,23.164557 86.5974684,24.0683544 L86.5974684,29.4379747 L84.5392405,29.4379747 L84.5392405,21.3721519 L84.5392405,21.3721519 Z" id="Shape" fill="#FFFFFF"></path>
                <path d="M93.7746835,26.8025316 L93.7746835,27.0759494 C93.7363569,27.3822594 93.8350132,27.6898879 94.0443365,27.9167767 C94.2536597,28.1436655 94.5523596,28.2667378 94.8607595,28.2531646 C95.4987342,28.2531646 95.9012658,27.9341772 95.9012658,27.3037975 C95.8976201,26.859372 95.5789294,26.48013 95.1417722,26.4 L93.6911392,25.8759494 C92.6524814,25.6158876 91.935026,24.6677086 91.9670886,23.5974684 C91.9670886,22.2607595 92.8025316,21.1746835 94.9367089,21.1746835 C96.8202532,21.1746835 97.7012658,22.0101266 97.7012658,23.4531646 L97.7012658,23.7949367 L95.8405063,23.7949367 C95.8405063,22.9822785 95.5898734,22.5721519 94.9367089,22.5721519 C94.691118,22.5441953 94.4451813,22.6216072 94.2598809,22.7851927 C94.0745805,22.9487782 93.9672696,23.1832177 93.964557,23.4303797 C93.964557,23.8177215 94.1696203,24.1898734 94.8683544,24.3797468 L96.1139241,24.8126582 C97.4278481,25.2455696 97.9063291,25.8987342 97.9063291,27.0911392 C97.9063291,28.7924051 96.6379747,29.6278481 94.9139241,29.6278481 C92.5822785,29.6278481 91.9443038,28.6101266 91.9443038,27.0683544 L91.9443038,26.7265823 L93.7746835,26.8025316 Z" id="Shape" fill="#FFFFFF"></path>
                <path d="M99.6,22.7848101 L98.5594937,22.7848101 L98.5594937,21.3721519 L99.6,21.3721519 L99.6,20.4607595 C99.6,19.0101266 100.412658,18.5392405 101.749367,18.5392405 C102.136709,18.5392405 102.508861,18.5392405 102.858228,18.5848101 L102.858228,20.0582278 C102.721757,20.0468156 102.584572,20.0468156 102.448101,20.0582278 C101.855696,20.0582278 101.688608,20.2405063 101.688608,20.6962025 L101.688608,21.3949367 L102.888608,21.3949367 L102.888608,22.7848101 L101.688608,22.7848101 L101.688608,29.4455696 L99.6303797,29.4455696 L99.6303797,22.7848101 L99.6,22.7848101 Z" id="Shape" fill="#FFFFFF"></path>
                <path d="M105.56962,25.7164557 L105.56962,26.3544304 C105.56962,27.3037975 105.820253,28.2379747 106.587342,28.2379747 C107.35443,28.2379747 107.559494,27.7139241 107.673418,26.7189873 L109.534177,26.7189873 C109.496203,28.5949367 108.607595,29.6202532 106.640506,29.6202532 C103.602532,29.6202532 103.511392,27.3417722 103.511392,25.2911392 C103.511392,23.1417722 103.944304,21.121519 106.724051,21.121519 C109.146835,21.121519 109.693671,22.7544304 109.693671,25.2227848 L109.693671,25.7012658 L105.56962,25.7164557 Z M107.673418,24.4936709 C107.627848,23.2708861 107.468354,22.5721519 106.632911,22.5721519 C105.797468,22.5721519 105.56962,23.4303797 105.56962,24.1822785 L105.56962,24.5012658 L107.673418,24.4936709 Z" id="Shape" fill="#FFFFFF"></path>
                <path d="M110.992405,21.3721519 L112.959494,21.3721519 L112.959494,22.4582278 L112.959494,22.4582278 C113.275398,21.7022177 114.001494,21.1983961 114.820253,21.1670886 C114.934177,21.1670886 115.070886,21.1670886 115.207595,21.1670886 L115.207595,23.1341772 C114.990027,23.122611 114.771998,23.122611 114.55443,23.1341772 C114.154413,23.1013775 113.759463,23.2412128 113.469203,23.5184113 C113.178943,23.7956098 113.021083,24.1837069 113.035443,24.5848101 L113.035443,29.4303797 L110.977215,29.4303797 L110.977215,21.364557 L110.992405,21.3721519 Z" id="Shape" fill="#FFFFFF"></path>
            </g>
        </g>
    </g>
</svg>