<svg width="120" height="37" xmlns="http://www.w3.org/2000/svg"><defs><linearGradient x1="46.85%" y1="44.143%" x2="15.1%" y2="91.913%" id="a"><stop stop-color="#00353B" offset="0%"/><stop stop-color="#00BCF8" offset="100%"/></linearGradient></defs><g fill="none"><path d="M47.054 16.069a7.28 7.28 0 0 1 4.872-2.106 7.446 7.446 0 0 1 7.486 5.396c1.089 3.671.628 7.073-2.28 9.862a7.152 7.152 0 0 1-9.37.5l-.676-.508-.071 1.51h-4.053c0-.27-.048-.54-.048-.795V8.861c0-.7.175-.954.898-.898.82.06 1.643.06 2.463 0 .668-.048.795.214.795.795v6.357c-.016.255-.016.5-.016.954zm8.742 6.5c0-2.654-1.709-4.672-4.093-4.815a4.387 4.387 0 0 0-4.768 4.148c-.286 2.527 1.041 4.768 3.179 5.332 2.972.835 5.666-1.359 5.674-4.664h.008z" fill="#000"/><path d="M72.993 16.037v-1.59h4.093v16.268h-4.053l-.071-1.494c-.131.067-.256.144-.374.23-3.004 2.782-8.185 2.385-11.03-1.82a9.576 9.576 0 0 1 .977-11.42 7.2 7.2 0 0 1 9.966-.547l.492.373zm-8.741 6.43c0 2.383 1.31 4.235 3.178 4.767a4.395 4.395 0 0 0 5.126-2.13 5.325 5.325 0 0 0-.914-6.246 4.26 4.26 0 0 0-4.808-.715 4.45 4.45 0 0 0-2.566 4.323h-.016zM98.4 23.69a4.554 4.554 0 0 0 6.095 3.783 12.906 12.906 0 0 0 2.138-1.168c.175-.096.437-.255.572-.191 1.081.469 2.138.977 3.25 1.502a7.828 7.828 0 0 1-5.252 3.425 10.657 10.657 0 0 1-5.182-.254 8.241 8.241 0 0 1-5.69-7.645c-.087-3.433 1.065-6.255 4.077-8.01a8.67 8.67 0 0 1 9.234.102c2.996 1.773 3.974 4.681 3.918 8.027a.97.97 0 0 1 0 .23 1.438 1.438 0 0 1-.095.2H98.4zm8.885-3.266c-.47-1.876-2.305-3.036-4.61-2.949-1.947.072-3.695 1.367-3.973 2.949h8.583zM82.983 30.739H78.89V14.448h4.053l.072 1.478c.445-.31.794-.58 1.184-.795a6.08 6.08 0 0 1 7.327.12 5.094 5.094 0 0 1 1.875 4.14c.056 3.703 0 7.398 0 11.126-.012.089-.033.177-.063.262H89.3v-.874c0-2.75 0-5.5-.04-8.25-.011-.462-.05-.924-.12-1.382a2.511 2.511 0 0 0-1.795-2.384 2.98 2.98 0 0 0-3.25 1.04 4.466 4.466 0 0 0-1.042 2.846c-.047 2.67-.055 5.34-.08 8.018.009.27.009.58.009.946z" fill="#000"/><path fill="#000" d="M0.516556291 8.60662252L4.71258278 8.60662252 4.71258278 26.6860927 10.8476821 26.6860927 10.8476821 30.7311258 0.516556291 30.7311258z"/><path fill="#000" d="M117.083444 14.407947L119.46755 14.407947 119.46755 17.8649007 117.083444 17.8649007 117.083444 30.7311258 112.990728 30.7311258 112.990728 17.9284768 110.85298 17.9284768 110.85298 14.4238411 112.95894 14.4238411 112.95894 8.31258278 117.043709 8.31258278z"/><circle fill="#0AB3E9" cx="27.242" cy="19.343" r="14.344"/><path d="M34.03 31.462l-.287.175c-.23.334-.628.302-.946.437-2.567 1.43-5.316 1.542-8.137 1.168a.922.922 0 0 1-.422-.15c.064-.366-.381-.62-.222-1.01a6.358 6.358 0 0 0 2.495 0c.39-.087.43-.278.342-.596a.7.7 0 0 1 .215-.628.215.215 0 0 1 .286.096c.058.128.096.265.11.405.025.226.181.416.398.485a3.242 3.242 0 0 0 2.432-.278 6.962 6.962 0 0 1 2.106-.684c.429-.025.807-.29.977-.683a.548.548 0 0 0 .08-.453.548.548 0 0 1 0-.302.286.286 0 0 1 .27-.151.35.35 0 0 1 .239.214c.044.173.076.348.095.525 0 .103.135.198.222.159.74-.374 1.653-.517 1.987-1.447.096-.27.239-.469.564-.397.358.223 0 .588.175.85a.302.302 0 0 1-.262.286c-.175.191-.397.326-.588.501a4.204 4.204 0 0 1-2.13 1.478z" fill="#18A9E4"/><path d="M37.748 9.918c.183.31.549.493.62.882.064.175.199.31.255.485-.446.294-.12.794-.366 1.208a7.526 7.526 0 0 0-.74 1.406.691.691 0 0 0 .08.644c.12.183.31.358.183.612-.421.222-.604-.143-.858-.342a1.685 1.685 0 0 1-.342-.437.564.564 0 0 1 0-.421 3.886 3.886 0 0 1 .636-2.456c.254-.453.103-.945.286-1.39a.318.318 0 0 1 .246-.191z" fill="#7EDCFC"/><path d="M37.74 15.1c-.914-.875-.246-1.59.16-2.385.158-.31.484-.604.301-1.025-.182-.421.414-.071.31-.365a.19.19 0 0 1 .286 0l.461.794a4.252 4.252 0 0 1-.723 1.947.62.62 0 0 0 0 .843c.31.373-.048.389-.286.46-.238.072-.39-.055-.509-.27z" fill="#76DAFD"/><path d="M40.84 16.816c.479 1.31.54 2.738.175 4.085-.16-.048-.128-.255-.279-.302-.15.159.096.739-.5.453-.143-.072-.23.214-.358.325-.127.112-.167.438-.405.366-.239-.071-.207-.366-.223-.58.001-.154.026-.306.072-.453.08-.223.206-.43.262-.668.239-.675-.071-1.422.254-2.09a.207.207 0 0 1 .223-.055c.318.437.087.898.048 1.35 0 .104.166 0 .071 0-.095 0-.04 0 0-.063.11-.816.332-1.613.66-2.368z" fill="#4ACEFB"/><path d="M40.824 20.074c.27.23.095.556.183.795a7.152 7.152 0 0 1-.477 2.13 4.72 4.72 0 0 0-.374.937c-.278.362-.59.698-.93 1.002a.7.7 0 0 1-.294.159.652.652 0 0 1-.667-.509.898.898 0 0 1 .095-.54l.183-.39c.111-.198.135-.46.397-.54.313-.451.693-.85 1.129-1.184.463-.32.709-.872.636-1.43a.588.588 0 0 1 .119-.43z" fill="#39C9FB"/><path d="M33.95 6.954c.604.274 1.16.644 1.645 1.096.063.167-.056.215-.175.255a.477.477 0 0 1-.151 0h-.056v.063c0 .064 0 .056.04.056.088.139.195.264.318.373.095.128.318.223.127.437-.644 0-1.28-.15-1.923-.206l-.215-.048a1.375 1.375 0 0 1-.922-1.7.374.374 0 0 1 .612-.207c.302.175.485.032.7-.12z" fill="#2AA7D8"/><path d="M33.95 6.954c-.318.238.143.437 0 .675-.247 0-.326-.27-.533-.342a.938.938 0 0 0-.651-.11c.35.524-.302 1.47.794 1.652a.985.985 0 0 1-1.319-.143 3.179 3.179 0 0 1-.85-1.256c-.167-.42-.104-.699.453-.611.23.05.464.081.699.095-.366-.095-.795 0-1.184-.262 0-.453-.652-.47-.572-.946l.914.183.19.071a.7.7 0 0 0 .732.223l1.327.77z" fill="#2AABDC"/><path d="M38.336 15.163c.072 0 .27-.064.183-.127-.73-.493-.214-.986 0-1.407.175-.294.47-.46.31-.898-.111-.302.262-.445.413-.66.343.522.61 1.09.795 1.685-.12.127-.278.255-.214.453.206.66-.318.954-.644 1.343-.286-.071-.692.056-.843-.39z" fill="#6DD8FC"/><path d="M18.334 30.087c-.31-.189-.58-.437-.795-.73 0-.438-.445-.851-.064-1.312.573.056.946.485 1.391.795.439.208.866.438 1.28.691a1.9 1.9 0 0 1 .159 1.152c-.255.302-.509.096-.795 0-.437-.174-.763-.484-1.176-.596z" fill="#208BC5"/><path d="M38.94 24.993l.16-.15c.27.19.222.556.428.794l-.913 1.653c-.096.413-.247.795-.708.89-.35-.357-.548.183-.85.151a.39.39 0 0 1-.238-.206 1.136 1.136 0 0 1-.088-.748 8.416 8.416 0 0 0 2.21-2.384z" fill="#1C9CD5"/><path d="M13.51 22.41a.795.795 0 0 1-.135-.603.795.795 0 0 1 .206-.74.532.532 0 0 1 .43-.119c.35.207.357.62.556.914.252.525.544 1.03.874 1.51.038.058.07.12.095.183.068.188.165.365.287.524.54.795 1.271 1.383 1.78 2.186a.262.262 0 0 1-.207.222c-.675-.119-.898-.794-1.351-1.16-.207-.175-.294-.477-.596-.636-.278.35-.103.724-.072 1.081.032.358.048.564-.143.795a1.717 1.717 0 0 1-.46-.795 7.59 7.59 0 0 1 .103-1.93c-.215-.653-.636-1.2-.866-1.837-.247.096-.136.517-.501.406z" fill="#1F90C7"/><path d="M40.84 16.816c.135.961-.509 1.724-.795 2.614v-1.51c-.405-.62-.127-1.295-.143-1.939 0-.19.238-.325.469-.166.048 0 .103.119.063.143a4.768 4.768 0 0 1-.453-1.439c0-.206-.11-.421.215-.445.434.848.655 1.79.644 2.742z" fill="#55D0FB"/><path d="M21.703 32.098a3.799 3.799 0 0 1-1.359-.644c0-.206.128-.23.279-.238.15-.008.373.238.143-.127 0-.048.055-.12.135-.151.858.302 1.851 0 2.654.596.207.198.46.413.31.707-.151.294-.445.19-.691.23-.549.112-.962-.333-1.47-.373z" fill="#1C9CD5"/><path d="M40.204 14.074c-.246.612.246 1.089.286 1.653 0 .167.151.5-.215.151-.047-.048-.238 0-.23.19v1.86h-.143a.39.39 0 0 1-.143-.174c-.135-.437 0-.898-.127-1.335-.088-.191-.223-.358-.326-.54a.453.453 0 0 1-.048-.406c.35-.12-.175-.858.54-.747.08 0-.055-.19-.095-.302-.119-.342-.27-.707.35-.652l.151.302z" fill="#61D5FC"/><path d="M15.1 23.77l-.326 2.01a5.285 5.285 0 0 1-.938-2.249.405.405 0 0 1 .31-.485c.278-.08.357.207.532.326.175.12.024.509.421.398z" fill="#2381B9"/><path d="M21.703 32.098c.684-.08 1.343.405 2.05.064a1.001 1.001 0 0 0-.341-.54c-.18-.272-.253-.6-.207-.923 0-.27-.08-.548.104-.794a.548.548 0 0 1 .381-.223c.112.004.211.072.254.175a.532.532 0 0 1 0 .215c0 .135-.095.262-.135.397a1.82 1.82 0 0 0 .191 1.2c.04.135.103.27 0 .405 0 .177.09.341.238.437.294.215 0 .255-.119.35l-1.867-.326c-.056-.31-.406-.246-.549-.437z" fill="#1AA6E0"/><path d="M15.1 23.77c-.128-.183-.104.723-.334 0-.23-.724-.54-.795-.922-.279a2.313 2.313 0 0 1-.334-1.08c.326-.207.087-.588.31-.906.485.72.912 1.477 1.28 2.265z" fill="#2482B9"/><path d="M15.242 26.583v-.795c.358-.04.461.278.644.469.437.46.882.914 1.303 1.39 0 .47.255.923.048 1.4a3.274 3.274 0 0 1-.795-.795c.135-.795-.58-1.018-1.033-1.407l-.167-.262z" fill="#2385BE"/><path d="M20.662 31.32l-.302.134a7.097 7.097 0 0 1-2.01-1.367c.437-.262.667.215 1.009.287.29.084.571.193.842.325l.088-.063c.069.016.13.055.175.111.055.19.27.334.198.572z" fill="#2198D0"/><path d="M13.717 21.155l-.326.652-.112-.048-.04-1.001c-.134-.318 0-.668-.11-.986v-.795c.278-.389.373-.087.437.136.043.33.143.649.294.945.04.064.07.134.087.207.029.314-.053.63-.23.89z" fill="#2A8CC1"/><path d="M39.56 25.621c-.66 0-.23-.548-.429-.795l.906-.953a.23.23 0 0 1 .19.19 5.046 5.046 0 0 1-.667 1.558z" fill="#1F99D1"/><path d="M15.41 26.853c.262-.135.643.127 1.247.866.095.12.35.23.056.406l-.27.143a3.974 3.974 0 0 1-1.034-1.415z" fill="#2381B9"/><path d="M37.748 9.918l-.159.15a2.193 2.193 0 0 1-.707-.182c-.35-.183-.795-.214-1.033-.572a.27.27 0 0 1 0-.199c.334.096.421-.5.795-.294l1.104 1.097z" fill="#3FA9D6"/><path d="M36.675 8.821c-.317 0-.357.604-.794.326-.053.042-.09.042-.111 0l-.358-.286c.056-.23-.27-.374-.143-.628a.318.318 0 0 0 .31-.15c.5.055.723.492 1.096.738z" fill="#91E1FA"/><path d="M17.245 29.03l-.143-1.406c-.127-.175-.08-.286.12-.342a.564.564 0 0 1 .285.366.437.437 0 0 1-.103.445c-.127.437.437.794.087 1.271a.366.366 0 0 1-.246-.334z" fill="#2396CC"/><path d="M40.22 24.087l-.19-.19c0-.366.189-.706.5-.898a1.59 1.59 0 0 1-.31 1.088z" fill="#1E99D0"/><path d="M38.805 11.293h-.286l-.143-.5c.2.108.352.286.43.5z" fill="#74D4F1"/><path d="M26.646 5.722c1.32-1.01 2.694-.461 4.061-.151a1.24 1.24 0 0 1-.723.159c-.087-.048 0 .055 0 .047.23-.071.278.12.35.279a.834.834 0 0 1-.366.794c-.755.04-.858.604-.945 1.184-.406.08-.533-.262-.628-.5a2.384 2.384 0 0 0-1.74-1.685s-.04-.072-.009-.127z" fill="#2CB9E7"/><path d="M26.646 5.722a1.868 1.868 0 0 1 1.717 1.43c.132.355.338.677.604.946.24.204.396.49.437.803a.453.453 0 0 1-.405.413 4.323 4.323 0 0 1-.62.04c-.795.143-1.494.627-2.329.437a.437.437 0 0 1-.103-.437c.723-.724 1.685-.517 2.559-.74 0-.071-.087-.23-.143-.397-.262-.794-.517-.914-1.335-.794a.977.977 0 0 1-.525-.056.43.43 0 0 1-.222-.366c0-.222.198-.286.39-.302.2-.007.39-.089.532-.23a3.179 3.179 0 0 0-1.892-.334c-.477-.294-.572.382-.937.374a.866.866 0 0 1-.533-.151.413.413 0 0 1-.175-.263.278.278 0 0 1 .143-.254c.199-.056.16-.262.239-.39h.73c.319-.142.557.128.843.152a.103.103 0 0 1 .12 0c.246.174.556 0 .794.135a.087.087 0 0 1 .111-.016z" fill="#27BDEC"/><path d="M17.412 8.988c.167-.318.509-.413.795-.62.445-.055.381.334.468.564.09.373.413.644.795.668.12.19-.206.445.207.66.214.11.39.588.596.89.174.334.484.577.85.667.151 0 .27.16.111.334a1.494 1.494 0 0 1-.794.12 1.732 1.732 0 0 1-1.725-.994 8.034 8.034 0 0 0-1.287-1.74c-.151-.167.016-.358-.016-.549z" fill="#CAF0FD"/><path d="M17.412 8.988c.469.159-.056.31 0 .461a4.633 4.633 0 0 0 1.55 2.615c.277.16.39.501.262.794a.723.723 0 0 1-.072.199c-.18.226-.428.387-.707.46-.27-.698-.914-1.136-1.264-1.771a2.71 2.71 0 0 0-.906-.994c-.087-.278.16-.453.207-.683l.628-.906.302-.175z" fill="#BDEDFD"/><path d="M19.407 9.6c-.493.215-.882-.072-1.01-.795 0-.19 0-.326-.222-.405.747-.731 1.47-1.51 2.622-1.59.128.422-.262.446-.469.613-.294.317-.842.389-.882.945.143.437.644.382.906.652a.183.183 0 0 1 0 .19c-.19.136-.453.144-.635.303a.517.517 0 0 1-.31.087z" fill="#D1F2FC"/><path d="M19.256 8.36c-.279-.15-.096-.294 0-.397.294-.23.604-.445.906-.668a1.28 1.28 0 0 0 .913-.596l.255-.047c.127-.072.214 0 .286.095a.985.985 0 0 1 .111.326.842.842 0 0 1-.159.795 1.788 1.788 0 0 1-.58.373c-.573.09-1.152.13-1.732.12z" fill="#2DC0EB"/><path d="M30.199 6.056l-.342-.437h.85l.12.127a.556.556 0 0 0 .452.326c.358.079.255.278.151.484-.611.342-.898-.15-1.231-.5z" fill="#2CB0E0"/><path d="M22.34 6.048c0-.302.222-.302.444-.302.342 0 .795-.104.533.548a.795.795 0 0 1-.453.23c-.294-.023-.676.048-.525-.476z" fill="#DFF5FB"/><path d="M22.34 6.048c0 .429.365.31.619.333a.167.167 0 0 1 0 .2c-.237.104-.49.17-.747.198a.469.469 0 0 1-.31-.064c-.207-.167.111-.35 0-.524a.723.723 0 0 1 .437-.143z" fill="#6AD6F5"/><path d="M21.854 6.19c.549.12-.127.27 0 .406.096.318-.087.294-.294.238l-.214-.19c-.127-.485.35-.286.508-.453z" fill="#3CC7F3"/><path d="M23.26 6.199c.168-.493-.357-.255-.476-.453a.477.477 0 0 1 .485-.143c.143.206.596-.183.604.302l-.183.11c-.064.24-.19.343-.43.184z" fill="#ADE9F9"/><path d="M23.841 5.905c-.095-.31-.493 0-.604-.302l.795-.151c.047.159.222.294.103.469-.024.031-.167-.008-.294-.016z" fill="#30C6F1"/><path d="M21.115 6.7c-.095.524-.469.62-.914.595.127-.254.588-.119.596-.516l.318-.08z" fill="#47C9EF"/><path d="M25.613 5.563c-.302.071-.556-.127-.842-.151.334-.246.572.056.842.15zm.93.167c-.278 0-.572.119-.795-.135.273-.04.55.008.795.135z" fill="#30C6F1"/><path d="M33.584 29.475v.31c-.89.52-1.851.908-2.853 1.153a5.865 5.865 0 0 1-3.465.54v-.485c.048-.063.101-.121.16-.174.134-.112.27-.279.444-.294a17.666 17.666 0 0 0 4.45-1.272c.285-.125.6-.164.906-.111.171.038.308.166.358.333z" fill="#1D97D0"/><path d="M23.722 30.397a.326.326 0 0 1 .15-.31c.517-.278.986.16 1.495.104 0-.04 0-.064-.048-.096-.31-.19-.945-.333-.794-.675.15-.342.723-.048 1.056.095a7.39 7.39 0 0 1 1.844.692.509.509 0 0 1-.326.651l-.15.62h-.12c-.85-.214-1.74-.071-2.599-.262-.492-.088-.723-.294-.508-.819z" fill="#1E91CA"/><path d="M27.274 31.478a7.63 7.63 0 0 0 2.956-.556c.962-.39 2.13-.421 2.91-1.264.158-.167.27.199.452.127.175.104 0 .207 0 .31a1.82 1.82 0 0 1-1.097.731c-1.589.493-3.075 1.153-4.768 1.121-.294-.016-.35-.27-.453-.469z" fill="#1B9DD6"/><path d="M27.735 31.94c.612-.494 1.383-.223 2.058-.454a18.39 18.39 0 0 0 3.8-1.39c-.128.62-.486.794-1.121.985a9.457 9.457 0 0 0-2.385.89 2.336 2.336 0 0 1-2.352-.032z" fill="#1AA1DB"/><path d="M33.894 29.475l-.151-.15a.27.27 0 0 1-.183-.358 23.841 23.841 0 0 1 2.814-1.884c.23.04.294.23.357.414a.683.683 0 0 1 0 .46 13.089 13.089 0 0 1-2.384 1.59.39.39 0 0 1-.453-.072z" fill="#1C97D1"/><path d="M33.894 29.475c.437.048.691-.286 1.017-.476.588-.35 1.168-.708 1.757-1.065.063.135.19.135.31.15l.15.152c0 .135 0 .19-.15.15-.342 0-.493.12-.461.462-.64.436-1.306.832-1.995 1.184-.19.111-.397.23-.62.047l-.008-.604z" fill="#1A9FD8"/><path d="M24.032 32.09l-.151-.302c.294-.278.667-.199 1.017-.207.688.017 1.376-.017 2.058-.103.342.485.334.74-.373.795-.858.048-1.725.397-2.551-.183z" fill="#1A9FD9"/><path d="M27.115 30.858l.31-.612a.715.715 0 0 1 .247-.381c.067-.067.141-.126.222-.175.135-.08.278-.143.421-.215.175-.084.342-.182.5-.294.418-.216.848-.407 1.288-.572.2.018.402.002.596-.047a.66.66 0 0 1 .318 0c.07.028.129.078.167.143a.318.318 0 0 1-.063.318 6.556 6.556 0 0 0-2.925 1.231 2.766 2.766 0 0 0-.795.716h-.15l-.136-.112z" fill="#1B9DD6"/><path d="M33.894 30.087a9.385 9.385 0 0 0 1.868-.961c.253-.122.52-.213.794-.27-.437.89-1.35 1.104-2.122 1.502a.31.31 0 0 1-.54-.27z" fill="#19A5DF"/><path d="M36.977 28.395l.151-.151c.23-.23.446-.58.795-.143-.25.406-.573.761-.953 1.049-.477-.255.007-.54.007-.755z" fill="#1BA7E2"/><path d="M31.12 29.007v-.302a2.162 2.162 0 0 1 2.464.31l.159.31-.159.158-.302-.158a3.346 3.346 0 0 0-1.152-.263c-.342-.047-.676.096-1.01-.055z" fill="#1AA3DB"/><path d="M13.709 14.837l.445-.97c.457.538.56 1.292.262 1.932-.163.26-.288.54-.374.834-.041.141-.091.279-.15.413 0 .072-.056.135-.088.199-.032.064-.12.366-.318.358-.199-.008-.063-.35-.238-.453.1-.78.254-1.553.46-2.313z" fill="#299ED1"/><path d="M13.256 17.15c.15.35.31.333.46 0 .35.62-.063 1.287.128 1.923.17.381.12.824-.127 1.16a1.518 1.518 0 0 1-.31-1.065c0-.238-.12-.238-.286-.175a5.46 5.46 0 0 1 .135-1.843zm-.135 2.622c.238.302.095.652.11.986a1.59 1.59 0 0 1-.11-.986z" fill="#2595CB"/><path d="M36.97 9.759a.898.898 0 0 1 .62.302c.35 1.041-.493 1.788-.708 2.694-.08.342-.238.644-.08.977.16.334-.087.151-.166.191-.612-.095-.795-.516-.843-1.065.17-.517.29-1.05.358-1.59.095-.547.12-1.255.819-1.51z" fill="#87DFFD"/><path d="M35.865 12.85c.135.438.415.817.795 1.073l.047.421c.302.954.08 1.224-.874 1.073a4.856 4.856 0 0 0-.596-.055 1.486 1.486 0 0 1-.636-.104.374.374 0 0 1-.08-.588c.379-.536.601-1.165.645-1.82.119-.278.103-.627.405-.794a.262.262 0 0 1 .23 0c.175.246.096.524.064.794z" fill="#2796CA"/><path d="M39.274 15.457l.135.318c0 .214.096.453-.127.628-.19 0-.31-.151-.5-.191a4.283 4.283 0 0 1-1.892-.795c0-.27-.27-.564.095-.794.279.095.358.54.747.445l.589.055c.278.302.683.103.953.334z" fill="#238AC0"/><path d="M36.993 14.662c-.174.263.064.525 0 .795a.238.238 0 0 1 0 .342.485.485 0 0 1-.238.08c-.795-.247-1.685-.056-2.48-.382-.087-.223.048-.263.215-.27.167-.008.461.071.668-.064.18-.012.36-.012.54 0 .993.15.993.15 1.025-.795l.27.294z" fill="#20A1D8"/><path d="M38.94 23.134l-.302.643c-.572.151-.85-.166-1.025-.651.239-.858.604-1.669.795-2.535.064-.263.183-.5.509-.461a.469.469 0 0 1 .468.564v.445a3.568 3.568 0 0 1-.445 1.995z" fill="#2281B9"/><path d="M39.894 17.777a.262.262 0 0 0 0 .136c-.087.794.19 1.589-.19 2.304-.795.04-1.01-.183-.962-.874.045-.324.112-.646.198-.962.024-.55.08-1.1.167-1.645a.35.35 0 0 1 .414-.159c.074.02.14.062.19.12.199.326.024.739.183 1.08z" fill="#237FB7"/><path d="M38.94 23.134l.47-1.995v.453c.217-.364.523-.668.89-.882 0 0 0 .254.158.302.112-.31-.095-.747.35-.93-.011.61-.07 1.219-.175 1.82-.238 0-.056-.262-.262-.31-.199.795-1.16 1.05-1.36 2.058l-.07-.516z" fill="#40CAFB"/><path d="M39.131 18.381c-.048.247-.08.493-.15.732-.192.675.07 1.025.746 1.112l-.278.469c-.135-.222-.278-.469-.564-.43-.286.04-.207.366-.27.565a12.143 12.143 0 0 1-.867 2.329c-.182.127-.294.063-.365-.128a13.51 13.51 0 0 0 .945-3.083c.012-.114.036-.226.072-.334.161-.416.268-.851.318-1.295a.31.31 0 0 1 .167-.143c.143-.008.175.103.246.206z" fill="#2090C7"/><path d="M38.94 24.993a3.775 3.775 0 0 1-2.153 2.32.12.12 0 0 1-.175 0 1.907 1.907 0 0 0-.342-.5.342.342 0 0 1 0-.206 20.662 20.662 0 0 0 1.804-1.971c.08-.08.167-.135.294-.08a.74.74 0 0 0 .572.437z" fill="#1E91CA"/><path d="M38.36 24.54l-.159.151a1.065 1.065 0 0 0-.977.43c-.127.158-.35.381-.509 0 .15-.604.42-1.172.795-1.67.408.035.772.27.97.628l-.12.461z" fill="#2183BD"/><path d="M38.511 24.08l-.922-.612a.707.707 0 0 1-.302-.048 5.642 5.642 0 0 0-1.24-.421 3.314 3.314 0 0 1-.413-.127.437.437 0 0 1-.254-.215.207.207 0 0 1 .103-.199c.22-.099.465-.124.7-.071.48.069.92.302 1.247.66.07.1.189.155.31.142.223.311.55.531.922.62l-.15.27z" fill="#1B9ED6"/><path d="M30.199 6.056c.453.047.699.627 1.231.46a3.743 3.743 0 0 0 1.733.334 3.974 3.974 0 0 1-1.59.096A1.86 1.86 0 0 0 33.6 8.829h.151a.151.151 0 0 1 0 .19.54.54 0 0 1-.413.128c-.421-.056-.557.183-.588.54a.215.215 0 0 1-.175.104 1.685 1.685 0 0 0-1.447-.676.5.5 0 0 1-.182-.119c0-.373.333-.31.532-.43.08-.683-.357-1.064-.795-1.43-.23-.166-.564-.071-.794-.31.016-.294.405-.468.31-.77z" fill="#25B2E5"/><path d="M33.743 8.98v-.15c.69.01 1.376.107 2.042.285a.207.207 0 0 1 .112 0v.175c0 .1-.05.194-.135.246-.167.151 0 .358-.104.525-.103.167-.278.127-.405 0s-.31-.445-.517-.628a1.136 1.136 0 0 0-.643-.167.795.795 0 0 1-.191-.063.342.342 0 0 1-.159-.223z" fill="#21AADE"/><path d="M35.285 8.21c.095.198.516.317.143.627a.548.548 0 0 1-.326-.437c0-.159 0-.223.183-.19z" fill="#A3E6F9"/><path d="M35.285 8.201l-.183.191c-.103-.103-.318-.23-.23-.334.087-.103.294.032.413.143z" fill="#8CDDF8"/><path d="M17.412 28.085v-.461a.85.85 0 0 1 .254-1.12c.5-.152.612.246.795.556.437.73 1.264.985 1.836 1.589a.7.7 0 0 1-.255.866c-.794 0-1.303-.58-1.923-.93-.254-.174-.477-.35-.707-.5z" fill="#2184BD"/><path d="M20.026 29.475c.105-.296.16-.607.16-.921a.652.652 0 0 1 .047-.302 5.15 5.15 0 0 1 .604-.97c.067-.093.142-.18.223-.262.174-.111.31-.342.564-.16 0 .692-.644 1.002-.85 1.59a2.583 2.583 0 0 0-.255 1.59.795.795 0 0 1-.175.667h-.159a6.31 6.31 0 0 1-.159-1.232z" fill="#1BA0D9"/><path d="M36.668 27.314h.15l.16.795c-.167.08-.318.11-.31-.151v-.461c-.043-.037-.056-.072-.04-.104 0 0 .024-.08.04-.08z" fill="#16A7E1"/><path d="M17.253 27.314a.326.326 0 0 0-.151.31 9.425 9.425 0 0 1-1.852-1.852 1.645 1.645 0 0 1 .104-1.59c.6.798 1.288 1.526 2.05 2.17.199.39-.095.668-.151.962z" fill="#2381B9"/><path d="M14.48 21.926c-.31-.23-.279-.636-.461-.922-.062-.7.237-1.383.794-1.812.207-.095.366-.048.437.143.402.767.742 1.564 1.018 2.384-.167.684-.604.421-.986.27-.381-.15-.516-.397-.803-.063z" fill="#258CC1"/><path d="M15.72 24.08a.469.469 0 0 1-.31-.461c.077-.236.17-.467.277-.692.596-.946.795-.953 1.407-.04.254.604.946.946 1.017 1.653-.127.35-.429.398-.739.414-.31.016-.58-.604-.747-.509-.54.31-.651-.143-.906-.366z" fill="#2483BB"/><path d="M15.72 24.08c.405.445 1.2 0 1.533.69.08.176.54-.055.795-.238.254-.182.318.072.39.255 0 .381-.24.628-.398.93a1.59 1.59 0 0 1-.112.166.993.993 0 0 1-.35.342 7.057 7.057 0 0 1-1.859-2.146z" fill="#237FB8"/><path d="M14.48 21.926c.047-.366 0-.715.564-.278.23.182.699.667 1.136.119a.175.175 0 0 1 .19 0c.088.062.141.163.144.27-.509.382-.715.993-1.113 1.454a3.068 3.068 0 0 1-.922-1.565z" fill="#2486BD"/><path d="M16.331 21.775h-.159a19.653 19.653 0 0 1-1.152-2.639 3.473 3.473 0 0 0-1.01 1.868l-.31.151a1.59 1.59 0 0 1 .152-.922c.13-.6.472-1.132.961-1.502a.707.707 0 0 1 .31-.103.286.286 0 0 1 .19.103c.144.302.215.628.366.922.151.453.382.866.58 1.295.144.263.326.509.072.827z" fill="#209DD4"/><path d="M15.41 23.46a3.123 3.123 0 0 1 1.08-1.542h.095c.239.087.334.31.477.493.095.145.14.319.127.492-.04.104-.095.183-.23.127-.183-.23-.278-.532-.572-.707l-.97 1.327-.008-.19z" fill="#1E9DD2"/><path d="M17.563 26.225a.477.477 0 0 1 .31-.46c.246.317.071.548-.151.794a1.74 1.74 0 0 0-.318 1.073.318.318 0 0 1-.151-.31l.151-.922.159-.175z" fill="#1B9CD3"/><path d="M20.336 30.707v-.794c.255-.207.493 0 .716.047a8.543 8.543 0 0 0 2.384.565v1.104a2.217 2.217 0 0 0-1.415-.302c-.46.08-.795-.214-1.2-.318-.302.12-.326-.183-.46-.31l-.025.008z" fill="#1D93CC"/><path d="M20.336 30.707l.461.31.104.326h-.255c-.167-.199-.373-.35-.31-.636z" fill="#1BA0D9"/><path d="M39.29 16.379c0-.207-.064-.43.12-.604l.341.453c.064.19.19.397-.143.469-.08-.143-.413-.008-.318-.318z" fill="#2586BC"/><path d="M39.608 16.689c.199-.112.135-.302.143-.47.31.494.087 1.034.143 1.59l-.286-1.12z" fill="#55D0FB"/><path d="M27.727 29.936a.525.525 0 0 1-.31.31c-.97-.174-1.867-.588-2.86-.739l1.485.747c-.794.382-1.486-.095-2.177-.159v-.15c.111-.144 0-.334.08-.485a4.41 4.41 0 0 1 .603-.684c.235-.248.484-.482.747-.7l.096-.039c.07-.008.14.009.198.048a.795.795 0 0 1 .112.286c.524.739 1.414.97 2.026 1.565z" fill="#2087C0"/><path d="M23.412 30.548c-.962.414-1.725-.27-2.583-.453a4.37 4.37 0 0 1-.493-.167 1.86 1.86 0 0 1 .326-1.533c.19.142.39.272.596.39l1.677.714c.207.088.533.072.5.445-.166.199-.015.406-.023.604z" fill="#208AC3"/><path d="M26.956 31.47c-.246.405-.667.286-1.017.302h-2.058c-.12-.453-.525-.874-.16-1.39 0 .373.04.588.517.643.604.081 1.212.127 1.82.135.332-.042.663.073.898.31z" fill="#1C98D2"/><path d="M23.42 29.944c-.74-.437-1.59-.572-2.313-1.088.16-.223.366-.207.596-.135.527.073 1.06.086 1.59.04.293.025.57.142.794.333.041.055.06.123.056.19-.143.152-.207.35-.366.486l-.357.174z" fill="#2085BE"/><path d="M23.722 29.777a.485.485 0 0 1 .302-.46c.048.037.066.074.055.11 0 0 0 .056-.047.056 0 .167 0 .342-.151.453l-.16-.159z" fill="#1E91CA"/><path d="M14.94 18.842a7.947 7.947 0 0 0-1.072 1.391h-.151c0-1.025-.294-2.05 0-3.083v-.151c.365-.056.46.222.453.469a.795.795 0 0 0 .683.866c.143.143.246.302.087.508z" fill="#2791C5"/><path d="M35.762 9.457l.135-.135 1.057.429c.119.286-.795.405-.12.795v.063c-1.025.247-.302 1.16-.635 1.677-.12.183-.143.437-.358.564-.246-.23-.071-.524-.111-.794-.12-.09-.222-.2-.302-.326a1.12 1.12 0 0 1 .23-1.486c.247-.23-.246-.565.104-.787z" fill="#8EE0FA"/><path d="M14.956 12.072l.278-.326c.438.27.422.794.795 1.176.5.509.962 1.053 1.383 1.629.23.318.683.294.977.532.16.398.914.318.795.954a1.74 1.74 0 0 1-1.2.453 1.248 1.248 0 0 1-.31-.087c-.413-.128-.437-.731-.93-.795a1.208 1.208 0 0 1-.73-.453c-.223-.167.277-.342 0-.509a2.241 2.241 0 0 1-1.058-2.574z" fill="#A4E6FC"/><path d="M18.334 15.147c-.056.048-.143.151-.167.143a4.45 4.45 0 0 1-1.43-1.192 7.891 7.891 0 0 0-1.209-1.383c-.341-.294 0-.683-.294-.938l.175-.294c.286-.071.27-.54.644-.484.43.324.714.803.795 1.335.11.45.43.818.858.993.286.167.572.326.612.707-.342.358.23.716.016 1.113z" fill="#ABE8FC"/><path d="M14.94 18.842l-.15-.46a2.098 2.098 0 0 1-.422-1.288c-.055-.334-.222-.405-.5-.405a1.335 1.335 0 0 1 .254-.795 2.05 2.05 0 0 0 0-2.042 2.09 2.09 0 0 1 .469-1.073c.469.15.27.556.254.795-.049.459.067.92.326 1.303a.795.795 0 0 1 .095.691c-.572.564-.23 1.248-.23 1.884 0 .397.278.794 0 1.192l-.096.198z" fill="#23A2D5"/><path d="M15.1 15.036c-.58-.413-.485-1.002-.39-1.59.04-.246.175-.476-.095-.675l.333-.723c.16.278.406.54.064.858a.183.183 0 0 0 0 .27c.39.35.365.978.922 1.224.278.12.286.413.071.66 0 .19.207.389 0 .572-.508.119-.62-.366-.906-.596z" fill="#9DE4FC"/><path d="M16.021 10.983c-.206.15-.27.492-.612.46a4.283 4.283 0 0 1 1.073-1.39c.199.262-.12.405-.15.62-.033.214-.128.286-.31.31z" fill="#ABE7FB"/><path d="M29.889 6.826c.31.048.651-.127.922.151 0 .668.166 1.375-.573 1.797-.317.079-.627.262-.961.047-.143-.238-.374-.445-.31-.795.013-.1.013-.201 0-.301-.239-.827.199-1.002.922-.899z" fill="#2CB5E3"/><path d="M26.503 7.287c.303-.093.61-.167.922-.222.636-.135.795.54 1.089.946.175.238-.103.627.35.794-.958.058-1.905.229-2.822.509-.524-.246-.532-.842-.794-1.248.08-.214-.199-.318-.16-.516a.39.39 0 0 1 .223-.215 5.61 5.61 0 0 1 .549-.159.795.795 0 0 1 .643.111z" fill="#2DBEEA"/><path d="M28.347 9.14h.612a4.14 4.14 0 0 1 1.001 2.328c.096.357-.254.429-.532.5a6.66 6.66 0 0 0-1.844.398.977.977 0 0 1-.747-.064.985.985 0 0 1 .62-1.383c.731-.27.636-1.128 1.256-1.406h-.128c-.254.023-.381-.104-.238-.374z" fill="#2CB5E3"/><path d="M28.347 9.14c-.064.34.5.325.405.42-.42.414-.23 1.24-.937 1.415a1.32 1.32 0 0 0-1.002 1.248c-.636-.167-.516-.755-.667-1.2.063-.43-.445-.795-.104-1.272l2.305-.612z" fill="#2CBAE7"/><path d="M21.576 6.834c.135 0 .286-.047.294-.238l.294.064a2.925 2.925 0 0 0 1.272-.302c.147-.088.313-.14.485-.151.101.108.25.159.397.135.278.183.58-.143.858 0 .08.214.413 0 .453.254.04.254-.159.31-.302.421-.302.27-.795.302-.97.715-.073.19-.19.358-.341.493a.977.977 0 0 1-.326.215l-.262.135a.405.405 0 0 1-.294.071c-.239-.389-.795-.524-.7-1.208.056-.31-.588-.15-.842-.373l-.016-.23z" fill="#F4FBFC"/><path d="M27.576 12.223c.493-.557 1.2-.263 1.796-.43.413-.11.517-.182.366-.572-.27-.691-.517-1.383-.795-2.074a.286.286 0 0 0 .31-.31 2.79 2.79 0 0 1 .946-.159c.46-.167.922-.39 1.382 0-.135.247-.484.056-.62.31-.27.366-1.017 0-1.064.509-.072.655.12 1.313.532 1.828a8.336 8.336 0 0 0 1.59.063c.277-.027.556.037.794.183.056.405-.27.342-.485.381a5.61 5.61 0 0 0-.794.096 3.664 3.664 0 0 1-.795.071c-.39.12-.056.549-.31.723a.238.238 0 0 1-.199 0c-.23-.159-.15-.643-.604-.572-.65.138-1.316.18-1.978.127a.135.135 0 0 1-.072-.174z" fill="#24B6E8"/><path d="M26.034 9.751c-.063.453.374.795.31 1.232a.254.254 0 0 1-.19.071.517.517 0 0 1-.199-.111c-.254-.215-.167-.747-.525-.795a3.179 3.179 0 0 0-1.486.239l-.898.39c-.23.087-.445.126-.596-.12-.159-.397 0-.636.398-.723.397-.088 1.033-.255 1.59-.374.794-.175.865-.302.595-1.096a1.59 1.59 0 0 1-.103-.366c0-.08.025-.158.071-.223a.27.27 0 0 1 .326 0c.323.428.59.896.795 1.391l-.088.485z" fill="#26C0F0"/><path d="M25.59 6.66l-.334-.128c-.12-.158 0-.317 0-.476.651-.374 1.263 0 1.875.135a.453.453 0 0 1 .318.381c-.27-.063-.326.318-.58.286-.254-.032-.405-.08-.548.135a.509.509 0 0 1-.557.08c-.159-.088-.111-.27-.175-.413z" fill="#31C2ED"/><path d="M25.272 6.056c.246.167 0 .318 0 .476-.318 0-.66.112-.938-.166.302-.112.381-.922.938-.31zm-1.344.182l-.357.279a.509.509 0 0 1-.604 0 .612.612 0 0 0 0-.112l.294-.182.437-.191.23.206z" fill="#30C6F1"/><path d="M25.74 6.938l.604.055.16.294h-.795a.286.286 0 0 1 .031-.35z" fill="#C7EEF8"/><path d="M20.344 12.072h.914a.477.477 0 0 0 .54-.255c.517-.198.605.398.954.517.15.138.174.366.056.532-.31.23-.747 0-1.041.247.214-.2.485-.12.739-.136.254-.015.469-.063.683.056.255.366-.08.382-.262.358-.183-.024 0 .214-.15.23-.601.377-1.263.646-1.956.795-.175-.151-.334-.326-.548-.04a.358.358 0 0 1-.453.175c-.509-.46-.254-1.208-.612-1.725.246-.468.747-.532 1.136-.754z" fill="#2CB4E2"/><path d="M21.846 11.92c0 .144.112.342-.087.398-.199.056-.374-.111-.5-.27-.851.047-.93-1.057-1.693-1.145.119-.381-.183-.62-.287-.922 0-.11.08-.286.128-.429l.174-.159c.223-.15.596.064.74-.286a.167.167 0 0 1 .182 0 .97.97 0 0 1 .167.247c.136.189.152.44.04.643.247.405.602.733 1.025.946.103.342.016.683.111.978z" fill="#D2F2FC"/><path d="M20.344 12.072c-.276.36-.648.635-1.072.794a.095.095 0 0 1-.144 0 1.049 1.049 0 0 0-.429-.747 6.302 6.302 0 0 1-1.47-2.24c-.12-.215 0-.327.175-.414.795.342 1.097 1.16 1.502 1.804.283.524.844.837 1.438.803z" fill="#C3EEFD"/><path d="M16.021 10.983a.532.532 0 0 1 .31-.31.795.795 0 0 1 .731.508c.255.499.579.959.962 1.367.199.239.373.318.596.16.278.341-.74.341-.12.738.037.06.054.13.048.199-.071.183-.047.453-.365.413-.175-.667-1.002-.635-1.296-1.2-.135-.254-.42-.381-.294-.794.128-.414-.588-.596-.572-1.081z" fill="#B7EBFD"/><path d="M18.477 13.605v-.159c.119-.254.39-.325.596-.469.206-.143.294.088.294.247.08.546.226 1.08.437 1.59a.691.691 0 0 1-.469.587c-.691-.095-1.08-.516-1.01-1.136.014-.227.065-.45.152-.66z" fill="#2CADDD"/><path d="M19.725 14.837c-.406-.548-.35-1.263-.628-1.852a.572.572 0 0 1 0-.135h.143c.206.096.39.16.326.493-.064.334.246.795.302 1.24.087.15.087.278-.143.254z" fill="#27B5E8"/><path d="M20.535 9.155h-.19c-.382-.23-.962-.175-1.09-.795a3.123 3.123 0 0 1 1.86-.27c.215.342-.405.564-.127.914a.207.207 0 0 1-.063.19.318.318 0 0 1-.39-.039z" fill="#DBF4FC"/><path d="M20.32 9.155l-.27.747c-.214-.111-.095-.588-.476-.453.135-.397.46-.31.747-.294z" fill="#3EC3E7"/><path d="M20.964 9.107c-.85-.469.207-.66.151-1.017a.477.477 0 0 1 .445-.358c.143 0 .421-.063.421 0-.047.755.867.676 1.034 1.224a.922.922 0 0 1-.398.723c-.119.096-.318.112-.286.334a.795.795 0 0 1 .048.374.302.302 0 0 1-.239.167c-.445-.16-.445-.676-.747-.946-.095-.127.128-.278 0-.405-.127-.128-.333.055-.429-.096z" fill="#E7F8FB"/><path d="M23.046 9.012c-.246-.294-.794-.135-.93-.556-.286.198-.238-.096-.19-.167.286-.437-.175-.406-.334-.557 0-.198.238-.389.048-.604.35-.23.667.064 1.001.064.056 0 .159.12.159.12-.445.595.374.794.374 1.295 0 0 .087.047.127.071.08.262.008.382-.255.334zm-.08-2.52h.605c-.44.216-.941.267-1.415.144.239-.167.533-.12.81-.143z" fill="#F1FBFC"/><path d="M32.201 28.856c.407.005.796.17 1.081.46a6 6 0 0 0-1.74.454 7.717 7.717 0 0 1-3.322.866c-.374 0-.477.381-.795.373 0-.39.326-.58.612-.794a13.923 13.923 0 0 1 4.069-1.216c.103.024.048-.088.095-.143z" fill="#1E90C9"/><path d="M33.584 29.015a4.935 4.935 0 0 0-2.463-.31h-.128c.023-.91.146-1.812.366-2.694a.223.223 0 0 1 .183-.128c.445.358.214.843.238 1.28 0 .302-.175.588-.048.946.302-.056.35-.334.47-.533.145-.27.26-.555.341-.85.095-.286.199-.715.548-.604.35.111.183.516.088.795a4.26 4.26 0 0 1-.366.834c.5-.207.636-.74 1.05-.946.301-.08.444 0 .38.342a2.654 2.654 0 0 1-.246.668 7.025 7.025 0 0 1 1.59-1.383c.42-.056.588.27.794.532a.167.167 0 0 1 0 .199 13.995 13.995 0 0 1-2.797 1.852z" fill="#1F8FC8"/><path d="M36.358 27.163v-.151c0-.048-.016-.082-.048-.103 0 0 0-.056.048-.056.31 0 .31.238.31.46v.16l-.31-.31z" fill="#1AA9DF"/><path d="M31.423 25.94a7.025 7.025 0 0 1-.43 2.765h-.31c-.723-.183-.405-.882-.643-1.304a1.788 1.788 0 0 1 0-.246 1.518 1.518 0 0 1 0-1.001 1.446 1.446 0 0 1 1.383-.215z" fill="#2281BB"/><path d="M32.201 28.856c.054.053.102.111.143.174.048.088 0 .12-.095.128-1.415.095-2.662.794-3.974 1.12-.055 0-.135 0-.198-.048A4.3 4.3 0 0 1 31.16 29a1.97 1.97 0 0 1 1.041-.143z" fill="#208BC4"/><path d="M30.199 28.705a6.048 6.048 0 0 1-1.383.612c-.62.143-.795-.255-.97-.74.207-.294.509-.047.795-.11 0-.517-.652-.795-.445-1.32a.397.397 0 0 1 .5 0c.104.09.2.188.287.294.119.143.342.199.365.421.064.715.573.199.859.31a.326.326 0 0 1-.008.533z" fill="#1F86BF"/><path d="M28.347 29.626l-.46.16c-.502.071-.796-.263-1.121-.549.198-.532.691-.334 1.064-.43.23.231.692.319.517.82z" fill="#2087C0"/><path d="M26.805 29.166c.332.253.695.461 1.081.62l-.159.15a3.974 3.974 0 0 1-2.153-1.541c.52.01.994.306 1.231.77z" fill="#1F8FC6"/><path d="M28.347 29.626c0-.389-.326-.58-.612-.794-.588-.239-.898-.795-1.399-1.16a.43.43 0 0 1-.079-.2.374.374 0 0 1 .071-.198.588.588 0 0 1 .517.096c.432.3.789.698 1.041 1.16.254.326.469.7.93.795l-.469.301z" fill="#218FC7"/><path d="M30.199 28.705c0-.167 0-.35-.151-.461-.23-.612-.223-.676.15-.922.2.445 0 1.017.462 1.39-.154.191-.308.189-.461-.007z" fill="#1F8FC8"/><path d="M13.868 16.689l.524-.453.397 2.145c-.5 0-.906-.087-.794-.755a.525.525 0 0 0-.302-.635l.175-.302z" fill="#2696CB"/><path d="M31.43 11.92c.398-.38.986.08 1.383-.301a1.78 1.78 0 0 0-.135-1.018c-.095-.27-.278-.548 0-.834.382-.183.469.127.58.358.112.23.175.675.35.977.175.302.675.413 1.089.445.334-.029.669.043.961.207.093.08.136.205.112.325h-.167c-.255.183-.533.096-.795.08-.834-.064-.866 0-.795.795.072.564.366 1.12.096 1.708a.207.207 0 0 1-.215.064c-.413-.445-.334-1.057-.517-1.59a3.02 3.02 0 0 0-.294-.866c-.381-.262-.794-.111-1.215-.167a.604.604 0 0 1-.438-.182z" fill="#21ADE1"/><path d="M34.045 14.686a10.76 10.76 0 0 0-.342-2.257c-.087-.508.064-.508.47-.508.483.01.965.065 1.438.166-.2.215-.064.565-.31.795a1.526 1.526 0 0 0-.882 1.28c0 .31.079.667-.23.913-.215-.11-.255-.222-.144-.389z" fill="#289FD1"/><path d="M34.045 14.686a.318.318 0 0 0 .151.31c.175-.095.223.072.31.151h.612c-.23.318-.692 0-.922.302l-.095.072a.612.612 0 0 1-.23 0 13.677 13.677 0 0 0-1.741-.056 1.113 1.113 0 0 0-.93.405.294.294 0 0 1-.397 0 .485.485 0 0 0-.509-.254c-.207 0-.421 0-.445-.294 1.073-.469.421-1.216.31-1.884 0-.214-.135-.445 0-.651h.15c.327-.048.319.27.462.42.06.098.109.202.143.31.326 1.678.12 1.344 1.677 1.376.33.055.67.025.985-.088.085-.066.178-.12.278-.159l.191.04z" fill="#20AEE4"/><path d="M34.514 15.147l-.342-.159c-.2-.88.107-1.8.795-2.384.397-.31.23.064.27.19a3.807 3.807 0 0 1-.723 2.353z" fill="#289ACE"/><path d="M39.29 16.379l.31.31h-.46a.564.564 0 0 1-.263-.096 3.862 3.862 0 0 0-.604-.286 9.195 9.195 0 0 1-1.232-.469l-.064-.08v-.309c.562.162 1.114.355 1.653.58.239.096.565-.024.66.35z" fill="#1F9ED4"/><path d="M34.172 15.457a5.96 5.96 0 0 1 2.615.31c.413.795.167 1.59.175 2.384a.604.604 0 0 1-.112.223.215.215 0 0 1-.222 0c-.35-.51-.08-1.097-.223-1.685-.483.423-.91.906-1.271 1.438a.7.7 0 0 1-.938.215 12.62 12.62 0 0 1 0-2.917l-.024.032z" fill="#2691C5"/><path d="M36.819 18.381v-2.614h.158c.326.421.207.906.223 1.375.016.469.23.97-.381 1.24z" fill="#1F9ED4"/><path d="M38.94 16.53l.151.159c.279.564-.143 1.128 0 1.692l-.15-.15a1.59 1.59 0 0 1 0-1.701z" fill="#2092CB"/><path d="M37.43 23.046l-1.231-.469a.493.493 0 0 1-.143-.42c.157-.949.386-1.884.683-2.798a1.59 1.59 0 0 1 1.772.596 6.358 6.358 0 0 1-1.08 3.091z" fill="#237FB8"/><path d="M38.94 16.53v1.693h-.15c-.366-.302-.485.055-.628.254-.255.35-.461.739-.962.795-.604-.08-.723-.382-.413-.89.302-.382.087-.795.159-1.232.683.119.27.596.373.89.026-.265.026-.53 0-.795.061-.538.5-.954 1.041-.985a.858.858 0 0 1 .58.27z" fill="#2485BC"/><path d="M37.438 19.152c.31-.39.604-.794.93-1.152.096-.111.151-.405.366-.262.214.143.063.326.095.492 0 .477.135 1.002-.31 1.391a1.089 1.089 0 0 1-1.08-.469z" fill="#2380B9"/><path d="M37.438 19.152l1.073.461v.31a6.89 6.89 0 0 0-1.692-.612.636.636 0 0 1-.422.04 4.125 4.125 0 0 1-.548-.08c-.445-.143-.914 0-1.359-.143a.421.421 0 0 1-.183-.143.381.381 0 0 1 0-.23.23.23 0 0 1 .16-.143 2.17 2.17 0 0 1 1.183 0c.374.056.795.111 1.041-.238h.151c-.047.452-.055.874.596.778z" fill="#1D9FD5"/><path d="M36.819 25.16c.246.048.365-.167.437-.31.262-.492.588-.373.945-.15a6.683 6.683 0 0 1-1.843 2.002c-.247-.08-.493-.159-.517-.477.342-.357.342-1.001.978-1.065z" fill="#2088C2"/><path d="M35.897 26.225l.469.461v.334c-.279-.111-.414-.477-.795-.461-.382.016-.835-.262-1.272-.342-.254-.087-.548-.055-.794-.262 0-.215.127-.27.286-.318a1.74 1.74 0 0 1 .7 0l.317.088c.316.063.618.184.89.357.078.03.146.079.199.143z" fill="#1C9FD9"/><path d="M35.897 26.225h-.135c-.064-.087-.12-.19-.056-.278a14.758 14.758 0 0 1 1.748-2.63l.16.15c-.104.636-.589 1.09-.795 1.693-.453.27-.406.89-.922 1.065z" fill="#1F8FC6"/><path d="M34.665 25.772h-.795c-.143-.15-.405 0-.532-.183a6.215 6.215 0 0 1 .723-3.139 1.256 1.256 0 0 1 1.35.239h.35a.54.54 0 0 1 .08.58c-.288.88-.683 1.72-1.176 2.503z" fill="#237FB8"/><path d="M37.43 23.317l-1.668 2.908a1.963 1.963 0 0 0-.914-.302 9.1 9.1 0 0 1 1.224-3.075c.482.05.947.21 1.358.469z" fill="#2281BA"/><path d="M35.436 22.689a6.358 6.358 0 0 0-1.383-.143.795.795 0 0 1-.342.175 8.495 8.495 0 0 1-.882 0c-.858.04-.866.055-.874.913v.604c.025.258-.04.516-.183.732-.31.079-.318-.175-.365-.35a2.193 2.193 0 0 1 0-.755.89.89 0 0 0-.795-1.113c-.238-.254-.103-.437.127-.596.445 0 .628-.206.572-.667a1.24 1.24 0 0 1 .08-.827c.127-.103.254-.206.413-.055.246.397.064.874.215 1.287.389.278.794.127 1.247.127.453 0 .39-.262.413-.532a11.07 11.07 0 0 0 .16-1.963.842.842 0 0 1 .158-.477.254.254 0 0 1 .35 0c.194.28.263.628.19.962-.006.08-.019.16-.039.238a2.154 2.154 0 0 0-.103.795c.055.35-.239.707 0 1.049.31.182.699.119 1.001.326.05.056.05.141 0 .198.027 0 .04.024.04.072z" fill="#1F9AD1"/><path d="M35.436 22.538v-.151a2.79 2.79 0 0 0 .643-1.59c.07-.547.215-1.081.43-1.59l.317.152-.62 3.234-.77-.055z" fill="#1F90C7"/><path d="M36.048 22.848l-1.224 3.075-.16-.15a8.948 8.948 0 0 1 .796-1.98c.172-.342.275-.714.302-1.096l.286.15z" fill="#1F8EC4"/><path d="M32.662 9.751c.06.393.166.777.318 1.144.056.223.342.588-.167.708-.874-.088-1.764.182-2.614-.16.071-.222.055-.476.405-.516.35-.04.318-.365.405-.588.18-.43.22-.906.112-1.359a1.232 1.232 0 0 1 1.541.771z" fill="#2AAADB"/><path d="M31.12 8.98c.16.254.493.23.795.493-.39 0-.564 0-.564.508 0 .366-.048 1.32-1.208 1.137l.54.238c-.143.16-.317.056-.476.088a6.54 6.54 0 0 1-.596-1.908c-.104-.317.071-.556.429-.572.357-.016.612 0 .922 0l.159.016z" fill="#2BB0E0"/><path d="M33.433 11.126a1.59 1.59 0 0 1-.31-.795c-.063-.262-.111-.54-.46-.58-.24-1.097.58-.707 1.08-.795l.151.151c.111.763.278 1.51-.46 2.019z" fill="#28A6D8"/><path d="M31.581 8.678H30.2c.604-.421.294-1.168.612-1.693.612.302.683 1.002 1.057 1.487.206.27-.16.158-.287.206z" fill="#2BB0DF"/><path d="M33.433 11.126c.453-.596.262-1.343.461-2.003h.151c.23.19.54 0 .795.151.39.127.326.7.794.795.175-.08.247.04.318.159a1.113 1.113 0 0 0-.27 1.518c-.598.051-1.2.014-1.788-.112-.334-.087-.517-.182-.46-.508z" fill="#29A1D3"/><path d="M35.905 10.22l-.318-.16c.19-.158-.676-.659.19-.603-.19.294.255.485.128.763z" fill="#2399CA"/><path d="M34.816 9.29c-.262 0-.556.103-.795-.15.286.03.58-.104.795.15z" fill="#28A6D8"/><path d="M17.722 26.543l.15-.795c.295-.238.31-.755.796-.794.635.667 1.366 1.231 2.034 1.86.143.134.358.23.262.492l-.62 1.073c-.858-.096-1.359-.795-2.002-1.232-.23-.167-.175-.636-.62-.604z" fill="#237FB8"/><path d="M18.334 27.163l2.002 1.232-.15.159a3.41 3.41 0 0 1-1.852-1.391z" fill="#208DC4"/><path d="M23.26 28.856a5.356 5.356 0 0 1-2.153 0 .437.437 0 0 1-.46-.461c.142-.62.794-.93.937-1.542a.397.397 0 0 1 .159-.254c.326-.16.5-.58.946-.557.386.285.738.613 1.049.978.103.095.175.278.341.08.636-.04.922.508 1.351.794a.151.151 0 0 1 0 .19 3.37 3.37 0 0 0-.747.668c-.166.12-.262.342-.508.35-.468-.18-.923-.396-1.36-.644a4.172 4.172 0 0 0-.794-.548c.151.071.374.262.628.421.254.16.525.215.612.525z" fill="#2380B9"/><path d="M21.72 26.71l-.144.135-.477.31a12.453 12.453 0 0 1-1.899-1.59.358.358 0 0 1-.127-.405 2.058 2.058 0 0 1 1.836.286c.35.318.667-.095 1.009-.055.731.453.715.572-.199 1.319z" fill="#227FB8"/><path d="M19.073 25.16c.621.71 1.29 1.377 2.002 1.995l-.15.159c-.54-.477-1.073-.97-1.63-1.43a2.305 2.305 0 0 1-.683-.883.23.23 0 0 1-.072-.262c.03-.059.086-.1.151-.111.067.009.128.04.175.087a.795.795 0 0 1 .207.445z" fill="#1F90C7"/><path d="M16.951 22.999l.151-.151a.262.262 0 0 1 .294 0 .795.795 0 0 1 .151.15c.325.528.703 1.021 1.128 1.47.04.058.04.134 0 .192-.087.08-.127.246-.301.159l-.31-.31-1.113-1.51z" fill="#2095CB"/><path d="M18.342 24.85l.302-.159v.31c-.358.16-.382.644-.795.795.056-.366.39-.604.493-.946z" fill="#1BA2DC"/><path d="M16.331 21.775c0-.533-.35-.93-.54-1.383a1.59 1.59 0 0 1-.23-.795.564.564 0 0 1 .865.151c.3.412.833.577 1.312.406.063 0 .135.063.167.135-.223.667-.867.97-1.264 1.494l-.159.127-.15-.135z" fill="#2690C4"/><path d="M17.873 20.376c-.207-.318-.382.056-.588.048a1.32 1.32 0 0 1-1.05-.556c-.198-.255-.428-.223-.675-.23a1.025 1.025 0 0 1-.31-.923c-.087-.27.112-.397.263-.548.357-.135.524-.628 1-.533.176.867.581 1.312 1.264 1.367.33.322.505.772.477 1.232-.087.12-.198.223-.381.143z" fill="#2796CA"/><path d="M15.56 18.23l-.31.461h-.15a8.44 8.44 0 0 1-.31-2.717c0-.342.04-.589.468-.358-.23.795.39 1.144.874 1.59.037.036.066.08.088.126.008.438-.437.589-.66.898z" fill="#279ACD"/><path d="M16.482 21.926v-.143c.358-.175.525-.596.93-.715a.421.421 0 0 1 .381.206c.279.692.716.628 1.224.278.403.26.723.63.922 1.065.358.588.254.795-.421 1.12A5.563 5.563 0 0 1 17.42 23a6.056 6.056 0 0 0-.469-.612l-.469-.461z" fill="#258CC1"/><path d="M16.943 22.387a.636.636 0 0 1 .469.612l-.31-.16-.159-.452z" fill="#2485BD"/><path d="M26.344 27.624c.644.206.97.795 1.391 1.232l-.922.31-1.232-.795v-.302a.691.691 0 0 1 .763-.445z" fill="#2281BB"/><path d="M24.636 28.697c.214-.263.31-.668.794-.612a2.32 2.32 0 0 1-.794.794c-.048-.037-.064-.071-.048-.103l.048-.08zm1.708-1.073l-.794.469h-.12v-.151c.215-.35.445-.644.922-.47l-.008.152z" fill="#1B9ED6"/><path d="M24.636 28.697v.159a1.7 1.7 0 0 1-.612.627v-.166-.151a.286.286 0 0 1 .15-.151l.462-.318z" fill="#19A1D9"/><path d="M24.19 29.015l-.15.15-.795-.31c-.222-.127-.5-.182-.62-.46.053-.064.106-.064.16 0 .49.154.96.362 1.406.62z" fill="#1F8FC5"/><path d="M17.88 16.37l1.272-.428a.74.74 0 0 1 .485-.43.397.397 0 0 1 .318.088c.382.66.651 1.38.795 2.13-.112.445-.445.413-.795.365-.85-.11-1.486-.794-2.32-.937-.191-.04-.152-.294-.136-.477a.39.39 0 0 1 .382-.31z" fill="#29A3D4"/><path d="M17.88 16.37l-.317.319a.691.691 0 0 0 0 .715c.254.612.493 1.24.731 1.86.142.239.196.52.151.794-.056.112-.127.199-.27.16l-.461-1.233c-.39-.198-.43-.611-.564-.953a1.041 1.041 0 0 0-.628-.707 1.86 1.86 0 0 0-.485-1.725c0-.175-.222-.342 0-.525.231.19.503.324.795.39.216.09.366.291.39.524 0 .318.253.334.508.27l.15.112z" fill="#21A9DE"/><path d="M19.59 15.616a.747.747 0 0 1-.438.326 2.082 2.082 0 0 0-.182-.278c-.596.278-.533-.23-.636-.525a5.046 5.046 0 0 0-.366-.747c-.23-.326.183-.199.207-.334l.302-.46c.071.42-.064.874.198 1.255.175.254.366.5.74.421-.104.207.047.27.174.342z" fill="#ABE7FB"/><path d="M17.698 16.275c-.373.31-.683.295-.691-.254a1.224 1.224 0 0 0-.207-.54c.588-.056.493.644.898.794z" fill="#2EA5D4"/><path d="M15.783 12.103c-.088-.15-.12-.357 0-.397.254-.087.183.103.119.23a.85.85 0 0 1-.12.167z" fill="#ABE7FB"/><path d="M16.037 15.616c.962.795 1.01.946.453 1.685l-.064.063a.19.19 0 0 1-.238-.063c-1.16-.588-1.248-.747-.93-1.693l-.159-.572c.406.063.549.508.938.58z" fill="#299FD1"/><path d="M24.199 7.732c.143-.548.747-.468 1.065-.794.31.159.317.175 0 .485l-.167.135a.54.54 0 0 1-.914.159l.016.015z" fill="#28C4F2"/><path d="M25.28 7.438c0-.159.27-.333 0-.484l.333-.294c.135.047.151.159.151.278v.381c-.15.16-.334.111-.485.12z" fill="#9FE4F7"/><path d="M24.334 7.756c.277.025.556-.04.794-.182-.063.166.58 0 .151.325h-.325c-.255.151-.501.263-.62-.143z" fill="#52CEF4"/><path d="M26.225 10.99h.151c.008.452.17.887.461 1.233h.795v.158c-.34.311-.44.806-.247 1.224a.43.43 0 0 1-.405.636.795.795 0 0 1-.183-.397c-.11-.517-.286-.954-.945-.914-.12 0-.215-.12-.263-.239a.246.246 0 0 1 .143-.254c.414-.135.557-.373.382-.795a.564.564 0 0 1 .111-.651z" fill="#21B9EA"/><path d="M23.046 9.012c.16-.056.279-.143.263-.334l.159-.111c.158.103.143-.048.166-.127l.294-.215c.343-.11.698-.18 1.057-.206.124.188.23.388.318.596.255.794.151.953-.683 1.12-.572.12-1.129.278-1.7.35-.406.055-.39.302-.374.58h-.096c-.143-.088-.175-.19-.055-.326l-.191-.326c0-.254.286-.262.358-.453l.484-.548z" fill="#2FC3EE"/><path d="M24.938 8.026a1.065 1.065 0 0 1-1.057.207c.08-.183.334-.254.31-.493h.135c.175.2.421.088.62.151a.286.286 0 0 0-.008.135z" fill="#DFF4FC"/><path d="M23.595 8.44c.047.095.278.087.159.262-.12.175-.16.175-.223.159-.063-.016-.087-.19-.103-.302-.016-.111.047-.159.167-.12z" fill="#27C3F1"/><path d="M26.972 14.217a.572.572 0 0 0 .143-.794c-.381-.597-.119-.883.461-1.034l2.154-.31c.326.66-.183 1.002-.572 1.328-.52.453-1.08.855-1.677 1.2a.596.596 0 0 1-.342.055.326.326 0 0 1-.254-.214.246.246 0 0 1 .087-.23z" fill="#2BAFDF"/><path d="M27.425 14.535a6.946 6.946 0 0 1 1.39-1.08c.462-.366.923-.724.915-1.391.516.04.453.42.46.794l.152.62c-.143.827-.938.89-1.51 1.168a1.073 1.073 0 0 1-.715.151c-.223-.11-.565.096-.692-.262z" fill="#2BABDC"/><path d="M30.81 13.454l-.15-.15a2.543 2.543 0 0 1-.151-1.383h1.382c.342.182.27.453.151.73a5.19 5.19 0 0 1-.548.923c-.294.405-.5.31-.683-.12z" fill="#2AA9DA"/><path d="M30.509 11.92l.15 1.383-.31-.46c.128-.303-.262-.684.16-.922z" fill="#2BAFDF"/><path d="M26.225 10.99c0 .152-.048.327 0 .446.374.723 0 1.04-.628 1.247-.238.676-.357.747-.882.485a1.216 1.216 0 0 0-.183-.35c-.182-.15-.429-.103-.627-.19-.286-.207-.588-.048-.89-.064-.422-.35-.414-.866-.557-1.335 0-.19-.111-.381.056-.556.898-.096 1.653-.676 2.567-.74.413 0 .747-.087.794.454a.842.842 0 0 0 .35.604z" fill="#2DBCE8"/><path d="M19.59 15.616c-.27 0-.263-.143-.175-.334l.31-.453.174-.27c.104-.135.207-.27.326-.397.12-.128.223-.39.445-.326.223.063.104.341.175.516.071.071.133.152.183.239a.23.23 0 0 0 .19.103c.954 0 .954 0 1.185 1.049a.469.469 0 0 1-.215.254c-.683.12-1.295-.413-1.995-.23a.675.675 0 0 1-.31-.167l-.294.016z" fill="#B3EAFB"/><path d="M21.846 11.92a.636.636 0 0 1-.103-.961c.056-.254.183-.413.477-.326.177.2.295.445.342.707 0 .334.31.644.08.994-.39.127-.39-.413-.796-.413z" fill="#31BCE8"/><path d="M22.8 13.605c0-.111-.445-.31.064-.31a.445.445 0 0 0 .397-.135.238.238 0 0 1 .19-.214.31.31 0 0 1 .24.182.795.795 0 0 1 .086.406c-.286.572.23 1.136 0 1.708a.302.302 0 0 1-.166.128c-.382 0-.422-.31-.509-.565-.087-.254-.183-.739-.326-1.096l.024-.104z" fill="#24B7EA"/><path d="M20.805 14.678v-.318a6.683 6.683 0 0 1 1.963-.794.27.27 0 0 1-.103.437c-.558.368-1.195.6-1.86.675z" fill="#24B6EA"/><path d="M22.649 12.374l-.151-1.081c-.056-.16 0-.191.159-.151.01.497.17.98.46 1.383a.27.27 0 0 1 0 .333.246.246 0 0 1-.325-.04l-.143-.444z" fill="#1DBCEE"/><path d="M22.8 12.819h.302c.151 0 .207 0 .159.182-.246.12-.533-.04-.795.12h-.826c.373-.406.81-.191 1.16-.302z" fill="#A1E0F7"/><path d="M22.506 13.136c.215-.246.509-.103.795-.143.047-.047.087-.047.127 0l-.127.167-.795-.024z" fill="#CFEFFD"/><path d="M22.172 10.657l-.421.342c-.095-.04-.199-.127-.278-.112-.247.048-.54.326-.445-.278.04-.262-.668-.206-.533-.7.302 0 .453-.301.724-.365a.223.223 0 0 1 .19.056c.58.04.358.723.74.922.052 0 .074.026.063.08 0 0-.024.055-.04.055z" fill="#DCF4FB"/><path d="M21.258 9.616c-.23.159-.405.485-.794.294.214-.151.206-.31 0-.461.119-.151.341-.151.46-.302.144.087.31-.151.453 0 .144.151-.04.318-.119.469z" fill="#C9EFFB"/><path d="M20.948 9.147c0 .35-.222.334-.46.302l.04-.286.42-.016z" fill="#37C5EC"/><path d="M22.172 10.657a.39.39 0 0 0 0-.127l.19-.143a.302.302 0 0 0 .152.302l.15.46-.158.152-.334-.644z" fill="#26C0F0"/><path d="M21.258 9.616l.151-.477c.112 0 .278-.111.334-.071.056.04-.056.158-.111.23l-.23.302-.144.016z" fill="#AAE8F6"/><path d="M22.506 9.6c0 .254-.294.254-.358.453-.373-.517.247-.294.358-.453z" fill="#DCF4FB"/><path d="M33.592 25.923c.254.04.556-.095.795.16 0 .365-.374.476-.461.794a3.25 3.25 0 0 1-1.375 1.295l.683-2.058c-.54.302-.476.707-.604 1.025a4.824 4.824 0 0 1-.413.795c-.143.222-.246.636-.548.548-.302-.087-.239-.548-.167-.795.108-.578.15-1.168.127-1.756a2.17 2.17 0 0 1 1.963-.008z" fill="#2183BC"/><path d="M33.894 26.853c.066-.307.228-.585.461-.795a1.59 1.59 0 0 1 1.232.461 12.294 12.294 0 0 0-1.82 1.788c-.334-.429.246-.635.175-.961-.024-.143.429-.366-.048-.493z" fill="#2088C1"/><path d="M33.592 25.923h-2.17c-.437.223-.961 0-1.382.302-.23.175-.453.215-.644-.055 0-.207.167-.263.302-.35a1.01 1.01 0 0 1 .23-.072c.493-.04.97-.167 1.455-.254.113-.01.228-.01.342 0a7.192 7.192 0 0 1 1.39 0 .691.691 0 0 1 .31.167c.167 0 .35 0 .461.15a.318.318 0 0 0-.294.112z" fill="#1C97CE"/><path d="M30.199 27.314c-.358.254.063.644-.151.922-.215.278-.437.413-.708.119-.08-.087-.508-.207-.08-.421.303-.255-.142-.374-.11-.572a1.073 1.073 0 0 1 0-.573c.095-.238.182-.492.516-.468.334.023.239.325.31.516a.93.93 0 0 0 .199.326.526.526 0 0 1 .024.15z" fill="#2285BD"/><path d="M30.199 27.163a.302.302 0 0 1-.302-.27c0-.183.063-.453-.247-.461-.31-.008-.175.334-.357.429a.517.517 0 0 1-.151-.58c.055-.12.119-.23.286-.183.159.223.397.127.612.151.002.311.056.62.159.914z" fill="#1F8FC8"/><path d="M27.886 28.554a4.546 4.546 0 0 1-1.073-1.081c.175-.636.715-.644 1.208-.692.199 0 .31.16.183.374.048.373.342.612.509.922.166.31.333.381.143.62-.191.238-.398 0-.588-.096a2.138 2.138 0 0 0-.382-.047z" fill="#2281BA"/><path d="M28.196 27.155c-.071-.477-.366-.19-.556-.135-.302.07-.577.225-.795.445l-.46-.151a1.828 1.828 0 0 1-1.106-1.51c.263-.151.406.071.58.19.072.07.139.144.2.223.587.747.587.747 1.47.35.182-.08.35-.19.54-.262a.5.5 0 0 1 .326 0c.16.106.275.267.326.453.047.182.119.365 0 .54l-.525-.143z" fill="#1E95CC"/><path d="M28.649 27.314l-.127-.477c0-.35.087-.7.564-.683.069 0 .133.033.175.087v1.208c-.048.366-.262.246-.469.167l-.143-.302z" fill="#4CCEFA"/><path d="M28.824 27.616c.175 0 .357 0 .469-.167.143.127.405.207.341.437-.063.23-.246.08-.381.04l-.43-.31z" fill="#3FBFEE"/><path d="M25.264 25.772c.182.636.739 1.017 1.08 1.542v.15c-.365 0-.588.366-.921.47-.501.04-.66-.453-1.002-.66a1.065 1.065 0 0 0-.39-.111c-.635-.183-.937-.731-1.318-1.192a.445.445 0 0 1 .04-.207c.389-.35.897-.532 1.287-.882a.668.668 0 0 1 .183-.111.46.46 0 0 1 .31 0c.297.24.54.541.715.882l.016.12z" fill="#237FB8"/><path d="M30.81 13.454c.144.04.167.294.358.223a2.63 2.63 0 0 0 .723-1.756c.461.071.954-.16 1.383.15a2.225 2.225 0 0 1-.739 2.178c-.254.207 0 .89-.556.691.556-.04 1.232-.381 1.907.056-.878.2-1.785.24-2.678.12-.318 0-.199-.35-.27-.541a2.885 2.885 0 0 1-.127-1.12z" fill="#28A4D5"/><path d="M33.894 14.988h-2.456c.358-.207.906-.048.7-.612 0-.055.08-.199.159-.246a1.78 1.78 0 0 0 .85-1.812c0-.08.087-.175.135-.254.283.854.49 1.731.62 2.622l-.008.302z" fill="#289FD1"/><path d="M30.779 15.79l.334.168a.962.962 0 0 1 1.128.286c-.064.318-.334.294-.564.333a1.59 1.59 0 0 1-.89-.158c-.604-.382.365.508-.215.27-.29.03-.566.143-.795.326-1.279.93-2.829 1.152-4.299 1.589-.485.135-1.073-.127-1.486.342a.795.795 0 0 1-.326-.97.572.572 0 0 1 .167-.183c1.041-.437 2.193-.413 3.266-.794a7.82 7.82 0 0 0 1.947-.859 2.646 2.646 0 0 1 1.192-.468c.183-.056.382-.096.54.119z" fill="#9EE5FD"/><path d="M32.193 16.236c-.333-.199-.794 0-1.088-.278 0-.326.119-.588.445-.604.83-.136 1.679-.1 2.495.103.12.135.064.262 0 .397a1.955 1.955 0 0 1-.874.898.62.62 0 0 1-.215 0 .914.914 0 0 1-.763-.516z" fill="#289BCF"/><path d="M28.792 14.583c.095-.5.62-.23.906-.485.239-.195.457-.413.652-.652.047.167.095.342.15.509.35 1.105.342 1.12-.611 1.502a.103.103 0 0 1 .047.111v.056c-.357 0-.35-.374-.556-.525-.206-.15-.516-.222-.588-.516z" fill="#2AA7D8"/><path d="M33.894 15.759a.318.318 0 0 0 .151-.31h.127a13.59 13.59 0 0 1 .151 3.083c.053.032.072.067.056.104 0 0 0 .047-.048.047a.262.262 0 0 1-.373 0 7.868 7.868 0 0 1-.064-2.924z" fill="#20A1D8"/><path d="M29.889 15.592v-.135c.214.143.429 0 .643 0 .215 0 .461 0 .247.326h-.58c-.183.055-.358.111-.31-.19z" fill="#2AA5D6"/><path d="M38.36 16.22c-.437.302-.961.524-.93 1.192v.946c-.286-.477.048-.994-.46-1.216V15.75c.494.043.97.204 1.39.469z" fill="#2589C0"/><path d="M34.363 18.683v-.15c.898-.565 1.32-1.59 2.312-2.226v2.074c0 .358.04.636-.516.493a11.706 11.706 0 0 0-1.796-.19z" fill="#258CC1"/><path d="M36.509 19.16a3.544 3.544 0 0 1-.302 1.685c-.223 1.105-1.002 1.407-2.035 1.407-.397-.414.151-.795 0-1.232.183-.23 0-.54.151-.795v-.15c.358 0 .27.277.334.452.254-.373.103-1.112.914-.993-.167-.04-.207-.143-.096-.27a.35.35 0 0 1 .406-.112l.628.008z" fill="#2484BB"/><path d="M35.897 19.152c-.326.23-.326.23.159.493-1.097-.246-.922.7-1.351 1.08l-.35-.65V19c.517.072 1.057-.159 1.542.151z" fill="#2489BF"/><path d="M34.045 18.691h.302v.302h-.437c-.445 0-.914.16-1.303-.278a1.16 1.16 0 0 1 1.438-.024z" fill="#19ABE3"/><path d="M33.433 25.621h-.31c-.278-.795.223-1.47.31-2.217.06-.185.108-.373.143-.564a.707.707 0 0 1 .167-.294h.318l-.628 3.075z" fill="#1E8DC3"/><path d="M34.053 18.993v.47c.111 1.358-1.065 1.811-1.812 2.566-.103.111-.326.08-.493.048v-1.59a.286.286 0 0 1-.063-.214c.318-.477.429-1.105 1.009-1.39.463-.02.926.009 1.383.087l-.024.023z" fill="#258CC1"/><path d="M33.584 23.309c0 .794-.397 1.517-.469 2.304H31.74a.437.437 0 0 1 0-.62V24.2c0-.795.692-1.145 1.081-1.693h.922v.302c-.238.135.016.39-.159.5z" fill="#237FB7"/><path d="M30.803 22.252a.485.485 0 0 0-.286.476c.182.485-.16.604-.501.732-.731.286-1.59.341-2.13 1-.35-.19-.342-.555-.429-.873a1.073 1.073 0 0 1 0-.223c.005-.075.019-.15.04-.222.222-.85 1.04-.795 1.645-1.065.364-.11.718-.254 1.057-.43.341-.222.572-.087.707.27a.302.302 0 0 1-.103.335z" fill="#6ED8FD"/><path d="M31.717 20.376a.604.604 0 0 1 0 .143l-.302.19c-.12.12-.16.327-.374.335-.667 0-1.184.42-1.796.572-.421.103-.795.421-1.232.405-.437-.016-.214.588-.604.556a.5.5 0 0 1-.294-.46.914.914 0 0 1 0-.23c.084-.383.371-.688.747-.796.795-.35 1.764-.317 2.384-1.08.294-.08.588.08.922-.072.334-.15.461.175.549.437z" fill="#7BDBFC"/><path d="M29.889 23.309c.429 0 .532-.286.628-.604 1.064 0 1.049 0 1.08 1.057 0 .413-.159.866.143 1.247v.62h-.31a1.438 1.438 0 0 1-.079-1.39c-.509.103-.946 1.025-1.66.254.134-.39-.128-.835.198-1.184z" fill="#2484BC"/><path d="M31.74 22.077c.906-.755 2.122-1.232 2.305-2.615.103.795-.19 1.59-.159 2.384 0 .191-.048.398-.278.382-.62-.048-1.264.167-1.868-.151z" fill="#2486BD"/><path d="M32.821 22.546c0 .15.413.318.167.381-.739.175-.882.795-1.248 1.311v-.604c0-1.096 0-1.096 1.081-1.088z" fill="#2483BC"/><path d="M34.172 22.252a4.832 4.832 0 0 0 1.59-.668c.317-.183.222-.556.484-.731-.167.564.143 1.359-.794 1.542l-1.28-.143z" fill="#237DB7"/><path d="M31.113 20.996l.317-.286c-.02.381-.02.763 0 1.144.08.692-.222.612-.643.366v-.294a.874.874 0 0 1 .326-.93z" fill="#288CC2"/><path d="M34.355 20.225c0 .262.103.556-.151.795.032-.278-.103-.572.151-.795z" fill="#2489BF"/><path d="M21.72 26.71c.095-.413 1.12-.7.158-1.248a7.152 7.152 0 0 1-1.748-1.955.334.334 0 0 1 0-.214.326.326 0 0 1 .365-.175c.368.37.708.765 1.018 1.184.341.564.937.946 1.168 1.59a.175.175 0 0 1 0 .19c-.39.143-.525.604-.962.628z" fill="#1F9ACF"/><path d="M22.649 26.09v-.159a.095.095 0 0 1 .159 0c.345.472.76.887 1.232 1.232.087.222.071.413-.191.175-.43-.39-.803-.835-1.2-1.248z" fill="#2192C8"/><path d="M22.808 28.395h-.159a2.646 2.646 0 0 1-1.113-.85c.484.181.92.472 1.272.85z" fill="#1F91C7"/><path d="M20.185 23.468a15.735 15.735 0 0 1 1.693 1.962c-.429.223-.795.636-1.287-.063-.207-.286-.978-.175-1.486-.246a.453.453 0 0 1-.302-.461c.167-.7.802-.906 1.382-1.192z" fill="#2483BB"/><path d="M20.185 23.468l-1.382 1.24h-.151v-.152c.088-.423.388-.772.794-.922.652-.15.692-.5.318-.985l-.794-1.025a.747.747 0 0 1-.382-.747.405.405 0 0 1 .238-.23.469.469 0 0 1 .398.19 19.24 19.24 0 0 1 1.112 2.17.731.731 0 0 1-.135.31.695.695 0 0 0-.016.15z" fill="#1EA0D5"/><path d="M19.415 23.619l-.795.921A2.821 2.821 0 0 1 17.388 23c.143 0 .199-.366.413-.12.322.427.857.637 1.383.54.08-.007.159.136.23.2z" fill="#2485BD"/><path d="M18.795 20.662l-.151.151c-.493-.23-.795.207-1.232.31-.437.103-.485.612-.922.62a7.542 7.542 0 0 1 1.383-1.399l.31-.15.159-.152a.27.27 0 0 1 .326-.04.58.58 0 0 1 .127.66z" fill="#1FA5DB"/><path d="M16.49 17.3c.35-.119.596-.126.715.334.145.463.318.917.517 1.36-.135 0-.135.246-.358.182-.437-.111-.445-.62-.691-.795-.445-.262-.278-.5-.183-.794a.207.207 0 0 1 0-.31v.024z" fill="#279BCE"/><path d="M16.49 17.3v.31c-.35.144-.485.605-.922.62 0-.445.477-.572.62-.93h.302z" fill="#21A9DE"/><path d="M17.412 21.155c.39-.19.588-1.144 1.232-.31l.31.795c-.445.612-.795.572-1.16-.112-.08-.166-.255-.254-.382-.373z" fill="#2691C5"/><path d="M18.644 20.074h-.31a23.221 23.221 0 0 0-.954-2.622c-.095-.318-.206-.588.183-.795.159.087 0 .326.063.326.938 0 1.55.914 2.504.93a.66.66 0 0 0 .524-.183c.398.326.263.604-.063.882-.472.303-.92.64-1.343 1.01-.18.177-.383.33-.604.452z" fill="#289ED0"/><path d="M19.073 19.613c.254-.556.858-.691 1.287-1.033a.62.62 0 0 0 .255-.795c-.313-.699-.579-1.418-.795-2.153l.318.04c.508.389.508 1.017.73 1.541.303.7.31.723.97.374.393-.239.811-.43 1.248-.572.31-.08.58-.072.533.373a.413.413 0 0 1-.12.175 6.922 6.922 0 0 1-.794.381c-.644.279-1.399.477-1.033 1.47 0 .064-.048.144-.096.2-.286.118-.365-.096-.469-.287-.103-.19-.063-.302-.222-.381a.485.485 0 0 0-.27 0l-.326.175c-.298.203-.605.392-.922.564a.302.302 0 0 1-.294-.072z" fill="#20AEE3"/><path d="M23.754 15.322a6.628 6.628 0 0 0-.239-1.168.556.556 0 0 1 .215-.708c.103-.325.453-.294.667-.46.12-.08.277-.08.398 0 .477.532.532-.167.794-.27a.493.493 0 0 1 .136.063c.278.27.699-.286.89.095.24.421.367.898.365 1.383a.866.866 0 0 0 0 .127c-.71.064-1.412.194-2.098.39-.508-.088-.715.437-1.128.548z" fill="#2CB4E1"/><path d="M23.754 15.322c.318-.27.341-1.001 1.04-.652a7.295 7.295 0 0 1 2.321-.135h.31c.167.215.437 0 .62.143.199.43-.175.405-.39.445-1.04.199-1.986.795-3.059.795-.397 0-.373.477-.7.508-.325.032-.42-.405-.556-.675-.135-.27.191-.374.406-.453l.008.024z" fill="#B6EBFC"/><path d="M27.115 14.535a5.563 5.563 0 0 1-1.685.159c-.214 0-.437.485-.635 0a2.543 2.543 0 0 1 2.17-.318l.15.16z" fill="#BFEDFC"/><path d="M23.841 16.387c.203-.588.815-.93 1.423-.795.46 0 .908-.154 1.271-.437.461-.286 1.113 0 1.486-.517l.755-.095c.199.159.525.111.636.405-.27.74-1.017.795-1.59 1.105a10.053 10.053 0 0 1-3.282.898c-.524.072-.397.66-.675.93h-.183c-.294-.096-.254-.27-.111-.47.214-.277-.167-.722.27-1.024z" fill="#AFE9FD"/><path d="M23.388 12.993h-.127l-.159-.159v-.31a.437.437 0 0 1 .795 0c.047.128.27.167.206.358a.493.493 0 0 1-.23.318.246.246 0 0 1-.286-.064l-.199-.143z" fill="#2CB4E2"/><path d="M23.841 13.152l.175-.318a.636.636 0 0 1 .62-.119c.1.05.154.16.135.27l-.302.128c-.167.222-.39.103-.628.04z" fill="#BAEBFB"/><path d="M24.636 12.715a.946.946 0 0 1-.62.143c0-.135-.31-.095-.151-.302.278.008.572-.135.77.16z" fill="#18B6DD"/><path d="M23.841 16.387l-.262 1.096c.047-.397-.175-.429-.453-.294-.5.183-.976.429-1.415.732-.5.413-.66.127-.794-.255-.255-.66-.477-1.327-.708-1.994.731-.438 1.32.254 1.995.262.122.007.244.007.366 0a.731.731 0 0 0 .429-.135.668.668 0 0 1 .167-.088.246.246 0 0 1 .262.088c.302.047.254.397.413.588z" fill="#2AA7D9"/><path d="M23.412 15.767h-.318c-.246.087-.5.254-.755 0a1.59 1.59 0 0 1-.262-.461c-.08-.485-.342-.564-.795-.405-.222.08-.516.27-.508-.215l1.478-.62c.23-.095.5-.135.532-.46.5.142.302.627.461.937.159.31.056.683.485.795-.048.159-.366.159-.318.429z" fill="#2CB1DF"/><path d="M22.34 15.767c.253.08.5-.254.754 0-.111.318-.437.19-.644.31l-.262-.183.151-.127z" fill="#BBF0FB"/><path d="M23.841 13.152c.212.04.43.014.628-.071-.143.35-.548.159-.795.373a.318.318 0 0 1-.15-.31l.317.008z" fill="#2DBCE8"/><path d="M29.698 24.374c.691.675 1.089-.239 1.732-.318v1.589a3.48 3.48 0 0 1-1.541.302 3.179 3.179 0 0 1-.374-1.311c0-.135.04-.239.183-.262z" fill="#237FB7"/><path d="M29.269 26.225h-.143c-.278-.357 0-.747-.072-1.12a.381.381 0 0 1 .445-.318c.29.302.385.741.247 1.136a.334.334 0 0 1-.31.16l-.167.142z" fill="#2484BC"/><path d="M29.738 25.931a1.454 1.454 0 0 0-.334-1.089c-.072-.159-.056-.278.143-.302.27.41.391.902.342 1.391h-.151z" fill="#1F8FC8"/><path d="M25.725 26.082l-.461-.31c-.2-.35-.596-.612-.525-1.097a3.338 3.338 0 0 1 1.733-.89.612.612 0 0 1 .341.072c.292.302.478.689.533 1.105-.12.993-1.05.794-1.621 1.12z" fill="#2484BB"/><path d="M25.725 26.082c.325-.207.5-.795 1.056-.39.086-.275.255-.516.485-.69.286.166.398.484.604.715.207.23.374.381.167.667-1.097.978-1.462.93-2.312-.302z" fill="#237FB7"/><path d="M28.037 26.392c0-.27-.222-.397-.31-.612-.214-.46-.373-.946-.612-1.399a.795.795 0 0 1-.087-.73.421.421 0 0 1 .54-.176l.318.914c.215.287.37.614.453.962.072.35.318.7 0 1.049l-.302-.008z" fill="#2687BD"/><path d="M28.34 26.392c.11-.381-.192-.707-.152-1.073.334.048.564-.477.946-.167.381.31-.088.723 0 1.09-.39 0-.43.373-.596.611l-.199-.46z" fill="#54CEF8"/><path d="M22.8 25.931h-.159a10.911 10.911 0 0 1-1.232-1.542.882.882 0 0 1 .994-.405c.452.045.908-.044 1.31-.254.39.278.915.5.47 1.128-.445.334-.954.58-1.39.93.004.042.007.09.007.143z" fill="#2485BC"/><path d="M24.19 24.85c.247-.532-.31-.715-.46-1.08-.413-.215-.556-.644-.795-1.002a1.184 1.184 0 0 1-.27-.794.493.493 0 0 1 .103-.2.358.358 0 0 1 .398.12c.214.286.317.636.532.922.31.429.381 1.097.866 1.303.485.207.97-.302 1.462-.445.167-.048.326-.15.501 0a.238.238 0 0 1 0 .302l-1.693.795c-.087.087-.135.246-.31.159l-.333-.08zm-1.39.93c.336-.468.83-.798 1.39-.93-.33.474-.826.805-1.39.93z" fill="#1D9FD6"/><path d="M24.493 24.858l.31-.159c0 .43.429.668.46 1.081-.389-.19-.508-.62-.77-.922z" fill="#1F97CF"/><path d="M23.841 17.92a2.59 2.59 0 0 1 .151-.89c0-.158.103-.373.254-.31.509.215.914-.135 1.367-.166a6.254 6.254 0 0 0 2.734-1.018c.342-.198.795-.119 1.041-.548.294.095.238.461.461.604l.294.19a8.074 8.074 0 0 0-1.518.795c-1.352.626-2.8 1.02-4.283 1.169-.17.047-.338.105-.5.175z" fill="#A5E6FD"/><path d="M24.048 18.842c.238-.492.683-.325 1.088-.42 1.59-.374 3.243-.58 4.578-1.638.167-.135.302-.262.54-.15a.286.286 0 0 0 .263-.072c.15-.23-.334-.128-.207-.374.183-.373.254.04.381.056.128.016.342.103.509.135.127.01.255.01.381 0 .167.357.072.453-.31.683-.794.47-1.589.874-2.384 1.288a12.954 12.954 0 0 1-4.029 1.112.946.946 0 0 1-.524-.175c-.16-.127-.382-.214-.286-.445z" fill="#98E3FD"/><path d="M24.803 19.303a16.228 16.228 0 0 0 5.07-1.59c.429-.206.993-.365 1.184-1.008.111-.366.23.286.453.167l.08-.493c.206 0 .444.071.611-.143l.795.469c.167.254 0 .333-.199.325-.31-.015-.615.09-.85.295a13.756 13.756 0 0 1-4.546 2.44 7.105 7.105 0 0 0-1.59.428c-.317 0-.508-.262-.73-.445-.223-.182-.35-.214-.278-.445z" fill="#91E1FD"/><path d="M24.048 18.842l.294.31c0 .318-.151.525-.517.525-.651 0-1.287.143-1.931.15a.326.326 0 0 1-.286-.11l-.04-.096c.127-.429-.429-.938-.103-1.2a4.244 4.244 0 0 1 2.114-.938c0 .16 0 .342.111.47.095.325.032.667.358.89z" fill="#28A0D2"/><path d="M25.725 20.074c.301 0 .254-.39.667-.39a7.454 7.454 0 0 0 3.878-1.477c.54-.334 1.2-.477 1.59-1.113.159-.262.723-.27 1.104-.397h.135c.445.66 0 1.04-.437 1.446a.683.683 0 0 1-.437.12c-.214-.104-.31-.24-.58.103a5.325 5.325 0 0 1-2.328 1.398c-.878.393-1.794.694-2.734.898a1.931 1.931 0 0 1-.89-.254.27.27 0 0 1 .032-.334z" fill="#8BDFFC"/><path d="M32.52 18.08c.459-.302.689-.853.58-1.391l.794-.954c.326.962.072 1.955.151 2.925h-1.311c.477.317.977-.04 1.319.31h-1.542c-.413-.287-.254-.589.008-.89z" fill="#2793C8"/><path d="M33.584 23.309c.08-.23-.35-.302-.175-.54 0 0 .215.047.326.079 0 .198.032.35-.15.46z" fill="#2483BC"/><path d="M32.52 18.08a1.16 1.16 0 0 0 0 .921 2.845 2.845 0 0 1-.795 1.383c-.239-.143-.366-.548-.795-.27a.453.453 0 0 1-.58-.19v-.104a.795.795 0 0 1 .635-.58c.527-.17.972-.53 1.248-1.01l.286-.15z" fill="#7EDCFC"/><path d="M31.113 20.996l-.294.93c-.12-.088-.318-.262-.35-.239-.707.565-1.59.573-2.384.906-.278.12-.294.398-.485.565-.294-.143-.358-.35-.151-.62.103-.38.41-.668.795-.747.899-.221 1.763-.566 2.567-1.025.341-.263.087.317.302.23z" fill="#76DAFD"/><path d="M29.134 25.144c-.326 0-.572.406-.946.167a1.59 1.59 0 0 1-.294-.93c.12-.549.656-.902 1.208-.794.413.103.413-.58.795-.278-.048.357.206.794-.191 1.065l-.151.166-.143.302-.278.302z" fill="#61D4FC"/><path d="M27.433 22.538c-.017.217.036.434.151.62v.15c-.278.215-.556.398-.898.12a.74.74 0 0 1-.127-.183 3.179 3.179 0 0 1-.31-1.271c.413-.636.7 0 1.041.11l.143.454z" fill="#268FC2"/><path d="M26.654 23.309c.302.246.604.071.898 0v.166l-.453.151c-.135.064 0 .406-.31.31h-.31v-.302a.326.326 0 0 1 .175-.325z" fill="#1EA5DC"/><path d="M30.35 19.923c0 .731-.628.795-1.033.882-.589.096-1.057.501-1.653.533-.35 0-.151.46-.382.596-.437-.23-.437-.62-.39-1.033.93-.604 2.059-.66 3.044-1.097.151-.052.318 0 .414.127v-.008z" fill="#80DCFD"/><path d="M26.972 20.845l.318 1.08v.16c-.215.135-.358 0-.5-.127-.144-.128-.263-.247-.414 0-.588-.12-.46-.732-.739-1.057 0-.199-.238-.453.167-.501.307-.026.615.035.89.175.064.087.246.087.278.27z" fill="#2792C7"/><path d="M23.11 22.697l.62 1.08a.914.914 0 0 1-1.168.374c-.366-.135-.795.087-1.137.238a3.41 3.41 0 0 1-.922-1.231c.158-.382.512-.647.922-.692.445.85 1.105.278 1.685.23z" fill="#258BC0"/><path d="M21.457 22.546l-.93.612-.31.159v-.31a7.295 7.295 0 0 1 1.86-1.367c.183-.096.31-.27.493-.374a17.579 17.579 0 0 0 2.153-.961c.318-.112.247-.485.421-.692l.612.47.048.285c-.238.143 0 .326 0 .485 0 .159 0 .183-.151.199-.336-.2-.753-.2-1.089 0a7.478 7.478 0 0 1-1.685.699v.167a4.768 4.768 0 0 1-1.422.628z" fill="#1DA7DE"/><path d="M22.49 21.306a.453.453 0 0 1-.31.46 15.846 15.846 0 0 0-1.9-.222 1.59 1.59 0 0 1-1.207-.699l-.302-.159a1.017 1.017 0 0 1-.16-.612c0-.302.263-.35.462-.46h.31a2.893 2.893 0 0 0 2.257.42c.445.27.58.755.794 1.169l.056.103z" fill="#2695CA"/><path d="M19.073 20.845a4.14 4.14 0 0 0 2.384.612.906.906 0 0 1 .755.302l-2.027 1.24c-.444-.678-.816-1.4-1.112-2.154z" fill="#2691C6"/><path d="M21.72 20.074c-.2.278-.398.485-.795.239a1.017 1.017 0 0 0-.708-.175c-.532.15-.66-.183-.794-.533a1.59 1.59 0 0 1 .921-.612.127.127 0 0 1 .135 0c.183.104.295.62.596.104 0 0 .136 0 .191.071a.477.477 0 0 0 .31.461c.072.127.239.239.143.445z" fill="#279ACD"/><path d="M21.258 19.152h-.143c-.397.35-.397.35-.794-.175a.326.326 0 0 1 .31-.158.342.342 0 0 0 .31-.151.46.46 0 0 1 .317.484z" fill="#28A0D2"/><path d="M20.956 18.691c0 .143 0 .31-.182.35-.183.04-.112-.111-.128-.199a.318.318 0 0 1 .31-.15z" fill="#279ACD"/><path d="M22.458 16.053l.644-.31c-.056.461-.39.294-.644.31z" fill="#2CB1DF"/><path d="M26.805 23.928l.31-.31c-.071.795.652 1.367.612 2.162a1.462 1.462 0 0 1-.46-.795 4.649 4.649 0 0 1-.462-1.057z" fill="#1F94CB"/><path d="M26.654 23.309a.326.326 0 0 1-.15.317 5.364 5.364 0 0 0-1.248.565c-.66.532-.922.103-1.192-.382-.175-.31-.326-.635-.485-.961-.048-.08 0-.183.047-.167.894.144 1.801.179 2.702.103.223.103.215.358.334.525h-.008z" fill="#258CC0"/><path d="M26.344 22.848a5.817 5.817 0 0 1-2.773 0 1.748 1.748 0 0 1-.461-.922c.636.048 1.248-.294 1.891-.16.43.088.366-.547.795-.468.304.465.492.997.548 1.55z" fill="#2690C4"/><path d="M25.725 21.306a.795.795 0 0 1-1.105.62c-.5-.127-1.01.46-1.51 0l-.302-.16c.7-.451 1.449-.822 2.233-1.104.39-.175.397.167.533.35.135.183.246.127.15.294z" fill="#2694C8"/><path d="M21.457 22.546c.437-.255.795-.708 1.383-.612-.064.318.175.524.31.794-.183.422-.668.318-.986.517-.318.199-.747-.199-.707-.7z" fill="#2690C4"/><path d="M25.113 19.613c.159.413.127.723-.366.882a6.97 6.97 0 0 0-1.59.795.572.572 0 0 1-.699.04c-.127-.54-.794-.89-.62-1.542 0-.103 0-.214.16-.207.548 0 1.128.207 1.589-.294.341.565.516.112.73-.119l.454.16.342.285z" fill="#279ACD"/><path d="M21.878 19.764c0 .58.684.914.62 1.542a2.83 2.83 0 0 1-.795-1.232l-.15-.46.325.15z" fill="#1EA8DE"/><path d="M26.972 20.845l-.31-.31c.795-.302 1.59-.628 2.44-.89.81-.294 1.579-.69 2.289-1.176.35-.215.318-.612.516-.938 0 .31.191.469.294.692 0 .532-.318.794-.739 1-.42.207-.89.223-1.104.692-.979.243-1.942.543-2.885.898-.19.064-.334.135-.5.032z" fill="#85DEFD"/><path d="M25.725 21.306l-.151-.31.15-.151c.366.27.247.795.612 1.08l.31 1.384-.31-.461a6.834 6.834 0 0 1-.611-1.542z" fill="#1FA2D6"/><path d="M22.641 5.372c-.652.207-1.32.421-2.003.66A29.722 29.722 0 0 0 13.446 9.6s2.178-1.979 7.264-4.196c.437-.19.938-.397 1.47-.604l.461.572zm.103 0a69.036 69.036 0 0 1 9.044-2.193l-.556-1.184a65.023 65.023 0 0 0-8.98 2.773l.492.604zm-.691-.866c3-1.183 6.065-2.196 9.179-3.036a7.947 7.947 0 0 0-.58-1.398s-2.226.611-8.273 2.908l-1.16.461.834 1.065zm-12.12 9.346c-.158-3.688 6.207-7.05 12.017-9.338l-.795-1.041c-5.77 2.384-12.183 6.556-12.016 9.894.175 3.576 4.657 5.77 4.657 5.77-3.234-2.448-3.759-3.005-3.862-5.285z" fill="url(#a)"/><ellipse fill="#0AB3E9" opacity=".33" cx="27.099" cy="34.641" rx="12.668" ry="1.732"/><ellipse fill="#0AB3E9" opacity=".79" cx="27.099" cy="34.641" rx="10.156" ry="1.383"/><ellipse fill="#018CBC" opacity=".61" cx="27.099" cy="34.641" rx="5.372" ry="1"/><ellipse fill="#016789" cx="27.099" cy="34.641" rx="2.932" ry="1"/><path fill="#20ABFC" d="M43.4622517 36.413245L43.4622517 32.5827815 44.2569536 32.5827815 44.2569536 35.7139073 45.8463576 35.7139073 45.8463576 36.4370861z"/><path d="M46.3 34.49a2.01 2.01 0 1 1 2.01 1.995 1.931 1.931 0 0 1-2.01-1.995zm3.178 0a1.176 1.176 0 1 0-1.168 1.272 1.168 1.168 0 0 0 1.168-1.272zm1.232 0a1.955 1.955 0 0 1 2.05-1.995 1.764 1.764 0 0 1 1.59.938l-.708.35a1.041 1.041 0 0 0-.906-.557 1.264 1.264 0 0 0 0 2.528c.382-.004.73-.218.906-.557l.708.342c-.31.589-.924.954-1.59.946a1.955 1.955 0 0 1-2.05-1.995zm6.81 1.923l-.238-.651H55.63l-.246.651h-.93l1.486-3.83h1.025l1.486 3.846-.93-.016zm-1.096-3.036l-.604 1.653h1.24l-.636-1.653z" fill="#20ABFC"/><path fill="#20ABFC" d="M58.807947 36.413245L58.807947 32.5827815 59.602649 32.5827815 59.602649 35.7139073 61.192053 35.7139073 61.192053 36.4370861z"/><path d="M63.306 36.413v-3.83h2.026a.993.993 0 0 1 1.105.977.858.858 0 0 1-.667.882.93.93 0 0 1 .739.946 1.017 1.017 0 0 1-1.12 1.041l-2.083-.016zm2.297-2.726a.413.413 0 0 0-.453-.42h-1.025v.834h1.04a.413.413 0 0 0 .438-.414zm.071 1.59a.453.453 0 0 0-.493-.453h-1.056v.898h1.04c.334-.016.517-.183.517-.461l-.008.016zm4.117 1.136l-.239-.651H67.9l-.246.651h-.898l1.462-3.83h1.025l1.486 3.83h-.937zm-1.065-3.036l-.604 1.653h1.2l-.596-1.653z" fill="#20ABFC"/><path fill="#20ABFC" d="M73.7403974 36.413245L71.9046358 33.9019868 71.9046358 36.413245 71.1099338 36.413245 71.1099338 32.5827815 71.9523179 32.5827815 73.7324503 34.9668874 73.7324503 32.5827815 74.5271523 32.5827815 74.5271523 36.4291391z"/><path fill="#20ABFC" d="M77.5788079 36.413245L76.410596 34.8715232 76.1086093 35.2291391 76.1086093 36.413245 75.3139073 36.413245 75.3139073 32.5827815 76.1086093 32.5827815 76.1086093 34.2993377 77.4754967 32.5827815 78.4847682 32.5827815 76.9589404 34.386755 78.5960265 36.4291391z"/><path fill="#20ABFC" d="M78.9615894 36.413245L78.9615894 32.5827815 79.7562914 32.5827815 79.7562914 36.4291391z"/><path fill="#20ABFC" d="M83.197351 36.413245L81.3615894 33.9019868 81.3615894 36.413245 80.5668874 36.413245 80.5668874 32.5827815 81.4092715 32.5827815 83.189404 34.9668874 83.189404 32.5827815 83.984106 32.5827815 83.984106 36.4291391z"/><path d="M84.564 34.49a1.955 1.955 0 0 1 2.059-1.995 1.804 1.804 0 0 1 1.589.882l-.684.366c-.2-.311-.544-.5-.913-.5a1.264 1.264 0 0 0 .008 2.519c.29-.007.57-.11.794-.294v-.501H86.4v-.715h1.836v1.51c-.412.471-1.01.739-1.637.73a1.963 1.963 0 0 1-2.035-2.002z" fill="#20ABFC"/><path fill="#20ABFC" d="M93.0357616 36.413245L91.2 33.9019868 91.2 36.413245 90.405298 36.413245 90.405298 32.5827815 91.2476821 32.5827815 92.9801325 34.9668874 92.9801325 32.5827815 93.7748344 32.5827815 93.7748344 36.4291391z"/><path fill="#20ABFC" d="M94.5695364 36.413245L94.5695364 32.5827815 97.2953642 32.5827815 97.2953642 33.3059603 95.3880795 33.3059603 95.3880795 34.1006623 97.2556291 34.1006623 97.2556291 34.8238411 95.3880795 34.8238411 95.3880795 35.6980132 97.2953642 35.6980132 97.2953642 36.4211921z"/><path fill="#20ABFC" d="M98.8450331 36.413245L98.8450331 33.2821192 97.7483444 33.2821192 97.7483444 32.5827815 100.815894 32.5827815 100.815894 33.3059603 99.6953642 33.3059603 99.6953642 36.4370861z"/><path fill="#20ABFC" d="M104.256954 36.413245L103.581457 33.7668874 102.913907 36.413245 102.039735 36.413245 100.927152 32.5827815 101.84106 32.5827815 102.516556 35.3642384 103.247682 32.5827815 103.891391 32.5827815 104.622517 35.3642384 105.290066 32.5827815 106.211921 32.5827815 105.115232 36.4291391z"/><path d="M106.426 34.49a2.01 2.01 0 1 1 2.011 1.995 1.931 1.931 0 0 1-2.01-1.995zm3.18 0a1.176 1.176 0 1 0-1.169 1.272 1.168 1.168 0 0 0 1.176-1.272h-.008zm3.6 1.923l-.795-1.367h-.604v1.367h-.795v-3.83h1.836a1.2 1.2 0 0 1 1.295 1.24c.033.54-.33 1.024-.858 1.144l.866 1.462-.946-.016zm.079-2.606a.525.525 0 0 0-.58-.517h-.859v1.041h.859a.525.525 0 0 0 .58-.524z" fill="#20ABFC"/><path fill="#20ABFC" d="M117.027815 36.413245L115.859603 34.8715232 115.557616 35.2291391 115.557616 36.413245 114.762914 36.413245 114.762914 32.5827815 115.557616 32.5827815 115.557616 34.2993377 116.924503 32.5827815 117.933775 32.5827815 116.407947 34.386755 118.045033 36.4291391z"/></g></svg>