<?xml version="1.0" encoding="UTF-8" standalone="no"?>
<svg width="109px" height="85px" viewBox="0 0 109 85" version="1.1" xmlns="http://www.w3.org/2000/svg" xmlns:xlink="http://www.w3.org/1999/xlink">
    <!-- Generator: Sketch 46.2 (44496) - http://www.bohemiancoding.com/sketch -->
    <title>icn-maestro</title>
    <desc>Created with Sketch.</desc>
    <defs></defs>
    <g id="Page-1" stroke="none" stroke-width="1" fill="none" fill-rule="evenodd">
        <g id="Payment-Icons" transform="translate(-483.000000, -755.000000)" fill-rule="nonzero">
            <g id="icn-maestro" transform="translate(483.000000, 755.000000)">
                <path d="M33.0565934,84.2901099 L33.0565934,78.6857143 C33.1226893,77.7346917 32.776275,76.8012274 32.1057639,76.1235642 C31.4352528,75.445901 30.5055165,75.0896024 29.5538462,75.1456044 C28.2964385,75.063171 27.0938243,75.6716366 26.4153846,76.7335165 C25.7968423,75.7032972 24.664271,75.0940025 23.4637363,75.1456044 C22.4184393,75.0927615 21.4233267,75.5974257 20.8483516,76.471978 L20.8483516,75.3697802 L18.9054945,75.3697802 L18.9054945,84.2901099 L20.867033,84.2901099 L20.867033,79.3489011 C20.7790224,78.7299294 20.9736922,78.1041589 21.3972998,77.6443455 C21.8209074,77.1845321 22.4286495,76.9393086 23.0527473,76.9763736 C24.3417582,76.9763736 24.9956044,77.817033 24.9956044,79.3302198 L24.9956044,84.2901099 L26.9571429,84.2901099 L26.9571429,79.3489011 C26.8761309,78.7313368 27.0732204,78.109651 27.495241,77.6515602 C27.9172617,77.1934694 28.5207348,76.9461685 29.1428571,76.9763736 C30.4692308,76.9763736 31.1043956,77.817033 31.1043956,79.3302198 L31.1043956,84.2901099 L33.0565934,84.2901099 Z M43.9851648,79.8346154 L43.9851648,75.3791209 L42.0236264,75.3791209 L42.0236264,76.4626374 C41.3552693,75.60014 40.3117763,75.1131766 39.2214286,75.1549451 C36.6420767,75.1549451 34.5510989,77.2459229 34.5510989,79.8252747 C34.5510989,82.4046266 36.6420767,84.4956044 39.2214286,84.4956044 C40.3117763,84.5373729 41.3552693,84.0504095 42.0236264,83.1879121 L42.0236264,84.2714286 L43.9664835,84.2714286 L43.9851648,79.8346154 Z M36.7648352,79.8346154 C36.8512316,78.3687564 38.0934897,77.2408156 39.5608593,77.2958919 C41.0282289,77.3509683 42.1824384,78.5688583 42.1587072,80.0370694 C42.134976,81.5052805 40.9420094,82.6852323 39.4736264,82.6928571 C38.7218482,82.7104885 37.9974543,82.4104523 37.4783115,81.8664191 C36.9591687,81.322386 36.6933608,80.5847448 36.7461538,79.8346154 L36.7648352,79.8346154 Z M85.4950549,75.1642857 C86.1346799,75.1626327 86.76874,75.2831041 87.3631868,75.5192308 C87.9305954,75.7464595 88.4478835,76.0828554 88.8857143,76.5093407 C89.3178855,76.9319756 89.6609124,77.4369873 89.8945055,77.9945055 C90.3825157,79.1921208 90.3825157,80.5331539 89.8945055,81.7307692 C89.6611364,82.2884088 89.318081,82.7934627 88.8857143,83.2159341 C88.4478835,83.6424193 87.9305954,83.9788152 87.3631868,84.206044 C86.1314895,84.6846488 84.7652138,84.6846488 83.5335165,84.206044 C82.9687545,83.9790408 82.454485,83.6425435 82.0203297,83.2159341 C81.5922881,82.7918071 81.2525881,82.2870193 81.0208791,81.7307692 C80.5338611,80.5329597 80.5338611,79.192315 81.0208791,77.9945055 C81.2525881,77.4382554 81.5922881,76.9334676 82.0203297,76.5093407 C82.454485,76.0827312 82.9687545,75.7462339 83.5335165,75.5192308 C84.1493246,75.2639764 84.8097641,75.1337937 85.4763736,75.1362637 L85.4950549,75.1642857 Z M85.4950549,77.0324176 C85.1146401,77.0272287 84.7369316,77.0970572 84.3835165,77.2379121 C84.0506314,77.3713808 83.7486309,77.5716548 83.4961538,77.8263736 C83.2385872,78.0945234 83.0383604,78.4123437 82.9076923,78.7604396 C82.6223408,79.5062379 82.6223408,80.3311248 82.9076923,81.0769231 C83.0381242,81.4251361 83.2383795,81.7430017 83.4961538,82.010989 C83.7484616,82.2659139 84.0505074,82.466218 84.3835165,82.5994505 C85.0951235,82.8780959 85.8856457,82.8780959 86.5972527,82.5994505 C86.9461846,82.4704724 87.2643323,82.2700393 87.5313187,82.010989 C87.7895125,81.7433303 87.9898258,81.4253726 88.1197802,81.0769231 C88.4051317,80.3311248 88.4051317,79.5062379 88.1197802,78.7604396 C87.9898258,78.41199 87.7895125,78.0940324 87.5313187,77.8263736 C87.2643323,77.5673233 86.9461846,77.3668902 86.5972527,77.2379121 C86.244892,77.0766055 85.8637369,76.9876694 85.4763736,76.9763736 L85.4950549,77.0324176 Z M54.5401099,79.8346154 C54.5401099,77.0324176 52.8027473,75.1642857 50.3087912,75.1642857 C47.7294395,75.2003968 45.6677356,77.3206483 45.7038465,79.9 C45.7399574,82.4793517 47.8602087,84.5410558 50.4395604,84.5049451 C51.769357,84.5503799 53.0693698,84.1048512 54.0917582,83.2532967 L53.1576923,81.8148352 C52.4201184,82.4063592 51.5063589,82.7350497 50.560989,82.7489011 C49.2256169,82.8637446 48.0414212,81.8948572 47.8895604,80.5631868 L54.5120879,80.5631868 C54.5401099,80.3296703 54.5401099,80.0961538 54.5401099,79.8346154 Z M47.8989011,79.05 C47.9738748,77.8177334 49.0091648,76.8649366 50.2434066,76.8923077 C50.8305632,76.8797897 51.3986313,77.1010992 51.8225749,77.5075245 C52.2465184,77.9139497 52.4915895,78.4721785 52.5038462,79.0593407 L47.8989011,79.05 Z M62.7131868,77.6489011 C61.860169,77.1577277 60.8952499,76.8939831 59.910989,76.882967 C58.8461538,76.882967 58.210989,77.2752747 58.210989,77.9291209 C58.210989,78.582967 58.8835165,78.6950549 59.7241758,78.8071429 L60.6582418,78.9379121 C62.6010989,79.2181319 63.778022,80.0401099 63.778022,81.6093407 C63.778022,83.1785714 62.2835165,84.5236264 59.7148352,84.5236264 C58.3381332,84.5602475 56.9859908,84.1542774 55.8571429,83.3653846 L56.7912088,81.8521978 C57.6484041,82.4881376 58.6946507,82.817146 59.7615385,82.7862637 C61.0879121,82.7862637 61.7978022,82.393956 61.7978022,81.7027473 C61.7978022,81.1983516 61.2934066,80.9181319 60.2285714,80.7686813 L59.2945055,80.6379121 C57.2956044,80.3576923 56.2120879,79.460989 56.2120879,78.0038462 C56.2120879,76.2291209 57.6692308,75.1456044 59.9483516,75.1456044 C61.2239503,75.102866 62.485025,75.4270497 63.5818681,76.0796703 L62.7131868,77.6489011 Z M72.0538462,77.1445055 L68.8873626,77.1445055 L68.8873626,81.1703297 C68.8873626,82.1043956 69.2049451,82.6648352 70.1763736,82.6648352 C70.7827046,82.6447553 71.374036,82.4712123 71.8950549,82.1604396 L72.4554945,83.8230769 C71.7272105,84.2775727 70.8853843,84.5171694 70.0269231,84.5142857 C67.7291209,84.5142857 66.9258242,83.2813187 66.9258242,81.2076923 L66.9258242,77.1445055 L65.1137363,77.1445055 L65.1137363,75.3697802 L66.9258242,75.3697802 L66.9258242,72.660989 L68.8873626,72.660989 L68.8873626,75.3697802 L72.0538462,75.3697802 L72.0538462,77.1445055 Z M78.7697802,75.1456044 C79.2410374,75.1474254 79.708537,75.2295537 80.1521978,75.3884615 L79.5543956,77.2565934 C79.1683348,77.1026708 78.7556817,77.0264886 78.3401099,77.0324176 C77.0697802,77.0324176 76.471978,77.8543956 76.471978,79.3302198 L76.471978,84.3274725 L74.5291209,84.3274725 L74.5291209,75.4071429 L76.4532967,75.4071429 L76.4532967,76.4906593 C76.9389951,75.6563546 77.8421755,75.1545877 78.8071429,75.182967 L78.7697802,75.1456044 Z M92.2016484,82.9917582 C92.323089,82.9902704 92.4436543,83.0124798 92.5565934,83.0571429 C92.6638641,83.100917 92.7620548,83.1642658 92.8461538,83.243956 C92.9282295,83.3244925 92.9947289,83.4194916 93.0423077,83.5241758 C93.1379197,83.7446595 93.1379197,83.9949009 93.0423077,84.2153846 C92.9947289,84.3200688 92.9282295,84.4150679 92.8461538,84.4956044 C92.7620548,84.5752946 92.6638641,84.6386435 92.5565934,84.6824176 C92.4447692,84.7317598 92.3238748,84.7572113 92.2016484,84.7571429 C91.8402112,84.7544185 91.5127866,84.5434116 91.360989,84.2153846 C91.266484,83.9946725 91.266484,83.7448879 91.360989,83.5241758 C91.4085679,83.4194916 91.4750672,83.3244925 91.5571429,83.243956 C91.6412419,83.1642658 91.7394326,83.100917 91.8467033,83.0571429 C91.9450065,83.0180497 92.0492365,82.9959403 92.1549451,82.9917582 L92.2016484,82.9917582 Z M92.2016484,84.5703297 C92.294877,84.570896 92.3871775,84.5517994 92.4725275,84.5142857 C92.5528911,84.4784059 92.6257744,84.4277045 92.6873626,84.3648352 C92.848201,84.2028483 92.9186908,83.9718978 92.8757206,83.7477053 C92.8327504,83.5235128 92.6818621,83.3349931 92.4725275,83.243956 C92.3870933,83.2067068 92.2948493,83.1876219 92.2016484,83.1879121 C92.1085279,83.1884042 92.01644,83.2074569 91.9307692,83.243956 C91.8468477,83.2783671 91.7706349,83.3291756 91.7065934,83.3934066 C91.4643929,83.6576605 91.4643929,84.0632186 91.7065934,84.3274725 C91.8372542,84.4597702 92.0157072,84.533845 92.2016484,84.532967 L92.2016484,84.5703297 Z M92.2576923,83.4587912 C92.3448886,83.4545626 92.4308129,83.4810009 92.5005495,83.5335165 C92.5585572,83.5815237 92.5898569,83.6545563 92.5846154,83.7296703 C92.5873269,83.7923977 92.5636087,83.8533874 92.5192308,83.8978022 C92.4650905,83.946977 92.3960243,83.9765768 92.3230769,83.9818681 L92.593956,84.2901099 L92.3791209,84.2901099 L92.1269231,83.9818681 L92.0428571,83.9818681 L92.0428571,84.2901099 L91.8653846,84.2901099 L91.8653846,83.4307692 L92.2576923,83.4587912 Z M92.0521978,83.6175824 L92.0521978,83.8417582 L92.2576923,83.8417582 C92.2942596,83.8526605 92.3332129,83.8526605 92.3697802,83.8417582 C92.3831027,83.8153197 92.3831027,83.7841308 92.3697802,83.7576923 C92.3831027,83.7312538 92.3831027,83.7000649 92.3697802,83.6736264 C92.3332129,83.6627241 92.2942596,83.6627241 92.2576923,83.6736264 L92.0521978,83.6175824 Z" id="Shape" fill="#000000"></path>
                <g id="_Group_">
                    <rect id="Rectangle-path" fill="#7673C0" x="39.8285714" y="7.31373626" width="29.4230769" height="52.8774725"></rect>
                    <path d="M41.6967033,33.7571429 C41.6857025,23.4371082 46.421997,13.6855084 54.5401099,7.31373626 C40.7531009,-3.5213802 20.954403,-1.94315179 9.05800902,10.939285 C-2.83838494,23.8217218 -2.83838494,43.6832233 9.05800902,56.5656601 C20.954403,69.4480968 40.7531009,71.0263253 54.5401099,60.1912088 C46.4245796,53.8214595 41.6885744,44.0738997 41.6967033,33.7571429 L41.6967033,33.7571429 Z" id="_Path_" fill="#EB001B"></path>
                    <path d="M105.736264,54.5868132 L105.736264,53.5406593 L106.175275,53.5406593 L106.175275,53.3164835 L105.063736,53.3164835 L105.063736,53.5406593 L105.502747,53.5406593 L105.502747,54.6241758 L105.736264,54.5868132 Z M107.893956,54.5868132 L107.893956,53.2791209 L107.557692,53.2791209 L107.165385,54.2131868 L106.773077,53.2791209 L106.427473,53.2791209 L106.427473,54.5868132 L106.67033,54.5868132 L106.67033,53.606044 L107.034615,54.456044 L107.286813,54.456044 L107.651099,53.606044 L107.651099,54.5961538 L107.893956,54.5868132 Z" id="Shape" fill="#00A1DF"></path>
                    <path d="M108.94011,33.7571429 C108.937,46.6282613 101.587014,58.368394 90.0102751,63.9937668 C78.4335363,69.6191395 64.6613491,68.1427004 54.5401099,60.1912088 C62.6520991,53.8160517 67.3884608,44.0697879 67.3884608,33.7524725 C67.3884608,23.4351571 62.6520991,13.6888934 54.5401099,7.31373626 C64.6612652,-0.643473188 78.4373366,-2.12326023 90.0175736,3.50284637 C101.597811,9.12895298 108.94915,20.8732161 108.949451,33.7478022 L108.94011,33.7571429 Z" id="Shape" fill="#00A1DF"></path>
                </g>
            </g>
        </g>
    </g>
</svg>