<?xml version="1.0" encoding="UTF-8" standalone="no"?>
<svg width="109px" height="85px" viewBox="0 0 109 85" version="1.1" xmlns="http://www.w3.org/2000/svg" xmlns:xlink="http://www.w3.org/1999/xlink">
    <!-- Generator: Sketch 46.2 (44496) - http://www.bohemiancoding.com/sketch -->
    <title>icn-mastercard</title>
    <desc>Created with Sketch.</desc>
    <defs></defs>
    <g id="Page-1" stroke="none" stroke-width="1" fill="none" fill-rule="evenodd">
        <g id="Payment-Icons" transform="translate(-43.000000, -1046.000000)" fill-rule="nonzero">
            <g id="icn-mastercard" transform="translate(43.000000, 1046.000000)">
                <g id="Group">
                    <path d="M20.2336957,84.1684783 L20.2336957,78.625 C20.2336957,76.5 18.9402174,75.1141304 16.7228261,75.1141304 C15.6141304,75.1141304 14.4130435,75.4836957 13.5815217,76.6847826 C12.9347826,75.6684783 12.0108696,75.1141304 10.625,75.1141304 C9.70108696,75.1141304 8.77717391,75.3913043 8.03804348,76.4076087 L8.03804348,75.298913 L6.09782609,75.298913 L6.09782609,84.1684783 L8.03804348,84.1684783 L8.03804348,79.2717391 C8.03804348,77.701087 8.86956522,76.9619565 10.1630435,76.9619565 C11.4565217,76.9619565 12.1032609,77.7934783 12.1032609,79.2717391 L12.1032609,84.1684783 L14.0434783,84.1684783 L14.0434783,79.2717391 C14.0434783,77.701087 14.9673913,76.9619565 16.1684783,76.9619565 C17.4619565,76.9619565 18.1086957,77.7934783 18.1086957,79.2717391 L18.1086957,84.1684783 L20.2336957,84.1684783 Z M48.9673913,75.298913 L45.826087,75.298913 L45.826087,72.6195652 L43.8858696,72.6195652 L43.8858696,75.298913 L42.1304348,75.298913 L42.1304348,77.0543478 L43.8858696,77.0543478 L43.8858696,81.1195652 C43.8858696,83.1521739 44.7173913,84.3532609 46.9347826,84.3532609 C47.7663043,84.3532609 48.6902174,84.076087 49.3369565,83.7065217 L48.7826087,82.0434783 C48.2282609,82.4130435 47.5815217,82.5054348 47.1195652,82.5054348 C46.1956522,82.5054348 45.826087,81.951087 45.826087,81.0271739 L45.826087,77.0543478 L48.9673913,77.0543478 L48.9673913,75.298913 Z M65.4130435,75.1141304 C64.3043478,75.1141304 63.5652174,75.6684783 63.1032609,76.4076087 L63.1032609,75.298913 L61.1630435,75.298913 L61.1630435,84.1684783 L63.1032609,84.1684783 L63.1032609,79.1793478 C63.1032609,77.701087 63.75,76.8695652 64.951087,76.8695652 C65.3206522,76.8695652 65.7826087,76.9619565 66.1521739,77.0543478 L66.7065217,75.2065217 C66.3369565,75.1141304 65.7826087,75.1141304 65.4130435,75.1141304 L65.4130435,75.1141304 Z M40.5597826,76.0380435 C39.6358696,75.3913043 38.3423913,75.1141304 36.9565217,75.1141304 C34.7391304,75.1141304 33.2608696,76.2228261 33.2608696,77.9782609 C33.2608696,79.4565217 34.3695652,80.2880435 36.3097826,80.5652174 L37.2336957,80.6576087 C38.25,80.8423913 38.8043478,81.1195652 38.8043478,81.5815217 C38.8043478,82.2282609 38.0652174,82.6902174 36.7717391,82.6902174 C35.4782609,82.6902174 34.4619565,82.2282609 33.8152174,81.7663043 L32.8913043,83.2445652 C33.9076087,83.9836957 35.2934783,84.3532609 36.6793478,84.3532609 C39.2663043,84.3532609 40.7445652,83.1521739 40.7445652,81.4891304 C40.7445652,79.9184783 39.5434783,79.0869565 37.6956522,78.8097826 L36.7717391,78.7173913 C35.9402174,78.625 35.2934783,78.4402174 35.2934783,77.8858696 C35.2934783,77.2391304 35.9402174,76.8695652 36.9565217,76.8695652 C38.0652174,76.8695652 39.173913,77.3315217 39.7282609,77.6086957 L40.5597826,76.0380435 Z M92.1141304,75.1141304 C91.0054348,75.1141304 90.2663043,75.6684783 89.8043478,76.4076087 L89.8043478,75.298913 L87.8641304,75.298913 L87.8641304,84.1684783 L89.8043478,84.1684783 L89.8043478,79.1793478 C89.8043478,77.701087 90.451087,76.8695652 91.6521739,76.8695652 C92.0217391,76.8695652 92.4836957,76.9619565 92.8532609,77.0543478 L93.4076087,75.2065217 C93.0380435,75.1141304 92.4836957,75.1141304 92.1141304,75.1141304 L92.1141304,75.1141304 Z M67.3532609,79.7336957 C67.3532609,82.4130435 69.201087,84.3532609 72.0652174,84.3532609 C73.3586957,84.3532609 74.2826087,84.076087 75.2065217,83.3369565 L74.2826087,81.7663043 C73.5434783,82.3206522 72.8043478,82.5978261 71.9728261,82.5978261 C70.4021739,82.5978261 69.2934783,81.4891304 69.2934783,79.7336957 C69.2934783,78.0706522 70.4021739,76.9619565 71.9728261,76.8695652 C72.8043478,76.8695652 73.5434783,77.1467391 74.2826087,77.701087 L75.2065217,76.1304348 C74.2826087,75.3913043 73.3586957,75.1141304 72.0652174,75.1141304 C69.201087,75.1141304 67.3532609,77.0543478 67.3532609,79.7336957 L67.3532609,79.7336957 Z M85.2771739,79.7336957 L85.2771739,75.298913 L83.3369565,75.298913 L83.3369565,76.4076087 C82.6902174,75.576087 81.7663043,75.1141304 80.5652174,75.1141304 C78.0706522,75.1141304 76.1304348,77.0543478 76.1304348,79.7336957 C76.1304348,82.4130435 78.0706522,84.3532609 80.5652174,84.3532609 C81.8586957,84.3532609 82.7826087,83.8913043 83.3369565,83.0597826 L83.3369565,84.1684783 L85.2771739,84.1684783 L85.2771739,79.7336957 Z M78.1630435,79.7336957 C78.1630435,78.1630435 79.1793478,76.8695652 80.8423913,76.8695652 C82.4130435,76.8695652 83.5217391,78.0706522 83.5217391,79.7336957 C83.5217391,81.3043478 82.4130435,82.5978261 80.8423913,82.5978261 C79.1793478,82.5054348 78.1630435,81.3043478 78.1630435,79.7336957 L78.1630435,79.7336957 Z M54.9728261,75.1141304 C52.3858696,75.1141304 50.5380435,76.9619565 50.5380435,79.7336957 C50.5380435,82.5054348 52.3858696,84.3532609 55.0652174,84.3532609 C56.3586957,84.3532609 57.6521739,83.9836957 58.6684783,83.1521739 L57.7445652,81.7663043 C57.0054348,82.3206522 56.0815217,82.6902174 55.1576087,82.6902174 C53.9565217,82.6902174 52.7554348,82.1358696 52.4782609,80.5652174 L59.0380435,80.5652174 C59.0380435,80.2880435 59.0380435,80.1032609 59.0380435,79.826087 C59.1304348,76.9619565 57.4673913,75.1141304 54.9728261,75.1141304 L54.9728261,75.1141304 Z M54.9728261,76.7771739 C56.173913,76.7771739 57.0054348,77.5163043 57.1902174,78.9021739 L52.5706522,78.9021739 C52.7554348,77.701087 53.5869565,76.7771739 54.9728261,76.7771739 L54.9728261,76.7771739 Z M103.108696,79.7336957 L103.108696,71.7880435 L101.168478,71.7880435 L101.168478,76.4076087 C100.521739,75.576087 99.5978261,75.1141304 98.3967391,75.1141304 C95.9021739,75.1141304 93.9619565,77.0543478 93.9619565,79.7336957 C93.9619565,82.4130435 95.9021739,84.3532609 98.3967391,84.3532609 C99.6902174,84.3532609 100.61413,83.8913043 101.168478,83.0597826 L101.168478,84.1684783 L103.108696,84.1684783 L103.108696,79.7336957 Z M95.9945652,79.7336957 C95.9945652,78.1630435 97.0108696,76.8695652 98.673913,76.8695652 C100.244565,76.8695652 101.353261,78.0706522 101.353261,79.7336957 C101.353261,81.3043478 100.244565,82.5978261 98.673913,82.5978261 C97.0108696,82.5054348 95.9945652,81.3043478 95.9945652,79.7336957 L95.9945652,79.7336957 Z M31.1358696,79.7336957 L31.1358696,75.298913 L29.1956522,75.298913 L29.1956522,76.4076087 C28.548913,75.576087 27.625,75.1141304 26.423913,75.1141304 C23.9293478,75.1141304 21.9891304,77.0543478 21.9891304,79.7336957 C21.9891304,82.4130435 23.9293478,84.3532609 26.423913,84.3532609 C27.7173913,84.3532609 28.6413043,83.8913043 29.1956522,83.0597826 L29.1956522,84.1684783 L31.1358696,84.1684783 L31.1358696,79.7336957 Z M23.9293478,79.7336957 C23.9293478,78.1630435 24.9456522,76.8695652 26.6086957,76.8695652 C28.1793478,76.8695652 29.2880435,78.0706522 29.2880435,79.7336957 C29.2880435,81.3043478 28.1793478,82.5978261 26.6086957,82.5978261 C24.9456522,82.5054348 23.9293478,81.3043478 23.9293478,79.7336957 Z" id="XMLID_1775_" fill="#000000"></path>
                    <g id="XMLID_328_">
                        <rect id="Rectangle-path" fill="#FF5F00" x="39.9130435" y="7.94565217" width="29.1032609" height="52.2934783"></rect>
                        <path d="M41.7608696,34.0923913 C41.7608696,23.4673913 46.75,14.0434783 54.4184783,7.94565217 C48.7826087,3.51086957 41.6684783,0.831521739 33.9076087,0.831521739 C15.5217391,0.831521739 0.64673913,15.7065217 0.64673913,34.0923913 C0.64673913,52.4782609 15.5217391,67.3532609 33.9076087,67.3532609 C41.6684783,67.3532609 48.7826087,64.673913 54.4184783,60.2391304 C46.75,54.2336957 41.7608696,44.7173913 41.7608696,34.0923913 Z" id="XMLID_330_" fill="#EB001B"></path>
                        <path d="M108.282609,34.0923913 C108.282609,52.4782609 93.4076087,67.3532609 75.0217391,67.3532609 C67.2608696,67.3532609 60.1467391,64.673913 54.5108696,60.2391304 C62.2717391,54.1413043 67.1684783,44.7173913 67.1684783,34.0923913 C67.1684783,23.4673913 62.1793478,14.0434783 54.5108696,7.94565217 C60.1467391,3.51086957 67.2608696,0.831521739 75.0217391,0.831521739 C93.4076087,0.831521739 108.282609,15.798913 108.282609,34.0923913 Z" id="Shape" fill="#F79E1B"></path>
                    </g>
                </g>
            </g>
        </g>
    </g>
</svg>