<svg width="284" height="126" viewBox="0 0 284 126" fill="none" xmlns="http://www.w3.org/2000/svg">
<path d="M44.0839 78.5419C43.0573 78.5419 42.0307 77.9721 41.4603 77.0605L28.6844 55.0674C27.8859 53.586 28.3422 51.7628 29.8251 50.8512C31.3081 50.0535 33.1332 50.5093 34.0457 51.9907L46.8216 73.8698C47.6201 75.3512 47.1638 77.1744 45.6809 78.086C45.1106 78.4279 44.6543 78.5419 44.0839 78.5419Z" fill="#F69220"/>
<path d="M76.2517 66.5767C76.2517 64.9814 75.6814 63.5 74.7688 61.9046C73.4 59.3977 71.803 57.8023 69.6357 56.7767C67.8105 55.8651 65.7573 55.4093 63.704 55.6372C64.3884 54.1558 64.8447 52.6744 64.9588 51.0791C65.1869 48.8 64.3884 46.7488 63.0196 44.2419C62.107 42.6465 60.9663 41.507 59.7115 40.5953C58.3427 39.7977 56.9738 39.2279 55.3769 39.114C53.7799 39 52.1829 39.114 50.4718 39.4558C49.9015 39.5698 49.3311 39.7977 48.7608 39.9116C48.5326 40.0256 48.3045 40.1395 48.0764 40.2535C47.0497 40.5953 44.4261 42.0767 43.5135 42.6465L39.0648 45.2674H38.9507C37.3537 46.293 36.7834 48.3442 37.696 50.0535C38.3804 51.193 39.5211 51.7628 40.6618 51.7628C41.2321 51.7628 41.8025 51.6488 42.3728 51.307H42.4869L49.6733 47.2046C50.3578 46.8628 51.0422 46.6349 51.7266 46.5209C52.411 46.407 53.0955 46.5209 53.7799 46.6349C54.4643 46.8628 55.0346 47.2046 55.7191 47.6605C56.2894 48.1163 56.7457 48.686 57.202 49.3698C57.5442 50.0535 57.8864 50.7372 58.0005 51.5349C58.1145 52.3326 58.1145 53.0163 58.0005 53.7C57.8864 54.3837 57.6583 54.9535 57.202 55.5233C56.8598 56.093 56.2894 56.5488 55.7191 56.8907L51.3844 59.5116L49.5593 60.5372L48.4186 61.2209C46.8216 62.1326 46.3653 64.0698 47.2779 65.6651C47.8482 66.6907 48.9889 67.2605 50.1296 67.2605C50.7 67.2605 51.2703 67.1465 51.7266 66.8046L54.1221 65.4372L60.2819 62.1326C60.9663 61.7907 61.5367 61.5628 62.2211 61.5628C62.9055 61.5628 63.5899 61.6767 64.1603 61.9046C64.8447 62.1326 65.415 62.4744 65.9854 62.9302C66.5558 63.386 67.012 63.9558 67.4683 64.6395C67.8105 65.3233 68.0387 66.007 68.1527 66.6907C68.2668 67.3744 68.2668 68.1721 68.0387 68.8558C67.9246 69.5395 67.5824 70.1093 67.1261 70.793C66.6698 71.3628 66.0995 71.8186 65.415 72.2744L54.8065 78.3139H54.2362L52.297 79.4535L48.5326 81.5046C46.9357 82.4163 46.2512 84.4674 47.1638 86.0628C47.7341 87.2023 48.8748 87.886 50.1296 87.886C50.7 87.886 51.2703 87.7721 51.7266 87.4302L60.8522 82.5302L68.2668 78.5419C69.8638 77.6302 71.3467 76.4907 72.6015 75.2372C73.8563 73.9837 74.7688 72.6163 75.3392 71.2488C76.0236 69.6535 76.3658 68.1721 76.2517 66.5767Z" fill="#606060"/>
<path d="M170.702 72.5023C170.018 72.5023 169.219 72.5023 168.649 71.9326C168.078 71.3628 168.078 70.5651 168.078 69.8814V52.7884C168.078 52.1047 168.078 51.307 168.649 50.7372C169.219 50.1674 170.018 50.1674 170.702 50.1674H177.09C181.539 50.1674 184.048 52.6744 184.048 56.4349C184.048 58.9419 182.451 60.5372 181.196 61.107C182.565 61.7907 184.276 63.1581 184.276 66.1209C184.276 70.3372 181.425 72.6163 177.432 72.6163H170.702V72.5023ZM172.527 54.0419V59.1698H176.862C178.687 59.1698 179.714 58.1442 179.714 56.5488C179.714 54.9535 178.687 53.9279 176.862 53.9279H172.527V54.0419ZM177.09 68.6279C179.029 68.6279 180.056 67.3744 180.056 65.893C180.056 64.4116 179.143 63.1581 177.09 63.1581H172.527V68.6279H177.09Z" fill="#606060"/>
<path d="M191.235 65.5512C191.235 67.7163 192.489 69.1977 194.885 69.1977C195.912 69.1977 196.938 68.9698 197.737 68.286C198.421 67.8302 198.763 67.7163 199.22 67.7163C200.018 67.7163 200.817 68.514 200.817 69.4256C200.817 70.2233 200.132 70.907 199.22 71.4767C198.079 72.2744 196.596 72.6163 194.771 72.6163C190.892 72.6163 187.128 70.907 187.128 64.1837C187.128 58.8279 189.98 55.7512 194.315 55.7512C198.763 55.7512 201.273 58.9419 201.501 63.0442C201.501 63.7279 201.387 64.4116 200.931 64.8674C200.36 65.4372 199.79 65.4372 199.105 65.4372H191.235V65.5512ZM197.166 60.993C196.71 59.9674 195.797 59.2837 194.429 59.2837C193.06 59.2837 192.147 59.9674 191.691 60.993C191.463 61.5628 191.349 62.0186 191.349 62.8163H197.623C197.509 62.0186 197.394 61.5628 197.166 60.993Z" fill="#606060"/>
<path d="M205.493 59.7395H205.037C204.239 59.7395 204.011 59.7395 203.668 59.5116C203.212 59.2837 202.87 58.8279 202.87 58.1442C202.87 57.5744 203.098 57.0046 203.668 56.7767C204.011 56.5488 204.239 56.5488 205.037 56.5488H205.493V54.3837C205.493 53.3581 205.493 53.0163 205.722 52.5605C206.064 51.9907 206.634 51.5349 207.547 51.5349C208.345 51.5349 209.03 51.8767 209.372 52.5605C209.6 53.0163 209.6 53.3581 209.6 54.3837V56.5488H210.855C211.653 56.5488 211.881 56.5488 212.224 56.7767C212.68 57.0046 213.022 57.4605 213.022 58.1442C213.022 58.714 212.794 59.2837 212.224 59.5116C211.881 59.7395 211.653 59.7395 210.855 59.7395H209.6V67.6023C209.6 68.4 209.828 68.9698 210.969 69.0837C211.539 69.0837 211.881 69.1977 212.224 69.3116C212.68 69.5395 213.022 69.9953 213.022 70.793C213.022 71.4767 212.68 72.0465 212.224 72.2744C211.881 72.5023 211.311 72.5023 210.513 72.5023H210.284C206.862 72.5023 205.493 70.2233 205.493 67.8302V59.7395Z" fill="#606060"/>
<path d="M216.558 59.7395H216.102C215.303 59.7395 215.075 59.7395 214.733 59.5116C214.277 59.2837 213.935 58.8279 213.935 58.1442C213.935 57.5744 214.163 57.0046 214.733 56.7767C215.075 56.5488 215.303 56.5488 216.102 56.5488H216.558V54.3837C216.558 53.3581 216.558 53.0163 216.786 52.5605C217.129 51.9907 217.699 51.5349 218.612 51.5349C219.41 51.5349 220.094 51.8767 220.437 52.5605C220.665 53.0163 220.665 53.3581 220.665 54.3837V56.5488H221.92C222.718 56.5488 222.946 56.5488 223.288 56.7767C223.745 57.0046 224.087 57.4605 224.087 58.1442C224.087 58.714 223.859 59.2837 223.288 59.5116C222.946 59.7395 222.718 59.7395 221.92 59.7395H220.665V67.6023C220.665 68.4 220.893 68.9698 222.034 69.0837C222.604 69.0837 222.946 69.1977 223.288 69.3116C223.745 69.5395 224.087 69.9953 224.087 70.793C224.087 71.4767 223.745 72.0465 223.288 72.2744C222.946 72.5023 222.376 72.5023 221.577 72.5023H221.349C217.927 72.5023 216.558 70.2233 216.558 67.8302V59.7395Z" fill="#606060"/>
<path d="M229.79 65.5512C229.79 67.7163 231.045 69.1977 233.441 69.1977C234.467 69.1977 235.494 68.9698 236.292 68.286C236.977 67.8302 237.319 67.7163 237.775 67.7163C238.574 67.7163 239.372 68.514 239.372 69.4256C239.372 70.2233 238.688 70.907 237.775 71.4767C236.635 72.2744 235.152 72.6163 233.327 72.6163C229.448 72.6163 225.684 70.907 225.684 64.1837C225.684 58.8279 228.536 55.7512 232.87 55.7512C237.319 55.7512 239.829 58.9419 240.057 63.0442C240.057 63.7279 239.943 64.4116 239.486 64.8674C238.916 65.4372 238.346 65.4372 237.661 65.4372H229.79V65.5512ZM235.722 60.993C235.266 59.9674 234.353 59.2837 232.984 59.2837C231.616 59.2837 230.703 59.9674 230.247 60.993C230.019 61.5628 229.904 62.0186 229.904 62.8163H236.178C235.95 62.0186 235.95 61.5628 235.722 60.993Z" fill="#606060"/>
<path d="M251.122 55.8651C252.376 55.8651 253.175 56.093 253.973 56.6628C254.544 57.1186 255 57.6884 255 58.3721C255 58.9419 254.772 59.5116 254.43 59.8535C254.087 60.1953 253.517 60.4233 253.061 60.4233C252.605 60.4233 252.262 60.3093 251.692 59.9674C251.236 59.7395 250.665 59.5116 250.095 59.5116C248.726 59.5116 247.357 60.4233 247.357 62.4744V69.7674C247.357 70.793 247.357 71.1349 247.129 71.5907C246.787 72.1605 246.217 72.6163 245.304 72.6163C244.391 72.6163 243.821 72.2744 243.479 71.5907C243.251 71.1349 243.251 70.793 243.251 69.7674V58.7139C243.251 57.6884 243.251 57.3465 243.593 56.8907C243.935 56.3209 244.62 55.9791 245.304 55.9791C245.874 55.9791 246.331 56.207 246.559 56.4349C246.901 56.7767 247.129 57.1186 247.129 57.6884C248.042 56.7767 249.525 55.8651 251.122 55.8651Z" fill="#606060"/>
<path d="M100.207 66.5767L96.5563 59.3977V69.4256C96.5563 70.4512 96.5563 70.793 96.2141 71.3628C95.8719 71.9326 95.1874 72.3884 94.2749 72.3884C93.3623 72.3884 92.6779 71.9326 92.3357 71.3628C92.1075 70.793 91.9935 70.4512 91.9935 69.4256V52.6744C91.9935 51.7628 92.1075 51.0791 92.6779 50.6232C93.0201 50.2814 93.5905 50.0535 94.1608 50.0535C94.7312 50.0535 95.0734 50.1674 95.4156 50.3953C95.8719 50.6232 96.2141 51.193 96.5563 51.7628L102.146 62.3605L107.735 51.7628C107.963 51.193 108.42 50.7372 108.876 50.3953C109.218 50.1674 109.674 50.0535 110.131 50.0535C110.701 50.0535 111.157 50.2814 111.614 50.6232C112.184 51.193 112.298 51.7628 112.298 52.6744V69.5395C112.298 70.5651 112.298 70.907 111.956 71.4767C111.614 72.0465 110.929 72.5023 110.017 72.5023C109.104 72.5023 108.42 72.0465 108.077 71.4767C107.849 70.907 107.735 70.5651 107.735 69.5395V59.5116L104.427 66.5767C103.857 67.6023 103.4 68.0581 102.374 68.0581C101.347 68.0581 100.777 67.7163 100.207 66.5767Z" fill="#F69220"/>
<path d="M110.245 72.6163C109.332 72.6163 108.534 72.1605 108.191 71.4767C107.849 70.907 107.849 70.5651 107.849 69.5395V60.1953L104.541 66.6907C103.971 67.7163 103.515 68.286 102.26 68.286C101.119 68.286 100.549 67.7163 99.9784 66.6907L96.6704 60.1953V69.5395C96.6704 70.5651 96.6704 70.907 96.3281 71.4767C95.9859 72.1605 95.1874 72.6163 94.2749 72.6163C93.3623 72.6163 92.5638 72.1605 92.2216 71.4767C91.8794 70.907 91.8794 70.4512 91.8794 69.5395V52.6744C91.8794 51.7628 91.9935 51.0791 92.5638 50.3953C93.0201 49.9395 93.4764 49.7116 94.1608 49.7116C94.7312 49.7116 95.1874 49.8256 95.5296 50.0535C96.1 50.3953 96.4422 51.0791 96.6704 51.4209L102.032 61.6767L107.393 51.4209C107.621 51.0791 107.963 50.3953 108.534 50.0535C108.876 49.8256 109.332 49.7116 109.903 49.7116C110.587 49.7116 111.043 49.9395 111.499 50.3953C112.07 50.9651 112.184 51.6488 112.184 52.6744V69.5395C112.184 70.5651 112.184 70.907 111.842 71.4767C111.956 72.1605 111.157 72.6163 110.245 72.6163ZM108.191 58.7139V69.5395C108.191 70.5651 108.191 70.907 108.42 71.3628C108.762 71.9326 109.446 72.2744 110.131 72.2744C110.929 72.2744 111.499 71.9326 111.842 71.3628C112.07 70.907 112.07 70.5651 112.07 69.5395V52.6744C112.07 51.7628 111.956 51.193 111.499 50.7372C111.157 50.3953 110.701 50.1674 110.131 50.1674C109.674 50.1674 109.332 50.2814 108.876 50.5093C108.534 50.7372 108.191 51.193 107.849 51.7628L102.146 62.5884L96.4422 51.7628C96.1 51.193 95.7578 50.7372 95.4156 50.5093C95.0734 50.2814 94.7312 50.1674 94.1608 50.1674C93.5904 50.1674 93.1342 50.3953 92.792 50.7372C92.3357 51.193 92.2216 51.8767 92.2216 52.6744V69.5395C92.2216 70.5651 92.2216 70.907 92.4497 71.3628C92.792 71.9326 93.4764 72.2744 94.1608 72.2744C94.9593 72.2744 95.5296 71.9326 95.8719 71.3628C96.4422 70.907 96.4422 70.5651 96.4422 69.5395V58.7139L100.435 66.4628C101.005 67.6023 101.461 67.9442 102.374 67.9442C103.286 67.9442 103.743 67.6023 104.313 66.4628L108.191 58.7139Z" fill="#F69220"/>
<path d="M122.108 72.5023C120.511 72.5023 119.142 71.9326 118.23 71.0209C116.861 69.6535 116.519 68.1721 116.519 66.3488V58.6C116.519 57.5744 116.519 57.2326 116.747 56.7767C117.089 56.207 117.659 55.8651 118.458 55.8651C119.256 55.8651 119.941 56.207 120.169 56.7767C120.397 57.2326 120.397 57.5744 120.397 58.6V65.7791C120.397 67.9442 121.766 68.7419 123.135 68.7419C124.389 68.7419 125.872 68.0581 125.872 65.7791V58.6C125.872 57.5744 125.872 57.2326 126.101 56.7767C126.443 56.207 127.013 55.8651 127.812 55.8651C128.61 55.8651 129.295 56.207 129.523 56.7767C129.751 57.2326 129.751 57.5744 129.751 58.6V69.5395C129.751 70.5651 129.751 70.907 129.409 71.3628C129.066 71.9326 128.382 72.2744 127.698 72.2744C127.127 72.2744 126.671 72.0465 126.443 71.8186C126.101 71.4767 125.986 71.1349 125.872 70.6791C125.188 71.9326 123.591 72.5023 122.108 72.5023Z" fill="#F69220"/>
<path d="M122.108 72.7302C120.511 72.7302 119.142 72.1605 118.116 71.2488C116.975 70.1093 116.405 68.6279 116.405 66.4628V58.7139C116.405 57.6884 116.405 57.3465 116.633 56.7767C116.975 56.093 117.659 55.7512 118.572 55.7512C119.484 55.7512 120.169 56.093 120.511 56.7767C120.739 57.2326 120.739 57.6884 120.739 58.7139V65.893C120.739 68.4 122.678 68.6279 123.249 68.6279C123.819 68.6279 125.758 68.4 125.758 65.893V58.7139C125.758 57.6884 125.758 57.3465 125.986 56.7767C126.329 56.093 127.013 55.7512 127.926 55.7512C128.838 55.7512 129.523 56.093 129.865 56.7767C130.093 57.2326 130.093 57.6884 130.093 58.7139V69.6535C130.093 70.6791 130.093 71.0209 129.751 71.5907C129.409 72.1605 128.724 72.6163 127.812 72.6163C127.241 72.6163 126.785 72.3884 126.443 72.0465C126.101 71.8186 125.986 71.4767 125.872 71.1349C125.074 72.1605 123.591 72.7302 122.108 72.7302ZM118.686 56.093C117.887 56.093 117.317 56.4349 117.089 57.0046C116.861 57.3465 116.861 57.8023 116.861 58.7139V66.4628C116.861 68.514 117.317 69.8814 118.458 70.907C119.37 71.8186 120.625 72.2744 122.222 72.2744C123.705 72.2744 125.188 71.7046 126.215 70.5651L126.443 70.3372L126.557 70.6791C126.671 71.2488 126.785 71.4767 127.127 71.8186C127.469 72.0465 127.812 72.2744 128.268 72.2744C128.952 72.2744 129.637 71.9326 129.865 71.4767C130.093 71.0209 130.093 70.793 130.093 69.7674V58.8279C130.093 57.8023 130.093 57.4605 129.865 57.1186C129.637 56.5488 128.952 56.207 128.268 56.207C127.583 56.207 126.899 56.5488 126.671 57.1186C126.443 57.4605 126.443 57.9163 126.443 58.8279V66.007C126.443 68.286 124.96 69.0837 123.591 69.0837C122.222 69.0837 120.739 68.286 120.739 66.007V58.8279C120.739 57.8023 120.739 57.4605 120.511 57.1186C119.941 56.4349 119.37 56.093 118.686 56.093Z" fill="#F69220"/>
<path d="M143.895 56.6628C144.808 57.1186 145.835 57.9163 145.835 58.9419C145.835 59.5116 145.607 59.8535 145.264 60.3093C145.036 60.6512 144.466 60.8791 144.01 60.8791C143.553 60.8791 143.211 60.7651 142.641 60.3093C141.956 59.8535 141.5 59.6256 140.702 59.6256C139.789 59.6256 138.99 59.9674 138.42 60.6512C137.85 61.4488 137.508 62.4744 137.508 64.1837C137.508 65.893 137.736 67.0326 138.42 67.8302C138.99 68.5139 139.789 68.8558 140.702 68.8558C141.5 68.8558 141.956 68.6279 142.641 68.1721C143.211 67.7163 143.553 67.6023 144.01 67.6023C144.466 67.6023 144.922 67.8302 145.264 68.1721C145.607 68.514 145.835 68.9698 145.835 69.5395C145.835 70.5651 144.808 71.3628 143.895 71.8186C142.983 72.3884 141.956 72.6163 140.702 72.6163C137.508 72.6163 133.401 70.907 133.401 64.2977C133.401 57.6884 137.393 55.9791 140.702 55.9791C141.956 55.8651 142.869 56.093 143.895 56.6628Z" fill="#F69220"/>
<path d="M140.587 72.7302C139.219 72.7302 137.279 72.3884 135.568 71.0209C133.971 69.5395 133.059 67.2605 133.059 64.2977C133.059 61.2209 133.857 59.0558 135.568 57.5744C137.165 56.093 139.219 55.8651 140.587 55.8651C141.842 55.8651 142.869 56.093 143.895 56.6628C144.808 57.1186 145.949 57.9163 145.949 59.0558C145.949 59.6256 145.721 60.0814 145.378 60.5372C145.036 60.8791 144.466 61.107 144.01 61.107C143.553 61.107 143.097 60.993 142.527 60.5372C141.842 60.0814 141.386 59.8535 140.701 59.8535C139.789 59.8535 139.105 60.1953 138.534 60.8791C137.964 61.6767 137.622 62.7023 137.622 64.2977C137.622 66.007 137.85 67.0326 138.534 67.8302C139.105 68.5139 139.789 68.8558 140.701 68.8558C141.386 68.8558 141.956 68.6279 142.527 68.1721C143.097 67.8302 143.439 67.4884 144.01 67.4884C144.466 67.4884 145.036 67.7163 145.378 68.0581C145.835 68.5139 145.949 68.9698 145.949 69.5395C145.949 70.4512 145.264 71.2488 143.895 72.0465C142.869 72.5023 141.956 72.7302 140.587 72.7302ZM140.701 56.093C138.534 56.093 133.629 56.8907 133.629 64.1837C133.629 71.5907 138.534 72.3884 140.701 72.3884C141.956 72.3884 142.869 72.1605 143.781 71.5907C145.036 70.907 145.607 70.2233 145.607 69.4256C145.607 68.9698 145.378 68.6279 145.036 68.1721C144.808 67.9442 144.352 67.7163 143.895 67.7163C143.439 67.7163 143.097 67.8302 142.641 68.286C141.956 68.8558 141.386 68.9698 140.587 68.9698C139.561 68.9698 138.762 68.6279 138.192 67.8302C137.508 67.0326 137.279 65.893 137.279 64.1837C137.279 62.4744 137.622 61.3349 138.192 60.5372C138.762 59.8535 139.561 59.3977 140.587 59.3977C141.5 59.3977 141.956 59.6256 142.641 60.0814C143.211 60.4233 143.553 60.6512 143.895 60.6512C144.352 60.6512 144.694 60.4233 145.036 60.1953C145.378 59.8535 145.607 59.3977 145.607 58.9419C145.607 57.9163 144.466 57.1186 143.781 56.7767C142.869 56.3209 141.956 56.093 140.701 56.093Z" fill="#F69220"/>
<path d="M161.919 71.4767C161.576 72.0465 161.006 72.3884 160.208 72.3884C159.409 72.3884 158.725 72.0465 158.496 71.4767C158.268 71.0209 158.268 70.6791 158.268 69.6535V62.4744C158.268 60.3093 156.899 59.5116 155.531 59.5116C154.162 59.5116 152.793 60.1953 152.793 62.4744V69.6535C152.793 70.6791 152.793 71.0209 152.565 71.4767C152.223 72.0465 151.652 72.3884 150.854 72.3884C150.055 72.3884 149.371 72.0465 149.143 71.4767C148.915 71.0209 148.915 70.6791 148.915 69.6535V52.7884C148.915 51.7628 148.915 51.4209 149.143 50.9651C149.485 50.3953 150.055 50.0535 150.854 50.0535C151.652 50.0535 152.337 50.3953 152.565 50.9651C152.793 51.4209 152.793 51.7628 152.793 52.7884V57.5744C153.82 56.5488 154.96 55.8651 156.785 55.8651C158.382 55.8651 159.751 56.4349 160.664 57.3465C162.033 58.7139 162.375 60.1953 162.375 62.0186V69.7674C162.261 70.6791 162.147 71.0209 161.919 71.4767Z" fill="#F69220"/>
<path d="M160.208 72.6163C159.295 72.6163 158.611 72.2744 158.268 71.5907C158.04 71.1349 158.04 70.6791 158.04 69.6535V62.4744C158.04 59.9674 156.101 59.7395 155.531 59.7395C154.96 59.7395 153.021 59.9674 153.021 62.4744V69.6535C153.021 70.6791 153.021 71.0209 152.793 71.5907C152.451 72.2744 151.766 72.6163 150.854 72.6163C149.941 72.6163 149.257 72.2744 148.915 71.5907C148.686 71.1349 148.686 70.6791 148.686 69.6535V52.7884C148.686 51.7628 148.686 51.4209 148.915 50.8512C149.257 50.1674 149.941 49.8256 150.854 49.8256C151.766 49.8256 152.451 50.1674 152.793 50.8512C153.021 51.307 153.021 51.7628 153.021 52.7884V57.2326C154.162 56.207 155.302 55.7512 156.785 55.7512C158.382 55.7512 159.751 56.3209 160.778 57.2326C161.919 58.3721 162.489 59.8535 162.489 62.0186V69.7674C162.489 70.793 162.489 71.1349 162.261 71.7046C161.804 72.2744 161.12 72.6163 160.208 72.6163ZM155.531 59.3977C156.899 59.3977 158.382 60.1953 158.382 62.4744V69.6535C158.382 70.6791 158.382 71.0209 158.611 71.3628C158.839 71.9326 159.523 72.2744 160.208 72.2744C160.892 72.2744 161.576 71.9326 161.804 71.3628C162.033 71.0209 162.033 70.5651 162.033 69.6535V61.9046C162.033 59.8535 161.576 58.486 160.436 57.4605C159.523 56.5488 158.268 56.093 156.671 56.093C155.074 56.093 153.934 56.5488 152.793 57.6884L152.451 58.0302V52.7884C152.451 51.7628 152.451 51.4209 152.223 51.0791C151.994 50.5093 151.31 50.1674 150.626 50.1674C149.827 50.1674 149.257 50.5093 149.029 51.0791C148.8 51.4209 148.8 51.8767 148.8 52.7884V69.7674C148.8 70.793 148.8 71.1349 149.029 71.4767C149.257 72.0465 149.941 72.3884 150.626 72.3884C151.31 72.3884 151.994 72.0465 152.223 71.4767C152.451 71.1349 152.451 70.6791 152.451 69.7674V62.5884C152.565 60.1953 154.048 59.3977 155.531 59.3977Z" fill="#F69220"/>
</svg>
