<?xml version="1.0" encoding="UTF-8" standalone="no"?>
<svg width="73px" height="85px" viewBox="0 0 73 85" version="1.1" xmlns="http://www.w3.org/2000/svg" xmlns:xlink="http://www.w3.org/1999/xlink">
    <!-- Generator: Sketch 46.2 (44496) - http://www.bohemiancoding.com/sketch -->
    <title>icn-multibanco</title>
    <desc>Created with Sketch.</desc>
    <defs></defs>
    <g id="Page-1" stroke="none" stroke-width="1" fill="none" fill-rule="evenodd">
        <g id="Payment-Icons" transform="translate(-43.000000, -234.000000)" fill-rule="nonzero">
            <g id="icn-multibanco" transform="translate(43.000000, 234.000000)">
                <g id="g14">
                    <g id="g20" fill="#2A6BAE">
                        <path d="M35.8833333,68.3833333 L65.225,68.3833333 C71.8916667,68.3833333 71.9916667,61.2666667 71.3083333,57.75 C70.9333333,55.3833333 66.9166667,55.4083333 66.475,57.75 L66.475,60.4916667 C66.4750366,61.1016008 66.231043,61.6861966 65.7974126,62.1151307 C65.3637823,62.5440647 64.7765643,62.7816781 64.1666667,62.775 L7.95,62.775 C6.69545017,62.7704296 5.67957035,61.7545498 5.675,60.5 L5.675,57.75 C5.23333333,55.4083333 1.21666667,55.3833333 0.841666667,57.75 C0.158333333,61.2666667 0.225,68.3833333 6.925,68.3833333 L35.8833333,68.3833333 Z M15.1416667,0.183333333 L60.3833333,0.183333333 C63.6606308,0.292128963 66.2378859,3.02186237 66.1583333,6.3 L66.1583333,9.225 C66.1583333,13.3916667 60.5583333,13.3416667 60.5583333,9.225 L60.5583333,7.65833333 C60.5447106,6.64961951 59.7254626,5.83778552 58.7166667,5.83333333 L13.3833333,5.83333333 C12.3616065,5.83333333 11.5333333,6.66160655 11.5333333,7.68333333 L11.5333333,9.25 C11.5333333,13.3583333 6.2,13.3333333 6.2,9.34166667 L6.2,6.3 C6.12044746,3.02186237 8.69770257,0.292128963 11.975,0.183333333 L15.1416667,0.183333333 Z" id="path22"></path>
                    </g>
                    <g id="g24" transform="translate(43.333333, 17.500000)" fill="#424041">
                        <path d="M21.6666667,16.2833333 C24.8385495,17.6971071 26.9049963,20.8195213 26.9666667,24.2916667 C26.9666667,29.2166667 22.6666667,33.25 17.4083333,33.25 L2.69166667,33.25 C1.35563326,33.2828556 0.241436153,32.2355103 0.191666667,30.9 L0.191666667,2.86666667 C0.191666667,1.48595479 1.31095479,0.366666667 2.69166667,0.366666667 L14.9166667,0.366666667 C18.6635988,0.370471941 22.0477393,2.60689862 23.5202264,6.0523734 C24.9927136,9.49784819 24.2701865,13.4893349 21.6833333,16.2 M10.6833333,14 L15.3583333,14 L15.3583333,13.95 C17.5400906,13.6249025 19.1578316,11.7558275 19.1666667,9.55 L19.1666667,9.55 C19.1620807,7.09423493 17.1724317,5.10458594 14.7166667,5.1 L5.26666667,5.1 L5.26666667,28.3333333 L17.2166667,28.3333333 C19.640779,28.1870874 21.5318223,26.1785198 21.5318223,23.75 C21.5318223,21.3214802 19.640779,19.3129126 17.2166667,19.1666667 L10.6833333,19.1666667 C9.25659773,19.1666667 8.1,18.0100689 8.1,16.5833333 C8.1,15.1565977 9.25659773,14 10.6833333,14" id="path26"></path>
                    </g>
                    <g id="g28" transform="translate(10.833333, 75.833333)" fill="#424041">
                        <path d="M6.175,1.15833333 C6.175,0.721107906 6.52944124,0.366666667 6.96666667,0.366666667 C7.40389209,0.366666667 7.75833333,0.721107906 7.75833333,1.15833333 L7.75833333,5.43333333 L7.75833333,5.43333333 C7.75375159,7.38744085 6.17077419,8.97041825 4.21666667,8.975 L4.21666667,8.975 C2.26255915,8.97041825 0.679581748,7.38744085 0.675,5.43333333 L0.675,5.43333333 L0.675,1.15833333 C0.675,0.721107906 1.02944124,0.366666667 1.46666667,0.366666667 C1.90389209,0.366666667 2.25833333,0.721107906 2.25833333,1.15833333 L2.25833333,5.43333333 L2.25833333,5.43333333 C2.26648622,6.49360132 3.10712452,7.35993599 4.16666667,7.4 L4.16666667,7.4 C5.2522766,7.39088633 6.12881004,6.51063876 6.13333333,5.425 L6.13333333,5.425 L6.175,1.15833333 Z" id="path30"></path>
                    </g>
                    <g id="g32" transform="translate(19.166667, 75.833333)" fill="#424041">
                        <path d="M5.30833333,7.4 C5.74555876,7.4 6.1,7.75444124 6.1,8.19166667 C6.1,8.62889209 5.74555876,8.98333333 5.30833333,8.98333333 L3.125,8.98333333 C1.48655524,8.98333333 0.158333333,7.65511142 0.158333333,6.01666667 L0.158333333,6.01666667 L0.158333333,1.16666667 C0.158333333,0.72944124 0.512774573,0.375 0.95,0.375 C1.38722543,0.375 1.74166667,0.72944124 1.74166667,1.16666667 L1.74166667,6.01666667 L1.74166667,6.01666667 C1.74621696,6.78337024 2.36662976,7.40378304 3.13333333,7.40833333 L5.31666667,7.40833333 L5.30833333,7.4 Z" id="path34"></path>
                    </g>
                    <g id="g36" transform="translate(1.666667, 16.666667)" fill="#424041">
                        <path d="M39.5083333,31.2833333 C39.6823699,32.3642223 39.2452293,33.4528535 38.3719945,34.1132098 C37.4987597,34.7735662 36.3322225,34.8976659 35.3396028,34.4358047 C34.3469831,33.9739435 33.6905947,33.0016452 33.6333333,31.9083333 L31.2083333,9.61666667 L22.625,31.4083333 L22.625,31.4083333 L22.625,31.4083333 L22.625,31.4666667 L22.625,31.5083333 L22.625,31.5083333 L22.625,31.55 L22.625,31.55 L22.5,31.6666667 L22.5,31.6666667 L22.5,31.7083333 L22.5,31.7083333 C22.3455309,32.0013641 22.1426778,32.2662 21.9,32.4916667 L21.9,32.4916667 L21.8583333,32.4916667 C21.7021051,32.6288372 21.5316976,32.7489605 21.35,32.85 L21.35,32.85 L21.2916667,32.85 L21.2916667,32.85 L21.2416667,32.85 L21.2416667,32.85 L21.2416667,32.85 L21.2416667,32.85 L21.2416667,32.85 L21.2416667,32.85 L21.2416667,32.85 L21.2416667,32.85 L21.175,32.85 L21.175,32.85 L21.175,32.85 C20.9067537,32.9455987 20.6260474,33.00174 20.3416667,33.0166667 L20.125,33.0166667 C19.7938125,33.0049262 19.4669897,32.9373077 19.1583333,32.8166667 L19.1583333,32.8166667 L19.1583333,32.8166667 L19.1583333,32.8166667 L19.1583333,32.8166667 L19.1583333,32.8166667 L19.1583333,32.8166667 L19.1583333,32.8166667 L19.1583333,32.8166667 L19.1083333,32.8166667 L19.1083333,32.8166667 L19.0583333,32.8166667 L19.0583333,32.8166667 C18.898795,32.7253617 18.7481398,32.619345 18.6083333,32.5 L18.6083333,32.5 L18.5083333,32.4166667 L18.5083333,32.4166667 L18.4333333,32.3416667 L18.3583333,32.2666667 L18.3583333,32.2666667 L18.275,32.1666667 L18.275,32.1666667 C18.1556164,32.0268901 18.0495971,31.8762312 17.9583333,31.7166667 L17.9583333,31.7166667 L17.9583333,31.6666667 L17.9583333,31.6666667 L17.9583333,31.6166667 L17.9583333,31.6166667 L17.9583333,31.6166667 L17.9583333,31.6166667 L17.9583333,31.6166667 L17.9583333,31.6166667 L17.9583333,31.6166667 L17.9583333,31.6166667 L17.9583333,31.6166667 L8.525,9.61666667 L6.1,31.9 C5.85007668,33.4521985 4.42970228,34.537778 2.86633381,34.3714622 C1.30296533,34.2051464 0.142770472,32.8450383 0.225,31.275 L3.075,5 L3.075,5 C3.33211193,2.76501419 5.0710468,0.988350955 7.3,0.683333333 L7.3,0.683333333 L7.45833333,0.683333333 C7.70520534,0.664723581 7.95312799,0.664723581 8.2,0.683333333 L8.2,0.683333333 C8.50012313,0.695360821 8.79855203,0.734407592 9.09166667,0.8 C10.6559745,1.16089194 11.9410037,2.2712569 12.525,3.76666667 L19.8333333,22.3333333 L27.1416667,3.76666667 C27.725663,2.2712569 29.0106921,1.16089194 30.575,0.8 C30.8681146,0.734407592 31.1665435,0.695360821 31.4666667,0.683333333 L31.4666667,0.683333333 C31.7163141,0.664556892 31.9670192,0.664556892 32.2166667,0.683333333 L32.375,0.683333333 L32.375,0.683333333 C34.6313601,0.957251715 36.4058585,2.74208699 36.6666667,5 L36.6666667,5 L39.5083333,31.2833333 Z" id="path38"></path>
                    </g>
                    <g id="g40" transform="translate(0.000000, 75.833333)" fill="#424041">
                        <path d="M11.2,8.1 C11.2604572,8.39311817 11.1504475,8.69527304 10.9156846,8.88090631 C10.6809216,9.06653957 10.3615427,9.1039137 10.0902635,8.97749814 C9.81898422,8.85108257 9.64218494,8.58249045 9.63333333,8.28333333 L8.95833333,2.59166667 L6.54166667,8.19166667 C6.4154398,8.47946638 6.13093072,8.6653536 5.81666667,8.6653536 C5.50240261,8.6653536 5.21789353,8.47946638 5.09166667,8.19166667 L5.09166667,8.19166667 L2.675,2.59166667 L2,8.28333333 C1.99114839,8.58249045 1.81434911,8.85108257 1.54306985,8.97749814 C1.27179059,9.1039137 0.952411686,9.06653957 0.717648777,8.88090631 C0.482885867,8.69527304 0.372876131,8.39311817 0.433333333,8.1 L1.21666667,1.49166667 C1.26707436,1.06838657 1.52700472,0.698847021 1.90833333,0.508333333 L2.05833333,0.441666667 L2.11666667,0.441666667 L2.35,0.391666667 L2.35,0.391666667 C2.75036205,0.340159045 3.15301474,0.468275812 3.45,0.741666667 C3.50826504,0.797814958 3.56126425,0.859182466 3.60833333,0.925 L3.7,1.075 L3.74166667,1.16666667 L5.83333333,5.88333333 L7.88333333,1.14166667 C8.0523016,0.756839425 8.39689103,0.477442595 8.80833333,0.391666667 L9.04166667,0.391666667 L9.28333333,0.391666667 C9.69115684,0.440071145 10.053919,0.67371458 10.2666667,1.025 L10.2666667,1.025 C10.3375069,1.14361049 10.388194,1.27314425 10.4166667,1.40833333 C10.4186685,1.44163661 10.4186685,1.47503005 10.4166667,1.50833333 L10.4166667,1.50833333 L11.2,8.1 Z" id="path42"></path>
                    </g>
                    <g id="g44" transform="translate(22.500000, 75.833333)" fill="#424041">
                        <path d="M5.425,8.19166667 C5.425,8.62889209 5.07055876,8.98333333 4.63333333,8.98333333 C4.19610791,8.98333333 3.84166667,8.62889209 3.84166667,8.19166667 L3.84166667,1.95 L1.59166667,1.95 C1.15444124,1.95 0.8,1.59555876 0.8,1.15833333 C0.8,0.721107906 1.15444124,0.366666667 1.59166667,0.366666667 L7.66666667,0.366666667 C8.10389209,0.366666667 8.45833333,0.721107906 8.45833333,1.15833333 C8.45833333,1.59555876 8.10389209,1.95 7.66666667,1.95 L5.41666667,1.95 L5.425,8.19166667 Z" id="path46"></path>
                    </g>
                    <g id="g48" transform="translate(30.833333, 75.833333)" fill="#424041">
                        <path d="M2.025,8.19166667 C2.025,8.62889209 1.67055876,8.98333333 1.23333333,8.98333333 C0.796107906,8.98333333 0.441666667,8.62889209 0.441666667,8.19166667 L0.441666667,1.15833333 C0.441666667,0.721107906 0.796107906,0.366666667 1.23333333,0.366666667 C1.67055876,0.366666667 2.025,0.721107906 2.025,1.15833333 L2.025,8.19166667 Z" id="path50"></path>
                    </g>
                    <g id="g52" transform="translate(40.833333, 75.833333)" fill="#424041">
                        <path d="M8.225,8.09166667 C8.28450092,8.3835203 8.17515129,8.68407104 7.94201668,8.86945484 C7.70888207,9.05483865 7.39142388,9.09367662 7.12047412,8.96996271 C6.84952436,8.8462488 6.67094521,8.58092339 6.65833333,8.28333333 L6.38333333,6.05 L3.64166667,6.05 C3.20444124,6.05 2.85,5.69555876 2.85,5.25833333 C2.85,4.82110791 3.20444124,4.46666667 3.64166667,4.46666667 L6.14166667,4.46666667 L6.06666667,3.88333333 L6.06666667,3.88333333 C6.06666667,3.88333333 6.06666667,3.88333333 6.06666667,3.825 C6.0455677,3.68967459 6.01493591,3.55600861 5.975,3.425 C5.93394276,3.28193583 5.88098001,3.14256018 5.81666667,3.00833333 C5.53548036,2.37244408 4.91178994,1.95665047 4.21666667,1.94166667 L4.21666667,1.94166667 C4.08180144,1.94208804 3.94748591,1.95887748 3.81666667,1.99166667 C3.69520552,2.02232885 3.5777426,2.06707663 3.46666667,2.125 C2.83044991,2.49175661 2.41816791,3.15078313 2.36666667,3.88333333 L1.875,8.275 C1.8696827,8.57550281 1.69466116,8.84707931 1.42319313,8.97605729 C1.1517251,9.10503528 0.83063333,9.06916864 0.594315362,8.88346988 C0.357997394,8.69777113 0.247213296,8.39426952 0.308333333,8.1 L0.8,3.70833333 C0.910313261,2.44828185 1.64168959,1.32621304 2.75,0.716666667 C2.97233757,0.603270749 3.20730156,0.516557849 3.45,0.458333333 C3.70101912,0.397499252 3.95838121,0.366727697 4.21666667,0.366666667 L4.21666667,0.366666667 C5.5114468,0.374675958 6.68444372,1.13176261 7.225,2.30833333 C7.33290622,2.5224684 7.42212629,2.74551859 7.49166667,2.975 C7.55490774,3.18503509 7.60226351,3.39952884 7.63333333,3.61666667 C7.6348149,3.64164472 7.6348149,3.66668862 7.63333333,3.69166667 L7.63333333,3.69166667 L8.225,8.09166667 Z" id="path54"></path>
                    </g>
                    <g id="g56" transform="translate(49.166667, 75.833333)" fill="#424041">
                        <path d="M2.31666667,8.19166667 C2.31666667,8.62889209 1.96222543,8.98333333 1.525,8.98333333 C1.08777457,8.98333333 0.733333333,8.62889209 0.733333333,8.19166667 L0.733333333,1.66666667 L0.733333333,1.66666667 C0.729503056,1.62230475 0.729503056,1.57769525 0.733333333,1.53333333 C0.742382737,1.44520025 0.76196696,1.35847012 0.791666667,1.275 L0.791666667,1.275 L0.858333333,1.13333333 L0.858333333,1.13333333 C0.992555873,0.890474934 1.21239057,0.706289104 1.475,0.616666667 L1.58333333,0.616666667 L1.66666667,0.616666667 L1.88333333,0.616666667 C2.21021565,0.628425213 2.51521127,0.783972979 2.71666667,1.04166667 L6.88333333,6.4 L6.88333333,1.225 C6.88333333,0.787774573 7.23777457,0.433333333 7.675,0.433333333 C8.11222543,0.433333333 8.46666667,0.787774573 8.46666667,1.225 L8.46666667,7.725 C8.45899561,8.04913195 8.30978086,8.35365186 8.05833333,8.55833333 L7.9,8.66666667 L7.8,8.71666667 L7.8,8.71666667 L7.73333333,8.71666667 L7.73333333,8.71666667 C7.45965604,8.80925124 7.16064359,8.79131049 6.9,8.66666667 L6.8,8.61666667 L6.64166667,8.5 L6.54166667,8.39166667 L6.54166667,8.39166667 L6.54166667,8.39166667 L2.375,3.03333333 L2.31666667,8.19166667 Z" id="path58"></path>
                    </g>
                    <g id="g60" transform="translate(58.333333, 75.833333)" fill="#424041">
                        <path d="M5.48333333,7.4 C5.92055876,7.4 6.275,7.75444124 6.275,8.19166667 C6.275,8.62889209 5.92055876,8.98333333 5.48333333,8.98333333 L3.15833333,8.98333333 C1.43704586,8.98333333 0.0416666667,7.58795414 0.0416666667,5.86666667 L0.0416666667,5.86666667 L0.0416666667,3.49166667 L0.0416666667,3.49166667 C0.0416605254,1.77362832 1.4319678,0.379593685 3.15,0.375 L5.48333333,0.375 C5.92055876,0.375 6.275,0.72944124 6.275,1.16666667 C6.275,1.60389209 5.92055876,1.95833333 5.48333333,1.95833333 L3.15,1.95833333 C2.30045503,1.96288863 1.61288863,2.65045503 1.60833333,3.5 L1.60833333,3.5 L1.60833333,5.83333333 L1.60833333,5.83333333 C1.61288863,6.6828783 2.30045503,7.3704447 3.15,7.375 L5.475,7.375 L5.48333333,7.4 Z" id="path62"></path>
                    </g>
                    <g id="g64" transform="translate(64.166667, 75.833333)" fill="#424041">
                        <path d="M4.225,1.94166667 L4.225,1.94166667 C3.66906062,1.9420923 3.13472582,2.15702027 2.73333333,2.54166667 C2.34920213,2.90314685 2.12944367,3.40588195 2.125,3.93333333 L2.125,3.93333333 L2.125,5.40833333 L2.125,5.40833333 C2.13040817,5.93557841 2.35000859,6.43795198 2.73333333,6.8 C3.1368051,7.18664395 3.67451313,7.40172716 4.23333333,7.4 L4.23333333,7.4 C4.7894402,7.40043959 5.3240858,7.18538661 5.725,6.8 C6.1091312,6.43851982 6.32888966,5.93578471 6.33333333,5.40833333 L6.33333333,5.40833333 L6.33333333,3.93333333 L6.33333333,3.93333333 C6.32888966,3.40588195 6.1091312,2.90314685 5.725,2.54166667 C5.32152824,2.15502272 4.78382021,1.93993951 4.225,1.94166667 L4.225,1.94166667 Z M4.225,0.366666667 L4.225,0.366666667 C5.1899693,0.363225498 6.11878878,0.733558669 6.81666667,1.4 C7.50290677,2.05194565 7.89659506,2.95352189 7.90833333,3.9 L7.90833333,3.9 L7.90833333,5.375 L7.90833333,5.375 C7.89659506,6.32147811 7.50290677,7.22305435 6.81666667,7.875 C6.11878878,8.54144133 5.1899693,8.9117745 4.225,8.90833333 L4.225,8.90833333 C3.2600307,8.9117745 2.33121122,8.54144133 1.63333333,7.875 C0.947093232,7.22305435 0.55340494,6.32147811 0.541666667,5.375 L0.541666667,5.375 L0.541666667,3.9 L0.541666667,3.9 C0.55245599,2.95331784 0.946298548,2.05138831 1.63333333,1.4 C2.32913024,0.735556426 3.25457679,0.365377807 4.21666667,0.366666667 L4.21666667,0.366666667 L4.225,0.366666667 Z" id="path66"></path>
                    </g>
                    <g id="g68" transform="translate(33.333333, 75.833333)" fill="#424041">
                        <path d="M1.76666667,1.95 L1.76666667,7.4 L4.81666667,7.4 C5.08332022,7.4044538 5.34070593,7.30220989 5.53161743,7.11599294 C5.72252892,6.92977599 5.8311481,6.67501512 5.83333333,6.40833333 L5.83333333,6.40833333 C5.83165495,6.16044219 5.7364107,5.92233155 5.56666667,5.74166667 L5.56666667,5.74166667 C5.38118943,5.55554495 5.12942641,5.45064369 4.86666667,5.45 L3.76666667,5.45 C3.32944124,5.45 2.975,5.09555876 2.975,4.65833333 C2.975,4.22110791 3.32944124,3.86666667 3.76666667,3.86666667 L4.16666667,3.86666667 C4.39016944,3.84772358 4.59976069,3.75030793 4.75833333,3.59166667 L4.75833333,3.59166667 C4.93483198,3.41473974 5.03376198,3.17490943 5.03333333,2.925 L5.03333333,2.925 C5.02880747,2.40681811 4.60984855,1.9878592 4.09166667,1.98333333 L1.76666667,1.98333333 L1.76666667,1.95 Z M0.183333333,4.625 L0.183333333,1.19166667 L0.183333333,1.19166667 C0.18464999,1.08276895 0.207299188,0.97518526 0.25,0.875 C0.292137898,0.772012497 0.35447483,0.678507099 0.433333333,0.6 L0.433333333,0.6 C0.574201564,0.467277039 0.756874915,0.387725741 0.95,0.375 L4.04166667,0.375 C5.42237854,0.375 6.54166667,1.49428813 6.54166667,2.875 L6.54166667,2.875 C6.54132224,3.35036373 6.40545637,3.8157766 6.15,4.21666667 C6.31259651,4.31937454 6.46349091,4.43953119 6.6,4.575 L6.65,4.625 C7.09951533,5.10008552 7.35000505,5.72929183 7.35,6.38333333 L7.35,6.38333333 C7.34542603,7.79896526 6.19896526,8.94542603 4.78333333,8.95 L0.975,8.95 C0.54674234,8.92907259 0.204260748,8.58659099 0.183333333,8.15833333 L0.183333333,4.625 Z" id="path70"></path>
                    </g>
                </g>
            </g>
        </g>
    </g>
</svg>