<?xml version="1.0" encoding="UTF-8" standalone="no"?>
<svg width="120px" height="21px" viewBox="0 0 120 21" version="1.1" xmlns="http://www.w3.org/2000/svg" xmlns:xlink="http://www.w3.org/1999/xlink">
    <!-- Generator: Sketch 46.2 (44496) - http://www.bohemiancoding.com/sketch -->
    <title>icn-neteller</title>
    <desc>Created with Sketch.</desc>
    <defs></defs>
    <g id="Page-1" stroke="none" stroke-width="1" fill="none" fill-rule="evenodd">
        <g id="Payment-Icons" transform="translate(-753.000000, -1231.000000)" fill="#8DC640">
            <g id="icn-neteller" transform="translate(753.000000, 1231.000000)">
                <path d="M112.203104,9.14857301 C111.520735,9.6293929 110.530389,9.86709552 109.175292,9.86709552 L108.587191,9.86709552 L107.831443,9.86709552 L108.861959,4.24074478 L109.38418,4.24074478 L109.850162,4.24074478 C110.974946,4.24074478 111.796574,4.42375956 112.362716,4.79520375 C112.805131,5.0865113 113.329495,5.66317028 113.329495,6.7574687 C113.329495,8.07593315 112.719433,8.78525077 112.203104,9.14857301 L112.203104,9.14857301 Z M32.0370642,16.2098029 L21.6370964,16.2098029 L22.3092888,12.5321805 L28.8325008,12.5321805 L29.5737871,8.38998217 L23.1132416,8.38998217 L23.7377646,4.75026225 L34.1195216,4.75026225 L32.0370642,16.2098029 L32.0370642,16.2098029 Z M117.8056,1.59352808 C116.276429,0.533883344 113.962587,1.77635684e-15 110.928884,1.77635684e-15 L102.983623,1.77635684e-15 L100.030262,16.2103444 L89.6222598,16.2103444 L90.2896317,12.532722 L96.5600351,12.532722 L97.3056063,8.40189438 L91.0389521,8.41326512 L91.7100733,4.75134518 L98.1674051,4.75134518 L99.0265259,0.000541463838 L85.9094011,0.000541463838 L83.1060107,15.3786559 L78.2962197,15.3786559 L81.1199634,0.000541463838 L74.2625298,0.000541463838 L71.4591394,15.3786559 L66.7693254,15.3786559 L69.5957471,0.000541463838 L62.7452764,0.000541463838 L59.7844162,16.2108859 L49.3024998,16.2108859 L49.9629088,12.5332635 L56.2616996,12.5332635 L57.0035215,8.42626025 L50.7143717,8.42030415 L51.3822792,4.75134518 L57.9113829,4.75134518 L58.7662188,0.000541463838 L17.9006708,0.000541463838 L15.5745102,12.846771 L10.9403998,1.77635684e-15 L3.82801515,1.77635684e-15 L0,20.9638554 L6.792089,20.9638554 L9.10860859,7.76459144 L13.6061381,20.9638554 L37.9507504,20.9638554 L40.9100038,4.75080372 L44.7192725,4.75080372 L41.7584123,20.9638554 L105.816472,20.9638554 L107.671831,10.7285645 L110.679289,20.9638554 L117.475127,20.9638554 L114.361618,12.6009464 L115.072374,12.4455463 C116.638502,12.10659 117.864517,11.3761552 118.715068,10.2818568 C119.567226,9.17727059 120,7.7591768 120,6.05573157 C120.000535,4.07180806 119.283887,2.61310448 117.8056,1.59352808 L117.8056,1.59352808 Z" id="Shape"></path>
            </g>
        </g>
    </g>
</svg>