<svg width="200" height="60" viewBox="0 0 200 60" xmlns="http://www.w3.org/2000/svg"><title>paybox</title><g fill="none"><path d="M71.19 0h.123a58.928 58.928 0 0 1 5.176 11.46c2.086 6.38 3.043 13.119 2.88 19.825-.087.902-.047 1.813-.148 2.715a58.29 58.29 0 0 1-7.909 25.4h-.138c-3.063-1.001-6.13-1.984-9.195-2.98 4.05-8.036 6.126-17.025 6.2-26.015.059-5.055-.482-10.122-1.67-15.037-1.017-4.293-2.578-8.444-4.522-12.4C65.06 1.997 68.122.988 71.19 0zM44.375 8.574c2.523-.827 5.047-1.65 7.58-2.449 2.174 3.812 3.84 7.918 4.886 12.181 2.567 10.336 1.542 21.538-2.951 31.201-.582 1.29-1.248 2.538-1.939 3.77a757.07 757.07 0 0 1-7.575-2.45c3.97-8.068 5.426-17.275 4.532-26.198-.554-5.562-2.07-11.033-4.533-16.055z" fill="#FF7403"/><path d="M27.916 13.41c1.93-.61 3.849-1.248 5.777-1.861a36.084 36.084 0 0 1 4.288 11.66c1.15 6.417.58 13.15-1.734 19.252a36.204 36.204 0 0 1-2.552 5.39c-1.932-.608-3.852-1.25-5.782-1.86 2.289-4.711 3.57-9.915 3.68-15.153.067-.797.061-1.598-.006-2.393-.118-5.2-1.407-10.357-3.67-15.036zm-25.306.095a5.187 5.187 0 0 1 4.098-.453 5.215 5.215 0 0 1 3.247 7.021c-.604 1.446-1.9 2.585-3.417 2.983-1.557.43-3.31.08-4.57-.935C.86 21.259.155 19.934 0 18.543v-.953c.142-1.68 1.141-3.256 2.61-4.085z" fill="#FFD80D"/><path d="M172.448 18.322c1.51-.081 3.081-.116 4.515.44 1.338.497 2.486 1.526 3.057 2.842.45.98.575 2.073.54 3.142-.004 3.522.002 7.044-.003 10.565-.014 1.63-.665 3.293-1.931 4.352-1.11.956-2.582 1.377-4.023 1.445-1.205.02-2.433.058-3.6-.29-1.669-.449-3.124-1.693-3.727-3.327-.352-.863-.39-1.804-.432-2.723-.004-3.233.002-6.466-.003-9.7.011-1.333.084-2.733.79-3.908.955-1.726 2.887-2.717 4.817-2.838zm-.171 2.924c-1.272.366-2.25 1.614-2.226 2.948.002 3.708-.004 7.416.003 11.124.026 1.542 1.383 2.888 2.913 2.965.693.01 1.402.073 2.084-.099a3.14 3.14 0 0 0 2.132-1.917c.287-.682.192-1.435.207-2.155v-9.809c.02-.774-.28-1.538-.777-2.123a3.203 3.203 0 0 0-2.338-1.073c-.668.004-1.35-.057-1.998.139z" fill="#FF7403"/><path d="M94.668 18.698c.304-.042.61-.092.92-.092 1.925.008 3.849.004 5.773.002.525-.01 1.047.05 1.57.08 1.751.143 3.479 1.052 4.424 2.562.888 1.405 1.142 3.155.907 4.784-.237 1.592-1.158 3.09-2.548 3.928-.951.592-2.064.895-3.178.961-1.481.046-2.967-.028-4.447.034-.25-.003-.288.231-.272.43-.015 3.103.017 6.209-.016 9.314a11.866 11.866 0 0 1-3.133.003c-.037-5.864-.005-11.729-.016-17.593.008-1.47-.019-2.942.016-4.413zm3.243 2.841c-.127.056-.061.256-.094.366-.009 1.89.002 3.78-.006 5.67 0 .197 0 .55.288.513 1.308.028 2.618.004 3.928.011a3.1 3.1 0 0 0 2.705-1.537c.388-.606.45-1.34.415-2.04.027-1.353-.991-2.603-2.283-2.947-.812-.195-1.653-.115-2.48-.128-.58-.014-1.16.032-1.739.007-.247-.003-.504-.02-.734.085zm19.032-2.847a7.858 7.858 0 0 1 2.511.012c2.153 7.08 4.31 14.158 6.47 21.234.067.246.112.498.153.75-.889.178-1.798.077-2.697.105-.245-.017-.631.028-.694-.284-.483-1.595-.89-3.213-1.366-4.812-2.08-.027-4.161-.025-6.241-.001-.392 1.32-.753 2.65-1.118 3.977-.103.344-.167.707-.346 1.021-.286.138-.611.092-.915.1-.79-.023-1.59.06-2.37-.102.036-.614.285-1.182.451-1.767 2.053-6.744 4.12-13.485 6.162-20.233zm1.332 5.63l-.155.002c-.604 2.28-1.199 4.564-1.797 6.847-.131.549-.363 1.09-.309 1.666 1.183.044 2.367.004 3.55.024.29.013.576-.05.857-.117-.074-.437-.192-.863-.3-1.291-.622-2.376-1.195-4.764-1.846-7.13zm8.5-5.618c.822-.159 1.66-.073 2.491-.097.302.011.63-.044.912.098.161.1.243.28.332.44 1.241 2.57 2.468 5.148 3.723 7.712.069.283.479.318.572.03 1.27-2.58 2.5-5.18 3.754-7.768.115-.244.314-.48.604-.496.765-.038 1.533 0 2.3-.017.286.014.642-.017.847.227-.108.542-.464.988-.696 1.48-1.668 3.126-3.333 6.254-5.005 9.379-.201.404-.508.79-.508 1.263-.013 3.25.025 6.501-.02 9.751-1.023.132-2.07.127-3.094.008-.091-1.034-.024-2.075-.043-3.112-.009-2.29.015-4.583-.011-6.873-.25-.76-.742-1.424-1.082-2.15-1.644-3.08-3.286-6.164-4.932-9.244-.11-.193-.12-.417-.144-.63z" fill="#FFD80D"/><path d="M147.434 18.707a6.633 6.633 0 0 1 1.009-.109c.508.022 1.019.017 1.53.008 1.413.013 2.828.003 4.243.004 1.18.035 2.397.082 3.485.591 1.624.673 2.822 2.188 3.197 3.894.217 1.03.34 2.122.083 3.157a5.725 5.725 0 0 1-1.73 2.74c-.192.173-.386.344-.544.547.302.45.774.749 1.083 1.196.667.89 1.223 1.921 1.317 3.048.07 1.462-.112 2.997-.884 4.27-.786 1.341-2.199 2.24-3.709 2.539-.57.15-1.164.109-1.741.193-1.6.012-3.2-.002-4.8.006-.655-.01-1.31.009-1.964-.004-.223-.027-.626-.008-.579-.34-.009-7.246-.017-14.494.004-21.74zm3.236 2.833c-.115.128-.077.316-.09.472.004 1.492.002 2.983.003 4.475.004.53-.04 1.066.067 1.59 1.409.05 2.82.013 4.23.021 1.641.028 3.14-1.487 3.033-3.139.067-.836-.124-1.706-.686-2.349-.592-.733-1.517-1.148-2.453-1.161-1.091-.012-2.182.004-3.273-.007-.28.007-.575-.03-.83.098zm-.075 9.47c-.02 2.285-.023 4.57.001 6.855.944.173 1.909.058 2.862.09.734-.012 1.483.061 2.2-.135 1.062-.306 1.933-1.205 2.194-2.282a5.268 5.268 0 0 0 .023-2.09c-.246-1.234-1.303-2.26-2.545-2.463-.728-.105-1.466-.035-2.199-.053-.844.026-1.699-.072-2.536.078zm34.24-12.298c.905-.164 1.827-.082 2.741-.105.323.011.737-.032.946.275.305.452.488.973.737 1.457.972 1.976 1.918 3.964 2.89 5.941.064.229.326.407.54.229.278-.386.42-.85.633-1.272 1.02-2.184 2.01-4.384 3.049-6.56a11.623 11.623 0 0 1 1.558-.068c.672.009 1.35-.04 2.014.089l.057.183v.124c-1.61 3.23-3.24 6.452-4.864 9.676-.152.347-.422.678-.419 1.068.21.644.59 1.216.869 1.83 1.466 2.945 2.962 5.875 4.414 8.826v.295c-.974.145-1.96.074-2.94.093-.312-.015-.742.012-.865-.35-.89-1.88-1.75-3.776-2.632-5.66-.347-.684-.571-1.441-1.08-2.029-.43.547-.686 1.198-.99 1.816-.96 1.943-1.89 3.903-2.86 5.84-.182.41-.681.385-1.055.385-.915-.024-1.837.056-2.743-.106.08-.632.438-1.17.718-1.728 1.506-2.936 2.992-5.884 4.504-8.818.125-.235.23-.516.072-.763-1.496-2.935-3.002-5.866-4.5-8.8-.297-.607-.707-1.182-.794-1.868z" fill="#FF7403"/><path d="M14.415 26.561h9.998c.145-.006.418.002.362.23.022 2.014.015 4.032.01 6.048-3.455 0-6.913-.003-10.369.002a524.438 524.438 0 0 1 0-6.28zM3.347 36.5a5.198 5.198 0 0 1 4.04.156c1.562.725 2.703 2.276 2.928 3.984a5.208 5.208 0 0 1-1.1 4.004 5.184 5.184 0 0 1-3.19 1.868 5.186 5.186 0 0 1-4.129-1.106C.81 44.526.12 43.193 0 41.804v-.88c.16-1.954 1.507-3.746 3.347-4.425z" fill="#FFD80D"/></g></svg>