<?xml version="1.0" encoding="UTF-8" standalone="no"?>
<svg width="120px" height="34px" viewBox="0 0 120 34" version="1.1" xmlns="http://www.w3.org/2000/svg" xmlns:xlink="http://www.w3.org/1999/xlink">
    <!-- Generator: Sketch 46.2 (44496) - http://www.bohemiancoding.com/sketch -->
    <title>icn-payforit</title>
    <desc>Created with Sketch.</desc>
    <defs></defs>
    <g id="Page-1" stroke="none" stroke-width="1" fill="none" fill-rule="evenodd">
        <g id="Payment-Icons" transform="translate(-949.000000, -522.000000)" fill-rule="nonzero">
            <g id="icn-payforit" transform="translate(949.000000, 522.000000)">
                <g id="Group" opacity="0.75" fill="#000000">
                    <path d="M16.2285714,0.561038961 L4.3012987,0.561038961 L0,26.638961 L3.23116883,26.638961 L4.70649351,17.6623377 L14.2961039,17.6623377 C15.6211967,17.6644511 16.7521817,16.7050941 16.9662338,15.3974026 L18.8987013,3.67792208 C19.0201139,2.89813596 18.7944515,2.10425105 18.2810236,1.5049188 C17.7675956,0.905586557 17.0177529,0.56074954 16.2285714,0.561038961 Z M14.2441558,12.5194805 C14.0999188,13.3948377 13.354393,14.0444479 12.4675325,14.0675325 C9.97402597,14.0675325 5.32987013,14.1298701 5.34025974,14.0675325 L6.78441558,5.19480519 L13.3090909,5.19480519 C13.8364305,5.1996471 14.3366194,5.42939178 14.6838895,5.82627197 C15.0311597,6.22315217 15.1924745,6.7494117 15.1272727,7.27272727 L14.2441558,12.5194805 Z" id="Shape"></path>
                </g>
                <path d="M16.9974026,0.103896104 L5.07012987,0.103896104 L0.768831169,26.1818182 L4,26.1818182 L5.47532468,17.2363636 L15.0649351,17.2363636 C16.3900278,17.238477 17.5210129,16.2791201 17.7350649,14.9714286 L19.6675325,3.25194805 C19.7991112,2.46732377 19.5781207,1.66459527 19.0635039,1.05786812 C18.5488872,0.451140976 17.7929811,0.102119724 16.9974026,0.103896104 L16.9974026,0.103896104 Z M15.0025974,12.0623377 C14.8517144,12.9449506 14.0901921,13.5926822 13.1948052,13.6 C10.7012987,13.6 6.05714286,13.6623377 6.06753247,13.6 L7.53246753,4.6961039 L14.0571429,4.6961039 C14.6012967,4.69749057 15.1172232,4.93845788 15.4675483,5.35484432 C15.8178734,5.77123075 15.9670381,6.32077171 15.8753247,6.85714286 L15.0025974,12.0623377 Z" id="Shape" fill="#233C7C"></path>
                <g id="Group" opacity="0.75" transform="translate(18.701299, 9.350649)" fill="#000000">
                    <path d="M13.0493506,0.862337662 L3.18961039,0.862337662 L2.62857143,3.97922078 L11.6571429,3.97922078 C11.9598501,3.97623734 12.2488043,4.10542715 12.4484306,4.33300116 C12.648057,4.56057517 12.7384997,4.86389781 12.6961039,5.16363636 L12.3844156,7.04415584 L3.68831169,7.04415584 C2.81817183,7.04258894 2.07494539,7.67147285 1.93246753,8.52987013 L0.820779221,15.2623377 C0.731785205,15.7794819 0.875958713,16.3095149 1.21464458,16.7103266 C1.55333045,17.1111383 2.05187965,17.3417239 2.57662338,17.3402597 L13.5064935,17.3402597 L15.6987013,4.04155844 C15.8438209,3.2551371 15.631638,2.44491259 15.1196833,1.83056692 C14.6077286,1.21622126 13.849049,0.861410726 13.0493506,0.862337662 L13.0493506,0.862337662 Z M10.5662338,13.7454545 L5.26753247,13.7454545 C4.8347184,13.7450737 4.423903,13.554657 4.14388195,13.2246322 C3.8638609,12.8946074 3.74288313,12.4582679 3.81298701,12.0311688 L4.04155844,10.6493506 C4.15851452,9.93680701 4.77402582,9.41362241 5.4961039,9.41298701 L11.012987,9.41298701 C11.2468301,9.41316675 11.4688877,9.51565173 11.6207414,9.69348044 C11.7725951,9.87130914 11.8390406,10.1066764 11.8025974,10.3376623 L11.3558442,13.0701299 C11.2899791,13.4546555 10.9563593,13.7355986 10.5662338,13.7350649 L10.5662338,13.7454545 Z" id="Shape"></path>
                </g>
                <path d="M32.5194805,9.74545455 L22.6597403,9.74545455 L22.0987013,12.8623377 L31.1688312,12.8623377 C31.4715385,12.8593542 31.7604926,12.988544 31.9601189,13.216118 C32.1597453,13.4436921 32.250188,13.7470147 32.2077922,14.0467532 L31.8961039,15.9272727 L23.1584416,15.9272727 C22.2883017,15.9257058 21.5450753,16.5545897 21.4025974,17.412987 L20.2909091,24.1454545 C20.2019151,24.6625988 20.3460886,25.1926318 20.6847745,25.5934435 C21.0234603,25.9942552 21.5220095,26.2248408 22.0467532,26.2233766 L32.9766234,26.2233766 L35.1688312,12.9246753 C35.3139508,12.138254 35.1017679,11.3280295 34.5898132,10.7136838 C34.0778585,10.0993381 33.3191788,9.74452761 32.5194805,9.74545455 L32.5194805,9.74545455 Z M30.025974,22.6285714 L24.7272727,22.6285714 C24.2944587,22.6281906 23.8836433,22.4377739 23.6036222,22.1077491 C23.3236012,21.7777243 23.2026234,21.3413848 23.2727273,20.9142857 L23.5012987,19.5324675 C23.6213929,18.8317261 24.2241747,18.316304 24.9350649,18.3064935 L30.4519481,18.3064935 C30.6857911,18.3066732 30.9078487,18.4091582 31.0597024,18.5869869 C31.2115561,18.7648156 31.2780016,19.0001829 31.2415584,19.2311688 L30.7948052,21.9636364 C30.7303659,22.340535 30.4082254,22.619143 30.025974,22.6285714 Z" id="Shape" fill="#233C7C"></path>
                <g id="Group" opacity="0.75" transform="translate(34.285714, 9.350649)" fill="#000000">
                    <path d="M4.22857143,0.862337662 L1.7974026,15.5844156 C1.73053187,16.0015872 1.84969803,16.4271201 2.12350167,16.7488893 C2.39730531,17.0706586 2.7982827,17.2563893 3.22077922,17.2571429 L11.6467532,17.2571429 L11.3558442,19.0337662 C11.2004791,20.0582609 10.3140642,20.8117136 9.27792208,20.8 L0.966233766,20.8 L0.477922078,23.761039 L11.0649351,23.761039 C12.4726619,23.7594109 13.6726074,22.7396769 13.9012987,21.3506494 L17.2883117,0.820779221 L14.3480519,0.820779221 L12.2701299,13.2883117 C12.1997102,13.7050444 11.840802,14.0114294 11.4181818,14.0155844 L5.81818182,14.0155844 C5.55843823,14.0141562 5.31282913,13.8971033 5.14812854,13.6962489 C4.98342794,13.4953945 4.91675412,13.2316146 4.96623377,12.9766234 L6.99220779,0.758441558 L4.22857143,0.862337662 Z" id="Shape"></path>
                </g>
                <path d="M39.2831169,9.74545455 L36.8519481,24.4987013 C36.7850773,24.9158729 36.9042435,25.3414058 37.1780471,25.663175 C37.4518508,25.9849443 37.8528282,26.170675 38.2753247,26.1714286 L46.7012987,26.1714286 L46.4103896,27.9480519 C46.2550246,28.9725466 45.3686096,29.7259993 44.3324675,29.7142857 L36.0207792,29.7142857 L35.5324675,32.6753247 L46.1194805,32.6753247 C47.5272073,32.6736966 48.7271529,31.6539627 48.9558442,30.2649351 L52.3428571,9.73506494 L49.4025974,9.73506494 L47.3246753,22.2025974 C47.2542556,22.6193301 46.8953475,22.9257152 46.4727273,22.9298701 L40.8623377,22.9298701 C40.6025941,22.9284419 40.356985,22.811389 40.1922844,22.6105346 C40.0275838,22.4096802 39.96091,22.1459003 40.0103896,21.8909091 L42.0363636,9.67272727 L39.2831169,9.74545455 Z" id="Shape" fill="#233C7C"></path>
                <g id="Group" opacity="0.75" transform="translate(52.987013, 0.000000)" fill="#000000">
                    <path d="M4.6025974,0.561038961 L0.301298701,26.638961 L3.53246753,26.638961 L5.32987013,15.7506494 L13.4441558,15.7506494 L14.0155844,12.2597403 L5.91168831,12.2597403 L6.84675325,6.72207792 C7.02928047,5.6422323 7.96457692,4.85184093 9.05974026,4.85194805 L18.4103896,4.85194805 L19.1064935,0.550649351 L4.6025974,0.561038961 Z" id="Shape"></path>
                </g>
                <path d="M58.3584416,0.103896104 L54.025974,26.1818182 L57.2571429,26.1818182 L59.0545455,15.2935065 L67.1688312,15.2935065 L67.7402597,11.8025974 L59.6675325,11.8025974 L60.6025974,6.26493506 C60.7851246,5.18508944 61.7204211,4.39469807 62.8155844,4.39480519 L72.1662338,4.39480519 L72.8623377,0.0935064935 L58.3584416,0.103896104 Z" id="Shape" fill="#233C7C"></path>
                <g id="Group" opacity="0.75" transform="translate(69.610390, 9.350649)" fill="#000000">
                    <path d="M2.07792208,2.72207792 L0.103896104,14.7012987 C-0.00290601117,15.3455237 0.178902709,16.0041281 0.601073298,16.5023294 C1.02324389,17.0005307 1.64308596,17.2879503 2.2961039,17.2883117 L11.3350649,17.2883117 C12.417658,17.2767578 13.3345446,16.4870947 13.5064935,15.4181818 L15.4805195,3.43896104 C15.5873216,2.79473603 15.4055129,2.13613162 14.9833423,1.63793031 C14.5611717,1.139729 13.9413296,0.852309484 13.2883117,0.851948052 L4.25974026,0.851948052 C3.17320605,0.858459355 2.2505326,1.64932231 2.07792208,2.72207792 L2.07792208,2.72207792 Z M12.4675325,6.52467532 L11.6987013,11.1792208 C11.4547353,12.6534628 10.1800064,13.7347845 8.68571429,13.7350649 L4.68571429,13.7350649 C4.22259481,13.7409585 3.78053795,13.5419128 3.47796588,13.1912498 C3.17539382,12.8405868 3.04323126,12.3741465 3.11688312,11.9168831 L3.95844156,6.81558442 C4.2024076,5.34134235 5.47713642,4.26002066 6.97142857,4.25974026 L10.4623377,4.25974026 C11.0391908,4.25234012 11.5898093,4.50032379 11.9665699,4.93720569 C12.3433304,5.37408759 12.5076905,5.95517487 12.4155844,6.52467532 L12.4675325,6.52467532 Z" id="Shape"></path>
                </g>
                <path d="M72.4467532,11.6155844 L70.4727273,23.5948052 C70.3659252,24.2390302 70.5477339,24.8976346 70.9699045,25.3958359 C71.3920751,25.8940372 72.0119171,26.1814567 72.6649351,26.1818182 L81.7038961,26.1818182 C82.7910266,26.1812164 83.7183023,25.3945702 83.8961039,24.3220779 L85.8701299,12.3428571 C85.976932,11.6986321 85.7951233,11.0400277 85.3729527,10.5418264 C84.9507821,10.0436251 84.33094,9.75620559 83.6779221,9.75584416 L74.638961,9.75584416 C73.5518305,9.75644592 72.6245548,10.5430921 72.4467532,11.6155844 L72.4467532,11.6155844 Z M82.8363636,15.4181818 L82.0675325,20.0727273 C81.818406,21.5825282 80.4905507,22.6750112 78.961039,22.6285714 L75.0545455,22.6285714 C74.5885847,22.6299095 74.1461406,22.424048 73.8470495,22.0667446 C73.5479584,21.7094411 73.4231737,21.2376737 73.5064935,20.7792208 L74.3480519,15.6779221 C74.592018,14.20368 75.8667468,13.1223583 77.361039,13.1220779 L80.8519481,13.1220779 C81.4294721,13.1197934 81.9784002,13.3732034 82.3512706,13.8142328 C82.7241409,14.2552622 82.8827228,14.8386921 82.7844156,15.4077922 L82.8363636,15.4181818 Z" id="Shape" fill="#233C7C"></path>
                <g id="Group" opacity="0.75" transform="translate(85.194805, 9.350649)" fill="#000000">
                    <path d="M0.924675325,17.2883117 L3.65714286,17.2883117 L5.50649351,6.04675325 C5.67630668,5.02561953 6.54947097,4.27033241 7.58441558,4.24935065 L11.9896104,4.24935065 L12.5506494,0.862337662 L9.43376623,0.862337662 C8.54166375,0.862027328 7.67769252,1.17452756 6.99220779,1.74545455 L6.04675325,2.78441558 L6.35844156,0.914285714 L3.63636364,0.914285714 L0.924675325,17.2883117 Z" id="Shape"></path>
                </g>
                <path d="M86.8883117,26.1818182 L89.6207792,26.1818182 L91.4285714,14.9402597 C91.5983846,13.919126 92.4715489,13.1638389 93.5064935,13.1428571 L97.9116883,13.1428571 L98.4727273,9.75584416 L95.3558442,9.75584416 C94.4637417,9.75553382 93.5997704,10.0680341 92.9142857,10.638961 L91.9688312,11.6779221 L92.2805195,9.80779221 L89.6,9.80779221 L86.8883117,26.1818182 Z" id="Shape" fill="#233C7C"></path>
                <g id="Group" opacity="0.75" transform="translate(99.740260, 0.000000)" fill="#000000">
                    <polygon id="Shape" points="4.31168831 0.561038961 0.0207792208 26.638961 3.25194805 26.638961 7.55324675 0.561038961"></polygon>
                </g>
                <polygon id="Shape" fill="#233C7C" points="104.820779 0.103896104 100.519481 26.1818182 103.761039 26.1818182 108.051948 0.103896104"></polygon>
                <g id="Group" opacity="0.75" transform="translate(110.129870, 5.194805)" fill="#000000">
                    <path d="M0.0623376623,7.93766234 L0.0623376623,5.01818182 L3.36623377,5.01818182 L4.17662338,0.187012987 L6.74285714,0.187012987 L5.94285714,5.01818182 L8.89350649,5.01818182 L8.89350649,7.94805195 L5.71428571,7.94805195 L4.17662338,17.2987013 C4.14321238,17.5086728 4.2033563,17.72275 4.34122874,17.8846002 C4.47910118,18.0464505 4.6808938,18.139864 4.89350649,18.1402597 L7.14805195,18.1402597 L7.14805195,21.4545455 L2.85714286,21.4545455 C2.30761621,21.4350646 1.79308824,21.1798998 1.44499693,20.7542339 C1.09690563,20.328568 0.948962829,19.7736256 1.03896104,19.2311688 L2.83636364,7.93766234 L0.0623376623,7.93766234 Z" id="Shape"></path>
                </g>
                <path d="M110.950649,12.6753247 L110.950649,9.74545455 L114.285714,9.74545455 L115.096104,4.91428571 L117.662338,4.91428571 L116.862338,9.74545455 L119.812987,9.74545455 L119.812987,12.6753247 L116.633766,12.6753247 L115.096104,22.025974 C115.062693,22.2359455 115.122837,22.4500227 115.260709,22.611873 C115.398582,22.7737232 115.600374,22.8671367 115.812987,22.8675325 L118.067532,22.8675325 L118.067532,26.1818182 L113.776623,26.1818182 C113.218248,26.1796936 112.688713,25.9335473 112.327138,25.5080471 C111.965563,25.0825469 111.808094,24.5202307 111.896104,23.9688312 L113.693506,12.6753247 L110.950649,12.6753247 Z" id="Shape" fill="#233C7C"></path>
            </g>
        </g>
    </g>
</svg>