<?xml version="1.0" encoding="UTF-8" standalone="no"?>
<svg width="120px" height="64px" viewBox="0 0 120 64" version="1.1" xmlns="http://www.w3.org/2000/svg" xmlns:xlink="http://www.w3.org/1999/xlink">
    <!-- Generator: Sketch 46.2 (44496) - http://www.bohemiancoding.com/sketch -->
    <title>icn-paynearme</title>
    <desc>Created with Sketch.</desc>
    <defs>
        <linearGradient x1="49.9612102%" y1="3.36391437%" x2="49.9612102%" y2="95.412844%" id="linearGradient-1">
            <stop stop-color="#395729" offset="0%"></stop>
            <stop stop-color="#6B963F" offset="100%"></stop>
        </linearGradient>
    </defs>
    <g id="Page-1" stroke="none" stroke-width="1" fill="none" fill-rule="evenodd">
        <g id="Payment-Icons" transform="translate(-712.000000, -129.000000)" fill-rule="nonzero">
            <g id="icn-paynearme" transform="translate(712.000000, 129.000000)">
                <g id="yI7Dpw.tif" transform="translate(0.000000, 40.816327)" fill="#343433">
                    <path d="M0.571428571,0.612244898 C2.92244898,0.612244898 5.27346939,0.612244898 7.6244898,0.612244898 C10.1943326,0.655562995 12.4190376,2.40927193 13.0612245,4.89795918 C13.5580734,6.55520777 13.2586198,8.34915988 12.2504375,9.75518271 C11.2422553,11.1612055 9.63924669,12.0204495 7.91020408,12.0816327 C6.53877551,12.1632653 5.16734694,12.0816327 3.82857143,12.122449 L2.89795918,12.122449 L2.89795918,18.244898 L0.571428571,18.244898 L0.571428571,0.612244898 Z M2.90612245,9.59183673 C4.62857143,9.59183673 6.31020408,9.68979592 7.96734694,9.59183673 C9.6093427,9.48681079 10.8690175,8.09320503 10.8081633,6.44897959 C10.8403472,4.80184209 9.59202981,3.41085986 7.95102041,3.26530612 C7.0122449,3.15918367 6.04897959,3.19183673 5.09387755,3.1755102 C4.35918367,3.1755102 3.6244898,3.1755102 2.89795918,3.1755102 L2.90612245,9.59183673 Z" id="Shape"></path>
                    <path d="M104.171429,6.08163265 C103.583673,7.3877551 102.979592,8.68571429 102.4,9.99183673 C101.583673,11.7795918 100.808163,13.5673469 100.057143,15.3714286 C99.844898,15.8857143 99.5591837,16.0571429 99.044898,15.9183673 C99.0234048,15.9134686 99.0010849,15.9134686 98.9795918,15.9183673 C97.755102,16.2367347 97.3469388,15.3632653 97.0040816,14.5061224 C95.877551,11.9020408 94.7673469,9.28979592 93.6408163,6.67755102 C93.556919,6.45037744 93.4095913,6.2520517 93.2163265,6.10612245 L93.2163265,18.1877551 L90.6122449,18.1877551 L90.6122449,0.628571429 C91.5673469,0.628571429 92.4979592,0.628571429 93.4204082,0.628571429 C93.6,0.628571429 93.8204082,0.955102041 93.9102041,1.1755102 C95.3959184,4.61496599 96.8707483,8.05714286 98.3346939,11.5020408 C98.4244898,11.7142857 98.5306122,11.9102041 98.6938776,12.244898 C99.322449,10.8408163 99.9102041,9.56734694 100.481633,8.27755102 C101.542857,5.89387755 102.612245,3.51836735 103.64898,1.12653061 C103.744636,0.765586956 104.09582,0.533805514 104.465306,0.587755102 C105.281633,0.587755102 106.097959,0.587755102 106.914286,0.587755102 C106.914286,0.881632653 106.914286,1.11020408 106.914286,1.33061224 C106.914286,6.66938776 106.914286,12.0081633 106.914286,17.3469388 C106.914286,17.9836735 106.75102,18.1632653 106.097959,18.1632653 C104.253061,18.1632653 104.253061,18.1632653 104.253061,16.2938776 L104.253061,6.13877551 L104.171429,6.08163265 Z" id="Shape"></path>
                    <path d="M40.4489796,0.628571429 C41.1836735,0.628571429 41.877551,0.628571429 42.5632653,0.628571429 C42.7755102,0.628571429 43.0040816,0.92244898 43.1428571,1.13469388 C45.7387755,5.19455782 48.3265306,9.26258503 50.9061224,13.3387755 L51.4693878,14.2040816 L51.4693878,0.653061224 L53.8040816,0.653061224 L53.8040816,18.2204082 C52.9387755,18.2204082 52.0653061,18.2204082 51.1918367,18.2204082 C51.0122449,18.2204082 50.8163265,17.9183673 50.6938776,17.722449 C48.1741497,13.7768707 45.662585,9.82585034 43.1591837,5.86938776 C43.0721895,5.72004434 42.9368414,5.60485455 42.7755102,5.54285714 L42.7755102,18.1795918 L40.4489796,18.1795918 L40.4489796,0.628571429 Z" id="Shape"></path>
                    <path d="M34.2857143,5.33877551 L36.6530612,5.33877551 L36.6530612,6.15510204 C36.6530612,9.8829932 36.6530612,13.6108844 36.6530612,17.3387755 C36.6530612,21.4612245 33.8122449,23.6244898 29.7959184,22.5387755 C28.5578781,22.2273873 27.4408665,21.5537696 26.5877551,20.6040816 L28.2204082,19.1102041 C29.2037231,20.1256624 30.6203995,20.5978879 32.0163265,20.3755102 C33.3877551,20.1959184 34.4653061,19.2326531 34.1877551,18.2530612 C33.1428571,18.3510204 32.1142857,18.5142857 31.0857143,18.522449 C29.8618813,18.5258234 28.6784127,18.0849234 27.755102,17.2816327 C26.9507944,16.7093591 26.4352987,15.815436 26.3428571,14.8326531 C26.2857143,11.6979592 26.3428571,8.55510204 26.3428571,5.40408163 L28.7102041,5.40408163 L28.7102041,7.03673469 C28.7102041,9.27346939 28.7102041,11.5102041 28.7102041,13.7469388 C28.6412696,14.2880206 28.7926936,14.8341043 29.1304329,15.2624192 C29.4681723,15.6907341 29.9638841,15.9653364 30.5061224,16.0244898 C31.6558799,16.2490093 32.8459344,16.1385042 33.9346939,15.7061224 C34.130645,15.579578 34.2548613,15.3675014 34.2693878,15.1346939 C34.2693878,11.9428571 34.2693878,8.75102041 34.2693878,5.55918367 C34.2638092,5.4853112 34.2693122,5.41101979 34.2857143,5.33877551 L34.2857143,5.33877551 Z" id="Shape"></path>
                    <path d="M119.412245,13.0612245 L111.836735,13.0612245 C111.526531,14.6285714 111.836735,15.5102041 112.995918,15.9755102 C114.362358,16.5854388 115.968013,16.2040957 116.914286,15.044898 C117.036735,14.8816327 117.142857,14.7020408 117.281633,14.4897959 L119.387755,15.5102041 C118.644853,17.1526235 117.096262,18.286192 115.306122,18.4979592 C113.909885,18.7299914 112.477106,18.4393669 111.281633,17.6816327 C110.191416,17.0907822 109.482028,15.9804356 109.404082,14.7428571 C109.330612,12.8408163 109.289796,10.922449 109.404082,9.02857143 C109.451827,7.33010629 110.61102,5.86533764 112.253061,5.42857143 C114.038887,4.70933515 116.062641,4.90105924 117.681633,5.94285714 C118.681202,6.50056351 119.336529,7.52030265 119.428571,8.66122449 C119.461224,10.0897959 119.412245,11.5102041 119.412245,13.0612245 Z M117.2,10.9959184 C117.2,9.79591837 117.477551,8.63673469 116.293878,7.88571429 C115.120588,7.20812522 113.668459,7.23641346 112.522449,7.95918367 C111.477551,8.7755102 111.706122,9.86938776 111.804082,10.9959184 L117.2,10.9959184 L117.2,10.9959184 Z" id="Shape"></path>
                    <path d="M21.9265306,10.1306122 C22.155102,8.35918367 20.7346939,7.15918367 18.7102041,7.50204082 C17.8040816,7.65714286 17.5591837,7.7877551 16.1142857,8.91428571 L14.6938776,7.26530612 C16.6625912,5.08088717 19.8791982,4.54591464 22.4489796,5.9755102 C23.6262703,6.64155469 24.3555482,7.88818351 24.3591837,9.24081633 C24.4081633,11.8938776 24.3591837,14.555102 24.3591837,17.2081633 C24.3372075,17.4578138 24.2017748,17.6835348 23.9918367,17.8204082 C22.0559638,18.5150005 19.9844311,18.7470345 17.9428571,18.4979592 C16.4990035,18.2748982 15.257788,17.354698 14.624727,16.0379964 C13.991666,14.7212947 14.0480696,13.1772083 14.7755102,11.9102041 C15.5918367,10.4081633 17.0938776,9.93469388 18.677551,9.85306122 C19.7653849,9.87563508 20.8506304,9.9683445 21.9265306,10.1306122 Z M21.9265306,16.3102041 C21.9265306,15.077551 21.9265306,13.9918367 21.9265306,12.8979592 C21.9265306,12.7265306 21.7061224,12.4408163 21.5591837,12.4244898 C20.4793662,12.2543679 19.3868654,12.1778928 18.2938776,12.1959184 C17.8182474,12.1860227 17.3600858,12.3751633 17.0299486,12.7177 C16.6998114,13.0602368 16.5276843,13.5250576 16.555102,14 C16.461192,15.0566806 17.1560353,16.0225128 18.1877551,16.2693878 C19.4347451,16.3570551 20.6856105,16.3761315 21.9346939,16.3265306 L21.9265306,16.3102041 Z" id="Shape"></path>
                    <path d="M76.3265306,10.2204082 C76.5632653,8.5877551 75.8285714,7.67346939 74.2122449,7.45306122 C72.8489796,7.26530612 71.8693878,7.64081633 70.6285714,8.8244898 L69.1510204,7.14285714 C70.7836735,4.75102041 75.5428571,4.35918367 77.6734694,6.5877551 C78.3905638,7.34132474 78.7808078,8.34774358 78.7591837,9.3877551 C78.7591837,11.9727891 78.7591837,14.5578231 78.7591837,17.1428571 C78.7591837,17.3469388 78.6040816,17.6816327 78.4571429,17.7306122 C76.4220635,18.499286 74.2211683,18.721627 72.0734694,18.3755102 C70.7964628,18.112944 69.7025854,17.2956017 69.0888242,16.1453913 C68.4750631,14.9951808 68.4051107,13.6314642 68.8979592,12.4244898 C69.2440327,11.4413771 70.0009569,10.6576328 70.9714286,10.277551 C72.5758569,9.59890248 74.377016,9.54935604 76.0163265,10.1387755 C76.1183281,10.1710518 76.2218544,10.1982956 76.3265306,10.2204082 Z M76.3265306,14.3510204 L76.3265306,14.3510204 C76.3265306,13.8612245 76.3265306,13.3714286 76.3265306,12.8816327 C76.3265306,12.7020408 76.122449,12.4081633 75.9836735,12.3918367 C74.9052175,12.2082065 73.8122385,12.1235007 72.7183673,12.1387755 C72.2299217,12.1318326 71.7599088,12.3250648 71.4175885,12.6735531 C71.0752681,13.0220414 70.8904591,13.4954297 70.9061224,13.9836735 C70.8197457,15.1279362 71.6257911,16.1470332 72.7591837,16.3265306 C73.4230637,16.4561496 74.1021918,16.4891436 74.7755102,16.4244898 C76.7183673,16.1795918 76.3183673,16.5795918 76.4081633,14.7265306 C76.3673469,14.5877551 76.3673469,14.4653061 76.3673469,14.3510204 L76.3265306,14.3510204 Z" id="Shape"></path>
                    <path d="M66.4653061,13.0040816 L58.8734694,13.0040816 C58.5469388,14.3510204 58.8163265,15.2326531 59.6897959,15.7632653 C60.8802166,16.47094 62.3839339,16.3702592 63.4693878,15.5102041 C63.7835376,15.1996233 64.0779881,14.8697297 64.3510204,14.522449 L66.4,15.5102041 C65.6687386,17.1087642 64.1793395,18.2296521 62.4408163,18.4897959 C61.0764843,18.7446464 59.6659806,18.5105259 58.4571429,17.8285714 C57.2332837,17.2234397 56.4424165,15.993202 56.4,14.6285714 C56.3428571,12.7428571 56.3428571,10.8571429 56.4,8.97142857 C56.4477833,7.80601827 57.0559804,6.73559144 58.0326531,6.09795918 C60.10497,4.72072374 62.8011524,4.72072374 64.8734694,6.09795918 C65.9020863,6.79398023 66.5147581,7.95805655 66.5061224,9.2 C66.4734694,10.4244898 66.4653061,11.6571429 66.4653061,13.0040816 Z M64.1959184,10.9387755 C64.1959184,9.70612245 64.4734694,8.48979592 63.1836735,7.77959184 C61.9997015,7.17563546 60.5832524,7.25034926 59.4693878,7.9755102 C58.6969716,8.75636256 58.4685041,9.92444308 58.8897959,10.9387755 L64.1959184,10.9387755 Z" id="Shape"></path>
                    <path d="M87.4530612,5.24081633 L87.4530612,7.58367347 C86.8523335,7.54465865 86.2497073,7.54465865 85.6489796,7.58367347 C85.0695132,7.60547614 84.5249139,7.86614558 84.1444879,8.30379011 C83.7640619,8.74143465 83.5817418,9.31701806 83.6408163,9.89387755 C83.6408163,12.3836735 83.6408163,14.8734694 83.6408163,17.3632653 C83.6408163,17.6163265 83.6408163,17.8693878 83.6408163,18.1795918 L81.1918367,18.1795918 C81.1918367,17.9265306 81.1918367,17.6734694 81.1918367,17.4285714 C81.1918367,14.8734694 81.2326531,12.3102041 81.2489796,9.75510204 C81.1318706,7.42464182 82.8972949,5.42721107 85.2244898,5.25714286 C85.9663473,5.20701407 86.7105489,5.20156204 87.4530612,5.24081633 L87.4530612,5.24081633 Z" id="Shape"></path>
                </g>
                <polygon id="Shape" fill="#6B963F" points="58.9795918 36.7346939 48.4571429 25.6326531 58.9795918 25.4122449"></polygon>
                <polygon id="Shape" fill="url(#linearGradient-1)" points="58.9795918 28.3020408 58.9795918 25.6326531 48.4571429 25.6326531 50.9795918 28.3020408"></polygon>
                <polygon id="Shape" fill="#395728" points="48.6857143 0.302040816 48.4571429 25.6326531 48.6857143 25.8612245 67.2081633 25.8612245 76.7346939 13.0857143 67.1428571 0.302040816"></polygon>
                <polygon id="Shape" fill="#8CC449" points="48.4571429 0.0734693878 48.4571429 25.6326531 66.9877551 25.6326531 76.5061224 12.8571429 66.9142857 0.0734693878"></polygon>
                <polygon id="Shape" fill="#77A942" points="73.2081633 17.2897959 69.7795918 12.8571429 53.7142857 20.0653061 58.0163265 25.6326531 66.9877551 25.6326531"></polygon>
                <polygon id="Shape" fill="#466B33" points="54.0571429 6.09795918 53.7142857 20.0653061 54.0571429 20.522449 64.5795918 20.522449 70.122449 13.3061224 64.6367347 6.09795918"></polygon>
                <polygon id="Shape" fill="#FFFFFF" points="53.7142857 5.64081633 53.7142857 20.0653061 64.2367347 20.0653061 69.7795918 12.8571429 64.2938776 5.64081633"></polygon>
            </g>
        </g>
    </g>
</svg>