<?xml version="1.0" encoding="UTF-8" standalone="no"?>
<svg width="120px" height="32px" viewBox="0 0 120 32" version="1.1" xmlns="http://www.w3.org/2000/svg" xmlns:xlink="http://www.w3.org/1999/xlink">
    <!-- Generator: Sketch 46.2 (44496) - http://www.bohemiancoding.com/sketch -->
    <title>icn-paypal</title>
    <desc>Created with Sketch.</desc>
    <defs></defs>
    <g id="Page-1" stroke="none" stroke-width="1" fill="none" fill-rule="evenodd">
        <g id="Payment-Icons" transform="translate(-41.000000, -1225.000000)">
            <g id="icn-paypal" transform="translate(101.000000, 1241.096386) scale(1, -1) translate(-101.000000, -1241.096386) translate(41.000000, 1225.192771)">
                <path d="M80.9716551,22.9599622 C80.4648468,19.5691595 77.9236332,19.5691595 75.4648955,19.5691595 L74.0663913,19.5691595 L75.0477349,25.9001194 C75.1063047,26.2825591 75.4302317,26.563908 75.810338,26.563908 L76.4522155,26.563908 C78.1256394,26.563908 79.7058296,26.563908 80.521026,25.5931933 C81.0087095,25.012226 81.1557318,24.1499098 80.9716551,22.9599622 M79.9018592,31.8072289 L70.6310913,31.8072289 C69.9963856,31.8072289 69.457304,31.3370961 69.3580939,30.6988847 L65.6096246,6.47608172 C65.5355158,5.99864112 65.8988878,5.56626506 66.3722277,5.56626506 L71.1295325,5.56626506 C71.5729898,5.56626506 71.9507055,5.89511446 72.0200331,6.34088808 L73.0838525,13.2089686 C73.1818673,13.84718 73.7221441,14.3173129 74.3556546,14.3173129 L77.2889275,14.3173129 C83.395729,14.3173129 86.9206768,17.3281118 87.8410599,23.2973373 C88.2558299,25.9062092 87.8577941,27.9572551 86.6589055,29.3932308 C85.3404866,30.9717079 83.0036698,31.8072289 79.9018592,31.8072289" id="Shape" fill="#0079C1"></path>
                <path d="M15.371663,22.9599622 C14.8648552,19.5691595 12.3236445,19.5691595 9.86490958,19.5691595 L8.46640697,19.5691595 L9.4477494,25.9001194 C9.50631916,26.2825591 9.83024584,26.563908 10.2103517,26.563908 L10.8522285,26.563908 C12.5256504,26.563908 14.1058389,26.563908 14.9210344,25.5931933 C15.4087174,25.012226 15.5557394,24.1499098 15.371663,22.9599622 M14.3018683,31.8072289 L5.03111081,31.8072289 C4.39640578,31.8072289 3.85732485,31.3370961 3.75811484,30.6988847 L0.00964971924,6.47608172 C-0.0644589662,5.99864112 0.297717351,5.56626506 0.772251998,5.56626506 L5.1996483,5.56626506 C5.83315803,5.56626506 6.37223895,6.0363979 6.47144897,6.67339136 L7.48386923,13.2089686 C7.58188395,13.84718 8.12216017,14.3173129 8.7556699,14.3173129 L11.6889395,14.3173129 C17.7957342,14.3173129 21.320678,17.3281118 22.24106,23.2973373 C22.6558296,25.9062092 22.2577943,27.9572551 21.058907,29.3932308 C19.7404896,30.9717079 17.4036754,31.8072289 14.3018683,31.8072289" id="Shape" fill="#00457C"></path>
                <path d="M36.037595,14.2592557 C35.5960218,11.7951191 33.5246868,10.140362 30.8813977,10.140362 C29.5566781,10.140362 28.4951804,10.5433099 27.8137555,11.3050788 C27.1384806,12.0598803 26.8838688,13.1363433 27.0978903,14.3335746 C27.5087133,16.7768089 29.6144885,18.4838215 32.2171874,18.4838215 C33.5148468,18.4838215 34.5677344,18.0773899 35.2626894,17.3086537 C35.9625645,16.5341112 36.2380865,15.451842 36.037595,14.2592557 M42.4041211,22.6538094 L37.835868,22.6538094 C37.4447252,22.6538094 37.1113928,22.3855646 37.0498924,22.0197762 L36.8494009,20.8144162 L36.5308286,21.2510399 C35.5406714,22.6061988 33.3352655,23.060241 31.1335495,23.060241 C26.086823,23.060241 21.7756418,19.4488062 20.9367757,14.3846688 C20.5001226,11.8578257 21.1200471,9.44362222 22.637878,7.75867306 C24.0314781,6.2107494 26.0204025,5.56626506 28.3906297,5.56626506 C32.4594991,5.56626506 34.7153355,8.03272406 34.7153355,8.03272406 L34.511154,6.83433155 C34.4348934,6.3791282 34.8075861,5.96689046 35.2971297,5.96689046 L39.4102794,5.96689046 C40.0634142,5.96689046 40.6181482,6.41396519 40.7202389,7.02245131 L43.1900968,21.7863683 C43.2663573,22.2415717 42.8924346,22.6538094 42.4041211,22.6538094" id="Shape" fill="#00457C"></path>
                <path d="M103.237595,14.2592557 C102.796022,11.7951191 100.724687,10.140362 98.0813977,10.140362 C96.7566781,10.140362 95.6951804,10.5433099 95.0137555,11.3050788 C94.3372506,12.0598803 94.0838688,13.1363433 94.2978903,14.3335746 C94.7087133,16.7768089 96.8144885,18.4838215 99.4171874,18.4838215 C100.714847,18.4838215 101.767734,18.0773899 102.462689,17.3086537 C103.162564,16.5341112 103.438086,15.451842 103.237595,14.2592557 M109.604121,22.6538094 L105.035868,22.6538094 C104.644725,22.6538094 104.311393,22.3855646 104.249892,22.0197762 L104.049401,20.8144162 L103.729599,21.2510399 C102.740671,22.6061988 100.535265,23.060241 98.3335495,23.060241 C93.286823,23.060241 88.9756418,19.4488062 88.1367757,14.3846688 C87.7001226,11.8578257 88.3200471,9.44362222 89.837878,7.75867306 C91.2314781,6.2107494 93.2204025,5.56626506 95.5906297,5.56626506 C99.6594991,5.56626506 101.915335,8.03272406 101.915335,8.03272406 L101.711154,6.83433155 C101.634893,6.3791282 102.007586,5.96689046 102.49713,5.96689046 L106.610279,5.96689046 C107.263414,5.96689046 107.818148,6.41396519 107.920239,7.02245131 L110.390097,21.7863683 C110.466357,22.2415717 110.092435,22.6538094 109.604121,22.6538094" id="Shape" fill="#0079C1"></path>
                <path d="M64.8500121,23.8554217 L60.5248845,23.8554217 C60.1112572,23.8554217 59.7242782,23.6377268 59.4925543,23.2736721 L53.5256624,13.9460005 L50.997554,22.9096174 C50.8388231,23.4704584 50.3522028,23.8554217 49.8006998,23.8554217 L45.5497238,23.8554217 C45.0364552,23.8554217 44.6749659,23.319179 44.8406485,22.8038448 L49.6025758,7.9636964 L45.1233517,1.25451279 C44.7722899,0.728109385 45.1268276,0 45.735103,0 L50.0555961,0 C50.4645889,0 50.8480921,0.212775209 51.0821333,0.569450415 L65.4652392,22.6070585 C65.8093493,23.1346918 65.4548117,23.8554217 64.8500121,23.8554217" id="Shape" fill="#00457C"></path>
                <path d="M114.201185,31.1422224 L110.409617,6.47608172 C110.335763,5.99864112 110.696694,5.56626506 111.169598,5.56626506 L114.983799,5.56626506 C115.615131,5.56626506 116.153551,6.0363979 116.251228,6.67460932 L119.990384,30.8974123 C120.064238,31.3748529 119.703307,31.8072289 119.229212,31.8072289 L114.962357,31.8072289 C114.582367,31.8072289 114.259553,31.52588 114.201185,31.1422224" id="Shape" fill="#0079C1"></path>
            </g>
        </g>
    </g>
</svg>