<svg xmlns="http://www.w3.org/2000/svg" viewBox="0 0 2175.6 1362.1"><path fill="#008AC9" d="M125.1 1127.2c-.2-8.6-4.4-13.1-12.3-13.3H70.3c-10.1.5-15.3 6.2-15.5 16.5v76.2c.2 10.6 5.9 16 17 16.5h38.7c3.9 0 7.4-1.5 10.1-4.4 2.7-2.2 4.2-5.2 4.2-8.9l.3-82.6zM.5 1116.4c.2-19 4.4-33.6 12.8-43.4 4.2-4.2 9.6-7.6 16.3-10.6 6.9-3 13.3-4.4 19.7-4.4H127c34.3.2 51.8 19 52.3 56.3V1229c-.2 13.3-5.4 24.7-15.5 34.3-9.9 10.1-21.7 15.3-35.5 15.5H54.8v82.7H.5v-245.1m277.3 95.5c0 3.2 1.5 5.7 4.4 7.6 2.5 2.2 5.9 3.5 9.9 3.5h41.7c9.4 0 14.3-3.7 14.6-11.1v-15.5c0-8.6-4.9-12.8-15-12.8H292c-5.4 0-9.1 1-11.3 2.7-2 2-3 5.9-3 11.8l.1 13.8zm70.8-86.1c.2-8.4-4.7-12.3-14.6-12.1H224.5v-55.8h123.4c36 .5 54.3 18 54.8 52.3v116.9c-.2 14.8-4.9 26.9-13.6 36.8-9.1 10.1-21 15-35.5 15H279c-36.3-.2-54.8-16.8-55.3-49.8V1184c.2-34.5 17.8-52.1 52.8-52.6h72.3l-.2-5.6m206.8 179.8c4.2-.2 8.1-1.7 11.1-4.7 3-2.7 4.4-5.7 4.4-8.9v-13.3h-69.6c-9.1 0-16.3-1.2-21.7-3.5-5.7-2-11.3-5.9-17.3-11.6-5.4-5.9-9.4-12.1-11.8-18.5-2.5-5.9-3.7-13.3-3.7-22.5v-164.8h54.5v147.3c0 11.8 4.9 17.8 14.6 17.8h38.5c4.7 0 8.6-1.5 11.8-4.4 3.2-2.7 4.7-5.7 4.7-9.4v-151.2h54v243.5c-.2 18-4.9 32.6-13.8 43.4-9.1 10.9-21.5 16.5-37.3 16.8h-127v-56h108.6m112.2-82.6h97c8.9-.2 13.6-3.9 13.8-10.6v-4.9c0-1.5-.5-3-1.2-4.7-2.2-4.2-4.9-6.4-7.9-6.4h-48.4c-14.3-.2-26.4-5.2-36.8-14.8-10.4-8.9-15.5-19.5-16-32.3v-41.7c.5-32.6 18.3-49.1 53-49.6h112.5v56h-95.2c-11.1 0-16.8 3.5-16.8 10.4v5.4c0 7.2 5.7 10.6 17.3 10.6h47.9c12.8.2 23.7 5.2 32.8 14.8 9.1 9.6 13.8 21 14.3 34.3v40.7c-.2 11.3-5.7 22.9-15.8 34.3-4.9 5.7-10.1 9.4-15 11.6-5.2 2-12.3 3-21.5 3H667.9l-.3-56.1m259.3-11.1c0 3.2 1.5 5.7 4.4 7.6 2.5 2.2 5.7 3.5 9.9 3.5h41.9c9.4 0 14.3-3.7 14.6-11.1v-15.5c0-8.6-4.9-12.8-15-12.8h-41.4c-5.4 0-9.1 1-11.3 2.7-2 2-3 5.9-3 11.8v13.8zm70.8-86.1c.2-8.4-4.7-12.3-14.8-12.1H873.4v-55.8h123.4c36 .5 54.3 18 54.8 52.3v116.9c-.2 14.8-4.9 26.9-13.6 36.8-9.1 10.1-21 15-35.5 15h-74.8c-36.3-.2-54.8-16.8-55.3-49.8V1184c.2-34.5 17.8-52.1 52.8-52.6h72.5v-5.6m98.2-99.7c.2-15 5.9-27.1 16.8-36.3 10.6-9.1 24.4-14.1 41.7-14.3h34.5v54h-21c-11.6.2-17.3 5.7-17.5 16.5v11.8h38.5v56h-38.5V1279h-54.5v-252.9m247.7 98.7v-1.2c0-3-1.2-5.4-3.5-7.2-2.5-1.7-5.7-2.7-9.4-2.7h-38c-4.9 0-8.9 1.5-11.8 4.2-3.7 2.5-5.7 5.9-5.7 10.1v22.5l68.4-25.7zm-67.3 79.2v3.5c0 4.4 1.2 8.1 3.5 10.6 1.7 3.2 3.9 4.9 7.2 4.9h111.8v56h-118.9c-10.9 0-19.2-1-25.2-3-6.4-2.2-12.3-5.7-17.5-10.6-5.9-5.9-10.1-11.8-12.1-18.3-2.2-6.4-3.5-15-3.5-25.7l-.5-112c.5-33.8 18.3-51.1 53-51.6h73.5c33.8.5 51.1 18.5 51.6 53.5v44.2l-122.9 48.5m238.1 75c-8.1 0-15.8-.7-22.7-2.2-7.2-1.2-14.3-4.4-21.5-10.1-7.4-6.4-12.6-13.8-15.5-22-3-7.9-4.4-17-4.4-26.9v-104.4c-.2-8.4.5-16 2.5-22.5 1.7-6.4 5.7-12.8 11.6-19 6.7-6.4 13.3-10.9 20.5-13.1 6.9-1.7 14.6-2.7 23.2-2.7h83.4v13.1h-81.4c-14.3 0-25.7 3-34 8.9-8.4 6.4-12.8 17.5-12.8 33.3v104.4c0 7.4 1.2 14.6 3.5 21.5 2.2 6.7 6.2 12.8 11.6 18 5.9 4.4 11.8 7.4 17.5 8.4 5.9 1.2 12.3 2 19.2 2h77.7v13.1h-78.2m291.4-135.3h-109.3c-13.1.2-23.4 4.4-30.8 12.1-7.6 7.9-11.3 18.8-11.3 32.6v33.3c0 6.4.7 12.3 2 17.8 1.5 5.7 4.7 10.6 10.1 14.8 9.4 7.9 20 11.6 31.3 11.6h66.6c27.6-.2 41.7-14.8 41.7-43.9l-.3-78.3zm13.1 75.3c0 8.4-.7 15.8-1.7 22.2-1.7 7.2-5.4 13.8-10.9 20.2-11.3 12.1-25.7 18-42.4 17.5H1699c-17 0-30.6-4.9-41.2-15-10.9-9.9-16.3-23.7-16.3-41.4v-33.6c.5-38 19.5-57.5 56.7-58.2h108.3v-14.8c0-12.1-3.5-22.7-10.6-31.8-4.4-5.9-9.6-9.9-15.5-11.8-5.9-1.5-12.8-2.5-20.2-2.5H1642v-13.1h112c10.4 0 19.5.7 27.9 2.2 4.2.7 8.1 2.5 11.8 4.9 3.9 2.2 7.4 5.7 10.6 10.1 10.1 13.1 15 27.9 14.8 44.7v100.4m122.3-149.3c-30.3.5-45.4 17-44.7 49.6v159.6h-13.1v-159.4c-.7-41.9 19.2-62.9 60-62.9h14.6v13.1h-16.8m220.4 0h-103.1c-7.4 0-14.1.7-20 2.5-6.2 1.5-12.3 5.2-18 11.3-5.4 5.7-8.9 11.3-10.4 16.8-2 5.7-2.7 12.3-2.5 20.2v101.9c0 17 4.9 28.4 14.8 34.5 4.9 3 10.4 4.9 16.3 6.4s12.8 2.5 20 2.5h45.1c16.8 0 30.6-3.9 41.2-11.6 10.6-7.4 16-20 16.5-38v-146.5zm13 147.5c-1.2 42.2-23.4 62.9-66.9 61.9h-48.4c-10.1 0-19.2-1-27.4-2.5-8.4-2.2-16.3-7.2-23.9-15-5.7-7.2-9.4-14.3-10.9-21.7-2-7.4-3-15.5-2.5-24.4v-95c.5-42.7 22.2-64.1 64.6-63.7H2162v-72.3h13.1V1217"/><path fill="#E3001B" d="M834.8 301.4c11.3-5.3 23.3-9.3 34.7-11.3 21.3-101.3 111.4-177.4 218.7-177.4 108 0 197.4 76 218.7 177.4 33.3 6 60.7 19.3 81.3 39.3.7-19.3 0-38-2-56C1372.8 120 1244.2 0 1087.5 0 926.1 0 794.8 128 788.1 287.4c-.7 14-1.3 28-.7 43.3 13.4-11.3 28.7-21.3 47.4-29.3"/><path fill="#E3001B" d="M1262.8 324H903.4c-17.3 0-35.3 4-53.3 12s-32.7 17.3-44 28.7c-22 26.7-34 66-34.7 117.4v280.7c.7 51.3 12 90.7 34.7 117.4 12 11.3 26 20.7 44 28.7 18.7 8 36.7 12 53.3 12h359.4c92.7-.7 140-52 141.4-152.7v-292c-1.4-100.8-48.7-151.5-141.4-152.2"/></svg>