<?xml version="1.0" encoding="UTF-8" standalone="no"?>
<svg width="120px" height="42px" viewBox="0 0 120 42" version="1.1" xmlns="http://www.w3.org/2000/svg" xmlns:xlink="http://www.w3.org/1999/xlink">
    <!-- Generator: Sketch 46.2 (44496) - http://www.bohemiancoding.com/sketch -->
    <title>icn-poli</title>
    <desc>Created with Sketch.</desc>
    <defs></defs>
    <g id="Page-1" stroke="none" stroke-width="1" fill="none" fill-rule="evenodd">
        <g id="Payment-Icons" transform="translate(-718.000000, -377.000000)" fill-rule="nonzero">
            <g id="icn-poli" transform="translate(718.000000, 376.908397)">
                <path d="M10.5618321,29.3862595 L10.5618321,40.4977099 L0,40.4977099 L0,4.08549618 C0.21775894,4.04331355 0.438099903,4.01577093 0.659541985,4.00305344 C5.79847328,4.00305344 10.9465649,3.9480916 16.0854962,4.10381679 C19.410687,4.20458015 22.4977099,5.17557252 24.7877863,7.76793893 C26.2233791,9.52345053 27.080882,11.6800061 27.2427481,13.9419847 C27.6489887,16.824218 27.417589,19.7604921 26.5648855,22.5435115 C25.7840339,25.2535044 23.6845065,27.3840594 20.9862595,28.2045802 C18.5044639,28.9951103 15.9145716,29.393793 13.3099237,29.3862595 L10.5618321,29.3862595 Z M10.5618321,10.7450382 C10.5618321,14.6839695 10.5618321,18.3938931 10.5618321,22.1038168 C10.5618321,22.3053435 10.9648855,22.6625954 11.1847328,22.6625954 C11.9845311,22.6901945 12.7851342,22.6411154 13.5755725,22.5160305 C14.9903364,22.4256617 16.1149121,21.2932219 16.1954198,19.8778626 C16.3645118,17.9374692 16.3951237,15.9874931 16.2870229,14.0427481 C16.231999,12.6067532 15.1620007,11.4135896 13.740458,11.2030534 C12.7053435,10.9923664 11.6885496,10.9099237 10.5343511,10.7450382 L10.5618321,10.7450382 Z" id="Shape" fill="#000000"></path>
                <path d="M60.5862595,5.87175573 C64.900863,8.04479489 67.8287005,12.2471029 68.3725191,17.0473282 C69.3709924,24.3755725 66.4763359,30.1374046 61.2091603,34.9374046 C60.2931298,35.7801527 59.2763359,36.5221374 58.1038168,37.4656489 C58.3623748,37.4021822 58.613991,37.3131959 58.8549618,37.2 C64.9832061,33.0045802 68.8671756,27.4076336 68.9954198,19.7954198 C69.1881986,14.0706433 66.3695983,8.66282326 61.5664122,5.54198473 L60.7419847,4.94656489 C64.3053435,6.15572519 68.070229,11.248855 68.9862595,15.8381679 C69.8973235,20.4773941 69.148307,25.2892579 66.870229,29.4320611 C68.8763359,27.0412214 70.5343511,20.8305344 69.4717557,15.6916031 C68.4091603,10.5526718 65.4320611,7.06259542 61.3740458,4.1221374 C61.7038168,4.30534351 62.0427481,4.47022901 62.3541985,4.67175573 C67.7052704,7.9087296 70.7255366,13.9278922 70.1221374,20.1526718 C69.6,28.9374046 65.0290076,35.1755725 57.4442748,39.2977099 C54.0169171,41.2514148 50.1098738,42.203578 46.1679389,42.0458015 C38.3358779,41.6244275 30.8610687,37.1633588 29.221374,28.1038168 C28.1429801,22.3613824 29.5843457,16.4324318 33.178626,11.8259542 C37.0167939,6.65954198 41.9633588,3.14198473 48.4580153,2.12519084 L48.7419847,2.0610687 C50.5282443,1.80458015 50.5282443,1.80458015 50.9587786,0.109923664 L58.0946565,7.43816794 L48.9343511,12.3480916 L48.9343511,10.6992366 C43.3740458,11.0748092 37.9419847,16.8183206 37.6396947,22.3969466 C37.2916031,28.1587786 40.7541985,32.1526718 45.270229,33.1603053 C48.7476913,33.9764053 52.4081618,33.266314 55.3282443,31.2091603 C59.0081066,28.9256208 61.3066818,24.9572287 61.4564885,20.6290076 C61.5383338,18.6854265 61.0132938,16.7645485 59.9541985,15.1328244 C59.7782831,14.8809121 59.6365874,14.6067618 59.5328244,14.3175573 C60.989961,15.706753 61.8808639,17.5864602 62.0335878,19.5938931 C62.5923664,26.2992366 57.0229008,32.519084 50.5648855,33.7557252 C47.3209462,34.4497569 43.934537,33.7591951 41.221374,31.8503817 C41.0290076,31.7129771 40.8091603,31.6122137 40.6076336,31.4931298 L40.4793893,31.6946565 C41.0650539,32.1399822 41.6768336,32.5498746 42.3114504,32.9221374 C46.4398397,35.2138111 51.509401,34.9725724 55.4015267,32.2992366 C60.2015267,29.1847328 62.9221374,24.8335878 62.4916031,18.8977099 C62.3296434,16.9927626 61.5697972,15.1877272 60.3206107,13.740458 C59.7526718,13.0442748 59.1389313,12.3847328 58.5618321,11.7251908 C62.2557471,14.3265665 63.9817683,18.9232335 62.9129771,23.3129771 C61.0534351,31.1450382 52.2137405,36.540458 44.4366412,34.5160305 C43.3099237,34.2229008 42.2473282,33.6916031 41.0748092,33.3618321 C41.340458,33.5267176 41.5877863,33.719084 41.8625954,33.8656489 C45.4659293,35.7932543 49.7550381,35.9587396 53.4961832,34.3145038 C58.9923664,32.0885496 62.519084,28.1587786 63.5725191,22.2229008 C64.2280589,18.7815438 63.2616264,15.2300733 60.9526718,12.5954198 C60.4671756,12.0183206 59.9541985,11.4503817 59.340458,10.7633588 C63.6458015,13.8320611 65.2122137,19.080916 63.5267176,24.3389313 C60.6699116,32.8627794 51.5922042,37.6098745 42.9618321,35.0931298 L42.4305344,34.9465649 L42.3480916,35.248855 C43.5188674,35.6357373 44.7200218,35.9237692 45.9389313,36.1099237 C51.754897,36.6558963 57.4514125,34.2179807 61.0717557,29.6335878 C64.29495,25.9093863 65.4059267,20.8030337 64.021374,16.0763359 C63.3420427,13.8841148 62.0404359,11.9364782 60.2748092,10.470229 C59.9848363,10.2203614 59.7152775,9.94773942 59.4687023,9.65496183 C61.4756217,10.8013748 63.0472421,12.5791093 63.9389313,14.7114504 C65.9444372,19.369568 65.2752085,24.7479244 62.189313,28.7725191 C58.2961832,34.1679389 52.9740458,37.0167939 46.1770992,36.6961832 C45.9847328,36.6961832 45.7923664,36.6961832 45.6,36.6961832 C45.5023074,36.6972292 45.4081619,36.7329395 45.3343511,36.7969466 C50.3664137,37.634963 55.5048748,36.1190833 59.2763359,32.6839695 C63.0497997,29.6170723 65.3222087,25.0755911 65.5145038,20.2167939 C65.6565648,16.9588988 64.4964155,13.7783758 62.2900763,11.3770992 C61.3740458,10.378626 60.3938931,9.54503817 59.5419847,8.50992366 C62.8388358,10.3818965 65.0993612,13.6579714 65.6793893,17.4045802 C67.0442748,26.0885496 61.3007634,34.5343511 52.5343511,36.870229 C50.2681036,37.4838367 47.9117011,37.6946727 45.5725191,37.4931298 C45.2404581,37.4650468 44.9060387,37.4929151 44.5832061,37.5755725 C46.7432397,38.0419067 48.9795239,38.0262683 51.1328244,37.529771 C58.5238999,36.2257171 64.3860216,30.5701102 65.9541985,23.2305344 C67.1175573,17.578626 65.8625954,12.6503817 61.2458015,8.85801527 C60.7104081,8.4358115 60.2165629,7.96343775 59.7709924,7.44732824 C60.0074811,7.55488922 60.2369449,7.67726993 60.4580153,7.81374046 C64.8732824,10.9374046 67.1267176,15.1969466 66.6870229,20.6381679 C66.0366412,28.6351145 61.5664122,33.9664122 54.4396947,37.2641221 C54.2037409,37.340287 54.00874,37.508847 53.8992366,37.7312977 C54.2015267,37.6396947 54.5038168,37.5572519 54.8152672,37.4473282 C61.4473282,34.919084 68.1709924,26.9679389 67.0717557,17.340458 C66.7006618,14.049736 65.1363659,11.0091358 62.6748092,8.79389313 L61.7587786,7.8778626 C63.4076336,8.70229008 65.578626,11.2854962 66.4763359,13.5847328 C68.7938931,19.5206107 67.6946565,25.0625954 64.2870229,30.2381679 C61.9839953,33.6023907 58.7855496,36.2550699 55.0534351,37.8961832 L54.448855,38.189313 C54.3938931,38.189313 54.3664122,38.280916 54.1832061,38.4824427 C54.6412214,38.3450382 54.9343511,38.280916 55.2183206,38.1709924 C63.4388683,34.8000448 68.5971259,26.5652551 68.0427481,17.6977099 C67.6379014,13.7584361 65.6958921,10.1377409 62.6381679,7.62137405 C61.978626,7.00763359 61.2732824,6.41221374 60.5862595,5.87175573 Z" id="Shape" fill="#30469D"></path>
                <polygon id="Shape" fill="#000000" points="97.2091603 29.3129771 97.2091603 40.3053435 73.3374046 40.3053435 73.3374046 3.87480916 85.0900763 3.87480916 85.0900763 29.3129771"></polygon>
                <polygon id="Shape" fill="#000000" points="110.574046 40.3877863 99.3343511 40.3877863 99.3343511 16.4885496 110.574046 16.4885496"></polygon>
                <polygon id="Shape" fill="#000000" points="110.619847 13.8870229 99.1694656 13.8870229 99.1694656 3.98473282 110.619847 3.98473282"></polygon>
                <polygon id="Shape" fill="#000000" points="112.241221 36.8152672 115.474809 36.8152672 115.474809 37.6671756 114.384733 37.6671756 114.384733 40.259542 113.322137 40.259542 113.322137 37.6671756 112.232061 37.6671756"></polygon>
                <polygon id="Shape" fill="#000000" points="115.951145 36.8152672 117.352672 36.8152672 117.89313 38.9129771 118.433588 36.8152672 119.835115 36.8152672 119.835115 40.259542 118.919084 40.259542 118.919084 37.6305344 118.250382 40.259542 117.462595 40.259542 116.793893 37.6305344 116.793893 40.259542 115.877863 40.259542"></polygon>
            </g>
        </g>
    </g>
</svg>