<?xml version="1.0" encoding="UTF-8" standalone="no"?>
<svg width="120px" height="69px" viewBox="0 0 120 69" version="1.1" xmlns="http://www.w3.org/2000/svg" xmlns:xlink="http://www.w3.org/1999/xlink">
    <!-- Generator: Sketch 46.2 (44496) - http://www.bohemiancoding.com/sketch -->
    <title>icn-postepay</title>
    <desc>Created with Sketch.</desc>
    <defs></defs>
    <g id="Page-1" stroke="none" stroke-width="1" fill="none" fill-rule="evenodd">
        <g id="Payment-Icons" transform="translate(-480.000000, -14.000000)" fill-rule="nonzero">
            <g id="icn-postepay" transform="translate(479.787234, 14.000000)">
                <circle id="Oval" fill="#F5E11C" cx="60" cy="34.1818182" r="33.8909091"></circle>
                <path d="M17.3090909,30.7636364 C17.2363636,29.3818182 16.6545455,28.0727273 15.7090909,27.1272727 C14.7636364,26.2545455 13.5272727,25.7454545 12.2181818,25.8181818 C11.4909091,25.8181818 10.7636364,25.9636364 10.1090909,26.1818182 L10.1090909,26.1818182 C9.89090909,26.2545455 9.74545455,26.3272727 9.52727273,26.4 C8.58181818,26.9090909 7.78181818,27.4909091 7.05454545,28.2181818 L7.27272727,25.9636364 L4.65454545,25.9636364 C4.58181818,26.6181818 4.58181818,27.2 4.50909091,27.8545455 C4.43636364,28.5090909 4.29090909,29.0909091 4.21818182,29.7454545 L0.436363636,46.2545455 L3.34545455,46.2545455 L5.09090909,38.7636364 C5.6,39.4909091 6.25454545,40.0727273 6.98181818,40.5090909 C7.78181818,40.9454545 8.72727273,41.0909091 9.6,41.0909091 L10.1090909,41.0909091 L10.1090909,41.0909091 C11.1272727,41.0181818 12.1454545,40.7272727 13.0181818,40.1454545 C14.1090909,39.5636364 15.0545455,38.6181818 15.6363636,37.5272727 C16.2909091,36.5090909 16.7272727,35.4181818 16.9454545,34.2545455 C17.2363636,33.1636364 17.3818182,31.9272727 17.3090909,30.7636364 Z M14.1090909,33.6727273 C13.8181818,34.6909091 13.4545455,35.6363636 12.9454545,36.5090909 C12.5090909,37.3090909 11.9272727,37.9636364 11.1272727,38.4727273 C10.8363636,38.6181818 10.4727273,38.7636364 10.1090909,38.9090909 C9.67272727,39.0545455 9.23636364,39.0545455 8.8,39.1272727 C7.2,39.2 5.81818182,37.9636364 5.74545455,36.3636364 L5.74545455,36.3636364 C5.67272727,35.4181818 5.81818182,34.4 6.03636364,33.4545455 C6.25454545,32.3636364 6.69090909,31.3454545 7.2,30.4 C7.63636364,29.6 8.21818182,28.8727273 8.94545455,28.3636364 C9.30909091,28.1454545 9.67272727,27.9272727 10.1090909,27.7818182 C10.4727273,27.7090909 10.8363636,27.6363636 11.2,27.6363636 C12,27.6363636 12.8727273,27.9272727 13.4545455,28.5090909 C14.0363636,29.1636364 14.4,29.9636364 14.4727273,30.8363636 C14.4727273,31.7090909 14.4,32.7272727 14.1090909,33.6727273 L14.1090909,33.6727273 Z" id="Shape" fill="#0356A2"></path>
                <path d="M86.8363636,30.4727273 C86.8363636,29.1636364 86.3272727,27.8545455 85.3818182,26.9090909 C84.4363636,26.0363636 83.2727273,25.6 81.9636364,25.6727273 C81.0909091,25.6727273 80.2181818,25.8181818 79.4181818,26.2545455 C79.2727273,26.3272727 79.2,26.3272727 79.0545455,26.4 C78.4,26.8363636 77.7454545,27.2727273 77.1636364,27.8545455 L77.3090909,26.0363636 L73.2363636,26.0363636 C73.0909091,26.9818182 72.8727273,28.5818182 72.4363636,30.5454545 L68.9454545,46.3272727 L73.5272727,46.3272727 L75.2727273,38.4727273 C75.6363636,39.2727273 76.2909091,39.9272727 77.0909091,40.3636364 C77.6727273,40.6545455 78.3272727,40.8727273 78.9818182,40.9454545 L78.9818182,40.9454545 L79.1272727,40.9454545 L79.2,40.9454545 C79.4181818,40.9454545 79.6363636,41.0181818 79.7818182,41.0181818 C82.0363636,41.0181818 84.1454545,39.8545455 85.3090909,37.8909091 C86.6181818,35.7090909 87.2,33.0909091 86.8363636,30.4727273 Z M82.1818182,33.3090909 C81.9636364,34.2545455 81.6727273,35.1272727 81.2363636,36.0727273 C80.9454545,36.7272727 80.5090909,37.3090909 80,37.7454545 C79.7090909,37.9636364 79.4181818,38.1090909 79.0545455,38.1818182 L79.0545455,38.1818182 C78.8363636,38.2545455 78.6181818,38.2545455 78.4,38.3272727 C77.7454545,38.3272727 77.0909091,38.1090909 76.5818182,37.5272727 C76.0727273,36.9454545 75.7818182,36.2181818 75.7818182,35.4181818 C75.5636364,33.7454545 75.9272727,32 76.8,30.4727273 C77.2363636,29.5272727 78.0363636,28.8727273 78.9818182,28.4363636 C79.2727273,28.3636364 79.6363636,28.2909091 79.9272727,28.3636364 C80.5818182,28.3636364 81.1636364,28.5818182 81.6,29.0181818 C82.0363636,29.5272727 82.3272727,30.1818182 82.3272727,30.8363636 C82.4727273,31.6363636 82.4,32.5090909 82.1818182,33.3090909 Z" id="Shape" fill="#0356A2"></path>
                <path d="M102.036364,29.5272727 C101.963636,28.3636364 101.381818,27.3454545 100.436364,26.6909091 C99.1272727,25.9636364 97.6,25.6727273 96.0727273,25.7454545 C95.4909091,25.7454545 94.9818182,25.7454545 94.4,25.8181818 L94.4,25.8181818 C93.3818182,25.9636364 92.3636364,26.3272727 91.4181818,26.8363636 C90.3272727,27.5636364 89.6727273,28.7272727 89.5272727,29.9636364 L93.8181818,29.9636364 C93.8909091,29.6 94.0363636,29.2363636 94.2545455,28.8727273 L94.2545455,28.8727273 C94.3272727,28.7272727 94.4,28.6545455 94.5454545,28.5090909 C94.9818182,28.2181818 95.4909091,28.0727273 96,28.0727273 C96.4363636,28.0727273 96.8727273,28.1454545 97.2363636,28.4363636 C97.5272727,28.6545455 97.7454545,29.0181818 97.8181818,29.3818182 C97.8181818,29.6 97.8181818,29.8909091 97.7454545,30.1090909 C97.6727273,30.5454545 97.6,30.9818182 97.5272727,31.3454545 L96.2909091,31.3454545 C95.6363636,31.3454545 94.9090909,31.3454545 94.4,31.4181818 L94.3272727,31.4181818 C92.5818182,31.4909091 90.9090909,32 89.3818182,32.8727273 C87.9272727,33.7454545 87.1272727,35.4181818 87.3454545,37.0909091 C87.4181818,38.1818182 87.8545455,39.2 88.7272727,39.9272727 C89.6,40.6545455 90.7636364,41.0909091 91.9272727,41.0181818 C92.7272727,41.0181818 93.6,40.8 94.3272727,40.4363636 L94.4,40.3636364 L94.4,40.3636364 C95.1272727,39.9272727 95.7818182,39.3454545 96.2909091,38.6909091 C96.2909091,39.0545455 96.2181818,39.4181818 96.2181818,39.7818182 L96.2181818,40.8 L100.363636,40.8 C100.363636,40.1454545 100.363636,39.5636364 100.436364,38.9090909 C100.509091,38.2545455 100.581818,37.6727273 100.727273,37.0181818 L101.890909,32 C101.963636,31.4909091 102.109091,31.0545455 102.181818,30.6181818 C102.109091,30.3272727 102.109091,29.9636364 102.036364,29.5272727 Z M95.6363636,37.0909091 C95.2727273,37.5272727 94.8363636,37.8909091 94.3272727,38.1090909 C93.9636364,38.2545455 93.6,38.3272727 93.2363636,38.3272727 C92.8,38.3272727 92.4363636,38.2545455 92.0727273,37.9636364 C91.7090909,37.6727273 91.5636364,37.2363636 91.5636364,36.8 C91.4909091,35.8545455 91.9272727,34.9818182 92.7272727,34.5454545 C93.1636364,34.1818182 93.6727273,33.9636364 94.2545455,33.8181818 L94.2545455,33.8181818 C94.9090909,33.6727273 95.4909091,33.6 96.1454545,33.6 L96.6545455,33.6 C96.8,33.6 96.8727273,33.6 96.9454545,33.6727273 C96.8727273,34.9090909 96.3636364,36.0727273 95.6363636,37.0909091 Z" id="Shape" fill="#0356A2"></path>
                <polygon id="Shape" fill="#0356A2" points="102.836364 46.2545455 106.4 40.8727273 103.781818 25.8909091 108.290909 25.8909091 109.527273 36.1454545 115.272727 25.8909091 119.563636 25.8909091 110.254545 41.4545455 107.636364 46.2545455"></polygon>
                <path d="M26.2545455,38.5454545 C26.9090909,38.0363636 27.2727273,37.5272727 27.6363636,36.8 C28.2181818,35.8545455 28.5818182,34.7636364 28.8727273,33.6727273 C29.0909091,32.6545455 29.2363636,31.6363636 29.2363636,30.6181818 C29.2363636,29.6727273 28.8727273,28.8 28.2909091,28.1454545 C27.6363636,27.5636364 26.8363636,27.2727273 25.9636364,27.3454545 C25.6,27.3454545 25.2363636,27.4181818 24.8727273,27.4909091 L24.8727273,27.4909091 C24.4363636,27.6363636 24.0727273,27.7818182 23.6363636,28 C22.9090909,28.5090909 22.3272727,29.2363636 21.8909091,30.0363636 C21.3818182,30.9818182 20.9454545,32 20.7272727,33.0181818 C20.5090909,34.0363636 20.3636364,35.0545455 20.4363636,36.1454545 C20.4363636,37.0181818 20.8,37.8181818 21.3818182,38.4 C22.0363636,38.9818182 22.8363636,39.2727273 23.7090909,39.2727273 C24.7272727,39.2727273 25.3818182,39.2 26.2545455,38.5454545 Z M23.4909091,41.2363636 C21.6,41.1636364 20.5090909,40.7272727 19.2727273,39.7090909 C18.1818182,38.7636364 17.5272727,37.4545455 17.4545455,36 C17.3090909,34.6181818 17.4545455,33.2363636 17.8909091,32 C18.2545455,30.6909091 18.8363636,29.4545455 19.6363636,28.3636364 C20.3636364,27.4909091 21.2363636,26.7636364 22.3272727,26.3272727 C23.1272727,26.0363636 23.9272727,25.8181818 24.7272727,25.7454545 L24.7272727,25.7454545 C25.2363636,25.6727273 25.6727273,25.6727273 26.1818182,25.6727273 C27.6363636,25.6 29.1636364,26.0363636 30.3272727,26.9818182 C31.4181818,27.8545455 32.0727273,29.1636364 32.1454545,30.5454545 C32.2909091,31.8545455 32.1454545,33.1636364 31.7818182,34.4 C31.4909091,35.6363636 30.9818182,36.8727273 30.3272727,37.9636364 C29.6727273,39.0545455 28.7272727,39.9272727 27.5636364,40.4363636 C26.4,40.9454545 25.3090909,41.3090909 23.4909091,41.2363636 Z" id="Shape" fill="#0356A2"></path>
                <path d="M35.1272727,36 C35.0545455,36.2181818 34.9818182,36.5090909 34.9818182,36.7272727 C34.9090909,36.8727273 34.9090909,37.0909091 34.9818182,37.2363636 C34.9818182,37.7454545 35.2727273,38.2545455 35.6363636,38.5454545 C36.2181818,38.9090909 36.8727273,39.0545455 37.5272727,38.9818182 C38.4727273,39.0545455 39.4181818,38.8363636 40.2181818,38.3272727 C40.8,37.9636364 41.1636364,37.2363636 41.0909091,36.5090909 C41.0909091,36.0727273 40.8727273,35.6363636 40.5090909,35.3454545 C39.7818182,34.8363636 38.9818182,34.4 38.1818182,34.0363636 C37.0181818,33.5272727 35.9272727,32.8727273 34.9818182,32.0727273 C34.4,31.5636364 33.9636364,30.8363636 33.9636364,30.0363636 C33.8909091,28.8 34.4,27.5636364 35.4181818,26.8363636 C36.7272727,25.9636364 38.2545455,25.5272727 39.8545455,25.6 C41.1636364,25.5272727 42.4727273,25.8181818 43.6363636,26.3272727 C44.4363636,26.7636364 45.0181818,27.6363636 45.0181818,28.5818182 L45.0181818,29.1636364 C45.0181818,29.4545455 45.0181818,29.6727273 44.9454545,29.9636364 L42.1818182,29.9636364 L42.1818182,29.0909091 C42.1818182,28.5818182 41.8909091,28.1454545 41.4545455,27.8545455 C40.9454545,27.5636364 40.2909091,27.3454545 39.6363636,27.4181818 C38.9090909,27.3454545 38.1090909,27.5636364 37.5272727,28 C37.0181818,28.3636364 36.7272727,28.9454545 36.8,29.6 C36.8727273,30.0363636 37.0909091,30.4 37.3818182,30.6181818 C38.1090909,31.2 38.9090909,31.6363636 39.7818182,32 C41.0181818,32.5090909 42.1818182,33.1636364 43.2,34.0363636 C43.7090909,34.6181818 44,35.3454545 44.0727273,36.0727273 C44.2181818,37.4545455 43.4909091,38.8363636 42.3272727,39.5636364 C40.8727273,40.5818182 39.0545455,41.0909091 37.3090909,40.9454545 C36,41.0181818 34.6181818,40.7272727 33.4545455,40.0727273 C32.5818182,39.4909091 32,38.6181818 32,37.5272727 C31.9272727,37.2363636 31.9272727,36.9454545 32,36.7272727 C32.0727273,36.4363636 32.1454545,36.1454545 32.1454545,35.7818182 L35.1272727,36 L35.1272727,36 Z" id="Shape" fill="#0356A2"></path>
                <path d="M53.0181818,40.8727273 L51.5636364,41.0181818 C51.1272727,41.0181818 50.6909091,41.0909091 50.3272727,41.0909091 C49.4545455,41.1636364 48.6545455,40.9454545 47.9272727,40.5090909 C47.3454545,40.1454545 47.0545455,39.4909091 47.0545455,38.7636364 C47.0545455,38.3272727 47.0545455,37.8181818 47.1272727,37.3818182 C47.2,36.7272727 47.3454545,36.0727273 47.4181818,35.3454545 L49.0909091,27.9272727 L46.3272727,27.9272727 L46.8363636,26.0363636 L49.5272727,26.0363636 L50.2545455,22.6181818 L53.1636364,21.8909091 L52.3636364,26.1090909 L55.5636364,26.1090909 L55.1272727,28 L51.9272727,28 L50.3272727,35.7090909 C50.1818182,36.1454545 50.1090909,36.5818182 50.0363636,37.0181818 C49.9636364,37.2363636 49.9636364,37.5272727 49.9636364,37.7454545 C49.9636364,38.1090909 50.1090909,38.4 50.4,38.6181818 C50.8363636,38.9090909 51.3454545,38.9818182 51.7818182,38.9090909 C52.0727273,38.9090909 52.3636364,38.8363636 52.6545455,38.7636364 C52.9454545,38.7636364 53.2363636,38.6909091 53.5272727,38.6181818 L53.0181818,40.8727273 Z" id="Shape" fill="#0356A2"></path>
                <path d="M69.0909091,30.1090909 C69.0909091,28.8 68.5090909,27.4909091 67.4909091,26.6909091 C66.1818182,25.8909091 64.6545455,25.5272727 63.1272727,25.6 L62.5454545,25.6 C61.5272727,25.6727273 60.5090909,25.9636364 59.5636364,26.4 C58.5454545,26.9090909 57.6,27.7090909 57.0181818,28.7272727 C56.3636364,29.8909091 55.8545455,31.1272727 55.5636364,32.4363636 C55.2,33.7454545 55.0545455,35.0545455 55.2,36.3636364 C55.2,37.7454545 55.8545455,38.9818182 56.8,39.9272727 C57.9636364,40.8 59.4909091,41.2363636 60.9454545,41.1636364 C61.4545455,41.1636364 61.9636364,41.0909091 62.5454545,41.0181818 L62.5454545,41.0181818 C63.6363636,40.8727273 64.7272727,40.5090909 65.6727273,39.8545455 C66.9090909,39.0545455 67.7818182,37.8181818 68.1454545,36.4363636 L64.9454545,36.4363636 C64.7272727,37.2363636 64.2181818,37.8909091 63.5636364,38.3272727 C63.2727273,38.4727273 62.9818182,38.6181818 62.6181818,38.7636364 L62.6181818,38.7636364 C62.2545455,38.9090909 61.8181818,38.9818182 61.3818182,38.9818182 C60.5090909,39.0545455 59.6363636,38.7636364 58.9818182,38.1818182 C58.4,37.6 58.0363636,36.8727273 58.0363636,36.0727273 C58.0363636,35.7090909 58.0363636,35.3454545 58.1090909,34.9818182 C58.1818182,34.5454545 58.2545455,34.1090909 58.4,33.7454545 L69.0181818,33.7454545 C69.1636364,33.0909091 69.3090909,32.5090909 69.3090909,31.8545455 C69.1636364,31.2727273 69.1636364,30.6909091 69.0909091,30.1090909 Z M66.3272727,30.5454545 C66.3272727,30.8363636 66.2545455,31.2 66.1818182,31.7090909 L62.4727273,31.7090909 L62.4727273,31.7090909 L58.6909091,31.7090909 C58.8363636,30.4727273 59.4181818,29.3090909 60.2909091,28.4363636 C60.8727273,27.7818182 61.7454545,27.4181818 62.6181818,27.3454545 L62.6181818,27.3454545 C62.7636364,27.3454545 62.9818182,27.2727273 63.1272727,27.2727273 C64,27.2727273 64.8,27.4909091 65.4545455,28 C66.0363636,28.4363636 66.4,29.1636364 66.4,29.8181818 C66.4,30.1090909 66.3272727,30.4 66.3272727,30.5454545 L66.3272727,30.5454545 Z" id="Shape" fill="#0356A2"></path>
            </g>
        </g>
    </g>
</svg>