<svg xmlns="http://www.w3.org/2000/svg" width="120" height="76"><g fill="none"><g fill-rule="nonzero"><path fill="#ff4e5a" d="M114.8 75.4L5.2 75.23a4.37 4.37 0 0 1-4.36-4.37V4.75A4.37 4.37 0 0 1 5.2.38l109.63.2a4.37 4.37 0 0 1 4.36 4.35v66.1a4.37 4.37 0 0 1-4.4 4.38z"/><circle cx="98.138" cy="64.98" r="6.866" fill="#ea001d"/><circle cx="105.005" cy="64.98" r="6.866" fill="#f79f1a"/><g fill="#fff"><rect width="22.547" height="6.235" x="8.932" y="48.424" opacity=".7" rx="3.117"/><rect width="33.392" height="4.466" x="8.932" y="62.626" opacity=".5" rx="2.233"/><rect width="22.547" height="6.235" x="35.729" y="48.424" opacity=".7" rx="3.117"/><rect width="22.547" height="6.235" x="62.526" y="48.424" opacity=".7" rx="3.117"/><rect width="22.547" height="6.235" x="89.323" y="48.424" opacity=".7" rx="3.117"/><g opacity=".5"><path d="M20.86 31.5h5.9v2.7h-5.9zm0 3.62h5.9v2.28h-5.9zm-11.93-.76h7.44v2.7H8.93zm11.93-3.76h5.9v-.22a2.52 2.52 0 0 0-2.53-2.52h-3.37zm-4.5 7.37H8.94v.22a2.52 2.52 0 0 0 2.52 2.5h4.92v-2.73zm-7.43-6.8h7.44v2.3H8.93zM19.96 38.3V27.85h-8.5a2.52 2.52 0 0 0-2.52 2.42h8.33v10.45h6.96a2.52 2.52 0 0 0 2.5-2.42h-6.77z"/></g></g></g><g fill="#fefefe" letter-spacing=".004"><text font-family="Arial-BoldMT, Arial" font-size="14" font-weight="bold"><tspan x="8" y="18">PREPAID</tspan></text><text fill-opacity=".883" font-family="ArialMT, Arial" font-size="13"><tspan x="74" y="18">CARD</tspan></text></g></g></svg>