<?xml version="1.0" encoding="UTF-8" standalone="no"?>
<svg width="120px" height="41px" viewBox="0 0 120 41" version="1.1" xmlns="http://www.w3.org/2000/svg" xmlns:xlink="http://www.w3.org/1999/xlink">
    <!-- Generator: Sketch 46.2 (44496) - http://www.bohemiancoding.com/sketch -->
    <title>icn-przelewy24</title>
    <desc>Created with Sketch.</desc>
    <defs></defs>
    <g id="Page-1" stroke="none" stroke-width="1" fill="none" fill-rule="evenodd">
        <g id="Payment-Icons" transform="translate(-467.000000, -377.000000)" fill-rule="nonzero">
            <g id="icn-przelewy24" transform="translate(467.000000, 377.000000)">
                <polygon id="Shape" fill="#D13239" points="25.1783133 23.8626506 35.0024096 23.8481928 34.6409639 26.0891566 26.4289157 33.9325301 33.3253012 33.9180723 32.9204819 36.3325301 22.7638554 36.339759 23.1903614 33.8457831 31.0698795 26.2987952 24.7807229 26.2987952"></polygon>
                <path d="M14.4578313,20.0385542 C14.2015459,19.8041905 13.8985033,19.6267997 13.5686747,19.5180723 C13.1986377,19.378574 12.8162017,19.2744933 12.426506,19.2072289 C11.9939843,19.1318023 11.5568287,19.0859131 11.1180723,19.0698795 L10.6048193,19.0698795 L3.10843373,19.0698795 L0.21686747,36.3686747 L2.89156627,36.3686747 L3.94698795,29.9638554 L9.1373494,29.9638554 C10.3254669,29.9984511 11.5062267,29.7662515 12.5927711,29.2843373 C13.5205103,28.7331472 14.1913676,27.8360707 14.4578313,26.7903614 C14.4578313,26.7903614 14.6168675,26.146988 14.746988,25.3445783 C14.8771084,24.5421687 15.0361446,23.4506024 15.1084337,22.9084337 L15.1590361,22.5180723 C15.1856706,22.3677766 15.1977747,22.215266 15.1951807,22.0626506 C15.2073725,21.5371226 15.0854658,21.0171535 14.8409639,20.5518072 C14.7359112,20.3649229 14.6071325,20.192408 14.4578313,20.0385542 L14.4578313,20.0385542 Z M12.3975904,23.0891566 C12.3975904,23.0891566 12.1590361,24.5349398 11.8481928,26.1542169 C11.7292636,26.7230534 11.266885,27.1565333 10.6915663,27.2385542 C10.0653463,27.3594331 9.42796108,27.4127505 8.79036145,27.3975904 L4.45301205,27.3975904 L5.40722892,21.6144578 L9.33253012,21.6144578 L9.9686747,21.6144578 C10.4518537,21.6160519 10.9345546,21.645014 11.4144578,21.7012048 C11.7043243,21.7048212 11.98641,21.7954916 12.2240964,21.9614458 C12.3442467,22.1260958 12.4145092,22.3218269 12.426506,22.5253012 C12.4299844,22.7148952 12.4105669,22.904216 12.3686747,23.0891566 L12.3975904,23.0891566 Z" id="Shape" fill="#D13239"></path>
                <polygon id="Shape" fill="#D13239" points="48.3253012 19.0409639 50.9060241 19.0409639 48.0216867 36.339759 45.4409639 36.3325301"></polygon>
                <polygon id="Shape" fill="#D13239" points="62.0746988 23.8626506 64.539759 23.8554217 65.4144578 32.6385542 69.2168675 23.8409639 72.2674699 23.8481928 73.1638554 32.6674699 76.9590361 23.8554217 79.5180723 23.8554217 74.0819277 36.3253012 71.0385542 36.3253012 70.1638554 27.5927711 66.3253012 36.3253012 63.3325301 36.339759"></polygon>
                <path d="M43.5686747,23.9638554 C42.5734074,23.7376261 41.5520208,23.6476468 40.5325301,23.6963855 C39.9027619,23.681462 39.2730888,23.7298984 38.653012,23.8409639 C37.5430754,24.0181504 36.5247917,24.5629322 35.7614458,25.3879518 C34.7277108,26.6674699 34.4168675,29.4722892 34.4168675,29.4722892 C34.4168675,29.4722892 33.8024096,32.5662651 33.9831325,33.6072289 C34.1638554,34.6481928 34.4891566,35.6024096 35.653012,36.0433735 C36.3444943,36.3143861 37.0790738,36.4588534 37.8216867,36.4698795 C39.0449077,36.5573061 40.274295,36.4868471 41.4795181,36.260241 C42.4134681,36.0471791 43.2545825,35.5404837 43.8795181,34.8144578 C44.125181,34.4891647 44.3382548,34.1404985 44.5156627,33.773494 C44.6722401,33.4501458 44.7934251,33.1108276 44.8771084,32.7614458 L45.0433735,32.0891566 L42.3975904,32.0891566 C42.3975904,32.0891566 42.253012,33.853012 40.8072289,34.0192771 C39.9803498,34.1249455 39.1454757,34.1539846 38.313253,34.1060241 C38.0385542,34.1060241 36.4915663,34.1638554 36.6144578,32.8698795 C36.6121018,32.8434258 36.6121018,32.8168151 36.6144578,32.7903614 C36.6082838,32.1525917 36.6934862,31.5172251 36.8674699,30.9036145 L45.253012,30.9036145 L45.6144578,28.8289157 C46.0192771,26.4578313 45.7228916,24.6650602 43.5686747,23.9638554 Z M43.0120482,28.5108434 L37.2289157,28.5108434 L37.453012,27.6 C37.5603747,27.2135916 37.767266,26.8621255 38.053012,26.5807229 C38.4691063,26.3195413 38.949702,26.1793676 39.4409639,26.1759036 C40.3701618,26.0758405 41.3085549,26.1001512 42.2313253,26.2481928 C42.5630225,26.2859402 42.8508741,26.4942899 42.9903614,26.7975904 C43.1114388,27.3615514 43.1188115,27.9439982 43.0120482,28.5108434 L43.0120482,28.5108434 Z" id="Shape" fill="#D13239"></path>
                <path d="M36.6361446,32.7831325 C36.6361446,32.7831325 36.6361446,32.8192771 36.6361446,32.8409639 C36.6361446,32.8626506 36.6361446,32.7759036 36.6361446,32.7831325 Z" id="Shape" fill="#D13239"></path>
                <path d="M52.453012,32.7903614 C52.453012,32.7903614 52.453012,32.826506 52.453012,32.8481928 C52.453012,32.8698795 52.453012,32.7831325 52.453012,32.7903614 Z" id="Shape" fill="#D13239"></path>
                <path d="M59.4,23.9710843 C58.4047327,23.744855 57.3833461,23.6548757 56.3638554,23.7036145 C55.7340872,23.6886909 55.1044141,23.7371273 54.4843373,23.8481928 C53.3744007,24.0253793 52.356117,24.5701611 51.5927711,25.3951807 C50.5590361,26.6746988 50.2481928,29.4795181 50.2481928,29.4795181 C50.2481928,29.4795181 49.6337349,32.573494 49.8144578,33.6144578 C49.9951807,34.6554217 50.3204819,35.6096386 51.4843373,36.0506024 C52.1758196,36.321615 52.9103991,36.4660823 53.653012,36.4771084 C54.876233,36.564535 56.1056203,36.4940761 57.3108434,36.2674699 C58.2447934,36.054408 59.0859078,35.5477126 59.7108434,34.8216867 C59.9565063,34.4963937 60.1695801,34.1477274 60.346988,33.7807229 C60.5035654,33.4573747 60.6247504,33.1180565 60.7084337,32.7686747 L60.8746988,32.0963855 L58.2216867,32.0963855 C58.2216867,32.0963855 58.0771084,33.860241 56.6313253,34.026506 C55.8042367,34.1293369 54.9698312,34.1607782 54.1373494,34.1204819 C53.8626506,34.1204819 52.3156627,34.1710843 52.4385542,32.8843373 C52.4361982,32.8578837 52.4361982,32.8312729 52.4385542,32.8048193 C52.428741,32.1801693 52.5066082,31.5572312 52.6698795,30.9542169 L61.0554217,30.9542169 L61.4168675,28.8795181 C61.8433735,26.4650602 61.546988,24.6650602 59.4,23.9710843 Z M58.8144578,28.5108434 L53.0313253,28.5108434 L53.2554217,27.6 C53.3627843,27.2135916 53.5696757,26.8621255 53.8554217,26.5807229 C54.2711984,26.3188351 54.7519997,26.1786014 55.2433735,26.1759036 C56.1725715,26.0758405 57.1109645,26.1001512 58.0337349,26.2481928 C58.3654322,26.2859402 58.6532837,26.4942899 58.7927711,26.7975904 C58.9138484,27.3615514 58.9212212,27.9439982 58.8144578,28.5108434 L58.8144578,28.5108434 Z" id="Shape" fill="#D13239"></path>
                <path d="M82.4891566,23.8554217 L84.1445783,32.9783133 L88.8072289,23.8554217 L91.4313253,23.8554217 L84.7012048,36.8674699 C84.7012048,36.8674699 83.4795181,39.2313253 82.7277108,39.8240964 C82.2257623,40.315862 81.5847557,40.6414126 80.8915663,40.7566265 C80.413249,40.8400523 79.9241004,40.8400523 79.4457831,40.7566265 L78.8168675,40.6409639 L79.2072289,38.313253 C79.7560134,38.4187014 80.3213314,38.4014209 80.8626506,38.2626506 C81.4843373,38.0168675 81.9831325,36.9614458 81.9831325,36.9614458 L82.2939759,36.4337349 L79.8578313,23.8554217 L82.4891566,23.8554217 Z" id="Shape" fill="#D13239"></path>
                <path d="M92.3855422,25.0987952 L95.0963855,25.0987952 L95.2626506,24.0506024 C95.2626506,24.0506024 95.5518072,22.1566265 96.1951807,21.7879518 C96.4858942,21.640588 96.7982516,21.5405361 97.1204819,21.4915663 C97.8956283,21.3773694 98.6800244,21.3386338 99.4626506,21.3759036 C100.363953,21.3897925 101.263942,21.4501134 102.159036,21.5566265 C102.451662,21.5744636 102.719847,21.7258255 102.886355,21.9671206 C103.052862,22.2084157 103.099209,22.5128585 103.012048,22.7927711 L102.787952,24.4481928 C102.731192,24.8646825 102.609216,25.2696398 102.426506,25.6481928 C102.116413,26.0433694 101.688496,26.3294909 101.204819,26.4650602 C100.315663,26.7542169 97.2578313,27.5349398 97.2578313,27.5349398 L94.8578313,28.2578313 C93.9902187,28.502048 93.1926267,28.9479069 92.5301205,29.5590361 C91.8980358,30.2667246 91.4597451,31.125874 91.2578313,32.053012 C91.1421687,32.5951807 90.5349398,36.3325301 90.5349398,36.3325301 L103.489157,36.3325301 L103.922892,33.7445783 L93.6795181,33.7445783 L93.860241,32.6891566 C93.860241,32.6891566 93.9831325,31.6048193 94.4168675,31.2433735 C94.7040449,30.9721504 95.0584086,30.7824909 95.4433735,30.6939759 C95.9349398,30.5204819 97.6120482,30.0722892 97.6120482,30.0722892 L101.472289,29.0168675 C101.472289,29.0168675 103.583133,28.4746988 104.414458,27.3180723 C104.996859,26.2855612 105.379441,25.1525322 105.542169,23.9783133 C105.655829,23.0452075 105.672787,22.1028559 105.592771,21.1662651 C105.344226,20.3659911 104.773037,19.7057176 104.016867,19.3445783 C103.243373,18.9975904 102.440964,18.7951807 100.106024,18.8313253 C97.7710843,18.8674699 96.6216867,18.9686747 95.4361446,19.4096386 C94.3497498,19.794178 93.501517,20.6584152 93.1373494,21.7518072 C92.7785077,22.8387137 92.5361833,23.9606757 92.4144578,25.0987952 L92.3855422,25.0987952 Z" id="Shape" fill="#B3B2B1"></path>
                <path d="M116.775904,29.913253 L118.590361,19.0337349 L115.373494,19.0337349 L105.361446,29.7903614 L104.906024,32.5301205 L113.66747,32.5301205 L113.024096,36.346988 L115.713253,36.346988 L116.385542,32.5301205 L118.86506,32.5301205 L119.313253,29.9204819 L116.775904,29.913253 Z M114.101205,29.913253 L108.433735,29.913253 L115.322892,22.5686747 L114.101205,29.913253 Z" id="Shape" fill="#B3B2B1"></path>
                <path d="M20.1036145,20.4650602 L28.3590361,20.4650602 C28.3590361,20.4650602 30.2096386,18.9686747 31.5180723,18.0072289 C32.826506,17.0457831 35.2192771,15.5349398 35.2192771,15.5349398 L30.5566265,13.3662651 C30.5566265,13.3662651 26.6168675,15.8024096 24.946988,16.9807229 C23.2771084,18.1590361 20.1108434,20.5084337 20.1108434,20.5084337 L20.1036145,20.4650602 Z" id="Shape" fill="#B3B2B1"></path>
                <path d="M37.8361446,13.9951807 L33.9759036,11.4144578 C36.5842774,9.98223289 39.2785553,8.71234926 42.0433735,7.61204819 C46.6771084,5.78313253 49.1566265,5.01686747 49.1566265,5.01686747 L49.8795181,8.6746988 C49.8795181,8.6746988 45.4843373,10.1204819 42.946988,11.3493976 C41.1879225,12.1198158 39.4807192,13.0036014 37.8361446,13.9951807 L37.8361446,13.9951807 Z" id="Shape" fill="#B3B2B1"></path>
                <path d="M52.7710843,7.86506024 L52.0481928,4.12771084 C52.0481928,4.12771084 56.7975904,2.89156627 61.1204819,2.06746988 C65.4433735,1.24337349 71.1831325,0.881927711 71.1831325,0.881927711 L69.2891566,6.66506024 C66.0419666,6.26600729 62.7590353,6.25144884 59.5084337,6.62168675 C57.2389534,6.89546572 54.9887894,7.31073204 52.7710843,7.86506024 L52.7710843,7.86506024 Z" id="Shape" fill="#B3B2B1"></path>
                <path d="M72.2891566,7.14216867 L75.4843373,0.722891566 C79.8353599,0.666769569 84.1845743,0.932554894 88.4963855,1.51807229 C92.3547278,2.0753744 96.172508,2.88432845 99.9253012,3.93975904 L84.6433735,11.9493976 C82.1219104,10.4395451 79.4341417,9.22665307 76.6337349,8.33493976 C74.1180723,7.61204819 72.2963855,7.17831325 72.2963855,7.17831325 L72.2891566,7.14216867 Z" id="Shape" fill="#B3B2B1"></path>
                <path d="M87.3831325,13.6915663 L90.7445783,16.2433735 L118.366265,16.2433735 C118.257881,15.4722999 117.986831,14.7330725 117.571084,14.0746988 C116.949827,13.1558164 116.221859,12.3137997 115.40241,11.5662651 C114.598013,10.8671063 113.747939,10.2223055 112.857831,9.63614458 C110.850868,8.33617248 108.731567,7.21845939 106.525301,6.29638554 L87.3831325,13.6915663 Z" id="Shape" fill="#B3B2B1"></path>
                <path d="M21.8963855,23.8554217 C20.8870798,23.9016358 19.9054147,24.1998632 19.0409639,24.7228916 L19.1855422,23.8554217 L16.4385542,23.8554217 L14.2698795,36.2746988 L17.0240964,36.2746988 L18.2457831,29.3927711 C18.4987952,27.9975904 19.539759,26.2698795 21.5783133,26.2698795 L23.0240964,26.2698795 L23.3927711,23.8554217 L21.8963855,23.8554217 Z" id="Shape" fill="#D13239"></path>
            </g>
        </g>
    </g>
</svg>