<?xml version="1.0" encoding="UTF-8" standalone="no"?>
<svg width="120px" height="66px" viewBox="0 0 120 66" version="1.1" xmlns="http://www.w3.org/2000/svg" xmlns:xlink="http://www.w3.org/1999/xlink">
    <!-- Generator: Sketch 46.2 (44496) - http://www.bohemiancoding.com/sketch -->
    <title>icn-sid</title>
    <desc>Created with Sketch.</desc>
    <defs></defs>
    <g id="Page-1" stroke="none" stroke-width="1" fill="none" fill-rule="evenodd">
        <g id="Payment-Icons" transform="translate(-469.000000, -231.000000)" fill-rule="nonzero">
            <g id="icn-sid" transform="translate(469.000000, 231.000000)">
                <g id="WK17BI.tif" fill="#040608">
                    <path d="M0.102564103,43.7948718 L11.9794872,42.4615385 C12.2051282,43.0564103 12.3794872,43.4153846 12.4923077,43.7948718 C15.2307692,53.0974359 21.7230769,56.1025641 33.3435897,52.6051282 C39.9794872,49.9487179 40.2358974,42.5846154 34.5538462,40.5025641 C30.5538462,39.0358974 26.3487179,38.0102564 22.2461538,36.7282051 C18.8937691,35.803757 15.5962198,34.690877 12.3692308,33.3948718 C5.54871795,30.3794872 1.67179487,24.2358974 2.11282051,17.4769231 C2.62564103,9.93846154 6.6974359,4.94358974 13.7230769,2.52307692 C21.2954271,-0.135362447 29.5577844,-0.070076042 37.0871795,2.70769231 C44.3589744,5.31282051 48.9333333,12 48.9846154,20.1435897 C45.0871795,20.2769231 36.174359,20.3076923 36.174359,20.3076923 C36.1674328,19.8600512 36.1019186,19.4152441 35.9794872,18.9846154 C34.1230769,13.7641026 31.0769231,11.8974359 25.8153846,11.5076923 C23.0653336,11.3925522 20.3202358,11.8320469 17.7435897,12.8 C15.3435897,13.7641026 14.0923077,15.5384615 14.2461538,16.974359 C14.4208678,18.9100517 15.5849863,20.6174254 17.3230769,21.4871795 C21.1487179,23.5384615 26.1846154,24.8102564 30.3589744,26.0820513 C33.3025641,26.974359 36.2974359,27.7538462 39.1384615,28.8923077 C47.1179487,32.0102564 50.9230769,37.825641 50.7692308,46.1538462 C50.7179908,53.7811138 45.8007009,60.5232923 38.5538462,62.9025641 C30.5314829,65.747781 21.7812302,65.7875549 13.7333333,63.0153846 C5.5961095,60.117502 0.146139699,52.4325935 0.102564103,43.7948718 Z" id="Shape"></path>
                </g>
                <circle id="Oval" fill="#FFC809" cx="60.5948718" cy="9.83589744" r="7.38461538"></circle>
                <polygon id="Shape" fill="#299CD0" points="66.2666667 53.7333333 66.2666667 42.5948718 54.3076923 42.5948718 54.3076923 64.1128205 58.6769231 64.1128205 66.2666667 64.1128205 73.6512821 64.1128205 73.6512821 53.7333333"></polygon>
                <path d="M95.6,19.9282051 L108.358974,19.9282051 C104.848681,9.78655992 95.29607,2.98444203 84.5641026,2.98461538 L75.3333333,2.98461538 L75.3333333,12.9025641 L84.8307692,12.9025641 C89.4920954,12.9151063 93.7103926,15.667043 95.6,19.9282051 Z" id="Shape" fill="#299CD0"></path>
                <path d="M96.6153846,42.8923077 C96.600663,48.7045573 91.964182,53.4501321 86.1538462,53.6 L80.7384615,53.7333333 L80.7384615,64.1128205 L85.5076923,64.1128205 C97.7265367,64.1101251 108.034203,55.0156422 109.558974,42.8923077 L96.6153846,42.8923077 Z" id="Shape" fill="#299CD0"></path>
                <rect id="Rectangle-path" fill="#040608" x="51.0358974" y="23.425641" width="68.8717949" height="14.7794872" rx="6.96"></rect>
                <polygon id="Shape" fill="#FFFFFF" points="58.4615385 34.1641026 58.4615385 27.6923077 59.774359 27.6923077 59.774359 34.2153846"></polygon>
                <path d="M65.9179487,34.1641026 L64.6153846,34.1641026 L64.6153846,31.7948718 C64.6356351,31.4508417 64.608021,31.1056658 64.5333333,30.7692308 C64.487009,30.6287398 64.397213,30.5066173 64.2769231,30.4205128 C64.1492608,30.3364823 63.9989399,30.2935335 63.8461538,30.2974359 C63.6381077,30.2949127 63.4342141,30.3557231 63.2615385,30.4717949 C63.0954441,30.5852592 62.9725595,30.7515149 62.9128205,30.9435897 C62.8337837,31.3002567 62.80274,31.6658826 62.8205128,32.0307692 L62.8205128,34.174359 L61.6102564,34.174359 L61.6102564,29.4564103 L62.7692308,29.4564103 L62.7692308,30.1538462 C63.2943824,29.4281032 64.2484263,29.1567307 65.0769231,29.4974359 C65.2810479,29.5767844 65.4612234,29.7075 65.6,29.8769231 C65.7182086,30.0318582 65.8021159,30.2101611 65.8461538,30.4 C65.9003818,30.6769273 65.9244539,30.9589138 65.9179487,31.2410256 L65.9179487,34.1641026 Z" id="Shape" fill="#FFFFFF"></path>
                <path d="M67.2923077,32.8205128 L68.5435897,32.625641 C68.5829815,32.8436609 68.6994732,33.0402406 68.8717949,33.1794872 C69.0739941,33.3156366 69.315768,33.3805908 69.5589744,33.3641026 C69.8138717,33.3823443 70.0681858,33.3214522 70.2871795,33.1897436 C70.3948234,33.1112843 70.4563485,32.9843888 70.4512821,32.8512821 C70.4533202,32.7634653 70.4200715,32.6784963 70.3589744,32.6153846 C70.2327294,32.5301342 70.0890798,32.4740758 69.9384615,32.4512821 C69.2724744,32.3466499 68.6259593,32.1426692 68.0205128,31.8461538 C67.6701099,31.6226234 67.4575445,31.236141 67.4564103,30.8205128 C67.4536594,30.4233118 67.6308916,30.0462221 67.9384615,29.7948718 C68.3751495,29.4801211 68.9096007,29.3310565 69.4461538,29.374359 C69.9453016,29.341395 70.4434789,29.4517057 70.8820513,29.6923077 C71.2035921,29.9146674 71.4332588,30.2464082 71.5282051,30.625641 L70.3589744,30.7692308 C70.3169735,30.5990671 70.2150083,30.4497609 70.0717949,30.3487179 C69.8898086,30.2393778 69.6783759,30.1892073 69.4666667,30.2051282 C69.2230579,30.1848673 68.9785085,30.2309418 68.7589744,30.3384615 C68.6692811,30.3926664 68.614733,30.4900737 68.6153846,30.5948718 C68.6169073,30.6857224 68.662902,30.7700459 68.7384615,30.8205128 C69.1113466,30.9871996 69.5044196,31.1044319 69.9076923,31.1692308 C70.4074247,31.2500994 70.8834706,31.4391176 71.3025641,31.7230769 C71.5685405,31.9580962 71.7121624,32.302033 71.6923077,32.6564103 C71.6916746,33.0925954 71.4913959,33.5044892 71.1487179,33.774359 C70.6862157,34.1202471 70.1144964,34.2877573 69.5384615,34.2461538 C69.0012216,34.275249 68.4679437,34.1392453 68.0102564,33.8564103 C67.6542511,33.6085876 67.3993886,33.2408574 67.2923077,32.8205128 L67.2923077,32.8205128 Z" id="Shape" fill="#FFFFFF"></path>
                <path d="M75.5076923,29.4461538 L75.5076923,30.4717949 L74.6564103,30.4717949 L74.6564103,32.3794872 C74.6402373,32.6048384 74.6402373,32.831059 74.6564103,33.0564103 C74.6746075,33.1194367 74.7145886,33.1739563 74.7692308,33.2102564 C74.8323043,33.2538977 74.9080066,33.2755269 74.9846154,33.2717949 C75.1576474,33.2579507 75.3273312,33.2163955 75.4871795,33.1487179 L75.5897436,34.1230769 C75.2647799,34.2565023 74.9151952,34.3194275 74.5641026,34.3076923 C74.356923,34.3104041 74.1512574,34.2720597 73.9589744,34.1948718 C73.8000934,34.1357374 73.6613457,34.032566 73.5589744,33.8974359 C73.4656025,33.7517807 73.4060258,33.5870685 73.3846154,33.4153846 C73.3631949,33.1217577 73.3631949,32.8269603 73.3846154,32.5333333 L73.3846154,30.4820513 L72.8205128,30.4820513 L72.8205128,29.4564103 L73.3948718,29.4564103 L73.3948718,28.5230769 L74.6461538,27.7948718 L74.6461538,29.4666667 L75.5076923,29.4461538 Z" id="Shape" fill="#FFFFFF"></path>
                <path d="M77.8564103,30.8820513 L76.7179487,30.6769231 C76.8080815,30.267969 77.0407559,29.9044152 77.374359,29.6512821 C77.7923489,29.4050257 78.2749233,29.2906377 78.7589744,29.3230769 C79.1817743,29.2995677 79.6047535,29.3659859 80,29.5179487 C80.239489,29.6209814 80.4404475,29.7968201 80.574359,30.0205128 C80.711175,30.3764114 80.7672258,30.7582576 80.7384615,31.1384615 L80.7384615,32.6153846 C80.7307243,32.9243109 80.7513233,33.2332961 80.8,33.5384615 C80.8480917,33.759096 80.9239075,33.9727587 81.025641,34.174359 L79.7846154,34.174359 C79.7846154,34.0923077 79.7435897,33.9692308 79.6615385,33.8051282 L79.6615385,33.6615385 C79.4637664,33.8601148 79.2307311,34.0201092 78.974359,34.1333333 C78.7277663,34.2373211 78.4624819,34.2896799 78.1948718,34.2871795 C77.774396,34.3091574 77.3620376,34.1655683 77.0461538,33.8871795 C76.7614428,33.6241434 76.6075248,33.2487337 76.625641,32.8615385 C76.6217301,32.6086509 76.6892768,32.3597946 76.8205128,32.1435897 C76.9473107,31.9341964 77.132743,31.7665941 77.3538462,31.6615385 C77.6820988,31.5225166 78.0267703,31.4260086 78.3794872,31.374359 C78.7914895,31.3091324 79.1966161,31.2061342 79.5897436,31.0666667 L79.5897436,30.9435897 C79.6095334,30.7553635 79.5458041,30.5679243 79.4153846,30.4307692 C79.2173216,30.3046936 78.9819988,30.2503884 78.7487179,30.2769231 C78.5647749,30.2662974 78.3820525,30.3128737 78.225641,30.4102564 C78.0529914,30.5215039 77.9229047,30.6877258 77.8564103,30.8820513 Z M79.5282051,31.9076923 C79.278636,31.9853161 79.0253254,32.0503553 78.7692308,32.1025641 C78.5337495,32.1386667 78.3053545,32.2113378 78.0923077,32.3179487 C77.9400164,32.4129808 77.8470938,32.5794671 77.8461538,32.7589744 C77.845603,32.9299405 77.9162007,33.0934298 78.0410256,33.2102564 C78.1750167,33.3409465 78.35652,33.4113254 78.5435897,33.4051282 C78.7777803,33.4021783 79.0046254,33.3229625 79.1897436,33.1794872 C79.3318127,33.0796773 79.4364919,32.9352922 79.4871795,32.7692308 C79.5119632,32.5682827 79.5119632,32.3650507 79.4871795,32.1641026 L79.5282051,31.9076923 Z" id="Shape" fill="#FFFFFF"></path>
                <path d="M86.8307692,34.1641026 L85.5794872,34.1641026 L85.5794872,31.7948718 C85.5997377,31.4508417 85.5721236,31.1056658 85.4974359,30.7692308 C85.4511116,30.6287398 85.3613156,30.5066173 85.2410256,30.4205128 C85.1133633,30.3364823 84.9630424,30.2935335 84.8102564,30.2974359 C84.6022103,30.2949127 84.3983167,30.3557231 84.225641,30.4717949 C84.0595467,30.5852592 83.936662,30.7515149 83.8769231,30.9435897 C83.7978863,31.3002567 83.7668426,31.6658826 83.7846154,32.0307692 L83.7846154,34.174359 L82.5333333,34.174359 L82.5333333,29.4564103 L83.6923077,29.4564103 L83.6923077,30.1538462 C84.2174593,29.4281032 85.1715032,29.1567307 86,29.4974359 C86.2041248,29.5767844 86.3843004,29.7075 86.5230769,29.8769231 C86.6412856,30.0318582 86.7251928,30.2101611 86.7692308,30.4 C86.8234588,30.6769273 86.8475308,30.9589138 86.8410256,31.2410256 L86.8307692,34.1641026 Z" id="Shape" fill="#FFFFFF"></path>
                <path d="M90.8102564,29.4461538 L90.8102564,30.4717949 L89.9589744,30.4717949 L89.9589744,32.3794872 C89.9428014,32.6048384 89.9428014,32.831059 89.9589744,33.0564103 C89.9771716,33.1194367 90.0171527,33.1739563 90.0717949,33.2102564 C90.1348684,33.2538977 90.2105707,33.2755269 90.2871795,33.2717949 C90.4602115,33.2579507 90.6298953,33.2163955 90.7897436,33.1487179 L90.8923077,34.1230769 C90.567344,34.2565023 90.2177593,34.3194275 89.8666667,34.3076923 C89.6594871,34.3104041 89.4538215,34.2720597 89.2615385,34.1948718 C89.1026575,34.1357374 88.9639098,34.032566 88.8615385,33.8974359 C88.7681666,33.7517807 88.7085899,33.5870685 88.6871795,33.4153846 C88.665759,33.1217577 88.665759,32.8269603 88.6871795,32.5333333 L88.6871795,30.4820513 L88.1128205,30.4820513 L88.1128205,29.4564103 L88.6871795,29.4564103 L88.6871795,28.5230769 L89.9384615,27.7948718 L89.9384615,29.4666667 L90.8102564,29.4461538 Z" id="Shape" fill="#FFFFFF"></path>
                <polygon id="Shape" fill="#FFFFFF" points="95.3025641 34.1641026 95.3025641 27.6923077 100.133333 27.6923077 100.133333 28.7179487 96.6153846 28.7179487 96.6153846 30.1641026 99.8871795 30.1641026 99.8871795 31.2615385 96.6153846 31.2615385 96.6153846 33.0358974 100.25641 33.0358974 100.25641 34.1333333"></polygon>
                <polygon id="Shape" fill="#FFFFFF" points="101.938462 34.1641026 101.938462 27.6923077 106.410256 27.6923077 106.410256 28.7179487 103.261538 28.7179487 103.261538 30.2564103 105.979487 30.2564103 105.979487 31.3641026 103.261538 31.3641026 103.261538 34.1333333"></polygon>
                <polygon id="Shape" fill="#FFFFFF" points="109.507692 34.1641026 109.507692 28.7179487 107.569231 28.7179487 107.569231 27.6923077 112.748718 27.6923077 112.748718 28.7179487 110.820513 28.7179487 110.820513 34.1333333"></polygon>
            </g>
        </g>
    </g>
</svg>