<?xml version="1.0" encoding="UTF-8" standalone="no"?>
<svg width="120px" height="41px" viewBox="0 0 120 41" version="1.1" xmlns="http://www.w3.org/2000/svg" xmlns:xlink="http://www.w3.org/1999/xlink">
    <!-- Generator: Sketch 46.2 (44496) - http://www.bohemiancoding.com/sketch -->
    <title>icn-skrill</title>
    <desc>Created with Sketch.</desc>
    <defs></defs>
    <g id="Page-1" stroke="none" stroke-width="1" fill="none" fill-rule="evenodd">
        <g id="Payment-Icons" transform="translate(-266.000000, -1220.000000)" fill="#862165">
            <g id="icn-skrill" transform="translate(266.000000, 1220.000000)">
                <path d="M86.1958362,31.1392628 C88.9169885,31.1392628 91.1213327,33.3429039 91.1213327,36.0612435 C91.1213327,38.7802863 88.9169885,40.9860368 86.1958362,40.9860368 C83.479606,40.9860368 81.2752618,38.7802863 81.2752618,36.0612435 C81.2752618,33.3429039 83.479606,31.1392628 86.1958362,31.1392628 L86.1958362,31.1392628 Z M48.4737758,28.4820963 C48.2508804,27.9230999 46.6519398,23.4047216 42.7825598,18.7218085 L42.7825598,38.7451293 L32.4745258,36.7081324 L32.4745258,0.412040102 L42.7825598,0.412040102 L42.7825598,11.6313436 C45.7687958,7.15445058 47.2425775,0.412040102 47.2425775,0.412040102 L59.5897177,0.412040102 C58.3683634,5.48941481 53.0259049,14.8517253 53.0259049,14.8517253 C57.8206172,20.9303716 59.9265219,27.4076982 60.2612165,28.4820963 L48.4737758,28.4820963 L48.4737758,28.4820963 Z M75.5727955,28.8603857 C66.3405659,28.5636605 61.6527308,24.4214622 61.6527308,16.1869884 L61.6527308,0.412040102 L71.7266191,0.412040102 L71.7266191,13.2766915 C71.7266191,18.2064068 72.3721017,20.3207491 78.2222274,20.5218471 L78.2222274,28.7155388 C77.2378313,28.9250746 75.5727955,28.8603857 75.5727955,28.8603857 L75.5727955,28.8603857 Z M15.1871232,24.4847448 C13.9242835,24.5670122 11.0013301,24.7561569 11.0013301,27.3880103 C11.0013301,30.563391 15.2096236,30.563391 16.7881732,30.563391 C19.5634672,30.563391 23.1579194,29.7442328 25.7250839,28.9757006 C25.7250839,28.9757006 27.1573803,28.4708461 28.3759221,27.9540381 L28.4891277,27.9230999 L28.4891277,28.0384149 L28.4891277,36.6202399 L28.3337337,36.665944 C25.303903,37.7255761 21.7811711,38.7451293 15.2504058,38.7451293 C3.98961696,38.7451293 0,32.1855352 0,26.5660395 C0,23.326673 1.38799857,15.7018217 14.2849944,14.8221934 C15.3776741,14.7553951 18.2788302,14.5880478 18.2788302,11.869005 C18.2788302,9.6231755 15.9036229,8.29986582 11.909084,8.29986582 C7.53133368,8.29986582 3.28296116,9.41574917 0.703843247,10.4746782 L0.703843247,1.51807949 C4.56619185,0.506260877 8.91862911,3.55271368e-15 14.0213169,3.55271368e-15 C25.0317878,3.55271368e-15 29.9629094,6.20661772 29.9629094,12.3576874 C29.9629094,19.3321341 24.4446658,23.8645752 15.1871232,24.4847448 L15.1871232,24.4847448 Z M81.2028383,0.412040102 L91.1937561,0.412040102 L91.1937561,28.4497519 L81.2028383,28.4497519 L81.2028383,0.412040102 L81.2028383,0.412040102 Z M110.006973,36.9584503 L110.006973,0.412040102 L120,0.412040102 L120,38.7451293 L110.006973,36.9584503 L110.006973,36.9584503 Z M95.4266596,36.9584503 L105.40914,38.7451293 L105.40914,0.412040102 L95.4266596,0.412040102 L95.4266596,36.9584503 L95.4266596,36.9584503 Z" id="path3005" transform="translate(60.000000, 20.493018) scale(1, -1) translate(-60.000000, -20.493018) "></path>
            </g>
        </g>
    </g>
</svg>