<svg width="100" height="31" viewBox="0 0 100 31" xmlns="http://www.w3.org/2000/svg"><title>skrill1tap</title><g fill="none"><path fill="#862165" d="M0.017 0H99.96499999999999V31H0.017z"/><g transform="translate(4.003 7.105)" fill="#FFF"><path d="M35.3176675 1.55584566L39.0078329 0.872352771 39.0078329 15.5224833 35.3176675 15.5224833z"/><path d="M40.7136641 1.55584566L40.7136641 15.5224833 44.4125326 15.5224833 44.4125326 0.872352771z"/><path d="M30.052 4.802H33.751V15.522H30.052z"/><path d="M5.622 6.322c-.47-.027-1.549-.108-1.549-1.106 0-1.214 1.558-1.214 2.141-1.214 1.027 0 2.359.315 3.307.612 0 0 .531.188.984.386l.043.01V1.681l-.06-.018C9.364 1.259 8.058.872 5.647.872 1.48.872.008 3.382.008 5.531c0 1.241.514 4.155 5.284 4.488.4.027 1.48.09 1.48 1.133 0 .854-.88 1.367-2.36 1.367-1.618 0-3.194-.423-4.142-.828v3.427c1.427.386 3.037.584 4.926.584 4.073 0 5.9-2.374 5.9-4.721-.008-2.69-2.045-4.425-5.474-4.659zm22.35-1.672c-3.412.116-5.152 1.7-5.152 4.847v6.034h3.725v-4.919c0-1.888.235-2.698 2.402-2.77v-3.13c-.366-.09-.975-.062-.975-.062zm-10.035.143c-.087.216-.67 1.943-2.106 3.733V.872l-3.812.783V15.53h3.812v-4.29c1.105 1.71 1.654 4.29 1.654 4.29h4.569c-.453-1.942-2.428-5.521-2.428-5.521 1.775-2.32 2.55-4.803 2.672-5.208h-4.36v-.009zm13.96-1.016c1.01 0 1.82-.845 1.82-1.88 0-1.034-.819-1.879-1.82-1.879-1 0-1.819.845-1.819 1.88 0 1.034.818 1.88 1.82 1.88z"/><g transform="translate(50.218 4.856)"><path d="M2.39338555 10.6570931L2.39338555 2.53611836 0.356832028 3.3635045 0.0696257615 1.33101247 2.68059182 0.0809399478 4.93472585 0.0809399478 4.93472585 10.6480998 2.39338555 10.6480998z"/><path d="M6.08355091 7.30258196L6.08355091 5.09921671 10.1305483 5.09921671 10.1305483 7.30258196z"/><path d="M15.2306353 2.31128518L15.2306353 10.6570931 12.6805918 10.6570931 12.6805918 2.31128518 9.79112272 2.31128518 9.79112272 0.0899332753 17.8851175 0.0899332753 18.2419495 2.31128518z"/><path d="M21.514 10.657l-.148-.935c-.591.647-1.288 1.088-2.28 1.088-1.157 0-1.975-.72-1.975-2.086 0-1.763 1.305-2.59 4.151-2.851v-.135c0-.657-.357-.954-1.097-.954-.818 0-1.575.216-2.34.567l-.27-1.745a7.337 7.337 0 0 1 2.95-.584c2.002 0 2.994.692 2.994 2.608v5.027h-1.985zm-.252-3.66c-1.523.243-1.94.764-1.94 1.42 0 .477.278.738.713.738.418 0 .827-.198 1.227-.566V6.997zm7.11 3.741a4.653 4.653 0 0 1-1.531-.26v2.68l-2.237.35V3.157h1.967l.148.98c.505-.567 1.157-1.133 2.089-1.133 1.497 0 2.628 1.169 2.628 3.705.009 2.85-1.462 4.029-3.064 4.029zm-.278-5.675c-.487 0-.862.306-1.245.765v2.85c.314.153.575.234 1.027.234.758 0 1.323-.593 1.323-2.05-.008-1.26-.47-1.799-1.105-1.799zm6.762-3.83v4.136h-1.375V1.232H31.95V.09h4.36l.165 1.151h-1.619v-.009zm6.772 4.145l-.21-3.31-.948 3.337h-1.28l-.948-3.337-.226 3.31h-1.219L37.18.09h1.776l.992 3.444L40.94.09h1.706l.383 5.288h-1.401z"/></g></g></g></svg>