<?xml version="1.0" encoding="iso-8859-1"?>
<!-- Generator: Adobe Illustrator 19.0.0, SVG Export Plug-In . SVG Version: 6.00 Build 0)  -->
<svg version="1.1" xmlns="http://www.w3.org/2000/svg" xmlns:xlink="http://www.w3.org/1999/xlink" x="2000px" y="0px"
	 viewBox="0 0 2000 363.444" style="enable-background:new 0 0 2000 363.444;" xml:space="preserve">
<g id="sofort">
	<path id="sofort-txt" style="fill:#EC7F31;" d="M1649.965,4.94c7.057,5.646,12.703,11.997,17.643,19.054
		c12.703,18.349,17.643,40.226,14.82,64.926h64.926l-97.389,268.172h97.389l97.389-268.172h124.912L2000,5.646L1649.965,4.94
		L1649.965,4.94z M1645.025,39.52c-16.231-23.289-48.694-34.58-99.506-34.58h-118.56l-127.735,351.447h108.68l46.577-123.5
		c2.117,4.94,29.64,123.5,29.64,123.5h114.326c0,0-20.466-87.509-35.992-122.089c-4.234-9.174-7.763-19.054-13.409-27.523
		c32.463-11.997,79.04-37.403,98.094-89.626C1659.139,84.686,1658.433,58.574,1645.025,39.52z M1550.459,117.149
		c-10.586,28.229-28.934,45.166-64.926,45.166l0,0h-18.349l31.757-84.686h17.643C1549.753,77.629,1561.75,87.509,1550.459,117.149z
		 M553.282,4.94H351.447c-31.757,0-62.809,0-90.332,14.114s-52.223,42.343-70.572,98.095c-4.234,11.997-6.351,22.583-6.351,31.757
		c0,9.174,1.411,16.937,4.94,23.289c4.234,8.469,11.291,15.526,19.76,22.583c8.469,6.351,19.054,11.997,29.64,14.82
		c0.706,0,6.351,2.117,13.409,3.529c7.057,2.117,15.526,4.234,20.466,6.351c2.823,0.706,6.351,2.117,9.174,4.234
		c2.823,2.117,5.646,4.234,7.763,7.763c1.411,2.117,1.411,4.94,2.117,7.057c0,2.823-0.706,5.646-1.411,8.469
		c-2.823,7.763-6.351,12.703-14.114,15.526c-7.763,2.823-18.349,4.234-35.286,4.234H32.463L0,356.387h222.301
		c21.171,0,59.28,0,95.977-15.526c36.697-15.526,71.983-46.577,86.803-109.386c5.646-23.289,3.529-42.343-5.646-57.163
		c-9.174-14.82-26.112-26.112-50.106-33.169c0,0-5.646-1.411-11.997-3.529c-6.351-2.117-13.409-4.234-17.643-4.94
		c-6.351-2.117-11.291-5.646-14.114-9.88c-2.823-4.234-3.529-9.88-2.117-15.526c1.411-5.646,5.646-10.586,11.291-14.114
		s13.409-4.94,22.583-4.94h129.146c0.706-1.411,1.411-2.823,2.823-4.234C493.296,50.812,521.524,23.994,553.282,4.94z
		 M750.882,38.109C733.239,12.703,703.599,0,661.256,0c-27.523,0-53.634,6.351-79.04,18.349
		c-35.286,16.937-67.749,45.166-94.566,82.569c-16.937,23.994-31.757,52.223-43.049,83.98
		c-21.877,59.28-21.172,107.269,0.706,139.026c12.703,17.643,38.814,39.52,91.743,39.52l0,0
		c96.683,0,168.666-63.514,214.538-188.426C764.291,141.143,779.817,79.746,750.882,38.109z M647.848,179.252
		c-30.346,82.569-52.223,103.035-85.392,103.035l0,0c-31.757,0-43.049-20.466-13.409-102.329
		c21.877-61.397,51.517-100.212,86.803-100.212l0,0C669.019,79.746,676.782,98.8,647.848,179.252z M1136.909,4.94H931.545
		c-57.163,0-100.212,28.934-120.677,83.275l-97.389,268.172h106.563l50.106-137.615h94.566l26.817-74.1h-93.86l14.82-43.049
		c2.823-7.763,10.586-13.409,21.877-13.409c6.351,0,75.512,0,111.503,0c0.706-1.411,1.411-2.823,2.823-4.234
		C1071.277,50.812,1105.857,23.994,1136.909,4.94z M1333.804,38.109C1316.161,12.703,1286.521,0,1244.178,0
		c-27.523,0-53.634,6.351-79.04,18.349c-35.286,16.937-67.749,45.166-94.566,82.569c-16.937,23.994-31.757,52.223-43.049,83.98
		c-21.877,59.28-21.172,107.269,0.706,139.026c12.703,17.643,38.814,39.52,91.743,39.52l0,0
		c96.683,0,168.666-63.514,214.538-188.426C1346.507,141.143,1362.738,79.746,1333.804,38.109z M1230.063,179.252
		c-30.346,82.569-52.223,103.035-84.686,103.035l0,0c-31.757,0-43.049-20.466-13.409-102.329
		c22.583-61.397,51.517-100.212,86.803-100.212l0,0C1251.235,79.746,1259.704,98.8,1230.063,179.252z"/>
</g>
<g id="&#x421;&#x43B;&#x43E;&#x439;_1">
</g><a href="http://www.slotsup.com/casino-deposit-methods" target="_blank"></a>
</svg>
