<?xml version="1.0" encoding="UTF-8" standalone="no"?>
<svg xmlns="http://www.w3.org/2000/svg" viewBox="0 0 217 269.5"><path fill="#CB2686" d="M201.7 0c5.6 1 15.3 7.6 15.3 13.3v243c0 5.6-7.6 13.3-13.3 13.3H13.3c-6.1 0-13.3-7-13.3-13.3v-241C0 9.7 8.7 1 14.3 0h187.4z"/><path fill="#FFF" d="M133.7 99.8c14.5 22.3 8.2 52.1-14.1 66.6s-52.1 8.2-66.6-14.1l13.8-9.3c9.4 14.5 28.8 18.6 43.3 9.1 14.5-9.4 18.6-28.8 9.1-43.3l14.5-9z"/><path d="M166 79.4c-14.5-22.3-44.4-28.5-66.7-14-22.3 14.5-28.5 44.4-14 66.6l14.1-8.9c-9.4-14.5-5.4-33.8 9.1-43.3 14.5-9.4 33.8-5.4 43.3 9.1l14.2-9.5z"/><path fill="#FFF" d="M17 114c0-50.5 41-91.5 91.5-91.5S200 63.5 200 114s-41 91.5-91.5 91.5S17 164.5 17 114zm91.5 85c47 0 85.1-38.1 85.1-85.1s-38.1-85.1-85.1-85.1c-47 0-85.1 38.1-85.1 85.1.1 47.1 38.1 85.1 85.1 85.1z"/><g fill="#FFF"><path d="M119 224.9h5.9l-4.8 21.7h15.7l-1.1 4.9h-21.6l5.9-26.6zM53.1 243.4c1.2 2.2 6 5 10.7 4.9 5-.2 6.8-1.6 7.1-4 .1-.9.5-3.1-3.6-3.6l-6.7-.7c-7.1-1-8.3-3.8-8.1-7.4.2-4.9 6.3-8.6 12.9-8.7 5.8-.1 10.7 1.2 13 4.3l-4.1 2.5c-3.4-2.7-6.4-2.9-10-2.6-2.5.2-5.9 1.2-6.4 3.6-.4 1.7-.3 2.8 3.3 3.2l8.5 1.1c3.9.4 7.2 4.1 6.9 7.3-.5 4.6-4.5 10.1-14.1 9.6-7.4-.4-11.7-3.2-13.6-6.8l4.2-2.7zM81.5 238.1c1.1-8 8.6-14.5 16.6-14.5 8 0 13.6 6.5 12.4 14.5-1.1 8-8.6 14.5-16.6 14.5-8-.1-13.6-6.5-12.4-14.5zm13.1 9.4c5.2 0 10-4.2 10.8-9.4.7-5.2-2.9-9.4-8.1-9.4s-10 4.2-10.8 9.4c-.7 5.2 2.9 9.4 8.1 9.4zM139.2 238.1c1.1-8 8.6-14.5 16.6-14.5 8 0 13.6 6.5 12.4 14.5-1.1 8-8.6 14.5-16.6 14.5-7.9-.1-13.5-6.5-12.4-14.5zm13.2 9.4c5.2 0 10-4.2 10.8-9.4.7-5.2-2.9-9.4-8.1-9.4-5.2 0-10 4.2-10.8 9.4-.7 5.2 2.9 9.4 8.1 9.4z"/></g></svg>