<?xml version="1.0" encoding="UTF-8" standalone="no"?>
<svg width="67px" height="83px" viewBox="0 0 67 83" version="1.1" xmlns="http://www.w3.org/2000/svg" xmlns:xlink="http://www.w3.org/1999/xlink">
    <!-- Generator: Sketch 46.2 (44496) - http://www.bohemiancoding.com/sketch -->
    <title>icn-switch</title>
    <desc>Created with Sketch.</desc>
    <defs></defs>
    <g id="Page-1" stroke="none" stroke-width="1" fill="none" fill-rule="evenodd">
        <g id="Payment-Icons" transform="translate(-292.000000, -898.000000)">
            <g id="icn-switch" transform="translate(291.595238, 897.000000)">
                <path d="M0.96324854,34.4846968 C0.96324854,16.5158886 15.799515,1.94663417 34.1036609,1.94663417 C52.4059443,1.94663417 67.2440732,16.5158886 67.2440732,34.4846968 C67.2440732,52.4571623 52.4059443,67.0227594 34.1036609,67.0227594 C15.799515,67.0227594 0.96324854,52.4571623 0.96324854,34.4846968 L0.96324854,34.4846968 Z M34.1036609,64.7478563 C51.1245796,64.7478563 64.9215997,51.1971879 64.9215997,34.4846968 C64.9215997,17.7722057 51.1245796,4.22519462 34.1036609,4.22519462 C17.0808797,4.22519462 3.28385963,17.7722057 3.28385963,34.4846968 C3.28385963,51.1971879 17.0808797,64.7478563 34.1036609,64.7478563 L34.1036609,64.7478563 Z" id="Fill-3" fill="#129566"></path>
                <path d="M43.2408342,27.6451285 C48.5041143,35.4727155 46.2188897,45.9522227 38.1433121,51.0466532 C30.0677345,56.1446942 19.2580822,53.9350617 13.9985271,46.1074747 L19.0103765,42.8417678 C22.4279699,47.9235615 29.4475391,49.36235 34.6921947,46.0515117 C39.9349878,42.7406735 41.4193594,35.9348609 38.0036285,30.8548724 L43.2408342,27.6451285" id="Fill-1" fill="#129566"></path>
                <path d="M54.9128003,20.4638228 C49.6420704,12.6398462 38.8268308,10.4428505 30.7605654,15.5481126 C22.6905752,20.6569851 20.4221127,31.1401028 25.6928425,38.9604688 L30.7940895,35.8265456 C27.3746337,30.7483624 28.8478306,23.9443551 34.0868988,20.6262958 C39.325967,17.3082365 46.3455362,18.739804 49.7724419,23.8161819 L54.9128003,20.4638228" id="Fill-2" fill="#000000"></path>
                <polyline id="h-2" fill="#129566" points="52.7582332 73.8125166 54.401664 73.8125166 53.7160031 77.7768553 58.178524 77.7768553 58.8641849 73.8125166 60.507279 73.8125166 58.8584599 83.3492465 57.2153658 83.3492465 57.9101195 79.3302616 53.4475985 79.3302616 52.7528449 83.3492465 51.1097508 83.3492465 52.7582332 73.8125166"></polyline>
                <path d="M41.60834,78.7715703 L41.6130548,78.7444382 C42.0818367,76.0331424 44.4563922,73.8125166 47.288953,73.8125166 C49.0125348,73.8125166 49.9484148,74.425472 50.6930102,75.2975195 L49.4230558,76.5371874 C48.7973397,75.8286966 48.0783387,75.3521658 47.0094351,75.3521658 C45.2323071,75.3521658 43.6639757,76.8505437 43.3413513,78.7173062 L43.3366366,78.7444382 C43.0140122,80.6108186 44.0485654,82.1233357 45.8388274,82.1233357 C46.9878819,82.1233357 47.802862,81.6597977 48.7363846,80.8970428 L49.603227,81.9869111 C48.4491209,83.0221331 47.2670631,83.6763598 45.5168766,83.6763598 C42.7914082,83.6763598 41.1348434,81.5099982 41.60834,78.7715703" id="c-3" fill="#129566"></path>
                <polyline id="t-3" fill="#129566" points="37.3077311 75.3655408 34.3414732 75.3655408 34.6102145 73.8125166 42.1989585 73.8125166 41.9305539 75.3655408 38.964296 75.3655408 37.5842182 83.3492465 35.9276534 83.3492465 37.3077311 75.3655408"></polyline>
                <polyline id="i-2" fill="#129566" points="31.1990191 73.8125166 32.8424499 73.8125166 31.1939676 83.3492465 29.5505367 83.3492465 31.1990191 73.8125166"></polyline>
                <polyline id="w-2" fill="#129566" points="15.1777273 73.8396487 16.9548553 73.8396487 17.9638141 80.9104177 21.4887712 73.8125166 22.8779417 73.8125166 23.9492027 80.9104177 27.4027648 73.8396487 29.1263466 73.8396487 24.2192911 83.4443998 22.7897083 83.4443998 21.6763513 76.5914515 18.1934903 83.4443998 16.7773782 83.4443998 15.1777273 73.8396487"></polyline>
                <path d="M5.59585439,82.0962036 L6.79171974,80.8970428 C7.55012266,81.687312 8.38093084,82.1370928 9.52998535,82.1370928 C10.5453427,82.1370928 11.2714159,81.6464228 11.3936629,80.937932 L11.3987144,80.9107999 C11.5162466,80.2294411 11.2060828,79.8614386 9.53975164,79.4529291 C7.63364128,78.962259 6.61525299,78.3630608 6.91901828,76.6055908 L6.92373304,76.5784587 C7.20628191,74.9432741 8.73790557,73.8125166 10.5948477,73.8125166 C11.9577503,73.8125166 12.9667091,74.2347833 13.7813524,75.0116775 L12.6804557,76.2784774 C11.9493311,75.63839 11.1666808,75.2975195 10.3116253,75.2975195 C9.34947738,75.2975195 8.70119779,75.8015645 8.59309507,76.4286591 L8.5883803,76.4554091 C8.46108177,77.1914141 8.83220078,77.5185275 10.5601605,77.9541691 C12.4528002,78.4448391 13.3435532,79.1667049 13.0704338,80.7472432 L13.0653823,80.7743753 C12.7569022,82.5593595 11.1973268,83.6217136 9.2332922,83.6217136 C7.80370943,83.6217136 6.54150066,83.1176686 5.59585439,82.0962036" id="s-3" fill="#129566"></path>
            </g>
        </g>
    </g>
</svg>