<?xml version="1.0" encoding="UTF-8" standalone="no"?>
<svg width="120px" height="38px" viewBox="0 0 120 38" version="1.1" xmlns="http://www.w3.org/2000/svg" xmlns:xlink="http://www.w3.org/1999/xlink">
    <!-- Generator: Sketch 46.2 (44496) - http://www.bohemiancoding.com/sketch -->
    <title>icn-trustly</title>
    <desc>Created with Sketch.</desc>
    <defs></defs>
    <g id="Page-1" stroke="none" stroke-width="1" fill="none" fill-rule="evenodd">
        <g id="Payment-Icons" transform="translate(-6.000000, -138.000000)" fill-rule="nonzero">
            <g id="icn-trustly" transform="translate(6.000000, 138.000000)">
                <path d="M29.0775,12 L25.095,12 L25.095,9.39 C25.095,6.17460966 23.3796097,3.20346644 20.595,1.59577125 C17.8103903,-0.0119239302 14.3796097,-0.0119239302 11.595,1.59577125 C8.81039025,3.20346644 7.09499995,6.17460966 7.095,9.39 L7.095,9.4725 L7.095,9.4725 L7.095,12 L3.12,12 C1.7925,12 0.495,12.6525 0.7725,14.175 L3.75,27.39 C3.95984992,28.5387049 4.99155925,29.351859 6.1575,29.2875 L26.07,29.2875 C27.2453412,29.3671454 28.2923318,28.5495879 28.5,27.39 L31.425,14.145 C31.71,12.615 30.405,12 29.0775,12 Z M19.9875,17.535 C19.9875,17.7075 19.9875,17.8575 19.6425,17.8575 L17.8275,17.8575 C17.625,17.8575 17.5425,17.8575 17.5425,18.0975 L17.5425,24.36 C17.5425,24.6825 17.355,24.7725 16.9125,24.7725 L15.12,24.7725 C14.625,24.7725 14.49,24.72 14.49,24.36 L14.49,18.0975 C14.49,17.895 14.4,17.8575 14.205,17.8575 L12.525,17.8575 C12.18,17.8575 12.18,17.7075 12.18,17.535 L12.18,15.9975 C12.18,15.6975 12.405,15.66 12.75,15.66 L19.4175,15.66 C19.7625,15.66 19.9875,15.66 19.9875,15.9975 L19.9875,17.535 Z M21.9,12 L10.3125,12 L10.3125,9.2025 L10.3125,9.2025 L10.3125,9.1275 C10.3125,5.9297713 12.9047713,3.3375 16.1025,3.3375 C19.3002287,3.3375 21.8925,5.9297713 21.8925,9.1275 L21.8925,9.2025 L21.8925,9.2025 L21.9,12 Z" id="Shape" fill="#69D720"></path>
                <path d="M13.6275,33.555 C13.6305349,34.9965754 12.7644865,36.2978922 11.4335146,36.8516634 C10.1025427,37.4054346 8.56901937,37.1024962 7.54859583,36.084221 C6.52817228,35.0659457 6.22200275,33.5330642 6.77296772,32.2009282 C7.32393269,30.8687922 8.62342143,30.0000032 10.065,30 C11.0111346,29.9999979 11.9184089,30.376361 12.5867233,31.0460823 C13.2550376,31.7158037 13.6294919,32.6238675 13.6275,33.57" id="Shape" fill="#69D720"></path>
                <path d="M25.71,33.555 C25.7130331,34.9972573 24.8461716,36.2990476 23.5142778,36.8523776 C22.182384,37.4057076 20.6482721,37.1013922 19.62844,36.08156 C18.6086078,35.0617279 18.3042924,33.527616 18.8576224,32.1957222 C19.4109524,30.8638284 20.7127427,29.9969669 22.155,30 C24.123727,30.004136 25.7175043,31.6012687 25.7175,33.57" id="Shape" fill="#69D720"></path>
                <path d="M49.9125,16.1625 L46.5,16.1625 C46.125,16.1625 45.96,16.23 45.96,16.6125 L45.96,28.5 C45.96,29.115 45.6075,29.25 44.76,29.25 L41.325,29.25 C40.38,29.25 40.125,29.1525 40.125,28.5 L40.125,16.6125 C40.125,16.23 39.96,16.1625 39.585,16.1625 L36.3975,16.1625 C35.7375,16.1625 35.7375,15.8775 35.7375,15.5475 L35.7375,12.615 C35.7375,12.045 36.1575,11.9775 36.8175,11.9775 L49.5,11.9775 C50.16,11.9775 50.5875,12.0525 50.5875,12.615 L50.5875,15.5475 C50.5875,15.8775 50.5875,16.1625 49.9275,16.1625" id="Shape" fill="#000000"></path>
                <path d="M60.15,16.545 C60.3375,16.545 60.69,16.545 60.69,16.95 L60.69,19.6875 C60.7065329,19.8358191 60.655267,19.9836808 60.5504703,20.089933 C60.4456736,20.1961852 60.298533,20.2494857 60.15,20.235 C59.3921572,20.2000498 58.6334195,20.2809819 57.9,20.475 C57.0429083,20.6771342 56.4665311,21.4808602 56.55,22.3575 L56.55,28.0125 C56.55,28.6275 56.55,29.2875 55.7025,29.2875 L52.575,29.2875 C51.675,29.2875 51.42,28.7925 51.42,28.1775 L51.42,19.3425 C51.42,17.8425 52.0275,16.5675 54.9825,16.5675 L60.15,16.5675" id="Shape" fill="#000000"></path>
                <path d="M65.6625,29.3175 C64.035,29.3175 62.2425,28.5675 62.2425,25.5675 L62.2425,17.8425 C62.2425,17.1825 62.505,16.5675 63.165,16.5675 L66.465,16.5675 C67.0578364,16.5286905 67.5721016,16.9728286 67.62,17.565 L67.62,23.715 C67.62,24.285 67.8075,24.9 68.5425,24.9 C69.2775,24.9 69.5325,24.3075 69.5325,23.76 L69.5325,17.8425 C69.5325,17.2275 69.5325,16.5675 70.38,16.5675 L73.5375,16.5675 C74.4375,16.5675 74.6925,17.0625 74.6925,17.6775 L74.6925,25.5 C74.6925,28.83 72.6525,29.325 71.76,29.325 L65.6625,29.325" id="Shape" fill="#000000"></path>
                <path d="M82.0875,29.625 C80.3083541,29.6622386 78.5350533,29.4089099 76.8375,28.875 C76.605,28.755 76.3875,25.395 77.1,25.56 C78.190363,25.8667533 79.3200487,26.0108072 80.4525,25.9875 C81.4875,25.9875 82.08,25.845 82.08,25.35 C82.08,25.02 81.5175,24.78 80.805,24.4725 C79.305,23.8125 76.89,22.89 76.89,20.0925 C76.89,17.295 80.1225,16.095 83.235,16.095 C85.71,16.095 86.445,16.3575 86.7975,16.5 C87.15,16.6425 86.7975,19.65 86.1375,19.62 C85.71,19.62 84.27,19.335 83.4975,19.335 C82.725,19.335 82.3425,19.4775 82.3425,19.8825 C82.3425,20.0925 82.7925,20.355 83.4975,20.685 C85.1025,21.435 87.675,22.6275 87.675,25.4625 C87.675,29.1525 84.375,29.625 82.11,29.625" id="Shape" fill="#000000"></path>
                <path d="M96.8025,20.0925 L95.3625,20.0925 L95.3625,25.23 C95.3625,25.68 95.715,25.8675 96.2325,25.8675 C96.3497194,25.8789848 96.4677806,25.8789848 96.585,25.8675 C96.9375,25.8225 97.29,29.085 97.0575,29.205 C96.1122126,29.5078067 95.1250917,29.6596715 94.1325,29.655 C91.02,29.655 90.1725,27.645 90.15,26.22 C90.1275,24.795 90.15,20.0475 90.15,20.0475 L89.4,20.0475 C88.8075,20.0475 88.695,19.665 88.695,19.08 L88.695,17.5125 C88.695,16.8525 88.905,16.59 89.565,16.59 L90.435,16.59 L90.435,14.9325 C90.435,14.34 91.0275,14.0325 91.59,13.9425 L94.305,13.4925 C95.2275,13.35 95.2275,13.68 95.2275,14.3475 L95.2275,16.5975 L96.7275,16.5975 C97.32,16.5975 97.4775,17.1675 97.4775,17.76 L97.4775,19.11 C97.4775,19.77 97.4775,20.1 96.84,20.1" id="Shape" fill="#000000"></path>
                <path d="M103.6425,29.295 L100.245,29.295 C99.42,29.295 99.3225,29.1975 99.3225,28.47 L99.3225,12.3825 C99.3173986,12.1979225 99.3916481,12.0200093 99.5264451,11.8938164 C99.6612421,11.7676234 99.8436592,11.705253 100.0275,11.7225 L103.4025,11.7225 C104.415,11.7225 104.49,12.03 104.49,12.5475 L104.49,28.2075 C104.49,28.8225 104.49,29.295 103.6425,29.295" id="Shape" fill="#000000"></path>
                <path d="M113.25,33.0825 C113.0625,33.5325 112.6125,34.0275 112.14,34.0275 L109.5,34.0275 C108.6525,34.0275 108.5325,33.7425 108.75,33.2025 L110.52,28.995 L105.8475,17.4 C105.6375,16.8525 105.8475,16.575 106.5975,16.575 L110.4375,16.575 C110.958033,16.651233 111.38919,17.0182987 111.5475,17.52 L113.25,22.3425 L115.185,17.52 C115.339541,17.0319151 115.747759,16.6668187 116.25,16.5675 L119.1525,16.5675 C120,16.5675 120.12,16.8525 119.9025,17.3925 L113.25,33.0825" id="Shape" fill="#000000"></path>
            </g>
        </g>
    </g>
</svg>