<?xml version="1.0" encoding="UTF-8" standalone="no"?>
<svg width="120px" height="46px" viewBox="0 0 120 46" version="1.1" xmlns="http://www.w3.org/2000/svg" xmlns:xlink="http://www.w3.org/1999/xlink">
    <!-- Generator: Sketch 46.2 (44496) - http://www.bohemiancoding.com/sketch -->
    <title>icn-ukash</title>
    <desc>Created with Sketch.</desc>
    <defs></defs>
    <g id="Page-1" stroke="none" stroke-width="1" fill="none" fill-rule="evenodd">
        <g id="Payment-Icons" transform="translate(-32.000000, -1353.000000)">
            <g id="icn-ukash" transform="translate(32.000000, 1353.000000)">
                <path d="M40.7292292,17.8400741 C41.194065,25.8453753 38.533281,32.6681372 33.1235546,38.4010009 C30.0567072,41.6488971 26.3647359,43.8913624 22.0369547,44.9349398 C20.9309662,45.2019648 19.7822342,45.2864319 18.6548739,45.4526413 C18.598773,45.4580908 18.5426722,45.4798888 18.4865713,45.5044115 L16.6806577,45.5044115 C16.2906231,45.4526413 15.897917,45.4090454 15.5078824,45.3572753 C12.4169918,44.9894347 9.60927703,43.8777386 7.15419624,41.9240964 C3.09089061,38.6870992 0.980429433,34.3193327 0.224403467,29.1995366 C0.130902022,28.5728452 0.0721296858,27.9407044 0,27.3112882 L0,24.5865431 C0.0187002889,24.5293234 0.0454149873,24.4748285 0.0534293969,24.4148842 C0.144259372,23.6001854 0.181659949,22.7745876 0.323247851,21.968063 C1.49335164,15.1779981 4.64034312,9.54322521 9.90313871,5.18908248 C12.8844991,2.72046339 16.2639084,1.07471733 20.0734244,0.415329008 C20.7439633,0.300889713 21.4251881,0.224596849 22.10107,0.131955514 L24.3397617,0.131955514 C25.0049577,0.227321594 25.6754967,0.295440222 26.3326782,0.420778499 C31.7798053,1.46708063 35.7789956,4.54604263 38.4103934,9.48600556 C39.7968863,12.0881372 40.5555837,14.8918999 40.7292292,17.8400741 L40.7292292,17.8400741 Z M32.9899811,11.2952363 C32.773592,11.2298424 32.5411742,11.1998703 32.3167707,11.1998703 C30.9089061,11.202595 29.5010415,11.224393 28.0931769,11.2216682 C27.7779434,11.2216682 27.6470414,11.3361075 27.5829261,11.6440037 C26.7654564,15.6739018 25.9506581,19.7065246 25.1118165,23.7336979 C24.7912401,25.2650046 24.4760067,26.8072104 23.8268395,28.2404263 C23.3246032,29.3439481 22.5979634,30.232215 21.4519028,30.681798 C20.3459143,31.1123077 19.1998538,31.1831511 18.0457788,30.937924 C16.5871563,30.638202 15.4918536,29.5973494 15.676185,27.7445227 C15.6948853,27.5537905 15.6922139,27.3494347 15.7296144,27.1587025 C15.988747,25.8508248 16.2452081,24.5402224 16.523041,23.2377943 C17.2576952,19.7882669 18.0057067,16.3441891 18.7376895,12.8946617 C18.9594215,11.8456348 18.4545137,11.2298424 17.4019546,11.224393 C16.7020295,11.2189435 16.0074473,11.224393 15.3075222,11.2216682 C14.572868,11.2216682 13.8382138,11.2298424 13.1062311,11.2189435 C12.8070264,11.213494 12.6868103,11.3333828 12.6253665,11.6276552 C11.8693405,15.2106951 11.0919428,18.7855607 10.3439312,22.3686006 C9.88176695,24.5810936 9.30740093,26.7799629 9.30205799,29.0741983 C9.29938652,30.2022428 9.49440382,31.2730677 10.0420551,32.2539759 C10.9583693,33.9051715 12.3876057,34.9269509 14.0973464,35.5618165 C17.1454935,36.678962 20.2550844,36.6408156 23.3753611,35.9405561 C25.7983843,35.4010565 27.724514,34.0931789 29.014834,31.8915848 C29.7361308,30.66 30.2383672,29.3330491 30.5562721,27.9407044 C31.1333096,25.4121409 31.6595891,22.8699537 32.1912116,20.3304912 C32.7308485,17.7528823 33.2544566,15.1725487 33.7727218,12.592215 C33.8929379,11.9437257 33.6097621,11.480519 32.9899811,11.2952363 L32.9899811,11.2952363 Z" id="Shape" fill="#D22328"></path>
                <path d="M119.743293,22.0661538 C119.799394,23.5565894 119.449431,24.9843559 119.131526,26.4202966 C118.567846,29.0142539 117.988137,31.6054866 117.424457,34.2021687 C117.178682,35.3111399 116.516157,35.8778869 115.383454,35.8860612 C114.21335,35.8942354 113.045918,35.8887859 111.878486,35.8887859 C111.306791,35.8887859 111.264048,35.8152178 111.378921,35.2348471 C112.057474,31.9978499 112.746713,28.7690269 113.403895,25.5293049 C113.524111,24.9353105 113.588226,24.3086191 113.534797,23.7091752 C113.427938,22.6138276 112.687941,22.00076 111.603324,21.968063 C109.928313,21.9190176 108.683408,22.6546988 108.071641,24.2323262 C107.638863,25.3385728 107.366373,26.5211121 107.109912,27.6873031 C106.639733,29.7799073 106.239013,31.8834106 105.806235,33.9841891 C105.533745,35.2620945 104.76169,35.8942354 103.49007,35.8942354 L100.206834,35.8942354 C99.7045975,35.8942354 99.6378108,35.8043188 99.7419981,35.300241 C100.67167,30.8371084 101.593327,26.3848749 102.522998,21.9217424 C103.228266,18.5294347 103.936206,15.137127 104.620102,11.7420945 C104.702918,11.3470065 104.849848,11.224393 105.23454,11.2325672 C106.423344,11.2570899 107.620163,11.2380167 108.808967,11.2407414 C109.853511,11.2434662 110.369105,11.8647081 110.155388,12.9082854 C109.706581,15.0908063 109.247088,17.2706024 108.792938,19.4531233 C108.750194,19.6411307 108.715465,19.8318628 108.678065,20.022595 C109.388676,19.1724745 110.238203,18.5539574 111.234661,18.1452456 C113.045918,17.3959407 114.907932,17.1261909 116.791319,17.799203 C118.594561,18.4395181 119.673835,20.0580167 119.743293,22.0661538 L119.743293,22.0661538 Z" id="Path" fill="#2A4954"></path>
                <path d="M80.3417841,29.8861724 C79.9971645,31.3793327 79.6044584,32.8588693 79.2197667,34.3384059 C78.9659771,35.3111399 78.3488676,35.8615385 77.3630952,35.8833364 C76.1876485,35.9187581 75.0041873,35.8969601 73.8287406,35.8887859 C73.484121,35.8887859 73.4013054,35.7634476 73.478778,35.4228545 C73.5642651,35.0550139 73.6577665,34.6871733 73.7566109,34.327507 C72.4983486,35.866988 70.823337,36.3138462 68.9826943,36.3874143 C67.8927346,36.4337349 66.8161323,36.3656163 65.774259,36.0113994 C64.0271177,35.4201297 63.0413454,34.1721965 62.7848843,32.3220945 C62.6486393,31.3575348 62.7020687,30.3902502 62.9772301,29.4474884 C63.4367229,27.8889342 64.5213397,26.9461724 65.9398901,26.3440037 C67.4546135,25.7009639 69.0601669,25.4775348 70.6790776,25.3222243 C71.8197953,25.2132345 72.9578414,25.1423911 74.0905446,25.0252271 C74.4004351,24.9870806 74.7183401,24.8644671 75.0095303,24.7336793 C75.832343,24.3467655 76.225049,23.4884708 76.0220173,22.5974791 C75.8804294,21.9653383 75.4583372,21.6029472 74.8786282,21.4421872 C73.922242,21.1751622 72.9444841,21.2024096 71.9987838,21.5103058 C71.221386,21.7609824 70.7565503,22.3359036 70.5829047,23.1342539 C70.516118,23.4421501 70.3691871,23.5320667 70.0833399,23.5266172 C68.565945,23.518443 67.0485501,23.5238925 65.5338267,23.5211677 C65.0850198,23.5211677 65.0262475,23.4312512 65.1357777,22.9925672 C65.7849449,20.2432994 67.4492706,18.483114 70.1501266,17.8427989 C72.9017406,17.1888601 75.6613689,17.2924004 78.3942826,18.033531 C78.7389022,18.1288971 79.0781788,18.2760334 79.3960837,18.4367933 C80.9962942,19.2378684 81.7576631,20.6247637 81.6374469,22.4394439 C81.4744873,24.9734569 80.9134786,27.4339018 80.3417841,29.8861724 Z M75.1190605,27.8398888 C74.5500375,27.976126 74.0237579,28.125987 73.4867925,28.2213531 C72.9070835,28.3221687 72.3166887,28.3494161 71.7343082,28.4229842 C70.9034811,28.5210751 70.0833399,28.6273401 69.3700574,29.120519 C68.6327317,29.6327711 68.4190142,30.382076 68.5365588,31.2403707 C68.6354032,31.9678777 69.094896,32.4092864 69.7574206,32.5836701 C71.0290402,32.9242632 72.2258587,32.7526043 73.262389,31.8943095 C74.5153083,30.8398332 74.8759568,29.3439481 75.1190605,27.8398888 Z" id="Path" fill="#2A4954"></path>
                <path d="M58.2166708,31.1095829 C57.3404287,29.8480259 56.4668581,28.5891937 55.5665727,27.2976645 C55.6974748,27.175051 55.7989906,27.0687859 55.9058494,26.9679703 C58.9379677,24.1751066 61.9727574,21.3740686 65.0022042,18.5675811 C65.1117345,18.461316 65.154478,18.2678591 65.2212648,18.1152734 C65.0743339,18.0607785 64.9354175,17.9626877 64.7831437,17.9626877 C62.8009131,17.9517887 60.8133395,17.9490639 58.8284374,17.9654124 C58.6414345,17.9654124 58.4090167,18.0744022 58.2727717,18.2079147 C56.6618754,19.8100649 55.0670079,21.4285635 53.4667974,23.0416126 C53.1756072,23.3331603 52.8737311,23.6219833 52.5184257,23.9707507 C52.5638406,23.7282484 52.5852124,23.5838369 52.6145986,23.4421501 C53.3091807,20.0852641 54.0091058,16.7283781 54.698345,13.3687674 C54.965492,12.0745134 54.3083104,11.2543652 53.015319,11.2407414 C51.9200164,11.2298424 50.8247138,11.2461909 49.7294111,11.2298424 C49.4221921,11.2271177 49.3126618,11.352456 49.2538895,11.641279 C47.6323073,19.5457646 46.0027107,27.452975 44.3731141,35.3601854 C44.2849556,35.7961446 44.3570853,35.8887859 44.7952063,35.8887859 C45.9866819,35.8915107 47.1781574,35.8942354 48.369633,35.8887859 C49.4836359,35.8833364 50.1755466,35.3029657 50.405293,34.1912697 C50.5602383,33.4528638 50.7044976,32.7035589 50.8540999,31.9597034 C50.9956878,31.2621687 51.1372757,30.5537349 51.292221,29.80443 C51.377708,29.9270436 51.4338089,29.9951622 51.4872383,30.082354 C52.668028,31.9161075 53.8514891,33.7553105 55.0242644,35.5890639 C55.1551664,35.7961446 55.3020972,35.8942354 55.5478725,35.8915107 C57.3056996,35.8833364 59.0608553,35.8915107 60.8186825,35.8806117 C60.9602704,35.8806117 61.1926882,35.823392 61.2194029,35.7334754 C61.259475,35.6081372 61.1953597,35.406506 61.1098727,35.2811677 C60.1534865,33.888823 59.1837429,32.5046525 58.2166708,31.1095829 L58.2166708,31.1095829 Z" id="Path" fill="#2A4954"></path>
                <path d="M96.4801334,18.1261724 C93.3438278,17.0172011 90.1968363,17.1670621 87.1513607,18.4858387 C85.0542569,19.3986284 83.9215537,21.0661724 83.894839,23.4557739 C83.8627813,25.5837998 84.6882655,26.9734198 86.6197382,27.7663207 C87.4585797,28.1123633 88.3615365,28.3085449 89.2377786,28.5701205 C90.1567643,28.842595 91.0997931,29.0551251 92.0027499,29.3848193 C92.7748047,29.6681928 93.060652,30.3303058 92.8629632,31.1422799 C92.7374041,31.6817794 92.3633984,32.0250973 91.8932197,32.2539759 C91.1585655,32.6081928 90.3758248,32.638165 89.5984271,32.5101019 C88.2413204,32.2866728 87.704355,31.7117516 87.5013233,30.3357553 C87.4639227,30.0741798 87.3490495,29.976089 87.1086172,29.9815385 C86.3579342,29.986988 85.6125941,29.9815385 84.867254,29.9815385 L82.6686343,29.9815385 C82.2305133,29.9815385 82.166398,30.0551066 82.2011271,30.5074143 C82.2198274,30.6763485 82.2411991,30.8480074 82.2572279,31.0196664 C82.5911617,33.5019092 83.8601099,35.1967006 86.2484039,35.9487303 C87.7257267,36.411937 89.2324357,36.4555329 90.7525021,36.3846895 C92.2271534,36.3274699 93.6777615,36.1258387 95.05624,35.5754402 C96.7526233,34.8942539 97.978828,33.7416867 98.4516781,31.8970343 C98.5905946,31.35481 98.684096,30.788063 98.7001248,30.232215 C98.7642401,27.6573309 98.0215715,26.2404634 95.670678,25.4203151 C94.6261333,25.0524745 93.5415166,24.8290454 92.480943,24.5156997 C91.7676606,24.3058943 91.0410208,24.1151622 90.3678104,23.7990918 C89.5343118,23.4094532 89.4434818,22.4339944 90.1166922,21.7909546 C90.2823234,21.6356441 90.4826836,21.5130306 90.6857153,21.4176645 C91.3428969,21.112493 92.037479,21.0525487 92.7400756,21.1479147 C93.7739344,21.2896015 94.3376146,21.861798 94.385701,22.823633 C94.4044013,23.1805746 94.5406463,23.2868397 94.87458,23.2841149 C96.3038164,23.2732159 97.7383957,23.2813902 99.1649606,23.2786654 C99.6244534,23.2786654 99.6671969,23.2350695 99.6671969,22.7773123 C99.6591825,20.5620945 98.5692228,18.8645783 96.4801334,18.1261724 L96.4801334,18.1261724 Z" id="Path" fill="#2A4954"></path>
            </g>
        </g>
    </g>
</svg>