<?xml version="1.0" encoding="utf-8"?>
<!-- Generator: Adobe Illustrator 22.1.0, SVG Export Plug-In . SVG Version: 6.00 Build 0)  -->
<svg version="1.1" id="Layer_1" xmlns="http://www.w3.org/2000/svg" xmlns:xlink="http://www.w3.org/1999/xlink" x="0px" y="0px"
	 width="128px" height="46px" viewBox="0 0 128 46" enable-background="new 0 0 128 46" xml:space="preserve">
<g>
	<path fill="#1998CD" d="M0.4,40.3c-0.1-1.3-0.2-2.6-0.2-3.8c0-0.8-0.2-3.8-0.2-3.8C7,22.1,21,12.1,34.3,6.5
		C45.8,1.8,58.4-0.4,70.8,0c8.4,0.3,16.6,1.8,24.5,4.7c6.7,2.4,13.2,5.8,19.1,9.8c4.9,3.4,9.2,7.3,13.5,11.3c0,0-0.2,0.2-0.2,0.3
		c-0.8,0.5-5.4-3.9-6.1-4.5c-2.4-1.9-5-3.6-7.6-5.1c-4.3-2.5-8.9-4.6-13.6-6.2c-8-2.7-16.4-4.1-24.8-4.5c-12.9-0.5-25.9,1.6-38,6.2
		c-1.3,0.5-2.5,1-3.8,1.5C22,18.8,11.1,26.5,3.2,36.8C2.3,38,1.4,39.2,0.4,40.3C0.5,40.3,0.4,40.3,0.4,40.3z"/>
</g>
<g>
	<path fill="#2E3337" d="M23.6,29.4v7.3c0,2.5,1,3.6,2.6,3.6c1.7,0,2.6-1.1,2.6-3.6v-7.3h2.3v7.2c0,3.9-2,5.6-5,5.6
		c-2.9,0-4.8-1.6-4.8-5.6v-7.2H23.6z"/>
	<path fill="#2E3337" d="M33.4,39.8c0.5,0.3,1.5,0.7,2.3,0.7c1,0,1.5-0.4,1.5-1c0-0.6-0.4-0.9-1.5-1.3c-1.8-0.6-2.5-1.6-2.5-2.7
		c0-1.6,1.3-2.8,3.4-2.8c1,0,1.9,0.2,2.4,0.5l-0.5,1.6c-0.4-0.2-1.1-0.5-1.9-0.5c-0.8,0-1.3,0.4-1.3,1c0,0.6,0.4,0.8,1.6,1.3
		c1.7,0.6,2.4,1.4,2.4,2.8c0,1.7-1.3,2.9-3.7,2.9c-1.1,0-2.1-0.3-2.8-0.6L33.4,39.8z"/>
	<path fill="#2E3337" d="M42.8,38c0.1,1.6,1.3,2.4,2.8,2.4c1.1,0,1.8-0.2,2.5-0.4l0.3,1.6c-0.8,0.3-1.9,0.6-3.2,0.6
		c-2.9,0-4.7-1.8-4.7-4.6c0-2.5,1.5-4.9,4.4-4.9c2.9,0,3.9,2.4,3.9,4.4c0,0.4,0,0.8-0.1,1H42.8z M46.8,36.4c0-0.8-0.4-2.2-1.9-2.2
		c-1.4,0-2,1.3-2.1,2.2H46.8z"/>
	<path fill="#1998CD" d="M61.5,36.8c-0.1-1.6-0.2-3.6-0.1-5.3h-0.1c-0.4,1.5-0.9,3.2-1.5,4.8L58,41.8h-1.7l-1.7-5.4
		c-0.5-1.6-0.9-3.3-1.3-4.9h0c-0.1,1.6-0.1,3.6-0.2,5.4l-0.3,5.1h-2.1l0.8-12.6h3l1.6,5.1c0.4,1.5,0.8,3,1.2,4.4h0.1
		c0.3-1.4,0.8-2.9,1.2-4.4l1.7-5h3L64,41.9h-2.2L61.5,36.8z"/>
	<path fill="#1998CD" d="M67.7,32.8l1.6,4.9c0.2,0.6,0.4,1.3,0.5,1.8h0.1c0.1-0.5,0.3-1.2,0.5-1.8l1.4-4.9h2.4L72,39.1
		c-1.2,3.4-2.1,4.9-3.1,5.8c-0.9,0.8-1.8,1.1-2.4,1.2l-0.5-1.9c0.4-0.1,0.9-0.3,1.3-0.6c0.4-0.3,0.9-0.8,1.3-1.4
		c0.1-0.2,0.1-0.3,0.1-0.4c0-0.1,0-0.2-0.1-0.4l-3.3-8.3H67.7z"/>
	<path fill="#2E3337" d="M75.6,29.4h7.3v1.9h-5v3.5h4.6v1.9h-4.6v5.4h-2.3V29.4z"/>
	<path fill="#2E3337" d="M92.5,39.2c0,1.1,0,2,0.1,2.7h-2l-0.1-1.4h-0.1c-0.4,0.6-1.3,1.6-2.9,1.6s-3.1-1-3.1-4v-5.3h2.3v5
		c0,1.5,0.5,2.5,1.7,2.5c0.9,0,1.5-0.6,1.7-1.2c0.1-0.2,0.1-0.4,0.1-0.7v-5.5h2.3V39.2z"/>
	<path fill="#2E3337" d="M95,35.6c0-1,0-1.9-0.1-2.7h2l0.1,1.4h0.1c0.4-0.7,1.4-1.6,2.9-1.6c1.6,0,3.2,1,3.2,3.9v5.4h-2.3v-5.1
		c0-1.3-0.5-2.3-1.7-2.3c-0.9,0-1.5,0.7-1.8,1.3c-0.1,0.2-0.1,0.5-0.1,0.7v5.4H95V35.6z"/>
	<path fill="#2E3337" d="M114,28.7v10.7c0,0.9,0,1.9,0.1,2.6h-2l-0.1-1.4h0c-0.5,1-1.6,1.6-2.9,1.6c-2.2,0-3.9-1.8-3.9-4.7
		c0-3,1.9-4.9,4.1-4.9c1.2,0,2.1,0.5,2.5,1.2h0v-5.1H114z M111.7,36.6c0-0.2,0-0.4-0.1-0.6c-0.2-0.9-0.9-1.6-2-1.6
		c-1.5,0-2.3,1.3-2.3,3s0.8,2.9,2.3,2.9c0.9,0,1.7-0.6,2-1.6c0.1-0.2,0.1-0.4,0.1-0.7V36.6z"/>
	<path fill="#2E3337" d="M116.4,39.8c0.5,0.3,1.5,0.7,2.3,0.7c1,0,1.5-0.4,1.5-1c0-0.6-0.4-0.9-1.5-1.3c-1.8-0.6-2.5-1.6-2.5-2.7
		c0-1.6,1.3-2.8,3.4-2.8c1,0,1.9,0.2,2.4,0.5l-0.5,1.6c-0.4-0.2-1.1-0.5-1.9-0.5c-0.8,0-1.3,0.4-1.3,1c0,0.6,0.4,0.8,1.6,1.3
		c1.7,0.6,2.4,1.4,2.4,2.8c0,1.7-1.3,2.9-3.7,2.9c-1.1,0-2.1-0.3-2.8-0.6L116.4,39.8z"/>
</g>
<g>
</g>
<g>
</g>
<g>
</g>
<g>
</g>
<g>
</g>
<g>
</g>
<g>
</g>
<g>
</g>
<g>
</g>
<g>
</g>
<g>
</g>
<g>
</g>
<g>
</g>
<g>
</g>
<g>
</g>
</svg>
