<?xml version="1.0" encoding="utf-8"?>
<!-- Generator: Adobe Illustrator 22.1.0, SVG Export Plug-In . SVG Version: 6.00 Build 0)  -->
<svg version="1.1" id="Layer_1" xmlns="http://www.w3.org/2000/svg" xmlns:xlink="http://www.w3.org/1999/xlink" x="0px" y="0px"
	 width="128px" height="41.5px" viewBox="0 0 128 41.5" enable-background="new 0 0 128 41.5" xml:space="preserve">
<g>
	<defs>
		<path id="SVGID_1_" d="M37.7,0.7L27,28.1L22.6,4.8c-0.5-2.6-2.5-4.1-4.8-4.1H0.2L0,1.9C3.6,2.7,7.7,4,10.2,5.3
			c1.5,0.8,2,1.6,2.5,3.5l8.2,32h10.9L48.6,0.7H37.7z M53,0.7l-8.6,40.1h10.3l8.6-40.1H53z M112.3,11.6l3.1,15.1h-8.6L112.3,11.6z
			 M110.8,0.7c-2,0-3.7,1.2-4.4,2.9L90.9,40.9h10.9l2.2-6h13.3l1.3,6h9.6l-8.3-40.1H110.8z M66.2,13.3c-0.1,5.8,5.1,9,9.1,10.9
			c4,2,5.4,3.2,5.4,5c0,2.7-3.2,3.9-6.2,3.9c-5.2,0.1-8.2-1.4-10.6-2.5l-1.9,8.8c2.4,1.1,6.9,2.1,11.5,2.1c10.9,0,18-5.4,18-13.7
			c0-10.6-14.6-11.2-14.5-15.9c0-1.4,1.4-3,4.4-3.4c1.5-0.2,5.6-0.3,10.2,1.8l1.8-8.5C90.9,0.9,87.7,0,83.7,0
			C73.4,0,66.3,5.5,66.2,13.3"/>
	</defs>
	<clipPath id="SVGID_2_">
		<use xlink:href="#SVGID_1_"  overflow="visible"/>
	</clipPath>
	
		<linearGradient id="XMLID_8_" gradientUnits="userSpaceOnUse" x1="-242.6269" y1="417.2326" x2="-241.6154" y2="417.2326" gradientTransform="matrix(126.5456 0 0 -126.5456 30703.3594 52819.6758)">
		<stop  offset="0" style="stop-color:#241F5D"/>
		<stop  offset="1" style="stop-color:#034EA1"/>
	</linearGradient>
	<rect id="XMLID_6_" y="0" clip-path="url(#SVGID_2_)" fill="url(#XMLID_8_)" width="128" height="41.5"/>
</g>
<g>
</g>
<g>
</g>
<g>
</g>
<g>
</g>
<g>
</g>
<g>
</g>
<g>
</g>
<g>
</g>
<g>
</g>
<g>
</g>
<g>
</g>
<g>
</g>
<g>
</g>
<g>
</g>
<g>
</g>
</svg>
