<?xml version="1.0" encoding="UTF-8" standalone="no"?>
<svg width="120px" height="31px" viewBox="0 0 120 31" version="1.1" xmlns="http://www.w3.org/2000/svg" xmlns:xlink="http://www.w3.org/1999/xlink">
    <!-- Generator: Sketch 46.2 (44496) - http://www.bohemiancoding.com/sketch -->
    <title>icn-webmoney</title>
    <desc>Created with Sketch.</desc>
    <defs></defs>
    <g id="Page-1" stroke="none" stroke-width="1" fill="none" fill-rule="evenodd">
        <g id="Payment-Icons" transform="translate(-492.000000, -1229.000000)" fill="#0068A3">
            <g id="icn-webmoney" transform="translate(492.000000, 1229.000000)">
                <path d="M104.81335,0.134653012 C107.16529,0.134653012 109.392695,0.68480241 111.376474,1.66153012 C111.688111,1.80999759 111.998841,1.97334217 112.310479,2.15368916 L110.931537,3.39334699 L108.859798,1.24163133 L105.363174,4.3743253 L103.286297,2.09752048 L96.7727456,7.99492771 L100.948564,12.6174578 L99.3075567,14.0672169 L103.420504,18.6967301 L101.789169,20.1431494 L107.666448,26.7142771 L111.155214,23.4880699 L114.171537,26.9453277 C113.571537,27.4138048 112.918035,27.854653 112.198035,28.2621036 C110.016877,29.5114771 107.49597,30.2267928 104.81335,30.2267928 C96.5632746,30.2267928 89.8345088,23.4671205 89.8345088,15.1811783 C89.8345088,6.89341446 96.5632746,0.134653012 104.81335,0.134653012" id="Fill-1"></path>
                <polyline id="Fill-2" points="102.083577 14.2299542 105.645491 11.0079976 108.852846 14.5867012 105.291234 17.8074434 102.083577 14.2299542"></polyline>
                <polyline id="Fill-3" points="104.616272 20.4121518 108.178489 17.191106 111.386146 20.7688988 107.824232 23.9908554 104.616272 20.4121518"></polyline>
                <polyline id="Fill-4" points="99.5348615 8.12001687 103.096776 4.89897108 106.303224 8.47676386 102.74131 11.6978096 99.5348615 8.12001687"></polyline>
                <polyline id="Fill-5" points="106.071083 6.3860747 108.742519 3.97051807 111.147657 6.65386265 108.476222 9.07033012 106.071083 6.3860747"></polyline>
                <polyline id="Fill-6" points="110.817582 17.4525181 113.489924 15.0360506 115.895063 17.7200024 113.223627 20.1358627 110.817582 17.4525181"></polyline>
                <polyline id="Fill-7" points="113.167708 22.8726434 115.838539 20.4558723 118.244282 23.1392169 115.572846 25.5550771 113.167708 22.8726434"></polyline>
                <polyline id="Fill-8" points="114.243778 10.4502578 116.024736 8.83958313 117.62796 10.6284795 115.847909 12.2388506 114.243778 10.4502578"></polyline>
                <polyline id="Fill-9" points="111.968312 5.13487952 113.74927 3.52450843 115.352796 5.31340482 113.571537 6.9237759 111.968312 5.13487952"></polyline>
                <polyline id="Fill-10" points="116.520756 15.7653325 118.301713 14.1546578 119.905239 15.9432506 118.124282 17.5539253 116.520756 15.7653325"></polyline>
                <polyline id="Fill-11" points="108.533652 11.7825181 111.204786 9.36574699 113.609924 12.0490916 110.939395 14.4649518 108.533652 11.7825181"></polyline>
                <polyline id="Fill-12" points="7.08498741 12.5870964 6.96528967 12.5870964 4.7088665 21.1538819 2.86352645 21.1538819 0.0947607053 8.98197831 2.00871537 8.98197831 3.92297229 18.063694 4.04267003 18.063694 6.26433249 8.98197831 7.78534005 8.98197831 10.161461 18.063694 10.2805542 18.063694 12.023728 8.98197831 14.0235264 8.98197831 11.2544584 21.1538819 9.40881612 21.1538819 7.08498741 12.5870964"></polyline>
                <path d="M21.5968262,19.2650964 L21.5968262,20.5697277 C20.8278589,21.0166482 19.8025693,21.3600361 18.571738,21.3600361 C15.700806,21.3600361 14.5216625,19.5744795 14.5216625,16.8616843 C14.5216625,14.2527253 15.837733,12.3642434 18.4012594,12.3642434 C20.5370781,12.3642434 21.8531486,13.7551012 21.8531486,16.5529084 L21.8531486,17.1877663 L16.2820655,17.1877663 C16.2820655,19.2474867 17.1193451,20.1577229 18.8797481,20.1577229 C19.8025693,20.1577229 20.6567758,19.831641 21.5968262,19.2650964 L21.5968262,19.2650964 Z M16.3165239,16.0379783 L20.2293703,16.0379783 C20.1447355,14.2351157 19.2726952,13.5146386 18.3498741,13.5146386 C17.3067506,13.5146386 16.5039295,14.3216458 16.3165239,16.0379783 L16.3165239,16.0379783 Z" id="Fill-13"></path>
                <path d="M25.1853401,12.9997084 C25.6979849,12.7249373 26.5694207,12.3642434 27.4925441,12.3642434 C29.6114358,12.3642434 30.7567254,13.8407205 30.7567254,16.5881277 C30.7567254,19.7976361 29.2190932,21.3600361 26.740806,21.3600361 C25.8346096,21.3600361 24.4332997,21.0682627 23.4077078,20.5181133 L23.4077078,8.53627229 L25.1853401,8.10696145 L25.1853401,12.9997084 L25.1853401,12.9997084 Z M25.1684131,19.8832554 C25.7149118,20.1237181 26.3134005,20.1577229 26.740806,20.1577229 C28.0054912,20.1577229 28.9624685,19.3683253 28.9624685,16.5881277 C28.9624685,14.4072651 28.176272,13.7034867 27.0312846,13.7034867 C26.3472544,13.7034867 25.8521411,13.8923349 25.1684131,14.2700313 L25.1684131,19.8832554 L25.1684131,19.8832554 Z" id="Fill-14"></path>
                <polyline id="Fill-15" points="38.5328463 18.5786241 38.6186902 18.5786241 42.2758186 8.98197831 44.3953149 8.98197831 44.3953149 21.1538819 42.5496725 21.1538819 42.5496725 12.3299349 42.3955164 12.3299349 38.9088665 21.1538819 37.8155668 21.1538819 34.3286146 12.5360892 34.175063 12.5360892 34.175063 21.1538819 32.6368262 21.1538819 32.6368262 8.98197831 34.7046348 8.98197831 38.5328463 18.5786241"></polyline>
                <path d="M46.2751134,16.8616843 C46.2751134,13.8574193 47.9158186,12.3642434 50.1716373,12.3642434 C52.4277582,12.3642434 54.0687657,13.8574193 54.0687657,16.8616843 C54.0687657,19.7976361 52.5132997,21.3600361 50.1716373,21.3600361 C47.8299748,21.3600361 46.2751134,19.7976361 46.2751134,16.8616843 L46.2751134,16.8616843 Z M52.2739043,16.8616843 C52.2739043,14.5444988 51.3335516,13.566253 50.1716373,13.566253 C49.0435768,13.566253 48.0693703,14.5444988 48.0693703,16.8616843 C48.0693703,19.2143928 48.9586398,20.1577229 50.1716373,20.1577229 C51.384937,20.1577229 52.2739043,19.2143928 52.2739043,16.8616843 L52.2739043,16.8616843 Z" id="Fill-16"></path>
                <path d="M55.6919395,13.6345663 C56.4609068,13.170947 58.0849874,12.3642434 60.0494207,12.3642434 C62.1012091,12.3642434 62.8695718,13.170947 62.8695718,14.938894 L62.8695718,21.1538819 L61.0922418,21.1538819 L61.0922418,15.3342 C61.0922418,13.9779542 60.4263476,13.7374916 59.5549118,13.7374916 C58.8708816,13.7374916 57.9991436,14.0471783 57.4695718,14.3556506 L57.4695718,21.1538819 L55.6919395,21.1538819 L55.6919395,13.6345663" id="Fill-17"></path>
                <path d="M71.5340554,19.2650964 L71.5340554,20.5697277 C70.7653904,21.0166482 69.740403,21.3600361 68.5092695,21.3600361 C65.6386398,21.3600361 64.459194,19.5744795 64.459194,16.8616843 C64.459194,14.2527253 65.7755668,12.3642434 68.3387909,12.3642434 C70.4755164,12.3642434 71.7918892,13.7551012 71.7918892,16.5529084 L71.7918892,17.1877663 L66.2202015,17.1877663 C66.2202015,19.2474867 67.0574811,20.1577229 68.8175819,20.1577229 C69.740403,20.1577229 70.5949118,19.831641 71.5340554,19.2650964 L71.5340554,19.2650964 Z M66.2540554,16.0379783 L70.1675063,16.0379783 C70.0825693,14.2351157 69.2102267,13.5146386 68.2874055,13.5146386 C67.2445844,13.5146386 66.4423678,14.3216458 66.2540554,16.0379783 L66.2540554,16.0379783 Z" id="Fill-18"></path>
                <path d="M78.4396474,12.6560169 L80.2683627,12.6560169 L77.1746599,21.2395012 C76.3198489,23.6089084 75.2770277,24.8443157 73.3125945,24.8443157 L73.3125945,23.4373663 C74.4748111,23.4373663 75.1917884,22.5095205 75.6025693,21.2395012 L72.3211587,12.6560169 L74.2012594,12.6560169 L76.3887657,18.9730193 L76.4906297,18.9730193 L78.4396474,12.6560169" id="Fill-19"></path>
            </g>
        </g>
    </g>
</svg>