<?xml version="1.0" encoding="UTF-8" standalone="no"?>
<svg width="120px" height="45px" viewBox="0 0 120 45" version="1.1" xmlns="http://www.w3.org/2000/svg" xmlns:xlink="http://www.w3.org/1999/xlink">
    <!-- Generator: Sketch 46.2 (44496) - http://www.bohemiancoding.com/sketch -->
    <title>icn-wiretransfer</title>
    <desc>Created with Sketch.</desc>
    <defs>
        <linearGradient x1="0%" y1="50%" x2="100%" y2="50%" id="linearGradient-1">
            <stop stop-color="#41E700" stop-opacity="0" offset="0%"></stop>
            <stop stop-color="#3ACD00" offset="74%"></stop>
            <stop stop-color="#36BE00" offset="78%"></stop>
            <stop stop-color="#299100" offset="93%"></stop>
            <stop stop-color="#248000" offset="100%"></stop>
        </linearGradient>
        <linearGradient x1="3129%" y1="50681%" x2="6267%" y2="50681%" id="linearGradient-2">
            <stop stop-color="#41E700" stop-opacity="0" offset="0%"></stop>
            <stop stop-color="#3ACD00" offset="74%"></stop>
            <stop stop-color="#36BE00" offset="78%"></stop>
            <stop stop-color="#299100" offset="93%"></stop>
            <stop stop-color="#248000" offset="100%"></stop>
        </linearGradient>
        <linearGradient x1="3129%" y1="49626%" x2="6267%" y2="49626%" id="linearGradient-3">
            <stop stop-color="#41E700" stop-opacity="0" offset="0%"></stop>
            <stop stop-color="#3ACD00" offset="74%"></stop>
            <stop stop-color="#36BE00" offset="78%"></stop>
            <stop stop-color="#299100" offset="93%"></stop>
            <stop stop-color="#248000" offset="100%"></stop>
        </linearGradient>
    </defs>
    <g id="Page-1" stroke="none" stroke-width="1" fill="none" fill-rule="evenodd">
        <g id="Payment-Icons" transform="translate(-25.000000, -33.000000)" fill-rule="nonzero">
            <g id="icn-wiretransfer" transform="translate(25.000000, 33.000000)">
                <polygon id="Shape" fill="#00AFD8" points="3.87096774 44.4580645 3.87096774 31.5870968 0.0967741935 31.5870968 0.0967741935 27.6096774 12.2225806 27.6096774 12.2225806 31.5967742 8.4483871 31.5967742 8.4483871 44.4677419 3.87096774 44.4677419"></polygon>
                <path d="M14.4677419,44.4580645 L14.4677419,27.6096774 L19.3064516,27.6096774 C20.6183138,27.5678524 21.9311056,27.6553719 23.2258065,27.8709677 C23.9257374,28.019819 24.5856886,28.316797 25.1612903,28.7419355 C25.7695651,29.20183 26.252161,29.8075711 26.5645161,30.5032258 C26.8838513,31.261631 27.0325227,32.0809754 27,32.9032258 C27.0501438,34.0438473 26.7086653,35.1673115 26.0322581,36.0870968 C25.3140674,36.931574 24.3196301,37.4939454 23.2258065,37.6741935 L27.8225806,44.4483871 L22.6354839,44.4483871 L18.7645161,37.8483871 L18.7645161,44.4483871 L14.4677419,44.4483871 L14.4677419,44.4580645 Z M18.7741935,35.5741935 L19.6258065,35.5741935 C20.383018,35.6343589 21.1402819,35.4585655 21.7935484,35.0709677 C22.2712139,34.688317 22.5284959,34.0940318 22.4806452,33.483871 C22.5476734,32.8185416 22.3133388,32.158144 21.8419355,31.683871 C21.2062257,31.2694716 20.4491914,31.0819181 19.6935484,31.1516129 L18.7258065,31.1516129 L18.7741935,35.5741935 Z" id="Shape" fill="#00AFD8"></path>
                <path d="M27.6,44.4580645 L33.4064516,27.6096774 L39.1645161,27.6096774 L44.9709677,44.4580645 L40.4225806,44.4580645 L39.5709677,41.4387097 L33.0483871,41.4387097 L32.1774194,44.4580645 L27.6,44.4580645 Z M34.0354839,38.1580645 L38.6032258,38.1580645 L36.8903226,32.5935484 C36.8387097,32.4258065 36.7645161,32.1548387 36.6677419,31.7806452 L36.3096774,30.3290323 C36.2129032,30.7419355 36.116129,31.1387097 36.0193548,31.5193548 C35.9225806,31.9 35.8258065,32.2612903 35.7290323,32.6032258 L34.0354839,38.1580645 Z" id="Shape" fill="#00AFD8"></path>
                <path d="M46.6064516,44.4580645 L46.6064516,27.6096774 L51.0387097,27.6096774 L57.4064516,36.3193548 C57.6246039,36.6636518 57.8248695,37.0189617 58.0064516,37.383871 C58.283871,37.9193548 58.6064516,38.5645161 58.9741935,39.3193548 C58.883871,38.6225806 58.816129,38 58.7709677,37.4516129 C58.7258065,36.9032258 58.7032258,36.4193548 58.7032258,36 L58.7032258,27.6774194 L63.116129,27.6774194 L63.116129,44.4580645 L58.6645161,44.4580645 L52.2580645,35.8064516 C52.0289959,35.4652634 51.8221169,35.1096903 51.6387097,34.7419355 C51.4064516,34.1612903 51.116129,33.5193548 50.7677419,32.816129 C50.8580645,33.5193548 50.9258065,34.1451613 50.9709677,34.6935484 C51.016129,35.2419355 51.0387097,35.7258065 51.0387097,36.1451613 L51.0387097,44.4677419 L46.6064516,44.4580645 Z" id="Shape" fill="#00AFD8"></path>
                <path d="M67.4419355,39.0193548 C68.0181368,39.7049202 68.7010921,40.2931114 69.4645161,40.7612903 C70.0632808,41.1246116 70.7480942,41.3217042 71.4483871,41.3322581 C71.9944543,41.3536587 72.530094,41.1785458 72.9580645,40.8387097 C73.3401051,40.5342359 73.5583749,40.0690707 73.5483871,39.5806452 C73.5781382,39.0937218 73.3902587,38.6187057 73.0354839,38.283871 C72.3317896,37.8129482 71.5427869,37.4841971 70.7129032,37.316129 C69.4125123,37.0530258 68.2042895,36.452252 67.2096774,35.5741935 C66.5002266,34.7784328 66.1318263,33.7357903 66.183871,32.6709677 C66.1328883,31.1870649 66.7214409,29.7526881 67.8,28.7322581 C68.9432676,27.688138 70.453049,27.138494 72,27.2032258 C72.8943435,27.199447 73.7844238,27.3266014 74.6419355,27.5806452 C75.482532,27.8345009 76.2789789,28.2164038 77.0032258,28.7129032 L75.5612903,32.0129032 C75.0793789,31.6087609 74.5373811,31.2822562 73.9548387,31.0451613 C73.4403862,30.8266463 72.8879456,30.7115545 72.3290323,30.7064516 C71.8489763,30.6852617 71.3755796,30.8248967 70.983871,31.1032258 C70.6532459,31.3354494 70.4578743,31.7153387 70.4612903,32.1193548 C70.4600847,32.4938266 70.6270449,32.8490612 70.916129,33.0870968 C71.4476046,33.4399635 72.0424501,33.6864465 72.6677419,33.8129032 L72.8709677,33.8709677 C74.2182299,34.1233906 75.485678,34.6940741 76.5677419,35.5354839 C76.9738947,35.961612 77.2840762,36.4697816 77.4774194,37.0258065 C77.6916312,37.6482461 77.7964058,38.3030874 77.7870968,38.9612903 C77.8560461,40.5877523 77.2130051,42.1635559 76.0258065,43.2774194 C74.7300974,44.4053935 73.0480654,44.9880355 71.3322581,44.9032258 C70.2353649,44.9167858 69.1466567,44.7128586 68.1290323,44.3032258 C67.0946933,43.8552868 66.1528277,43.218625 65.3516129,42.4258065 L67.4419355,39.0193548 Z" id="Shape" fill="#00AFD8"></path>
                <polygon id="Shape" fill="#00AFD8" points="80.3903226 44.4580645 80.3903226 27.6096774 90.716129 27.6096774 90.716129 31.3064516 84.9096774 31.3064516 84.9096774 34.2096774 90.4258065 34.2096774 90.4258065 37.8387097 84.9096774 37.8387097 84.9096774 44.4580645"></polygon>
                <polygon id="Shape" fill="#00AFD8" points="93.2129032 44.4580645 93.2129032 27.6096774 103.548387 27.6096774 103.548387 31.3064516 97.7419355 31.3064516 97.7419355 34.2096774 103.258065 34.2096774 103.258065 37.8387097 97.7419355 37.8387097 97.7419355 40.6451613 103.548387 40.6451613 103.548387 44.4193548 93.2129032 44.4193548"></polygon>
                <path d="M106.577419,44.4580645 L106.577419,27.6096774 L111.416129,27.6096774 C112.731215,27.5672148 114.047279,27.6547364 115.345161,27.8709677 C116.044999,28.0201045 116.704892,28.3170563 117.280645,28.7419355 C117.888628,29.2021298 118.371158,29.8077891 118.683871,30.5032258 C119.017581,31.2452491 119.185986,32.0509513 119.177419,32.8645161 C119.226781,34.0050387 118.88538,35.1282487 118.209677,36.0483871 C117.497667,36.9072542 116.502477,37.4837776 115.403226,37.6741935 L120,44.4483871 L114.812903,44.4483871 L110.941935,37.8483871 L110.941935,44.4483871 L106.635484,44.4483871 L106.577419,44.4580645 Z M110.883871,35.5741935 L111.735484,35.5741935 C112.492695,35.6343589 113.249959,35.4585655 113.903226,35.0709677 C114.380891,34.688317 114.638173,34.0940318 114.590323,33.483871 C114.657351,32.8185416 114.423016,32.158144 113.951613,31.683871 C113.315903,31.2694716 112.558869,31.0819181 111.803226,31.1516129 L110.835484,31.1516129 L110.883871,35.5741935 Z" id="Shape" fill="#00AFD8"></path>
                <path d="M52.7516129,0.212903226 L55.8096774,11.8258065 C55.9516129,12.3483871 56.083871,12.8903226 56.2064516,13.4516129 C56.3290323,14.0129032 56.4580645,14.6580645 56.5935484,15.3870968 C56.7612903,14.5225806 56.9032258,13.8096774 57.0193548,13.2483871 C57.1354839,12.6870968 57.2483871,12.2064516 57.3580645,11.8064516 L60.2612903,0.193548387 L66.9580645,0.193548387 L60,24.5516129 L53.883871,24.5516129 L50.8741935,14.1580645 C50.7645161,13.7903226 50.5806452,13.0741935 50.3225806,12.0096774 C50.2129032,11.5322581 50.1258065,11.1612903 50.0612903,10.8967742 L49.8290323,11.8645161 C49.5709677,12.9419355 49.3774194,13.7 49.2483871,14.1387097 L46.2870968,24.5516129 L40.1129032,24.5516129 L33.2419355,0.212903226 L39.9387097,0.212903226 L42.7354839,11.8258065 C42.8709677,12.4258065 43,13.0258065 43.1225806,13.6258065 C43.2451613,14.2258065 43.3677419,14.8451613 43.4903226,15.483871 C43.5870968,15.0193548 43.6967742,14.5322581 43.8193548,14.0225806 C43.9419355,13.5129032 44.116129,12.7870968 44.3419355,11.8451613 L47.4,0.232258065 L52.7516129,0.232258065 L52.7516129,0.212903226 Z" id="Shape" fill="#006E90"></path>
                <polygon id="Shape" fill="#006E90" points="69.3774194 24.5516129 69.3774194 0.212903226 76.0741935 0.212903226 76.0741935 24.5516129"></polygon>
                <path d="M81.4354839,24.5516129 L81.4354839,0.212903226 L88.3645161,0.212903226 C90.2658705,0.151480313 92.168645,0.277899742 94.0451613,0.590322581 C95.0318739,0.811790487 95.961418,1.23700747 96.7741935,1.83870968 C97.6509251,2.50429559 98.346403,3.37946633 98.7967742,4.38387097 C99.2762008,5.45478584 99.5172436,6.61707407 99.5032258,7.79032258 C99.5782368,9.43538611 99.0900886,11.0568575 98.1193548,12.3870968 C97.0930754,13.6265438 95.6590902,14.4601763 94.0741935,14.7387097 L100.712903,24.5516129 L93.2129032,24.5516129 L87.6290323,15.0290323 L87.6290323,24.5612903 L81.4064516,24.5612903 L81.4354839,24.5516129 Z M87.6580645,11.7193548 L88.8870968,11.7193548 C89.9831314,11.8038662 91.0784477,11.5469401 92.0225806,10.983871 C92.7048792,10.4266435 93.0672236,9.5678874 92.9903226,8.69032258 C93.0773955,7.7209664 92.7217139,6.76418298 92.0225806,6.08709677 C91.1076126,5.48617065 90.0159199,5.21324748 88.9258065,5.31290323 L87.6,5.31290323 L87.6580645,11.7193548 Z" id="Shape" fill="#006E90"></path>
                <polygon id="Shape" fill="#006E90" points="103.267742 24.5516129 103.267742 0.212903226 118.180645 0.212903226 118.180645 5.55483871 109.732258 5.55483871 109.732258 9.77419355 117.696774 9.77419355 117.696774 14.9903226 109.732258 14.9903226 109.732258 19.0935484 118.180645 19.0935484 118.180645 24.5516129"></polygon>
                <rect id="Rectangle-path" fill="url(#linearGradient-1)" x="0.280645161" y="0.0290322581" width="30.3677419" height="4.81935484"></rect>
                <rect id="Rectangle-path" fill="url(#linearGradient-2)" x="0.280645161" y="9.38709677" width="30.3677419" height="4.81935484"></rect>
                <rect id="Rectangle-path" fill="url(#linearGradient-3)" x="0.280645161" y="19.5967742" width="30.3677419" height="4.81935484"></rect>
            </g>
        </g>
    </g>
</svg>