<svg width="24" height="15" viewBox="0 0 24 15" fill="none" xmlns="http://www.w3.org/2000/svg">
<g clip-path="url(#clip0)">
<rect width="24" height="14.303" rx="2" fill="black"/>
<path d="M3.8076 4.6152C4.25363 4.6152 4.6152 4.25363 4.6152 3.8076C4.6152 3.36158 4.25363 3 3.8076 3C3.36158 3 3 3.36158 3 3.8076C3 4.25363 3.36158 4.6152 3.8076 4.6152Z" fill="#EF4F28"/>
<path d="M4.47274 5.28027H3.14258V10.867H4.47274V5.28027Z" fill="#EF4F28"/>
<path d="M16.3017 4.6152C16.7478 4.6152 17.1093 4.25363 17.1093 3.8076C17.1093 3.36158 16.7478 3 16.3017 3C15.8557 3 15.4941 3.36158 15.4941 3.8076C15.4941 4.25363 15.8557 4.6152 16.3017 4.6152Z" fill="white"/>
<path d="M16.9669 5.28027H15.6367V10.867H16.9669V5.28027Z" fill="white"/>
<path d="M5.03354 9.47025V10.8574C5.03354 10.8574 6.92428 11.152 7.2188 8.71015C7.2188 8.71015 7.37082 6.71491 7.1333 4.79566C7.1333 4.79566 6.89576 3.19946 5.03354 3.19946C5.03354 3.19946 5.39458 3.73153 4.95752 4.61514C4.95752 4.61514 5.80312 4.42512 5.80312 5.28023C5.80312 5.28023 5.97416 6.93343 5.75562 8.97619C5.75562 8.97619 5.74612 9.47025 5.03354 9.47025Z" fill="white"/>
<path d="M9.78382 9.09016C9.81234 9.09016 9.75532 9.39418 9.75532 9.4227C9.70782 9.5652 9.5843 9.66022 9.43228 9.67922C9.10924 9.71722 8.95722 9.4132 8.95722 9.13766V8.42506H9.04274H11.133C11.152 8.42506 11.152 7.78848 11.152 7.75048C11.152 7.27542 11.1045 6.80036 10.9905 6.3348C10.8765 5.86924 10.6484 5.40368 10.2399 5.13766C9.77432 4.83362 9.07124 4.82412 8.59618 5.11866C8.20662 5.36568 7.9026 5.83124 7.77908 6.2683C7.64606 6.75286 7.70306 7.34194 7.70306 7.836C7.70306 8.23504 7.71256 8.6246 7.74108 9.02364C7.77908 9.80274 8.09262 10.8574 9.01424 10.9714C9.5178 11.0379 10.1164 10.9714 10.4774 10.5913C10.867 10.1828 11.152 9.66022 11.152 9.09016C11.1425 9.09016 9.78382 9.09016 9.78382 9.09016ZM9.41328 6.2493C9.41328 6.2493 9.78382 6.2588 9.78382 6.72436V7.37994H8.96672V6.72436C8.96672 6.72436 8.90972 6.2493 9.41328 6.2493Z" fill="white"/>
<path d="M14.9711 6.03081C14.9711 6.03081 14.7526 4.98569 13.8404 4.98569C13.8404 4.98569 13.4224 4.92868 12.9378 5.42273V3.19946H11.7217V10.8764H12.9473V10.4869C12.9473 10.4869 13.2894 10.9999 13.8499 10.9999C14.0495 10.9999 14.249 10.9524 14.4295 10.8479C14.9996 10.4964 15.0186 9.69827 15.0756 9.10921C15.1516 8.08307 15.1801 7.03795 14.9711 6.03081ZM13.7739 6.81941V9.08069C13.7739 9.69827 13.3464 9.66027 13.3464 9.66027C13.0138 9.66027 12.9473 9.31823 12.9473 9.31823V6.81941C12.9473 6.25885 13.3464 6.25885 13.3464 6.25885C13.7834 6.24935 13.7739 6.81941 13.7739 6.81941Z" fill="white"/>
<path d="M17.6791 3.7791C17.6791 4.38717 17.6791 5.00476 17.6791 5.61282C17.6791 6.62946 17.6791 7.63658 17.6791 8.6532C17.6791 9.22328 17.5936 9.81236 17.9737 10.2874C18.3537 10.7625 18.9808 10.905 19.5604 10.905C19.5699 10.905 19.5794 10.905 19.5889 10.905V9.56532C19.5889 9.56532 18.9333 9.66984 18.9333 9.10926V6.34442H19.9594V5.28028H18.9238V3.7791C18.9143 3.7791 17.6791 3.74109 17.6791 3.7791Z" fill="white"/>
</g>
<defs>
<clipPath id="clip0">
<rect width="24" height="14.303" fill="white"/>
</clipPath>
</defs>
</svg>
