<svg width="24" height="15" viewBox="0 0 24 15" fill="none" xmlns="http://www.w3.org/2000/svg">
<g clip-path="url(#clip0)">
<rect width="24" height="14.303" rx="2" fill="#274780"/>
<path d="M5.04923 6.05996L4.59212 8.38759H3.95901L4.4149 6.05996H5.04923Z" fill="white"/>
<path d="M11.7567 6.05996H9.82808L9.7193 6.61576H10.372L10.0249 8.38759H10.6592L11.0063 6.61576H11.648L11.7567 6.05996Z" fill="white"/>
<path d="M6.84344 6.05996L6.58188 7.3955L6.13944 6.05996H5.5051L5.04922 8.38759H5.68233L5.94388 7.05205L6.38755 8.38759H7.02066L7.47777 6.05996H6.84344Z" fill="white"/>
<path d="M7.50954 7.61481H8.11087V7.6589C8.11087 7.83321 8.25971 7.97451 8.44332 7.97451C8.53425 7.98176 8.62305 7.94572 8.68035 7.8783C8.73765 7.81088 8.756 7.72086 8.72932 7.63801C8.65476 7.34561 7.76376 7.4512 7.76376 6.73992C7.76376 6.28507 8.04609 6.00079 8.71098 6.00079C8.91653 5.9915 9.11673 6.06464 9.26271 6.20234C9.40868 6.34004 9.487 6.52964 9.47854 6.72483H8.88332V6.69815C8.8848 6.55534 8.76713 6.43696 8.61687 6.43011C8.55236 6.42195 8.48715 6.43933 8.43653 6.47817C8.38591 6.51701 8.35434 6.57389 8.3492 6.63549C8.3492 6.91513 9.37587 6.84319 9.37587 7.62409V7.66702C9.37587 8.01512 9.1192 8.44444 8.36998 8.44444C7.97276 8.44212 7.52176 8.28432 7.50954 7.61481Z" fill="white"/>
<path d="M20.7707 6.05996H20.1314V8.38759H20.7707V6.05996Z" fill="white"/>
<path d="M12.2726 6.06112L11.1799 8.38759H11.758L11.9316 8.01744H12.5769V8.38759H13.1281V6.06112H12.2726ZM12.1687 7.51154L12.5769 6.64129V7.51154H12.1687Z" fill="white"/>
<path d="M23 6.05996H21.1007V6.63433H21.7509V8.38759H22.3498V6.63433H23V6.05996Z" fill="white"/>
<path d="M16.4183 7.88052V7.40015H17.4242V6.95922H16.4183V6.56703H17.5073V6.05996H15.8243V8.38759H17.5415V7.88052H16.4183Z" fill="white"/>
<path d="M14.5667 6.06112H13.5889V8.38759H14.5667C14.8042 8.38701 15.0316 8.29588 15.1978 8.13465C15.3639 7.97343 15.4549 7.75561 15.4503 7.5301V6.91745C15.4546 6.69214 15.3634 6.47463 15.1973 6.31365C15.0312 6.15268 14.804 6.06171 14.5667 6.06112ZM14.8417 7.44192C14.841 7.68254 14.6368 7.87799 14.3833 7.88052H14.1878V6.56703H14.3833C14.6392 6.56703 14.8465 6.76392 14.8465 7.00679L14.8417 7.44192Z" fill="white"/>
<path d="M19.3553 7.14836C19.3551 7.13701 19.3624 7.12677 19.3737 7.12283C19.5638 7.0485 19.6879 6.8725 19.6878 6.67726V6.6088C19.6864 6.3055 19.4267 6.06048 19.1072 6.06113H17.885V8.38759H19.15C19.3218 8.38759 19.4866 8.3228 19.608 8.20747C19.7295 8.09214 19.7978 7.93572 19.7978 7.77261V7.67747C19.7976 7.4385 19.6255 7.23055 19.381 7.17388C19.3669 7.17273 19.3559 7.16179 19.3553 7.14836ZM18.5193 6.52526H18.8603C18.9987 6.52526 19.1109 6.63176 19.1109 6.76313C19.1109 6.8945 18.9987 7.00099 18.8603 7.00099H18.5193V6.52526ZM19.15 7.66354C19.15 7.79268 19.0415 7.89826 18.9055 7.90141H18.5242V7.42568H18.9055C19.0415 7.42882 19.15 7.53441 19.15 7.66354Z" fill="white"/>
<path d="M3.7451 7.03464L3.93576 6.05996H2.92377L2.7331 7.03464H3.7451Z" fill="white"/>
<path d="M2.65488 7.43264L2.46788 8.38759H3.47988L3.66688 7.43264H2.65488Z" fill="white"/>
<path d="M1.187 7.43264L1 8.38759H2.012L2.199 7.43264H1.187Z" fill="white"/>
</g>
<defs>
<clipPath id="clip0">
<rect width="24" height="14.303" fill="white"/>
</clipPath>
</defs>
</svg>
