<svg width="24" height="15" viewBox="0 0 24 15" fill="none" xmlns="http://www.w3.org/2000/svg">
<g clip-path="url(#clip0)">
<path d="M9.6363 12.8011C9.6363 13.4238 9.28335 13.9287 8.84795 13.9287H0.970483C0.535087 13.9287 0.182129 13.4238 0.182129 12.8011V1.54043C0.182129 0.917679 0.535087 0.412842 0.970483 0.412842H8.84795C9.28335 0.412842 9.6363 0.917679 9.6363 1.54043V12.8011Z" fill="#F0B51C"/>
<path d="M22.9367 0.173828H0.97058C0.443596 0.176213 0.0168044 0.786654 0.0151367 1.5404V12.8184C0.0151367 13.5732 0.442903 14.185 0.97058 14.185H22.9367C23.4626 14.1814 23.8875 13.5706 23.8875 12.8184V1.5404C23.8843 0.790152 23.4612 0.18211 22.9367 0.173828ZM0.97058 13.9286C0.535184 13.9286 0.182225 13.4238 0.182225 12.8011V1.5404C0.182225 0.917653 0.535184 0.412815 0.97058 0.412815H8.84805C9.28344 0.412815 9.6364 0.917653 9.6364 1.5404V12.8184C9.6364 13.4412 9.28344 13.946 8.84805 13.946L0.97058 13.9286ZM23.7205 12.8011C23.7205 13.4213 23.3703 13.9251 22.9367 13.9286H9.38729C9.64682 13.673 9.80232 13.2518 9.80349 12.8011V1.5404C9.80443 1.08895 9.64845 0.666349 9.38729 0.412815H22.9367C23.3721 0.412815 23.725 0.917653 23.725 1.5404L23.7205 12.8011Z" fill="white"/>
<path d="M9.80341 1.54043V12.8185C9.80435 13.2699 9.64837 13.6925 9.38721 13.946H22.9366C23.3702 13.9425 23.7204 13.4387 23.7204 12.8185V1.54043C23.7204 0.920216 23.3702 0.416427 22.9366 0.412842H9.38721C9.64674 0.668451 9.80224 1.08973 9.80341 1.54043Z" fill="#555555"/>
<path d="M5.4592 7.31948V4.89702L5.90275 4.74711V5.06431C5.97367 4.82659 6.11251 4.64384 6.28401 4.56244C6.32342 4.5421 6.36597 4.53759 6.40705 4.5494V5.16425C6.32751 5.16585 6.24901 5.19023 6.17616 5.23595C6.00851 5.33021 5.90538 5.5728 5.92401 5.82907V7.16957L5.45312 7.326L5.4592 7.31948Z" fill="#1C1601"/>
<path d="M3.13078 8.10393C3.13078 8.10393 3.05787 7.9475 3.05787 7.40435V6.19855L2.83154 6.27676V5.77706L3.05787 5.69885V5.16221L3.52876 4.99927V5.54459L3.86142 5.43162V5.93132L3.53028 6.04212V7.26747C3.53028 7.82366 3.63509 7.93447 3.63509 7.93447L3.1323 8.10393H3.13078Z" fill="#1C1601"/>
<path d="M3.90986 6.66552C3.89523 6.32631 3.94178 5.98741 4.04505 5.68133C4.16031 5.38775 4.36157 5.18361 4.5934 5.12514C5.10986 4.95568 5.29517 5.3902 5.28606 5.98115C5.28606 6.19841 5.28606 6.29183 5.28606 6.29183L4.37467 6.596V6.61555C4.37467 7.024 4.43391 7.21736 4.61467 7.16522C4.73997 7.13979 4.83169 6.9833 4.82733 6.80239C4.82733 6.77632 4.82733 6.70463 4.82733 6.70463L5.25264 6.56123V6.66552C5.25264 6.89799 5.20252 7.4759 4.61011 7.67578C4.06024 7.85828 3.90986 7.37162 3.90986 6.66552ZM4.61619 5.57921C4.46429 5.63136 4.3853 5.83776 4.3853 6.18755L4.841 6.03112V5.92683C4.83948 5.64874 4.78479 5.51838 4.61771 5.57052L4.61619 5.57921Z" fill="#1C1601"/>
<path d="M7.9913 5.24692C7.97307 4.50823 8.10978 3.92597 8.68396 3.73696C9.05155 3.61963 9.1913 3.75651 9.25965 3.88687C9.33245 4.04388 9.36616 4.23139 9.35535 4.41916V4.46478L8.89965 4.62121V4.52996C8.89965 4.25186 8.84497 4.14106 8.70067 4.1932C8.52902 4.25186 8.46067 4.48433 8.46067 4.94493V5.16219C8.46067 5.6293 8.50624 5.84222 8.70067 5.78356C8.8951 5.7249 8.8951 5.5185 8.8951 5.32948V5.20564L9.35079 5.05573V5.1535C9.3772 5.71871 9.09552 6.21806 8.70371 6.30064C8.12801 6.48531 8.00953 6.00516 7.9913 5.24692Z" fill="#1C1601"/>
<path d="M6.4375 6.28316C6.4375 5.72045 6.66839 5.54447 7.01319 5.34459C7.32611 5.16209 7.33066 5.07301 7.33066 4.91006C7.33066 4.74712 7.29117 4.65804 7.13927 4.71453C7.03315 4.74506 6.9561 4.87694 6.95395 5.03173C6.95395 5.09691 6.95395 5.15557 6.95395 5.15557L6.51952 5.30548C6.51808 5.18084 6.52882 5.05652 6.55142 4.93614C6.61978 4.59938 6.82788 4.37343 7.18636 4.25611C7.64205 4.09968 7.80307 4.39298 7.80762 4.84489V5.91381C7.80762 6.43307 7.87598 6.50911 7.87598 6.50911L7.45066 6.6525C7.42636 6.58279 7.40653 6.51007 7.39142 6.43524C7.30842 6.66831 7.15481 6.83349 6.97522 6.8828C6.61978 6.99577 6.4375 6.69161 6.4375 6.28316ZM7.33066 5.51188C7.25819 5.58124 7.18258 5.64366 7.10433 5.69872C6.97946 5.758 6.89546 5.92551 6.89623 6.11369C6.89375 6.18514 6.91602 6.25377 6.95578 6.29718C6.99553 6.34059 7.04769 6.35322 7.09522 6.33095C7.24577 6.26767 7.34426 6.06136 7.33066 5.83777V5.51188Z" fill="#1C1601"/>
<path d="M0.675809 9.80291C0.525644 9.80291 0.403911 9.6288 0.403911 9.41401C0.402368 9.33647 0.418349 9.26028 0.44948 9.19675L1.08897 8.97949V9.67256H1.07986C0.927961 9.7247 0.762392 9.77684 0.725936 9.78988C0.68948 9.80291 0.694037 9.80291 0.675809 9.80291Z" fill="#1C1601"/>
<path d="M0.675809 10.6894C0.525644 10.6894 0.403911 10.5153 0.403911 10.3005C0.402368 10.2229 0.418349 10.1468 0.44948 10.0832L1.08897 9.86597V10.559H1.07986C0.927961 10.6112 0.762392 10.6698 0.725936 10.6764C0.68948 10.6829 0.694037 10.6894 0.675809 10.6894Z" fill="#1C1601"/>
<path d="M0.675809 11.5778C0.525644 11.5778 0.403911 11.4037 0.403911 11.1889C0.402368 11.1114 0.418349 11.0352 0.44948 10.9717L1.09201 10.7544V11.4475H1.0829C0.930999 11.4996 0.760873 11.5583 0.728974 11.5648C0.71159 11.5716 0.693784 11.5759 0.675809 11.5778Z" fill="#1C1601"/>
<path d="M0.607422 8.95329V5.07083L1.10109 4.90137V8.78383L0.607422 8.95329Z" fill="#1C1601"/>
<path d="M1.83513 8.62324C1.83513 8.38326 1.69912 8.18872 1.53134 8.18872C1.36355 8.18872 1.22754 8.38326 1.22754 8.62324V12.2515C1.22754 12.903 1.59682 13.4312 2.05235 13.4312H2.91817V10.2223C2.91649 10.0308 2.84736 9.85352 2.73437 9.75083L1.97488 9.00562V10.7024C1.97408 10.7559 1.94394 10.799 1.90653 10.8002C1.88879 10.8003 1.87183 10.7898 1.85972 10.7712C1.84762 10.7527 1.84146 10.7277 1.84273 10.7024C1.83513 10.6829 1.83513 8.84268 1.83513 8.62324Z" fill="#1C1601"/>
<path d="M2.2482 5.91384C2.05854 5.97456 1.89763 6.15295 1.80921 6.40051V6.12893L1.36719 6.27667V8.01476C1.42066 7.98604 1.47717 7.97061 1.53428 7.96913C1.6464 7.96574 1.75515 8.02407 1.83807 8.13208V7.00884C1.81916 6.77972 1.91286 6.56207 2.0644 6.48307C2.16466 6.45048 2.24972 6.50262 2.24972 6.76116V8.40148L2.72061 8.24505V6.51783C2.71453 6.0833 2.59605 5.79652 2.2482 5.91384Z" fill="#1C1601"/>
<path d="M9.06552 3.42613C8.90529 3.42613 8.77539 3.24034 8.77539 3.01116C8.77539 2.78198 8.90529 2.59619 9.06552 2.59619C9.22575 2.59619 9.35564 2.78198 9.35564 3.01116C9.35605 3.12139 9.32561 3.22728 9.27112 3.30523C9.21662 3.38318 9.14259 3.42671 9.06552 3.42613ZM9.06552 2.64833C8.92542 2.64833 8.81185 2.81078 8.81185 3.01116C8.81185 3.21154 8.92542 3.37399 9.06552 3.37399C9.20562 3.37399 9.31919 3.21154 9.31919 3.01116C9.31919 2.91493 9.29246 2.82265 9.24489 2.7546C9.19732 2.68656 9.1328 2.64833 9.06552 2.64833Z" fill="#1C1601"/>
<path d="M8.96191 2.76582H9.08951C9.11461 2.76066 9.13995 2.77272 9.15789 2.79838C9.17582 2.82403 9.18426 2.86027 9.18065 2.89618C9.18065 2.96136 9.16242 3.0135 9.12141 3.02002C9.15786 3.02002 9.17609 3.0526 9.17609 3.1243V3.22859C9.17482 3.24777 9.18211 3.26604 9.19432 3.27421H9.129C9.12264 3.26078 9.11945 3.2448 9.11989 3.22859C9.12202 3.19607 9.12202 3.16334 9.11989 3.13082C9.11989 3.07216 9.10622 3.0526 9.06976 3.0526H9.02419V3.26987H8.96191V2.76582ZM9.06217 2.98308C9.09862 2.98308 9.11685 2.95049 9.11685 2.89835C9.11685 2.84621 9.09862 2.81362 9.06217 2.81362H9.01204V2.97656H9.06217V2.98308Z" fill="#1C1601"/>
<path d="M10.9368 7.35642V7.53892C10.9368 7.8105 10.9869 8.07773 11.1403 8.07773C11.2937 8.07773 11.3347 7.92782 11.3575 7.64321H11.7297C11.716 8.17984 11.5352 8.47315 11.1449 8.47315C10.5464 8.47315 10.519 7.82136 10.519 7.23476C10.519 6.61991 10.6056 6.04199 11.1616 6.04199C11.6461 6.04199 11.7555 6.5091 11.7555 7.2152V7.35208L10.9368 7.35642ZM11.3621 7.00663C11.353 6.65684 11.3211 6.45696 11.154 6.45696C10.9869 6.45696 10.9368 6.70247 10.9368 6.91755V7.0088L11.3621 7.00663Z" fill="white"/>
<path d="M12.934 6.92847V7.43469H12.0864V6.92847H12.934Z" fill="white"/>
<path d="M14.4306 5.36206V5.86611H13.9642V8.42544H13.5344V5.86611H13.0635V5.36206H14.4306Z" fill="white"/>
<path d="M14.4199 6.11384H14.8133V6.42452C14.8765 6.20825 15.0217 6.06413 15.1855 6.05518C15.2083 6.05518 15.2356 6.05518 15.263 6.05518V6.61788C15.2205 6.61461 15.1779 6.61461 15.1354 6.61788C15.0554 6.6085 14.9764 6.6485 14.9183 6.7278C14.8603 6.80709 14.8287 6.91811 14.8316 7.03285V8.41898H14.4199V6.11384Z" fill="white"/>
<path d="M15.448 6.82645V6.76779C15.448 6.2355 15.7017 6.05518 16.0146 6.05518C16.5083 6.05518 16.5994 6.34631 16.5994 6.76127V7.97359C16.5914 8.12633 16.6086 8.27962 16.6495 8.42115H16.2531C16.2276 8.34581 16.2107 8.26513 16.203 8.18216C16.1223 8.39576 15.9558 8.51266 15.7883 8.47329C15.4981 8.47329 15.3994 8.1235 15.3994 7.82151C15.3994 7.38699 15.5225 7.21318 15.8065 7.10237L16.0419 7.01112C16.165 6.9655 16.2045 6.8938 16.2045 6.73955C16.2045 6.58529 16.1498 6.45494 16.0146 6.45494C15.9603 6.45167 15.9078 6.48297 15.8711 6.5404C15.8345 6.59784 15.8175 6.67552 15.8247 6.75258V6.81776L15.448 6.8308V6.82645ZM16.2075 7.26097C16.1536 7.31335 16.0941 7.35297 16.0313 7.3783C15.8642 7.43044 15.7959 7.54776 15.7959 7.75416C15.7959 7.96056 15.8414 8.07788 15.9478 8.07788C16.0151 8.08213 16.0807 8.04618 16.1288 7.97862C16.1769 7.91106 16.2032 7.81796 16.2014 7.72157V7.26749L16.2075 7.26097Z" fill="white"/>
<path d="M16.9077 6.11372H17.3011V6.3853C17.3823 6.17088 17.5425 6.04238 17.7128 6.05506C17.971 6.05506 18.1244 6.25494 18.1244 6.70684V8.41669H17.7128V6.82634C17.7128 6.59387 17.6581 6.50262 17.5366 6.50262C17.4151 6.50262 17.3194 6.62645 17.3194 6.885V8.42103H16.9077V6.11372Z" fill="white"/>
<path d="M18.7547 7.66728V7.74549C18.7471 7.83312 18.7668 7.92112 18.8087 7.98602C18.8505 8.05092 18.9103 8.08613 18.972 8.08225C19.0996 8.08225 19.1801 7.991 19.1801 7.81067C19.1793 7.68354 19.1156 7.57505 19.0282 7.55213L18.738 7.40222C18.5303 7.32783 18.3868 7.05659 18.3932 6.75044C18.3932 6.36806 18.5603 6.05737 18.9872 6.05737C19.3639 6.05737 19.5401 6.29636 19.5401 6.70916V6.80692H19.1679C19.1679 6.57446 19.1178 6.45713 18.9872 6.45713C18.938 6.44914 18.8888 6.47128 18.8518 6.51808C18.8147 6.56487 18.7933 6.63194 18.7927 6.70264C18.7927 6.81344 18.8337 6.9199 18.9735 6.97422L19.2226 7.09805C19.4854 7.22189 19.5811 7.40874 19.5811 7.74984C19.5811 8.2365 19.3274 8.47549 18.9826 8.47549C18.5163 8.47549 18.3887 8.18436 18.3887 7.74332V7.64555L18.7547 7.66728Z" fill="white"/>
<path d="M19.92 6.51796H19.7119V6.11385H19.92V5.85314C19.92 5.43817 20.0825 5.30347 20.3499 5.30347C20.4274 5.30347 20.5018 5.30347 20.5717 5.3165V5.73799C20.5444 5.73472 20.5169 5.73472 20.4896 5.73799C20.3712 5.73799 20.3377 5.79013 20.3377 5.92049V6.12037H20.5777V6.51796H20.3377V8.42334H19.9261V6.51796H19.92Z" fill="white"/>
<path d="M21.1138 7.35642V7.53892C21.1138 7.8105 21.1639 8.07773 21.3173 8.07773C21.4708 8.07773 21.5118 7.92782 21.5346 7.64321H21.9067C21.8991 8.17984 21.7214 8.47315 21.328 8.47315C20.7204 8.47315 20.7021 7.82136 20.7021 7.23476C20.7021 6.61991 20.7887 6.04199 21.3447 6.04199C21.8292 6.04199 21.9386 6.5091 21.9386 7.2152V7.35208L21.1138 7.35642ZM21.5346 7.00663C21.5254 6.65684 21.4935 6.45696 21.3265 6.45696C21.1594 6.45696 21.1138 6.70247 21.1138 6.91755V7.0088L21.5346 7.00663Z" fill="white"/>
<path d="M22.1984 6.11384H22.5918V6.42452C22.6549 6.20825 22.8002 6.06413 22.9639 6.05518C22.9867 6.05518 23.014 6.05518 23.0414 6.05518V6.61788C22.9979 6.61457 22.9543 6.61457 22.9108 6.61788C22.8308 6.6085 22.7518 6.6485 22.6937 6.7278C22.6357 6.80709 22.6041 6.91811 22.607 7.03285V8.41898H22.1953V6.11166L22.1984 6.11384Z" fill="white"/>
</g>
<defs>
<clipPath id="clip0">
<rect width="24" height="14.303" fill="white"/>
</clipPath>
</defs>
</svg>
