<svg width="24" height="15" viewBox="0 0 24 15" fill="none" xmlns="http://www.w3.org/2000/svg">
<g clip-path="url(#clip0)">
<rect width="24" height="14.303" rx="2" fill="#030303"/>
<path d="M7.7579 12.5034V11.7906C7.76213 11.7307 7.7533 11.6706 7.73201 11.6142C7.71071 11.5579 7.67743 11.5067 7.63439 11.464C7.59135 11.4213 7.53953 11.388 7.48239 11.3665C7.42525 11.345 7.3641 11.3357 7.30301 11.3393C7.22305 11.3341 7.14314 11.3501 7.07164 11.3856C7.00014 11.4212 6.93966 11.4749 6.89651 11.5412C6.85719 11.4769 6.80092 11.4242 6.73363 11.3886C6.66635 11.3531 6.59055 11.336 6.51421 11.3393C6.44768 11.3359 6.38142 11.3498 6.322 11.3794C6.26258 11.4089 6.21207 11.4533 6.17547 11.5079V11.3678H5.92383V12.5034H6.17789V11.8785C6.17248 11.8397 6.17588 11.8002 6.18785 11.7628C6.19981 11.7254 6.22003 11.6911 6.24708 11.6622C6.27413 11.6334 6.30733 11.6108 6.3443 11.596C6.38128 11.5813 6.42112 11.5747 6.46098 11.5768C6.62794 11.5768 6.71262 11.6837 6.71262 11.8762V12.5081H6.96668V11.8785C6.9615 11.8397 6.96506 11.8003 6.9771 11.763C6.98914 11.7257 7.00938 11.6915 7.03638 11.6627C7.06338 11.6339 7.09649 11.6113 7.13336 11.5965C7.17023 11.5816 7.20998 11.5749 7.24978 11.5768C7.42157 11.5768 7.50384 11.6837 7.50384 11.8762V12.5081L7.7579 12.5034ZM11.5168 11.3678H11.103V11.0233H10.849V11.3678H10.6191V11.5935H10.8538V12.1161C10.8538 12.3798 10.9578 12.5366 11.2555 12.5366C11.3666 12.537 11.4757 12.5065 11.57 12.4487L11.4974 12.2373C11.4299 12.2768 11.3533 12.2989 11.2748 12.3014C11.1538 12.3014 11.1079 12.2254 11.1079 12.1114V11.5935H11.5192L11.5168 11.3678ZM13.663 11.3393C13.6016 11.3375 13.5409 11.352 13.4873 11.3813C13.4336 11.4105 13.389 11.4535 13.3581 11.5056V11.3678H13.1089V12.5034H13.3605V11.8667C13.3605 11.679 13.4428 11.5744 13.6025 11.5744C13.6563 11.5737 13.7098 11.5834 13.7598 11.603L13.8372 11.3654C13.7797 11.3452 13.7192 11.3348 13.6581 11.3345L13.663 11.3393ZM10.4183 11.458C10.2758 11.3749 10.1121 11.3337 9.94644 11.3393C9.65367 11.3393 9.46252 11.477 9.46252 11.7027C9.46252 11.888 9.60286 12.0021 9.86176 12.0377L9.98274 12.0543C10.1207 12.0733 10.186 12.109 10.186 12.1731C10.186 12.261 10.094 12.3109 9.92225 12.3109C9.78406 12.3148 9.64855 12.273 9.53753 12.1921L9.41655 12.3846C9.56313 12.4851 9.7387 12.5367 9.91741 12.5319C10.2513 12.5319 10.4449 12.3774 10.4449 12.1612C10.4449 11.9451 10.2924 11.8572 10.0408 11.8215L9.91983 11.8049C9.81095 11.7906 9.72384 11.7693 9.72384 11.6932C9.72384 11.6172 9.80611 11.5602 9.94402 11.5602C10.0715 11.5616 10.1965 11.5952 10.307 11.6576L10.4183 11.458ZM17.1581 11.3393C17.0968 11.3375 17.0361 11.352 16.9824 11.3813C16.9287 11.4105 16.8841 11.4535 16.8532 11.5056V11.3678H16.604V12.5034H16.8557V11.8667C16.8557 11.679 16.9379 11.5744 17.0976 11.5744C17.1514 11.5737 17.2049 11.5834 17.2549 11.603L17.3323 11.3654C17.2749 11.3452 17.2143 11.3348 17.1533 11.3345L17.1581 11.3393ZM13.9158 11.9332C13.9128 12.013 13.9268 12.0925 13.957 12.1667C13.9871 12.2409 14.0326 12.3081 14.0907 12.364C14.1488 12.4199 14.2181 12.4633 14.2942 12.4914C14.3704 12.5195 14.4516 12.5316 14.5328 12.5271C14.6839 12.5347 14.8324 12.4863 14.949 12.3917L14.828 12.1921C14.741 12.2573 14.635 12.2931 14.5256 12.2943C14.4326 12.2869 14.3458 12.2454 14.2825 12.1781C14.2192 12.1107 14.1841 12.0224 14.1841 11.9308C14.1841 11.8392 14.2192 11.7509 14.2825 11.6836C14.3458 11.6162 14.4326 11.5747 14.5256 11.5673C14.635 11.5685 14.741 11.6043 14.828 11.6695L14.949 11.4699C14.8324 11.3753 14.6839 11.327 14.5328 11.3345C14.4516 11.33 14.3704 11.3422 14.2942 11.3702C14.2181 11.3983 14.1488 11.4417 14.0907 11.4976C14.0326 11.5535 13.9871 11.6207 13.957 11.6949C13.9268 11.7691 13.9128 11.8486 13.9158 11.9284V11.9332ZM16.2725 11.9332V11.3678H16.0209V11.5056C15.9782 11.4516 15.923 11.4083 15.8599 11.3794C15.7968 11.3505 15.7275 11.3367 15.658 11.3393C15.4975 11.3393 15.3437 11.4018 15.2302 11.5132C15.1168 11.6246 15.053 11.7757 15.053 11.9332C15.053 12.0907 15.1168 12.2418 15.2302 12.3532C15.3437 12.4645 15.4975 12.5271 15.658 12.5271C15.7275 12.5296 15.7968 12.5159 15.8599 12.487C15.923 12.458 15.9782 12.4148 16.0209 12.3608V12.4986H16.2725V11.9332ZM15.3361 11.9332C15.3402 11.8663 15.364 11.8021 15.4047 11.7484C15.4454 11.6947 15.5013 11.6538 15.5653 11.6309C15.6294 11.6079 15.6989 11.6039 15.7653 11.6192C15.8317 11.6346 15.892 11.6686 15.9389 11.7172C15.9859 11.7658 16.0173 11.8268 16.0293 11.8928C16.0414 11.9587 16.0335 12.0266 16.0067 12.0882C15.9799 12.1498 15.9354 12.2023 15.8786 12.2394C15.8218 12.2764 15.7552 12.2963 15.687 12.2967C15.6391 12.2973 15.5916 12.2881 15.5474 12.2698C15.5033 12.2515 15.4635 12.2244 15.4306 12.1903C15.3976 12.1561 15.3722 12.1157 15.356 12.0714C15.3397 12.0272 15.333 11.9801 15.3361 11.9332V11.9332ZM12.2995 11.3393C12.1391 11.3415 11.9861 11.4061 11.8743 11.5191C11.7624 11.632 11.7008 11.784 11.7031 11.9415C11.7053 12.099 11.7712 12.2492 11.8862 12.359C12.0013 12.4689 12.156 12.5293 12.3165 12.5271C12.4905 12.5359 12.6617 12.4808 12.7968 12.3727L12.6758 12.1898C12.5802 12.265 12.4619 12.3068 12.3394 12.3085C12.2563 12.3156 12.1736 12.2905 12.109 12.2385C12.0443 12.1866 12.0029 12.112 11.9934 12.0306H12.8524C12.8524 11.9997 12.8524 11.9688 12.8524 11.9356C12.8524 11.5792 12.6274 11.3416 12.3032 11.3416L12.2995 11.3393ZM12.2995 11.5602C12.3372 11.5594 12.3746 11.5659 12.4097 11.5793C12.4448 11.5928 12.4769 11.6128 12.5041 11.6384C12.5312 11.664 12.553 11.6946 12.5682 11.7285C12.5833 11.7623 12.5915 11.7988 12.5923 11.8358H11.9874C11.9918 11.7595 12.0264 11.688 12.0838 11.6365C12.1413 11.585 12.2169 11.5576 12.2947 11.5602H12.2995ZM18.6038 11.9356V10.9116H18.3619V11.5056C18.3191 11.4516 18.2639 11.4083 18.2008 11.3794C18.1377 11.3505 18.0685 11.3367 17.9989 11.3393C17.8385 11.3393 17.6846 11.4018 17.5712 11.5132C17.4578 11.6246 17.394 11.7757 17.394 11.9332C17.394 12.0907 17.4578 12.2418 17.5712 12.3532C17.6846 12.4645 17.8385 12.5271 17.9989 12.5271C18.0685 12.5296 18.1377 12.5159 18.2008 12.487C18.2639 12.458 18.3191 12.4148 18.3619 12.3608V12.4986H18.6038V11.9356ZM19.0236 12.3382C19.0394 12.3381 19.055 12.3409 19.0696 12.3466C19.0835 12.3521 19.0962 12.3602 19.1071 12.3703C19.1178 12.3806 19.1264 12.3926 19.1325 12.4059C19.1387 12.4198 19.1418 12.4348 19.1418 12.4499C19.1418 12.465 19.1387 12.48 19.1325 12.4939C19.1264 12.5072 19.1178 12.5192 19.1071 12.5295C19.0962 12.5396 19.0835 12.5477 19.0696 12.5532C19.0551 12.5595 19.0395 12.5628 19.0236 12.5627C19.0007 12.5626 18.9783 12.556 18.959 12.5438C18.9397 12.5316 18.9244 12.5143 18.9148 12.4939C18.9087 12.48 18.9056 12.465 18.9056 12.4499C18.9056 12.4348 18.9087 12.4198 18.9148 12.4059C18.9209 12.3926 18.9295 12.3806 18.9402 12.3703C18.9511 12.3602 18.9638 12.3521 18.9777 12.3466C18.9934 12.3404 19.0103 12.3376 19.0273 12.3382H19.0236ZM19.0236 12.539C19.0357 12.5391 19.0477 12.5366 19.0587 12.5319C19.0691 12.5273 19.0786 12.5209 19.0866 12.5129C19.1017 12.4966 19.1101 12.4755 19.1101 12.4535C19.1101 12.4315 19.1017 12.4103 19.0866 12.3941C19.0786 12.3861 19.0691 12.3796 19.0587 12.3751C19.0477 12.3703 19.0357 12.3679 19.0236 12.3679C19.0116 12.368 18.9997 12.3704 18.9886 12.3751C18.9777 12.3794 18.9678 12.3859 18.9595 12.3941C18.9444 12.4103 18.936 12.4315 18.936 12.4535C18.936 12.4755 18.9444 12.4966 18.9595 12.5129C18.9678 12.521 18.9777 12.5275 18.9886 12.5319C19.0008 12.537 19.014 12.5395 19.0273 12.539H19.0236ZM19.0309 12.3976C19.0422 12.3971 19.0533 12.4005 19.0624 12.4071C19.0661 12.4101 19.069 12.414 19.0709 12.4183C19.0728 12.4227 19.0736 12.4274 19.0732 12.4321C19.0734 12.436 19.0728 12.44 19.0713 12.4436C19.0698 12.4473 19.0676 12.4507 19.0648 12.4535C19.0578 12.4597 19.0488 12.4635 19.0394 12.4642L19.0745 12.5034H19.0466L19.014 12.4642H19.0031V12.5034H18.9801V12.3988L19.0309 12.3976ZM19.0043 12.4178V12.4463H19.0309C19.0356 12.4477 19.0407 12.4477 19.0454 12.4463C19.0463 12.4447 19.0467 12.4428 19.0467 12.441C19.0467 12.4391 19.0463 12.4373 19.0454 12.4356C19.0463 12.434 19.0467 12.4322 19.0467 12.4303C19.0467 12.4284 19.0463 12.4266 19.0454 12.425C19.0407 12.4236 19.0356 12.4236 19.0309 12.425L19.0043 12.4178ZM17.6735 11.9356C17.6775 11.8687 17.7013 11.8045 17.7421 11.7508C17.7828 11.6971 17.8386 11.6562 17.9027 11.6333C17.9668 11.6103 18.0363 11.6063 18.1026 11.6216C18.169 11.6369 18.2294 11.671 18.2763 11.7196C18.3232 11.7682 18.3546 11.8292 18.3667 11.8951C18.3787 11.961 18.3709 12.029 18.3441 12.0906C18.3173 12.1521 18.2728 12.2047 18.216 12.2417C18.1591 12.2788 18.0925 12.2987 18.0243 12.299C17.9764 12.2996 17.9289 12.2905 17.8848 12.2722C17.8407 12.2539 17.8009 12.2268 17.7679 12.1927C17.735 12.1585 17.7096 12.1181 17.6933 12.0738C17.6771 12.0296 17.6703 11.9825 17.6735 11.9356V11.9356ZM9.17701 11.9356V11.3678H8.92536V11.5056C8.88263 11.4516 8.82743 11.4083 8.76433 11.3794C8.70122 11.3505 8.63201 11.3367 8.56242 11.3393C8.40199 11.3393 8.24813 11.4018 8.13469 11.5132C8.02125 11.6246 7.95752 11.7757 7.95752 11.9332C7.95752 12.0907 8.02125 12.2418 8.13469 12.3532C8.24813 12.4645 8.40199 12.5271 8.56242 12.5271C8.63201 12.5296 8.70122 12.5159 8.76433 12.487C8.82743 12.458 8.88263 12.4148 8.92536 12.3608V12.4986H9.17701V11.9356ZM8.24061 11.9356C8.24463 11.8687 8.26846 11.8045 8.30918 11.7508C8.34991 11.6971 8.40574 11.6562 8.4698 11.6333C8.53387 11.6103 8.60337 11.6063 8.66976 11.6216C8.73614 11.6369 8.79651 11.671 8.84342 11.7196C8.89033 11.7682 8.92174 11.8292 8.93378 11.8951C8.94583 11.961 8.93797 12.029 8.9112 12.0906C8.88442 12.1521 8.83988 12.2047 8.78307 12.2417C8.72626 12.2788 8.65965 12.2987 8.59146 12.299C8.54335 12.3 8.49558 12.2911 8.45116 12.2729C8.40675 12.2547 8.36666 12.2277 8.33345 12.1935C8.30023 12.1594 8.27461 12.1188 8.25821 12.0744C8.24182 12.03 8.235 11.9827 8.23819 11.9356H8.24061Z" fill="white"/>
<path d="M14.1454 2.71436H10.3345V9.43883H14.1454V2.71436Z" fill="#FF5F00"/>
<path d="M10.5764 6.07719C10.5757 5.42948 10.7251 4.79011 11.0133 4.20748C11.3015 3.62486 11.7209 3.11426 12.2399 2.71435C11.5973 2.21857 10.8257 1.91027 10.0132 1.82469C9.20067 1.73911 8.38001 1.87971 7.64502 2.23041C6.91002 2.58111 6.29034 3.12777 5.85681 3.80791C5.42327 4.48805 5.19336 5.27423 5.19336 6.07659C5.19336 6.87896 5.42327 7.66514 5.85681 8.34528C6.29034 9.02541 6.91002 9.57208 7.64502 9.92278C8.38001 10.2735 9.20067 10.4141 10.0132 10.3285C10.8257 10.2429 11.5973 9.93462 12.2399 9.43883C11.7211 9.03905 11.3017 8.52864 11.0135 7.94624C10.7253 7.36384 10.5759 6.7247 10.5764 6.07719V6.07719Z" fill="#EB001B"/>
<path d="M19.2874 6.07719C19.2874 6.87962 19.0574 7.66585 18.6238 8.34601C18.1902 9.02617 17.5704 9.57282 16.8353 9.92348C16.1002 10.2741 15.2795 10.4146 14.4669 10.3289C13.6543 10.2432 12.8827 9.93478 12.2402 9.43884C12.7588 9.0387 13.178 8.52815 13.4663 7.94572C13.7546 7.36328 13.9044 6.72417 13.9044 6.0766C13.9044 5.42903 13.7546 4.78992 13.4663 4.20748C13.178 3.62505 12.7588 3.1145 12.2402 2.71436C12.8827 2.21842 13.6543 1.90997 14.4669 1.82427C15.2795 1.73857 16.1002 1.87907 16.8353 2.22973C17.5704 2.58038 18.1902 3.12703 18.6238 3.80719C19.0574 4.48736 19.2874 5.27358 19.2874 6.07601V6.07719Z" fill="#F79E1B"/>
<path d="M18.8708 8.72612V8.58832H18.9277V8.55981H18.7837V8.58832H18.8454V8.72612H18.8708ZM19.1503 8.72612V8.55981H19.1067L19.0559 8.6786L19.0051 8.55981H18.9664V8.72612H18.9978V8.60139L19.045 8.70949H19.0777L19.1249 8.60139V8.7273L19.1503 8.72612Z" fill="#F79E1B"/>
</g>
<defs>
<clipPath id="clip0">
<rect width="24" height="14.303" fill="white"/>
</clipPath>
</defs>
</svg>
