<svg width="24" height="15" viewBox="0 0 24 15" fill="none" xmlns="http://www.w3.org/2000/svg">
<g clip-path="url(#clip0)">
<rect width="24" height="14.303" rx="2" fill="#8DC640"/>
<path fill-rule="evenodd" clip-rule="evenodd" d="M20.3171 6.94609C20.2083 7.02018 20.0506 7.0568 19.8347 7.0568H19.741H19.6206L19.7847 6.18984H19.8679H19.9422C20.1214 6.18984 20.2523 6.21804 20.3425 6.27527C20.413 6.32016 20.4965 6.40902 20.4965 6.57764C20.4965 6.7808 20.3993 6.8901 20.3171 6.94609V6.94609ZM7.54504 8.03415H5.88813L5.99522 7.46747H7.03449L7.1526 6.82919H6.12331L6.2228 6.26835H7.87682L7.54504 8.03415V8.03415ZM21.2096 5.78192C20.966 5.61864 20.5974 5.53638 20.1141 5.53638H18.8482L18.3777 8.03424H16.7195L16.8258 7.46755H17.8248L17.9436 6.83103L16.9452 6.83278L17.0521 6.26851H18.0809L18.2178 5.53646H16.128L15.6813 7.90608H14.915L15.3649 5.53646H14.2724L13.8258 7.90608H13.0786L13.5289 5.53646H12.4375L11.9657 8.03432H10.2958L10.401 7.46763H11.4045L11.5227 6.83478L10.5207 6.83386L10.6271 6.26851H11.6673L11.8035 5.53646H5.29284L4.92224 7.51594L4.18394 5.53638H3.0508L2.44092 8.76671H3.52303L3.8921 6.73283L4.60864 8.76671H8.48721L8.95868 6.26843H9.56557L9.09385 8.76671H19.2995L19.5951 7.18955L20.0743 8.76671H21.157L20.661 7.47806L20.7742 7.45412C21.0237 7.40189 21.219 7.28933 21.3545 7.12071C21.4903 6.95051 21.5593 6.73199 21.5593 6.46951C21.5593 6.1638 21.4452 5.93903 21.2096 5.78192V5.78192Z" fill="white"/>
</g>
<defs>
<clipPath id="clip0">
<rect width="24" height="14.303" fill="white"/>
</clipPath>
</defs>
</svg>
