<svg width="24" height="15" viewBox="0 0 24 15" fill="none" xmlns="http://www.w3.org/2000/svg">
<g clip-path="url(#clip0)">
<rect width="24" height="14.303" rx="2" fill="#57A3D7"/>
<path fill-rule="evenodd" clip-rule="evenodd" d="M5.80081 6.98004C5.79869 6.91425 5.76703 6.88026 5.7054 6.87806H5.37685C5.29894 6.88268 5.2589 6.92448 5.25691 7.00302V7.58186C5.2589 7.663 5.30323 7.70433 5.38974 7.70669H5.69079C5.72213 7.70669 5.74815 7.69529 5.76891 7.67208C5.79055 7.65469 5.80081 7.63225 5.80081 7.6045V6.98004V6.98004ZM4.83496 6.89787C4.83711 6.75307 4.87004 6.64299 4.93398 6.56772C4.96739 6.53625 5.00937 6.50985 5.06028 6.48804C5.11316 6.46483 5.16444 6.45361 5.21421 6.45361H5.81746C6.08354 6.45585 6.21881 6.59831 6.22313 6.88138V7.75257C6.22109 7.85305 6.18097 7.94026 6.10316 8.01321C6.02632 8.0898 5.93438 8.12885 5.82741 8.13119H5.25691V8.75928H4.83496V6.89787V6.89787Z" fill="white"/>
<path fill-rule="evenodd" clip-rule="evenodd" d="M6.98455 7.62265C6.98455 7.64687 6.9959 7.66606 7.01834 7.68039C7.03814 7.69771 7.06318 7.70669 7.09481 7.70669H7.41899C7.49234 7.70669 7.53028 7.67888 7.53241 7.62265V7.50413C7.53241 7.43948 7.49372 7.40685 7.41589 7.40685H7.09481C7.05265 7.40685 7.02345 7.41367 7.00717 7.42668C6.99216 7.442 6.98455 7.4723 6.98455 7.51721V7.62265V7.62265ZM7.53241 6.96984C7.53453 6.90633 7.49685 6.87598 7.41888 6.87806H6.56892V6.45361H7.52594C7.80464 6.458 7.94613 6.58995 7.95088 6.8502V7.73811C7.94852 7.85045 7.91344 7.94301 7.84529 8.01664C7.77398 8.0929 7.68215 8.13119 7.56956 8.13119H6.99108C6.70954 8.12886 6.56685 8.00306 6.5625 7.75286V7.41028C6.56465 7.1488 6.70111 7.01597 6.97108 7.01138H7.53241V6.96984V6.96984Z" fill="white"/>
<path fill-rule="evenodd" clip-rule="evenodd" d="M9.13633 8.33479C9.16982 8.33279 9.19865 8.32098 9.22225 8.2999C9.24487 8.28022 9.25619 8.2576 9.25619 8.232V8.13119H8.71595C8.64541 8.13119 8.58909 8.12241 8.54706 8.10491C8.50272 8.08895 8.45838 8.05922 8.41394 8.01703C8.37172 7.97232 8.34136 7.92551 8.32301 7.87665C8.3037 7.83196 8.29395 7.77508 8.29395 7.70669V6.45361H8.71595V7.5722C8.71595 7.66191 8.75336 7.70669 8.82907 7.70669H9.12692C9.16234 7.70669 9.19313 7.69529 9.21885 7.67208C9.24383 7.65248 9.25619 7.62914 9.25619 7.6017V6.45361H9.67466V8.30223C9.67236 8.43901 9.63645 8.54854 9.56743 8.6316C9.49718 8.71471 9.40132 8.75716 9.27902 8.75928H8.29395V8.33479H9.13633" fill="white"/>
<path fill-rule="evenodd" clip-rule="evenodd" d="M10.0059 7.7067H10.7578C10.8267 7.70433 10.8624 7.67736 10.8645 7.62566V7.5875C10.8645 7.57649 10.8611 7.56424 10.8546 7.55102C10.8377 7.51898 10.8171 7.50304 10.7926 7.50304H10.4198C10.3091 7.50096 10.2147 7.4636 10.1353 7.39158C10.0552 7.32509 10.0139 7.24323 10.0116 7.14714V6.83062C10.016 6.58369 10.153 6.458 10.4229 6.45361H11.295V6.87806H10.5562C10.4694 6.87806 10.4258 6.9041 10.4258 6.95597V6.9971C10.4258 7.05097 10.4704 7.07792 10.5594 7.07792H10.931C11.0301 7.08018 11.1145 7.11728 11.1848 7.18967C11.2559 7.26257 11.2928 7.34931 11.295 7.45V7.75969C11.2928 7.84664 11.2517 7.93343 11.1726 8.02002C11.134 8.06252 11.0946 8.09178 11.0552 8.10827C11.0144 8.12348 10.959 8.13119 10.8881 8.13119H10.0059V7.7067" fill="white"/>
<path fill-rule="evenodd" clip-rule="evenodd" d="M12.0174 7.62265C12.0174 7.64687 12.0288 7.66606 12.0516 7.68039C12.0712 7.69771 12.0964 7.70669 12.1276 7.70669H12.4524C12.5257 7.70669 12.5635 7.67888 12.5657 7.62265V7.50413C12.5657 7.43948 12.5265 7.40685 12.4489 7.40685H12.1276C12.0855 7.40685 12.0565 7.41367 12.0403 7.42668C12.0253 7.442 12.0174 7.4723 12.0174 7.51721V7.62265V7.62265ZM12.5657 6.96984C12.5675 6.90633 12.5298 6.87598 12.4518 6.87806H11.6021V6.45361H12.5592C12.8377 6.458 12.9792 6.58995 12.9836 6.8502V7.73811C12.9814 7.85045 12.946 7.94301 12.8782 8.01664C12.8074 8.0929 12.7154 8.13119 12.6027 8.13119H12.0239C11.7425 8.12886 11.5996 8.00306 11.5957 7.75286V7.41028C11.5976 7.1488 11.7338 7.01597 12.0042 7.01138H12.5657V6.96984V6.96984Z" fill="white"/>
<path fill-rule="evenodd" clip-rule="evenodd" d="M13.3262 6.213C13.3288 6.09843 13.3719 6.00644 13.4565 5.93743C13.5385 5.86738 13.6462 5.83134 13.7794 5.82935H14.0473V6.23941H13.8851C13.7959 6.24141 13.7503 6.28323 13.7485 6.36387V6.45378H14.0473V6.87864H13.7485V8.13146H13.3262V6.213" fill="white"/>
<path fill-rule="evenodd" clip-rule="evenodd" d="M15.2477 6.96192V6.95202C15.2477 6.93019 15.2387 6.91168 15.2205 6.89787C15.2008 6.88449 15.1767 6.87806 15.1479 6.87806H14.8542C14.8165 6.87806 14.7861 6.88836 14.7626 6.90952C14.7334 6.9291 14.7185 6.95488 14.7185 6.98661V7.15705L15.2477 6.96192V6.96192ZM14.7252 7.5619V7.5883C14.7252 7.62232 14.7342 7.64932 14.7526 7.66889C14.7658 7.69395 14.7837 7.7067 14.8075 7.7067H15.6744V8.13119H14.7526C14.6685 8.13119 14.603 8.12348 14.5566 8.10806C14.506 8.09178 14.4606 8.06506 14.4209 8.02804C14.3745 7.98305 14.3429 7.93733 14.327 7.89025C14.3096 7.84121 14.3009 7.77607 14.3009 7.69493L14.2974 6.8454C14.3021 6.58865 14.439 6.458 14.7081 6.45361H15.277C15.5398 6.458 15.673 6.59327 15.6772 6.85981V7.19543L14.7252 7.5619V7.5619Z" fill="white"/>
<path fill-rule="evenodd" clip-rule="evenodd" d="M16.5703 8.13116C16.5064 8.13116 16.4481 8.12548 16.3952 8.11488C16.3398 8.10606 16.2845 8.08085 16.228 8.03842C16.1701 7.98899 16.1301 7.93366 16.1081 7.87244C16.0849 7.81234 16.0737 7.74423 16.0737 7.66754V6.87538C16.0714 6.81081 16.078 6.75403 16.0934 6.70493C16.1076 6.65573 16.1374 6.60775 16.1825 6.56066C16.2338 6.51122 16.2862 6.47838 16.3416 6.46226C16.3948 6.44917 16.4548 6.44263 16.5221 6.44263H17.1688V6.54183H16.537C16.4255 6.54183 16.3378 6.56429 16.2737 6.60921C16.2081 6.65828 16.1748 6.74271 16.1748 6.86178V7.65445C16.1748 7.71022 16.1834 7.76443 16.2007 7.81678C16.2185 7.86826 16.2479 7.91338 16.2903 7.9528C16.3362 7.98699 16.3821 8.0083 16.4267 8.017C16.4733 8.02705 16.5232 8.03178 16.5762 8.03178H17.179V8.13116H16.5703" fill="white"/>
<path fill-rule="evenodd" clip-rule="evenodd" d="M18.8327 7.10341H17.9847C17.8831 7.10572 17.8037 7.13646 17.7463 7.19566C17.6871 7.25571 17.6578 7.33825 17.6578 7.44296V7.69581C17.6578 7.74483 17.663 7.78964 17.6737 7.83001C17.6844 7.87244 17.711 7.91037 17.7531 7.94298C17.8263 8.00241 17.9075 8.03177 17.9961 8.03177H18.5099C18.7245 8.02959 18.8327 7.91881 18.8327 7.69895V7.10341V7.10341ZM18.9334 7.67424C18.9334 7.73797 18.9284 7.79403 18.9201 7.84323C18.9064 7.89684 18.8783 7.94846 18.8357 7.9975C18.7472 8.08892 18.6373 8.1335 18.5064 8.13116H18.0021C17.8712 8.13116 17.765 8.09286 17.6827 8.01661C17.5987 7.94121 17.5562 7.83645 17.5562 7.70207V7.44677C17.5604 7.15856 17.707 7.01109 17.9958 7.00436H18.8357V6.89254C18.8357 6.80055 18.8085 6.71986 18.7543 6.65051C18.7199 6.60544 18.6793 6.5754 18.6331 6.5598C18.5864 6.54791 18.5339 6.54183 18.4755 6.54183H17.5592V6.44263H18.4279C18.5073 6.44263 18.5791 6.44808 18.644 6.45885C18.6776 6.46534 18.7079 6.47809 18.7361 6.4965C18.7657 6.5141 18.7935 6.53975 18.8192 6.5734C18.8971 6.6718 18.9351 6.78524 18.9334 6.91313V7.67424V7.67424Z" fill="white"/>
<path fill-rule="evenodd" clip-rule="evenodd" d="M19.8814 6.54183C19.6462 6.54619 19.5304 6.6718 19.5348 6.9191V8.13116H19.4337V6.91952C19.429 6.60142 19.5836 6.44263 19.8977 6.44263H20.01V6.54183H19.8814" fill="white"/>
<path fill-rule="evenodd" clip-rule="evenodd" d="M21.5897 6.54235H20.7905C20.7329 6.54235 20.6813 6.54866 20.6348 6.5606C20.5861 6.57135 20.5391 6.60027 20.4951 6.64735C20.4529 6.69024 20.4265 6.73271 20.4152 6.77521C20.4004 6.8181 20.3938 6.86951 20.3962 6.92949V7.7023C20.3962 7.83079 20.4342 7.91818 20.5112 7.96518C20.5493 7.98693 20.5909 8.00324 20.6378 8.01422C20.6845 8.02635 20.7364 8.03237 20.7938 8.03237H21.1431C21.2736 8.03237 21.3804 8.00298 21.4624 7.9436C21.545 7.88796 21.5869 7.79187 21.5897 7.65502V6.54235V6.54235ZM21.6907 7.66183C21.6817 7.98167 21.5088 8.13846 21.172 8.13181H20.7974C20.7183 8.13181 20.6475 8.12506 20.5849 8.11213C20.5206 8.09585 20.4589 8.05737 20.3996 7.99745C20.3549 7.9436 20.3262 7.88919 20.3147 7.83337C20.2993 7.77775 20.2925 7.71578 20.2949 7.64812V6.92694C20.2993 6.60209 20.4664 6.4406 20.7966 6.44307H21.5897V5.89551H21.6907V7.66183V7.66183Z" fill="white"/>
<path fill-rule="evenodd" clip-rule="evenodd" d="M2.49049 6.38968C2.52361 6.37535 2.55676 6.36421 2.58986 6.3572C2.65077 6.07249 2.90836 5.85884 3.21718 5.85884C3.52614 5.85884 3.78386 6.07278 3.84467 6.35749C3.93952 6.37501 4.01793 6.41266 4.07903 6.46851C4.0815 6.41383 4.07927 6.36115 4.07269 6.31158C4.0335 5.88135 3.66506 5.5437 3.21588 5.5437C2.75334 5.5437 2.37684 5.90264 2.35727 6.35133C2.35457 6.39007 2.35377 6.43039 2.35518 6.47263C2.394 6.44057 2.43831 6.41178 2.49049 6.38968" fill="#E2001A"/>
<path fill-rule="evenodd" clip-rule="evenodd" d="M3.71954 6.45361H2.6889C2.63926 6.45361 2.5879 6.46483 2.53497 6.48804C2.48398 6.50985 2.44203 6.53625 2.40856 6.56772C2.34455 6.64299 2.31182 6.75307 2.30957 6.89787V7.6867C2.31182 7.83186 2.34455 7.94174 2.40856 8.01664C2.44203 8.04868 2.48398 8.07501 2.53497 8.097C2.5879 8.11977 2.63926 8.13119 2.6889 8.13119H3.71954C3.98569 8.12886 4.12115 7.98593 4.12541 7.70327V6.88138C4.12115 6.59831 3.98569 6.45585 3.71954 6.45361" fill="#E2001A"/>
</g>
<defs>
<clipPath id="clip0">
<rect width="24" height="14.303" fill="white"/>
</clipPath>
</defs>
</svg>
