<svg width="24" height="15" viewBox="0 0 24 15" fill="none" xmlns="http://www.w3.org/2000/svg">
<g clip-path="url(#clip0)">
<rect width="24" height="14.303" rx="2" fill="#862165"/>
<path fill-rule="evenodd" clip-rule="evenodd" d="M15.0741 5.9106C15.3935 5.9106 15.6521 5.65376 15.6521 5.33692C15.6521 5.02 15.3935 4.76291 15.0741 4.76291C14.7554 4.76291 14.4967 5.02 14.4967 5.33692C14.4967 5.65376 14.7554 5.9106 15.0741 5.9106V5.9106ZM10.6476 6.22031C10.6215 6.28546 10.4339 6.8121 9.9798 7.35792V5.0241L8.7702 5.26152V9.49201H9.9798V8.18435C10.3302 8.70615 10.5032 9.49201 10.5032 9.49201H11.952C11.8087 8.90022 11.1818 7.809 11.1818 7.809C11.7444 7.1005 11.9916 6.34553 12.0308 6.22031H10.6476V6.22031ZM13.8276 6.17622C12.7442 6.2108 12.1941 6.6936 12.1941 7.65336V9.49201H13.3762V7.99257C13.3762 7.41799 13.452 7.17155 14.1385 7.14811V6.1931C14.023 6.16868 13.8276 6.17622 13.8276 6.17622V6.17622ZM6.74161 6.68622C6.59342 6.67663 6.25043 6.65458 6.25043 6.34783C6.25043 5.97772 6.74425 5.97772 6.92948 5.97772C7.25515 5.97772 7.67694 6.0732 7.97819 6.16278C7.97819 6.16278 8.14626 6.22162 8.28925 6.28186L8.30253 6.28546V6.27202V5.27177L8.2843 5.26644C7.92876 5.14293 7.51539 5.0241 6.74903 5.0241C5.42764 5.0241 4.95947 5.78865 4.95947 6.44363C4.95947 6.8212 5.12235 7.70991 6.63575 7.81244C6.76397 7.82022 7.10441 7.83973 7.10441 8.15665C7.10441 8.41841 6.82569 8.57265 6.35695 8.57265C5.84324 8.57265 5.34471 8.44259 5.04207 8.31916V9.3631C5.49529 9.48103 6.00603 9.54004 6.60481 9.54004C7.89683 9.54004 8.47548 8.81663 8.47548 8.09969C8.47548 7.28678 7.82794 6.7585 6.74161 6.68622V6.68622ZM14.4882 9.49201H15.6606V6.22408H14.4882V9.49201V9.49201ZM17.8683 5.23235V9.49201H19.0409V5.0241L17.8683 5.23235V5.23235ZM16.1573 5.23235L17.3287 5.0241V9.49201H16.1573V5.23235V5.23235Z" fill="white"/>
</g>
<defs>
<clipPath id="clip0">
<rect width="24" height="14.303" fill="white"/>
</clipPath>
</defs>
</svg>
