<svg width="24" height="15" viewBox="0 0 24 15" fill="none" xmlns="http://www.w3.org/2000/svg">
<g clip-path="url(#clip0)">
<rect width="24" height="14.303" rx="2" fill="#26337A"/>
<path fill-rule="evenodd" clip-rule="evenodd" d="M9.95746 9.42739L10.6954 4.88044H11.875L11.1371 9.42739H9.95746Z" fill="#FFFFFE"/>
<path fill-rule="evenodd" clip-rule="evenodd" d="M15.4158 4.99204C15.1825 4.90079 14.8157 4.80127 14.3588 4.80127C13.1926 4.80127 12.3716 5.41831 12.3648 6.30188C12.3574 6.95545 12.9506 7.31995 13.3979 7.53718C13.8575 7.75985 14.0119 7.90234 14.0101 8.10144C14.0069 8.40597 13.6432 8.54551 13.3041 8.54551C12.8318 8.54551 12.5809 8.47681 12.193 8.30706L12.0413 8.23467L11.8763 9.25247C12.1514 9.37911 12.6613 9.48904 13.1905 9.49481C14.4299 9.49481 15.2352 8.88522 15.2447 7.94169C15.2489 7.42342 14.9346 7.03059 14.2539 6.70626C13.8416 6.49541 13.5887 6.35573 13.5916 6.14233C13.5918 5.95337 13.8053 5.75104 14.2673 5.75104C14.6531 5.74487 14.9324 5.83337 15.1501 5.92577L15.256 5.97774L15.4158 4.99204Z" fill="#FFFFFE"/>
<path fill-rule="evenodd" clip-rule="evenodd" d="M16.9864 7.81531C17.0842 7.55396 17.4563 6.54436 17.4563 6.54436C17.4494 6.55638 17.5535 6.281 17.6131 6.11057L17.6927 6.50273C17.6927 6.50273 17.9191 7.58801 17.9657 7.81531C17.782 7.81531 17.2167 7.81531 16.9864 7.81531ZM18.4416 4.88507H17.5301C17.2473 4.88507 17.0357 4.96552 16.9118 5.26199L15.1601 9.429H16.399C16.399 9.429 16.6011 8.86843 16.647 8.74541C16.7821 8.74541 17.986 8.74776 18.1578 8.74776C18.1932 8.90644 18.3015 9.429 18.3015 9.429H19.3963L18.4416 4.88507Z" fill="#FFFFFE"/>
<path fill-rule="evenodd" clip-rule="evenodd" d="M8.96788 4.88427L7.81334 7.9842L7.68968 7.35406C7.47453 6.62803 6.8048 5.84109 6.05566 5.44679L7.1119 9.42343L8.36028 9.42269L10.2179 4.88427H8.96788Z" fill="#FFFFFE"/>
<path fill-rule="evenodd" clip-rule="evenodd" d="M6.74157 4.8811H4.83938L4.82373 4.97532C6.30386 5.35196 7.28318 6.26111 7.68966 7.35398L7.2763 5.26473C7.20499 4.97659 6.99774 4.89118 6.74157 4.8811" fill="#EC982D"/>
</g>
<defs>
<clipPath id="clip0">
<rect width="24" height="14.303" fill="white"/>
</clipPath>
</defs>
</svg>
