<!--
    SVG Free Icons
    TODO - Pull out from here into other icon sprites as the below icons could be used on other pages.
-->

<svg xmlns="http://www.w3.org/2000/svg">

  <!-- <symbol id="icon-tick" viewBox="0 0 10 10">
    <path d="M9.36532 1.71284C9.02891 1.37058 8.4811 1.37058 8.14469 1.71284L3.49787 6.44055L1.85512 4.76921C1.51871 4.42695 0.9709 4.42695 0.634493 4.76921C0.301198 5.1083 0.301198 5.65578 0.634493 5.99487L2.88755 8.28715C3.22396 8.62941 3.77177 8.62941 4.10818 8.28715L9.36532 2.93851C9.69862 2.59941 9.69862 2.05194 9.36532 1.71284Z"/>
  </symbol> -->

  <symbol id="icon-filter" viewBox="0 0 16 16" fill="none">
    <path d="M14.6666 2H1.33325L6.66659 8.30667V12.6667L9.33325 14V8.30667L14.6666 2Z" stroke="currentColor" stroke-linecap="round" stroke-linejoin="round"/>
  </symbol>

  <symbol id="icon-lightbulb" viewBox="0 0 15 15">
    <path d="M7 0v2h1V0H7zM3.354 3.646l-1.5-1.5-.708.708 1.5 1.5.708-.708zm9 .708l1.5-1.5-.708-.708-1.5 1.5.708.708zM7.5 3a3.959 3.959 0 00-3.92 3.4l-.01.07a3.951 3.951 0 00.79 2.989c.383.495.64.968.64 1.442V12.5a.5.5 0 00.5.5h4a.5.5 0 00.5-.5v-1.599c0-.474.257-.947.64-1.442.63-.814.948-1.875.79-2.99l-.01-.07A3.959 3.959 0 007.5 3zM0 8h2V7H0v1zm13 0h2V7h-2v1zm-7 7h3v-1H6v1z" fill="currentColor"/>
  </symbol>

  <symbol id="icon-lightning" viewBox="0 0 12 12">
    <path d="M10.4902 5.90092C10.4522 5.71192 10.3087 5.56142 10.1212 5.51542L6.69115 4.65742L7.95965 1.69692C8.05065 1.48542 7.98515 1.23892 7.80115 1.10092C7.61665 0.961419 7.36165 0.966919 7.18415 1.11292L1.68415 5.61292C1.53765 5.73292 1.47115 5.92492 1.51265 6.10942C1.55365 6.29392 1.69565 6.43942 1.87915 6.48492L5.23865 7.32542L3.56615 10.2524C3.44865 10.4584 3.49165 10.7184 3.66915 10.8754C3.76315 10.9579 3.88165 10.9999 4.00015 10.9999C4.10565 10.9999 4.21115 10.9669 4.30015 10.8999L10.3002 6.39992C10.4542 6.28392 10.5287 6.09042 10.4902 5.90092Z"/>
  </symbol>
</svg>
