<!--
    SVG Device Icons

    The ID is used by Unity to display correct icons, i.e. in toplists icon-xxx.
    If adding a new icon make sure it matches up with xxx
-->
<svg xmlns="http://www.w3.org/2000/svg">

    <symbol id="icon-apple" viewBox="0 0 15 15">
        <title>apple</title>
        <path d="M7.875 2.937A.371.371 0 017.5 2.57C7.5 1.15 8.676 0 10.124 0a.37.37 0 01.375.367c0 1.42-1.175 2.57-2.624 2.57z" fill="currentColor"></path><path d="M7.875 2.937A.371.371 0 017.5 2.57C7.5 1.15 8.676 0 10.124 0a.37.37 0 01.375.367c0 1.42-1.175 2.57-2.624 2.57zm5.475 7.731c.145.106.192.3.11.458C12.14 13.712 11.087 15 10.125 15c-.448 0-.888-.142-1.317-.418a1.985 1.985 0 00-2.073-.044c-.52.305-1.015.462-1.485.462-1.415 0-3.75-4.267-3.75-6.608 0-2.5 1.339-4.406 3.375-4.406.958 0 1.785.138 2.48.419.294.118.627.11.914-.025.564-.266 1.308-.394 2.23-.394 1.127 0 2.11.55 2.926 1.615a.362.362 0 01-.075.514c-.911.67-1.35 1.421-1.35 2.277 0 .855.439 1.607 1.35 2.276z" fill="currentColor"></path><path d="M13.35 10.668c.145.106.192.3.11.458C12.14 13.712 11.087 15 10.125 15c-.448 0-.888-.142-1.317-.418a1.985 1.985 0 00-2.073-.044c-.52.305-1.015.462-1.485.462-1.415 0-3.75-4.267-3.75-6.608 0-2.5 1.339-4.406 3.375-4.406.958 0 1.785.138 2.48.419.294.118.627.11.914-.025.564-.266 1.308-.394 2.23-.394 1.127 0 2.11.55 2.926 1.615a.362.362 0 01-.075.514c-.911.67-1.35 1.421-1.35 2.277 0 .855.439 1.607 1.35 2.276z" fill="currentColor"></path>
    </symbol>

    <symbol id="icon-windows" viewBox="0 0 15 15">
        <title>windows</title>
        <path d="M14.814.111A.5.5 0 0115 .5V7H7V1.596L14.395.01a.5.5 0 01.42.1zM6 1.81L.395 3.011A.5.5 0 000 3.5V7h6V1.81zM0 8v4.5a.5.5 0 00.43.495l5.57.796V8H0zm7 5.934l7.43 1.061A.5.5 0 0015 14.5V8H7v5.934z" fill="currentColor"></path>
    </symbol>

    <symbol id="icon-android" viewBox="0 0 15 15">
        <title>android</title>
        <path fill-rule="evenodd" clip-rule="evenodd" d="M7.5 4a6.473 6.473 0 00-2.934.698l-1.65-2.475-.832.554 1.627 2.44A6.492 6.492 0 001 10.5V13h13v-2.5a6.492 6.492 0 00-2.711-5.282l1.627-2.44-.832-.555-1.65 2.475A6.473 6.473 0 007.5 4zM5 10H4V9h1v1zm5 0h1V9h-1v1z" fill="currentColor"></path>
    </symbol>

    <symbol id="icon-blackberry" viewBox="0 0 39 27">
        <title>blackberry</title>
        <path fill="currentColor" fill-rule="nonzero" d="M12.267 2.864C12.267 1.6 11.493 0 8.24 0H3.231L1.807 6.588h5.222c4.077 0 5.238-1.93 5.238-3.724zM25.76 2.864C25.76 1.6 24.988 0 21.736 0h-5.01l-1.423 6.587h5.219c4.079.001 5.238-1.929 5.238-3.723zM10.46 12.779c0-1.264-.774-2.868-4.027-2.868H1.424L0 16.503h5.22c4.078 0 5.24-1.935 5.24-3.724zM23.953 12.779c0-1.264-.775-2.868-4.025-2.868h-5.009l-1.426 6.592h5.222c4.079 0 5.238-1.935 5.238-3.724zM38.07 8.758c0-1.265-.775-2.868-4.025-2.868h-5.009l-1.426 6.591h5.22c4.079 0 5.24-1.93 5.24-3.723zM36.124 19.081c0-1.265-.773-2.864-4.025-2.864H27.09l-1.424 6.588h5.22c4.078 0 5.238-1.935 5.238-3.724zM22.014 23.103c0-1.27-.772-2.873-4.022-2.873H12.98l-1.424 6.591h5.22c4.079.001 5.238-1.929 5.238-3.718z"/>
    </symbol>

    <symbol id="icon-mobile" viewBox="0 0 30 30">
        <title>mobile</title>
        <path d="M20.875 1H8.625A2.626 2.626 0 006 3.625v22.75A2.626 2.626 0 008.625 29h12.25a2.626 2.626 0 002.625-2.625V3.625A2.626 2.626 0 0020.875 1zM14.75 27.25c-.968 0-1.75-.782-1.75-1.75s.782-1.75 1.75-1.75 1.75.782 1.75 1.75-.782 1.75-1.75 1.75zm6.125-5.906c0 .36-.295.656-.656.656H9.28a.658.658 0 01-.656-.656V4.28c0-.36.295-.656.656-.656H20.22c.36 0 .656.295.656.656v17.063z" fill="currentColor"/>
    </symbol>

</svg>
