<svg xmlns="http://www.w3.org/2000/svg" xmlns:xlink="http://www.w3.org/1999/xlink" viewBox="0 0 160 79.86"><defs><linearGradient id="linear-gradient" x1="30.22" y1="600.39" x2="43.78" y2="623.88" gradientTransform="matrix(1, 0, 0, -1, 0, 638.44)" gradientUnits="userSpaceOnUse"><stop offset="0" stop-color="#4d0207"/><stop offset="0.21" stop-color="#610309"/><stop offset="0.33" stop-color="#70030b"/><stop offset="1" stop-color="#bf0513"/></linearGradient><linearGradient id="linear-gradient-2" x1="55.31" y1="571.63" x2="55.31" y2="625.51" gradientTransform="matrix(1, 0, 0, -1, 0, 638.44)" gradientUnits="userSpaceOnUse"><stop offset="0" stop-color="#02354d"/><stop offset="0.21" stop-color="#034361"/><stop offset="0.33" stop-color="#034d70"/><stop offset="1" stop-color="#0584bf"/></linearGradient><linearGradient id="linear-gradient-3" x1="36.81" y1="620.62" x2="29.27" y2="595.47" gradientTransform="matrix(1, 0, 0, -1, 0, 638.44)" gradientUnits="userSpaceOnUse"><stop offset="0" stop-color="#4d0207"/><stop offset="0.19" stop-color="#610309"/><stop offset="0.31" stop-color="#70030b"/><stop offset="1" stop-color="#bf0513"/></linearGradient><linearGradient id="linear-gradient-4" x1="50" y1="616.11" x2="67.72" y2="616.11" gradientTransform="matrix(1, 0, 0, -1, 0, 638.44)" gradientUnits="userSpaceOnUse"><stop offset="0.03" stop-color="#02354d"/><stop offset="0.13" stop-color="#034361"/><stop offset="0.19" stop-color="#034d70"/><stop offset="0.77" stop-color="#0584bf"/></linearGradient></defs><g id="Layer_2" data-name="Layer 2"><g id="Layer_1-2" data-name="Layer 1"><rect width="160" height="79.86" style="fill:#1b0c30;isolation:isolate"/><path d="M77.31,32a1.23,1.23,0,0,0,1.1.41h1.23a.89.89,0,0,0,.87-.4,2.57,2.57,0,0,0,.21-1.17V27.58h.78v3.89a2.16,2.16,0,0,1-.36,1.18,1.3,1.3,0,0,1-1.07.58H77.76a1.31,1.31,0,0,1-1.16-.63,2.53,2.53,0,0,1-.33-1.27V17.25a2.26,2.26,0,0,1,.41-1.31,1.3,1.3,0,0,1,1.14-.59h2.12a1.6,1.6,0,0,1,1.13.57,1.74,1.74,0,0,1,.44,1.15V21h-.79V17.73a2.49,2.49,0,0,0-.2-1.16.89.89,0,0,0-.87-.38H78a.82.82,0,0,0-.69.42,2,2,0,0,0-.29,1.13V30.83A2.19,2.19,0,0,0,77.31,32Z" style="fill:#fff"/><path d="M88,33.23H87.1l2.73-17.88h1l2.86,17.88h-.85l-2.5-16.15Z" style="fill:#fff"/><path d="M99.32,15.35h2.86a1.14,1.14,0,0,1,.62.3,3.68,3.68,0,0,1,.76.91,6.64,6.64,0,0,1,.65,1.53,7.2,7.2,0,0,1,.27,2.16,9.48,9.48,0,0,1-.21,2.25,6,6,0,0,1-.56,1.58A3.11,3.11,0,0,1,103,25a1.34,1.34,0,0,1-.8.31h-2v7.91h-.79Zm2.5,9.13a1.23,1.23,0,0,0,1-.41,2.79,2.79,0,0,0,.52-1,7.93,7.93,0,0,0,.25-1.36c0-.49.09-.95.14-1.38a14.09,14.09,0,0,0-.16-1.44,6.77,6.77,0,0,0-.35-1.32,2.69,2.69,0,0,0-.62-1,1.31,1.31,0,0,0-1-.38h-1.52v8.3Z" style="fill:#fff"/><path d="M115.37,15.35v.83h-2.24v17h-.81v-17h-2.23v-.83Z" style="fill:#fff"/><path d="M119.64,33.23h-.85l2.73-17.88h1l2.85,17.88h-.85L122,17.08Z" style="fill:#fff"/><path d="M131,15.35h.86V33.23H131Z" style="fill:#fff"/><path d="M137.46,33.23V15.35h.88l3.57,14.86V15.35h.78V33.23h-.86l-3.58-14.79V33.23Z" style="fill:#fff"/><path d="M77.48,41.07v7.32a3.13,3.13,0,0,0,.17,1.14c.1.29.49.44,1.16.44h3.43a1.32,1.32,0,0,1,.55.14,2.69,2.69,0,0,1,.62.39,2.61,2.61,0,0,1,.51.59,1.5,1.5,0,0,1,.22.77v9.65a3.51,3.51,0,0,1-.54,1.94,2.07,2.07,0,0,1-1.79.91H78.63a2.34,2.34,0,0,1-1.7-.85,2.71,2.71,0,0,1-.66-1.72V55.86h1.19v4.92a4,4,0,0,0,.3,1.76c.21.39.64.57,1.31.57H81.5a1.16,1.16,0,0,0,1.14-.63,3.71,3.71,0,0,0,.32-1.7V52.72a1.66,1.66,0,0,0-.32-1.13,1.78,1.78,0,0,0-1.36-.37H78.36A2.48,2.48,0,0,1,77,50.76a1.67,1.67,0,0,1-.69-1.51V40.36a3.52,3.52,0,0,1,.53-2,2.12,2.12,0,0,1,1.78-.91h3.19a2.31,2.31,0,0,1,1.69.85,2.6,2.6,0,0,1,.66,1.72V46H83V41.1a3.9,3.9,0,0,0-.31-1.77,1.33,1.33,0,0,0-1.3-.59H79a1.16,1.16,0,0,0-1.18.63A4,4,0,0,0,77.48,41.07Z" style="fill:#fff"/><path d="M92.6,37.5h4.28a1.73,1.73,0,0,1,.93.44A5.26,5.26,0,0,1,99,39.3a9.26,9.26,0,0,1,1,2.31,11.63,11.63,0,0,1,.41,3.25,16.06,16.06,0,0,1-.32,3.38,9.27,9.27,0,0,1-.84,2.37A4.38,4.38,0,0,1,98,52a2,2,0,0,1-1.2.46H93.77v11.9H92.6Zm3.75,13.72a1.84,1.84,0,0,0,1.49-.61,3.92,3.92,0,0,0,.78-1.55A11.85,11.85,0,0,0,99,47c.07-.74.14-1.43.22-2.07s-.13-1.44-.24-2.16a11.42,11.42,0,0,0-.52-2,4,4,0,0,0-.93-1.46,2,2,0,0,0-1.45-.58H93.79V51.21Z" style="fill:#fff"/><path d="M108.78,37.5h1.29V64.37h-1.29Z" style="fill:#fff"/><path d="M118.5,64.37V37.5h1.32l5.36,22.33V37.5h1.18V64.37h-1.28l-5.4-22.23V64.37Z" style="fill:#fff"/><path d="M136,41.07v7.32a3.13,3.13,0,0,0,.17,1.14c.1.29.49.44,1.16.44h3.43a1.32,1.32,0,0,1,.55.14,2.32,2.32,0,0,1,.62.39,2.61,2.61,0,0,1,.51.59,1.5,1.5,0,0,1,.22.77v9.65a3.51,3.51,0,0,1-.54,1.94,2.06,2.06,0,0,1-1.78.91h-3.18a2.34,2.34,0,0,1-1.7-.85,2.65,2.65,0,0,1-.66-1.72V55.86H136v4.92a4,4,0,0,0,.31,1.76c.2.39.64.57,1.31.57H140a1.17,1.17,0,0,0,1.14-.63,3.68,3.68,0,0,0,.32-1.7V52.72a1.66,1.66,0,0,0-.32-1.13,1.81,1.81,0,0,0-1.36-.37H136.9a2.46,2.46,0,0,1-1.34-.46,1.68,1.68,0,0,1-.7-1.51V40.36a3.52,3.52,0,0,1,.53-2,2.13,2.13,0,0,1,1.79-.91h3.18a2.34,2.34,0,0,1,1.7.85,2.71,2.71,0,0,1,.66,1.72V46h-1.19V41.1a4.06,4.06,0,0,0-.3-1.77,1.35,1.35,0,0,0-1.31-.59h-2.43a1.17,1.17,0,0,0-1.18.63A4,4,0,0,0,136,41.07Z" style="fill:#fff"/><path d="M41,12.92V41.14H35.57V20.63a5.91,5.91,0,0,0-.41-2.45,8.85,8.85,0,0,0-3.36-4.57A77.93,77.93,0,0,1,41,12.92Z" style="fill:url(#linear-gradient)"/><path d="M66.55,37.19c-.07.31-.14.62-.22.94s-.16.61-.25.92-.19.71-.3,1.07-.21.69-.31,1c0,.15-.09.3-.14.45-.12.36-.25.71-.37,1.07s-.29.79-.44,1.17c-.32.85-.68,1.69-1.06,2.5-.09.21-.18.41-.28.61s-.19.41-.3.61a2.26,2.26,0,0,1-.11.22c-.09.18-.18.37-.29.55s-.13.28-.21.42l-.55,1a43.16,43.16,0,0,1-10.93,12.8,38.66,38.66,0,0,1-4,2.79c-.87.52-1.77,1-2.68,1.47V48.66h5.36V59a44.76,44.76,0,0,0,9.76-15.19c.33-.86.65-1.73.92-2.62a10.24,10.24,0,0,0-1.36-.07H44.07V12.92a81.2,81.2,0,0,1,9.21.7A8.83,8.83,0,0,0,50,18a6.24,6.24,0,0,0-.47,2.64V34.9a3.65,3.65,0,0,0,.32,1.64c.2.44.93.66,2.14.66Z" style="fill:url(#linear-gradient-2)"/><path d="M41,48.66V66.8q-1.27-.61-2.49-1.35a38.69,38.69,0,0,1-4.29-2.94A42.87,42.87,0,0,1,22.67,48.58a46.19,46.19,0,0,1-2.17-4.75A47.22,47.22,0,0,1,18,34.55h0c-.1-.54-.18-1.09-.25-1.62s-.14-1.11-.19-1.65-.07-.79-.1-1.19c0-.24,0-.49,0-.73s0-.66-.05-1c0-.18,0-.35,0-.53s0-.54,0-.81a1.88,1.88,0,0,1,0-.33v-.2a47.8,47.8,0,0,1,.25-4.81c.07-.79.17-1.59.29-2.37.06-.4.12-.79.19-1.18s.14-.75.22-1.13l.62-.24a60.8,60.8,0,0,1,13-3.15,8.85,8.85,0,0,1,3.36,4.57,2.46,2.46,0,0,0-.23-.42A2.16,2.16,0,0,0,33.68,17,65.74,65.74,0,0,0,22.9,19.05a5,5,0,0,0-.23,1.58v6c0,.71,0,1.41,0,2.12a47.45,47.45,0,0,0,3.17,15.06A44.7,44.7,0,0,0,35.57,59V48.66Z" style="fill:url(#linear-gradient-3)"/><path d="M67.49,21.68c0-.4-.08-.8-.13-1.19-.15-1.19-.34-2.35-.57-3.5l-.53-.19a60,60,0,0,0-13-3.18A8.83,8.83,0,0,0,50,18a.61.61,0,0,0,0-.12A1.8,1.8,0,0,1,51.22,17a66.61,66.61,0,0,1,11,2.09,7.41,7.41,0,0,1,.15,1.62v1h0V31h5.14L67.61,30h0c0-.07,0-.13,0-.19,0-.3,0-.58,0-.88s0-.32,0-.49v0c0-.61,0-1.24,0-1.87A45,45,0,0,0,67.49,21.68Z" style="fill:url(#linear-gradient-4)"/></g></g></svg>